<?xml version="1.0" encoding="UTF-8" standalone="no"?>
<!DOCTYPE svg PUBLIC "-//W3C//DTD SVG 1.1//EN"
 "http://www.w3.org/Graphics/SVG/1.1/DTD/svg11.dtd">
<!-- Generated by graphviz version 7.0.4 (20221203.1631)
 -->
<!-- Title: Entity Relationship Diagram Pages: 1 -->
<svg width="989pt" height="979pt"
 viewBox="0.00 0.00 989.00 979.00" xmlns="http://www.w3.org/2000/svg" xmlns:xlink="http://www.w3.org/1999/xlink">
<g id="graph0" class="graph" transform="scale(1 1) rotate(0) translate(4 975)">
<title>Entity Relationship Diagram</title>
<polygon fill="white" stroke="none" points="-4,4 -4,-975 985,-975 985,4 -4,4"/>
<text text-anchor="middle" x="490.5" y="-6.8" font-family="Times New Roman,serif" font-size="9.00" fill="#a8a8a8">Created by erdantic v0.5.0 &lt;https://github.com/drivendataorg/erdantic&gt;</text>
<!-- eya_def_tools.data_models.energy_yield_assessment.CoordinateReferenceSystem -->
<g id="node1" class="node">
<title>eya_def_tools.data_models.energy_yield_assessment.CoordinateReferenceSystem</title>
<g id="a_node1"><a xlink:title="eya_def_tools.data_models.energy_yield_assessment.CoordinateReferenceSystem&#10;&#10;Specification of a coordinate reference system for GIS data.&#10;&#10;Attributes:&#10; &#160;&#160;&#160;system_label (str): Label of the coordinate system.&#10; &#160;&#160;&#160;epsg_srid (Optional[int]): EPSG Spatial Reference System Identifier (SRID). Default is None.&#10; &#160;&#160;&#160;wkt (Optional[str]): Well&#45;known text (WKT) string definition of the coordinate system. Default is None.&#10;">
<polygon fill="none" stroke="black" points="659.5,-646 659.5,-667 840.5,-667 840.5,-646 659.5,-646"/>
<text text-anchor="start" x="662.5" y="-653.8" font-family="Times New Roman,serif" font-weight="bold" font-size="14.00">CoordinateReferenceSystem</text>
<polygon fill="none" stroke="black" points="659.5,-625 659.5,-646 750.5,-646 750.5,-625 659.5,-625"/>
<text text-anchor="start" x="668.5" y="-631.8" font-family="Times New Roman,serif" font-size="14.00">system_label</text>
<polygon fill="none" stroke="black" points="750.5,-625 750.5,-646 840.5,-646 840.5,-625 750.5,-625"/>
<text text-anchor="start" x="788" y="-631.8" font-family="Times New Roman,serif" font-size="14.00">str</text>
<polygon fill="none" stroke="black" points="659.5,-604 659.5,-625 750.5,-625 750.5,-604 659.5,-604"/>
<text text-anchor="start" x="677.5" y="-610.8" font-family="Times New Roman,serif" font-size="14.00">epsg_srid</text>
<polygon fill="none" stroke="black" points="750.5,-604 750.5,-625 840.5,-625 840.5,-604 750.5,-604"/>
<text text-anchor="start" x="760" y="-610.8" font-family="Times New Roman,serif" font-size="14.00">Optional[int]</text>
<polygon fill="none" stroke="black" points="659.5,-583 659.5,-604 750.5,-604 750.5,-583 659.5,-583"/>
<text text-anchor="start" x="694.5" y="-589.8" font-family="Times New Roman,serif" font-size="14.00">wkt</text>
<polygon fill="none" stroke="black" points="750.5,-583 750.5,-604 840.5,-604 840.5,-583 750.5,-583"/>
<text text-anchor="start" x="759.5" y="-589.8" font-family="Times New Roman,serif" font-size="14.00">Optional[str]</text>
</a>
</g>
</g>
<!-- eya_def_tools.data_models.energy_yield_assessment.EnergyYieldAssessment -->
<g id="node2" class="node">
<title>eya_def_tools.data_models.energy_yield_assessment.EnergyYieldAssessment</title>
<g id="a_node2"><a xlink:title="eya_def_tools.data_models.energy_yield_assessment.EnergyYieldAssessment&#10;&#10;IEC 61400&#45;15&#45;2 EYA DEF energy yield assessment data model.&#10;&#10;Attributes:&#10; &#160;&#160;&#160;json_uri (Optional[str]): Unique URI of the JSON document. Default is None.&#10; &#160;&#160;&#160;title (str): Title of the energy assessment report.&#10; &#160;&#160;&#160;description (Optional[str]): Description of the data object. Default is None.&#10; &#160;&#160;&#160;comments (Optional[str]): Comments on the data object. Default is None.&#10; &#160;&#160;&#160;project_name (str): Name of the project under assessment.&#10; &#160;&#160;&#160;document_id (Optional[str]): The ID of the report document; not including the version when &#39;document_version&#39; is used. Default is None.&#10; &#160;&#160;&#160;document_version (Optional[str]): Version of the report document, also known as revision. Default is None.&#10; &#160;&#160;&#160;issue_date (date): Report issue date in the ISO 8601 standard format for a calendar date, i.e. YYYY&#45;MM&#45;DD.&#10; &#160;&#160;&#160;contributors (list[ReportContributor]): List of report contributors (e.g. author and verifier)&#10; &#160;&#160;&#160;issuing_organisations (list[Organisation]): The organisation(s) issuing the report (e.g. consultant).&#10; &#160;&#160;&#160;receiving_organisations (Optional[list[Organisation]]): The organisation(s) receiving the report (e.g. client), if relevant. Default is None.&#10; &#160;&#160;&#160;contract_reference (Optional[str]): Reference to contract between the issuing and receiving organisations that governs the energy yield assessment. Default is None.&#10; &#160;&#160;&#160;confidentiality_classification (Optional[str]): Confidentiality classification of the report. Default is None.&#10; &#160;&#160;&#160;coordinate_reference_system (CoordinateReferenceSystem): Coordinate reference system used for all location data.&#10; &#160;&#160;&#160;measurement_stations (list[MeasurementStationMetadata]): List of measurement station metadata JSON document(s) according to the IEA Task 43 WRA Data Model. Default is [].&#10; &#160;&#160;&#160;reference_wind_farms (Optional[list[ReferenceWindFarm]]): List of reference operational wind farms. Default is None.&#10; &#160;&#160;&#160;wind_resource_assessments (Optional[list[WindResourceAssessment]]): List of wind resource assessments, including results, at the measurement station locations. Default is None.&#10; &#160;&#160;&#160;turbine_models (Optional[list[TurbineModel]]): List of wind turbine model specifications. Default is None.&#10; &#160;&#160;&#160;scenarios (Optional[list[Scenario]]): List of energy yield assessment scenarios. Default is None.&#10;">
<polygon fill="none" stroke="black" points="0,-901 0,-922 410,-922 410,-901 0,-901"/>
<text text-anchor="start" x="131.5" y="-908.8" font-family="Times New Roman,serif" font-weight="bold" font-size="14.00">EnergyYieldAssessment</text>
<polygon fill="none" stroke="black" points="0,-880 0,-901 171,-901 171,-880 0,-880"/>
<text text-anchor="start" x="62.5" y="-886.8" font-family="Times New Roman,serif" font-size="14.00">json_uri</text>
<polygon fill="none" stroke="black" points="171,-880 171,-901 410,-901 410,-880 171,-880"/>
<text text-anchor="start" x="254.5" y="-886.8" font-family="Times New Roman,serif" font-size="14.00">Optional[str]</text>
<polygon fill="none" stroke="black" points="0,-859 0,-880 171,-880 171,-859 0,-859"/>
<text text-anchor="start" x="75.5" y="-865.8" font-family="Times New Roman,serif" font-size="14.00">title</text>
<polygon fill="none" stroke="black" points="171,-859 171,-880 410,-880 410,-859 171,-859"/>
<text text-anchor="start" x="283" y="-865.8" font-family="Times New Roman,serif" font-size="14.00">str</text>
<polygon fill="none" stroke="black" points="0,-838 0,-859 171,-859 171,-838 0,-838"/>
<text text-anchor="start" x="54" y="-844.8" font-family="Times New Roman,serif" font-size="14.00">description</text>
<polygon fill="none" stroke="black" points="171,-838 171,-859 410,-859 410,-838 171,-838"/>
<text text-anchor="start" x="254.5" y="-844.8" font-family="Times New Roman,serif" font-size="14.00">Optional[str]</text>
<polygon fill="none" stroke="black" points="0,-817 0,-838 171,-838 171,-817 0,-817"/>
<text text-anchor="start" x="56.5" y="-823.8" font-family="Times New Roman,serif" font-size="14.00">comments</text>
<polygon fill="none" stroke="black" points="171,-817 171,-838 410,-838 410,-817 171,-817"/>
<text text-anchor="start" x="254.5" y="-823.8" font-family="Times New Roman,serif" font-size="14.00">Optional[str]</text>
<polygon fill="none" stroke="black" points="0,-796 0,-817 171,-817 171,-796 0,-796"/>
<text text-anchor="start" x="47.5" y="-802.8" font-family="Times New Roman,serif" font-size="14.00">project_name</text>
<polygon fill="none" stroke="black" points="171,-796 171,-817 410,-817 410,-796 171,-796"/>
<text text-anchor="start" x="283" y="-802.8" font-family="Times New Roman,serif" font-size="14.00">str</text>
<polygon fill="none" stroke="black" points="0,-775 0,-796 171,-796 171,-775 0,-775"/>
<text text-anchor="start" x="48.5" y="-781.8" font-family="Times New Roman,serif" font-size="14.00">document_id</text>
<polygon fill="none" stroke="black" points="171,-775 171,-796 410,-796 410,-775 171,-775"/>
<text text-anchor="start" x="254.5" y="-781.8" font-family="Times New Roman,serif" font-size="14.00">Optional[str]</text>
<polygon fill="none" stroke="black" points="0,-754 0,-775 171,-775 171,-754 0,-754"/>
<text text-anchor="start" x="33.5" y="-760.8" font-family="Times New Roman,serif" font-size="14.00">document_version</text>
<polygon fill="none" stroke="black" points="171,-754 171,-775 410,-775 410,-754 171,-754"/>
<text text-anchor="start" x="254.5" y="-760.8" font-family="Times New Roman,serif" font-size="14.00">Optional[str]</text>
<polygon fill="none" stroke="black" points="0,-733 0,-754 171,-754 171,-733 0,-733"/>
<text text-anchor="start" x="56" y="-739.8" font-family="Times New Roman,serif" font-size="14.00">issue_date</text>
<polygon fill="none" stroke="black" points="171,-733 171,-754 410,-754 410,-733 171,-733"/>
<text text-anchor="start" x="278.5" y="-739.8" font-family="Times New Roman,serif" font-size="14.00">date</text>
<polygon fill="none" stroke="black" points="0,-712 0,-733 171,-733 171,-712 0,-712"/>
<text text-anchor="start" x="51" y="-718.8" font-family="Times New Roman,serif" font-size="14.00">contributors</text>
<polygon fill="none" stroke="black" points="171,-712 171,-733 410,-733 410,-712 171,-712"/>
<text text-anchor="start" x="225.5" y="-718.8" font-family="Times New Roman,serif" font-size="14.00">list[ReportContributor]</text>
<polygon fill="none" stroke="black" points="0,-691 0,-712 171,-712 171,-691 0,-691"/>
<text text-anchor="start" x="25.5" y="-697.8" font-family="Times New Roman,serif" font-size="14.00">issuing_organisations</text>
<polygon fill="none" stroke="black" points="171,-691 171,-712 410,-712 410,-691 171,-691"/>
<text text-anchor="start" x="242.5" y="-697.8" font-family="Times New Roman,serif" font-size="14.00">list[Organisation]</text>
<polygon fill="none" stroke="black" points="0,-670 0,-691 171,-691 171,-670 0,-670"/>
<text text-anchor="start" x="20" y="-676.8" font-family="Times New Roman,serif" font-size="14.00">receiving_organisations</text>
<polygon fill="none" stroke="black" points="171,-670 171,-691 410,-691 410,-670 171,-670"/>
<text text-anchor="start" x="214" y="-676.8" font-family="Times New Roman,serif" font-size="14.00">Optional[list[Organisation]]</text>
<polygon fill="none" stroke="black" points="0,-649 0,-670 171,-670 171,-649 0,-649"/>
<text text-anchor="start" x="33" y="-655.8" font-family="Times New Roman,serif" font-size="14.00">contract_reference</text>
<polygon fill="none" stroke="black" points="171,-649 171,-670 410,-670 410,-649 171,-649"/>
<text text-anchor="start" x="254.5" y="-655.8" font-family="Times New Roman,serif" font-size="14.00">Optional[str]</text>
<polygon fill="none" stroke="black" points="0,-628 0,-649 171,-649 171,-628 0,-628"/>
<text text-anchor="start" x="6.5" y="-634.8" font-family="Times New Roman,serif" font-size="14.00">confidentiality_classification</text>
<polygon fill="none" stroke="black" points="171,-628 171,-649 410,-649 410,-628 171,-628"/>
<text text-anchor="start" x="254.5" y="-634.8" font-family="Times New Roman,serif" font-size="14.00">Optional[str]</text>
<polygon fill="none" stroke="black" points="0,-607 0,-628 171,-628 171,-607 0,-607"/>
<text text-anchor="start" x="3" y="-613.8" font-family="Times New Roman,serif" font-size="14.00">coordinate_reference_system</text>
<polygon fill="none" stroke="black" points="171,-607 171,-628 410,-628 410,-607 171,-607"/>
<text text-anchor="start" x="210.5" y="-613.8" font-family="Times New Roman,serif" font-size="14.00">CoordinateReferenceSystem</text>
<polygon fill="none" stroke="black" points="0,-586 0,-607 171,-607 171,-586 0,-586"/>
<text text-anchor="start" x="23.5" y="-592.8" font-family="Times New Roman,serif" font-size="14.00">measurement_stations</text>
<polygon fill="none" stroke="black" points="171,-586 171,-607 410,-607 410,-586 171,-586"/>
<text text-anchor="start" x="195.5" y="-592.8" font-family="Times New Roman,serif" font-size="14.00">list[MeasurementStationMetadata]</text>
<polygon fill="none" stroke="black" points="0,-565 0,-586 171,-586 171,-565 0,-565"/>
<text text-anchor="start" x="23" y="-571.8" font-family="Times New Roman,serif" font-size="14.00">reference_wind_farms</text>
<polygon fill="none" stroke="black" points="171,-565 171,-586 410,-586 410,-565 171,-565"/>
<text text-anchor="start" x="191" y="-571.8" font-family="Times New Roman,serif" font-size="14.00">Optional[list[ReferenceWindFarm]]</text>
<polygon fill="none" stroke="black" points="0,-544 0,-565 171,-565 171,-544 0,-544"/>
<text text-anchor="start" x="5.5" y="-550.8" font-family="Times New Roman,serif" font-size="14.00">wind_resource_assessments</text>
<polygon fill="none" stroke="black" points="171,-544 171,-565 410,-565 410,-544 171,-544"/>
<text text-anchor="start" x="174" y="-550.8" font-family="Times New Roman,serif" font-size="14.00">Optional[list[WindResourceAssessment]]</text>
<polygon fill="none" stroke="black" points="0,-523 0,-544 171,-544 171,-523 0,-523"/>
<text text-anchor="start" x="42" y="-529.8" font-family="Times New Roman,serif" font-size="14.00">turbine_models</text>
<polygon fill="none" stroke="black" points="171,-523 171,-544 410,-544 410,-523 171,-523"/>
<text text-anchor="start" x="209.5" y="-529.8" font-family="Times New Roman,serif" font-size="14.00">Optional[list[TurbineModel]]</text>
<polygon fill="none" stroke="black" points="0,-502 0,-523 171,-523 171,-502 0,-502"/>
<text text-anchor="start" x="59" y="-508.8" font-family="Times New Roman,serif" font-size="14.00">scenarios</text>
<polygon fill="none" stroke="black" points="171,-502 171,-523 410,-523 410,-502 171,-502"/>
<text text-anchor="start" x="225" y="-508.8" font-family="Times New Roman,serif" font-size="14.00">Optional[list[Scenario]]</text>
</a>
</g>
</g>
<!-- eya_def_tools.data_models.energy_yield_assessment.EnergyYieldAssessment&#45;&gt;eya_def_tools.data_models.energy_yield_assessment.CoordinateReferenceSystem -->
<g id="edge1" class="edge">
<title>eya_def_tools.data_models.energy_yield_assessment.EnergyYieldAssessment:e&#45;&gt;eya_def_tools.data_models.energy_yield_assessment.CoordinateReferenceSystem:w</title>
<path fill="none" stroke="black" d="M410,-617C516.73,-617 544.18,-653.41 643.63,-656.75"/>
<polyline fill="none" stroke="black" points="658.5,-657 653.5,-656.92"/>
<polygon fill="black" stroke="black" points="652.58,-651.9 652.42,-661.9 650.42,-661.87 650.58,-651.87 652.58,-651.9"/>
<polyline fill="none" stroke="black" points="653.5,-656.92 648.5,-656.84"/>
<polygon fill="black" stroke="black" points="647.58,-651.82 647.42,-661.82 645.42,-661.79 645.58,-651.79 647.58,-651.82"/>
<polyline fill="none" stroke="black" points="648.5,-656.84 643.5,-656.75"/>
</g>
<!-- eya_def_tools.data_models.energy_yield_assessment.Organisation -->
<g id="node3" class="node">
<title>eya_def_tools.data_models.energy_yield_assessment.Organisation</title>
<g id="a_node3"><a xlink:title="eya_def_tools.data_models.energy_yield_assessment.Organisation&#10;&#10;Issuing or receiving organisation of an energy yield assessment.&#10;&#10;Attributes:&#10; &#160;&#160;&#160;name (str): Entity name of the organisation.&#10; &#160;&#160;&#160;abbreviation (Optional[str]): Abbreviated name of the organisation. Default is None.&#10; &#160;&#160;&#160;address (Optional[str]): Address of the organisation. Default is None.&#10; &#160;&#160;&#160;contact_name (Optional[str]): Name(s) of contact person(s) in the organisation. Default is None.&#10;">
<polygon fill="none" stroke="black" points="668.5,-787 668.5,-808 831.5,-808 831.5,-787 668.5,-787"/>
<text text-anchor="start" x="709.5" y="-794.8" font-family="Times New Roman,serif" font-weight="bold" font-size="14.00">Organisation</text>
<polygon fill="none" stroke="black" points="668.5,-766 668.5,-787 753.5,-787 753.5,-766 668.5,-766"/>
<text text-anchor="start" x="696" y="-772.8" font-family="Times New Roman,serif" font-size="14.00">name</text>
<polygon fill="none" stroke="black" points="753.5,-766 753.5,-787 831.5,-787 831.5,-766 753.5,-766"/>
<text text-anchor="start" x="785" y="-772.8" font-family="Times New Roman,serif" font-size="14.00">str</text>
<polygon fill="none" stroke="black" points="668.5,-745 668.5,-766 753.5,-766 753.5,-745 668.5,-745"/>
<text text-anchor="start" x="676.5" y="-751.8" font-family="Times New Roman,serif" font-size="14.00">abbreviation</text>
<polygon fill="none" stroke="black" points="753.5,-745 753.5,-766 831.5,-766 831.5,-745 753.5,-745"/>
<text text-anchor="start" x="756.5" y="-751.8" font-family="Times New Roman,serif" font-size="14.00">Optional[str]</text>
<polygon fill="none" stroke="black" points="668.5,-724 668.5,-745 753.5,-745 753.5,-724 668.5,-724"/>
<text text-anchor="start" x="689" y="-730.8" font-family="Times New Roman,serif" font-size="14.00">address</text>
<polygon fill="none" stroke="black" points="753.5,-724 753.5,-745 831.5,-745 831.5,-724 753.5,-724"/>
<text text-anchor="start" x="756.5" y="-730.8" font-family="Times New Roman,serif" font-size="14.00">Optional[str]</text>
<polygon fill="none" stroke="black" points="668.5,-703 668.5,-724 753.5,-724 753.5,-703 668.5,-703"/>
<text text-anchor="start" x="671.5" y="-709.8" font-family="Times New Roman,serif" font-size="14.00">contact_name</text>
<polygon fill="none" stroke="black" points="753.5,-703 753.5,-724 831.5,-724 831.5,-703 753.5,-703"/>
<text text-anchor="start" x="756.5" y="-709.8" font-family="Times New Roman,serif" font-size="14.00">Optional[str]</text>
</a>
</g>
</g>
<!-- eya_def_tools.data_models.energy_yield_assessment.EnergyYieldAssessment&#45;&gt;eya_def_tools.data_models.energy_yield_assessment.Organisation -->
<g id="edge2" class="edge">
<title>eya_def_tools.data_models.energy_yield_assessment.EnergyYieldAssessment:e&#45;&gt;eya_def_tools.data_models.energy_yield_assessment.Organisation:w</title>
<path fill="none" stroke="black" d="M410,-701C525.73,-701 543.5,-787.86 648.71,-797.19"/>
<polygon fill="black" stroke="black" points="657.51,-797.57 667.31,-802.5 662.5,-797.78 667.5,-798 667.5,-798 667.5,-798 662.5,-797.78 667.69,-793.5 657.51,-797.57 657.51,-797.57"/>
<ellipse fill="none" stroke="black" cx="653.01" cy="-797.38" rx="4" ry="4"/>
</g>
<!-- eya_def_tools.data_models.energy_yield_assessment.EnergyYieldAssessment&#45;&gt;eya_def_tools.data_models.energy_yield_assessment.Organisation -->
<g id="edge3" class="edge">
<title>eya_def_tools.data_models.energy_yield_assessment.EnergyYieldAssessment:e&#45;&gt;eya_def_tools.data_models.energy_yield_assessment.Organisation:w</title>
<path fill="none" stroke="black" d="M410,-680C529.25,-680 540.67,-785.88 648.55,-797.05"/>
<polygon fill="black" stroke="black" points="657.51,-797.5 667.27,-802.49 662.51,-797.75 667.5,-798 667.5,-798 667.5,-798 662.51,-797.75 667.73,-793.51 657.51,-797.5 657.51,-797.5"/>
<ellipse fill="none" stroke="black" cx="653.02" cy="-797.27" rx="4" ry="4"/>
</g>
<!-- eya_def_tools.data_models.energy_yield_assessment.ReferenceWindFarm -->
<g id="node4" class="node">
<title>eya_def_tools.data_models.energy_yield_assessment.ReferenceWindFarm</title>
<g id="a_node4"><a xlink:title="eya_def_tools.data_models.energy_yield_assessment.ReferenceWindFarm&#10;&#10;Reference wind farm metadata.&#10;">
<polygon fill="none" stroke="black" points="681.5,-525 681.5,-546 817.5,-546 817.5,-525 681.5,-525"/>
<text text-anchor="start" x="684.5" y="-532.8" font-family="Times New Roman,serif" font-weight="bold" font-size="14.00">ReferenceWindFarm</text>
</a>
</g>
</g>
<!-- eya_def_tools.data_models.energy_yield_assessment.EnergyYieldAssessment&#45;&gt;eya_def_tools.data_models.energy_yield_assessment.ReferenceWindFarm -->
<g id="edge4" class="edge">
<title>eya_def_tools.data_models.energy_yield_assessment.EnergyYieldAssessment:e&#45;&gt;eya_def_tools.data_models.energy_yield_assessment.ReferenceWindFarm:w</title>
<path fill="none" stroke="black" d="M410,-575C525,-575 555.75,-539.18 661.7,-535.33"/>
<polygon fill="black" stroke="black" points="670.5,-535.18 680.58,-539.5 675.5,-535.09 680.5,-535 680.5,-535 680.5,-535 675.5,-535.09 680.42,-530.5 670.5,-535.18 670.5,-535.18"/>
<ellipse fill="none" stroke="black" cx="666" cy="-535.26" rx="4" ry="4"/>
</g>
<!-- eya_def_tools.data_models.energy_yield_assessment.ReportContributor -->
<g id="node5" class="node">
<title>eya_def_tools.data_models.energy_yield_assessment.ReportContributor</title>
<g id="a_node5"><a xlink:title="eya_def_tools.data_models.energy_yield_assessment.ReportContributor&#10;&#10;Contributor to an energy yield assessment.&#10;&#10;Attributes:&#10; &#160;&#160;&#160;name (str): Name of the contributor.&#10; &#160;&#160;&#160;email_address (Optional[EmailStr]): Email address of the contributor. Default is None.&#10; &#160;&#160;&#160;contributor_type (Literal[&#39;author&#39;, &#39;verifier&#39;, &#39;approver&#39;, &#39;other&#39;]): Type of contributor.&#10; &#160;&#160;&#160;contribution_comments (Optional[str]): Comments to clarify contribution. Default is None.&#10; &#160;&#160;&#160;completion_date (Optional[date]): Contribution completion date (format YYYY&#45;MM&#45;DD). Default is None.&#10;">
<polygon fill="none" stroke="black" points="555.5,-950 555.5,-971 943.5,-971 943.5,-950 555.5,-950"/>
<text text-anchor="start" x="691.5" y="-957.8" font-family="Times New Roman,serif" font-weight="bold" font-size="14.00">ReportContributor</text>
<polygon fill="none" stroke="black" points="555.5,-929 555.5,-950 694.5,-950 694.5,-929 555.5,-929"/>
<text text-anchor="start" x="610" y="-935.8" font-family="Times New Roman,serif" font-size="14.00">name</text>
<polygon fill="none" stroke="black" points="694.5,-929 694.5,-950 943.5,-950 943.5,-929 694.5,-929"/>
<text text-anchor="start" x="811.5" y="-935.8" font-family="Times New Roman,serif" font-size="14.00">str</text>
<polygon fill="none" stroke="black" points="555.5,-908 555.5,-929 694.5,-929 694.5,-908 555.5,-908"/>
<text text-anchor="start" x="585" y="-914.8" font-family="Times New Roman,serif" font-size="14.00">email_address</text>
<polygon fill="none" stroke="black" points="694.5,-908 694.5,-929 943.5,-929 943.5,-908 694.5,-908"/>
<text text-anchor="start" x="766.5" y="-914.8" font-family="Times New Roman,serif" font-size="14.00">Optional[EmailStr]</text>
<polygon fill="none" stroke="black" points="555.5,-887 555.5,-908 694.5,-908 694.5,-887 555.5,-887"/>
<text text-anchor="start" x="578" y="-893.8" font-family="Times New Roman,serif" font-size="14.00">contributor_type</text>
<polygon fill="none" stroke="black" points="694.5,-887 694.5,-908 943.5,-908 943.5,-887 694.5,-887"/>
<text text-anchor="start" x="697.5" y="-893.8" font-family="Times New Roman,serif" font-size="14.00">Literal[&#39;author&#39;, &#39;verifier&#39;, &#39;approver&#39;, &#39;other&#39;]</text>
<polygon fill="none" stroke="black" points="555.5,-866 555.5,-887 694.5,-887 694.5,-866 555.5,-866"/>
<text text-anchor="start" x="558.5" y="-872.8" font-family="Times New Roman,serif" font-size="14.00">contribution_comments</text>
<polygon fill="none" stroke="black" points="694.5,-866 694.5,-887 943.5,-887 943.5,-866 694.5,-866"/>
<text text-anchor="start" x="783" y="-872.8" font-family="Times New Roman,serif" font-size="14.00">Optional[str]</text>
<polygon fill="none" stroke="black" points="555.5,-845 555.5,-866 694.5,-866 694.5,-845 555.5,-845"/>
<text text-anchor="start" x="578" y="-851.8" font-family="Times New Roman,serif" font-size="14.00">completion_date</text>
<polygon fill="none" stroke="black" points="694.5,-845 694.5,-866 943.5,-866 943.5,-845 694.5,-845"/>
<text text-anchor="start" x="778.5" y="-851.8" font-family="Times New Roman,serif" font-size="14.00">Optional[date]</text>
</a>
</g>
</g>
<!-- eya_def_tools.data_models.energy_yield_assessment.EnergyYieldAssessment&#45;&gt;eya_def_tools.data_models.energy_yield_assessment.ReportContributor -->
<g id="edge5" class="edge">
<title>eya_def_tools.data_models.energy_yield_assessment.EnergyYieldAssessment:e&#45;&gt;eya_def_tools.data_models.energy_yield_assessment.ReportContributor:w</title>
<path fill="none" stroke="black" d="M410,-723C526.86,-723 441.52,-935.24 535.86,-958.87"/>
<polygon fill="black" stroke="black" points="544.56,-959.86 553.99,-965.47 549.53,-960.43 554.5,-961 554.5,-961 554.5,-961 549.53,-960.43 555.01,-956.53 544.56,-959.86 544.56,-959.86"/>
<ellipse fill="none" stroke="black" cx="540.09" cy="-959.35" rx="4" ry="4"/>
</g>
<!-- eya_def_tools.data_models.energy_yield_assessment.Scenario -->
<g id="node6" class="node">
<title>eya_def_tools.data_models.energy_yield_assessment.Scenario</title>
<g id="a_node6"><a xlink:title="eya_def_tools.data_models.energy_yield_assessment.Scenario&#10;&#10;Single unique energy yield assessment scenario.&#10;&#10;Attributes:&#10; &#160;&#160;&#160;scenario_id (Optional[str]): Unique identifier of the scenario. Default is None.&#10; &#160;&#160;&#160;label (str): Label of the scenario.&#10; &#160;&#160;&#160;description (Optional[str]): Description of the data object. Default is None.&#10; &#160;&#160;&#160;comments (Optional[str]): Comments on the data object. Default is None.&#10; &#160;&#160;&#160;is_main_scenario (Optional[bool]): Whether or not this is the main scenario in the report. Default is None.&#10; &#160;&#160;&#160;operational_lifetime_length_years (ConstrainedFloatValue): Number of years of project operational lifetime.&#10; &#160;&#160;&#160;wind_farms (list[WindFarm]): List of all wind farms included in the scenario. Default is [].&#10; &#160;&#160;&#160;wind_resource_assessment_basis (Optional[WindResourceAssessmentBasis]): Measurement wind resource assessment basis for the scenario. Default is None.&#10; &#160;&#160;&#160;turbine_wind_resource_assessment (Optional[TurbineWindResourceAssessment]): Wind resource assessment at the turbine locations. Default is None.&#10; &#160;&#160;&#160;gross_energy_assessment (GrossEnergyAssessment): Gross energy yield assessment.&#10; &#160;&#160;&#160;plant_performance_assessment (PlantPerformanceAssessment): Plant performance assessment including net energy results.&#10;">
<polygon fill="none" stroke="black" points="518.5,-249 518.5,-270 981.5,-270 981.5,-249 518.5,-249"/>
<text text-anchor="start" x="722.5" y="-256.8" font-family="Times New Roman,serif" font-weight="bold" font-size="14.00">Scenario</text>
<polygon fill="none" stroke="black" points="518.5,-228 518.5,-249 723.5,-249 723.5,-228 518.5,-228"/>
<text text-anchor="start" x="588.5" y="-234.8" font-family="Times New Roman,serif" font-size="14.00">scenario_id</text>
<polygon fill="none" stroke="black" points="723.5,-228 723.5,-249 981.5,-249 981.5,-228 723.5,-228"/>
<text text-anchor="start" x="816.5" y="-234.8" font-family="Times New Roman,serif" font-size="14.00">Optional[str]</text>
<polygon fill="none" stroke="black" points="518.5,-207 518.5,-228 723.5,-228 723.5,-207 518.5,-207"/>
<text text-anchor="start" x="608" y="-213.8" font-family="Times New Roman,serif" font-size="14.00">label</text>
<polygon fill="none" stroke="black" points="723.5,-207 723.5,-228 981.5,-228 981.5,-207 723.5,-207"/>
<text text-anchor="start" x="845" y="-213.8" font-family="Times New Roman,serif" font-size="14.00">str</text>
<polygon fill="none" stroke="black" points="518.5,-186 518.5,-207 723.5,-207 723.5,-186 518.5,-186"/>
<text text-anchor="start" x="589.5" y="-192.8" font-family="Times New Roman,serif" font-size="14.00">description</text>
<polygon fill="none" stroke="black" points="723.5,-186 723.5,-207 981.5,-207 981.5,-186 723.5,-186"/>
<text text-anchor="start" x="816.5" y="-192.8" font-family="Times New Roman,serif" font-size="14.00">Optional[str]</text>
<polygon fill="none" stroke="black" points="518.5,-165 518.5,-186 723.5,-186 723.5,-165 518.5,-165"/>
<text text-anchor="start" x="592" y="-171.8" font-family="Times New Roman,serif" font-size="14.00">comments</text>
<polygon fill="none" stroke="black" points="723.5,-165 723.5,-186 981.5,-186 981.5,-165 723.5,-165"/>
<text text-anchor="start" x="816.5" y="-171.8" font-family="Times New Roman,serif" font-size="14.00">Optional[str]</text>
<polygon fill="none" stroke="black" points="518.5,-144 518.5,-165 723.5,-165 723.5,-144 518.5,-144"/>
<text text-anchor="start" x="572.5" y="-150.8" font-family="Times New Roman,serif" font-size="14.00">is_main_scenario</text>
<polygon fill="none" stroke="black" points="723.5,-144 723.5,-165 981.5,-165 981.5,-144 723.5,-144"/>
<text text-anchor="start" x="811" y="-150.8" font-family="Times New Roman,serif" font-size="14.00">Optional[bool]</text>
<polygon fill="none" stroke="black" points="518.5,-123 518.5,-144 723.5,-144 723.5,-123 518.5,-123"/>
<text text-anchor="start" x="527.5" y="-129.8" font-family="Times New Roman,serif" font-size="14.00">operational_lifetime_length_years</text>
<polygon fill="none" stroke="black" points="723.5,-123 723.5,-144 981.5,-144 981.5,-123 723.5,-123"/>
<text text-anchor="start" x="788.5" y="-129.8" font-family="Times New Roman,serif" font-size="14.00">ConstrainedFloatValue</text>
<polygon fill="none" stroke="black" points="518.5,-102 518.5,-123 723.5,-123 723.5,-102 518.5,-102"/>
<text text-anchor="start" x="587.5" y="-108.8" font-family="Times New Roman,serif" font-size="14.00">wind_farms</text>
<polygon fill="none" stroke="black" points="723.5,-102 723.5,-123 981.5,-123 981.5,-102 723.5,-102"/>
<text text-anchor="start" x="810" y="-108.8" font-family="Times New Roman,serif" font-size="14.00">list[WindFarm]</text>
<polygon fill="none" stroke="black" points="518.5,-81 518.5,-102 723.5,-102 723.5,-81 518.5,-81"/>
<text text-anchor="start" x="526" y="-87.8" font-family="Times New Roman,serif" font-size="14.00">wind_resource_assessment_basis</text>
<polygon fill="none" stroke="black" points="723.5,-81 723.5,-102 981.5,-102 981.5,-81 723.5,-81"/>
<text text-anchor="start" x="733.5" y="-87.8" font-family="Times New Roman,serif" font-size="14.00">Optional[WindResourceAssessmentBasis]</text>
<polygon fill="none" stroke="black" points="518.5,-60 518.5,-81 723.5,-81 723.5,-60 518.5,-60"/>
<text text-anchor="start" x="521.5" y="-66.8" font-family="Times New Roman,serif" font-size="14.00">turbine_wind_resource_assessment</text>
<polygon fill="none" stroke="black" points="723.5,-60 723.5,-81 981.5,-81 981.5,-60 723.5,-60"/>
<text text-anchor="start" x="726.5" y="-66.8" font-family="Times New Roman,serif" font-size="14.00">Optional[TurbineWindResourceAssessment]</text>
<polygon fill="none" stroke="black" points="518.5,-39 518.5,-60 723.5,-60 723.5,-39 518.5,-39"/>
<text text-anchor="start" x="548" y="-45.8" font-family="Times New Roman,serif" font-size="14.00">gross_energy_assessment</text>
<polygon fill="none" stroke="black" points="723.5,-39 723.5,-60 981.5,-60 981.5,-39 723.5,-39"/>
<text text-anchor="start" x="782" y="-45.8" font-family="Times New Roman,serif" font-size="14.00">GrossEnergyAssessment</text>
<polygon fill="none" stroke="black" points="518.5,-18 518.5,-39 723.5,-39 723.5,-18 518.5,-18"/>
<text text-anchor="start" x="533" y="-24.8" font-family="Times New Roman,serif" font-size="14.00">plant_performance_assessment</text>
<polygon fill="none" stroke="black" points="723.5,-18 723.5,-39 981.5,-39 981.5,-18 723.5,-18"/>
<text text-anchor="start" x="769.5" y="-24.8" font-family="Times New Roman,serif" font-size="14.00">PlantPerformanceAssessment</text>
</a>
</g>
</g>
<!-- eya_def_tools.data_models.energy_yield_assessment.EnergyYieldAssessment&#45;&gt;eya_def_tools.data_models.energy_yield_assessment.Scenario -->
<g id="edge6" class="edge">
<title>eya_def_tools.data_models.energy_yield_assessment.EnergyYieldAssessment:e&#45;&gt;eya_def_tools.data_models.energy_yield_assessment.Scenario:w</title>
<path fill="none" stroke="black" d="M410,-512C524.83,-512 410.93,-288.2 499.4,-262.41"/>
<polygon fill="black" stroke="black" points="508.08,-261.29 518.58,-264.46 513.04,-260.64 518,-260 518,-260 518,-260 513.04,-260.64 517.42,-255.54 508.08,-261.29 508.08,-261.29"/>
<ellipse fill="none" stroke="black" cx="503.62" cy="-261.87" rx="4" ry="4"/>
</g>
<!-- eya_def_tools.data_models.energy_yield_assessment.TurbineModel -->
<g id="node7" class="node">
<title>eya_def_tools.data_models.energy_yield_assessment.TurbineModel</title>
<g id="a_node7"><a xlink:title="eya_def_tools.data_models.energy_yield_assessment.TurbineModel&#10;&#10;Specification of a wind turbine model.&#10;&#10;Attributes:&#10; &#160;&#160;&#160;turbine_model_id (str): Unique identifier of the turbine model.&#10; &#160;&#160;&#160;label (str): Label of the turbine model.&#10; &#160;&#160;&#160;perf_spec_ref (Optional[TurbineModelPerfSpecRef]): Reference to a json document with turbine model performance specification (PLACEHOLDER). Default is None.&#10;">
<polygon fill="none" stroke="black" points="589.5,-369 589.5,-390 909.5,-390 909.5,-369 589.5,-369"/>
<text text-anchor="start" x="705.5" y="-376.8" font-family="Times New Roman,serif" font-weight="bold" font-size="14.00">TurbineModel</text>
<polygon fill="none" stroke="black" points="589.5,-348 589.5,-369 694.5,-369 694.5,-348 589.5,-348"/>
<text text-anchor="start" x="592.5" y="-354.8" font-family="Times New Roman,serif" font-size="14.00">turbine_model_id</text>
<polygon fill="none" stroke="black" points="694.5,-348 694.5,-369 909.5,-369 909.5,-348 694.5,-348"/>
<text text-anchor="start" x="794.5" y="-354.8" font-family="Times New Roman,serif" font-size="14.00">str</text>
<polygon fill="none" stroke="black" points="589.5,-327 589.5,-348 694.5,-348 694.5,-327 589.5,-327"/>
<text text-anchor="start" x="629" y="-333.8" font-family="Times New Roman,serif" font-size="14.00">label</text>
<polygon fill="none" stroke="black" points="694.5,-327 694.5,-348 909.5,-348 909.5,-327 694.5,-327"/>
<text text-anchor="start" x="794.5" y="-333.8" font-family="Times New Roman,serif" font-size="14.00">str</text>
<polygon fill="none" stroke="black" points="589.5,-306 589.5,-327 694.5,-327 694.5,-306 589.5,-306"/>
<text text-anchor="start" x="602.5" y="-312.8" font-family="Times New Roman,serif" font-size="14.00">perf_spec_ref</text>
<polygon fill="none" stroke="black" points="694.5,-306 694.5,-327 909.5,-327 909.5,-306 694.5,-306"/>
<text text-anchor="start" x="697.5" y="-312.8" font-family="Times New Roman,serif" font-size="14.00">Optional[TurbineModelPerfSpecRef]</text>
</a>
</g>
</g>
<!-- eya_def_tools.data_models.energy_yield_assessment.EnergyYieldAssessment&#45;&gt;eya_def_tools.data_models.energy_yield_assessment.TurbineModel -->
<g id="edge7" class="edge">
<title>eya_def_tools.data_models.energy_yield_assessment.EnergyYieldAssessment:e&#45;&gt;eya_def_tools.data_models.energy_yield_assessment.TurbineModel:w</title>
<path fill="none" stroke="black" d="M410,-533C483.42,-533 458.17,-450.55 518,-408 539.57,-392.66 549.95,-384.15 569.73,-381.2"/>
<polygon fill="black" stroke="black" points="578.52,-380.64 588.79,-384.49 583.51,-380.32 588.5,-380 588.5,-380 588.5,-380 583.51,-380.32 588.21,-375.51 578.52,-380.64 578.52,-380.64"/>
<ellipse fill="none" stroke="black" cx="574.03" cy="-380.92" rx="4" ry="4"/>
</g>
<!-- eya_def_tools.data_models.energy_yield_assessment.WindResourceAssessment -->
<g id="node8" class="node">
<title>eya_def_tools.data_models.energy_yield_assessment.WindResourceAssessment</title>
<g id="a_node8"><a xlink:title="eya_def_tools.data_models.energy_yield_assessment.WindResourceAssessment&#10;&#10;Wind resource assessment at the measurement locations.&#10;&#10;Attributes:&#10; &#160;&#160;&#160;results (list[Results]): Assessment results at the measurement location(s).&#10; &#160;&#160;&#160;uncertainty_assessment (UncertaintyAssessment): Measurement wind resource uncertainty assessment.&#10;">
<polygon fill="none" stroke="black" points="612.5,-468 612.5,-489 887.5,-489 887.5,-468 612.5,-468"/>
<text text-anchor="start" x="669" y="-475.8" font-family="Times New Roman,serif" font-weight="bold" font-size="14.00">WindResourceAssessment</text>
<polygon fill="none" stroke="black" points="612.5,-447 612.5,-468 750.5,-468 750.5,-447 612.5,-447"/>
<text text-anchor="start" x="663" y="-453.8" font-family="Times New Roman,serif" font-size="14.00">results</text>
<polygon fill="none" stroke="black" points="750.5,-447 750.5,-468 887.5,-468 887.5,-447 750.5,-447"/>
<text text-anchor="start" x="785.5" y="-453.8" font-family="Times New Roman,serif" font-size="14.00">list[Results]</text>
<polygon fill="none" stroke="black" points="612.5,-426 612.5,-447 750.5,-447 750.5,-426 612.5,-426"/>
<text text-anchor="start" x="615.5" y="-432.8" font-family="Times New Roman,serif" font-size="14.00">uncertainty_assessment</text>
<polygon fill="none" stroke="black" points="750.5,-426 750.5,-447 887.5,-447 887.5,-426 750.5,-426"/>
<text text-anchor="start" x="753.5" y="-432.8" font-family="Times New Roman,serif" font-size="14.00">UncertaintyAssessment</text>
</a>
</g>
</g>
<!-- eya_def_tools.data_models.energy_yield_assessment.EnergyYieldAssessment&#45;&gt;eya_def_tools.data_models.energy_yield_assessment.WindResourceAssessment -->
<g id="edge8" class="edge">
<title>eya_def_tools.data_models.energy_yield_assessment.EnergyYieldAssessment:e&#45;&gt;eya_def_tools.data_models.energy_yield_assessment.WindResourceAssessment:w</title>
<path fill="none" stroke="black" d="M410,-554C462.17,-554 469.02,-525.97 518,-508 552.14,-495.47 564.14,-483.62 592.57,-480.07"/>
<polygon fill="black" stroke="black" points="601.52,-479.57 611.75,-483.49 606.51,-479.28 611.5,-479 611.5,-479 611.5,-479 606.51,-479.28 611.25,-474.51 601.52,-479.57 601.52,-479.57"/>
<ellipse fill="none" stroke="black" cx="597.02" cy="-479.82" rx="4" ry="4"/>
</g>
</g>
</svg>
