<?xml version="1.0" encoding="UTF-8" standalone="no"?>
<!DOCTYPE svg PUBLIC "-//W3C//DTD SVG 1.1//EN"
 "http://www.w3.org/Graphics/SVG/1.1/DTD/svg11.dtd">
<!-- Generated by graphviz version 7.0.4 (20221203.1631)
 -->
<!-- Title: Entity Relationship Diagram Pages: 1 -->
<svg width="989pt" height="1022pt"
 viewBox="0.00 0.00 989.00 1021.50" xmlns="http://www.w3.org/2000/svg" xmlns:xlink="http://www.w3.org/1999/xlink">
<g id="graph0" class="graph" transform="scale(1 1) rotate(0) translate(4 1017.5)">
<title>Entity Relationship Diagram</title>
<polygon fill="white" stroke="none" points="-4,4 -4,-1017.5 985,-1017.5 985,4 -4,4"/>
<text text-anchor="middle" x="490.5" y="-6.8" font-family="Times New Roman,serif" font-size="9.00" fill="#a8a8a8">Created by erdantic v0.5.0 &lt;https://github.com/drivendataorg/erdantic&gt;</text>
<!-- eya_def_tools.data_models.energy_yield_assessment.EnergyYieldAssessment -->
<g id="node1" class="node">
<title>eya_def_tools.data_models.energy_yield_assessment.EnergyYieldAssessment</title>
<g id="a_node1"><a xlink:title="eya_def_tools.data_models.energy_yield_assessment.EnergyYieldAssessment&#10;&#10;IEC 61400&#45;15&#45;2 EYA DEF energy yield assessment data model.&#10;&#10;Attributes:&#10; &#160;&#160;&#160;json_uri (Optional[str]): Unique URI of the JSON document. Default is None.&#10; &#160;&#160;&#160;title (str): Title of the energy assessment report.&#10; &#160;&#160;&#160;description (Optional[str]): Description of the data object. Default is None.&#10; &#160;&#160;&#160;comments (Optional[str]): Comments on the data object. Default is None.&#10; &#160;&#160;&#160;project_name (str): Name of the project under assessment.&#10; &#160;&#160;&#160;document_id (Optional[str]): The ID of the report document; not including the version when &#39;document_version&#39; is used. Default is None.&#10; &#160;&#160;&#160;document_version (Optional[str]): Version of the report document, also known as revision. Default is None.&#10; &#160;&#160;&#160;issue_date (date): Report issue date in the ISO 8601 standard format for a calendar date, i.e. YYYY&#45;MM&#45;DD.&#10; &#160;&#160;&#160;contributors (list[ReportContributor]): List of report contributors (e.g. author and verifier)&#10; &#160;&#160;&#160;issuing_organisations (list[Organisation]): The organisation(s) issuing the report (e.g. consultant).&#10; &#160;&#160;&#160;receiving_organisations (Optional[list[Organisation]]): The organisation(s) receiving the report (e.g. client), if relevant. Default is None.&#10; &#160;&#160;&#160;contract_reference (Optional[str]): Reference to contract between the issuing and receiving organisations that governs the energy yield assessment. Default is None.&#10; &#160;&#160;&#160;confidentiality_classification (Optional[str]): Confidentiality classification of the report. Default is None.&#10; &#160;&#160;&#160;coordinate_reference_system (CoordinateReferenceSystem): Coordinate reference system used for all location data.&#10; &#160;&#160;&#160;measurement_stations (list[MeasurementStationMetadata]): List of measurement station metadata JSON document(s) according to the IEA Task 43 WRA Data Model. Default is [].&#10; &#160;&#160;&#160;reference_wind_farms (Optional[list[ReferenceWindFarm]]): List of reference operational wind farms. Default is None.&#10; &#160;&#160;&#160;wind_resource_assessments (Optional[list[WindResourceAssessment]]): List of wind resource assessments, including results, at the measurement station locations. Default is None.&#10; &#160;&#160;&#160;turbine_models (Optional[list[TurbineModel]]): List of wind turbine model specifications. Default is None.&#10; &#160;&#160;&#160;scenarios (Optional[list[Scenario]]): List of energy yield assessment scenarios. Default is None.&#10;">
<polygon fill="none" stroke="black" points="0,-944.5 0,-965.5 410,-965.5 410,-944.5 0,-944.5"/>
<text text-anchor="start" x="131.5" y="-952.3" font-family="Times New Roman,serif" font-weight="bold" font-size="14.00">EnergyYieldAssessment</text>
<polygon fill="none" stroke="black" points="0,-923.5 0,-944.5 171,-944.5 171,-923.5 0,-923.5"/>
<text text-anchor="start" x="62.5" y="-930.3" font-family="Times New Roman,serif" font-size="14.00">json_uri</text>
<polygon fill="none" stroke="black" points="171,-923.5 171,-944.5 410,-944.5 410,-923.5 171,-923.5"/>
<text text-anchor="start" x="254.5" y="-930.3" font-family="Times New Roman,serif" font-size="14.00">Optional[str]</text>
<polygon fill="none" stroke="black" points="0,-902.5 0,-923.5 171,-923.5 171,-902.5 0,-902.5"/>
<text text-anchor="start" x="75.5" y="-909.3" font-family="Times New Roman,serif" font-size="14.00">title</text>
<polygon fill="none" stroke="black" points="171,-902.5 171,-923.5 410,-923.5 410,-902.5 171,-902.5"/>
<text text-anchor="start" x="283" y="-909.3" font-family="Times New Roman,serif" font-size="14.00">str</text>
<polygon fill="none" stroke="black" points="0,-881.5 0,-902.5 171,-902.5 171,-881.5 0,-881.5"/>
<text text-anchor="start" x="54" y="-888.3" font-family="Times New Roman,serif" font-size="14.00">description</text>
<polygon fill="none" stroke="black" points="171,-881.5 171,-902.5 410,-902.5 410,-881.5 171,-881.5"/>
<text text-anchor="start" x="254.5" y="-888.3" font-family="Times New Roman,serif" font-size="14.00">Optional[str]</text>
<polygon fill="none" stroke="black" points="0,-860.5 0,-881.5 171,-881.5 171,-860.5 0,-860.5"/>
<text text-anchor="start" x="56.5" y="-867.3" font-family="Times New Roman,serif" font-size="14.00">comments</text>
<polygon fill="none" stroke="black" points="171,-860.5 171,-881.5 410,-881.5 410,-860.5 171,-860.5"/>
<text text-anchor="start" x="254.5" y="-867.3" font-family="Times New Roman,serif" font-size="14.00">Optional[str]</text>
<polygon fill="none" stroke="black" points="0,-839.5 0,-860.5 171,-860.5 171,-839.5 0,-839.5"/>
<text text-anchor="start" x="47.5" y="-846.3" font-family="Times New Roman,serif" font-size="14.00">project_name</text>
<polygon fill="none" stroke="black" points="171,-839.5 171,-860.5 410,-860.5 410,-839.5 171,-839.5"/>
<text text-anchor="start" x="283" y="-846.3" font-family="Times New Roman,serif" font-size="14.00">str</text>
<polygon fill="none" stroke="black" points="0,-818.5 0,-839.5 171,-839.5 171,-818.5 0,-818.5"/>
<text text-anchor="start" x="48.5" y="-825.3" font-family="Times New Roman,serif" font-size="14.00">document_id</text>
<polygon fill="none" stroke="black" points="171,-818.5 171,-839.5 410,-839.5 410,-818.5 171,-818.5"/>
<text text-anchor="start" x="254.5" y="-825.3" font-family="Times New Roman,serif" font-size="14.00">Optional[str]</text>
<polygon fill="none" stroke="black" points="0,-797.5 0,-818.5 171,-818.5 171,-797.5 0,-797.5"/>
<text text-anchor="start" x="33.5" y="-804.3" font-family="Times New Roman,serif" font-size="14.00">document_version</text>
<polygon fill="none" stroke="black" points="171,-797.5 171,-818.5 410,-818.5 410,-797.5 171,-797.5"/>
<text text-anchor="start" x="254.5" y="-804.3" font-family="Times New Roman,serif" font-size="14.00">Optional[str]</text>
<polygon fill="none" stroke="black" points="0,-776.5 0,-797.5 171,-797.5 171,-776.5 0,-776.5"/>
<text text-anchor="start" x="56" y="-783.3" font-family="Times New Roman,serif" font-size="14.00">issue_date</text>
<polygon fill="none" stroke="black" points="171,-776.5 171,-797.5 410,-797.5 410,-776.5 171,-776.5"/>
<text text-anchor="start" x="278.5" y="-783.3" font-family="Times New Roman,serif" font-size="14.00">date</text>
<polygon fill="none" stroke="black" points="0,-755.5 0,-776.5 171,-776.5 171,-755.5 0,-755.5"/>
<text text-anchor="start" x="51" y="-762.3" font-family="Times New Roman,serif" font-size="14.00">contributors</text>
<polygon fill="none" stroke="black" points="171,-755.5 171,-776.5 410,-776.5 410,-755.5 171,-755.5"/>
<text text-anchor="start" x="225.5" y="-762.3" font-family="Times New Roman,serif" font-size="14.00">list[ReportContributor]</text>
<polygon fill="none" stroke="black" points="0,-734.5 0,-755.5 171,-755.5 171,-734.5 0,-734.5"/>
<text text-anchor="start" x="25.5" y="-741.3" font-family="Times New Roman,serif" font-size="14.00">issuing_organisations</text>
<polygon fill="none" stroke="black" points="171,-734.5 171,-755.5 410,-755.5 410,-734.5 171,-734.5"/>
<text text-anchor="start" x="242.5" y="-741.3" font-family="Times New Roman,serif" font-size="14.00">list[Organisation]</text>
<polygon fill="none" stroke="black" points="0,-713.5 0,-734.5 171,-734.5 171,-713.5 0,-713.5"/>
<text text-anchor="start" x="20" y="-720.3" font-family="Times New Roman,serif" font-size="14.00">receiving_organisations</text>
<polygon fill="none" stroke="black" points="171,-713.5 171,-734.5 410,-734.5 410,-713.5 171,-713.5"/>
<text text-anchor="start" x="214" y="-720.3" font-family="Times New Roman,serif" font-size="14.00">Optional[list[Organisation]]</text>
<polygon fill="none" stroke="black" points="0,-692.5 0,-713.5 171,-713.5 171,-692.5 0,-692.5"/>
<text text-anchor="start" x="33" y="-699.3" font-family="Times New Roman,serif" font-size="14.00">contract_reference</text>
<polygon fill="none" stroke="black" points="171,-692.5 171,-713.5 410,-713.5 410,-692.5 171,-692.5"/>
<text text-anchor="start" x="254.5" y="-699.3" font-family="Times New Roman,serif" font-size="14.00">Optional[str]</text>
<polygon fill="none" stroke="black" points="0,-671.5 0,-692.5 171,-692.5 171,-671.5 0,-671.5"/>
<text text-anchor="start" x="6.5" y="-678.3" font-family="Times New Roman,serif" font-size="14.00">confidentiality_classification</text>
<polygon fill="none" stroke="black" points="171,-671.5 171,-692.5 410,-692.5 410,-671.5 171,-671.5"/>
<text text-anchor="start" x="254.5" y="-678.3" font-family="Times New Roman,serif" font-size="14.00">Optional[str]</text>
<polygon fill="none" stroke="black" points="0,-650.5 0,-671.5 171,-671.5 171,-650.5 0,-650.5"/>
<text text-anchor="start" x="3" y="-657.3" font-family="Times New Roman,serif" font-size="14.00">coordinate_reference_system</text>
<polygon fill="none" stroke="black" points="171,-650.5 171,-671.5 410,-671.5 410,-650.5 171,-650.5"/>
<text text-anchor="start" x="210.5" y="-657.3" font-family="Times New Roman,serif" font-size="14.00">CoordinateReferenceSystem</text>
<polygon fill="none" stroke="black" points="0,-629.5 0,-650.5 171,-650.5 171,-629.5 0,-629.5"/>
<text text-anchor="start" x="23.5" y="-636.3" font-family="Times New Roman,serif" font-size="14.00">measurement_stations</text>
<polygon fill="none" stroke="black" points="171,-629.5 171,-650.5 410,-650.5 410,-629.5 171,-629.5"/>
<text text-anchor="start" x="195.5" y="-636.3" font-family="Times New Roman,serif" font-size="14.00">list[MeasurementStationMetadata]</text>
<polygon fill="none" stroke="black" points="0,-608.5 0,-629.5 171,-629.5 171,-608.5 0,-608.5"/>
<text text-anchor="start" x="23" y="-615.3" font-family="Times New Roman,serif" font-size="14.00">reference_wind_farms</text>
<polygon fill="none" stroke="black" points="171,-608.5 171,-629.5 410,-629.5 410,-608.5 171,-608.5"/>
<text text-anchor="start" x="191" y="-615.3" font-family="Times New Roman,serif" font-size="14.00">Optional[list[ReferenceWindFarm]]</text>
<polygon fill="none" stroke="black" points="0,-587.5 0,-608.5 171,-608.5 171,-587.5 0,-587.5"/>
<text text-anchor="start" x="5.5" y="-594.3" font-family="Times New Roman,serif" font-size="14.00">wind_resource_assessments</text>
<polygon fill="none" stroke="black" points="171,-587.5 171,-608.5 410,-608.5 410,-587.5 171,-587.5"/>
<text text-anchor="start" x="174" y="-594.3" font-family="Times New Roman,serif" font-size="14.00">Optional[list[WindResourceAssessment]]</text>
<polygon fill="none" stroke="black" points="0,-566.5 0,-587.5 171,-587.5 171,-566.5 0,-566.5"/>
<text text-anchor="start" x="42" y="-573.3" font-family="Times New Roman,serif" font-size="14.00">turbine_models</text>
<polygon fill="none" stroke="black" points="171,-566.5 171,-587.5 410,-587.5 410,-566.5 171,-566.5"/>
<text text-anchor="start" x="209.5" y="-573.3" font-family="Times New Roman,serif" font-size="14.00">Optional[list[TurbineModel]]</text>
<polygon fill="none" stroke="black" points="0,-545.5 0,-566.5 171,-566.5 171,-545.5 0,-545.5"/>
<text text-anchor="start" x="59" y="-552.3" font-family="Times New Roman,serif" font-size="14.00">scenarios</text>
<polygon fill="none" stroke="black" points="171,-545.5 171,-566.5 410,-566.5 410,-545.5 171,-545.5"/>
<text text-anchor="start" x="225" y="-552.3" font-family="Times New Roman,serif" font-size="14.00">Optional[list[Scenario]]</text>
</a>
</g>
</g>
<!-- eya_def_tools.data_models.energy_yield_assessment.Scenario -->
<g id="node2" class="node">
<title>eya_def_tools.data_models.energy_yield_assessment.Scenario</title>
<g id="a_node2"><a xlink:title="eya_def_tools.data_models.energy_yield_assessment.Scenario&#10;&#10;Single unique energy yield assessment scenario.&#10;&#10;Attributes:&#10; &#160;&#160;&#160;scenario_id (Optional[str]): Unique identifier of the scenario. Default is None.&#10; &#160;&#160;&#160;label (str): Label of the scenario.&#10; &#160;&#160;&#160;description (Optional[str]): Description of the data object. Default is None.&#10; &#160;&#160;&#160;comments (Optional[str]): Comments on the data object. Default is None.&#10; &#160;&#160;&#160;is_main_scenario (Optional[bool]): Whether or not this is the main scenario in the report. Default is None.&#10; &#160;&#160;&#160;operational_lifetime_length_years (ConstrainedFloatValue): Number of years of project operational lifetime.&#10; &#160;&#160;&#160;wind_farms (list[WindFarmConfiguration]): List of all wind farms included in the scenario.&#10; &#160;&#160;&#160;wind_resource_assessment_basis (Optional[WindResourceAssessmentBasis]): Measurement wind resource assessment basis for the scenario. Default is None.&#10; &#160;&#160;&#160;turbine_wind_resource_assessment (Optional[TurbineWindResourceAssessment]): Wind resource assessment at the turbine locations. Default is None.&#10; &#160;&#160;&#160;energy_assessment (EnergyAssessment): Energy assessment details and results, including gross energy, plant performance, net energy and uncertainties.&#10;">
<polygon fill="none" stroke="black" points="518.5,-227.5 518.5,-248.5 981.5,-248.5 981.5,-227.5 518.5,-227.5"/>
<text text-anchor="start" x="722.5" y="-235.3" font-family="Times New Roman,serif" font-weight="bold" font-size="14.00">Scenario</text>
<polygon fill="none" stroke="black" points="518.5,-206.5 518.5,-227.5 723.5,-227.5 723.5,-206.5 518.5,-206.5"/>
<text text-anchor="start" x="588.5" y="-213.3" font-family="Times New Roman,serif" font-size="14.00">scenario_id</text>
<polygon fill="none" stroke="black" points="723.5,-206.5 723.5,-227.5 981.5,-227.5 981.5,-206.5 723.5,-206.5"/>
<text text-anchor="start" x="816.5" y="-213.3" font-family="Times New Roman,serif" font-size="14.00">Optional[str]</text>
<polygon fill="none" stroke="black" points="518.5,-185.5 518.5,-206.5 723.5,-206.5 723.5,-185.5 518.5,-185.5"/>
<text text-anchor="start" x="608" y="-192.3" font-family="Times New Roman,serif" font-size="14.00">label</text>
<polygon fill="none" stroke="black" points="723.5,-185.5 723.5,-206.5 981.5,-206.5 981.5,-185.5 723.5,-185.5"/>
<text text-anchor="start" x="845" y="-192.3" font-family="Times New Roman,serif" font-size="14.00">str</text>
<polygon fill="none" stroke="black" points="518.5,-164.5 518.5,-185.5 723.5,-185.5 723.5,-164.5 518.5,-164.5"/>
<text text-anchor="start" x="589.5" y="-171.3" font-family="Times New Roman,serif" font-size="14.00">description</text>
<polygon fill="none" stroke="black" points="723.5,-164.5 723.5,-185.5 981.5,-185.5 981.5,-164.5 723.5,-164.5"/>
<text text-anchor="start" x="816.5" y="-171.3" font-family="Times New Roman,serif" font-size="14.00">Optional[str]</text>
<polygon fill="none" stroke="black" points="518.5,-143.5 518.5,-164.5 723.5,-164.5 723.5,-143.5 518.5,-143.5"/>
<text text-anchor="start" x="592" y="-150.3" font-family="Times New Roman,serif" font-size="14.00">comments</text>
<polygon fill="none" stroke="black" points="723.5,-143.5 723.5,-164.5 981.5,-164.5 981.5,-143.5 723.5,-143.5"/>
<text text-anchor="start" x="816.5" y="-150.3" font-family="Times New Roman,serif" font-size="14.00">Optional[str]</text>
<polygon fill="none" stroke="black" points="518.5,-122.5 518.5,-143.5 723.5,-143.5 723.5,-122.5 518.5,-122.5"/>
<text text-anchor="start" x="572.5" y="-129.3" font-family="Times New Roman,serif" font-size="14.00">is_main_scenario</text>
<polygon fill="none" stroke="black" points="723.5,-122.5 723.5,-143.5 981.5,-143.5 981.5,-122.5 723.5,-122.5"/>
<text text-anchor="start" x="811" y="-129.3" font-family="Times New Roman,serif" font-size="14.00">Optional[bool]</text>
<polygon fill="none" stroke="black" points="518.5,-101.5 518.5,-122.5 723.5,-122.5 723.5,-101.5 518.5,-101.5"/>
<text text-anchor="start" x="527.5" y="-108.3" font-family="Times New Roman,serif" font-size="14.00">operational_lifetime_length_years</text>
<polygon fill="none" stroke="black" points="723.5,-101.5 723.5,-122.5 981.5,-122.5 981.5,-101.5 723.5,-101.5"/>
<text text-anchor="start" x="788.5" y="-108.3" font-family="Times New Roman,serif" font-size="14.00">ConstrainedFloatValue</text>
<polygon fill="none" stroke="black" points="518.5,-80.5 518.5,-101.5 723.5,-101.5 723.5,-80.5 518.5,-80.5"/>
<text text-anchor="start" x="587.5" y="-87.3" font-family="Times New Roman,serif" font-size="14.00">wind_farms</text>
<polygon fill="none" stroke="black" points="723.5,-80.5 723.5,-101.5 981.5,-101.5 981.5,-80.5 723.5,-80.5"/>
<text text-anchor="start" x="771.5" y="-87.3" font-family="Times New Roman,serif" font-size="14.00">list[WindFarmConfiguration]</text>
<polygon fill="none" stroke="black" points="518.5,-59.5 518.5,-80.5 723.5,-80.5 723.5,-59.5 518.5,-59.5"/>
<text text-anchor="start" x="526" y="-66.3" font-family="Times New Roman,serif" font-size="14.00">wind_resource_assessment_basis</text>
<polygon fill="none" stroke="black" points="723.5,-59.5 723.5,-80.5 981.5,-80.5 981.5,-59.5 723.5,-59.5"/>
<text text-anchor="start" x="733.5" y="-66.3" font-family="Times New Roman,serif" font-size="14.00">Optional[WindResourceAssessmentBasis]</text>
<polygon fill="none" stroke="black" points="518.5,-38.5 518.5,-59.5 723.5,-59.5 723.5,-38.5 518.5,-38.5"/>
<text text-anchor="start" x="521.5" y="-45.3" font-family="Times New Roman,serif" font-size="14.00">turbine_wind_resource_assessment</text>
<polygon fill="none" stroke="black" points="723.5,-38.5 723.5,-59.5 981.5,-59.5 981.5,-38.5 723.5,-38.5"/>
<text text-anchor="start" x="726.5" y="-45.3" font-family="Times New Roman,serif" font-size="14.00">Optional[TurbineWindResourceAssessment]</text>
<polygon fill="none" stroke="black" points="518.5,-17.5 518.5,-38.5 723.5,-38.5 723.5,-17.5 518.5,-17.5"/>
<text text-anchor="start" x="567" y="-24.3" font-family="Times New Roman,serif" font-size="14.00">energy_assessment</text>
<polygon fill="none" stroke="black" points="723.5,-17.5 723.5,-38.5 981.5,-38.5 981.5,-17.5 723.5,-17.5"/>
<text text-anchor="start" x="799.5" y="-24.3" font-family="Times New Roman,serif" font-size="14.00">EnergyAssessment</text>
</a>
</g>
</g>
<!-- eya_def_tools.data_models.energy_yield_assessment.EnergyYieldAssessment&#45;&gt;eya_def_tools.data_models.energy_yield_assessment.Scenario -->
<g id="edge1" class="edge">
<title>eya_def_tools.data_models.energy_yield_assessment.EnergyYieldAssessment:e&#45;&gt;eya_def_tools.data_models.energy_yield_assessment.Scenario:w</title>
<path fill="none" stroke="black" d="M410,-555.5C551.86,-555.5 386.2,-267.52 499.23,-240.52"/>
<polygon fill="black" stroke="black" points="508.06,-239.57 518.48,-242.97 513.03,-239.04 518,-238.5 518,-238.5 518,-238.5 513.03,-239.04 517.52,-234.03 508.06,-239.57 508.06,-239.57"/>
<ellipse fill="none" stroke="black" cx="503.58" cy="-240.05" rx="4" ry="4"/>
</g>
<!-- eya_def_tools.data_models.organisation.Organisation -->
<g id="node3" class="node">
<title>eya_def_tools.data_models.organisation.Organisation</title>
<g id="a_node3"><a xlink:title="eya_def_tools.data_models.organisation.Organisation&#10;&#10;Issuing or receiving organisation of an energy yield assessment.&#10;&#10;Attributes:&#10; &#160;&#160;&#160;name (str): Entity name of the organisation.&#10; &#160;&#160;&#160;abbreviation (Optional[str]): Abbreviated name of the organisation. Default is None.&#10; &#160;&#160;&#160;address (Optional[str]): Address of the organisation. Default is None.&#10; &#160;&#160;&#160;contact_name (Optional[str]): Name(s) of contact person(s) in the organisation. Default is None.&#10;">
<polygon fill="none" stroke="black" points="668.5,-829.5 668.5,-850.5 831.5,-850.5 831.5,-829.5 668.5,-829.5"/>
<text text-anchor="start" x="709.5" y="-837.3" font-family="Times New Roman,serif" font-weight="bold" font-size="14.00">Organisation</text>
<polygon fill="none" stroke="black" points="668.5,-808.5 668.5,-829.5 753.5,-829.5 753.5,-808.5 668.5,-808.5"/>
<text text-anchor="start" x="696" y="-815.3" font-family="Times New Roman,serif" font-size="14.00">name</text>
<polygon fill="none" stroke="black" points="753.5,-808.5 753.5,-829.5 831.5,-829.5 831.5,-808.5 753.5,-808.5"/>
<text text-anchor="start" x="785" y="-815.3" font-family="Times New Roman,serif" font-size="14.00">str</text>
<polygon fill="none" stroke="black" points="668.5,-787.5 668.5,-808.5 753.5,-808.5 753.5,-787.5 668.5,-787.5"/>
<text text-anchor="start" x="676.5" y="-794.3" font-family="Times New Roman,serif" font-size="14.00">abbreviation</text>
<polygon fill="none" stroke="black" points="753.5,-787.5 753.5,-808.5 831.5,-808.5 831.5,-787.5 753.5,-787.5"/>
<text text-anchor="start" x="756.5" y="-794.3" font-family="Times New Roman,serif" font-size="14.00">Optional[str]</text>
<polygon fill="none" stroke="black" points="668.5,-766.5 668.5,-787.5 753.5,-787.5 753.5,-766.5 668.5,-766.5"/>
<text text-anchor="start" x="689" y="-773.3" font-family="Times New Roman,serif" font-size="14.00">address</text>
<polygon fill="none" stroke="black" points="753.5,-766.5 753.5,-787.5 831.5,-787.5 831.5,-766.5 753.5,-766.5"/>
<text text-anchor="start" x="756.5" y="-773.3" font-family="Times New Roman,serif" font-size="14.00">Optional[str]</text>
<polygon fill="none" stroke="black" points="668.5,-745.5 668.5,-766.5 753.5,-766.5 753.5,-745.5 668.5,-745.5"/>
<text text-anchor="start" x="671.5" y="-752.3" font-family="Times New Roman,serif" font-size="14.00">contact_name</text>
<polygon fill="none" stroke="black" points="753.5,-745.5 753.5,-766.5 831.5,-766.5 831.5,-745.5 753.5,-745.5"/>
<text text-anchor="start" x="756.5" y="-752.3" font-family="Times New Roman,serif" font-size="14.00">Optional[str]</text>
</a>
</g>
</g>
<!-- eya_def_tools.data_models.energy_yield_assessment.EnergyYieldAssessment&#45;&gt;eya_def_tools.data_models.organisation.Organisation -->
<g id="edge2" class="edge">
<title>eya_def_tools.data_models.energy_yield_assessment.EnergyYieldAssessment:e&#45;&gt;eya_def_tools.data_models.organisation.Organisation:w</title>
<path fill="none" stroke="black" d="M410,-744.5C525.58,-744.5 543.63,-830.46 648.73,-839.7"/>
<polygon fill="black" stroke="black" points="657.51,-840.07 667.31,-845 662.5,-840.29 667.5,-840.5 667.5,-840.5 667.5,-840.5 662.5,-840.29 667.69,-836 657.51,-840.07 657.51,-840.07"/>
<ellipse fill="none" stroke="black" cx="653.01" cy="-839.88" rx="4" ry="4"/>
</g>
<!-- eya_def_tools.data_models.energy_yield_assessment.EnergyYieldAssessment&#45;&gt;eya_def_tools.data_models.organisation.Organisation -->
<g id="edge3" class="edge">
<title>eya_def_tools.data_models.energy_yield_assessment.EnergyYieldAssessment:e&#45;&gt;eya_def_tools.data_models.organisation.Organisation:w</title>
<path fill="none" stroke="black" d="M410,-723.5C529.08,-723.5 540.82,-828.49 648.58,-839.56"/>
<polygon fill="black" stroke="black" points="657.51,-840 667.28,-844.99 662.51,-840.25 667.5,-840.5 667.5,-840.5 667.5,-840.5 662.51,-840.25 667.72,-836.01 657.51,-840 657.51,-840"/>
<ellipse fill="none" stroke="black" cx="653.02" cy="-839.78" rx="4" ry="4"/>
</g>
<!-- eya_def_tools.data_models.reference_wind_farm.ReferenceWindFarm -->
<g id="node4" class="node">
<title>eya_def_tools.data_models.reference_wind_farm.ReferenceWindFarm</title>
<g id="a_node4"><a xlink:title="eya_def_tools.data_models.reference_wind_farm.ReferenceWindFarm&#10;&#10;Reference wind farm metadata.&#10;&#10;Attributes:&#10; &#160;&#160;&#160;reference_wind_farm_id (str): Unique ID for the reference wind farm within the EYA DEF document.&#10; &#160;&#160;&#160;wind_farm_configuration (WindFarmConfiguration): The configuration data for the reference wind farm.&#10; &#160;&#160;&#160;datasets (list[ReferenceWindFarmDataset]): Metadata for the operational dataset.&#10;">
<polygon fill="none" stroke="black" points="581.5,-568.5 581.5,-589.5 918.5,-589.5 918.5,-568.5 581.5,-568.5"/>
<text text-anchor="start" x="685" y="-576.3" font-family="Times New Roman,serif" font-weight="bold" font-size="14.00">ReferenceWindFarm</text>
<polygon fill="none" stroke="black" points="581.5,-547.5 581.5,-568.5 729.5,-568.5 729.5,-547.5 581.5,-547.5"/>
<text text-anchor="start" x="587" y="-554.3" font-family="Times New Roman,serif" font-size="14.00">reference_wind_farm_id</text>
<polygon fill="none" stroke="black" points="729.5,-547.5 729.5,-568.5 918.5,-568.5 918.5,-547.5 729.5,-547.5"/>
<text text-anchor="start" x="816.5" y="-554.3" font-family="Times New Roman,serif" font-size="14.00">str</text>
<polygon fill="none" stroke="black" points="581.5,-526.5 581.5,-547.5 729.5,-547.5 729.5,-526.5 581.5,-526.5"/>
<text text-anchor="start" x="584.5" y="-533.3" font-family="Times New Roman,serif" font-size="14.00">wind_farm_configuration</text>
<polygon fill="none" stroke="black" points="729.5,-526.5 729.5,-547.5 918.5,-547.5 918.5,-526.5 729.5,-526.5"/>
<text text-anchor="start" x="755.5" y="-533.3" font-family="Times New Roman,serif" font-size="14.00">WindFarmConfiguration</text>
<polygon fill="none" stroke="black" points="581.5,-505.5 581.5,-526.5 729.5,-526.5 729.5,-505.5 581.5,-505.5"/>
<text text-anchor="start" x="632.5" y="-512.3" font-family="Times New Roman,serif" font-size="14.00">datasets</text>
<polygon fill="none" stroke="black" points="729.5,-505.5 729.5,-526.5 918.5,-526.5 918.5,-505.5 729.5,-505.5"/>
<text text-anchor="start" x="732.5" y="-512.3" font-family="Times New Roman,serif" font-size="14.00">list[ReferenceWindFarmDataset]</text>
</a>
</g>
</g>
<!-- eya_def_tools.data_models.energy_yield_assessment.EnergyYieldAssessment&#45;&gt;eya_def_tools.data_models.reference_wind_farm.ReferenceWindFarm -->
<g id="edge4" class="edge">
<title>eya_def_tools.data_models.energy_yield_assessment.EnergyYieldAssessment:e&#45;&gt;eya_def_tools.data_models.reference_wind_farm.ReferenceWindFarm:w</title>
<path fill="none" stroke="black" d="M410,-618.5C481.05,-618.5 499.72,-585.92 561.77,-580.31"/>
<polygon fill="black" stroke="black" points="570.51,-579.93 580.7,-584 575.5,-579.72 580.5,-579.5 580.5,-579.5 580.5,-579.5 575.5,-579.72 580.3,-575 570.51,-579.93 570.51,-579.93"/>
<ellipse fill="none" stroke="black" cx="566.01" cy="-580.13" rx="4" ry="4"/>
</g>
<!-- eya_def_tools.data_models.report_metadata.ReportContributor -->
<g id="node5" class="node">
<title>eya_def_tools.data_models.report_metadata.ReportContributor</title>
<g id="a_node5"><a xlink:title="eya_def_tools.data_models.report_metadata.ReportContributor&#10;&#10;Contributor to an energy yield assessment.&#10;&#10;Attributes:&#10; &#160;&#160;&#160;name (str): Name of the contributor.&#10; &#160;&#160;&#160;email_address (Optional[EmailStr]): Email address of the contributor. Default is None.&#10; &#160;&#160;&#160;contributor_type (Literal[&#39;author&#39;, &#39;verifier&#39;, &#39;approver&#39;, &#39;other&#39;]): Type of contributor.&#10; &#160;&#160;&#160;contribution_comments (Optional[str]): Comments to clarify contribution. Default is None.&#10; &#160;&#160;&#160;completion_date (Optional[date]): Contribution completion date (format YYYY&#45;MM&#45;DD). Default is None.&#10;">
<polygon fill="none" stroke="black" points="555.5,-992.5 555.5,-1013.5 943.5,-1013.5 943.5,-992.5 555.5,-992.5"/>
<text text-anchor="start" x="691.5" y="-1000.3" font-family="Times New Roman,serif" font-weight="bold" font-size="14.00">ReportContributor</text>
<polygon fill="none" stroke="black" points="555.5,-971.5 555.5,-992.5 694.5,-992.5 694.5,-971.5 555.5,-971.5"/>
<text text-anchor="start" x="610" y="-978.3" font-family="Times New Roman,serif" font-size="14.00">name</text>
<polygon fill="none" stroke="black" points="694.5,-971.5 694.5,-992.5 943.5,-992.5 943.5,-971.5 694.5,-971.5"/>
<text text-anchor="start" x="811.5" y="-978.3" font-family="Times New Roman,serif" font-size="14.00">str</text>
<polygon fill="none" stroke="black" points="555.5,-950.5 555.5,-971.5 694.5,-971.5 694.5,-950.5 555.5,-950.5"/>
<text text-anchor="start" x="585" y="-957.3" font-family="Times New Roman,serif" font-size="14.00">email_address</text>
<polygon fill="none" stroke="black" points="694.5,-950.5 694.5,-971.5 943.5,-971.5 943.5,-950.5 694.5,-950.5"/>
<text text-anchor="start" x="766.5" y="-957.3" font-family="Times New Roman,serif" font-size="14.00">Optional[EmailStr]</text>
<polygon fill="none" stroke="black" points="555.5,-929.5 555.5,-950.5 694.5,-950.5 694.5,-929.5 555.5,-929.5"/>
<text text-anchor="start" x="578" y="-936.3" font-family="Times New Roman,serif" font-size="14.00">contributor_type</text>
<polygon fill="none" stroke="black" points="694.5,-929.5 694.5,-950.5 943.5,-950.5 943.5,-929.5 694.5,-929.5"/>
<text text-anchor="start" x="697.5" y="-936.3" font-family="Times New Roman,serif" font-size="14.00">Literal[&#39;author&#39;, &#39;verifier&#39;, &#39;approver&#39;, &#39;other&#39;]</text>
<polygon fill="none" stroke="black" points="555.5,-908.5 555.5,-929.5 694.5,-929.5 694.5,-908.5 555.5,-908.5"/>
<text text-anchor="start" x="558.5" y="-915.3" font-family="Times New Roman,serif" font-size="14.00">contribution_comments</text>
<polygon fill="none" stroke="black" points="694.5,-908.5 694.5,-929.5 943.5,-929.5 943.5,-908.5 694.5,-908.5"/>
<text text-anchor="start" x="783" y="-915.3" font-family="Times New Roman,serif" font-size="14.00">Optional[str]</text>
<polygon fill="none" stroke="black" points="555.5,-887.5 555.5,-908.5 694.5,-908.5 694.5,-887.5 555.5,-887.5"/>
<text text-anchor="start" x="578" y="-894.3" font-family="Times New Roman,serif" font-size="14.00">completion_date</text>
<polygon fill="none" stroke="black" points="694.5,-887.5 694.5,-908.5 943.5,-908.5 943.5,-887.5 694.5,-887.5"/>
<text text-anchor="start" x="778.5" y="-894.3" font-family="Times New Roman,serif" font-size="14.00">Optional[date]</text>
</a>
</g>
</g>
<!-- eya_def_tools.data_models.energy_yield_assessment.EnergyYieldAssessment&#45;&gt;eya_def_tools.data_models.report_metadata.ReportContributor -->
<g id="edge5" class="edge">
<title>eya_def_tools.data_models.energy_yield_assessment.EnergyYieldAssessment:e&#45;&gt;eya_def_tools.data_models.report_metadata.ReportContributor:w</title>
<path fill="none" stroke="black" d="M410,-766.5C526.5,-766.5 441.81,-977.85 535.92,-1001.38"/>
<polygon fill="black" stroke="black" points="544.56,-1002.37 553.99,-1007.97 549.53,-1002.93 554.5,-1003.5 554.5,-1003.5 554.5,-1003.5 549.53,-1002.93 555.01,-999.03 544.56,-1002.37 544.56,-1002.37"/>
<ellipse fill="none" stroke="black" cx="540.09" cy="-1001.86" rx="4" ry="4"/>
</g>
<!-- eya_def_tools.data_models.spatial.CoordinateReferenceSystem -->
<g id="node6" class="node">
<title>eya_def_tools.data_models.spatial.CoordinateReferenceSystem</title>
<g id="a_node6"><a xlink:title="eya_def_tools.data_models.spatial.CoordinateReferenceSystem&#10;&#10;Specification of a coordinate reference system for GIS data.&#10;&#10;Attributes:&#10; &#160;&#160;&#160;system_label (str): Label of the coordinate system.&#10; &#160;&#160;&#160;epsg_srid (Optional[int]): EPSG Spatial Reference System Identifier (SRID). Default is None.&#10; &#160;&#160;&#160;wkt (Optional[str]): Well&#45;known text (WKT) string definition of the coordinate system. Default is None.&#10;">
<polygon fill="none" stroke="black" points="659.5,-688.5 659.5,-709.5 840.5,-709.5 840.5,-688.5 659.5,-688.5"/>
<text text-anchor="start" x="662.5" y="-696.3" font-family="Times New Roman,serif" font-weight="bold" font-size="14.00">CoordinateReferenceSystem</text>
<polygon fill="none" stroke="black" points="659.5,-667.5 659.5,-688.5 750.5,-688.5 750.5,-667.5 659.5,-667.5"/>
<text text-anchor="start" x="668.5" y="-674.3" font-family="Times New Roman,serif" font-size="14.00">system_label</text>
<polygon fill="none" stroke="black" points="750.5,-667.5 750.5,-688.5 840.5,-688.5 840.5,-667.5 750.5,-667.5"/>
<text text-anchor="start" x="788" y="-674.3" font-family="Times New Roman,serif" font-size="14.00">str</text>
<polygon fill="none" stroke="black" points="659.5,-646.5 659.5,-667.5 750.5,-667.5 750.5,-646.5 659.5,-646.5"/>
<text text-anchor="start" x="677.5" y="-653.3" font-family="Times New Roman,serif" font-size="14.00">epsg_srid</text>
<polygon fill="none" stroke="black" points="750.5,-646.5 750.5,-667.5 840.5,-667.5 840.5,-646.5 750.5,-646.5"/>
<text text-anchor="start" x="760" y="-653.3" font-family="Times New Roman,serif" font-size="14.00">Optional[int]</text>
<polygon fill="none" stroke="black" points="659.5,-625.5 659.5,-646.5 750.5,-646.5 750.5,-625.5 659.5,-625.5"/>
<text text-anchor="start" x="694.5" y="-632.3" font-family="Times New Roman,serif" font-size="14.00">wkt</text>
<polygon fill="none" stroke="black" points="750.5,-625.5 750.5,-646.5 840.5,-646.5 840.5,-625.5 750.5,-625.5"/>
<text text-anchor="start" x="759.5" y="-632.3" font-family="Times New Roman,serif" font-size="14.00">Optional[str]</text>
</a>
</g>
</g>
<!-- eya_def_tools.data_models.energy_yield_assessment.EnergyYieldAssessment&#45;&gt;eya_def_tools.data_models.spatial.CoordinateReferenceSystem -->
<g id="edge6" class="edge">
<title>eya_def_tools.data_models.energy_yield_assessment.EnergyYieldAssessment:e&#45;&gt;eya_def_tools.data_models.spatial.CoordinateReferenceSystem:w</title>
<path fill="none" stroke="black" d="M410,-660.5C516.67,-660.5 544.23,-696 643.64,-699.26"/>
<polyline fill="none" stroke="black" points="658.5,-699.5 653.5,-699.42"/>
<polygon fill="black" stroke="black" points="652.58,-694.4 652.42,-704.4 650.42,-704.37 650.58,-694.37 652.58,-694.4"/>
<polyline fill="none" stroke="black" points="653.5,-699.42 648.5,-699.34"/>
<polygon fill="black" stroke="black" points="647.58,-694.32 647.42,-704.32 645.42,-704.29 645.58,-694.29 647.58,-694.32"/>
<polyline fill="none" stroke="black" points="648.5,-699.34 643.5,-699.26"/>
</g>
<!-- eya_def_tools.data_models.turbine_model.TurbineModel -->
<g id="node7" class="node">
<title>eya_def_tools.data_models.turbine_model.TurbineModel</title>
<g id="a_node7"><a xlink:title="eya_def_tools.data_models.turbine_model.TurbineModel&#10;&#10;Specification of a wind turbine model.&#10;&#10;Attributes:&#10; &#160;&#160;&#160;turbine_model_id (str): Unique identifier of the turbine model.&#10; &#160;&#160;&#160;label (str): Label of the turbine model.&#10; &#160;&#160;&#160;perf_spec_ref (Optional[TurbineModelSpecification]): Reference to a json document with turbine model performance specification (PLACEHOLDER). Default is None.&#10;">
<polygon fill="none" stroke="black" points="589.5,-348.5 589.5,-369.5 910.5,-369.5 910.5,-348.5 589.5,-348.5"/>
<text text-anchor="start" x="706" y="-356.3" font-family="Times New Roman,serif" font-weight="bold" font-size="14.00">TurbineModel</text>
<polygon fill="none" stroke="black" points="589.5,-327.5 589.5,-348.5 694.5,-348.5 694.5,-327.5 589.5,-327.5"/>
<text text-anchor="start" x="592.5" y="-334.3" font-family="Times New Roman,serif" font-size="14.00">turbine_model_id</text>
<polygon fill="none" stroke="black" points="694.5,-327.5 694.5,-348.5 910.5,-348.5 910.5,-327.5 694.5,-327.5"/>
<text text-anchor="start" x="795" y="-334.3" font-family="Times New Roman,serif" font-size="14.00">str</text>
<polygon fill="none" stroke="black" points="589.5,-306.5 589.5,-327.5 694.5,-327.5 694.5,-306.5 589.5,-306.5"/>
<text text-anchor="start" x="629" y="-313.3" font-family="Times New Roman,serif" font-size="14.00">label</text>
<polygon fill="none" stroke="black" points="694.5,-306.5 694.5,-327.5 910.5,-327.5 910.5,-306.5 694.5,-306.5"/>
<text text-anchor="start" x="795" y="-313.3" font-family="Times New Roman,serif" font-size="14.00">str</text>
<polygon fill="none" stroke="black" points="589.5,-285.5 589.5,-306.5 694.5,-306.5 694.5,-285.5 589.5,-285.5"/>
<text text-anchor="start" x="602.5" y="-292.3" font-family="Times New Roman,serif" font-size="14.00">perf_spec_ref</text>
<polygon fill="none" stroke="black" points="694.5,-285.5 694.5,-306.5 910.5,-306.5 910.5,-285.5 694.5,-285.5"/>
<text text-anchor="start" x="697.5" y="-292.3" font-family="Times New Roman,serif" font-size="14.00">Optional[TurbineModelSpecification]</text>
</a>
</g>
</g>
<!-- eya_def_tools.data_models.energy_yield_assessment.EnergyYieldAssessment&#45;&gt;eya_def_tools.data_models.turbine_model.TurbineModel -->
<g id="edge7" class="edge">
<title>eya_def_tools.data_models.energy_yield_assessment.EnergyYieldAssessment:e&#45;&gt;eya_def_tools.data_models.turbine_model.TurbineModel:w</title>
<path fill="none" stroke="black" d="M410,-576.5C506.75,-576.5 444.94,-450.92 518,-387.5 538.09,-370.06 549.38,-362.71 569.81,-360.38"/>
<polygon fill="black" stroke="black" points="578.51,-359.97 588.71,-363.99 583.51,-359.74 588.5,-359.5 588.5,-359.5 588.5,-359.5 583.51,-359.74 588.29,-355.01 578.51,-359.97 578.51,-359.97"/>
<ellipse fill="none" stroke="black" cx="574.02" cy="-360.19" rx="4" ry="4"/>
</g>
<!-- eya_def_tools.data_models.wind_resource_assessment.WindResourceAssessment -->
<g id="node8" class="node">
<title>eya_def_tools.data_models.wind_resource_assessment.WindResourceAssessment</title>
<g id="a_node8"><a xlink:title="eya_def_tools.data_models.wind_resource_assessment.WindResourceAssessment&#10;&#10;Wind resource assessment at the measurement locations.&#10;&#10;Attributes:&#10; &#160;&#160;&#160;results (list[Result]): Assessment results at the measurement location(s).&#10; &#160;&#160;&#160;uncertainty_assessment (UncertaintyAssessment): Measurement wind resource uncertainty assessment.&#10;">
<polygon fill="none" stroke="black" points="612.5,-447.5 612.5,-468.5 887.5,-468.5 887.5,-447.5 612.5,-447.5"/>
<text text-anchor="start" x="669" y="-455.3" font-family="Times New Roman,serif" font-weight="bold" font-size="14.00">WindResourceAssessment</text>
<polygon fill="none" stroke="black" points="612.5,-426.5 612.5,-447.5 750.5,-447.5 750.5,-426.5 612.5,-426.5"/>
<text text-anchor="start" x="663" y="-433.3" font-family="Times New Roman,serif" font-size="14.00">results</text>
<polygon fill="none" stroke="black" points="750.5,-426.5 750.5,-447.5 887.5,-447.5 887.5,-426.5 750.5,-426.5"/>
<text text-anchor="start" x="788.5" y="-433.3" font-family="Times New Roman,serif" font-size="14.00">list[Result]</text>
<polygon fill="none" stroke="black" points="612.5,-405.5 612.5,-426.5 750.5,-426.5 750.5,-405.5 612.5,-405.5"/>
<text text-anchor="start" x="615.5" y="-412.3" font-family="Times New Roman,serif" font-size="14.00">uncertainty_assessment</text>
<polygon fill="none" stroke="black" points="750.5,-405.5 750.5,-426.5 887.5,-426.5 887.5,-405.5 750.5,-405.5"/>
<text text-anchor="start" x="753.5" y="-412.3" font-family="Times New Roman,serif" font-size="14.00">UncertaintyAssessment</text>
</a>
</g>
</g>
<!-- eya_def_tools.data_models.energy_yield_assessment.EnergyYieldAssessment&#45;&gt;eya_def_tools.data_models.wind_resource_assessment.WindResourceAssessment -->
<g id="edge8" class="edge">
<title>eya_def_tools.data_models.energy_yield_assessment.EnergyYieldAssessment:e&#45;&gt;eya_def_tools.data_models.wind_resource_assessment.WindResourceAssessment:w</title>
<path fill="none" stroke="black" d="M410,-597.5C478.51,-597.5 459.51,-523.17 518,-487.5 549.2,-468.47 563.25,-460.95 592.73,-459.03"/>
<polygon fill="black" stroke="black" points="601.5,-458.78 611.63,-463 606.5,-458.64 611.5,-458.5 611.5,-458.5 611.5,-458.5 606.5,-458.64 611.37,-454 601.5,-458.78 601.5,-458.78"/>
<ellipse fill="none" stroke="black" cx="597.01" cy="-458.91" rx="4" ry="4"/>
</g>
</g>
</svg>
