<?xml version="1.0" encoding="UTF-8" standalone="no"?>
<!DOCTYPE svg PUBLIC "-//W3C//DTD SVG 1.1//EN"
 "http://www.w3.org/Graphics/SVG/1.1/DTD/svg11.dtd">
<!-- Generated by graphviz version 7.0.4 (20221203.1631)
 -->
<!-- Title: Entity Relationship Diagram Pages: 1 -->
<svg width="990pt" height="1183pt"
 viewBox="0.00 0.00 990.00 1183.00" xmlns="http://www.w3.org/2000/svg" xmlns:xlink="http://www.w3.org/1999/xlink">
<g id="graph0" class="graph" transform="scale(1 1) rotate(0) translate(4 1179)">
<title>Entity Relationship Diagram</title>
<polygon fill="white" stroke="none" points="-4,4 -4,-1179 986,-1179 986,4 -4,4"/>
<text text-anchor="middle" x="491" y="-6.8" font-family="Times New Roman,serif" font-size="9.00" fill="#a8a8a8">Created by erdantic v0.5.0 &lt;https://github.com/drivendataorg/erdantic&gt;</text>
<!-- eya_def_tools.data_models.eya_def.EyaDefDocument -->
<g id="node1" class="node">
<title>eya_def_tools.data_models.eya_def.EyaDefDocument</title>
<g id="a_node1"><a xlink:title="eya_def_tools.data_models.eya_def.EyaDefDocument&#10;&#10;IEC 61400&#45;15&#45;2 EYA DEF top&#45;level data model.&#10;&#10;Attributes:&#10; &#160;&#160;&#160;json_uri (Optional[str]): Unique URI of the JSON document. Default is None.&#10; &#160;&#160;&#160;title (str): Title of the energy assessment report.&#10; &#160;&#160;&#160;description (Optional[str]): Description of the data object. Default is None.&#10; &#160;&#160;&#160;comments (Optional[str]): Comments on the data object. Default is None.&#10; &#160;&#160;&#160;project_name (str): Name of the project under assessment.&#10; &#160;&#160;&#160;project_county (str): Country where the project under assessment is located.&#10; &#160;&#160;&#160;document_id (Optional[str]): The ID of the report document; not including the version when &#39;document_version&#39; is used. Default is None.&#10; &#160;&#160;&#160;document_version (Optional[str]): Version of the report document, also known as revision. Default is None.&#10; &#160;&#160;&#160;issue_date (date): Report issue date in the ISO 8601 standard format for a calendar date, i.e. YYYY&#45;MM&#45;DD.&#10; &#160;&#160;&#160;contributors (list[ReportContributor]): List of report contributors (e.g. author and verifier)&#10; &#160;&#160;&#160;issuing_organisations (list[Organisation]): The organisation(s) issuing the report (e.g. consultant).&#10; &#160;&#160;&#160;receiving_organisations (Optional[list[Organisation]]): The organisation(s) receiving the report (e.g. client), if relevant. Default is None.&#10; &#160;&#160;&#160;contract_reference (Optional[str]): Reference to contract between the issuing and receiving organisations that governs the energy yield assessment. Default is None.&#10; &#160;&#160;&#160;confidentiality_classification (Optional[str]): Confidentiality classification of the report. Default is None.&#10; &#160;&#160;&#160;coordinate_reference_system (CoordinateReferenceSystem): Coordinate reference system used for all location data.&#10; &#160;&#160;&#160;measurement_stations (Optional[list[MeasurementStationMetadata]]): List of measurement station metadata JSON document(s) according to the IEA Task 43 WRA Data Model, for all station datasets used in the EYA. Default is None.&#10; &#160;&#160;&#160;reference_wind_farms (Optional[list[ReferenceWindFarm]]): List of reference operational wind farms used in the EYA. Default is None.&#10; &#160;&#160;&#160;reference_meteorological_datasets (Optional[list[ReferenceMeteorologicalDataset]]): List of reference meteorological datasets used in the EYA. Default is None.&#10; &#160;&#160;&#160;wind_resource_assessments (Optional[list[WindResourceAssessment]]): List of wind resource assessments, including results, at the measurement station locations. Default is None.&#10; &#160;&#160;&#160;turbine_models (Optional[list[TurbineModel]]): List of wind turbine model specifications. Default is None.&#10; &#160;&#160;&#160;scenarios (Optional[list[Scenario]]): List of energy yield assessment scenarios. Default is None.&#10;">
<polygon fill="none" stroke="black" points="0,-1088 0,-1109 468,-1109 468,-1088 0,-1088"/>
<text text-anchor="start" x="179.5" y="-1095.8" font-family="Times New Roman,serif" font-weight="bold" font-size="14.00">EyaDefDocument</text>
<polygon fill="none" stroke="black" points="0,-1067 0,-1088 199,-1088 199,-1067 0,-1067"/>
<text text-anchor="start" x="76.5" y="-1073.8" font-family="Times New Roman,serif" font-size="14.00">json_uri</text>
<polygon fill="none" stroke="black" points="199,-1067 199,-1088 468,-1088 468,-1067 199,-1067"/>
<text text-anchor="start" x="297.5" y="-1073.8" font-family="Times New Roman,serif" font-size="14.00">Optional[str]</text>
<polygon fill="none" stroke="black" points="0,-1046 0,-1067 199,-1067 199,-1046 0,-1046"/>
<text text-anchor="start" x="89.5" y="-1052.8" font-family="Times New Roman,serif" font-size="14.00">title</text>
<polygon fill="none" stroke="black" points="199,-1046 199,-1067 468,-1067 468,-1046 199,-1046"/>
<text text-anchor="start" x="326" y="-1052.8" font-family="Times New Roman,serif" font-size="14.00">str</text>
<polygon fill="none" stroke="black" points="0,-1025 0,-1046 199,-1046 199,-1025 0,-1025"/>
<text text-anchor="start" x="68" y="-1031.8" font-family="Times New Roman,serif" font-size="14.00">description</text>
<polygon fill="none" stroke="black" points="199,-1025 199,-1046 468,-1046 468,-1025 199,-1025"/>
<text text-anchor="start" x="297.5" y="-1031.8" font-family="Times New Roman,serif" font-size="14.00">Optional[str]</text>
<polygon fill="none" stroke="black" points="0,-1004 0,-1025 199,-1025 199,-1004 0,-1004"/>
<text text-anchor="start" x="70.5" y="-1010.8" font-family="Times New Roman,serif" font-size="14.00">comments</text>
<polygon fill="none" stroke="black" points="199,-1004 199,-1025 468,-1025 468,-1004 199,-1004"/>
<text text-anchor="start" x="297.5" y="-1010.8" font-family="Times New Roman,serif" font-size="14.00">Optional[str]</text>
<polygon fill="none" stroke="black" points="0,-983 0,-1004 199,-1004 199,-983 0,-983"/>
<text text-anchor="start" x="61.5" y="-989.8" font-family="Times New Roman,serif" font-size="14.00">project_name</text>
<polygon fill="none" stroke="black" points="199,-983 199,-1004 468,-1004 468,-983 199,-983"/>
<text text-anchor="start" x="326" y="-989.8" font-family="Times New Roman,serif" font-size="14.00">str</text>
<polygon fill="none" stroke="black" points="0,-962 0,-983 199,-983 199,-962 0,-962"/>
<text text-anchor="start" x="57" y="-968.8" font-family="Times New Roman,serif" font-size="14.00">project_county</text>
<polygon fill="none" stroke="black" points="199,-962 199,-983 468,-983 468,-962 199,-962"/>
<text text-anchor="start" x="326" y="-968.8" font-family="Times New Roman,serif" font-size="14.00">str</text>
<polygon fill="none" stroke="black" points="0,-941 0,-962 199,-962 199,-941 0,-941"/>
<text text-anchor="start" x="62.5" y="-947.8" font-family="Times New Roman,serif" font-size="14.00">document_id</text>
<polygon fill="none" stroke="black" points="199,-941 199,-962 468,-962 468,-941 199,-941"/>
<text text-anchor="start" x="297.5" y="-947.8" font-family="Times New Roman,serif" font-size="14.00">Optional[str]</text>
<polygon fill="none" stroke="black" points="0,-920 0,-941 199,-941 199,-920 0,-920"/>
<text text-anchor="start" x="47.5" y="-926.8" font-family="Times New Roman,serif" font-size="14.00">document_version</text>
<polygon fill="none" stroke="black" points="199,-920 199,-941 468,-941 468,-920 199,-920"/>
<text text-anchor="start" x="297.5" y="-926.8" font-family="Times New Roman,serif" font-size="14.00">Optional[str]</text>
<polygon fill="none" stroke="black" points="0,-899 0,-920 199,-920 199,-899 0,-899"/>
<text text-anchor="start" x="70" y="-905.8" font-family="Times New Roman,serif" font-size="14.00">issue_date</text>
<polygon fill="none" stroke="black" points="199,-899 199,-920 468,-920 468,-899 199,-899"/>
<text text-anchor="start" x="321.5" y="-905.8" font-family="Times New Roman,serif" font-size="14.00">date</text>
<polygon fill="none" stroke="black" points="0,-878 0,-899 199,-899 199,-878 0,-878"/>
<text text-anchor="start" x="65" y="-884.8" font-family="Times New Roman,serif" font-size="14.00">contributors</text>
<polygon fill="none" stroke="black" points="199,-878 199,-899 468,-899 468,-878 199,-878"/>
<text text-anchor="start" x="268.5" y="-884.8" font-family="Times New Roman,serif" font-size="14.00">list[ReportContributor]</text>
<polygon fill="none" stroke="black" points="0,-857 0,-878 199,-878 199,-857 0,-857"/>
<text text-anchor="start" x="39.5" y="-863.8" font-family="Times New Roman,serif" font-size="14.00">issuing_organisations</text>
<polygon fill="none" stroke="black" points="199,-857 199,-878 468,-878 468,-857 199,-857"/>
<text text-anchor="start" x="285.5" y="-863.8" font-family="Times New Roman,serif" font-size="14.00">list[Organisation]</text>
<polygon fill="none" stroke="black" points="0,-836 0,-857 199,-857 199,-836 0,-836"/>
<text text-anchor="start" x="34" y="-842.8" font-family="Times New Roman,serif" font-size="14.00">receiving_organisations</text>
<polygon fill="none" stroke="black" points="199,-836 199,-857 468,-857 468,-836 199,-836"/>
<text text-anchor="start" x="257" y="-842.8" font-family="Times New Roman,serif" font-size="14.00">Optional[list[Organisation]]</text>
<polygon fill="none" stroke="black" points="0,-815 0,-836 199,-836 199,-815 0,-815"/>
<text text-anchor="start" x="47" y="-821.8" font-family="Times New Roman,serif" font-size="14.00">contract_reference</text>
<polygon fill="none" stroke="black" points="199,-815 199,-836 468,-836 468,-815 199,-815"/>
<text text-anchor="start" x="297.5" y="-821.8" font-family="Times New Roman,serif" font-size="14.00">Optional[str]</text>
<polygon fill="none" stroke="black" points="0,-794 0,-815 199,-815 199,-794 0,-794"/>
<text text-anchor="start" x="20.5" y="-800.8" font-family="Times New Roman,serif" font-size="14.00">confidentiality_classification</text>
<polygon fill="none" stroke="black" points="199,-794 199,-815 468,-815 468,-794 199,-794"/>
<text text-anchor="start" x="297.5" y="-800.8" font-family="Times New Roman,serif" font-size="14.00">Optional[str]</text>
<polygon fill="none" stroke="black" points="0,-773 0,-794 199,-794 199,-773 0,-773"/>
<text text-anchor="start" x="17" y="-779.8" font-family="Times New Roman,serif" font-size="14.00">coordinate_reference_system</text>
<polygon fill="none" stroke="black" points="199,-773 199,-794 468,-794 468,-773 199,-773"/>
<text text-anchor="start" x="253.5" y="-779.8" font-family="Times New Roman,serif" font-size="14.00">CoordinateReferenceSystem</text>
<polygon fill="none" stroke="black" points="0,-752 0,-773 199,-773 199,-752 0,-752"/>
<text text-anchor="start" x="37.5" y="-758.8" font-family="Times New Roman,serif" font-size="14.00">measurement_stations</text>
<polygon fill="none" stroke="black" points="199,-752 199,-773 468,-773 468,-752 199,-752"/>
<text text-anchor="start" x="210" y="-758.8" font-family="Times New Roman,serif" font-size="14.00">Optional[list[MeasurementStationMetadata]]</text>
<polygon fill="none" stroke="black" points="0,-731 0,-752 199,-752 199,-731 0,-731"/>
<text text-anchor="start" x="37" y="-737.8" font-family="Times New Roman,serif" font-size="14.00">reference_wind_farms</text>
<polygon fill="none" stroke="black" points="199,-731 199,-752 468,-752 468,-731 199,-731"/>
<text text-anchor="start" x="234" y="-737.8" font-family="Times New Roman,serif" font-size="14.00">Optional[list[ReferenceWindFarm]]</text>
<polygon fill="none" stroke="black" points="0,-710 0,-731 199,-731 199,-710 0,-710"/>
<text text-anchor="start" x="3" y="-716.8" font-family="Times New Roman,serif" font-size="14.00">reference_meteorological_datasets</text>
<polygon fill="none" stroke="black" points="199,-710 199,-731 468,-731 468,-710 199,-710"/>
<text text-anchor="start" x="202" y="-716.8" font-family="Times New Roman,serif" font-size="14.00">Optional[list[ReferenceMeteorologicalDataset]]</text>
<polygon fill="none" stroke="black" points="0,-689 0,-710 199,-710 199,-689 0,-689"/>
<text text-anchor="start" x="19.5" y="-695.8" font-family="Times New Roman,serif" font-size="14.00">wind_resource_assessments</text>
<polygon fill="none" stroke="black" points="199,-689 199,-710 468,-710 468,-689 199,-689"/>
<text text-anchor="start" x="217" y="-695.8" font-family="Times New Roman,serif" font-size="14.00">Optional[list[WindResourceAssessment]]</text>
<polygon fill="none" stroke="black" points="0,-668 0,-689 199,-689 199,-668 0,-668"/>
<text text-anchor="start" x="56" y="-674.8" font-family="Times New Roman,serif" font-size="14.00">turbine_models</text>
<polygon fill="none" stroke="black" points="199,-668 199,-689 468,-689 468,-668 199,-668"/>
<text text-anchor="start" x="252.5" y="-674.8" font-family="Times New Roman,serif" font-size="14.00">Optional[list[TurbineModel]]</text>
<polygon fill="none" stroke="black" points="0,-647 0,-668 199,-668 199,-647 0,-647"/>
<text text-anchor="start" x="73" y="-653.8" font-family="Times New Roman,serif" font-size="14.00">scenarios</text>
<polygon fill="none" stroke="black" points="199,-647 199,-668 468,-668 468,-647 199,-647"/>
<text text-anchor="start" x="268" y="-653.8" font-family="Times New Roman,serif" font-size="14.00">Optional[list[Scenario]]</text>
</a>
</g>
</g>
<!-- eya_def_tools.data_models.reference_met_data.ReferenceMeteorologicalDataset -->
<g id="node2" class="node">
<title>eya_def_tools.data_models.reference_met_data.ReferenceMeteorologicalDataset</title>
<g id="a_node2"><a xlink:title="eya_def_tools.data_models.reference_met_data.ReferenceMeteorologicalDataset&#10;&#10;Metadata for a reference meteorological dataset.&#10;&#10;The schema describes a dataset at a single horizontal spatial&#10;location. Separate data model instances need to be used to describe&#10;data at different location from the same source dataset (e.g.&#10;different grid cells from a reanalysis dataset).&#10;&#10;Attributes:&#10; &#160;&#160;&#160;reference_meteorological_dataset_id (str): Unique ID for the reference meteorological dataset within the EYA DEF document.&#10; &#160;&#160;&#160;description (Optional[str]): Description of the data object. Default is None.&#10; &#160;&#160;&#160;comments (Optional[str]): Comments on the data object. Default is None.&#10; &#160;&#160;&#160;location (Location): The horizontal spatial location of the meteorological data.&#10;">
<polygon fill="none" stroke="black" points="635,-567 635,-588 924,-588 924,-567 635,-567"/>
<text text-anchor="start" x="678" y="-574.8" font-family="Times New Roman,serif" font-weight="bold" font-size="14.00">ReferenceMeteorologicalDataset</text>
<polygon fill="none" stroke="black" points="635,-546 635,-567 846,-567 846,-546 635,-546"/>
<text text-anchor="start" x="638" y="-552.8" font-family="Times New Roman,serif" font-size="14.00">reference_meteorological_dataset_id</text>
<polygon fill="none" stroke="black" points="846,-546 846,-567 924,-567 924,-546 846,-546"/>
<text text-anchor="start" x="877.5" y="-552.8" font-family="Times New Roman,serif" font-size="14.00">str</text>
<polygon fill="none" stroke="black" points="635,-525 635,-546 846,-546 846,-525 635,-525"/>
<text text-anchor="start" x="709" y="-531.8" font-family="Times New Roman,serif" font-size="14.00">description</text>
<polygon fill="none" stroke="black" points="846,-525 846,-546 924,-546 924,-525 846,-525"/>
<text text-anchor="start" x="849" y="-531.8" font-family="Times New Roman,serif" font-size="14.00">Optional[str]</text>
<polygon fill="none" stroke="black" points="635,-504 635,-525 846,-525 846,-504 635,-504"/>
<text text-anchor="start" x="711.5" y="-510.8" font-family="Times New Roman,serif" font-size="14.00">comments</text>
<polygon fill="none" stroke="black" points="846,-504 846,-525 924,-525 924,-504 846,-504"/>
<text text-anchor="start" x="849" y="-510.8" font-family="Times New Roman,serif" font-size="14.00">Optional[str]</text>
<polygon fill="none" stroke="black" points="635,-483 635,-504 846,-504 846,-483 635,-483"/>
<text text-anchor="start" x="718" y="-489.8" font-family="Times New Roman,serif" font-size="14.00">location</text>
<polygon fill="none" stroke="black" points="846,-483 846,-504 924,-504 924,-483 846,-483"/>
<text text-anchor="start" x="860" y="-489.8" font-family="Times New Roman,serif" font-size="14.00">Location</text>
</a>
</g>
</g>
<!-- eya_def_tools.data_models.eya_def.EyaDefDocument&#45;&gt;eya_def_tools.data_models.reference_met_data.ReferenceMeteorologicalDataset -->
<g id="edge1" class="edge">
<title>eya_def_tools.data_models.eya_def.EyaDefDocument:e&#45;&gt;eya_def_tools.data_models.reference_met_data.ReferenceMeteorologicalDataset:w</title>
<path fill="none" stroke="black" d="M468,-720C558.26,-720 540.25,-597.27 615.29,-580.01"/>
<polygon fill="black" stroke="black" points="624.06,-579.07 634.48,-582.47 629.03,-578.53 634,-578 634,-578 634,-578 629.03,-578.53 633.52,-573.53 624.06,-579.07 624.06,-579.07"/>
<ellipse fill="none" stroke="black" cx="619.58" cy="-579.55" rx="4" ry="4"/>
</g>
<!-- eya_def_tools.data_models.reference_wind_farm.ReferenceWindFarm -->
<g id="node3" class="node">
<title>eya_def_tools.data_models.reference_wind_farm.ReferenceWindFarm</title>
<g id="a_node3"><a xlink:title="eya_def_tools.data_models.reference_wind_farm.ReferenceWindFarm&#10;&#10;Reference wind farm metadata.&#10;&#10;Attributes:&#10; &#160;&#160;&#160;reference_wind_farm_id (str): Unique ID for the reference wind farm within the EYA DEF document.&#10; &#160;&#160;&#160;description (Optional[str]): Description of the data object. Default is None.&#10; &#160;&#160;&#160;comments (Optional[str]): Comments on the data object. Default is None.&#10; &#160;&#160;&#160;wind_farm_configuration (WindFarmConfiguration): The configuration data for the reference wind farm.&#10; &#160;&#160;&#160;datasets (list[ReferenceWindFarmDataset]): Metadata for the operational dataset.&#10;">
<polygon fill="none" stroke="black" points="611,-730 611,-751 948,-751 948,-730 611,-730"/>
<text text-anchor="start" x="714.5" y="-737.8" font-family="Times New Roman,serif" font-weight="bold" font-size="14.00">ReferenceWindFarm</text>
<polygon fill="none" stroke="black" points="611,-709 611,-730 759,-730 759,-709 611,-709"/>
<text text-anchor="start" x="616.5" y="-715.8" font-family="Times New Roman,serif" font-size="14.00">reference_wind_farm_id</text>
<polygon fill="none" stroke="black" points="759,-709 759,-730 948,-730 948,-709 759,-709"/>
<text text-anchor="start" x="846" y="-715.8" font-family="Times New Roman,serif" font-size="14.00">str</text>
<polygon fill="none" stroke="black" points="611,-688 611,-709 759,-709 759,-688 611,-688"/>
<text text-anchor="start" x="653.5" y="-694.8" font-family="Times New Roman,serif" font-size="14.00">description</text>
<polygon fill="none" stroke="black" points="759,-688 759,-709 948,-709 948,-688 759,-688"/>
<text text-anchor="start" x="817.5" y="-694.8" font-family="Times New Roman,serif" font-size="14.00">Optional[str]</text>
<polygon fill="none" stroke="black" points="611,-667 611,-688 759,-688 759,-667 611,-667"/>
<text text-anchor="start" x="656" y="-673.8" font-family="Times New Roman,serif" font-size="14.00">comments</text>
<polygon fill="none" stroke="black" points="759,-667 759,-688 948,-688 948,-667 759,-667"/>
<text text-anchor="start" x="817.5" y="-673.8" font-family="Times New Roman,serif" font-size="14.00">Optional[str]</text>
<polygon fill="none" stroke="black" points="611,-646 611,-667 759,-667 759,-646 611,-646"/>
<text text-anchor="start" x="614" y="-652.8" font-family="Times New Roman,serif" font-size="14.00">wind_farm_configuration</text>
<polygon fill="none" stroke="black" points="759,-646 759,-667 948,-667 948,-646 759,-646"/>
<text text-anchor="start" x="785" y="-652.8" font-family="Times New Roman,serif" font-size="14.00">WindFarmConfiguration</text>
<polygon fill="none" stroke="black" points="611,-625 611,-646 759,-646 759,-625 611,-625"/>
<text text-anchor="start" x="662" y="-631.8" font-family="Times New Roman,serif" font-size="14.00">datasets</text>
<polygon fill="none" stroke="black" points="759,-625 759,-646 948,-646 948,-625 759,-625"/>
<text text-anchor="start" x="762" y="-631.8" font-family="Times New Roman,serif" font-size="14.00">list[ReferenceWindFarmDataset]</text>
</a>
</g>
</g>
<!-- eya_def_tools.data_models.eya_def.EyaDefDocument&#45;&gt;eya_def_tools.data_models.reference_wind_farm.ReferenceWindFarm -->
<g id="edge2" class="edge">
<title>eya_def_tools.data_models.eya_def.EyaDefDocument:e&#45;&gt;eya_def_tools.data_models.reference_wind_farm.ReferenceWindFarm:w</title>
<path fill="none" stroke="black" d="M468,-741C524.33,-741 542.95,-741 591.18,-741"/>
<polygon fill="black" stroke="black" points="600,-741 610,-745.5 605,-741 610,-741 610,-741 610,-741 605,-741 610,-736.5 600,-741 600,-741"/>
<ellipse fill="none" stroke="black" cx="595.5" cy="-741" rx="4" ry="4"/>
</g>
<!-- eya_def_tools.data_models.report_metadata.Organisation -->
<g id="node4" class="node">
<title>eya_def_tools.data_models.report_metadata.Organisation</title>
<g id="a_node4"><a xlink:title="eya_def_tools.data_models.report_metadata.Organisation&#10;&#10;Issuing or receiving organisation of an energy yield assessment.&#10;&#10;Attributes:&#10; &#160;&#160;&#160;name (str): Entity name of the organisation.&#10; &#160;&#160;&#160;abbreviation (Optional[str]): Abbreviated name of the organisation. Default is None.&#10; &#160;&#160;&#160;address (Optional[str]): Address of the organisation. Default is None.&#10; &#160;&#160;&#160;contact_name (Optional[str]): Name(s) of contact person(s) in the organisation. Default is None.&#10;">
<polygon fill="none" stroke="black" points="698,-991 698,-1012 861,-1012 861,-991 698,-991"/>
<text text-anchor="start" x="739" y="-998.8" font-family="Times New Roman,serif" font-weight="bold" font-size="14.00">Organisation</text>
<polygon fill="none" stroke="black" points="698,-970 698,-991 783,-991 783,-970 698,-970"/>
<text text-anchor="start" x="725.5" y="-976.8" font-family="Times New Roman,serif" font-size="14.00">name</text>
<polygon fill="none" stroke="black" points="783,-970 783,-991 861,-991 861,-970 783,-970"/>
<text text-anchor="start" x="814.5" y="-976.8" font-family="Times New Roman,serif" font-size="14.00">str</text>
<polygon fill="none" stroke="black" points="698,-949 698,-970 783,-970 783,-949 698,-949"/>
<text text-anchor="start" x="706" y="-955.8" font-family="Times New Roman,serif" font-size="14.00">abbreviation</text>
<polygon fill="none" stroke="black" points="783,-949 783,-970 861,-970 861,-949 783,-949"/>
<text text-anchor="start" x="786" y="-955.8" font-family="Times New Roman,serif" font-size="14.00">Optional[str]</text>
<polygon fill="none" stroke="black" points="698,-928 698,-949 783,-949 783,-928 698,-928"/>
<text text-anchor="start" x="718.5" y="-934.8" font-family="Times New Roman,serif" font-size="14.00">address</text>
<polygon fill="none" stroke="black" points="783,-928 783,-949 861,-949 861,-928 783,-928"/>
<text text-anchor="start" x="786" y="-934.8" font-family="Times New Roman,serif" font-size="14.00">Optional[str]</text>
<polygon fill="none" stroke="black" points="698,-907 698,-928 783,-928 783,-907 698,-907"/>
<text text-anchor="start" x="701" y="-913.8" font-family="Times New Roman,serif" font-size="14.00">contact_name</text>
<polygon fill="none" stroke="black" points="783,-907 783,-928 861,-928 861,-907 783,-907"/>
<text text-anchor="start" x="786" y="-913.8" font-family="Times New Roman,serif" font-size="14.00">Optional[str]</text>
</a>
</g>
</g>
<!-- eya_def_tools.data_models.eya_def.EyaDefDocument&#45;&gt;eya_def_tools.data_models.report_metadata.Organisation -->
<g id="edge3" class="edge">
<title>eya_def_tools.data_models.eya_def.EyaDefDocument:e&#45;&gt;eya_def_tools.data_models.report_metadata.Organisation:w</title>
<path fill="none" stroke="black" d="M468,-867C579.46,-867 579.28,-987.14 678.09,-1000.75"/>
<polygon fill="black" stroke="black" points="687.02,-1001.34 696.7,-1006.49 692.01,-1001.67 697,-1002 697,-1002 697,-1002 692.01,-1001.67 697.3,-997.51 687.02,-1001.34 687.02,-1001.34"/>
<ellipse fill="none" stroke="black" cx="682.53" cy="-1001.04" rx="4" ry="4"/>
</g>
<!-- eya_def_tools.data_models.eya_def.EyaDefDocument&#45;&gt;eya_def_tools.data_models.report_metadata.Organisation -->
<g id="edge4" class="edge">
<title>eya_def_tools.data_models.eya_def.EyaDefDocument:e&#45;&gt;eya_def_tools.data_models.report_metadata.Organisation:w</title>
<path fill="none" stroke="black" d="M468,-846C584.54,-846 575.3,-985.69 678.33,-1000.7"/>
<polygon fill="black" stroke="black" points="687.02,-1001.3 696.69,-1006.49 692.01,-1001.65 697,-1002 697,-1002 697,-1002 692.01,-1001.65 697.31,-997.51 687.02,-1001.3 687.02,-1001.3"/>
<ellipse fill="none" stroke="black" cx="682.54" cy="-1000.99" rx="4" ry="4"/>
</g>
<!-- eya_def_tools.data_models.report_metadata.ReportContributor -->
<g id="node5" class="node">
<title>eya_def_tools.data_models.report_metadata.ReportContributor</title>
<g id="a_node5"><a xlink:title="eya_def_tools.data_models.report_metadata.ReportContributor&#10;&#10;Contributor to an energy yield assessment.&#10;&#10;Attributes:&#10; &#160;&#160;&#160;name (str): Name of the contributor.&#10; &#160;&#160;&#160;email_address (Optional[EmailStr]): Email address of the contributor. Default is None.&#10; &#160;&#160;&#160;contributor_type (ReportContributorType(StrEnum)): Type of contributor.&#10; &#160;&#160;&#160;contribution_comments (Optional[str]): Comments to clarify contribution. Default is None.&#10; &#160;&#160;&#160;completion_date (Optional[date]): Contribution completion date (format YYYY&#45;MM&#45;DD). Default is None.&#10;">
<polygon fill="none" stroke="black" points="611,-1154 611,-1175 948,-1175 948,-1154 611,-1154"/>
<text text-anchor="start" x="721.5" y="-1161.8" font-family="Times New Roman,serif" font-weight="bold" font-size="14.00">ReportContributor</text>
<polygon fill="none" stroke="black" points="611,-1133 611,-1154 750,-1154 750,-1133 611,-1133"/>
<text text-anchor="start" x="665.5" y="-1139.8" font-family="Times New Roman,serif" font-size="14.00">name</text>
<polygon fill="none" stroke="black" points="750,-1133 750,-1154 948,-1154 948,-1133 750,-1133"/>
<text text-anchor="start" x="841.5" y="-1139.8" font-family="Times New Roman,serif" font-size="14.00">str</text>
<polygon fill="none" stroke="black" points="611,-1112 611,-1133 750,-1133 750,-1112 611,-1112"/>
<text text-anchor="start" x="640.5" y="-1118.8" font-family="Times New Roman,serif" font-size="14.00">email_address</text>
<polygon fill="none" stroke="black" points="750,-1112 750,-1133 948,-1133 948,-1112 750,-1112"/>
<text text-anchor="start" x="796.5" y="-1118.8" font-family="Times New Roman,serif" font-size="14.00">Optional[EmailStr]</text>
<polygon fill="none" stroke="black" points="611,-1091 611,-1112 750,-1112 750,-1091 611,-1091"/>
<text text-anchor="start" x="633.5" y="-1097.8" font-family="Times New Roman,serif" font-size="14.00">contributor_type</text>
<polygon fill="none" stroke="black" points="750,-1091 750,-1112 948,-1112 948,-1091 750,-1091"/>
<text text-anchor="start" x="753" y="-1097.8" font-family="Times New Roman,serif" font-size="14.00">ReportContributorType(StrEnum)</text>
<polygon fill="none" stroke="black" points="611,-1070 611,-1091 750,-1091 750,-1070 611,-1070"/>
<text text-anchor="start" x="614" y="-1076.8" font-family="Times New Roman,serif" font-size="14.00">contribution_comments</text>
<polygon fill="none" stroke="black" points="750,-1070 750,-1091 948,-1091 948,-1070 750,-1070"/>
<text text-anchor="start" x="813" y="-1076.8" font-family="Times New Roman,serif" font-size="14.00">Optional[str]</text>
<polygon fill="none" stroke="black" points="611,-1049 611,-1070 750,-1070 750,-1049 611,-1049"/>
<text text-anchor="start" x="633.5" y="-1055.8" font-family="Times New Roman,serif" font-size="14.00">completion_date</text>
<polygon fill="none" stroke="black" points="750,-1049 750,-1070 948,-1070 948,-1049 750,-1049"/>
<text text-anchor="start" x="808.5" y="-1055.8" font-family="Times New Roman,serif" font-size="14.00">Optional[date]</text>
</a>
</g>
</g>
<!-- eya_def_tools.data_models.eya_def.EyaDefDocument&#45;&gt;eya_def_tools.data_models.report_metadata.ReportContributor -->
<g id="edge5" class="edge">
<title>eya_def_tools.data_models.eya_def.EyaDefDocument:e&#45;&gt;eya_def_tools.data_models.report_metadata.ReportContributor:w</title>
<path fill="none" stroke="black" d="M468,-889C599.08,-889 484.71,-1138.19 591.34,-1163.01"/>
<polygon fill="black" stroke="black" points="600.06,-1163.94 609.52,-1169.47 605.03,-1164.47 610,-1165 610,-1165 610,-1165 605.03,-1164.47 610.48,-1160.53 600.06,-1163.94 600.06,-1163.94"/>
<ellipse fill="none" stroke="black" cx="595.58" cy="-1163.47" rx="4" ry="4"/>
</g>
<!-- eya_def_tools.data_models.scenario.Scenario -->
<g id="node6" class="node">
<title>eya_def_tools.data_models.scenario.Scenario</title>
<g id="a_node6"><a xlink:title="eya_def_tools.data_models.scenario.Scenario&#10;&#10;Single unique energy yield assessment scenario.&#10;&#10;Attributes:&#10; &#160;&#160;&#160;scenario_id (Optional[str]): Unique identifier of the scenario. Default is None.&#10; &#160;&#160;&#160;label (str): Label of the scenario.&#10; &#160;&#160;&#160;description (Optional[str]): Description of the data object. Default is None.&#10; &#160;&#160;&#160;comments (Optional[str]): Comments on the data object. Default is None.&#10; &#160;&#160;&#160;is_main_scenario (Optional[bool]): Whether or not this is the main scenario in the report. Default is None.&#10; &#160;&#160;&#160;operational_lifetime_length_years (ConstrainedFloatValue): Number of years of project operational lifetime.&#10; &#160;&#160;&#160;wind_farms (list[WindFarmConfiguration]): List of all wind farms included in the scenario.&#10; &#160;&#160;&#160;turbine_wind_resource_assessment (TurbineWindResourceAssessment): Wind resource assessment at the turbine locations.&#10; &#160;&#160;&#160;energy_assessment (EnergyAssessment): Energy assessment details and results, including gross energy, plant performance, net energy and uncertainties.&#10;">
<polygon fill="none" stroke="black" points="576,-207 576,-228 982,-228 982,-207 576,-207"/>
<text text-anchor="start" x="751.5" y="-214.8" font-family="Times New Roman,serif" font-weight="bold" font-size="14.00">Scenario</text>
<polygon fill="none" stroke="black" points="576,-186 576,-207 781,-207 781,-186 576,-186"/>
<text text-anchor="start" x="646" y="-192.8" font-family="Times New Roman,serif" font-size="14.00">scenario_id</text>
<polygon fill="none" stroke="black" points="781,-186 781,-207 982,-207 982,-186 781,-186"/>
<text text-anchor="start" x="845.5" y="-192.8" font-family="Times New Roman,serif" font-size="14.00">Optional[str]</text>
<polygon fill="none" stroke="black" points="576,-165 576,-186 781,-186 781,-165 576,-165"/>
<text text-anchor="start" x="665.5" y="-171.8" font-family="Times New Roman,serif" font-size="14.00">label</text>
<polygon fill="none" stroke="black" points="781,-165 781,-186 982,-186 982,-165 781,-165"/>
<text text-anchor="start" x="874" y="-171.8" font-family="Times New Roman,serif" font-size="14.00">str</text>
<polygon fill="none" stroke="black" points="576,-144 576,-165 781,-165 781,-144 576,-144"/>
<text text-anchor="start" x="647" y="-150.8" font-family="Times New Roman,serif" font-size="14.00">description</text>
<polygon fill="none" stroke="black" points="781,-144 781,-165 982,-165 982,-144 781,-144"/>
<text text-anchor="start" x="845.5" y="-150.8" font-family="Times New Roman,serif" font-size="14.00">Optional[str]</text>
<polygon fill="none" stroke="black" points="576,-123 576,-144 781,-144 781,-123 576,-123"/>
<text text-anchor="start" x="649.5" y="-129.8" font-family="Times New Roman,serif" font-size="14.00">comments</text>
<polygon fill="none" stroke="black" points="781,-123 781,-144 982,-144 982,-123 781,-123"/>
<text text-anchor="start" x="845.5" y="-129.8" font-family="Times New Roman,serif" font-size="14.00">Optional[str]</text>
<polygon fill="none" stroke="black" points="576,-102 576,-123 781,-123 781,-102 576,-102"/>
<text text-anchor="start" x="630" y="-108.8" font-family="Times New Roman,serif" font-size="14.00">is_main_scenario</text>
<polygon fill="none" stroke="black" points="781,-102 781,-123 982,-123 982,-102 781,-102"/>
<text text-anchor="start" x="840" y="-108.8" font-family="Times New Roman,serif" font-size="14.00">Optional[bool]</text>
<polygon fill="none" stroke="black" points="576,-81 576,-102 781,-102 781,-81 576,-81"/>
<text text-anchor="start" x="585" y="-87.8" font-family="Times New Roman,serif" font-size="14.00">operational_lifetime_length_years</text>
<polygon fill="none" stroke="black" points="781,-81 781,-102 982,-102 982,-81 781,-81"/>
<text text-anchor="start" x="817.5" y="-87.8" font-family="Times New Roman,serif" font-size="14.00">ConstrainedFloatValue</text>
<polygon fill="none" stroke="black" points="576,-60 576,-81 781,-81 781,-60 576,-60"/>
<text text-anchor="start" x="645" y="-66.8" font-family="Times New Roman,serif" font-size="14.00">wind_farms</text>
<polygon fill="none" stroke="black" points="781,-60 781,-81 982,-81 982,-60 781,-60"/>
<text text-anchor="start" x="800.5" y="-66.8" font-family="Times New Roman,serif" font-size="14.00">list[WindFarmConfiguration]</text>
<polygon fill="none" stroke="black" points="576,-39 576,-60 781,-60 781,-39 576,-39"/>
<text text-anchor="start" x="579" y="-45.8" font-family="Times New Roman,serif" font-size="14.00">turbine_wind_resource_assessment</text>
<polygon fill="none" stroke="black" points="781,-39 781,-60 982,-60 982,-39 781,-39"/>
<text text-anchor="start" x="784" y="-45.8" font-family="Times New Roman,serif" font-size="14.00">TurbineWindResourceAssessment</text>
<polygon fill="none" stroke="black" points="576,-18 576,-39 781,-39 781,-18 576,-18"/>
<text text-anchor="start" x="624.5" y="-24.8" font-family="Times New Roman,serif" font-size="14.00">energy_assessment</text>
<polygon fill="none" stroke="black" points="781,-18 781,-39 982,-39 982,-18 781,-18"/>
<text text-anchor="start" x="828.5" y="-24.8" font-family="Times New Roman,serif" font-size="14.00">EnergyAssessment</text>
</a>
</g>
</g>
<!-- eya_def_tools.data_models.eya_def.EyaDefDocument&#45;&gt;eya_def_tools.data_models.scenario.Scenario -->
<g id="edge6" class="edge">
<title>eya_def_tools.data_models.eya_def.EyaDefDocument:e&#45;&gt;eya_def_tools.data_models.scenario.Scenario:w</title>
<path fill="none" stroke="black" d="M468,-657C662.06,-657 394.58,-247.5 557.09,-219.5"/>
<polygon fill="black" stroke="black" points="566.03,-218.79 576.36,-222.49 571.02,-218.4 576,-218 576,-218 576,-218 571.02,-218.4 575.64,-213.51 566.03,-218.79 566.03,-218.79"/>
<ellipse fill="none" stroke="black" cx="561.55" cy="-219.15" rx="4" ry="4"/>
</g>
<!-- eya_def_tools.data_models.spatial.CoordinateReferenceSystem -->
<g id="node7" class="node">
<title>eya_def_tools.data_models.spatial.CoordinateReferenceSystem</title>
<g id="a_node7"><a xlink:title="eya_def_tools.data_models.spatial.CoordinateReferenceSystem&#10;&#10;Specification of a coordinate reference system for GIS data.&#10;&#10;Attributes:&#10; &#160;&#160;&#160;system_label (str): Label of the coordinate system.&#10; &#160;&#160;&#160;epsg_srid (Optional[int]): EPSG Spatial Reference System Identifier (SRID). Default is None.&#10; &#160;&#160;&#160;wkt (Optional[str]): Well&#45;known text (WKT) string definition of the coordinate system. Default is None.&#10;">
<polygon fill="none" stroke="black" points="689,-850 689,-871 870,-871 870,-850 689,-850"/>
<text text-anchor="start" x="692" y="-857.8" font-family="Times New Roman,serif" font-weight="bold" font-size="14.00">CoordinateReferenceSystem</text>
<polygon fill="none" stroke="black" points="689,-829 689,-850 780,-850 780,-829 689,-829"/>
<text text-anchor="start" x="698" y="-835.8" font-family="Times New Roman,serif" font-size="14.00">system_label</text>
<polygon fill="none" stroke="black" points="780,-829 780,-850 870,-850 870,-829 780,-829"/>
<text text-anchor="start" x="817.5" y="-835.8" font-family="Times New Roman,serif" font-size="14.00">str</text>
<polygon fill="none" stroke="black" points="689,-808 689,-829 780,-829 780,-808 689,-808"/>
<text text-anchor="start" x="707" y="-814.8" font-family="Times New Roman,serif" font-size="14.00">epsg_srid</text>
<polygon fill="none" stroke="black" points="780,-808 780,-829 870,-829 870,-808 780,-808"/>
<text text-anchor="start" x="789.5" y="-814.8" font-family="Times New Roman,serif" font-size="14.00">Optional[int]</text>
<polygon fill="none" stroke="black" points="689,-787 689,-808 780,-808 780,-787 689,-787"/>
<text text-anchor="start" x="724" y="-793.8" font-family="Times New Roman,serif" font-size="14.00">wkt</text>
<polygon fill="none" stroke="black" points="780,-787 780,-808 870,-808 870,-787 780,-787"/>
<text text-anchor="start" x="789" y="-793.8" font-family="Times New Roman,serif" font-size="14.00">Optional[str]</text>
</a>
</g>
</g>
<!-- eya_def_tools.data_models.eya_def.EyaDefDocument&#45;&gt;eya_def_tools.data_models.spatial.CoordinateReferenceSystem -->
<g id="edge7" class="edge">
<title>eya_def_tools.data_models.eya_def.EyaDefDocument:e&#45;&gt;eya_def_tools.data_models.spatial.CoordinateReferenceSystem:w</title>
<path fill="none" stroke="black" d="M468,-783C566.57,-783 582.79,-853.42 673.16,-860.44"/>
<polyline fill="none" stroke="black" points="688,-861 683,-860.81"/>
<polygon fill="black" stroke="black" points="682.19,-855.78 681.82,-865.77 679.82,-865.69 680.19,-855.7 682.19,-855.78"/>
<polyline fill="none" stroke="black" points="683,-860.81 678.01,-860.62"/>
<polygon fill="black" stroke="black" points="677.2,-855.59 676.82,-865.58 674.82,-865.51 675.2,-855.51 677.2,-855.59"/>
<polyline fill="none" stroke="black" points="678.01,-860.62 673.01,-860.43"/>
</g>
<!-- eya_def_tools.data_models.turbine_model.TurbineModel -->
<g id="node8" class="node">
<title>eya_def_tools.data_models.turbine_model.TurbineModel</title>
<g id="a_node8"><a xlink:title="eya_def_tools.data_models.turbine_model.TurbineModel&#10;&#10;Specification of a wind turbine model.&#10;&#10;Attributes:&#10; &#160;&#160;&#160;turbine_model_id (str): Unique identifier of the turbine model.&#10; &#160;&#160;&#160;label (str): Label of the turbine model.&#10; &#160;&#160;&#160;perf_spec_ref (Optional[TurbineModelSpecification]): Reference to a json document with turbine model performance specification (PLACEHOLDER). Default is None.&#10;">
<polygon fill="none" stroke="black" points="619,-327 619,-348 940,-348 940,-327 619,-327"/>
<text text-anchor="start" x="735.5" y="-334.8" font-family="Times New Roman,serif" font-weight="bold" font-size="14.00">TurbineModel</text>
<polygon fill="none" stroke="black" points="619,-306 619,-327 724,-327 724,-306 619,-306"/>
<text text-anchor="start" x="622" y="-312.8" font-family="Times New Roman,serif" font-size="14.00">turbine_model_id</text>
<polygon fill="none" stroke="black" points="724,-306 724,-327 940,-327 940,-306 724,-306"/>
<text text-anchor="start" x="824.5" y="-312.8" font-family="Times New Roman,serif" font-size="14.00">str</text>
<polygon fill="none" stroke="black" points="619,-285 619,-306 724,-306 724,-285 619,-285"/>
<text text-anchor="start" x="658.5" y="-291.8" font-family="Times New Roman,serif" font-size="14.00">label</text>
<polygon fill="none" stroke="black" points="724,-285 724,-306 940,-306 940,-285 724,-285"/>
<text text-anchor="start" x="824.5" y="-291.8" font-family="Times New Roman,serif" font-size="14.00">str</text>
<polygon fill="none" stroke="black" points="619,-264 619,-285 724,-285 724,-264 619,-264"/>
<text text-anchor="start" x="632" y="-270.8" font-family="Times New Roman,serif" font-size="14.00">perf_spec_ref</text>
<polygon fill="none" stroke="black" points="724,-264 724,-285 940,-285 940,-264 724,-264"/>
<text text-anchor="start" x="727" y="-270.8" font-family="Times New Roman,serif" font-size="14.00">Optional[TurbineModelSpecification]</text>
</a>
</g>
</g>
<!-- eya_def_tools.data_models.eya_def.EyaDefDocument&#45;&gt;eya_def_tools.data_models.turbine_model.TurbineModel -->
<g id="edge8" class="edge">
<title>eya_def_tools.data_models.eya_def.EyaDefDocument:e&#45;&gt;eya_def_tools.data_models.turbine_model.TurbineModel:w</title>
<path fill="none" stroke="black" d="M468,-678C626.39,-678 467.05,-365.32 599.37,-339.67"/>
<polygon fill="black" stroke="black" points="608.04,-338.89 618.4,-342.48 613.02,-338.45 618,-338 618,-338 618,-338 613.02,-338.45 617.6,-333.52 608.04,-338.89 608.04,-338.89"/>
<ellipse fill="none" stroke="black" cx="603.56" cy="-339.29" rx="4" ry="4"/>
</g>
<!-- eya_def_tools.data_models.wind_resource.WindResourceAssessment -->
<g id="node9" class="node">
<title>eya_def_tools.data_models.wind_resource.WindResourceAssessment</title>
<g id="a_node9"><a xlink:title="eya_def_tools.data_models.wind_resource.WindResourceAssessment&#10;&#10;Wind resource assessment at the measurement location(s).&#10;&#10;Attributes:&#10; &#160;&#160;&#160;wind_resource_assessment_id (str): Unique ID of the wind resource assessment within the EYA DEF document.&#10; &#160;&#160;&#160;wind_speed_results (list[Result]): Final long&#45;term wind speed estimates from the wind resource assessment at the measurement location(s).&#10;">
<polygon fill="none" stroke="black" points="657,-426 657,-447 902,-447 902,-426 657,-426"/>
<text text-anchor="start" x="698.5" y="-433.8" font-family="Times New Roman,serif" font-weight="bold" font-size="14.00">WindResourceAssessment</text>
<polygon fill="none" stroke="black" points="657,-405 657,-426 835,-426 835,-405 657,-405"/>
<text text-anchor="start" x="660" y="-411.8" font-family="Times New Roman,serif" font-size="14.00">wind_resource_assessment_id</text>
<polygon fill="none" stroke="black" points="835,-405 835,-426 902,-426 902,-405 835,-405"/>
<text text-anchor="start" x="861" y="-411.8" font-family="Times New Roman,serif" font-size="14.00">str</text>
<polygon fill="none" stroke="black" points="657,-384 657,-405 835,-405 835,-384 657,-384"/>
<text text-anchor="start" x="690" y="-390.8" font-family="Times New Roman,serif" font-size="14.00">wind_speed_results</text>
<polygon fill="none" stroke="black" points="835,-384 835,-405 902,-405 902,-384 835,-384"/>
<text text-anchor="start" x="838" y="-390.8" font-family="Times New Roman,serif" font-size="14.00">list[Result]</text>
</a>
</g>
</g>
<!-- eya_def_tools.data_models.eya_def.EyaDefDocument&#45;&gt;eya_def_tools.data_models.wind_resource.WindResourceAssessment -->
<g id="edge9" class="edge">
<title>eya_def_tools.data_models.eya_def.EyaDefDocument:e&#45;&gt;eya_def_tools.data_models.wind_resource.WindResourceAssessment:w</title>
<path fill="none" stroke="black" d="M468,-699C582.14,-699 491.89,-543.15 576,-466 598.75,-445.13 612.47,-439.01 637.32,-437.46"/>
<polygon fill="black" stroke="black" points="646,-437.25 656.11,-441.5 651,-437.12 656,-437 656,-437 656,-437 651,-437.12 655.89,-432.5 646,-437.25 646,-437.25"/>
<ellipse fill="none" stroke="black" cx="641.5" cy="-437.36" rx="4" ry="4"/>
</g>
</g>
</svg>
