<?xml version="1.0" encoding="UTF-8" standalone="no"?>
<!DOCTYPE svg PUBLIC "-//W3C//DTD SVG 1.1//EN"
 "http://www.w3.org/Graphics/SVG/1.1/DTD/svg11.dtd">
<!-- Generated by graphviz version 7.0.4 (20221203.1631)
 -->
<!-- Title: Entity Relationship Diagram Pages: 1 -->
<svg width="958pt" height="1106pt"
 viewBox="0.00 0.00 958.00 1105.50" xmlns="http://www.w3.org/2000/svg" xmlns:xlink="http://www.w3.org/1999/xlink">
<g id="graph0" class="graph" transform="scale(1 1) rotate(0) translate(4 1101.5)">
<title>Entity Relationship Diagram</title>
<polygon fill="white" stroke="none" points="-4,4 -4,-1101.5 954,-1101.5 954,4 -4,4"/>
<text text-anchor="middle" x="475" y="-6.8" font-family="Times New Roman,serif" font-size="9.00" fill="#a8a8a8">Created by erdantic v0.5.0 &lt;https://github.com/drivendataorg/erdantic&gt;</text>
<!-- eya_def_tools.data_models.eya_def.EyaDef -->
<g id="node1" class="node">
<title>eya_def_tools.data_models.eya_def.EyaDef</title>
<g id="a_node1"><a xlink:title="eya_def_tools.data_models.eya_def.EyaDef&#10;&#10;IEC 61400&#45;15&#45;2 EYA DEF energy yield assessment data model.&#10;&#10;Attributes:&#10; &#160;&#160;&#160;json_uri (Optional[str]): Unique URI of the JSON document. Default is None.&#10; &#160;&#160;&#160;title (str): Title of the energy assessment report.&#10; &#160;&#160;&#160;description (Optional[str]): Description of the data object. Default is None.&#10; &#160;&#160;&#160;comments (Optional[str]): Comments on the data object. Default is None.&#10; &#160;&#160;&#160;project_name (str): Name of the project under assessment.&#10; &#160;&#160;&#160;document_id (Optional[str]): The ID of the report document; not including the version when &#39;document_version&#39; is used. Default is None.&#10; &#160;&#160;&#160;document_version (Optional[str]): Version of the report document, also known as revision. Default is None.&#10; &#160;&#160;&#160;issue_date (date): Report issue date in the ISO 8601 standard format for a calendar date, i.e. YYYY&#45;MM&#45;DD.&#10; &#160;&#160;&#160;contributors (list[ReportContributor]): List of report contributors (e.g. author and verifier)&#10; &#160;&#160;&#160;issuing_organisations (list[Organisation]): The organisation(s) issuing the report (e.g. consultant).&#10; &#160;&#160;&#160;receiving_organisations (Optional[list[Organisation]]): The organisation(s) receiving the report (e.g. client), if relevant. Default is None.&#10; &#160;&#160;&#160;contract_reference (Optional[str]): Reference to contract between the issuing and receiving organisations that governs the energy yield assessment. Default is None.&#10; &#160;&#160;&#160;confidentiality_classification (Optional[str]): Confidentiality classification of the report. Default is None.&#10; &#160;&#160;&#160;coordinate_reference_system (CoordinateReferenceSystem): Coordinate reference system used for all location data.&#10; &#160;&#160;&#160;measurement_stations (list[MeasurementStationMetadata]): List of measurement station metadata JSON document(s) according to the IEA Task 43 WRA Data Model. Default is [].&#10; &#160;&#160;&#160;reference_wind_farms (Optional[list[ReferenceWindFarm]]): List of reference operational wind farms. Default is None.&#10; &#160;&#160;&#160;wind_resource_assessments (Optional[list[WindResourceAssessment]]): List of wind resource assessments, including results, at the measurement station locations. Default is None.&#10; &#160;&#160;&#160;turbine_models (Optional[list[TurbineModel]]): List of wind turbine model specifications. Default is None.&#10; &#160;&#160;&#160;scenarios (Optional[list[Scenario]]): List of energy yield assessment scenarios. Default is None.&#10;">
<polygon fill="none" stroke="black" points="0,-1028.5 0,-1049.5 410,-1049.5 410,-1028.5 0,-1028.5"/>
<text text-anchor="start" x="182" y="-1036.3" font-family="Times New Roman,serif" font-weight="bold" font-size="14.00">EyaDef</text>
<polygon fill="none" stroke="black" points="0,-1007.5 0,-1028.5 171,-1028.5 171,-1007.5 0,-1007.5"/>
<text text-anchor="start" x="62.5" y="-1014.3" font-family="Times New Roman,serif" font-size="14.00">json_uri</text>
<polygon fill="none" stroke="black" points="171,-1007.5 171,-1028.5 410,-1028.5 410,-1007.5 171,-1007.5"/>
<text text-anchor="start" x="254.5" y="-1014.3" font-family="Times New Roman,serif" font-size="14.00">Optional[str]</text>
<polygon fill="none" stroke="black" points="0,-986.5 0,-1007.5 171,-1007.5 171,-986.5 0,-986.5"/>
<text text-anchor="start" x="75.5" y="-993.3" font-family="Times New Roman,serif" font-size="14.00">title</text>
<polygon fill="none" stroke="black" points="171,-986.5 171,-1007.5 410,-1007.5 410,-986.5 171,-986.5"/>
<text text-anchor="start" x="283" y="-993.3" font-family="Times New Roman,serif" font-size="14.00">str</text>
<polygon fill="none" stroke="black" points="0,-965.5 0,-986.5 171,-986.5 171,-965.5 0,-965.5"/>
<text text-anchor="start" x="54" y="-972.3" font-family="Times New Roman,serif" font-size="14.00">description</text>
<polygon fill="none" stroke="black" points="171,-965.5 171,-986.5 410,-986.5 410,-965.5 171,-965.5"/>
<text text-anchor="start" x="254.5" y="-972.3" font-family="Times New Roman,serif" font-size="14.00">Optional[str]</text>
<polygon fill="none" stroke="black" points="0,-944.5 0,-965.5 171,-965.5 171,-944.5 0,-944.5"/>
<text text-anchor="start" x="56.5" y="-951.3" font-family="Times New Roman,serif" font-size="14.00">comments</text>
<polygon fill="none" stroke="black" points="171,-944.5 171,-965.5 410,-965.5 410,-944.5 171,-944.5"/>
<text text-anchor="start" x="254.5" y="-951.3" font-family="Times New Roman,serif" font-size="14.00">Optional[str]</text>
<polygon fill="none" stroke="black" points="0,-923.5 0,-944.5 171,-944.5 171,-923.5 0,-923.5"/>
<text text-anchor="start" x="47.5" y="-930.3" font-family="Times New Roman,serif" font-size="14.00">project_name</text>
<polygon fill="none" stroke="black" points="171,-923.5 171,-944.5 410,-944.5 410,-923.5 171,-923.5"/>
<text text-anchor="start" x="283" y="-930.3" font-family="Times New Roman,serif" font-size="14.00">str</text>
<polygon fill="none" stroke="black" points="0,-902.5 0,-923.5 171,-923.5 171,-902.5 0,-902.5"/>
<text text-anchor="start" x="48.5" y="-909.3" font-family="Times New Roman,serif" font-size="14.00">document_id</text>
<polygon fill="none" stroke="black" points="171,-902.5 171,-923.5 410,-923.5 410,-902.5 171,-902.5"/>
<text text-anchor="start" x="254.5" y="-909.3" font-family="Times New Roman,serif" font-size="14.00">Optional[str]</text>
<polygon fill="none" stroke="black" points="0,-881.5 0,-902.5 171,-902.5 171,-881.5 0,-881.5"/>
<text text-anchor="start" x="33.5" y="-888.3" font-family="Times New Roman,serif" font-size="14.00">document_version</text>
<polygon fill="none" stroke="black" points="171,-881.5 171,-902.5 410,-902.5 410,-881.5 171,-881.5"/>
<text text-anchor="start" x="254.5" y="-888.3" font-family="Times New Roman,serif" font-size="14.00">Optional[str]</text>
<polygon fill="none" stroke="black" points="0,-860.5 0,-881.5 171,-881.5 171,-860.5 0,-860.5"/>
<text text-anchor="start" x="56" y="-867.3" font-family="Times New Roman,serif" font-size="14.00">issue_date</text>
<polygon fill="none" stroke="black" points="171,-860.5 171,-881.5 410,-881.5 410,-860.5 171,-860.5"/>
<text text-anchor="start" x="278.5" y="-867.3" font-family="Times New Roman,serif" font-size="14.00">date</text>
<polygon fill="none" stroke="black" points="0,-839.5 0,-860.5 171,-860.5 171,-839.5 0,-839.5"/>
<text text-anchor="start" x="51" y="-846.3" font-family="Times New Roman,serif" font-size="14.00">contributors</text>
<polygon fill="none" stroke="black" points="171,-839.5 171,-860.5 410,-860.5 410,-839.5 171,-839.5"/>
<text text-anchor="start" x="225.5" y="-846.3" font-family="Times New Roman,serif" font-size="14.00">list[ReportContributor]</text>
<polygon fill="none" stroke="black" points="0,-818.5 0,-839.5 171,-839.5 171,-818.5 0,-818.5"/>
<text text-anchor="start" x="25.5" y="-825.3" font-family="Times New Roman,serif" font-size="14.00">issuing_organisations</text>
<polygon fill="none" stroke="black" points="171,-818.5 171,-839.5 410,-839.5 410,-818.5 171,-818.5"/>
<text text-anchor="start" x="242.5" y="-825.3" font-family="Times New Roman,serif" font-size="14.00">list[Organisation]</text>
<polygon fill="none" stroke="black" points="0,-797.5 0,-818.5 171,-818.5 171,-797.5 0,-797.5"/>
<text text-anchor="start" x="20" y="-804.3" font-family="Times New Roman,serif" font-size="14.00">receiving_organisations</text>
<polygon fill="none" stroke="black" points="171,-797.5 171,-818.5 410,-818.5 410,-797.5 171,-797.5"/>
<text text-anchor="start" x="214" y="-804.3" font-family="Times New Roman,serif" font-size="14.00">Optional[list[Organisation]]</text>
<polygon fill="none" stroke="black" points="0,-776.5 0,-797.5 171,-797.5 171,-776.5 0,-776.5"/>
<text text-anchor="start" x="33" y="-783.3" font-family="Times New Roman,serif" font-size="14.00">contract_reference</text>
<polygon fill="none" stroke="black" points="171,-776.5 171,-797.5 410,-797.5 410,-776.5 171,-776.5"/>
<text text-anchor="start" x="254.5" y="-783.3" font-family="Times New Roman,serif" font-size="14.00">Optional[str]</text>
<polygon fill="none" stroke="black" points="0,-755.5 0,-776.5 171,-776.5 171,-755.5 0,-755.5"/>
<text text-anchor="start" x="6.5" y="-762.3" font-family="Times New Roman,serif" font-size="14.00">confidentiality_classification</text>
<polygon fill="none" stroke="black" points="171,-755.5 171,-776.5 410,-776.5 410,-755.5 171,-755.5"/>
<text text-anchor="start" x="254.5" y="-762.3" font-family="Times New Roman,serif" font-size="14.00">Optional[str]</text>
<polygon fill="none" stroke="black" points="0,-734.5 0,-755.5 171,-755.5 171,-734.5 0,-734.5"/>
<text text-anchor="start" x="3" y="-741.3" font-family="Times New Roman,serif" font-size="14.00">coordinate_reference_system</text>
<polygon fill="none" stroke="black" points="171,-734.5 171,-755.5 410,-755.5 410,-734.5 171,-734.5"/>
<text text-anchor="start" x="210.5" y="-741.3" font-family="Times New Roman,serif" font-size="14.00">CoordinateReferenceSystem</text>
<polygon fill="none" stroke="black" points="0,-713.5 0,-734.5 171,-734.5 171,-713.5 0,-713.5"/>
<text text-anchor="start" x="23.5" y="-720.3" font-family="Times New Roman,serif" font-size="14.00">measurement_stations</text>
<polygon fill="none" stroke="black" points="171,-713.5 171,-734.5 410,-734.5 410,-713.5 171,-713.5"/>
<text text-anchor="start" x="195.5" y="-720.3" font-family="Times New Roman,serif" font-size="14.00">list[MeasurementStationMetadata]</text>
<polygon fill="none" stroke="black" points="0,-692.5 0,-713.5 171,-713.5 171,-692.5 0,-692.5"/>
<text text-anchor="start" x="23" y="-699.3" font-family="Times New Roman,serif" font-size="14.00">reference_wind_farms</text>
<polygon fill="none" stroke="black" points="171,-692.5 171,-713.5 410,-713.5 410,-692.5 171,-692.5"/>
<text text-anchor="start" x="191" y="-699.3" font-family="Times New Roman,serif" font-size="14.00">Optional[list[ReferenceWindFarm]]</text>
<polygon fill="none" stroke="black" points="0,-671.5 0,-692.5 171,-692.5 171,-671.5 0,-671.5"/>
<text text-anchor="start" x="5.5" y="-678.3" font-family="Times New Roman,serif" font-size="14.00">wind_resource_assessments</text>
<polygon fill="none" stroke="black" points="171,-671.5 171,-692.5 410,-692.5 410,-671.5 171,-671.5"/>
<text text-anchor="start" x="174" y="-678.3" font-family="Times New Roman,serif" font-size="14.00">Optional[list[WindResourceAssessment]]</text>
<polygon fill="none" stroke="black" points="0,-650.5 0,-671.5 171,-671.5 171,-650.5 0,-650.5"/>
<text text-anchor="start" x="42" y="-657.3" font-family="Times New Roman,serif" font-size="14.00">turbine_models</text>
<polygon fill="none" stroke="black" points="171,-650.5 171,-671.5 410,-671.5 410,-650.5 171,-650.5"/>
<text text-anchor="start" x="209.5" y="-657.3" font-family="Times New Roman,serif" font-size="14.00">Optional[list[TurbineModel]]</text>
<polygon fill="none" stroke="black" points="0,-629.5 0,-650.5 171,-650.5 171,-629.5 0,-629.5"/>
<text text-anchor="start" x="59" y="-636.3" font-family="Times New Roman,serif" font-size="14.00">scenarios</text>
<polygon fill="none" stroke="black" points="171,-629.5 171,-650.5 410,-650.5 410,-629.5 171,-629.5"/>
<text text-anchor="start" x="225" y="-636.3" font-family="Times New Roman,serif" font-size="14.00">Optional[list[Scenario]]</text>
</a>
</g>
</g>
<!-- eya_def_tools.data_models.organisation.Organisation -->
<g id="node2" class="node">
<title>eya_def_tools.data_models.organisation.Organisation</title>
<g id="a_node2"><a xlink:title="eya_def_tools.data_models.organisation.Organisation&#10;&#10;Issuing or receiving organisation of an energy yield assessment.&#10;&#10;Attributes:&#10; &#160;&#160;&#160;name (str): Entity name of the organisation.&#10; &#160;&#160;&#160;abbreviation (Optional[str]): Abbreviated name of the organisation. Default is None.&#10; &#160;&#160;&#160;address (Optional[str]): Address of the organisation. Default is None.&#10; &#160;&#160;&#160;contact_name (Optional[str]): Name(s) of contact person(s) in the organisation. Default is None.&#10;">
<polygon fill="none" stroke="black" points="653,-913.5 653,-934.5 816,-934.5 816,-913.5 653,-913.5"/>
<text text-anchor="start" x="694" y="-921.3" font-family="Times New Roman,serif" font-weight="bold" font-size="14.00">Organisation</text>
<polygon fill="none" stroke="black" points="653,-892.5 653,-913.5 738,-913.5 738,-892.5 653,-892.5"/>
<text text-anchor="start" x="680.5" y="-899.3" font-family="Times New Roman,serif" font-size="14.00">name</text>
<polygon fill="none" stroke="black" points="738,-892.5 738,-913.5 816,-913.5 816,-892.5 738,-892.5"/>
<text text-anchor="start" x="769.5" y="-899.3" font-family="Times New Roman,serif" font-size="14.00">str</text>
<polygon fill="none" stroke="black" points="653,-871.5 653,-892.5 738,-892.5 738,-871.5 653,-871.5"/>
<text text-anchor="start" x="661" y="-878.3" font-family="Times New Roman,serif" font-size="14.00">abbreviation</text>
<polygon fill="none" stroke="black" points="738,-871.5 738,-892.5 816,-892.5 816,-871.5 738,-871.5"/>
<text text-anchor="start" x="741" y="-878.3" font-family="Times New Roman,serif" font-size="14.00">Optional[str]</text>
<polygon fill="none" stroke="black" points="653,-850.5 653,-871.5 738,-871.5 738,-850.5 653,-850.5"/>
<text text-anchor="start" x="673.5" y="-857.3" font-family="Times New Roman,serif" font-size="14.00">address</text>
<polygon fill="none" stroke="black" points="738,-850.5 738,-871.5 816,-871.5 816,-850.5 738,-850.5"/>
<text text-anchor="start" x="741" y="-857.3" font-family="Times New Roman,serif" font-size="14.00">Optional[str]</text>
<polygon fill="none" stroke="black" points="653,-829.5 653,-850.5 738,-850.5 738,-829.5 653,-829.5"/>
<text text-anchor="start" x="656" y="-836.3" font-family="Times New Roman,serif" font-size="14.00">contact_name</text>
<polygon fill="none" stroke="black" points="738,-829.5 738,-850.5 816,-850.5 816,-829.5 738,-829.5"/>
<text text-anchor="start" x="741" y="-836.3" font-family="Times New Roman,serif" font-size="14.00">Optional[str]</text>
</a>
</g>
</g>
<!-- eya_def_tools.data_models.eya_def.EyaDef&#45;&gt;eya_def_tools.data_models.organisation.Organisation -->
<g id="edge1" class="edge">
<title>eya_def_tools.data_models.eya_def.EyaDef:e&#45;&gt;eya_def_tools.data_models.organisation.Organisation:w</title>
<path fill="none" stroke="black" d="M410,-828.5C519.16,-828.5 534.75,-913.93 633.31,-923.61"/>
<polygon fill="black" stroke="black" points="642.01,-924.02 651.79,-928.99 647.01,-924.26 652,-924.5 652,-924.5 652,-924.5 647.01,-924.26 652.21,-920.01 642.01,-924.02 642.01,-924.02"/>
<ellipse fill="none" stroke="black" cx="637.52" cy="-923.81" rx="4" ry="4"/>
</g>
<!-- eya_def_tools.data_models.eya_def.EyaDef&#45;&gt;eya_def_tools.data_models.organisation.Organisation -->
<g id="edge2" class="edge">
<title>eya_def_tools.data_models.eya_def.EyaDef:e&#45;&gt;eya_def_tools.data_models.organisation.Organisation:w</title>
<path fill="none" stroke="black" d="M410,-807.5C522.82,-807.5 531.83,-911.84 633.09,-923.45"/>
<polygon fill="black" stroke="black" points="642.02,-923.95 651.75,-928.99 647.01,-924.22 652,-924.5 652,-924.5 652,-924.5 647.01,-924.22 652.25,-920.01 642.02,-923.95 642.02,-923.95"/>
<ellipse fill="none" stroke="black" cx="637.52" cy="-923.7" rx="4" ry="4"/>
</g>
<!-- eya_def_tools.data_models.reference_wind_farm.ReferenceWindFarm -->
<g id="node3" class="node">
<title>eya_def_tools.data_models.reference_wind_farm.ReferenceWindFarm</title>
<g id="a_node3"><a xlink:title="eya_def_tools.data_models.reference_wind_farm.ReferenceWindFarm&#10;&#10;Reference wind farm metadata.&#10;&#10;Attributes:&#10; &#160;&#160;&#160;reference_wind_farm_id (str): Unique ID for the reference wind farm within the EYA DEF document.&#10; &#160;&#160;&#160;description (Optional[str]): Description of the data object. Default is None.&#10; &#160;&#160;&#160;comments (Optional[str]): Comments on the data object. Default is None.&#10; &#160;&#160;&#160;wind_farm_configuration (WindFarmConfiguration): The configuration data for the reference wind farm.&#10; &#160;&#160;&#160;datasets (list[ReferenceWindFarmDataset]): Metadata for the operational dataset.&#10;">
<polygon fill="none" stroke="black" points="566,-652.5 566,-673.5 903,-673.5 903,-652.5 566,-652.5"/>
<text text-anchor="start" x="669.5" y="-660.3" font-family="Times New Roman,serif" font-weight="bold" font-size="14.00">ReferenceWindFarm</text>
<polygon fill="none" stroke="black" points="566,-631.5 566,-652.5 714,-652.5 714,-631.5 566,-631.5"/>
<text text-anchor="start" x="571.5" y="-638.3" font-family="Times New Roman,serif" font-size="14.00">reference_wind_farm_id</text>
<polygon fill="none" stroke="black" points="714,-631.5 714,-652.5 903,-652.5 903,-631.5 714,-631.5"/>
<text text-anchor="start" x="801" y="-638.3" font-family="Times New Roman,serif" font-size="14.00">str</text>
<polygon fill="none" stroke="black" points="566,-610.5 566,-631.5 714,-631.5 714,-610.5 566,-610.5"/>
<text text-anchor="start" x="608.5" y="-617.3" font-family="Times New Roman,serif" font-size="14.00">description</text>
<polygon fill="none" stroke="black" points="714,-610.5 714,-631.5 903,-631.5 903,-610.5 714,-610.5"/>
<text text-anchor="start" x="772.5" y="-617.3" font-family="Times New Roman,serif" font-size="14.00">Optional[str]</text>
<polygon fill="none" stroke="black" points="566,-589.5 566,-610.5 714,-610.5 714,-589.5 566,-589.5"/>
<text text-anchor="start" x="611" y="-596.3" font-family="Times New Roman,serif" font-size="14.00">comments</text>
<polygon fill="none" stroke="black" points="714,-589.5 714,-610.5 903,-610.5 903,-589.5 714,-589.5"/>
<text text-anchor="start" x="772.5" y="-596.3" font-family="Times New Roman,serif" font-size="14.00">Optional[str]</text>
<polygon fill="none" stroke="black" points="566,-568.5 566,-589.5 714,-589.5 714,-568.5 566,-568.5"/>
<text text-anchor="start" x="569" y="-575.3" font-family="Times New Roman,serif" font-size="14.00">wind_farm_configuration</text>
<polygon fill="none" stroke="black" points="714,-568.5 714,-589.5 903,-589.5 903,-568.5 714,-568.5"/>
<text text-anchor="start" x="740" y="-575.3" font-family="Times New Roman,serif" font-size="14.00">WindFarmConfiguration</text>
<polygon fill="none" stroke="black" points="566,-547.5 566,-568.5 714,-568.5 714,-547.5 566,-547.5"/>
<text text-anchor="start" x="617" y="-554.3" font-family="Times New Roman,serif" font-size="14.00">datasets</text>
<polygon fill="none" stroke="black" points="714,-547.5 714,-568.5 903,-568.5 903,-547.5 714,-547.5"/>
<text text-anchor="start" x="717" y="-554.3" font-family="Times New Roman,serif" font-size="14.00">list[ReferenceWindFarmDataset]</text>
</a>
</g>
</g>
<!-- eya_def_tools.data_models.eya_def.EyaDef&#45;&gt;eya_def_tools.data_models.reference_wind_farm.ReferenceWindFarm -->
<g id="edge3" class="edge">
<title>eya_def_tools.data_models.eya_def.EyaDef:e&#45;&gt;eya_def_tools.data_models.reference_wind_farm.ReferenceWindFarm:w</title>
<path fill="none" stroke="black" d="M410,-702.5C474.24,-702.5 490.96,-670.61 546.1,-664.5"/>
<polygon fill="black" stroke="black" points="555.01,-664.03 565.24,-667.99 560.01,-663.77 565,-663.5 565,-663.5 565,-663.5 560.01,-663.77 564.76,-659.01 555.01,-664.03 555.01,-664.03"/>
<ellipse fill="none" stroke="black" cx="550.52" cy="-664.27" rx="4" ry="4"/>
</g>
<!-- eya_def_tools.data_models.report_metadata.ReportContributor -->
<g id="node4" class="node">
<title>eya_def_tools.data_models.report_metadata.ReportContributor</title>
<g id="a_node4"><a xlink:title="eya_def_tools.data_models.report_metadata.ReportContributor&#10;&#10;Contributor to an energy yield assessment.&#10;&#10;Attributes:&#10; &#160;&#160;&#160;name (str): Name of the contributor.&#10; &#160;&#160;&#160;email_address (Optional[EmailStr]): Email address of the contributor. Default is None.&#10; &#160;&#160;&#160;contributor_type (Literal[&#39;author&#39;, &#39;verifier&#39;, &#39;approver&#39;, &#39;other&#39;]): Type of contributor.&#10; &#160;&#160;&#160;contribution_comments (Optional[str]): Comments to clarify contribution. Default is None.&#10; &#160;&#160;&#160;completion_date (Optional[date]): Contribution completion date (format YYYY&#45;MM&#45;DD). Default is None.&#10;">
<polygon fill="none" stroke="black" points="540,-1076.5 540,-1097.5 928,-1097.5 928,-1076.5 540,-1076.5"/>
<text text-anchor="start" x="676" y="-1084.3" font-family="Times New Roman,serif" font-weight="bold" font-size="14.00">ReportContributor</text>
<polygon fill="none" stroke="black" points="540,-1055.5 540,-1076.5 679,-1076.5 679,-1055.5 540,-1055.5"/>
<text text-anchor="start" x="594.5" y="-1062.3" font-family="Times New Roman,serif" font-size="14.00">name</text>
<polygon fill="none" stroke="black" points="679,-1055.5 679,-1076.5 928,-1076.5 928,-1055.5 679,-1055.5"/>
<text text-anchor="start" x="796" y="-1062.3" font-family="Times New Roman,serif" font-size="14.00">str</text>
<polygon fill="none" stroke="black" points="540,-1034.5 540,-1055.5 679,-1055.5 679,-1034.5 540,-1034.5"/>
<text text-anchor="start" x="569.5" y="-1041.3" font-family="Times New Roman,serif" font-size="14.00">email_address</text>
<polygon fill="none" stroke="black" points="679,-1034.5 679,-1055.5 928,-1055.5 928,-1034.5 679,-1034.5"/>
<text text-anchor="start" x="751" y="-1041.3" font-family="Times New Roman,serif" font-size="14.00">Optional[EmailStr]</text>
<polygon fill="none" stroke="black" points="540,-1013.5 540,-1034.5 679,-1034.5 679,-1013.5 540,-1013.5"/>
<text text-anchor="start" x="562.5" y="-1020.3" font-family="Times New Roman,serif" font-size="14.00">contributor_type</text>
<polygon fill="none" stroke="black" points="679,-1013.5 679,-1034.5 928,-1034.5 928,-1013.5 679,-1013.5"/>
<text text-anchor="start" x="682" y="-1020.3" font-family="Times New Roman,serif" font-size="14.00">Literal[&#39;author&#39;, &#39;verifier&#39;, &#39;approver&#39;, &#39;other&#39;]</text>
<polygon fill="none" stroke="black" points="540,-992.5 540,-1013.5 679,-1013.5 679,-992.5 540,-992.5"/>
<text text-anchor="start" x="543" y="-999.3" font-family="Times New Roman,serif" font-size="14.00">contribution_comments</text>
<polygon fill="none" stroke="black" points="679,-992.5 679,-1013.5 928,-1013.5 928,-992.5 679,-992.5"/>
<text text-anchor="start" x="767.5" y="-999.3" font-family="Times New Roman,serif" font-size="14.00">Optional[str]</text>
<polygon fill="none" stroke="black" points="540,-971.5 540,-992.5 679,-992.5 679,-971.5 540,-971.5"/>
<text text-anchor="start" x="562.5" y="-978.3" font-family="Times New Roman,serif" font-size="14.00">completion_date</text>
<polygon fill="none" stroke="black" points="679,-971.5 679,-992.5 928,-992.5 928,-971.5 679,-971.5"/>
<text text-anchor="start" x="763" y="-978.3" font-family="Times New Roman,serif" font-size="14.00">Optional[date]</text>
</a>
</g>
</g>
<!-- eya_def_tools.data_models.eya_def.EyaDef&#45;&gt;eya_def_tools.data_models.report_metadata.ReportContributor -->
<g id="edge4" class="edge">
<title>eya_def_tools.data_models.eya_def.EyaDef:e&#45;&gt;eya_def_tools.data_models.report_metadata.ReportContributor:w</title>
<path fill="none" stroke="black" d="M410,-850.5C522.9,-850.5 431.27,-1060.54 520.2,-1085.15"/>
<polygon fill="black" stroke="black" points="529.08,-1086.26 538.44,-1091.97 534.04,-1086.88 539,-1087.5 539,-1087.5 539,-1087.5 534.04,-1086.88 539.56,-1083.03 529.08,-1086.26 529.08,-1086.26"/>
<ellipse fill="none" stroke="black" cx="524.61" cy="-1085.7" rx="4" ry="4"/>
</g>
<!-- eya_def_tools.data_models.scenario.Scenario -->
<g id="node5" class="node">
<title>eya_def_tools.data_models.scenario.Scenario</title>
<g id="a_node5"><a xlink:title="eya_def_tools.data_models.scenario.Scenario&#10;&#10;Single unique energy yield assessment scenario.&#10;&#10;Attributes:&#10; &#160;&#160;&#160;scenario_id (Optional[str]): Unique identifier of the scenario. Default is None.&#10; &#160;&#160;&#160;label (str): Label of the scenario.&#10; &#160;&#160;&#160;description (Optional[str]): Description of the data object. Default is None.&#10; &#160;&#160;&#160;comments (Optional[str]): Comments on the data object. Default is None.&#10; &#160;&#160;&#160;is_main_scenario (Optional[bool]): Whether or not this is the main scenario in the report. Default is None.&#10; &#160;&#160;&#160;operational_lifetime_length_years (ConstrainedFloatValue): Number of years of project operational lifetime.&#10; &#160;&#160;&#160;wind_farms (list[WindFarmConfiguration]): List of all wind farms included in the scenario.&#10; &#160;&#160;&#160;wind_resource_assessment_reference (WindResourceAssessmentReference): Measurement wind resource assessment reference for the scenario.&#10; &#160;&#160;&#160;turbine_wind_resource_assessment (TurbineWindResourceAssessment): Wind resource assessment at the turbine locations.&#10; &#160;&#160;&#160;energy_assessment (EnergyAssessment): Energy assessment details and results, including gross energy, plant performance, net energy and uncertainties.&#10;">
<polygon fill="none" stroke="black" points="518,-227.5 518,-248.5 950,-248.5 950,-227.5 518,-227.5"/>
<text text-anchor="start" x="706.5" y="-235.3" font-family="Times New Roman,serif" font-weight="bold" font-size="14.00">Scenario</text>
<polygon fill="none" stroke="black" points="518,-206.5 518,-227.5 736,-227.5 736,-206.5 518,-206.5"/>
<text text-anchor="start" x="594.5" y="-213.3" font-family="Times New Roman,serif" font-size="14.00">scenario_id</text>
<polygon fill="none" stroke="black" points="736,-206.5 736,-227.5 950,-227.5 950,-206.5 736,-206.5"/>
<text text-anchor="start" x="807" y="-213.3" font-family="Times New Roman,serif" font-size="14.00">Optional[str]</text>
<polygon fill="none" stroke="black" points="518,-185.5 518,-206.5 736,-206.5 736,-185.5 518,-185.5"/>
<text text-anchor="start" x="614" y="-192.3" font-family="Times New Roman,serif" font-size="14.00">label</text>
<polygon fill="none" stroke="black" points="736,-185.5 736,-206.5 950,-206.5 950,-185.5 736,-185.5"/>
<text text-anchor="start" x="835.5" y="-192.3" font-family="Times New Roman,serif" font-size="14.00">str</text>
<polygon fill="none" stroke="black" points="518,-164.5 518,-185.5 736,-185.5 736,-164.5 518,-164.5"/>
<text text-anchor="start" x="595.5" y="-171.3" font-family="Times New Roman,serif" font-size="14.00">description</text>
<polygon fill="none" stroke="black" points="736,-164.5 736,-185.5 950,-185.5 950,-164.5 736,-164.5"/>
<text text-anchor="start" x="807" y="-171.3" font-family="Times New Roman,serif" font-size="14.00">Optional[str]</text>
<polygon fill="none" stroke="black" points="518,-143.5 518,-164.5 736,-164.5 736,-143.5 518,-143.5"/>
<text text-anchor="start" x="598" y="-150.3" font-family="Times New Roman,serif" font-size="14.00">comments</text>
<polygon fill="none" stroke="black" points="736,-143.5 736,-164.5 950,-164.5 950,-143.5 736,-143.5"/>
<text text-anchor="start" x="807" y="-150.3" font-family="Times New Roman,serif" font-size="14.00">Optional[str]</text>
<polygon fill="none" stroke="black" points="518,-122.5 518,-143.5 736,-143.5 736,-122.5 518,-122.5"/>
<text text-anchor="start" x="578.5" y="-129.3" font-family="Times New Roman,serif" font-size="14.00">is_main_scenario</text>
<polygon fill="none" stroke="black" points="736,-122.5 736,-143.5 950,-143.5 950,-122.5 736,-122.5"/>
<text text-anchor="start" x="801.5" y="-129.3" font-family="Times New Roman,serif" font-size="14.00">Optional[bool]</text>
<polygon fill="none" stroke="black" points="518,-101.5 518,-122.5 736,-122.5 736,-101.5 518,-101.5"/>
<text text-anchor="start" x="533.5" y="-108.3" font-family="Times New Roman,serif" font-size="14.00">operational_lifetime_length_years</text>
<polygon fill="none" stroke="black" points="736,-101.5 736,-122.5 950,-122.5 950,-101.5 736,-101.5"/>
<text text-anchor="start" x="779" y="-108.3" font-family="Times New Roman,serif" font-size="14.00">ConstrainedFloatValue</text>
<polygon fill="none" stroke="black" points="518,-80.5 518,-101.5 736,-101.5 736,-80.5 518,-80.5"/>
<text text-anchor="start" x="593.5" y="-87.3" font-family="Times New Roman,serif" font-size="14.00">wind_farms</text>
<polygon fill="none" stroke="black" points="736,-80.5 736,-101.5 950,-101.5 950,-80.5 736,-80.5"/>
<text text-anchor="start" x="762" y="-87.3" font-family="Times New Roman,serif" font-size="14.00">list[WindFarmConfiguration]</text>
<polygon fill="none" stroke="black" points="518,-59.5 518,-80.5 736,-80.5 736,-59.5 518,-59.5"/>
<text text-anchor="start" x="521" y="-66.3" font-family="Times New Roman,serif" font-size="14.00">wind_resource_assessment_reference</text>
<polygon fill="none" stroke="black" points="736,-59.5 736,-80.5 950,-80.5 950,-59.5 736,-59.5"/>
<text text-anchor="start" x="739" y="-66.3" font-family="Times New Roman,serif" font-size="14.00">WindResourceAssessmentReference</text>
<polygon fill="none" stroke="black" points="518,-38.5 518,-59.5 736,-59.5 736,-38.5 518,-38.5"/>
<text text-anchor="start" x="527.5" y="-45.3" font-family="Times New Roman,serif" font-size="14.00">turbine_wind_resource_assessment</text>
<polygon fill="none" stroke="black" points="736,-38.5 736,-59.5 950,-59.5 950,-38.5 736,-38.5"/>
<text text-anchor="start" x="745.5" y="-45.3" font-family="Times New Roman,serif" font-size="14.00">TurbineWindResourceAssessment</text>
<polygon fill="none" stroke="black" points="518,-17.5 518,-38.5 736,-38.5 736,-17.5 518,-17.5"/>
<text text-anchor="start" x="573" y="-24.3" font-family="Times New Roman,serif" font-size="14.00">energy_assessment</text>
<polygon fill="none" stroke="black" points="736,-17.5 736,-38.5 950,-38.5 950,-17.5 736,-17.5"/>
<text text-anchor="start" x="790" y="-24.3" font-family="Times New Roman,serif" font-size="14.00">EnergyAssessment</text>
</a>
</g>
</g>
<!-- eya_def_tools.data_models.eya_def.EyaDef&#45;&gt;eya_def_tools.data_models.scenario.Scenario -->
<g id="edge5" class="edge">
<title>eya_def_tools.data_models.eya_def.EyaDef:e&#45;&gt;eya_def_tools.data_models.scenario.Scenario:w</title>
<path fill="none" stroke="black" d="M410,-639.5C587.72,-639.5 352.2,-267.71 499.25,-240.12"/>
<polygon fill="black" stroke="black" points="508.04,-239.36 518.39,-242.98 513.02,-238.93 518,-238.5 518,-238.5 518,-238.5 513.02,-238.93 517.61,-234.02 508.04,-239.36 508.04,-239.36"/>
<ellipse fill="none" stroke="black" cx="503.55" cy="-239.74" rx="4" ry="4"/>
</g>
<!-- eya_def_tools.data_models.spatial.CoordinateReferenceSystem -->
<g id="node6" class="node">
<title>eya_def_tools.data_models.spatial.CoordinateReferenceSystem</title>
<g id="a_node6"><a xlink:title="eya_def_tools.data_models.spatial.CoordinateReferenceSystem&#10;&#10;Specification of a coordinate reference system for GIS data.&#10;&#10;Attributes:&#10; &#160;&#160;&#160;system_label (str): Label of the coordinate system.&#10; &#160;&#160;&#160;epsg_srid (Optional[int]): EPSG Spatial Reference System Identifier (SRID). Default is None.&#10; &#160;&#160;&#160;wkt (Optional[str]): Well&#45;known text (WKT) string definition of the coordinate system. Default is None.&#10;">
<polygon fill="none" stroke="black" points="644,-772.5 644,-793.5 825,-793.5 825,-772.5 644,-772.5"/>
<text text-anchor="start" x="647" y="-780.3" font-family="Times New Roman,serif" font-weight="bold" font-size="14.00">CoordinateReferenceSystem</text>
<polygon fill="none" stroke="black" points="644,-751.5 644,-772.5 735,-772.5 735,-751.5 644,-751.5"/>
<text text-anchor="start" x="653" y="-758.3" font-family="Times New Roman,serif" font-size="14.00">system_label</text>
<polygon fill="none" stroke="black" points="735,-751.5 735,-772.5 825,-772.5 825,-751.5 735,-751.5"/>
<text text-anchor="start" x="772.5" y="-758.3" font-family="Times New Roman,serif" font-size="14.00">str</text>
<polygon fill="none" stroke="black" points="644,-730.5 644,-751.5 735,-751.5 735,-730.5 644,-730.5"/>
<text text-anchor="start" x="662" y="-737.3" font-family="Times New Roman,serif" font-size="14.00">epsg_srid</text>
<polygon fill="none" stroke="black" points="735,-730.5 735,-751.5 825,-751.5 825,-730.5 735,-730.5"/>
<text text-anchor="start" x="744.5" y="-737.3" font-family="Times New Roman,serif" font-size="14.00">Optional[int]</text>
<polygon fill="none" stroke="black" points="644,-709.5 644,-730.5 735,-730.5 735,-709.5 644,-709.5"/>
<text text-anchor="start" x="679" y="-716.3" font-family="Times New Roman,serif" font-size="14.00">wkt</text>
<polygon fill="none" stroke="black" points="735,-709.5 735,-730.5 825,-730.5 825,-709.5 735,-709.5"/>
<text text-anchor="start" x="744" y="-716.3" font-family="Times New Roman,serif" font-size="14.00">Optional[str]</text>
</a>
</g>
</g>
<!-- eya_def_tools.data_models.eya_def.EyaDef&#45;&gt;eya_def_tools.data_models.spatial.CoordinateReferenceSystem -->
<g id="edge6" class="edge">
<title>eya_def_tools.data_models.eya_def.EyaDef:e&#45;&gt;eya_def_tools.data_models.spatial.CoordinateReferenceSystem:w</title>
<path fill="none" stroke="black" d="M410,-744.5C509.87,-744.5 535.56,-779.78 628.19,-783.23"/>
<polyline fill="none" stroke="black" points="643,-783.5 638,-783.41"/>
<polygon fill="black" stroke="black" points="637.09,-778.39 636.91,-788.39 634.91,-788.35 635.09,-778.36 637.09,-778.39"/>
<polyline fill="none" stroke="black" points="638,-783.41 633,-783.32"/>
<polygon fill="black" stroke="black" points="632.09,-778.3 631.91,-788.3 629.91,-788.26 630.09,-778.26 632.09,-778.3"/>
<polyline fill="none" stroke="black" points="633,-783.32 628,-783.23"/>
</g>
<!-- eya_def_tools.data_models.turbine_model.TurbineModel -->
<g id="node7" class="node">
<title>eya_def_tools.data_models.turbine_model.TurbineModel</title>
<g id="a_node7"><a xlink:title="eya_def_tools.data_models.turbine_model.TurbineModel&#10;&#10;Specification of a wind turbine model.&#10;&#10;Attributes:&#10; &#160;&#160;&#160;turbine_model_id (str): Unique identifier of the turbine model.&#10; &#160;&#160;&#160;label (str): Label of the turbine model.&#10; &#160;&#160;&#160;perf_spec_ref (Optional[TurbineModelSpecification]): Reference to a json document with turbine model performance specification (PLACEHOLDER). Default is None.&#10;">
<polygon fill="none" stroke="black" points="574,-348.5 574,-369.5 895,-369.5 895,-348.5 574,-348.5"/>
<text text-anchor="start" x="690.5" y="-356.3" font-family="Times New Roman,serif" font-weight="bold" font-size="14.00">TurbineModel</text>
<polygon fill="none" stroke="black" points="574,-327.5 574,-348.5 679,-348.5 679,-327.5 574,-327.5"/>
<text text-anchor="start" x="577" y="-334.3" font-family="Times New Roman,serif" font-size="14.00">turbine_model_id</text>
<polygon fill="none" stroke="black" points="679,-327.5 679,-348.5 895,-348.5 895,-327.5 679,-327.5"/>
<text text-anchor="start" x="779.5" y="-334.3" font-family="Times New Roman,serif" font-size="14.00">str</text>
<polygon fill="none" stroke="black" points="574,-306.5 574,-327.5 679,-327.5 679,-306.5 574,-306.5"/>
<text text-anchor="start" x="613.5" y="-313.3" font-family="Times New Roman,serif" font-size="14.00">label</text>
<polygon fill="none" stroke="black" points="679,-306.5 679,-327.5 895,-327.5 895,-306.5 679,-306.5"/>
<text text-anchor="start" x="779.5" y="-313.3" font-family="Times New Roman,serif" font-size="14.00">str</text>
<polygon fill="none" stroke="black" points="574,-285.5 574,-306.5 679,-306.5 679,-285.5 574,-285.5"/>
<text text-anchor="start" x="587" y="-292.3" font-family="Times New Roman,serif" font-size="14.00">perf_spec_ref</text>
<polygon fill="none" stroke="black" points="679,-285.5 679,-306.5 895,-306.5 895,-285.5 679,-285.5"/>
<text text-anchor="start" x="682" y="-292.3" font-family="Times New Roman,serif" font-size="14.00">Optional[TurbineModelSpecification]</text>
</a>
</g>
</g>
<!-- eya_def_tools.data_models.eya_def.EyaDef&#45;&gt;eya_def_tools.data_models.turbine_model.TurbineModel -->
<g id="edge7" class="edge">
<title>eya_def_tools.data_models.eya_def.EyaDef:e&#45;&gt;eya_def_tools.data_models.turbine_model.TurbineModel:w</title>
<path fill="none" stroke="black" d="M410,-660.5C555.3,-660.5 432.97,-385.94 554.22,-361.27"/>
<polygon fill="black" stroke="black" points="563.04,-360.44 573.42,-363.98 568.02,-359.97 573,-359.5 573,-359.5 573,-359.5 568.02,-359.97 572.58,-355.02 563.04,-360.44 563.04,-360.44"/>
<ellipse fill="none" stroke="black" cx="558.56" cy="-360.86" rx="4" ry="4"/>
</g>
<!-- eya_def_tools.data_models.wind_resource.WindResourceAssessment -->
<g id="node8" class="node">
<title>eya_def_tools.data_models.wind_resource.WindResourceAssessment</title>
<g id="a_node8"><a xlink:title="eya_def_tools.data_models.wind_resource.WindResourceAssessment&#10;&#10;Wind resource assessment at the measurement locations.&#10;&#10;Attributes:&#10; &#160;&#160;&#160;measurement_station_reference (Optional[MeasurementStationReference]): Assessment results at the measurement location(s). Default is None.&#10; &#160;&#160;&#160;reference_wind_farm_reference (Optional[ReferenceWindFarmReference]): Assessment results at the measurement location(s). Default is None.&#10; &#160;&#160;&#160;subcategory_results (list[Result]): Assessment results at the measurement location(s).&#10; &#160;&#160;&#160;uncertainty_assessment (UncertaintyAssessment): Measurement wind resource uncertainty assessment.&#10;">
<polygon fill="none" stroke="black" points="524,-489.5 524,-510.5 944,-510.5 944,-489.5 524,-489.5"/>
<text text-anchor="start" x="653" y="-497.3" font-family="Times New Roman,serif" font-weight="bold" font-size="14.00">WindResourceAssessment</text>
<polygon fill="none" stroke="black" points="524,-468.5 524,-489.5 708,-489.5 708,-468.5 524,-468.5"/>
<text text-anchor="start" x="528" y="-475.3" font-family="Times New Roman,serif" font-size="14.00">measurement_station_reference</text>
<polygon fill="none" stroke="black" points="708,-468.5 708,-489.5 944,-489.5 944,-468.5 708,-468.5"/>
<text text-anchor="start" x="712.5" y="-475.3" font-family="Times New Roman,serif" font-size="14.00">Optional[MeasurementStationReference]</text>
<polygon fill="none" stroke="black" points="524,-447.5 524,-468.5 708,-468.5 708,-447.5 524,-447.5"/>
<text text-anchor="start" x="527" y="-454.3" font-family="Times New Roman,serif" font-size="14.00">reference_wind_farm_reference</text>
<polygon fill="none" stroke="black" points="708,-447.5 708,-468.5 944,-468.5 944,-447.5 708,-447.5"/>
<text text-anchor="start" x="711" y="-454.3" font-family="Times New Roman,serif" font-size="14.00">Optional[ReferenceWindFarmReference]</text>
<polygon fill="none" stroke="black" points="524,-426.5 524,-447.5 708,-447.5 708,-426.5 524,-426.5"/>
<text text-anchor="start" x="560" y="-433.3" font-family="Times New Roman,serif" font-size="14.00">subcategory_results</text>
<polygon fill="none" stroke="black" points="708,-426.5 708,-447.5 944,-447.5 944,-426.5 708,-426.5"/>
<text text-anchor="start" x="795.5" y="-433.3" font-family="Times New Roman,serif" font-size="14.00">list[Result]</text>
<polygon fill="none" stroke="black" points="524,-405.5 524,-426.5 708,-426.5 708,-405.5 524,-405.5"/>
<text text-anchor="start" x="550" y="-412.3" font-family="Times New Roman,serif" font-size="14.00">uncertainty_assessment</text>
<polygon fill="none" stroke="black" points="708,-405.5 708,-426.5 944,-426.5 944,-405.5 708,-405.5"/>
<text text-anchor="start" x="760.5" y="-412.3" font-family="Times New Roman,serif" font-size="14.00">UncertaintyAssessment</text>
</a>
</g>
</g>
<!-- eya_def_tools.data_models.eya_def.EyaDef&#45;&gt;eya_def_tools.data_models.wind_resource.WindResourceAssessment -->
<g id="edge8" class="edge">
<title>eya_def_tools.data_models.eya_def.EyaDef:e&#45;&gt;eya_def_tools.data_models.wind_resource.WindResourceAssessment:w</title>
<path fill="none" stroke="black" d="M410,-681.5C497.8,-681.5 438.6,-526.37 504.58,-503.34"/>
<polygon fill="black" stroke="black" points="513.12,-502.03 523.69,-504.95 518.06,-501.26 523,-500.5 523,-500.5 523,-500.5 518.06,-501.26 522.31,-496.05 513.12,-502.03 513.12,-502.03"/>
<ellipse fill="none" stroke="black" cx="508.67" cy="-502.71" rx="4" ry="4"/>
</g>
</g>
</svg>
