<?xml version="1.0" encoding="UTF-8" standalone="no"?>
<!DOCTYPE svg PUBLIC "-//W3C//DTD SVG 1.1//EN"
 "http://www.w3.org/Graphics/SVG/1.1/DTD/svg11.dtd">
<!-- Generated by graphviz version 7.0.4 (20221203.1631)
 -->
<!-- Title: Entity Relationship Diagram Pages: 1 -->
<svg width="1015pt" height="1064pt"
 viewBox="0.00 0.00 1015.00 1063.50" xmlns="http://www.w3.org/2000/svg" xmlns:xlink="http://www.w3.org/1999/xlink">
<g id="graph0" class="graph" transform="scale(1 1) rotate(0) translate(4 1059.5)">
<title>Entity Relationship Diagram</title>
<polygon fill="white" stroke="none" points="-4,4 -4,-1059.5 1011,-1059.5 1011,4 -4,4"/>
<text text-anchor="middle" x="503.5" y="-6.8" font-family="Times New Roman,serif" font-size="9.00" fill="#a8a8a8">Created by erdantic v0.5.0 &lt;https://github.com/drivendataorg/erdantic&gt;</text>
<!-- eya_def_tools.data_models.eya_def.EyaDef -->
<g id="node1" class="node">
<title>eya_def_tools.data_models.eya_def.EyaDef</title>
<g id="a_node1"><a xlink:title="eya_def_tools.data_models.eya_def.EyaDef&#10;&#10;IEC 61400&#45;15&#45;2 EYA DEF energy yield assessment data model.&#10;&#10;Attributes:&#10; &#160;&#160;&#160;json_uri (Optional[str]): Unique URI of the JSON document. Default is None.&#10; &#160;&#160;&#160;title (str): Title of the energy assessment report.&#10; &#160;&#160;&#160;description (Optional[str]): Description of the data object. Default is None.&#10; &#160;&#160;&#160;comments (Optional[str]): Comments on the data object. Default is None.&#10; &#160;&#160;&#160;project_name (str): Name of the project under assessment.&#10; &#160;&#160;&#160;document_id (Optional[str]): The ID of the report document; not including the version when &#39;document_version&#39; is used. Default is None.&#10; &#160;&#160;&#160;document_version (Optional[str]): Version of the report document, also known as revision. Default is None.&#10; &#160;&#160;&#160;issue_date (date): Report issue date in the ISO 8601 standard format for a calendar date, i.e. YYYY&#45;MM&#45;DD.&#10; &#160;&#160;&#160;contributors (list[ReportContributor]): List of report contributors (e.g. author and verifier)&#10; &#160;&#160;&#160;issuing_organisations (list[Organisation]): The organisation(s) issuing the report (e.g. consultant).&#10; &#160;&#160;&#160;receiving_organisations (Optional[list[Organisation]]): The organisation(s) receiving the report (e.g. client), if relevant. Default is None.&#10; &#160;&#160;&#160;contract_reference (Optional[str]): Reference to contract between the issuing and receiving organisations that governs the energy yield assessment. Default is None.&#10; &#160;&#160;&#160;confidentiality_classification (Optional[str]): Confidentiality classification of the report. Default is None.&#10; &#160;&#160;&#160;coordinate_reference_system (CoordinateReferenceSystem): Coordinate reference system used for all location data.&#10; &#160;&#160;&#160;measurement_stations (list[MeasurementStationMetadata]): List of measurement station metadata JSON document(s) according to the IEA Task 43 WRA Data Model. Default is [].&#10; &#160;&#160;&#160;reference_wind_farms (Optional[list[ReferenceWindFarm]]): List of reference operational wind farms. Default is None.&#10; &#160;&#160;&#160;wind_resource_assessments (Optional[list[WindResourceAssessment]]): List of wind resource assessments, including results, at the measurement station locations. Default is None.&#10; &#160;&#160;&#160;turbine_models (Optional[list[TurbineModel]]): List of wind turbine model specifications. Default is None.&#10; &#160;&#160;&#160;scenarios (Optional[list[Scenario]]): List of energy yield assessment scenarios. Default is None.&#10;">
<polygon fill="none" stroke="black" points="0,-986.5 0,-1007.5 410,-1007.5 410,-986.5 0,-986.5"/>
<text text-anchor="start" x="182" y="-994.3" font-family="Times New Roman,serif" font-weight="bold" font-size="14.00">EyaDef</text>
<polygon fill="none" stroke="black" points="0,-965.5 0,-986.5 171,-986.5 171,-965.5 0,-965.5"/>
<text text-anchor="start" x="62.5" y="-972.3" font-family="Times New Roman,serif" font-size="14.00">json_uri</text>
<polygon fill="none" stroke="black" points="171,-965.5 171,-986.5 410,-986.5 410,-965.5 171,-965.5"/>
<text text-anchor="start" x="254.5" y="-972.3" font-family="Times New Roman,serif" font-size="14.00">Optional[str]</text>
<polygon fill="none" stroke="black" points="0,-944.5 0,-965.5 171,-965.5 171,-944.5 0,-944.5"/>
<text text-anchor="start" x="75.5" y="-951.3" font-family="Times New Roman,serif" font-size="14.00">title</text>
<polygon fill="none" stroke="black" points="171,-944.5 171,-965.5 410,-965.5 410,-944.5 171,-944.5"/>
<text text-anchor="start" x="283" y="-951.3" font-family="Times New Roman,serif" font-size="14.00">str</text>
<polygon fill="none" stroke="black" points="0,-923.5 0,-944.5 171,-944.5 171,-923.5 0,-923.5"/>
<text text-anchor="start" x="54" y="-930.3" font-family="Times New Roman,serif" font-size="14.00">description</text>
<polygon fill="none" stroke="black" points="171,-923.5 171,-944.5 410,-944.5 410,-923.5 171,-923.5"/>
<text text-anchor="start" x="254.5" y="-930.3" font-family="Times New Roman,serif" font-size="14.00">Optional[str]</text>
<polygon fill="none" stroke="black" points="0,-902.5 0,-923.5 171,-923.5 171,-902.5 0,-902.5"/>
<text text-anchor="start" x="56.5" y="-909.3" font-family="Times New Roman,serif" font-size="14.00">comments</text>
<polygon fill="none" stroke="black" points="171,-902.5 171,-923.5 410,-923.5 410,-902.5 171,-902.5"/>
<text text-anchor="start" x="254.5" y="-909.3" font-family="Times New Roman,serif" font-size="14.00">Optional[str]</text>
<polygon fill="none" stroke="black" points="0,-881.5 0,-902.5 171,-902.5 171,-881.5 0,-881.5"/>
<text text-anchor="start" x="47.5" y="-888.3" font-family="Times New Roman,serif" font-size="14.00">project_name</text>
<polygon fill="none" stroke="black" points="171,-881.5 171,-902.5 410,-902.5 410,-881.5 171,-881.5"/>
<text text-anchor="start" x="283" y="-888.3" font-family="Times New Roman,serif" font-size="14.00">str</text>
<polygon fill="none" stroke="black" points="0,-860.5 0,-881.5 171,-881.5 171,-860.5 0,-860.5"/>
<text text-anchor="start" x="48.5" y="-867.3" font-family="Times New Roman,serif" font-size="14.00">document_id</text>
<polygon fill="none" stroke="black" points="171,-860.5 171,-881.5 410,-881.5 410,-860.5 171,-860.5"/>
<text text-anchor="start" x="254.5" y="-867.3" font-family="Times New Roman,serif" font-size="14.00">Optional[str]</text>
<polygon fill="none" stroke="black" points="0,-839.5 0,-860.5 171,-860.5 171,-839.5 0,-839.5"/>
<text text-anchor="start" x="33.5" y="-846.3" font-family="Times New Roman,serif" font-size="14.00">document_version</text>
<polygon fill="none" stroke="black" points="171,-839.5 171,-860.5 410,-860.5 410,-839.5 171,-839.5"/>
<text text-anchor="start" x="254.5" y="-846.3" font-family="Times New Roman,serif" font-size="14.00">Optional[str]</text>
<polygon fill="none" stroke="black" points="0,-818.5 0,-839.5 171,-839.5 171,-818.5 0,-818.5"/>
<text text-anchor="start" x="56" y="-825.3" font-family="Times New Roman,serif" font-size="14.00">issue_date</text>
<polygon fill="none" stroke="black" points="171,-818.5 171,-839.5 410,-839.5 410,-818.5 171,-818.5"/>
<text text-anchor="start" x="278.5" y="-825.3" font-family="Times New Roman,serif" font-size="14.00">date</text>
<polygon fill="none" stroke="black" points="0,-797.5 0,-818.5 171,-818.5 171,-797.5 0,-797.5"/>
<text text-anchor="start" x="51" y="-804.3" font-family="Times New Roman,serif" font-size="14.00">contributors</text>
<polygon fill="none" stroke="black" points="171,-797.5 171,-818.5 410,-818.5 410,-797.5 171,-797.5"/>
<text text-anchor="start" x="225.5" y="-804.3" font-family="Times New Roman,serif" font-size="14.00">list[ReportContributor]</text>
<polygon fill="none" stroke="black" points="0,-776.5 0,-797.5 171,-797.5 171,-776.5 0,-776.5"/>
<text text-anchor="start" x="25.5" y="-783.3" font-family="Times New Roman,serif" font-size="14.00">issuing_organisations</text>
<polygon fill="none" stroke="black" points="171,-776.5 171,-797.5 410,-797.5 410,-776.5 171,-776.5"/>
<text text-anchor="start" x="242.5" y="-783.3" font-family="Times New Roman,serif" font-size="14.00">list[Organisation]</text>
<polygon fill="none" stroke="black" points="0,-755.5 0,-776.5 171,-776.5 171,-755.5 0,-755.5"/>
<text text-anchor="start" x="20" y="-762.3" font-family="Times New Roman,serif" font-size="14.00">receiving_organisations</text>
<polygon fill="none" stroke="black" points="171,-755.5 171,-776.5 410,-776.5 410,-755.5 171,-755.5"/>
<text text-anchor="start" x="214" y="-762.3" font-family="Times New Roman,serif" font-size="14.00">Optional[list[Organisation]]</text>
<polygon fill="none" stroke="black" points="0,-734.5 0,-755.5 171,-755.5 171,-734.5 0,-734.5"/>
<text text-anchor="start" x="33" y="-741.3" font-family="Times New Roman,serif" font-size="14.00">contract_reference</text>
<polygon fill="none" stroke="black" points="171,-734.5 171,-755.5 410,-755.5 410,-734.5 171,-734.5"/>
<text text-anchor="start" x="254.5" y="-741.3" font-family="Times New Roman,serif" font-size="14.00">Optional[str]</text>
<polygon fill="none" stroke="black" points="0,-713.5 0,-734.5 171,-734.5 171,-713.5 0,-713.5"/>
<text text-anchor="start" x="6.5" y="-720.3" font-family="Times New Roman,serif" font-size="14.00">confidentiality_classification</text>
<polygon fill="none" stroke="black" points="171,-713.5 171,-734.5 410,-734.5 410,-713.5 171,-713.5"/>
<text text-anchor="start" x="254.5" y="-720.3" font-family="Times New Roman,serif" font-size="14.00">Optional[str]</text>
<polygon fill="none" stroke="black" points="0,-692.5 0,-713.5 171,-713.5 171,-692.5 0,-692.5"/>
<text text-anchor="start" x="3" y="-699.3" font-family="Times New Roman,serif" font-size="14.00">coordinate_reference_system</text>
<polygon fill="none" stroke="black" points="171,-692.5 171,-713.5 410,-713.5 410,-692.5 171,-692.5"/>
<text text-anchor="start" x="210.5" y="-699.3" font-family="Times New Roman,serif" font-size="14.00">CoordinateReferenceSystem</text>
<polygon fill="none" stroke="black" points="0,-671.5 0,-692.5 171,-692.5 171,-671.5 0,-671.5"/>
<text text-anchor="start" x="23.5" y="-678.3" font-family="Times New Roman,serif" font-size="14.00">measurement_stations</text>
<polygon fill="none" stroke="black" points="171,-671.5 171,-692.5 410,-692.5 410,-671.5 171,-671.5"/>
<text text-anchor="start" x="195.5" y="-678.3" font-family="Times New Roman,serif" font-size="14.00">list[MeasurementStationMetadata]</text>
<polygon fill="none" stroke="black" points="0,-650.5 0,-671.5 171,-671.5 171,-650.5 0,-650.5"/>
<text text-anchor="start" x="23" y="-657.3" font-family="Times New Roman,serif" font-size="14.00">reference_wind_farms</text>
<polygon fill="none" stroke="black" points="171,-650.5 171,-671.5 410,-671.5 410,-650.5 171,-650.5"/>
<text text-anchor="start" x="191" y="-657.3" font-family="Times New Roman,serif" font-size="14.00">Optional[list[ReferenceWindFarm]]</text>
<polygon fill="none" stroke="black" points="0,-629.5 0,-650.5 171,-650.5 171,-629.5 0,-629.5"/>
<text text-anchor="start" x="5.5" y="-636.3" font-family="Times New Roman,serif" font-size="14.00">wind_resource_assessments</text>
<polygon fill="none" stroke="black" points="171,-629.5 171,-650.5 410,-650.5 410,-629.5 171,-629.5"/>
<text text-anchor="start" x="174" y="-636.3" font-family="Times New Roman,serif" font-size="14.00">Optional[list[WindResourceAssessment]]</text>
<polygon fill="none" stroke="black" points="0,-608.5 0,-629.5 171,-629.5 171,-608.5 0,-608.5"/>
<text text-anchor="start" x="42" y="-615.3" font-family="Times New Roman,serif" font-size="14.00">turbine_models</text>
<polygon fill="none" stroke="black" points="171,-608.5 171,-629.5 410,-629.5 410,-608.5 171,-608.5"/>
<text text-anchor="start" x="209.5" y="-615.3" font-family="Times New Roman,serif" font-size="14.00">Optional[list[TurbineModel]]</text>
<polygon fill="none" stroke="black" points="0,-587.5 0,-608.5 171,-608.5 171,-587.5 0,-587.5"/>
<text text-anchor="start" x="59" y="-594.3" font-family="Times New Roman,serif" font-size="14.00">scenarios</text>
<polygon fill="none" stroke="black" points="171,-587.5 171,-608.5 410,-608.5 410,-587.5 171,-587.5"/>
<text text-anchor="start" x="225" y="-594.3" font-family="Times New Roman,serif" font-size="14.00">Optional[list[Scenario]]</text>
</a>
</g>
</g>
<!-- eya_def_tools.data_models.eya_def.Scenario -->
<g id="node2" class="node">
<title>eya_def_tools.data_models.eya_def.Scenario</title>
<g id="a_node2"><a xlink:title="eya_def_tools.data_models.eya_def.Scenario&#10;&#10;Single unique energy yield assessment scenario.&#10;&#10;Attributes:&#10; &#160;&#160;&#160;scenario_id (Optional[str]): Unique identifier of the scenario. Default is None.&#10; &#160;&#160;&#160;label (str): Label of the scenario.&#10; &#160;&#160;&#160;description (Optional[str]): Description of the data object. Default is None.&#10; &#160;&#160;&#160;comments (Optional[str]): Comments on the data object. Default is None.&#10; &#160;&#160;&#160;is_main_scenario (Optional[bool]): Whether or not this is the main scenario in the report. Default is None.&#10; &#160;&#160;&#160;operational_lifetime_length_years (ConstrainedFloatValue): Number of years of project operational lifetime.&#10; &#160;&#160;&#160;wind_farms (list[WindFarmConfiguration]): List of all wind farms included in the scenario.&#10; &#160;&#160;&#160;wind_resource_assessment_reference (Optional[WindResourceAssessmentReference]): Measurement wind resource assessment reference for the scenario. Default is None.&#10; &#160;&#160;&#160;turbine_wind_resource_assessment (Optional[TurbineWindResourceAssessment]): Wind resource assessment at the turbine locations. Default is None.&#10; &#160;&#160;&#160;energy_assessment (EnergyAssessment): Energy assessment details and results, including gross energy, plant performance, net energy and uncertainties.&#10;">
<polygon fill="none" stroke="black" points="518.5,-227.5 518.5,-248.5 1007.5,-248.5 1007.5,-227.5 518.5,-227.5"/>
<text text-anchor="start" x="735.5" y="-235.3" font-family="Times New Roman,serif" font-weight="bold" font-size="14.00">Scenario</text>
<polygon fill="none" stroke="black" points="518.5,-206.5 518.5,-227.5 736.5,-227.5 736.5,-206.5 518.5,-206.5"/>
<text text-anchor="start" x="595" y="-213.3" font-family="Times New Roman,serif" font-size="14.00">scenario_id</text>
<polygon fill="none" stroke="black" points="736.5,-206.5 736.5,-227.5 1007.5,-227.5 1007.5,-206.5 736.5,-206.5"/>
<text text-anchor="start" x="836" y="-213.3" font-family="Times New Roman,serif" font-size="14.00">Optional[str]</text>
<polygon fill="none" stroke="black" points="518.5,-185.5 518.5,-206.5 736.5,-206.5 736.5,-185.5 518.5,-185.5"/>
<text text-anchor="start" x="614.5" y="-192.3" font-family="Times New Roman,serif" font-size="14.00">label</text>
<polygon fill="none" stroke="black" points="736.5,-185.5 736.5,-206.5 1007.5,-206.5 1007.5,-185.5 736.5,-185.5"/>
<text text-anchor="start" x="864.5" y="-192.3" font-family="Times New Roman,serif" font-size="14.00">str</text>
<polygon fill="none" stroke="black" points="518.5,-164.5 518.5,-185.5 736.5,-185.5 736.5,-164.5 518.5,-164.5"/>
<text text-anchor="start" x="596" y="-171.3" font-family="Times New Roman,serif" font-size="14.00">description</text>
<polygon fill="none" stroke="black" points="736.5,-164.5 736.5,-185.5 1007.5,-185.5 1007.5,-164.5 736.5,-164.5"/>
<text text-anchor="start" x="836" y="-171.3" font-family="Times New Roman,serif" font-size="14.00">Optional[str]</text>
<polygon fill="none" stroke="black" points="518.5,-143.5 518.5,-164.5 736.5,-164.5 736.5,-143.5 518.5,-143.5"/>
<text text-anchor="start" x="598.5" y="-150.3" font-family="Times New Roman,serif" font-size="14.00">comments</text>
<polygon fill="none" stroke="black" points="736.5,-143.5 736.5,-164.5 1007.5,-164.5 1007.5,-143.5 736.5,-143.5"/>
<text text-anchor="start" x="836" y="-150.3" font-family="Times New Roman,serif" font-size="14.00">Optional[str]</text>
<polygon fill="none" stroke="black" points="518.5,-122.5 518.5,-143.5 736.5,-143.5 736.5,-122.5 518.5,-122.5"/>
<text text-anchor="start" x="579" y="-129.3" font-family="Times New Roman,serif" font-size="14.00">is_main_scenario</text>
<polygon fill="none" stroke="black" points="736.5,-122.5 736.5,-143.5 1007.5,-143.5 1007.5,-122.5 736.5,-122.5"/>
<text text-anchor="start" x="830.5" y="-129.3" font-family="Times New Roman,serif" font-size="14.00">Optional[bool]</text>
<polygon fill="none" stroke="black" points="518.5,-101.5 518.5,-122.5 736.5,-122.5 736.5,-101.5 518.5,-101.5"/>
<text text-anchor="start" x="534" y="-108.3" font-family="Times New Roman,serif" font-size="14.00">operational_lifetime_length_years</text>
<polygon fill="none" stroke="black" points="736.5,-101.5 736.5,-122.5 1007.5,-122.5 1007.5,-101.5 736.5,-101.5"/>
<text text-anchor="start" x="808" y="-108.3" font-family="Times New Roman,serif" font-size="14.00">ConstrainedFloatValue</text>
<polygon fill="none" stroke="black" points="518.5,-80.5 518.5,-101.5 736.5,-101.5 736.5,-80.5 518.5,-80.5"/>
<text text-anchor="start" x="594" y="-87.3" font-family="Times New Roman,serif" font-size="14.00">wind_farms</text>
<polygon fill="none" stroke="black" points="736.5,-80.5 736.5,-101.5 1007.5,-101.5 1007.5,-80.5 736.5,-80.5"/>
<text text-anchor="start" x="791" y="-87.3" font-family="Times New Roman,serif" font-size="14.00">list[WindFarmConfiguration]</text>
<polygon fill="none" stroke="black" points="518.5,-59.5 518.5,-80.5 736.5,-80.5 736.5,-59.5 518.5,-59.5"/>
<text text-anchor="start" x="521.5" y="-66.3" font-family="Times New Roman,serif" font-size="14.00">wind_resource_assessment_reference</text>
<polygon fill="none" stroke="black" points="736.5,-59.5 736.5,-80.5 1007.5,-80.5 1007.5,-59.5 736.5,-59.5"/>
<text text-anchor="start" x="739.5" y="-66.3" font-family="Times New Roman,serif" font-size="14.00">Optional[WindResourceAssessmentReference]</text>
<polygon fill="none" stroke="black" points="518.5,-38.5 518.5,-59.5 736.5,-59.5 736.5,-38.5 518.5,-38.5"/>
<text text-anchor="start" x="528" y="-45.3" font-family="Times New Roman,serif" font-size="14.00">turbine_wind_resource_assessment</text>
<polygon fill="none" stroke="black" points="736.5,-38.5 736.5,-59.5 1007.5,-59.5 1007.5,-38.5 736.5,-38.5"/>
<text text-anchor="start" x="746" y="-45.3" font-family="Times New Roman,serif" font-size="14.00">Optional[TurbineWindResourceAssessment]</text>
<polygon fill="none" stroke="black" points="518.5,-17.5 518.5,-38.5 736.5,-38.5 736.5,-17.5 518.5,-17.5"/>
<text text-anchor="start" x="573.5" y="-24.3" font-family="Times New Roman,serif" font-size="14.00">energy_assessment</text>
<polygon fill="none" stroke="black" points="736.5,-17.5 736.5,-38.5 1007.5,-38.5 1007.5,-17.5 736.5,-17.5"/>
<text text-anchor="start" x="819" y="-24.3" font-family="Times New Roman,serif" font-size="14.00">EnergyAssessment</text>
</a>
</g>
</g>
<!-- eya_def_tools.data_models.eya_def.EyaDef&#45;&gt;eya_def_tools.data_models.eya_def.Scenario -->
<g id="edge1" class="edge">
<title>eya_def_tools.data_models.eya_def.EyaDef:e&#45;&gt;eya_def_tools.data_models.eya_def.Scenario:w</title>
<path fill="none" stroke="black" d="M410,-597.5C569.79,-597.5 369.2,-267.35 499.42,-240.26"/>
<polygon fill="black" stroke="black" points="508.04,-239.44 518.42,-242.98 513.02,-238.97 518,-238.5 518,-238.5 518,-238.5 513.02,-238.97 517.58,-234.02 508.04,-239.44 508.04,-239.44"/>
<ellipse fill="none" stroke="black" cx="503.56" cy="-239.87" rx="4" ry="4"/>
</g>
<!-- eya_def_tools.data_models.organisation.Organisation -->
<g id="node3" class="node">
<title>eya_def_tools.data_models.organisation.Organisation</title>
<g id="a_node3"><a xlink:title="eya_def_tools.data_models.organisation.Organisation&#10;&#10;Issuing or receiving organisation of an energy yield assessment.&#10;&#10;Attributes:&#10; &#160;&#160;&#160;name (str): Entity name of the organisation.&#10; &#160;&#160;&#160;abbreviation (Optional[str]): Abbreviated name of the organisation. Default is None.&#10; &#160;&#160;&#160;address (Optional[str]): Address of the organisation. Default is None.&#10; &#160;&#160;&#160;contact_name (Optional[str]): Name(s) of contact person(s) in the organisation. Default is None.&#10;">
<polygon fill="none" stroke="black" points="681.5,-871.5 681.5,-892.5 844.5,-892.5 844.5,-871.5 681.5,-871.5"/>
<text text-anchor="start" x="722.5" y="-879.3" font-family="Times New Roman,serif" font-weight="bold" font-size="14.00">Organisation</text>
<polygon fill="none" stroke="black" points="681.5,-850.5 681.5,-871.5 766.5,-871.5 766.5,-850.5 681.5,-850.5"/>
<text text-anchor="start" x="709" y="-857.3" font-family="Times New Roman,serif" font-size="14.00">name</text>
<polygon fill="none" stroke="black" points="766.5,-850.5 766.5,-871.5 844.5,-871.5 844.5,-850.5 766.5,-850.5"/>
<text text-anchor="start" x="798" y="-857.3" font-family="Times New Roman,serif" font-size="14.00">str</text>
<polygon fill="none" stroke="black" points="681.5,-829.5 681.5,-850.5 766.5,-850.5 766.5,-829.5 681.5,-829.5"/>
<text text-anchor="start" x="689.5" y="-836.3" font-family="Times New Roman,serif" font-size="14.00">abbreviation</text>
<polygon fill="none" stroke="black" points="766.5,-829.5 766.5,-850.5 844.5,-850.5 844.5,-829.5 766.5,-829.5"/>
<text text-anchor="start" x="769.5" y="-836.3" font-family="Times New Roman,serif" font-size="14.00">Optional[str]</text>
<polygon fill="none" stroke="black" points="681.5,-808.5 681.5,-829.5 766.5,-829.5 766.5,-808.5 681.5,-808.5"/>
<text text-anchor="start" x="702" y="-815.3" font-family="Times New Roman,serif" font-size="14.00">address</text>
<polygon fill="none" stroke="black" points="766.5,-808.5 766.5,-829.5 844.5,-829.5 844.5,-808.5 766.5,-808.5"/>
<text text-anchor="start" x="769.5" y="-815.3" font-family="Times New Roman,serif" font-size="14.00">Optional[str]</text>
<polygon fill="none" stroke="black" points="681.5,-787.5 681.5,-808.5 766.5,-808.5 766.5,-787.5 681.5,-787.5"/>
<text text-anchor="start" x="684.5" y="-794.3" font-family="Times New Roman,serif" font-size="14.00">contact_name</text>
<polygon fill="none" stroke="black" points="766.5,-787.5 766.5,-808.5 844.5,-808.5 844.5,-787.5 766.5,-787.5"/>
<text text-anchor="start" x="769.5" y="-794.3" font-family="Times New Roman,serif" font-size="14.00">Optional[str]</text>
</a>
</g>
</g>
<!-- eya_def_tools.data_models.eya_def.EyaDef&#45;&gt;eya_def_tools.data_models.organisation.Organisation -->
<g id="edge2" class="edge">
<title>eya_def_tools.data_models.eya_def.EyaDef:e&#45;&gt;eya_def_tools.data_models.organisation.Organisation:w</title>
<path fill="none" stroke="black" d="M410,-786.5C530.97,-786.5 551.04,-872.82 661.56,-881.76"/>
<polygon fill="black" stroke="black" points="670.51,-882.11 680.32,-887 675.5,-882.3 680.5,-882.5 680.5,-882.5 680.5,-882.5 675.5,-882.3 680.68,-878 670.51,-882.11 670.51,-882.11"/>
<ellipse fill="none" stroke="black" cx="666.01" cy="-881.93" rx="4" ry="4"/>
</g>
<!-- eya_def_tools.data_models.eya_def.EyaDef&#45;&gt;eya_def_tools.data_models.organisation.Organisation -->
<g id="edge3" class="edge">
<title>eya_def_tools.data_models.eya_def.EyaDef:e&#45;&gt;eya_def_tools.data_models.organisation.Organisation:w</title>
<path fill="none" stroke="black" d="M410,-765.5C534.46,-765.5 548.36,-871.14 661.81,-881.66"/>
<polygon fill="black" stroke="black" points="670.51,-882.05 680.3,-887 675.51,-882.28 680.5,-882.5 680.5,-882.5 680.5,-882.5 675.51,-882.28 680.7,-878 670.51,-882.05 670.51,-882.05"/>
<ellipse fill="none" stroke="black" cx="666.01" cy="-881.85" rx="4" ry="4"/>
</g>
<!-- eya_def_tools.data_models.reference_wind_farm.ReferenceWindFarm -->
<g id="node4" class="node">
<title>eya_def_tools.data_models.reference_wind_farm.ReferenceWindFarm</title>
<g id="a_node4"><a xlink:title="eya_def_tools.data_models.reference_wind_farm.ReferenceWindFarm&#10;&#10;Reference wind farm metadata.&#10;&#10;Attributes:&#10; &#160;&#160;&#160;reference_wind_farm_id (str): Unique ID for the reference wind farm within the EYA DEF document.&#10; &#160;&#160;&#160;wind_farm_configuration (WindFarmConfiguration): The configuration data for the reference wind farm.&#10; &#160;&#160;&#160;datasets (list[ReferenceWindFarmDataset]): Metadata for the operational dataset.&#10;">
<polygon fill="none" stroke="black" points="594.5,-610.5 594.5,-631.5 931.5,-631.5 931.5,-610.5 594.5,-610.5"/>
<text text-anchor="start" x="698" y="-618.3" font-family="Times New Roman,serif" font-weight="bold" font-size="14.00">ReferenceWindFarm</text>
<polygon fill="none" stroke="black" points="594.5,-589.5 594.5,-610.5 742.5,-610.5 742.5,-589.5 594.5,-589.5"/>
<text text-anchor="start" x="600" y="-596.3" font-family="Times New Roman,serif" font-size="14.00">reference_wind_farm_id</text>
<polygon fill="none" stroke="black" points="742.5,-589.5 742.5,-610.5 931.5,-610.5 931.5,-589.5 742.5,-589.5"/>
<text text-anchor="start" x="829.5" y="-596.3" font-family="Times New Roman,serif" font-size="14.00">str</text>
<polygon fill="none" stroke="black" points="594.5,-568.5 594.5,-589.5 742.5,-589.5 742.5,-568.5 594.5,-568.5"/>
<text text-anchor="start" x="597.5" y="-575.3" font-family="Times New Roman,serif" font-size="14.00">wind_farm_configuration</text>
<polygon fill="none" stroke="black" points="742.5,-568.5 742.5,-589.5 931.5,-589.5 931.5,-568.5 742.5,-568.5"/>
<text text-anchor="start" x="768.5" y="-575.3" font-family="Times New Roman,serif" font-size="14.00">WindFarmConfiguration</text>
<polygon fill="none" stroke="black" points="594.5,-547.5 594.5,-568.5 742.5,-568.5 742.5,-547.5 594.5,-547.5"/>
<text text-anchor="start" x="645.5" y="-554.3" font-family="Times New Roman,serif" font-size="14.00">datasets</text>
<polygon fill="none" stroke="black" points="742.5,-547.5 742.5,-568.5 931.5,-568.5 931.5,-547.5 742.5,-547.5"/>
<text text-anchor="start" x="745.5" y="-554.3" font-family="Times New Roman,serif" font-size="14.00">list[ReferenceWindFarmDataset]</text>
</a>
</g>
</g>
<!-- eya_def_tools.data_models.eya_def.EyaDef&#45;&gt;eya_def_tools.data_models.reference_wind_farm.ReferenceWindFarm -->
<g id="edge4" class="edge">
<title>eya_def_tools.data_models.eya_def.EyaDef:e&#45;&gt;eya_def_tools.data_models.reference_wind_farm.ReferenceWindFarm:w</title>
<path fill="none" stroke="black" d="M410,-660.5C486.7,-660.5 507.01,-627.5 574.68,-622.21"/>
<polygon fill="black" stroke="black" points="583.51,-621.88 593.67,-626 588.5,-621.69 593.5,-621.5 593.5,-621.5 593.5,-621.5 588.5,-621.69 593.33,-617 583.51,-621.88 583.51,-621.88"/>
<ellipse fill="none" stroke="black" cx="579.01" cy="-622.05" rx="4" ry="4"/>
</g>
<!-- eya_def_tools.data_models.report_metadata.ReportContributor -->
<g id="node5" class="node">
<title>eya_def_tools.data_models.report_metadata.ReportContributor</title>
<g id="a_node5"><a xlink:title="eya_def_tools.data_models.report_metadata.ReportContributor&#10;&#10;Contributor to an energy yield assessment.&#10;&#10;Attributes:&#10; &#160;&#160;&#160;name (str): Name of the contributor.&#10; &#160;&#160;&#160;email_address (Optional[EmailStr]): Email address of the contributor. Default is None.&#10; &#160;&#160;&#160;contributor_type (Literal[&#39;author&#39;, &#39;verifier&#39;, &#39;approver&#39;, &#39;other&#39;]): Type of contributor.&#10; &#160;&#160;&#160;contribution_comments (Optional[str]): Comments to clarify contribution. Default is None.&#10; &#160;&#160;&#160;completion_date (Optional[date]): Contribution completion date (format YYYY&#45;MM&#45;DD). Default is None.&#10;">
<polygon fill="none" stroke="black" points="568.5,-1034.5 568.5,-1055.5 956.5,-1055.5 956.5,-1034.5 568.5,-1034.5"/>
<text text-anchor="start" x="704.5" y="-1042.3" font-family="Times New Roman,serif" font-weight="bold" font-size="14.00">ReportContributor</text>
<polygon fill="none" stroke="black" points="568.5,-1013.5 568.5,-1034.5 707.5,-1034.5 707.5,-1013.5 568.5,-1013.5"/>
<text text-anchor="start" x="623" y="-1020.3" font-family="Times New Roman,serif" font-size="14.00">name</text>
<polygon fill="none" stroke="black" points="707.5,-1013.5 707.5,-1034.5 956.5,-1034.5 956.5,-1013.5 707.5,-1013.5"/>
<text text-anchor="start" x="824.5" y="-1020.3" font-family="Times New Roman,serif" font-size="14.00">str</text>
<polygon fill="none" stroke="black" points="568.5,-992.5 568.5,-1013.5 707.5,-1013.5 707.5,-992.5 568.5,-992.5"/>
<text text-anchor="start" x="598" y="-999.3" font-family="Times New Roman,serif" font-size="14.00">email_address</text>
<polygon fill="none" stroke="black" points="707.5,-992.5 707.5,-1013.5 956.5,-1013.5 956.5,-992.5 707.5,-992.5"/>
<text text-anchor="start" x="779.5" y="-999.3" font-family="Times New Roman,serif" font-size="14.00">Optional[EmailStr]</text>
<polygon fill="none" stroke="black" points="568.5,-971.5 568.5,-992.5 707.5,-992.5 707.5,-971.5 568.5,-971.5"/>
<text text-anchor="start" x="591" y="-978.3" font-family="Times New Roman,serif" font-size="14.00">contributor_type</text>
<polygon fill="none" stroke="black" points="707.5,-971.5 707.5,-992.5 956.5,-992.5 956.5,-971.5 707.5,-971.5"/>
<text text-anchor="start" x="710.5" y="-978.3" font-family="Times New Roman,serif" font-size="14.00">Literal[&#39;author&#39;, &#39;verifier&#39;, &#39;approver&#39;, &#39;other&#39;]</text>
<polygon fill="none" stroke="black" points="568.5,-950.5 568.5,-971.5 707.5,-971.5 707.5,-950.5 568.5,-950.5"/>
<text text-anchor="start" x="571.5" y="-957.3" font-family="Times New Roman,serif" font-size="14.00">contribution_comments</text>
<polygon fill="none" stroke="black" points="707.5,-950.5 707.5,-971.5 956.5,-971.5 956.5,-950.5 707.5,-950.5"/>
<text text-anchor="start" x="796" y="-957.3" font-family="Times New Roman,serif" font-size="14.00">Optional[str]</text>
<polygon fill="none" stroke="black" points="568.5,-929.5 568.5,-950.5 707.5,-950.5 707.5,-929.5 568.5,-929.5"/>
<text text-anchor="start" x="591" y="-936.3" font-family="Times New Roman,serif" font-size="14.00">completion_date</text>
<polygon fill="none" stroke="black" points="707.5,-929.5 707.5,-950.5 956.5,-950.5 956.5,-929.5 707.5,-929.5"/>
<text text-anchor="start" x="791.5" y="-936.3" font-family="Times New Roman,serif" font-size="14.00">Optional[date]</text>
</a>
</g>
</g>
<!-- eya_def_tools.data_models.eya_def.EyaDef&#45;&gt;eya_def_tools.data_models.report_metadata.ReportContributor -->
<g id="edge5" class="edge">
<title>eya_def_tools.data_models.eya_def.EyaDef:e&#45;&gt;eya_def_tools.data_models.report_metadata.ReportContributor:w</title>
<path fill="none" stroke="black" d="M410,-808.5C529.56,-808.5 450.8,-1020.29 548.67,-1043.45"/>
<polygon fill="black" stroke="black" points="557.56,-1044.42 567.01,-1049.97 562.53,-1044.96 567.5,-1045.5 567.5,-1045.5 567.5,-1045.5 562.53,-1044.96 567.99,-1041.03 557.56,-1044.42 557.56,-1044.42"/>
<ellipse fill="none" stroke="black" cx="553.09" cy="-1043.93" rx="4" ry="4"/>
</g>
<!-- eya_def_tools.data_models.spatial.CoordinateReferenceSystem -->
<g id="node6" class="node">
<title>eya_def_tools.data_models.spatial.CoordinateReferenceSystem</title>
<g id="a_node6"><a xlink:title="eya_def_tools.data_models.spatial.CoordinateReferenceSystem&#10;&#10;Specification of a coordinate reference system for GIS data.&#10;&#10;Attributes:&#10; &#160;&#160;&#160;system_label (str): Label of the coordinate system.&#10; &#160;&#160;&#160;epsg_srid (Optional[int]): EPSG Spatial Reference System Identifier (SRID). Default is None.&#10; &#160;&#160;&#160;wkt (Optional[str]): Well&#45;known text (WKT) string definition of the coordinate system. Default is None.&#10;">
<polygon fill="none" stroke="black" points="672.5,-730.5 672.5,-751.5 853.5,-751.5 853.5,-730.5 672.5,-730.5"/>
<text text-anchor="start" x="675.5" y="-738.3" font-family="Times New Roman,serif" font-weight="bold" font-size="14.00">CoordinateReferenceSystem</text>
<polygon fill="none" stroke="black" points="672.5,-709.5 672.5,-730.5 763.5,-730.5 763.5,-709.5 672.5,-709.5"/>
<text text-anchor="start" x="681.5" y="-716.3" font-family="Times New Roman,serif" font-size="14.00">system_label</text>
<polygon fill="none" stroke="black" points="763.5,-709.5 763.5,-730.5 853.5,-730.5 853.5,-709.5 763.5,-709.5"/>
<text text-anchor="start" x="801" y="-716.3" font-family="Times New Roman,serif" font-size="14.00">str</text>
<polygon fill="none" stroke="black" points="672.5,-688.5 672.5,-709.5 763.5,-709.5 763.5,-688.5 672.5,-688.5"/>
<text text-anchor="start" x="690.5" y="-695.3" font-family="Times New Roman,serif" font-size="14.00">epsg_srid</text>
<polygon fill="none" stroke="black" points="763.5,-688.5 763.5,-709.5 853.5,-709.5 853.5,-688.5 763.5,-688.5"/>
<text text-anchor="start" x="773" y="-695.3" font-family="Times New Roman,serif" font-size="14.00">Optional[int]</text>
<polygon fill="none" stroke="black" points="672.5,-667.5 672.5,-688.5 763.5,-688.5 763.5,-667.5 672.5,-667.5"/>
<text text-anchor="start" x="707.5" y="-674.3" font-family="Times New Roman,serif" font-size="14.00">wkt</text>
<polygon fill="none" stroke="black" points="763.5,-667.5 763.5,-688.5 853.5,-688.5 853.5,-667.5 763.5,-667.5"/>
<text text-anchor="start" x="772.5" y="-674.3" font-family="Times New Roman,serif" font-size="14.00">Optional[str]</text>
</a>
</g>
</g>
<!-- eya_def_tools.data_models.eya_def.EyaDef&#45;&gt;eya_def_tools.data_models.spatial.CoordinateReferenceSystem -->
<g id="edge6" class="edge">
<title>eya_def_tools.data_models.eya_def.EyaDef:e&#45;&gt;eya_def_tools.data_models.spatial.CoordinateReferenceSystem:w</title>
<path fill="none" stroke="black" d="M410,-702.5C522.34,-702.5 551.49,-738.15 656.52,-741.28"/>
<polyline fill="none" stroke="black" points="671.5,-741.5 666.5,-741.43"/>
<polygon fill="black" stroke="black" points="665.57,-736.41 665.43,-746.41 663.43,-746.38 663.57,-736.38 665.57,-736.41"/>
<polyline fill="none" stroke="black" points="666.5,-741.43 661.5,-741.35"/>
<polygon fill="black" stroke="black" points="660.57,-736.34 660.43,-746.34 658.43,-746.31 658.57,-736.31 660.57,-736.34"/>
<polyline fill="none" stroke="black" points="661.5,-741.35 656.5,-741.28"/>
</g>
<!-- eya_def_tools.data_models.turbine_model.TurbineModel -->
<g id="node7" class="node">
<title>eya_def_tools.data_models.turbine_model.TurbineModel</title>
<g id="a_node7"><a xlink:title="eya_def_tools.data_models.turbine_model.TurbineModel&#10;&#10;Specification of a wind turbine model.&#10;&#10;Attributes:&#10; &#160;&#160;&#160;turbine_model_id (str): Unique identifier of the turbine model.&#10; &#160;&#160;&#160;label (str): Label of the turbine model.&#10; &#160;&#160;&#160;perf_spec_ref (Optional[TurbineModelSpecification]): Reference to a json document with turbine model performance specification (PLACEHOLDER). Default is None.&#10;">
<polygon fill="none" stroke="black" points="602.5,-348.5 602.5,-369.5 923.5,-369.5 923.5,-348.5 602.5,-348.5"/>
<text text-anchor="start" x="719" y="-356.3" font-family="Times New Roman,serif" font-weight="bold" font-size="14.00">TurbineModel</text>
<polygon fill="none" stroke="black" points="602.5,-327.5 602.5,-348.5 707.5,-348.5 707.5,-327.5 602.5,-327.5"/>
<text text-anchor="start" x="605.5" y="-334.3" font-family="Times New Roman,serif" font-size="14.00">turbine_model_id</text>
<polygon fill="none" stroke="black" points="707.5,-327.5 707.5,-348.5 923.5,-348.5 923.5,-327.5 707.5,-327.5"/>
<text text-anchor="start" x="808" y="-334.3" font-family="Times New Roman,serif" font-size="14.00">str</text>
<polygon fill="none" stroke="black" points="602.5,-306.5 602.5,-327.5 707.5,-327.5 707.5,-306.5 602.5,-306.5"/>
<text text-anchor="start" x="642" y="-313.3" font-family="Times New Roman,serif" font-size="14.00">label</text>
<polygon fill="none" stroke="black" points="707.5,-306.5 707.5,-327.5 923.5,-327.5 923.5,-306.5 707.5,-306.5"/>
<text text-anchor="start" x="808" y="-313.3" font-family="Times New Roman,serif" font-size="14.00">str</text>
<polygon fill="none" stroke="black" points="602.5,-285.5 602.5,-306.5 707.5,-306.5 707.5,-285.5 602.5,-285.5"/>
<text text-anchor="start" x="615.5" y="-292.3" font-family="Times New Roman,serif" font-size="14.00">perf_spec_ref</text>
<polygon fill="none" stroke="black" points="707.5,-285.5 707.5,-306.5 923.5,-306.5 923.5,-285.5 707.5,-285.5"/>
<text text-anchor="start" x="710.5" y="-292.3" font-family="Times New Roman,serif" font-size="14.00">Optional[TurbineModelSpecification]</text>
</a>
</g>
</g>
<!-- eya_def_tools.data_models.eya_def.EyaDef&#45;&gt;eya_def_tools.data_models.turbine_model.TurbineModel -->
<g id="edge7" class="edge">
<title>eya_def_tools.data_models.eya_def.EyaDef:e&#45;&gt;eya_def_tools.data_models.turbine_model.TurbineModel:w</title>
<path fill="none" stroke="black" d="M410,-618.5C523.33,-618.5 433.43,-462.95 518,-387.5 541.96,-366.12 556.46,-360.98 582.5,-359.82"/>
<polygon fill="black" stroke="black" points="591.5,-359.67 601.58,-364 596.5,-359.58 601.5,-359.5 601.5,-359.5 601.5,-359.5 596.5,-359.58 601.42,-355 591.5,-359.67 591.5,-359.67"/>
<ellipse fill="none" stroke="black" cx="587" cy="-359.74" rx="4" ry="4"/>
</g>
<!-- eya_def_tools.data_models.wind_resource.WindResourceAssessment -->
<g id="node8" class="node">
<title>eya_def_tools.data_models.wind_resource.WindResourceAssessment</title>
<g id="a_node8"><a xlink:title="eya_def_tools.data_models.wind_resource.WindResourceAssessment&#10;&#10;Wind resource assessment at the measurement locations.&#10;&#10;Attributes:&#10; &#160;&#160;&#160;measurement_station_reference (Optional[MeasurementStationReference]): Assessment results at the measurement location(s). Default is None.&#10; &#160;&#160;&#160;reference_wind_farm_reference (Optional[ReferenceWindFarmReference]): Assessment results at the measurement location(s). Default is None.&#10; &#160;&#160;&#160;results (list[Result]): Assessment results at the measurement location(s).&#10; &#160;&#160;&#160;uncertainty_assessment (UncertaintyAssessment): Measurement wind resource uncertainty assessment.&#10;">
<polygon fill="none" stroke="black" points="552.5,-489.5 552.5,-510.5 972.5,-510.5 972.5,-489.5 552.5,-489.5"/>
<text text-anchor="start" x="681.5" y="-497.3" font-family="Times New Roman,serif" font-weight="bold" font-size="14.00">WindResourceAssessment</text>
<polygon fill="none" stroke="black" points="552.5,-468.5 552.5,-489.5 736.5,-489.5 736.5,-468.5 552.5,-468.5"/>
<text text-anchor="start" x="556.5" y="-475.3" font-family="Times New Roman,serif" font-size="14.00">measurement_station_reference</text>
<polygon fill="none" stroke="black" points="736.5,-468.5 736.5,-489.5 972.5,-489.5 972.5,-468.5 736.5,-468.5"/>
<text text-anchor="start" x="741" y="-475.3" font-family="Times New Roman,serif" font-size="14.00">Optional[MeasurementStationReference]</text>
<polygon fill="none" stroke="black" points="552.5,-447.5 552.5,-468.5 736.5,-468.5 736.5,-447.5 552.5,-447.5"/>
<text text-anchor="start" x="555.5" y="-454.3" font-family="Times New Roman,serif" font-size="14.00">reference_wind_farm_reference</text>
<polygon fill="none" stroke="black" points="736.5,-447.5 736.5,-468.5 972.5,-468.5 972.5,-447.5 736.5,-447.5"/>
<text text-anchor="start" x="739.5" y="-454.3" font-family="Times New Roman,serif" font-size="14.00">Optional[ReferenceWindFarmReference]</text>
<polygon fill="none" stroke="black" points="552.5,-426.5 552.5,-447.5 736.5,-447.5 736.5,-426.5 552.5,-426.5"/>
<text text-anchor="start" x="626" y="-433.3" font-family="Times New Roman,serif" font-size="14.00">results</text>
<polygon fill="none" stroke="black" points="736.5,-426.5 736.5,-447.5 972.5,-447.5 972.5,-426.5 736.5,-426.5"/>
<text text-anchor="start" x="824" y="-433.3" font-family="Times New Roman,serif" font-size="14.00">list[Result]</text>
<polygon fill="none" stroke="black" points="552.5,-405.5 552.5,-426.5 736.5,-426.5 736.5,-405.5 552.5,-405.5"/>
<text text-anchor="start" x="578.5" y="-412.3" font-family="Times New Roman,serif" font-size="14.00">uncertainty_assessment</text>
<polygon fill="none" stroke="black" points="736.5,-405.5 736.5,-426.5 972.5,-426.5 972.5,-405.5 736.5,-405.5"/>
<text text-anchor="start" x="789" y="-412.3" font-family="Times New Roman,serif" font-size="14.00">UncertaintyAssessment</text>
</a>
</g>
</g>
<!-- eya_def_tools.data_models.eya_def.EyaDef&#45;&gt;eya_def_tools.data_models.wind_resource.WindResourceAssessment -->
<g id="edge8" class="edge">
<title>eya_def_tools.data_models.eya_def.EyaDef:e&#45;&gt;eya_def_tools.data_models.wind_resource.WindResourceAssessment:w</title>
<path fill="none" stroke="black" d="M410,-639.5C491.27,-639.5 468.03,-521.37 532.97,-502.91"/>
<polygon fill="black" stroke="black" points="541.58,-501.79 552.08,-504.96 546.54,-501.15 551.5,-500.5 551.5,-500.5 551.5,-500.5 546.54,-501.15 550.92,-496.04 541.58,-501.79 541.58,-501.79"/>
<ellipse fill="none" stroke="black" cx="537.12" cy="-502.37" rx="4" ry="4"/>
</g>
</g>
</svg>
