<?xml version="1.0" encoding="UTF-8" standalone="no"?>
<!DOCTYPE svg PUBLIC "-//W3C//DTD SVG 1.1//EN"
 "http://www.w3.org/Graphics/SVG/1.1/DTD/svg11.dtd">
<!-- Generated by graphviz version 7.0.4 (20221203.1631)
 -->
<!-- Title: Entity Relationship Diagram Pages: 1 -->
<svg width="989pt" height="1084pt"
 viewBox="0.00 0.00 989.00 1084.00" xmlns="http://www.w3.org/2000/svg" xmlns:xlink="http://www.w3.org/1999/xlink">
<g id="graph0" class="graph" transform="scale(1 1) rotate(0) translate(4 1080)">
<title>Entity Relationship Diagram</title>
<polygon fill="white" stroke="none" points="-4,4 -4,-1080 985,-1080 985,4 -4,4"/>
<text text-anchor="middle" x="490.5" y="-6.8" font-family="Times New Roman,serif" font-size="9.00" fill="#a8a8a8">Created by erdantic v0.5.0 &lt;https://github.com/drivendataorg/erdantic&gt;</text>
<!-- eya_def_tools.data_models.energy_yield_assessment.EnergyYieldAssessment -->
<g id="node1" class="node">
<title>eya_def_tools.data_models.energy_yield_assessment.EnergyYieldAssessment</title>
<g id="a_node1"><a xlink:title="eya_def_tools.data_models.energy_yield_assessment.EnergyYieldAssessment&#10;&#10;IEC 61400&#45;15&#45;2 EYA DEF energy yield assessment data model.&#10;&#10;Attributes:&#10; &#160;&#160;&#160;json_uri (Optional[str]): Unique URI of the JSON document. Default is None.&#10; &#160;&#160;&#160;title (str): Title of the energy assessment report.&#10; &#160;&#160;&#160;description (Optional[str]): Description of the data object. Default is None.&#10; &#160;&#160;&#160;comments (Optional[str]): Comments on the data object. Default is None.&#10; &#160;&#160;&#160;project_name (str): Name of the project under assessment.&#10; &#160;&#160;&#160;document_id (Optional[str]): The ID of the report document; not including the version when &#39;document_version&#39; is used. Default is None.&#10; &#160;&#160;&#160;document_version (Optional[str]): Version of the report document, also known as revision. Default is None.&#10; &#160;&#160;&#160;issue_date (date): Report issue date in the ISO 8601 standard format for a calendar date, i.e. YYYY&#45;MM&#45;DD.&#10; &#160;&#160;&#160;contributors (list[ReportContributor]): List of report contributors (e.g. author and verifier)&#10; &#160;&#160;&#160;issuing_organisations (list[Organisation]): The organisation(s) issuing the report (e.g. consultant).&#10; &#160;&#160;&#160;receiving_organisations (Optional[list[Organisation]]): The organisation(s) receiving the report (e.g. client), if relevant. Default is None.&#10; &#160;&#160;&#160;contract_reference (Optional[str]): Reference to contract between the issuing and receiving organisations that governs the energy yield assessment. Default is None.&#10; &#160;&#160;&#160;confidentiality_classification (Optional[str]): Confidentiality classification of the report. Default is None.&#10; &#160;&#160;&#160;coordinate_reference_system (CoordinateReferenceSystem): Coordinate reference system used for all location data.&#10; &#160;&#160;&#160;measurement_stations (list[MeasurementStationMetadata]): List of measurement station metadata JSON document(s) according to the IEA Task 43 WRA Data Model. Default is [].&#10; &#160;&#160;&#160;reference_wind_farms (Optional[list[ReferenceWindFarm]]): List of reference operational wind farms. Default is None.&#10; &#160;&#160;&#160;wind_resource_assessments (Optional[list[WindResourceAssessment]]): List of wind resource assessments, including results, at the measurement station locations. Default is None.&#10; &#160;&#160;&#160;turbine_models (Optional[list[TurbineModel]]): List of wind turbine model specifications. Default is None.&#10; &#160;&#160;&#160;scenarios (Optional[list[Scenario]]): List of energy yield assessment scenarios. Default is None.&#10;">
<polygon fill="none" stroke="black" points="0,-1007 0,-1028 410,-1028 410,-1007 0,-1007"/>
<text text-anchor="start" x="131.5" y="-1014.8" font-family="Times New Roman,serif" font-weight="bold" font-size="14.00">EnergyYieldAssessment</text>
<polygon fill="none" stroke="black" points="0,-986 0,-1007 171,-1007 171,-986 0,-986"/>
<text text-anchor="start" x="62.5" y="-992.8" font-family="Times New Roman,serif" font-size="14.00">json_uri</text>
<polygon fill="none" stroke="black" points="171,-986 171,-1007 410,-1007 410,-986 171,-986"/>
<text text-anchor="start" x="254.5" y="-992.8" font-family="Times New Roman,serif" font-size="14.00">Optional[str]</text>
<polygon fill="none" stroke="black" points="0,-965 0,-986 171,-986 171,-965 0,-965"/>
<text text-anchor="start" x="75.5" y="-971.8" font-family="Times New Roman,serif" font-size="14.00">title</text>
<polygon fill="none" stroke="black" points="171,-965 171,-986 410,-986 410,-965 171,-965"/>
<text text-anchor="start" x="283" y="-971.8" font-family="Times New Roman,serif" font-size="14.00">str</text>
<polygon fill="none" stroke="black" points="0,-944 0,-965 171,-965 171,-944 0,-944"/>
<text text-anchor="start" x="54" y="-950.8" font-family="Times New Roman,serif" font-size="14.00">description</text>
<polygon fill="none" stroke="black" points="171,-944 171,-965 410,-965 410,-944 171,-944"/>
<text text-anchor="start" x="254.5" y="-950.8" font-family="Times New Roman,serif" font-size="14.00">Optional[str]</text>
<polygon fill="none" stroke="black" points="0,-923 0,-944 171,-944 171,-923 0,-923"/>
<text text-anchor="start" x="56.5" y="-929.8" font-family="Times New Roman,serif" font-size="14.00">comments</text>
<polygon fill="none" stroke="black" points="171,-923 171,-944 410,-944 410,-923 171,-923"/>
<text text-anchor="start" x="254.5" y="-929.8" font-family="Times New Roman,serif" font-size="14.00">Optional[str]</text>
<polygon fill="none" stroke="black" points="0,-902 0,-923 171,-923 171,-902 0,-902"/>
<text text-anchor="start" x="47.5" y="-908.8" font-family="Times New Roman,serif" font-size="14.00">project_name</text>
<polygon fill="none" stroke="black" points="171,-902 171,-923 410,-923 410,-902 171,-902"/>
<text text-anchor="start" x="283" y="-908.8" font-family="Times New Roman,serif" font-size="14.00">str</text>
<polygon fill="none" stroke="black" points="0,-881 0,-902 171,-902 171,-881 0,-881"/>
<text text-anchor="start" x="48.5" y="-887.8" font-family="Times New Roman,serif" font-size="14.00">document_id</text>
<polygon fill="none" stroke="black" points="171,-881 171,-902 410,-902 410,-881 171,-881"/>
<text text-anchor="start" x="254.5" y="-887.8" font-family="Times New Roman,serif" font-size="14.00">Optional[str]</text>
<polygon fill="none" stroke="black" points="0,-860 0,-881 171,-881 171,-860 0,-860"/>
<text text-anchor="start" x="33.5" y="-866.8" font-family="Times New Roman,serif" font-size="14.00">document_version</text>
<polygon fill="none" stroke="black" points="171,-860 171,-881 410,-881 410,-860 171,-860"/>
<text text-anchor="start" x="254.5" y="-866.8" font-family="Times New Roman,serif" font-size="14.00">Optional[str]</text>
<polygon fill="none" stroke="black" points="0,-839 0,-860 171,-860 171,-839 0,-839"/>
<text text-anchor="start" x="56" y="-845.8" font-family="Times New Roman,serif" font-size="14.00">issue_date</text>
<polygon fill="none" stroke="black" points="171,-839 171,-860 410,-860 410,-839 171,-839"/>
<text text-anchor="start" x="278.5" y="-845.8" font-family="Times New Roman,serif" font-size="14.00">date</text>
<polygon fill="none" stroke="black" points="0,-818 0,-839 171,-839 171,-818 0,-818"/>
<text text-anchor="start" x="51" y="-824.8" font-family="Times New Roman,serif" font-size="14.00">contributors</text>
<polygon fill="none" stroke="black" points="171,-818 171,-839 410,-839 410,-818 171,-818"/>
<text text-anchor="start" x="225.5" y="-824.8" font-family="Times New Roman,serif" font-size="14.00">list[ReportContributor]</text>
<polygon fill="none" stroke="black" points="0,-797 0,-818 171,-818 171,-797 0,-797"/>
<text text-anchor="start" x="25.5" y="-803.8" font-family="Times New Roman,serif" font-size="14.00">issuing_organisations</text>
<polygon fill="none" stroke="black" points="171,-797 171,-818 410,-818 410,-797 171,-797"/>
<text text-anchor="start" x="242.5" y="-803.8" font-family="Times New Roman,serif" font-size="14.00">list[Organisation]</text>
<polygon fill="none" stroke="black" points="0,-776 0,-797 171,-797 171,-776 0,-776"/>
<text text-anchor="start" x="20" y="-782.8" font-family="Times New Roman,serif" font-size="14.00">receiving_organisations</text>
<polygon fill="none" stroke="black" points="171,-776 171,-797 410,-797 410,-776 171,-776"/>
<text text-anchor="start" x="214" y="-782.8" font-family="Times New Roman,serif" font-size="14.00">Optional[list[Organisation]]</text>
<polygon fill="none" stroke="black" points="0,-755 0,-776 171,-776 171,-755 0,-755"/>
<text text-anchor="start" x="33" y="-761.8" font-family="Times New Roman,serif" font-size="14.00">contract_reference</text>
<polygon fill="none" stroke="black" points="171,-755 171,-776 410,-776 410,-755 171,-755"/>
<text text-anchor="start" x="254.5" y="-761.8" font-family="Times New Roman,serif" font-size="14.00">Optional[str]</text>
<polygon fill="none" stroke="black" points="0,-734 0,-755 171,-755 171,-734 0,-734"/>
<text text-anchor="start" x="6.5" y="-740.8" font-family="Times New Roman,serif" font-size="14.00">confidentiality_classification</text>
<polygon fill="none" stroke="black" points="171,-734 171,-755 410,-755 410,-734 171,-734"/>
<text text-anchor="start" x="254.5" y="-740.8" font-family="Times New Roman,serif" font-size="14.00">Optional[str]</text>
<polygon fill="none" stroke="black" points="0,-713 0,-734 171,-734 171,-713 0,-713"/>
<text text-anchor="start" x="3" y="-719.8" font-family="Times New Roman,serif" font-size="14.00">coordinate_reference_system</text>
<polygon fill="none" stroke="black" points="171,-713 171,-734 410,-734 410,-713 171,-713"/>
<text text-anchor="start" x="210.5" y="-719.8" font-family="Times New Roman,serif" font-size="14.00">CoordinateReferenceSystem</text>
<polygon fill="none" stroke="black" points="0,-692 0,-713 171,-713 171,-692 0,-692"/>
<text text-anchor="start" x="23.5" y="-698.8" font-family="Times New Roman,serif" font-size="14.00">measurement_stations</text>
<polygon fill="none" stroke="black" points="171,-692 171,-713 410,-713 410,-692 171,-692"/>
<text text-anchor="start" x="195.5" y="-698.8" font-family="Times New Roman,serif" font-size="14.00">list[MeasurementStationMetadata]</text>
<polygon fill="none" stroke="black" points="0,-671 0,-692 171,-692 171,-671 0,-671"/>
<text text-anchor="start" x="23" y="-677.8" font-family="Times New Roman,serif" font-size="14.00">reference_wind_farms</text>
<polygon fill="none" stroke="black" points="171,-671 171,-692 410,-692 410,-671 171,-671"/>
<text text-anchor="start" x="191" y="-677.8" font-family="Times New Roman,serif" font-size="14.00">Optional[list[ReferenceWindFarm]]</text>
<polygon fill="none" stroke="black" points="0,-650 0,-671 171,-671 171,-650 0,-650"/>
<text text-anchor="start" x="5.5" y="-656.8" font-family="Times New Roman,serif" font-size="14.00">wind_resource_assessments</text>
<polygon fill="none" stroke="black" points="171,-650 171,-671 410,-671 410,-650 171,-650"/>
<text text-anchor="start" x="174" y="-656.8" font-family="Times New Roman,serif" font-size="14.00">Optional[list[WindResourceAssessment]]</text>
<polygon fill="none" stroke="black" points="0,-629 0,-650 171,-650 171,-629 0,-629"/>
<text text-anchor="start" x="42" y="-635.8" font-family="Times New Roman,serif" font-size="14.00">turbine_models</text>
<polygon fill="none" stroke="black" points="171,-629 171,-650 410,-650 410,-629 171,-629"/>
<text text-anchor="start" x="209.5" y="-635.8" font-family="Times New Roman,serif" font-size="14.00">Optional[list[TurbineModel]]</text>
<polygon fill="none" stroke="black" points="0,-608 0,-629 171,-629 171,-608 0,-608"/>
<text text-anchor="start" x="59" y="-614.8" font-family="Times New Roman,serif" font-size="14.00">scenarios</text>
<polygon fill="none" stroke="black" points="171,-608 171,-629 410,-629 410,-608 171,-608"/>
<text text-anchor="start" x="225" y="-614.8" font-family="Times New Roman,serif" font-size="14.00">Optional[list[Scenario]]</text>
</a>
</g>
</g>
<!-- eya_def_tools.data_models.energy_yield_assessment.Scenario -->
<g id="node2" class="node">
<title>eya_def_tools.data_models.energy_yield_assessment.Scenario</title>
<g id="a_node2"><a xlink:title="eya_def_tools.data_models.energy_yield_assessment.Scenario&#10;&#10;Single unique energy yield assessment scenario.&#10;&#10;Attributes:&#10; &#160;&#160;&#160;scenario_id (Optional[str]): Unique identifier of the scenario. Default is None.&#10; &#160;&#160;&#160;label (str): Label of the scenario.&#10; &#160;&#160;&#160;description (Optional[str]): Description of the data object. Default is None.&#10; &#160;&#160;&#160;comments (Optional[str]): Comments on the data object. Default is None.&#10; &#160;&#160;&#160;is_main_scenario (Optional[bool]): Whether or not this is the main scenario in the report. Default is None.&#10; &#160;&#160;&#160;operational_lifetime_length_years (ConstrainedFloatValue): Number of years of project operational lifetime.&#10; &#160;&#160;&#160;wind_farms (list[WindFarmConfiguration]): List of all wind farms included in the scenario.&#10; &#160;&#160;&#160;wind_resource_assessment_basis (Optional[WindResourceAssessmentBasis]): Measurement wind resource assessment basis for the scenario. Default is None.&#10; &#160;&#160;&#160;turbine_wind_resource_assessment (Optional[TurbineWindResourceAssessment]): Wind resource assessment at the turbine locations. Default is None.&#10; &#160;&#160;&#160;gross_energy_assessment (GrossEnergyAssessment): Gross energy yield assessment.&#10; &#160;&#160;&#160;plant_performance_assessment (PlantPerformanceAssessment): Plant performance assessment including net energy results.&#10;">
<polygon fill="none" stroke="black" points="518.5,-249 518.5,-270 981.5,-270 981.5,-249 518.5,-249"/>
<text text-anchor="start" x="722.5" y="-256.8" font-family="Times New Roman,serif" font-weight="bold" font-size="14.00">Scenario</text>
<polygon fill="none" stroke="black" points="518.5,-228 518.5,-249 723.5,-249 723.5,-228 518.5,-228"/>
<text text-anchor="start" x="588.5" y="-234.8" font-family="Times New Roman,serif" font-size="14.00">scenario_id</text>
<polygon fill="none" stroke="black" points="723.5,-228 723.5,-249 981.5,-249 981.5,-228 723.5,-228"/>
<text text-anchor="start" x="816.5" y="-234.8" font-family="Times New Roman,serif" font-size="14.00">Optional[str]</text>
<polygon fill="none" stroke="black" points="518.5,-207 518.5,-228 723.5,-228 723.5,-207 518.5,-207"/>
<text text-anchor="start" x="608" y="-213.8" font-family="Times New Roman,serif" font-size="14.00">label</text>
<polygon fill="none" stroke="black" points="723.5,-207 723.5,-228 981.5,-228 981.5,-207 723.5,-207"/>
<text text-anchor="start" x="845" y="-213.8" font-family="Times New Roman,serif" font-size="14.00">str</text>
<polygon fill="none" stroke="black" points="518.5,-186 518.5,-207 723.5,-207 723.5,-186 518.5,-186"/>
<text text-anchor="start" x="589.5" y="-192.8" font-family="Times New Roman,serif" font-size="14.00">description</text>
<polygon fill="none" stroke="black" points="723.5,-186 723.5,-207 981.5,-207 981.5,-186 723.5,-186"/>
<text text-anchor="start" x="816.5" y="-192.8" font-family="Times New Roman,serif" font-size="14.00">Optional[str]</text>
<polygon fill="none" stroke="black" points="518.5,-165 518.5,-186 723.5,-186 723.5,-165 518.5,-165"/>
<text text-anchor="start" x="592" y="-171.8" font-family="Times New Roman,serif" font-size="14.00">comments</text>
<polygon fill="none" stroke="black" points="723.5,-165 723.5,-186 981.5,-186 981.5,-165 723.5,-165"/>
<text text-anchor="start" x="816.5" y="-171.8" font-family="Times New Roman,serif" font-size="14.00">Optional[str]</text>
<polygon fill="none" stroke="black" points="518.5,-144 518.5,-165 723.5,-165 723.5,-144 518.5,-144"/>
<text text-anchor="start" x="572.5" y="-150.8" font-family="Times New Roman,serif" font-size="14.00">is_main_scenario</text>
<polygon fill="none" stroke="black" points="723.5,-144 723.5,-165 981.5,-165 981.5,-144 723.5,-144"/>
<text text-anchor="start" x="811" y="-150.8" font-family="Times New Roman,serif" font-size="14.00">Optional[bool]</text>
<polygon fill="none" stroke="black" points="518.5,-123 518.5,-144 723.5,-144 723.5,-123 518.5,-123"/>
<text text-anchor="start" x="527.5" y="-129.8" font-family="Times New Roman,serif" font-size="14.00">operational_lifetime_length_years</text>
<polygon fill="none" stroke="black" points="723.5,-123 723.5,-144 981.5,-144 981.5,-123 723.5,-123"/>
<text text-anchor="start" x="788.5" y="-129.8" font-family="Times New Roman,serif" font-size="14.00">ConstrainedFloatValue</text>
<polygon fill="none" stroke="black" points="518.5,-102 518.5,-123 723.5,-123 723.5,-102 518.5,-102"/>
<text text-anchor="start" x="587.5" y="-108.8" font-family="Times New Roman,serif" font-size="14.00">wind_farms</text>
<polygon fill="none" stroke="black" points="723.5,-102 723.5,-123 981.5,-123 981.5,-102 723.5,-102"/>
<text text-anchor="start" x="771.5" y="-108.8" font-family="Times New Roman,serif" font-size="14.00">list[WindFarmConfiguration]</text>
<polygon fill="none" stroke="black" points="518.5,-81 518.5,-102 723.5,-102 723.5,-81 518.5,-81"/>
<text text-anchor="start" x="526" y="-87.8" font-family="Times New Roman,serif" font-size="14.00">wind_resource_assessment_basis</text>
<polygon fill="none" stroke="black" points="723.5,-81 723.5,-102 981.5,-102 981.5,-81 723.5,-81"/>
<text text-anchor="start" x="733.5" y="-87.8" font-family="Times New Roman,serif" font-size="14.00">Optional[WindResourceAssessmentBasis]</text>
<polygon fill="none" stroke="black" points="518.5,-60 518.5,-81 723.5,-81 723.5,-60 518.5,-60"/>
<text text-anchor="start" x="521.5" y="-66.8" font-family="Times New Roman,serif" font-size="14.00">turbine_wind_resource_assessment</text>
<polygon fill="none" stroke="black" points="723.5,-60 723.5,-81 981.5,-81 981.5,-60 723.5,-60"/>
<text text-anchor="start" x="726.5" y="-66.8" font-family="Times New Roman,serif" font-size="14.00">Optional[TurbineWindResourceAssessment]</text>
<polygon fill="none" stroke="black" points="518.5,-39 518.5,-60 723.5,-60 723.5,-39 518.5,-39"/>
<text text-anchor="start" x="548" y="-45.8" font-family="Times New Roman,serif" font-size="14.00">gross_energy_assessment</text>
<polygon fill="none" stroke="black" points="723.5,-39 723.5,-60 981.5,-60 981.5,-39 723.5,-39"/>
<text text-anchor="start" x="782" y="-45.8" font-family="Times New Roman,serif" font-size="14.00">GrossEnergyAssessment</text>
<polygon fill="none" stroke="black" points="518.5,-18 518.5,-39 723.5,-39 723.5,-18 518.5,-18"/>
<text text-anchor="start" x="533" y="-24.8" font-family="Times New Roman,serif" font-size="14.00">plant_performance_assessment</text>
<polygon fill="none" stroke="black" points="723.5,-18 723.5,-39 981.5,-39 981.5,-18 723.5,-18"/>
<text text-anchor="start" x="769.5" y="-24.8" font-family="Times New Roman,serif" font-size="14.00">PlantPerformanceAssessment</text>
</a>
</g>
</g>
<!-- eya_def_tools.data_models.energy_yield_assessment.EnergyYieldAssessment&#45;&gt;eya_def_tools.data_models.energy_yield_assessment.Scenario -->
<g id="edge1" class="edge">
<title>eya_def_tools.data_models.energy_yield_assessment.EnergyYieldAssessment:e&#45;&gt;eya_def_tools.data_models.energy_yield_assessment.Scenario:w</title>
<path fill="none" stroke="black" d="M410,-618C569.38,-618 369.56,-288.76 499.47,-261.76"/>
<polygon fill="black" stroke="black" points="508.04,-260.94 518.42,-264.48 513.02,-260.47 518,-260 518,-260 518,-260 513.02,-260.47 517.58,-255.52 508.04,-260.94 508.04,-260.94"/>
<ellipse fill="none" stroke="black" cx="503.56" cy="-261.37" rx="4" ry="4"/>
</g>
<!-- eya_def_tools.data_models.organisation.Organisation -->
<g id="node3" class="node">
<title>eya_def_tools.data_models.organisation.Organisation</title>
<g id="a_node3"><a xlink:title="eya_def_tools.data_models.organisation.Organisation&#10;&#10;Issuing or receiving organisation of an energy yield assessment.&#10;&#10;Attributes:&#10; &#160;&#160;&#160;name (str): Entity name of the organisation.&#10; &#160;&#160;&#160;abbreviation (Optional[str]): Abbreviated name of the organisation. Default is None.&#10; &#160;&#160;&#160;address (Optional[str]): Address of the organisation. Default is None.&#10; &#160;&#160;&#160;contact_name (Optional[str]): Name(s) of contact person(s) in the organisation. Default is None.&#10;">
<polygon fill="none" stroke="black" points="668.5,-892 668.5,-913 831.5,-913 831.5,-892 668.5,-892"/>
<text text-anchor="start" x="709.5" y="-899.8" font-family="Times New Roman,serif" font-weight="bold" font-size="14.00">Organisation</text>
<polygon fill="none" stroke="black" points="668.5,-871 668.5,-892 753.5,-892 753.5,-871 668.5,-871"/>
<text text-anchor="start" x="696" y="-877.8" font-family="Times New Roman,serif" font-size="14.00">name</text>
<polygon fill="none" stroke="black" points="753.5,-871 753.5,-892 831.5,-892 831.5,-871 753.5,-871"/>
<text text-anchor="start" x="785" y="-877.8" font-family="Times New Roman,serif" font-size="14.00">str</text>
<polygon fill="none" stroke="black" points="668.5,-850 668.5,-871 753.5,-871 753.5,-850 668.5,-850"/>
<text text-anchor="start" x="676.5" y="-856.8" font-family="Times New Roman,serif" font-size="14.00">abbreviation</text>
<polygon fill="none" stroke="black" points="753.5,-850 753.5,-871 831.5,-871 831.5,-850 753.5,-850"/>
<text text-anchor="start" x="756.5" y="-856.8" font-family="Times New Roman,serif" font-size="14.00">Optional[str]</text>
<polygon fill="none" stroke="black" points="668.5,-829 668.5,-850 753.5,-850 753.5,-829 668.5,-829"/>
<text text-anchor="start" x="689" y="-835.8" font-family="Times New Roman,serif" font-size="14.00">address</text>
<polygon fill="none" stroke="black" points="753.5,-829 753.5,-850 831.5,-850 831.5,-829 753.5,-829"/>
<text text-anchor="start" x="756.5" y="-835.8" font-family="Times New Roman,serif" font-size="14.00">Optional[str]</text>
<polygon fill="none" stroke="black" points="668.5,-808 668.5,-829 753.5,-829 753.5,-808 668.5,-808"/>
<text text-anchor="start" x="671.5" y="-814.8" font-family="Times New Roman,serif" font-size="14.00">contact_name</text>
<polygon fill="none" stroke="black" points="753.5,-808 753.5,-829 831.5,-829 831.5,-808 753.5,-808"/>
<text text-anchor="start" x="756.5" y="-814.8" font-family="Times New Roman,serif" font-size="14.00">Optional[str]</text>
</a>
</g>
</g>
<!-- eya_def_tools.data_models.energy_yield_assessment.EnergyYieldAssessment&#45;&gt;eya_def_tools.data_models.organisation.Organisation -->
<g id="edge2" class="edge">
<title>eya_def_tools.data_models.energy_yield_assessment.EnergyYieldAssessment:e&#45;&gt;eya_def_tools.data_models.organisation.Organisation:w</title>
<path fill="none" stroke="black" d="M410,-807C525.58,-807 543.63,-892.96 648.73,-902.2"/>
<polygon fill="black" stroke="black" points="657.51,-902.57 667.31,-907.5 662.5,-902.79 667.5,-903 667.5,-903 667.5,-903 662.5,-902.79 667.69,-898.5 657.51,-902.57 657.51,-902.57"/>
<ellipse fill="none" stroke="black" cx="653.01" cy="-902.38" rx="4" ry="4"/>
</g>
<!-- eya_def_tools.data_models.energy_yield_assessment.EnergyYieldAssessment&#45;&gt;eya_def_tools.data_models.organisation.Organisation -->
<g id="edge3" class="edge">
<title>eya_def_tools.data_models.energy_yield_assessment.EnergyYieldAssessment:e&#45;&gt;eya_def_tools.data_models.organisation.Organisation:w</title>
<path fill="none" stroke="black" d="M410,-786C529.08,-786 540.82,-890.99 648.58,-902.06"/>
<polygon fill="black" stroke="black" points="657.51,-902.5 667.28,-907.49 662.51,-902.75 667.5,-903 667.5,-903 667.5,-903 662.51,-902.75 667.72,-898.51 657.51,-902.5 657.51,-902.5"/>
<ellipse fill="none" stroke="black" cx="653.02" cy="-902.28" rx="4" ry="4"/>
</g>
<!-- eya_def_tools.data_models.reference_wind_farm.ReferenceWindFarm -->
<g id="node4" class="node">
<title>eya_def_tools.data_models.reference_wind_farm.ReferenceWindFarm</title>
<g id="a_node4"><a xlink:title="eya_def_tools.data_models.reference_wind_farm.ReferenceWindFarm&#10;&#10;Reference wind farm metadata.&#10;&#10;Attributes:&#10; &#160;&#160;&#160;reference_wind_farm_id (str): Unique ID for the reference wind farm within the EYA DEF document.&#10; &#160;&#160;&#160;description (Optional[str]): Description of the data object. Default is None.&#10; &#160;&#160;&#160;comments (Optional[str]): Comments on the data object. Default is None.&#10; &#160;&#160;&#160;wind_farm_configuration (WindFarmConfiguration): The configuration data for the reference wind farm.&#10; &#160;&#160;&#160;datasets (list[ReferenceWindFarmDataset]): Metadata for the operational dataset.&#10;">
<polygon fill="none" stroke="black" points="581.5,-631 581.5,-652 918.5,-652 918.5,-631 581.5,-631"/>
<text text-anchor="start" x="685" y="-638.8" font-family="Times New Roman,serif" font-weight="bold" font-size="14.00">ReferenceWindFarm</text>
<polygon fill="none" stroke="black" points="581.5,-610 581.5,-631 729.5,-631 729.5,-610 581.5,-610"/>
<text text-anchor="start" x="587" y="-616.8" font-family="Times New Roman,serif" font-size="14.00">reference_wind_farm_id</text>
<polygon fill="none" stroke="black" points="729.5,-610 729.5,-631 918.5,-631 918.5,-610 729.5,-610"/>
<text text-anchor="start" x="816.5" y="-616.8" font-family="Times New Roman,serif" font-size="14.00">str</text>
<polygon fill="none" stroke="black" points="581.5,-589 581.5,-610 729.5,-610 729.5,-589 581.5,-589"/>
<text text-anchor="start" x="624" y="-595.8" font-family="Times New Roman,serif" font-size="14.00">description</text>
<polygon fill="none" stroke="black" points="729.5,-589 729.5,-610 918.5,-610 918.5,-589 729.5,-589"/>
<text text-anchor="start" x="788" y="-595.8" font-family="Times New Roman,serif" font-size="14.00">Optional[str]</text>
<polygon fill="none" stroke="black" points="581.5,-568 581.5,-589 729.5,-589 729.5,-568 581.5,-568"/>
<text text-anchor="start" x="626.5" y="-574.8" font-family="Times New Roman,serif" font-size="14.00">comments</text>
<polygon fill="none" stroke="black" points="729.5,-568 729.5,-589 918.5,-589 918.5,-568 729.5,-568"/>
<text text-anchor="start" x="788" y="-574.8" font-family="Times New Roman,serif" font-size="14.00">Optional[str]</text>
<polygon fill="none" stroke="black" points="581.5,-547 581.5,-568 729.5,-568 729.5,-547 581.5,-547"/>
<text text-anchor="start" x="584.5" y="-553.8" font-family="Times New Roman,serif" font-size="14.00">wind_farm_configuration</text>
<polygon fill="none" stroke="black" points="729.5,-547 729.5,-568 918.5,-568 918.5,-547 729.5,-547"/>
<text text-anchor="start" x="755.5" y="-553.8" font-family="Times New Roman,serif" font-size="14.00">WindFarmConfiguration</text>
<polygon fill="none" stroke="black" points="581.5,-526 581.5,-547 729.5,-547 729.5,-526 581.5,-526"/>
<text text-anchor="start" x="632.5" y="-532.8" font-family="Times New Roman,serif" font-size="14.00">datasets</text>
<polygon fill="none" stroke="black" points="729.5,-526 729.5,-547 918.5,-547 918.5,-526 729.5,-526"/>
<text text-anchor="start" x="732.5" y="-532.8" font-family="Times New Roman,serif" font-size="14.00">list[ReferenceWindFarmDataset]</text>
</a>
</g>
</g>
<!-- eya_def_tools.data_models.energy_yield_assessment.EnergyYieldAssessment&#45;&gt;eya_def_tools.data_models.reference_wind_farm.ReferenceWindFarm -->
<g id="edge4" class="edge">
<title>eya_def_tools.data_models.energy_yield_assessment.EnergyYieldAssessment:e&#45;&gt;eya_def_tools.data_models.reference_wind_farm.ReferenceWindFarm:w</title>
<path fill="none" stroke="black" d="M410,-681C481.05,-681 499.72,-648.42 561.77,-642.81"/>
<polygon fill="black" stroke="black" points="570.51,-642.43 580.7,-646.5 575.5,-642.22 580.5,-642 580.5,-642 580.5,-642 575.5,-642.22 580.3,-637.5 570.51,-642.43 570.51,-642.43"/>
<ellipse fill="none" stroke="black" cx="566.01" cy="-642.63" rx="4" ry="4"/>
</g>
<!-- eya_def_tools.data_models.report_metadata.ReportContributor -->
<g id="node5" class="node">
<title>eya_def_tools.data_models.report_metadata.ReportContributor</title>
<g id="a_node5"><a xlink:title="eya_def_tools.data_models.report_metadata.ReportContributor&#10;&#10;Contributor to an energy yield assessment.&#10;&#10;Attributes:&#10; &#160;&#160;&#160;name (str): Name of the contributor.&#10; &#160;&#160;&#160;email_address (Optional[EmailStr]): Email address of the contributor. Default is None.&#10; &#160;&#160;&#160;contributor_type (Literal[&#39;author&#39;, &#39;verifier&#39;, &#39;approver&#39;, &#39;other&#39;]): Type of contributor.&#10; &#160;&#160;&#160;contribution_comments (Optional[str]): Comments to clarify contribution. Default is None.&#10; &#160;&#160;&#160;completion_date (Optional[date]): Contribution completion date (format YYYY&#45;MM&#45;DD). Default is None.&#10;">
<polygon fill="none" stroke="black" points="555.5,-1055 555.5,-1076 943.5,-1076 943.5,-1055 555.5,-1055"/>
<text text-anchor="start" x="691.5" y="-1062.8" font-family="Times New Roman,serif" font-weight="bold" font-size="14.00">ReportContributor</text>
<polygon fill="none" stroke="black" points="555.5,-1034 555.5,-1055 694.5,-1055 694.5,-1034 555.5,-1034"/>
<text text-anchor="start" x="610" y="-1040.8" font-family="Times New Roman,serif" font-size="14.00">name</text>
<polygon fill="none" stroke="black" points="694.5,-1034 694.5,-1055 943.5,-1055 943.5,-1034 694.5,-1034"/>
<text text-anchor="start" x="811.5" y="-1040.8" font-family="Times New Roman,serif" font-size="14.00">str</text>
<polygon fill="none" stroke="black" points="555.5,-1013 555.5,-1034 694.5,-1034 694.5,-1013 555.5,-1013"/>
<text text-anchor="start" x="585" y="-1019.8" font-family="Times New Roman,serif" font-size="14.00">email_address</text>
<polygon fill="none" stroke="black" points="694.5,-1013 694.5,-1034 943.5,-1034 943.5,-1013 694.5,-1013"/>
<text text-anchor="start" x="766.5" y="-1019.8" font-family="Times New Roman,serif" font-size="14.00">Optional[EmailStr]</text>
<polygon fill="none" stroke="black" points="555.5,-992 555.5,-1013 694.5,-1013 694.5,-992 555.5,-992"/>
<text text-anchor="start" x="578" y="-998.8" font-family="Times New Roman,serif" font-size="14.00">contributor_type</text>
<polygon fill="none" stroke="black" points="694.5,-992 694.5,-1013 943.5,-1013 943.5,-992 694.5,-992"/>
<text text-anchor="start" x="697.5" y="-998.8" font-family="Times New Roman,serif" font-size="14.00">Literal[&#39;author&#39;, &#39;verifier&#39;, &#39;approver&#39;, &#39;other&#39;]</text>
<polygon fill="none" stroke="black" points="555.5,-971 555.5,-992 694.5,-992 694.5,-971 555.5,-971"/>
<text text-anchor="start" x="558.5" y="-977.8" font-family="Times New Roman,serif" font-size="14.00">contribution_comments</text>
<polygon fill="none" stroke="black" points="694.5,-971 694.5,-992 943.5,-992 943.5,-971 694.5,-971"/>
<text text-anchor="start" x="783" y="-977.8" font-family="Times New Roman,serif" font-size="14.00">Optional[str]</text>
<polygon fill="none" stroke="black" points="555.5,-950 555.5,-971 694.5,-971 694.5,-950 555.5,-950"/>
<text text-anchor="start" x="578" y="-956.8" font-family="Times New Roman,serif" font-size="14.00">completion_date</text>
<polygon fill="none" stroke="black" points="694.5,-950 694.5,-971 943.5,-971 943.5,-950 694.5,-950"/>
<text text-anchor="start" x="778.5" y="-956.8" font-family="Times New Roman,serif" font-size="14.00">Optional[date]</text>
</a>
</g>
</g>
<!-- eya_def_tools.data_models.energy_yield_assessment.EnergyYieldAssessment&#45;&gt;eya_def_tools.data_models.report_metadata.ReportContributor -->
<g id="edge5" class="edge">
<title>eya_def_tools.data_models.energy_yield_assessment.EnergyYieldAssessment:e&#45;&gt;eya_def_tools.data_models.report_metadata.ReportContributor:w</title>
<path fill="none" stroke="black" d="M410,-829C526.5,-829 441.81,-1040.35 535.92,-1063.88"/>
<polygon fill="black" stroke="black" points="544.56,-1064.87 553.99,-1070.47 549.53,-1065.43 554.5,-1066 554.5,-1066 554.5,-1066 549.53,-1065.43 555.01,-1061.53 544.56,-1064.87 544.56,-1064.87"/>
<ellipse fill="none" stroke="black" cx="540.09" cy="-1064.36" rx="4" ry="4"/>
</g>
<!-- eya_def_tools.data_models.spatial.CoordinateReferenceSystem -->
<g id="node6" class="node">
<title>eya_def_tools.data_models.spatial.CoordinateReferenceSystem</title>
<g id="a_node6"><a xlink:title="eya_def_tools.data_models.spatial.CoordinateReferenceSystem&#10;&#10;Specification of a coordinate reference system for GIS data.&#10;&#10;Attributes:&#10; &#160;&#160;&#160;system_label (str): Label of the coordinate system.&#10; &#160;&#160;&#160;epsg_srid (Optional[int]): EPSG Spatial Reference System Identifier (SRID). Default is None.&#10; &#160;&#160;&#160;wkt (Optional[str]): Well&#45;known text (WKT) string definition of the coordinate system. Default is None.&#10;">
<polygon fill="none" stroke="black" points="659.5,-751 659.5,-772 840.5,-772 840.5,-751 659.5,-751"/>
<text text-anchor="start" x="662.5" y="-758.8" font-family="Times New Roman,serif" font-weight="bold" font-size="14.00">CoordinateReferenceSystem</text>
<polygon fill="none" stroke="black" points="659.5,-730 659.5,-751 750.5,-751 750.5,-730 659.5,-730"/>
<text text-anchor="start" x="668.5" y="-736.8" font-family="Times New Roman,serif" font-size="14.00">system_label</text>
<polygon fill="none" stroke="black" points="750.5,-730 750.5,-751 840.5,-751 840.5,-730 750.5,-730"/>
<text text-anchor="start" x="788" y="-736.8" font-family="Times New Roman,serif" font-size="14.00">str</text>
<polygon fill="none" stroke="black" points="659.5,-709 659.5,-730 750.5,-730 750.5,-709 659.5,-709"/>
<text text-anchor="start" x="677.5" y="-715.8" font-family="Times New Roman,serif" font-size="14.00">epsg_srid</text>
<polygon fill="none" stroke="black" points="750.5,-709 750.5,-730 840.5,-730 840.5,-709 750.5,-709"/>
<text text-anchor="start" x="760" y="-715.8" font-family="Times New Roman,serif" font-size="14.00">Optional[int]</text>
<polygon fill="none" stroke="black" points="659.5,-688 659.5,-709 750.5,-709 750.5,-688 659.5,-688"/>
<text text-anchor="start" x="694.5" y="-694.8" font-family="Times New Roman,serif" font-size="14.00">wkt</text>
<polygon fill="none" stroke="black" points="750.5,-688 750.5,-709 840.5,-709 840.5,-688 750.5,-688"/>
<text text-anchor="start" x="759.5" y="-694.8" font-family="Times New Roman,serif" font-size="14.00">Optional[str]</text>
</a>
</g>
</g>
<!-- eya_def_tools.data_models.energy_yield_assessment.EnergyYieldAssessment&#45;&gt;eya_def_tools.data_models.spatial.CoordinateReferenceSystem -->
<g id="edge6" class="edge">
<title>eya_def_tools.data_models.energy_yield_assessment.EnergyYieldAssessment:e&#45;&gt;eya_def_tools.data_models.spatial.CoordinateReferenceSystem:w</title>
<path fill="none" stroke="black" d="M410,-723C516.67,-723 544.23,-758.5 643.64,-761.76"/>
<polyline fill="none" stroke="black" points="658.5,-762 653.5,-761.92"/>
<polygon fill="black" stroke="black" points="652.58,-756.9 652.42,-766.9 650.42,-766.87 650.58,-756.87 652.58,-756.9"/>
<polyline fill="none" stroke="black" points="653.5,-761.92 648.5,-761.84"/>
<polygon fill="black" stroke="black" points="647.58,-756.82 647.42,-766.82 645.42,-766.79 645.58,-756.79 647.58,-756.82"/>
<polyline fill="none" stroke="black" points="648.5,-761.84 643.5,-761.76"/>
</g>
<!-- eya_def_tools.data_models.turbine_model.TurbineModel -->
<g id="node7" class="node">
<title>eya_def_tools.data_models.turbine_model.TurbineModel</title>
<g id="a_node7"><a xlink:title="eya_def_tools.data_models.turbine_model.TurbineModel&#10;&#10;Specification of a wind turbine model.&#10;&#10;Attributes:&#10; &#160;&#160;&#160;turbine_model_id (str): Unique identifier of the turbine model.&#10; &#160;&#160;&#160;label (str): Label of the turbine model.&#10; &#160;&#160;&#160;perf_spec_ref (Optional[TurbineModelSpecification]): Reference to a json document with turbine model performance specification (PLACEHOLDER). Default is None.&#10;">
<polygon fill="none" stroke="black" points="589.5,-369 589.5,-390 910.5,-390 910.5,-369 589.5,-369"/>
<text text-anchor="start" x="706" y="-376.8" font-family="Times New Roman,serif" font-weight="bold" font-size="14.00">TurbineModel</text>
<polygon fill="none" stroke="black" points="589.5,-348 589.5,-369 694.5,-369 694.5,-348 589.5,-348"/>
<text text-anchor="start" x="592.5" y="-354.8" font-family="Times New Roman,serif" font-size="14.00">turbine_model_id</text>
<polygon fill="none" stroke="black" points="694.5,-348 694.5,-369 910.5,-369 910.5,-348 694.5,-348"/>
<text text-anchor="start" x="795" y="-354.8" font-family="Times New Roman,serif" font-size="14.00">str</text>
<polygon fill="none" stroke="black" points="589.5,-327 589.5,-348 694.5,-348 694.5,-327 589.5,-327"/>
<text text-anchor="start" x="629" y="-333.8" font-family="Times New Roman,serif" font-size="14.00">label</text>
<polygon fill="none" stroke="black" points="694.5,-327 694.5,-348 910.5,-348 910.5,-327 694.5,-327"/>
<text text-anchor="start" x="795" y="-333.8" font-family="Times New Roman,serif" font-size="14.00">str</text>
<polygon fill="none" stroke="black" points="589.5,-306 589.5,-327 694.5,-327 694.5,-306 589.5,-306"/>
<text text-anchor="start" x="602.5" y="-312.8" font-family="Times New Roman,serif" font-size="14.00">perf_spec_ref</text>
<polygon fill="none" stroke="black" points="694.5,-306 694.5,-327 910.5,-327 910.5,-306 694.5,-306"/>
<text text-anchor="start" x="697.5" y="-312.8" font-family="Times New Roman,serif" font-size="14.00">Optional[TurbineModelSpecification]</text>
</a>
</g>
</g>
<!-- eya_def_tools.data_models.energy_yield_assessment.EnergyYieldAssessment&#45;&gt;eya_def_tools.data_models.turbine_model.TurbineModel -->
<g id="edge7" class="edge">
<title>eya_def_tools.data_models.energy_yield_assessment.EnergyYieldAssessment:e&#45;&gt;eya_def_tools.data_models.turbine_model.TurbineModel:w</title>
<path fill="none" stroke="black" d="M410,-639C523.33,-639 435.52,-485.73 518,-408 537.36,-389.75 549.07,-382.87 569.71,-380.78"/>
<polygon fill="black" stroke="black" points="578.51,-380.41 588.69,-384.5 583.5,-380.21 588.5,-380 588.5,-380 588.5,-380 583.5,-380.21 588.31,-375.5 578.51,-380.41 578.51,-380.41"/>
<ellipse fill="none" stroke="black" cx="574.01" cy="-380.6" rx="4" ry="4"/>
</g>
<!-- eya_def_tools.data_models.wind_resource_assessment.WindResourceAssessment -->
<g id="node8" class="node">
<title>eya_def_tools.data_models.wind_resource_assessment.WindResourceAssessment</title>
<g id="a_node8"><a xlink:title="eya_def_tools.data_models.wind_resource_assessment.WindResourceAssessment&#10;&#10;Wind resource assessment at the measurement locations.&#10;&#10;Attributes:&#10; &#160;&#160;&#160;results (list[Result]): Assessment results at the measurement location(s).&#10; &#160;&#160;&#160;uncertainty_assessment (UncertaintyAssessment): Measurement wind resource uncertainty assessment.&#10;">
<polygon fill="none" stroke="black" points="612.5,-468 612.5,-489 887.5,-489 887.5,-468 612.5,-468"/>
<text text-anchor="start" x="669" y="-475.8" font-family="Times New Roman,serif" font-weight="bold" font-size="14.00">WindResourceAssessment</text>
<polygon fill="none" stroke="black" points="612.5,-447 612.5,-468 750.5,-468 750.5,-447 612.5,-447"/>
<text text-anchor="start" x="663" y="-453.8" font-family="Times New Roman,serif" font-size="14.00">results</text>
<polygon fill="none" stroke="black" points="750.5,-447 750.5,-468 887.5,-468 887.5,-447 750.5,-447"/>
<text text-anchor="start" x="788.5" y="-453.8" font-family="Times New Roman,serif" font-size="14.00">list[Result]</text>
<polygon fill="none" stroke="black" points="612.5,-426 612.5,-447 750.5,-447 750.5,-426 612.5,-426"/>
<text text-anchor="start" x="615.5" y="-432.8" font-family="Times New Roman,serif" font-size="14.00">uncertainty_assessment</text>
<polygon fill="none" stroke="black" points="750.5,-426 750.5,-447 887.5,-447 887.5,-426 750.5,-426"/>
<text text-anchor="start" x="753.5" y="-432.8" font-family="Times New Roman,serif" font-size="14.00">UncertaintyAssessment</text>
</a>
</g>
</g>
<!-- eya_def_tools.data_models.energy_yield_assessment.EnergyYieldAssessment&#45;&gt;eya_def_tools.data_models.wind_resource_assessment.WindResourceAssessment -->
<g id="edge8" class="edge">
<title>eya_def_tools.data_models.energy_yield_assessment.EnergyYieldAssessment:e&#45;&gt;eya_def_tools.data_models.wind_resource_assessment.WindResourceAssessment:w</title>
<path fill="none" stroke="black" d="M410,-660C492.87,-660 450.89,-556.62 518,-508 547.59,-486.56 562.74,-480.68 592.61,-479.34"/>
<polygon fill="black" stroke="black" points="601.5,-479.18 611.58,-483.5 606.5,-479.09 611.5,-479 611.5,-479 611.5,-479 606.5,-479.09 611.42,-474.5 601.5,-479.18 601.5,-479.18"/>
<ellipse fill="none" stroke="black" cx="597" cy="-479.26" rx="4" ry="4"/>
</g>
</g>
</svg>
