<?xml version="1.0" encoding="UTF-8" standalone="no"?>
<!DOCTYPE svg PUBLIC "-//W3C//DTD SVG 1.1//EN"
 "http://www.w3.org/Graphics/SVG/1.1/DTD/svg11.dtd">
<!-- Generated by graphviz version 7.0.4 (20221203.1631)
 -->
<!-- Title: Entity Relationship Diagram Pages: 1 -->
<svg width="2575pt" height="573pt"
 viewBox="0.00 0.00 2575.00 572.63" xmlns="http://www.w3.org/2000/svg" xmlns:xlink="http://www.w3.org/1999/xlink">
<g id="graph0" class="graph" transform="scale(1 1) rotate(0) translate(4 568.63)">
<title>Entity Relationship Diagram</title>
<polygon fill="white" stroke="none" points="-4,4 -4,-568.63 2571,-568.63 2571,4 -4,4"/>
<text text-anchor="middle" x="1283.5" y="-6.8" font-family="Times New Roman,serif" font-size="9.00" fill="#a8a8a8">Created by erdantic v0.5.0 &lt;https://github.com/drivendataorg/erdantic&gt;</text>
<!-- eya_def_tools.data_models.assessment_process_description.AssessmentProcessDescription -->
<g id="node1" class="node">
<title>eya_def_tools.data_models.assessment_process_description.AssessmentProcessDescription</title>
<g id="a_node1"><a xlink:title="eya_def_tools.data_models.assessment_process_description.AssessmentProcessDescription&#10;&#10;Description of a process used in an energy yield assessment.&#10;&#10;Attributes:&#10; &#160;&#160;&#160;name (str): Name of the process or model use in the process.&#10; &#160;&#160;&#160;description (Optional[str]): Description of the data object. Default is None.&#10; &#160;&#160;&#160;comments (Optional[str]): Comments on the data object. Default is None.&#10;">
<polygon fill="none" stroke="black" points="1688,-448.5 1688,-469.5 1884,-469.5 1884,-448.5 1688,-448.5"/>
<text text-anchor="start" x="1691" y="-456.3" font-family="Times New Roman,serif" font-weight="bold" font-size="14.00">AssessmentProcessDescription</text>
<polygon fill="none" stroke="black" points="1688,-427.5 1688,-448.5 1781,-448.5 1781,-427.5 1688,-427.5"/>
<text text-anchor="start" x="1719.5" y="-434.3" font-family="Times New Roman,serif" font-size="14.00">name</text>
<polygon fill="none" stroke="black" points="1781,-427.5 1781,-448.5 1884,-448.5 1884,-427.5 1781,-427.5"/>
<text text-anchor="start" x="1825" y="-434.3" font-family="Times New Roman,serif" font-size="14.00">str</text>
<polygon fill="none" stroke="black" points="1688,-406.5 1688,-427.5 1781,-427.5 1781,-406.5 1688,-406.5"/>
<text text-anchor="start" x="1703" y="-413.3" font-family="Times New Roman,serif" font-size="14.00">description</text>
<polygon fill="none" stroke="black" points="1781,-406.5 1781,-427.5 1884,-427.5 1884,-406.5 1781,-406.5"/>
<text text-anchor="start" x="1796.5" y="-413.3" font-family="Times New Roman,serif" font-size="14.00">Optional[str]</text>
<polygon fill="none" stroke="black" points="1688,-385.5 1688,-406.5 1781,-406.5 1781,-385.5 1688,-385.5"/>
<text text-anchor="start" x="1705.5" y="-392.3" font-family="Times New Roman,serif" font-size="14.00">comments</text>
<polygon fill="none" stroke="black" points="1781,-385.5 1781,-406.5 1884,-406.5 1884,-385.5 1781,-385.5"/>
<text text-anchor="start" x="1796.5" y="-392.3" font-family="Times New Roman,serif" font-size="14.00">Optional[str]</text>
</a>
</g>
</g>
<!-- eya_def_tools.data_models.assessment_results.Result -->
<g id="node2" class="node">
<title>eya_def_tools.data_models.assessment_results.Result</title>
<g id="a_node2"><a xlink:title="eya_def_tools.data_models.assessment_results.Result&#10;&#10;Set of results for an element of an energy assessment.&#10;&#10;Attributes:&#10; &#160;&#160;&#160;label (Optional[str]): Label of the results.&#10; &#160;&#160;&#160;description (Optional[str]): Description of the data object. Default is None.&#10; &#160;&#160;&#160;comments (Optional[str]): Comments on the data object. Default is None.&#10; &#160;&#160;&#160;assessment_period (AssessmentPeriod(StrEnum)): Period of or in time that has been assessed and for which the results are applicable. Default is &#39;lifetime&#39;.&#10; &#160;&#160;&#160;dimensions (Optional[tuple[ResultsDimension(StrEnum), ...]]): Dimensions along which the results are binned (all result values in the same results object must have the same dimensions). Default is None.&#10; &#160;&#160;&#160;statistics (list[ResultStatistic]): List of result statistic objects that each include result values for a specific statistic type.&#10;">
<polygon fill="none" stroke="black" points="1591,-228.5 1591,-249.5 1981,-249.5 1981,-228.5 1591,-228.5"/>
<text text-anchor="start" x="1766" y="-236.3" font-family="Times New Roman,serif" font-weight="bold" font-size="14.00">Result</text>
<polygon fill="none" stroke="black" points="1591,-207.5 1591,-228.5 1704,-228.5 1704,-207.5 1591,-207.5"/>
<text text-anchor="start" x="1634.5" y="-214.3" font-family="Times New Roman,serif" font-size="14.00">label</text>
<polygon fill="none" stroke="black" points="1704,-207.5 1704,-228.5 1981,-228.5 1981,-207.5 1704,-207.5"/>
<text text-anchor="start" x="1806.5" y="-214.3" font-family="Times New Roman,serif" font-size="14.00">Optional[str]</text>
<polygon fill="none" stroke="black" points="1591,-186.5 1591,-207.5 1704,-207.5 1704,-186.5 1591,-186.5"/>
<text text-anchor="start" x="1616" y="-193.3" font-family="Times New Roman,serif" font-size="14.00">description</text>
<polygon fill="none" stroke="black" points="1704,-186.5 1704,-207.5 1981,-207.5 1981,-186.5 1704,-186.5"/>
<text text-anchor="start" x="1806.5" y="-193.3" font-family="Times New Roman,serif" font-size="14.00">Optional[str]</text>
<polygon fill="none" stroke="black" points="1591,-165.5 1591,-186.5 1704,-186.5 1704,-165.5 1591,-165.5"/>
<text text-anchor="start" x="1618.5" y="-172.3" font-family="Times New Roman,serif" font-size="14.00">comments</text>
<polygon fill="none" stroke="black" points="1704,-165.5 1704,-186.5 1981,-186.5 1981,-165.5 1704,-165.5"/>
<text text-anchor="start" x="1806.5" y="-172.3" font-family="Times New Roman,serif" font-size="14.00">Optional[str]</text>
<polygon fill="none" stroke="black" points="1591,-144.5 1591,-165.5 1704,-165.5 1704,-144.5 1591,-144.5"/>
<text text-anchor="start" x="1594" y="-151.3" font-family="Times New Roman,serif" font-size="14.00">assessment_period</text>
<polygon fill="none" stroke="black" points="1704,-144.5 1704,-165.5 1981,-165.5 1981,-144.5 1704,-144.5"/>
<text text-anchor="start" x="1761.5" y="-151.3" font-family="Times New Roman,serif" font-size="14.00">AssessmentPeriod(StrEnum)</text>
<polygon fill="none" stroke="black" points="1591,-123.5 1591,-144.5 1704,-144.5 1704,-123.5 1591,-123.5"/>
<text text-anchor="start" x="1615.5" y="-130.3" font-family="Times New Roman,serif" font-size="14.00">dimensions</text>
<polygon fill="none" stroke="black" points="1704,-123.5 1704,-144.5 1981,-144.5 1981,-123.5 1704,-123.5"/>
<text text-anchor="start" x="1707" y="-130.3" font-family="Times New Roman,serif" font-size="14.00">Optional[tuple[ResultsDimension(StrEnum), ...]]</text>
<polygon fill="none" stroke="black" points="1591,-102.5 1591,-123.5 1704,-123.5 1704,-102.5 1591,-102.5"/>
<text text-anchor="start" x="1623" y="-109.3" font-family="Times New Roman,serif" font-size="14.00">statistics</text>
<polygon fill="none" stroke="black" points="1704,-102.5 1704,-123.5 1981,-123.5 1981,-102.5 1704,-102.5"/>
<text text-anchor="start" x="1790" y="-109.3" font-family="Times New Roman,serif" font-size="14.00">list[ResultStatistic]</text>
</a>
</g>
</g>
<!-- eya_def_tools.data_models.assessment_results.ResultStatistic -->
<g id="node3" class="node">
<title>eya_def_tools.data_models.assessment_results.ResultStatistic</title>
<g id="a_node3"><a xlink:title="eya_def_tools.data_models.assessment_results.ResultStatistic&#10;&#10;Result values for one specific statistic type.&#10;&#10;Attributes:&#10; &#160;&#160;&#160;description (Optional[str]): Description of the data object. Default is None.&#10; &#160;&#160;&#160;comments (Optional[str]): Comments on the data object. Default is None.&#10; &#160;&#160;&#160;statistic_type (StatisticType(StrEnum)): Type of statistic in the results component.&#10; &#160;&#160;&#160;values (UnionType[float, list[tuple[tuple[UnionType[float, int, str], ...], float]]]): Result as a single number or values at coordinates.&#10;">
<polygon fill="none" stroke="black" points="2089,-101.5 2089,-122.5 2567,-122.5 2567,-101.5 2089,-101.5"/>
<text text-anchor="start" x="2283.5" y="-109.3" font-family="Times New Roman,serif" font-weight="bold" font-size="14.00">ResultStatistic</text>
<polygon fill="none" stroke="black" points="2089,-80.5 2089,-101.5 2169,-101.5 2169,-80.5 2089,-80.5"/>
<text text-anchor="start" x="2097.5" y="-87.3" font-family="Times New Roman,serif" font-size="14.00">description</text>
<polygon fill="none" stroke="black" points="2169,-80.5 2169,-101.5 2567,-101.5 2567,-80.5 2169,-80.5"/>
<text text-anchor="start" x="2332" y="-87.3" font-family="Times New Roman,serif" font-size="14.00">Optional[str]</text>
<polygon fill="none" stroke="black" points="2089,-59.5 2089,-80.5 2169,-80.5 2169,-59.5 2089,-59.5"/>
<text text-anchor="start" x="2100" y="-66.3" font-family="Times New Roman,serif" font-size="14.00">comments</text>
<polygon fill="none" stroke="black" points="2169,-59.5 2169,-80.5 2567,-80.5 2567,-59.5 2169,-59.5"/>
<text text-anchor="start" x="2332" y="-66.3" font-family="Times New Roman,serif" font-size="14.00">Optional[str]</text>
<polygon fill="none" stroke="black" points="2089,-38.5 2089,-59.5 2169,-59.5 2169,-38.5 2089,-38.5"/>
<text text-anchor="start" x="2092" y="-45.3" font-family="Times New Roman,serif" font-size="14.00">statistic_type</text>
<polygon fill="none" stroke="black" points="2169,-38.5 2169,-59.5 2567,-59.5 2567,-38.5 2169,-38.5"/>
<text text-anchor="start" x="2302" y="-45.3" font-family="Times New Roman,serif" font-size="14.00">StatisticType(StrEnum)</text>
<polygon fill="none" stroke="black" points="2089,-17.5 2089,-38.5 2169,-38.5 2169,-17.5 2089,-17.5"/>
<text text-anchor="start" x="2111.5" y="-24.3" font-family="Times New Roman,serif" font-size="14.00">values</text>
<polygon fill="none" stroke="black" points="2169,-17.5 2169,-38.5 2567,-38.5 2567,-17.5 2169,-17.5"/>
<text text-anchor="start" x="2172" y="-24.3" font-family="Times New Roman,serif" font-size="14.00">UnionType[float, list[tuple[tuple[UnionType[float, int, str], ...], float]]]</text>
</a>
</g>
</g>
<!-- eya_def_tools.data_models.assessment_results.Result&#45;&gt;eya_def_tools.data_models.assessment_results.ResultStatistic -->
<g id="edge1" class="edge">
<title>eya_def_tools.data_models.assessment_results.Result:e&#45;&gt;eya_def_tools.data_models.assessment_results.ResultStatistic:w</title>
<path fill="none" stroke="black" d="M1981,-112.5C2022.06,-112.5 2036.78,-112.5 2070.23,-112.5"/>
<polygon fill="black" stroke="black" points="2079,-112.5 2089,-117 2084,-112.5 2089,-112.5 2089,-112.5 2089,-112.5 2084,-112.5 2089,-108 2079,-112.5 2079,-112.5"/>
<ellipse fill="none" stroke="black" cx="2074.5" cy="-112.5" rx="4" ry="4"/>
</g>
<!-- eya_def_tools.data_models.plant_performance.PlantPerformanceCategory -->
<g id="node4" class="node">
<title>eya_def_tools.data_models.plant_performance.PlantPerformanceCategory</title>
<g id="a_node4"><a xlink:title="eya_def_tools.data_models.plant_performance.PlantPerformanceCategory&#10;&#10;Plant performance loss assessment category.&#10;&#10;Attributes:&#10; &#160;&#160;&#160;label (PlantPerformanceCategoryLabel(StrEnum)): Label of the plant performance loss category.&#10; &#160;&#160;&#160;subcategories (list[PlantPerformanceSubcategory]): Plant performance loss assessment subcategories that fall under the category. The subcategory objects include details and results at the subcategory level.&#10; &#160;&#160;&#160;category_results (list[Result]): Plant performance assessment category results as dimensionless loss factors (efficiencies).&#10;">
<polygon fill="none" stroke="black" points="0.5,-318.5 0.5,-339.5 343.5,-339.5 343.5,-318.5 0.5,-318.5"/>
<text text-anchor="start" x="87.5" y="-326.3" font-family="Times New Roman,serif" font-weight="bold" font-size="14.00">PlantPerformanceCategory</text>
<polygon fill="none" stroke="black" points="0.5,-297.5 0.5,-318.5 98.5,-318.5 98.5,-297.5 0.5,-297.5"/>
<text text-anchor="start" x="36.5" y="-304.3" font-family="Times New Roman,serif" font-size="14.00">label</text>
<polygon fill="none" stroke="black" points="98.5,-297.5 98.5,-318.5 343.5,-318.5 343.5,-297.5 98.5,-297.5"/>
<text text-anchor="start" x="101.5" y="-304.3" font-family="Times New Roman,serif" font-size="14.00">PlantPerformanceCategoryLabel(StrEnum)</text>
<polygon fill="none" stroke="black" points="0.5,-276.5 0.5,-297.5 98.5,-297.5 98.5,-276.5 0.5,-276.5"/>
<text text-anchor="start" x="11" y="-283.3" font-family="Times New Roman,serif" font-size="14.00">subcategories</text>
<polygon fill="none" stroke="black" points="98.5,-276.5 98.5,-297.5 343.5,-297.5 343.5,-276.5 98.5,-276.5"/>
<text text-anchor="start" x="123.5" y="-283.3" font-family="Times New Roman,serif" font-size="14.00">list[PlantPerformanceSubcategory]</text>
<polygon fill="none" stroke="black" points="0.5,-255.5 0.5,-276.5 98.5,-276.5 98.5,-255.5 0.5,-255.5"/>
<text text-anchor="start" x="3.5" y="-262.3" font-family="Times New Roman,serif" font-size="14.00">category_results</text>
<polygon fill="none" stroke="black" points="98.5,-255.5 98.5,-276.5 343.5,-276.5 343.5,-255.5 98.5,-255.5"/>
<text text-anchor="start" x="190.5" y="-262.3" font-family="Times New Roman,serif" font-size="14.00">list[Result]</text>
</a>
</g>
</g>
<!-- eya_def_tools.data_models.plant_performance.PlantPerformanceCategory&#45;&gt;eya_def_tools.data_models.assessment_results.Result -->
<g id="edge2" class="edge">
<title>eya_def_tools.data_models.plant_performance.PlantPerformanceCategory:e&#45;&gt;eya_def_tools.data_models.assessment_results.Result:w</title>
<path fill="none" stroke="black" d="M343,-265.5C850.13,-265.5 978.65,-163.39 1483,-216.5 1524.94,-220.92 1538.31,-234.73 1572.39,-238.53"/>
<polygon fill="black" stroke="black" points="1581.01,-238.98 1590.76,-243.99 1586.01,-239.24 1591,-239.5 1591,-239.5 1591,-239.5 1586.01,-239.24 1591.24,-235.01 1581.01,-238.98 1581.01,-238.98"/>
<ellipse fill="none" stroke="black" cx="1576.52" cy="-238.74" rx="4" ry="4"/>
</g>
<!-- eya_def_tools.data_models.plant_performance.PlantPerformanceSubcategory -->
<g id="node5" class="node">
<title>eya_def_tools.data_models.plant_performance.PlantPerformanceSubcategory</title>
<g id="a_node5"><a xlink:title="eya_def_tools.data_models.plant_performance.PlantPerformanceSubcategory&#10;&#10;Plant performance loss assessment subcategory.&#10;&#10;Attributes:&#10; &#160;&#160;&#160;label (PlantPerformanceSubcategoryLabel(StrEnum)): Label of the plant performance loss subcategory.&#10; &#160;&#160;&#160;basis (AssessmentBasis(StrEnum)): Basis of plant performance loss subcategory assessment. The basis describes the level of detail of the calculation or estimate used in the assessment of the subcategory.&#10; &#160;&#160;&#160;variability (VariabilityType(StrEnum)): Considered variability in the plant performance loss subcategory.&#10; &#160;&#160;&#160;assessment_process_descriptions (Optional[list[AssessmentProcessDescription]]): Description of calculation processes used in the assessment of the plant performance loss subcategory. Default is None.&#10; &#160;&#160;&#160;is_preliminary (bool): Whether the assessment of the plant performance loss assessment subcategory should be marked as preliminary. Default is False.&#10; &#160;&#160;&#160;elements (Optional[list[PlantPerformanceElement]]): Plant performance loss assessment elements that fall under the the subcategory. The element objects include details and results at the element level. A breakdown of plant performance loss subcategories into elements is optional and can be included only for a subset of the subcategories, as relevant. Whereas the categories and subcategories are fixed, the user may freely define element labels. Default is None.&#10; &#160;&#160;&#160;subcategory_results (Result): Plant performance assessment subcategory results as dimensionless loss factors (efficiencies).&#10;">
<polygon fill="none" stroke="black" points="451,-493.5 451,-514.5 913,-514.5 913,-493.5 451,-493.5"/>
<text text-anchor="start" x="587.5" y="-501.3" font-family="Times New Roman,serif" font-weight="bold" font-size="14.00">PlantPerformanceSubcategory</text>
<polygon fill="none" stroke="black" points="451,-472.5 451,-493.5 648,-493.5 648,-472.5 451,-472.5"/>
<text text-anchor="start" x="536.5" y="-479.3" font-family="Times New Roman,serif" font-size="14.00">label</text>
<polygon fill="none" stroke="black" points="648,-472.5 648,-493.5 913,-493.5 913,-472.5 648,-472.5"/>
<text text-anchor="start" x="651" y="-479.3" font-family="Times New Roman,serif" font-size="14.00">PlantPerformanceSubcategoryLabel(StrEnum)</text>
<polygon fill="none" stroke="black" points="451,-451.5 451,-472.5 648,-472.5 648,-451.5 451,-451.5"/>
<text text-anchor="start" x="535" y="-458.3" font-family="Times New Roman,serif" font-size="14.00">basis</text>
<polygon fill="none" stroke="black" points="648,-451.5 648,-472.5 913,-472.5 913,-451.5 648,-451.5"/>
<text text-anchor="start" x="703" y="-458.3" font-family="Times New Roman,serif" font-size="14.00">AssessmentBasis(StrEnum)</text>
<polygon fill="none" stroke="black" points="451,-430.5 451,-451.5 648,-451.5 648,-430.5 451,-430.5"/>
<text text-anchor="start" x="522.5" y="-437.3" font-family="Times New Roman,serif" font-size="14.00">variability</text>
<polygon fill="none" stroke="black" points="648,-430.5 648,-451.5 913,-451.5 913,-430.5 648,-430.5"/>
<text text-anchor="start" x="708.5" y="-437.3" font-family="Times New Roman,serif" font-size="14.00">VariabilityType(StrEnum)</text>
<polygon fill="none" stroke="black" points="451,-409.5 451,-430.5 648,-430.5 648,-409.5 451,-409.5"/>
<text text-anchor="start" x="454" y="-416.3" font-family="Times New Roman,serif" font-size="14.00">assessment_process_descriptions</text>
<polygon fill="none" stroke="black" points="648,-409.5 648,-430.5 913,-430.5 913,-409.5 648,-409.5"/>
<text text-anchor="start" x="651" y="-416.3" font-family="Times New Roman,serif" font-size="14.00">Optional[list[AssessmentProcessDescription]]</text>
<polygon fill="none" stroke="black" points="451,-388.5 451,-409.5 648,-409.5 648,-388.5 451,-388.5"/>
<text text-anchor="start" x="510" y="-395.3" font-family="Times New Roman,serif" font-size="14.00">is_preliminary</text>
<polygon fill="none" stroke="black" points="648,-388.5 648,-409.5 913,-409.5 913,-388.5 648,-388.5"/>
<text text-anchor="start" x="767.5" y="-395.3" font-family="Times New Roman,serif" font-size="14.00">bool</text>
<polygon fill="none" stroke="black" points="451,-367.5 451,-388.5 648,-388.5 648,-367.5 451,-367.5"/>
<text text-anchor="start" x="525" y="-374.3" font-family="Times New Roman,serif" font-size="14.00">elements</text>
<polygon fill="none" stroke="black" points="648,-367.5 648,-388.5 913,-388.5 913,-367.5 648,-367.5"/>
<text text-anchor="start" x="667.5" y="-374.3" font-family="Times New Roman,serif" font-size="14.00">Optional[list[PlantPerformanceElement]]</text>
<polygon fill="none" stroke="black" points="451,-346.5 451,-367.5 648,-367.5 648,-346.5 451,-346.5"/>
<text text-anchor="start" x="493.5" y="-353.3" font-family="Times New Roman,serif" font-size="14.00">subcategory_results</text>
<polygon fill="none" stroke="black" points="648,-346.5 648,-367.5 913,-367.5 913,-346.5 648,-346.5"/>
<text text-anchor="start" x="762.5" y="-353.3" font-family="Times New Roman,serif" font-size="14.00">Result</text>
</a>
</g>
</g>
<!-- eya_def_tools.data_models.plant_performance.PlantPerformanceCategory&#45;&gt;eya_def_tools.data_models.plant_performance.PlantPerformanceSubcategory -->
<g id="edge3" class="edge">
<title>eya_def_tools.data_models.plant_performance.PlantPerformanceCategory:e&#45;&gt;eya_def_tools.data_models.plant_performance.PlantPerformanceSubcategory:w</title>
<path fill="none" stroke="black" d="M343,-286.5C444.16,-286.5 355.93,-477.3 432.67,-501.9"/>
<polygon fill="black" stroke="black" points="441.1,-503.1 450.37,-508.96 446.05,-503.8 451,-504.5 451,-504.5 451,-504.5 446.05,-503.8 451.63,-500.04 441.1,-503.1 441.1,-503.1"/>
<ellipse fill="none" stroke="black" cx="436.64" cy="-502.46" rx="4" ry="4"/>
</g>
<!-- eya_def_tools.data_models.plant_performance.PlantPerformanceSubcategory&#45;&gt;eya_def_tools.data_models.assessment_process_description.AssessmentProcessDescription -->
<g id="edge6" class="edge">
<title>eya_def_tools.data_models.plant_performance.PlantPerformanceSubcategory:e&#45;&gt;eya_def_tools.data_models.assessment_process_description.AssessmentProcessDescription:w</title>
<path fill="none" stroke="black" d="M913,-419.5C979.33,-419.5 959.42,-497.84 1021,-522.5 1211.62,-598.82 1279.97,-553.14 1483,-522.5 1570.23,-509.34 1589.57,-466.2 1668.11,-460.2"/>
<polygon fill="black" stroke="black" points="1677.01,-459.87 1687.17,-464 1682,-459.68 1687,-459.5 1687,-459.5 1687,-459.5 1682,-459.68 1686.83,-455 1677.01,-459.87 1677.01,-459.87"/>
<ellipse fill="none" stroke="black" cx="1672.51" cy="-460.03" rx="4" ry="4"/>
</g>
<!-- eya_def_tools.data_models.plant_performance.PlantPerformanceSubcategory&#45;&gt;eya_def_tools.data_models.assessment_results.Result -->
<g id="edge7" class="edge">
<title>eya_def_tools.data_models.plant_performance.PlantPerformanceSubcategory:e&#45;&gt;eya_def_tools.data_models.assessment_results.Result:w</title>
<path fill="none" stroke="black" d="M913,-356.5C972.73,-356.5 964.91,-297.05 1021,-276.5 1254.72,-190.87 1334.03,-237.59 1576.32,-239.44"/>
<polyline fill="none" stroke="black" points="1591,-239.5 1586,-239.48"/>
<polygon fill="black" stroke="black" points="1585.02,-234.48 1584.98,-244.48 1582.98,-244.47 1583.02,-234.47 1585.02,-234.48"/>
<polyline fill="none" stroke="black" points="1586,-239.48 1581,-239.46"/>
<polygon fill="black" stroke="black" points="1580.02,-234.46 1579.98,-244.46 1577.98,-244.45 1578.02,-234.45 1580.02,-234.46"/>
<polyline fill="none" stroke="black" points="1581,-239.46 1576,-239.44"/>
</g>
<!-- eya_def_tools.data_models.plant_performance.PlantPerformanceElement -->
<g id="node6" class="node">
<title>eya_def_tools.data_models.plant_performance.PlantPerformanceElement</title>
<g id="a_node6"><a xlink:title="eya_def_tools.data_models.plant_performance.PlantPerformanceElement&#10;&#10;Plant performance loss assessment element.&#10;&#10;Attributes:&#10; &#160;&#160;&#160;label (str): Label of the plant performance loss element.&#10; &#160;&#160;&#160;description (Optional[str]): Description of the data object. Default is None.&#10; &#160;&#160;&#160;comments (Optional[str]): Comments on the data object. Default is None.&#10; &#160;&#160;&#160;basis (AssessmentBasis(StrEnum)): Basis of plant performance loss element assessment. The basis describes the level of detail of the calculation or estimate used in the assessment of the element.&#10; &#160;&#160;&#160;variability (VariabilityType(StrEnum)): Considered variability in the plant performance loss element.&#10; &#160;&#160;&#160;is_independent (bool): Whether the plant performance loss element is independent of all other elements. Default is True.&#10; &#160;&#160;&#160;assessment_process_descriptions (Optional[list[AssessmentProcessDescription]]): Description of calculation processes used in the assessment of the plant performance loss element. Default is None.&#10; &#160;&#160;&#160;is_preliminary (bool): Whether the assessment of the plant performance loss assessment element should be marked as preliminary. Default is False.&#10; &#160;&#160;&#160;element_results (Result): Plant performance assessment element results as dimensionless loss factors (efficiencies).&#10;">
<polygon fill="none" stroke="black" points="1021,-483.5 1021,-504.5 1483,-504.5 1483,-483.5 1021,-483.5"/>
<text text-anchor="start" x="1170.5" y="-491.3" font-family="Times New Roman,serif" font-weight="bold" font-size="14.00">PlantPerformanceElement</text>
<polygon fill="none" stroke="black" points="1021,-462.5 1021,-483.5 1218,-483.5 1218,-462.5 1021,-462.5"/>
<text text-anchor="start" x="1106.5" y="-469.3" font-family="Times New Roman,serif" font-size="14.00">label</text>
<polygon fill="none" stroke="black" points="1218,-462.5 1218,-483.5 1483,-483.5 1483,-462.5 1218,-462.5"/>
<text text-anchor="start" x="1343" y="-469.3" font-family="Times New Roman,serif" font-size="14.00">str</text>
<polygon fill="none" stroke="black" points="1021,-441.5 1021,-462.5 1218,-462.5 1218,-441.5 1021,-441.5"/>
<text text-anchor="start" x="1088" y="-448.3" font-family="Times New Roman,serif" font-size="14.00">description</text>
<polygon fill="none" stroke="black" points="1218,-441.5 1218,-462.5 1483,-462.5 1483,-441.5 1218,-441.5"/>
<text text-anchor="start" x="1314.5" y="-448.3" font-family="Times New Roman,serif" font-size="14.00">Optional[str]</text>
<polygon fill="none" stroke="black" points="1021,-420.5 1021,-441.5 1218,-441.5 1218,-420.5 1021,-420.5"/>
<text text-anchor="start" x="1090.5" y="-427.3" font-family="Times New Roman,serif" font-size="14.00">comments</text>
<polygon fill="none" stroke="black" points="1218,-420.5 1218,-441.5 1483,-441.5 1483,-420.5 1218,-420.5"/>
<text text-anchor="start" x="1314.5" y="-427.3" font-family="Times New Roman,serif" font-size="14.00">Optional[str]</text>
<polygon fill="none" stroke="black" points="1021,-399.5 1021,-420.5 1218,-420.5 1218,-399.5 1021,-399.5"/>
<text text-anchor="start" x="1105" y="-406.3" font-family="Times New Roman,serif" font-size="14.00">basis</text>
<polygon fill="none" stroke="black" points="1218,-399.5 1218,-420.5 1483,-420.5 1483,-399.5 1218,-399.5"/>
<text text-anchor="start" x="1273" y="-406.3" font-family="Times New Roman,serif" font-size="14.00">AssessmentBasis(StrEnum)</text>
<polygon fill="none" stroke="black" points="1021,-378.5 1021,-399.5 1218,-399.5 1218,-378.5 1021,-378.5"/>
<text text-anchor="start" x="1092.5" y="-385.3" font-family="Times New Roman,serif" font-size="14.00">variability</text>
<polygon fill="none" stroke="black" points="1218,-378.5 1218,-399.5 1483,-399.5 1483,-378.5 1218,-378.5"/>
<text text-anchor="start" x="1278.5" y="-385.3" font-family="Times New Roman,serif" font-size="14.00">VariabilityType(StrEnum)</text>
<polygon fill="none" stroke="black" points="1021,-357.5 1021,-378.5 1218,-378.5 1218,-357.5 1021,-357.5"/>
<text text-anchor="start" x="1077" y="-364.3" font-family="Times New Roman,serif" font-size="14.00">is_independent</text>
<polygon fill="none" stroke="black" points="1218,-357.5 1218,-378.5 1483,-378.5 1483,-357.5 1218,-357.5"/>
<text text-anchor="start" x="1337.5" y="-364.3" font-family="Times New Roman,serif" font-size="14.00">bool</text>
<polygon fill="none" stroke="black" points="1021,-336.5 1021,-357.5 1218,-357.5 1218,-336.5 1021,-336.5"/>
<text text-anchor="start" x="1024" y="-343.3" font-family="Times New Roman,serif" font-size="14.00">assessment_process_descriptions</text>
<polygon fill="none" stroke="black" points="1218,-336.5 1218,-357.5 1483,-357.5 1483,-336.5 1218,-336.5"/>
<text text-anchor="start" x="1221" y="-343.3" font-family="Times New Roman,serif" font-size="14.00">Optional[list[AssessmentProcessDescription]]</text>
<polygon fill="none" stroke="black" points="1021,-315.5 1021,-336.5 1218,-336.5 1218,-315.5 1021,-315.5"/>
<text text-anchor="start" x="1080" y="-322.3" font-family="Times New Roman,serif" font-size="14.00">is_preliminary</text>
<polygon fill="none" stroke="black" points="1218,-315.5 1218,-336.5 1483,-336.5 1483,-315.5 1218,-315.5"/>
<text text-anchor="start" x="1337.5" y="-322.3" font-family="Times New Roman,serif" font-size="14.00">bool</text>
<polygon fill="none" stroke="black" points="1021,-294.5 1021,-315.5 1218,-315.5 1218,-294.5 1021,-294.5"/>
<text text-anchor="start" x="1076.5" y="-301.3" font-family="Times New Roman,serif" font-size="14.00">element_results</text>
<polygon fill="none" stroke="black" points="1218,-294.5 1218,-315.5 1483,-315.5 1483,-294.5 1218,-294.5"/>
<text text-anchor="start" x="1332.5" y="-301.3" font-family="Times New Roman,serif" font-size="14.00">Result</text>
</a>
</g>
</g>
<!-- eya_def_tools.data_models.plant_performance.PlantPerformanceSubcategory&#45;&gt;eya_def_tools.data_models.plant_performance.PlantPerformanceElement -->
<g id="edge8" class="edge">
<title>eya_def_tools.data_models.plant_performance.PlantPerformanceSubcategory:e&#45;&gt;eya_def_tools.data_models.plant_performance.PlantPerformanceElement:w</title>
<path fill="none" stroke="black" d="M913,-377.5C976.58,-377.5 955.97,-471.94 1002.45,-491.12"/>
<polygon fill="black" stroke="black" points="1011.16,-492.71 1020.19,-498.93 1016.08,-493.6 1021,-494.5 1021,-494.5 1021,-494.5 1016.08,-493.6 1021.81,-490.07 1011.16,-492.71 1011.16,-492.71"/>
<ellipse fill="none" stroke="black" cx="1006.73" cy="-491.9" rx="4" ry="4"/>
</g>
<!-- eya_def_tools.data_models.plant_performance.PlantPerformanceElement&#45;&gt;eya_def_tools.data_models.assessment_process_description.AssessmentProcessDescription -->
<g id="edge4" class="edge">
<title>eya_def_tools.data_models.plant_performance.PlantPerformanceElement:e&#45;&gt;eya_def_tools.data_models.assessment_process_description.AssessmentProcessDescription:w</title>
<path fill="none" stroke="black" d="M1483,-346.5C1579.97,-346.5 1583.33,-445.4 1668.23,-458.15"/>
<polygon fill="black" stroke="black" points="1677.03,-458.78 1686.68,-463.99 1682.01,-459.14 1687,-459.5 1687,-459.5 1687,-459.5 1682.01,-459.14 1687.32,-455.01 1677.03,-458.78 1677.03,-458.78"/>
<ellipse fill="none" stroke="black" cx="1672.54" cy="-458.46" rx="4" ry="4"/>
</g>
<!-- eya_def_tools.data_models.plant_performance.PlantPerformanceElement&#45;&gt;eya_def_tools.data_models.assessment_results.Result -->
<g id="edge5" class="edge">
<title>eya_def_tools.data_models.plant_performance.PlantPerformanceElement:e&#45;&gt;eya_def_tools.data_models.assessment_results.Result:w</title>
<path fill="none" stroke="black" d="M1483,-304.5C1533.55,-304.5 1535.19,-251.58 1576.19,-241.24"/>
<polyline fill="none" stroke="black" points="1591,-239.5 1586.03,-240.08"/>
<polygon fill="black" stroke="black" points="1584.46,-235.23 1585.62,-245.17 1583.64,-245.4 1582.47,-235.47 1584.46,-235.23"/>
<polyline fill="none" stroke="black" points="1586.03,-240.08 1581.07,-240.67"/>
<polygon fill="black" stroke="black" points="1579.49,-235.82 1580.66,-245.75 1578.67,-245.98 1577.51,-236.05 1579.49,-235.82"/>
<polyline fill="none" stroke="black" points="1581.07,-240.67 1576.1,-241.25"/>
</g>
</g>
</svg>
