<?xml version="1.0" encoding="UTF-8" standalone="no"?>
<!DOCTYPE svg PUBLIC "-//W3C//DTD SVG 1.1//EN"
 "http://www.w3.org/Graphics/SVG/1.1/DTD/svg11.dtd">
<!-- Generated by graphviz version 7.0.4 (20221203.1631)
 -->
<!-- Title: Entity Relationship Diagram Pages: 1 -->
<svg width="2612pt" height="553pt"
 viewBox="0.00 0.00 2612.00 553.47" xmlns="http://www.w3.org/2000/svg" xmlns:xlink="http://www.w3.org/1999/xlink">
<g id="graph0" class="graph" transform="scale(1 1) rotate(0) translate(4 549.47)">
<title>Entity Relationship Diagram</title>
<polygon fill="white" stroke="none" points="-4,4 -4,-549.47 2608,-549.47 2608,4 -4,4"/>
<text text-anchor="middle" x="1302" y="-6.8" font-family="Times New Roman,serif" font-size="9.00" fill="#a8a8a8">Created by erdantic v0.5.0 &lt;https://github.com/drivendataorg/erdantic&gt;</text>
<!-- eya_def_tools.data_models.assessment_process_description.AssessmentProcessDescription -->
<g id="node1" class="node">
<title>eya_def_tools.data_models.assessment_process_description.AssessmentProcessDescription</title>
<g id="a_node1"><a xlink:title="eya_def_tools.data_models.assessment_process_description.AssessmentProcessDescription&#10;&#10;Description of a process used in an energy yield assessment.&#10;&#10;Attributes:&#10; &#160;&#160;&#160;name (str): Name of the process or model use in the process.&#10; &#160;&#160;&#160;description (Optional[str]): Description of the data object. Default is None.&#10; &#160;&#160;&#160;comments (Optional[str]): Comments on the data object. Default is None.&#10;">
<polygon fill="none" stroke="black" points="1725,-438.5 1725,-459.5 1921,-459.5 1921,-438.5 1725,-438.5"/>
<text text-anchor="start" x="1728" y="-446.3" font-family="Times New Roman,serif" font-weight="bold" font-size="14.00">AssessmentProcessDescription</text>
<polygon fill="none" stroke="black" points="1725,-417.5 1725,-438.5 1818,-438.5 1818,-417.5 1725,-417.5"/>
<text text-anchor="start" x="1756.5" y="-424.3" font-family="Times New Roman,serif" font-size="14.00">name</text>
<polygon fill="none" stroke="black" points="1818,-417.5 1818,-438.5 1921,-438.5 1921,-417.5 1818,-417.5"/>
<text text-anchor="start" x="1862" y="-424.3" font-family="Times New Roman,serif" font-size="14.00">str</text>
<polygon fill="none" stroke="black" points="1725,-396.5 1725,-417.5 1818,-417.5 1818,-396.5 1725,-396.5"/>
<text text-anchor="start" x="1740" y="-403.3" font-family="Times New Roman,serif" font-size="14.00">description</text>
<polygon fill="none" stroke="black" points="1818,-396.5 1818,-417.5 1921,-417.5 1921,-396.5 1818,-396.5"/>
<text text-anchor="start" x="1833.5" y="-403.3" font-family="Times New Roman,serif" font-size="14.00">Optional[str]</text>
<polygon fill="none" stroke="black" points="1725,-375.5 1725,-396.5 1818,-396.5 1818,-375.5 1725,-375.5"/>
<text text-anchor="start" x="1742.5" y="-382.3" font-family="Times New Roman,serif" font-size="14.00">comments</text>
<polygon fill="none" stroke="black" points="1818,-375.5 1818,-396.5 1921,-396.5 1921,-375.5 1818,-375.5"/>
<text text-anchor="start" x="1833.5" y="-382.3" font-family="Times New Roman,serif" font-size="14.00">Optional[str]</text>
</a>
</g>
</g>
<!-- eya_def_tools.data_models.plant_performance.PlantPerformanceCategory -->
<g id="node2" class="node">
<title>eya_def_tools.data_models.plant_performance.PlantPerformanceCategory</title>
<g id="a_node2"><a xlink:title="eya_def_tools.data_models.plant_performance.PlantPerformanceCategory&#10;&#10;Plant performance loss assessment category.&#10;&#10;Attributes:&#10; &#160;&#160;&#160;label (PlantPerformanceCategoryLabel(StrEnum)): Label of the plant performance loss category.&#10; &#160;&#160;&#160;subcategories (list[PlantPerformanceSubcategory]): Plant performance loss assessment subcategories that fall under the category. The subcategory objects include details and results at the subcategory level.&#10; &#160;&#160;&#160;category_results (list[Result]): Plant performance assessment category result(s) as dimensionless loss factors (efficiencies).&#10;">
<polygon fill="none" stroke="black" points="0.5,-361.5 0.5,-382.5 343.5,-382.5 343.5,-361.5 0.5,-361.5"/>
<text text-anchor="start" x="87.5" y="-369.3" font-family="Times New Roman,serif" font-weight="bold" font-size="14.00">PlantPerformanceCategory</text>
<polygon fill="none" stroke="black" points="0.5,-340.5 0.5,-361.5 98.5,-361.5 98.5,-340.5 0.5,-340.5"/>
<text text-anchor="start" x="36.5" y="-347.3" font-family="Times New Roman,serif" font-size="14.00">label</text>
<polygon fill="none" stroke="black" points="98.5,-340.5 98.5,-361.5 343.5,-361.5 343.5,-340.5 98.5,-340.5"/>
<text text-anchor="start" x="101.5" y="-347.3" font-family="Times New Roman,serif" font-size="14.00">PlantPerformanceCategoryLabel(StrEnum)</text>
<polygon fill="none" stroke="black" points="0.5,-319.5 0.5,-340.5 98.5,-340.5 98.5,-319.5 0.5,-319.5"/>
<text text-anchor="start" x="11" y="-326.3" font-family="Times New Roman,serif" font-size="14.00">subcategories</text>
<polygon fill="none" stroke="black" points="98.5,-319.5 98.5,-340.5 343.5,-340.5 343.5,-319.5 98.5,-319.5"/>
<text text-anchor="start" x="123.5" y="-326.3" font-family="Times New Roman,serif" font-size="14.00">list[PlantPerformanceSubcategory]</text>
<polygon fill="none" stroke="black" points="0.5,-298.5 0.5,-319.5 98.5,-319.5 98.5,-298.5 0.5,-298.5"/>
<text text-anchor="start" x="3.5" y="-305.3" font-family="Times New Roman,serif" font-size="14.00">category_results</text>
<polygon fill="none" stroke="black" points="98.5,-298.5 98.5,-319.5 343.5,-319.5 343.5,-298.5 98.5,-298.5"/>
<text text-anchor="start" x="190.5" y="-305.3" font-family="Times New Roman,serif" font-size="14.00">list[Result]</text>
</a>
</g>
</g>
<!-- eya_def_tools.data_models.plant_performance.PlantPerformanceSubcategory -->
<g id="node3" class="node">
<title>eya_def_tools.data_models.plant_performance.PlantPerformanceSubcategory</title>
<g id="a_node3"><a xlink:title="eya_def_tools.data_models.plant_performance.PlantPerformanceSubcategory&#10;&#10;Plant performance loss assessment subcategory.&#10;&#10;Attributes:&#10; &#160;&#160;&#160;label (PlantPerformanceSubcategoryLabel(StrEnum)): Label of the plant performance loss subcategory.&#10; &#160;&#160;&#160;basis (AssessmentBasis(StrEnum)): Basis of plant performance loss subcategory assessment. The basis describes the level of detail of the calculation or estimate used in the assessment of the subcategory.&#10; &#160;&#160;&#160;variability (TimeVariabilityType(StrEnum)): Considered variability in the plant performance loss subcategory.&#10; &#160;&#160;&#160;assessment_process_descriptions (Optional[list[AssessmentProcessDescription]]): Description of calculation processes used in the assessment of the plant performance loss subcategory. Default is None.&#10; &#160;&#160;&#160;elements (Optional[list[PlantPerformanceSubcategoryElement]]): Plant performance loss assessment elements that fall under the the subcategory. The element objects include details and results at the element level. A breakdown of plant performance loss subcategories into elements is optional and can be included only for a subset of the subcategories, as relevant. Whereas the categories and subcategories are fixed, the user may freely define element labels. Default is None.&#10; &#160;&#160;&#160;subcategory_results (list[Result]): Plant performance assessment subcategory result(s) as dimensionless loss factors (efficiencies).&#10;">
<polygon fill="none" stroke="black" points="451.5,-461.5 451.5,-482.5 950.5,-482.5 950.5,-461.5 451.5,-461.5"/>
<text text-anchor="start" x="606.5" y="-469.3" font-family="Times New Roman,serif" font-weight="bold" font-size="14.00">PlantPerformanceSubcategory</text>
<polygon fill="none" stroke="black" points="451.5,-440.5 451.5,-461.5 648.5,-461.5 648.5,-440.5 451.5,-440.5"/>
<text text-anchor="start" x="537" y="-447.3" font-family="Times New Roman,serif" font-size="14.00">label</text>
<polygon fill="none" stroke="black" points="648.5,-440.5 648.5,-461.5 950.5,-461.5 950.5,-440.5 648.5,-440.5"/>
<text text-anchor="start" x="670" y="-447.3" font-family="Times New Roman,serif" font-size="14.00">PlantPerformanceSubcategoryLabel(StrEnum)</text>
<polygon fill="none" stroke="black" points="451.5,-419.5 451.5,-440.5 648.5,-440.5 648.5,-419.5 451.5,-419.5"/>
<text text-anchor="start" x="535.5" y="-426.3" font-family="Times New Roman,serif" font-size="14.00">basis</text>
<polygon fill="none" stroke="black" points="648.5,-419.5 648.5,-440.5 950.5,-440.5 950.5,-419.5 648.5,-419.5"/>
<text text-anchor="start" x="722" y="-426.3" font-family="Times New Roman,serif" font-size="14.00">AssessmentBasis(StrEnum)</text>
<polygon fill="none" stroke="black" points="451.5,-398.5 451.5,-419.5 648.5,-419.5 648.5,-398.5 451.5,-398.5"/>
<text text-anchor="start" x="523" y="-405.3" font-family="Times New Roman,serif" font-size="14.00">variability</text>
<polygon fill="none" stroke="black" points="648.5,-398.5 648.5,-419.5 950.5,-419.5 950.5,-398.5 648.5,-398.5"/>
<text text-anchor="start" x="713.5" y="-405.3" font-family="Times New Roman,serif" font-size="14.00">TimeVariabilityType(StrEnum)</text>
<polygon fill="none" stroke="black" points="451.5,-377.5 451.5,-398.5 648.5,-398.5 648.5,-377.5 451.5,-377.5"/>
<text text-anchor="start" x="454.5" y="-384.3" font-family="Times New Roman,serif" font-size="14.00">assessment_process_descriptions</text>
<polygon fill="none" stroke="black" points="648.5,-377.5 648.5,-398.5 950.5,-398.5 950.5,-377.5 648.5,-377.5"/>
<text text-anchor="start" x="670" y="-384.3" font-family="Times New Roman,serif" font-size="14.00">Optional[list[AssessmentProcessDescription]]</text>
<polygon fill="none" stroke="black" points="451.5,-356.5 451.5,-377.5 648.5,-377.5 648.5,-356.5 451.5,-356.5"/>
<text text-anchor="start" x="525.5" y="-363.3" font-family="Times New Roman,serif" font-size="14.00">elements</text>
<polygon fill="none" stroke="black" points="648.5,-356.5 648.5,-377.5 950.5,-377.5 950.5,-356.5 648.5,-356.5"/>
<text text-anchor="start" x="651.5" y="-363.3" font-family="Times New Roman,serif" font-size="14.00">Optional[list[PlantPerformanceSubcategoryElement]]</text>
<polygon fill="none" stroke="black" points="451.5,-335.5 451.5,-356.5 648.5,-356.5 648.5,-335.5 451.5,-335.5"/>
<text text-anchor="start" x="494" y="-342.3" font-family="Times New Roman,serif" font-size="14.00">subcategory_results</text>
<polygon fill="none" stroke="black" points="648.5,-335.5 648.5,-356.5 950.5,-356.5 950.5,-335.5 648.5,-335.5"/>
<text text-anchor="start" x="769" y="-342.3" font-family="Times New Roman,serif" font-size="14.00">list[Result]</text>
</a>
</g>
</g>
<!-- eya_def_tools.data_models.plant_performance.PlantPerformanceCategory&#45;&gt;eya_def_tools.data_models.plant_performance.PlantPerformanceSubcategory -->
<g id="edge1" class="edge">
<title>eya_def_tools.data_models.plant_performance.PlantPerformanceCategory:e&#45;&gt;eya_def_tools.data_models.plant_performance.PlantPerformanceSubcategory:w</title>
<path fill="none" stroke="black" d="M343,-329.5C415.49,-329.5 379.51,-447.96 432.51,-469.24"/>
<polygon fill="black" stroke="black" points="441.15,-470.77 450.22,-476.93 446.08,-471.63 451,-472.5 451,-472.5 451,-472.5 446.08,-471.63 451.78,-468.07 441.15,-470.77 441.15,-470.77"/>
<ellipse fill="none" stroke="black" cx="436.72" cy="-469.99" rx="4" ry="4"/>
</g>
<!-- eya_def_tools.data_models.result.Result -->
<g id="node4" class="node">
<title>eya_def_tools.data_models.result.Result</title>
<g id="a_node4"><a xlink:title="eya_def_tools.data_models.result.Result&#10;&#10;Set of results for an element of an energy assessment.&#10;&#10;Attributes:&#10; &#160;&#160;&#160;label (Optional[str]): Label of the results.&#10; &#160;&#160;&#160;description (Optional[str]): Description of the data object. Default is None.&#10; &#160;&#160;&#160;comments (Optional[str]): Comments on the data object. Default is None.&#10; &#160;&#160;&#160;assessment_period (Optional[AssessmentPeriod(StrEnum)]): Period of or in time that has been assessed and for which the results are applicable. Default is None.&#10; &#160;&#160;&#160;dimensions (Optional[tuple[ResultsDimension(StrEnum), ...]]): Dimensions along which the results are binned (all result values in the same results object must have the same dimensions). Default is None.&#10; &#160;&#160;&#160;statistics (list[ResultStatistic]): List of result statistic objects that each include result values for a specific statistic type.&#10;">
<polygon fill="none" stroke="black" points="1628,-228.5 1628,-249.5 2018,-249.5 2018,-228.5 1628,-228.5"/>
<text text-anchor="start" x="1803" y="-236.3" font-family="Times New Roman,serif" font-weight="bold" font-size="14.00">Result</text>
<polygon fill="none" stroke="black" points="1628,-207.5 1628,-228.5 1741,-228.5 1741,-207.5 1628,-207.5"/>
<text text-anchor="start" x="1671.5" y="-214.3" font-family="Times New Roman,serif" font-size="14.00">label</text>
<polygon fill="none" stroke="black" points="1741,-207.5 1741,-228.5 2018,-228.5 2018,-207.5 1741,-207.5"/>
<text text-anchor="start" x="1843.5" y="-214.3" font-family="Times New Roman,serif" font-size="14.00">Optional[str]</text>
<polygon fill="none" stroke="black" points="1628,-186.5 1628,-207.5 1741,-207.5 1741,-186.5 1628,-186.5"/>
<text text-anchor="start" x="1653" y="-193.3" font-family="Times New Roman,serif" font-size="14.00">description</text>
<polygon fill="none" stroke="black" points="1741,-186.5 1741,-207.5 2018,-207.5 2018,-186.5 1741,-186.5"/>
<text text-anchor="start" x="1843.5" y="-193.3" font-family="Times New Roman,serif" font-size="14.00">Optional[str]</text>
<polygon fill="none" stroke="black" points="1628,-165.5 1628,-186.5 1741,-186.5 1741,-165.5 1628,-165.5"/>
<text text-anchor="start" x="1655.5" y="-172.3" font-family="Times New Roman,serif" font-size="14.00">comments</text>
<polygon fill="none" stroke="black" points="1741,-165.5 1741,-186.5 2018,-186.5 2018,-165.5 1741,-165.5"/>
<text text-anchor="start" x="1843.5" y="-172.3" font-family="Times New Roman,serif" font-size="14.00">Optional[str]</text>
<polygon fill="none" stroke="black" points="1628,-144.5 1628,-165.5 1741,-165.5 1741,-144.5 1628,-144.5"/>
<text text-anchor="start" x="1631" y="-151.3" font-family="Times New Roman,serif" font-size="14.00">assessment_period</text>
<polygon fill="none" stroke="black" points="1741,-144.5 1741,-165.5 2018,-165.5 2018,-144.5 1741,-144.5"/>
<text text-anchor="start" x="1770" y="-151.3" font-family="Times New Roman,serif" font-size="14.00">Optional[AssessmentPeriod(StrEnum)]</text>
<polygon fill="none" stroke="black" points="1628,-123.5 1628,-144.5 1741,-144.5 1741,-123.5 1628,-123.5"/>
<text text-anchor="start" x="1652.5" y="-130.3" font-family="Times New Roman,serif" font-size="14.00">dimensions</text>
<polygon fill="none" stroke="black" points="1741,-123.5 1741,-144.5 2018,-144.5 2018,-123.5 1741,-123.5"/>
<text text-anchor="start" x="1744" y="-130.3" font-family="Times New Roman,serif" font-size="14.00">Optional[tuple[ResultsDimension(StrEnum), ...]]</text>
<polygon fill="none" stroke="black" points="1628,-102.5 1628,-123.5 1741,-123.5 1741,-102.5 1628,-102.5"/>
<text text-anchor="start" x="1660" y="-109.3" font-family="Times New Roman,serif" font-size="14.00">statistics</text>
<polygon fill="none" stroke="black" points="1741,-102.5 1741,-123.5 2018,-123.5 2018,-102.5 1741,-102.5"/>
<text text-anchor="start" x="1827" y="-109.3" font-family="Times New Roman,serif" font-size="14.00">list[ResultStatistic]</text>
</a>
</g>
</g>
<!-- eya_def_tools.data_models.plant_performance.PlantPerformanceCategory&#45;&gt;eya_def_tools.data_models.result.Result -->
<g id="edge2" class="edge">
<title>eya_def_tools.data_models.plant_performance.PlantPerformanceCategory:e&#45;&gt;eya_def_tools.data_models.result.Result:w</title>
<path fill="none" stroke="black" d="M343,-308.5C663.23,-308.5 738.38,-239.32 1058,-219.5 1262.94,-206.79 1315.53,-200.73 1520,-219.5 1561.78,-223.34 1575.46,-235.35 1609.46,-238.65"/>
<polygon fill="black" stroke="black" points="1618.01,-239.04 1627.79,-244 1623.01,-239.27 1628,-239.5 1628,-239.5 1628,-239.5 1623.01,-239.27 1628.21,-235 1618.01,-239.04 1618.01,-239.04"/>
<ellipse fill="none" stroke="black" cx="1613.52" cy="-238.84" rx="4" ry="4"/>
</g>
<!-- eya_def_tools.data_models.plant_performance.PlantPerformanceSubcategory&#45;&gt;eya_def_tools.data_models.assessment_process_description.AssessmentProcessDescription -->
<g id="edge3" class="edge">
<title>eya_def_tools.data_models.plant_performance.PlantPerformanceSubcategory:e&#45;&gt;eya_def_tools.data_models.assessment_process_description.AssessmentProcessDescription:w</title>
<path fill="none" stroke="black" d="M950,-387.5C1020.12,-387.5 993.65,-474.65 1058,-502.5 1246.45,-584.04 1316.32,-528.53 1520,-502.5 1606.39,-491.46 1627.5,-455.14 1705.32,-450.09"/>
<polygon fill="black" stroke="black" points="1714,-449.81 1724.14,-454 1719,-449.66 1724,-449.5 1724,-449.5 1724,-449.5 1719,-449.66 1723.86,-445 1714,-449.81 1714,-449.81"/>
<ellipse fill="none" stroke="black" cx="1709.51" cy="-449.95" rx="4" ry="4"/>
</g>
<!-- eya_def_tools.data_models.plant_performance.PlantPerformanceSubcategory&#45;&gt;eya_def_tools.data_models.result.Result -->
<g id="edge5" class="edge">
<title>eya_def_tools.data_models.plant_performance.PlantPerformanceSubcategory:e&#45;&gt;eya_def_tools.data_models.result.Result:w</title>
<path fill="none" stroke="black" d="M950,-345.5C1006.72,-345.5 1004.06,-295.03 1058,-277.5 1293.33,-201.01 1370.21,-237.52 1609,-239.42"/>
<polygon fill="black" stroke="black" points="1618,-239.46 1627.98,-244 1623,-239.48 1628,-239.5 1628,-239.5 1628,-239.5 1623,-239.48 1628.02,-235 1618,-239.46 1618,-239.46"/>
<ellipse fill="none" stroke="black" cx="1613.5" cy="-239.44" rx="4" ry="4"/>
</g>
<!-- eya_def_tools.data_models.plant_performance.PlantPerformanceSubcategoryElement -->
<g id="node5" class="node">
<title>eya_def_tools.data_models.plant_performance.PlantPerformanceSubcategoryElement</title>
<g id="a_node5"><a xlink:title="eya_def_tools.data_models.plant_performance.PlantPerformanceSubcategoryElement&#10;&#10;Plant performance loss assessment subcategory element.&#10;&#10;Attributes:&#10; &#160;&#160;&#160;label (str): Label of the plant performance loss subcategory element.&#10; &#160;&#160;&#160;description (Optional[str]): Description of the data object. Default is None.&#10; &#160;&#160;&#160;comments (Optional[str]): Comments on the data object. Default is None.&#10; &#160;&#160;&#160;basis (AssessmentBasis(StrEnum)): Basis of plant performance loss subcategory element assessment. The basis describes the level of detail of the calculation or estimate used in the assessment of the element.&#10; &#160;&#160;&#160;variability (TimeVariabilityType(StrEnum)): Considered variability in the plant performance loss subcategory element.&#10; &#160;&#160;&#160;is_independent (bool): Whether the plant performance loss subcategory element is independent of all other elements. Default is True.&#10; &#160;&#160;&#160;assessment_process_descriptions (Optional[list[AssessmentProcessDescription]]): Description of calculation processes used in the assessment of the plant performance loss subcategory element. Default is None.&#10; &#160;&#160;&#160;element_results (list[Result]): Plant performance assessment subcategory element result(s) as dimensionless loss factors (efficiencies).&#10;">
<polygon fill="none" stroke="black" points="1058,-462.5 1058,-483.5 1520,-483.5 1520,-462.5 1058,-462.5"/>
<text text-anchor="start" x="1169.5" y="-470.3" font-family="Times New Roman,serif" font-weight="bold" font-size="14.00">PlantPerformanceSubcategoryElement</text>
<polygon fill="none" stroke="black" points="1058,-441.5 1058,-462.5 1255,-462.5 1255,-441.5 1058,-441.5"/>
<text text-anchor="start" x="1143.5" y="-448.3" font-family="Times New Roman,serif" font-size="14.00">label</text>
<polygon fill="none" stroke="black" points="1255,-441.5 1255,-462.5 1520,-462.5 1520,-441.5 1255,-441.5"/>
<text text-anchor="start" x="1380" y="-448.3" font-family="Times New Roman,serif" font-size="14.00">str</text>
<polygon fill="none" stroke="black" points="1058,-420.5 1058,-441.5 1255,-441.5 1255,-420.5 1058,-420.5"/>
<text text-anchor="start" x="1125" y="-427.3" font-family="Times New Roman,serif" font-size="14.00">description</text>
<polygon fill="none" stroke="black" points="1255,-420.5 1255,-441.5 1520,-441.5 1520,-420.5 1255,-420.5"/>
<text text-anchor="start" x="1351.5" y="-427.3" font-family="Times New Roman,serif" font-size="14.00">Optional[str]</text>
<polygon fill="none" stroke="black" points="1058,-399.5 1058,-420.5 1255,-420.5 1255,-399.5 1058,-399.5"/>
<text text-anchor="start" x="1127.5" y="-406.3" font-family="Times New Roman,serif" font-size="14.00">comments</text>
<polygon fill="none" stroke="black" points="1255,-399.5 1255,-420.5 1520,-420.5 1520,-399.5 1255,-399.5"/>
<text text-anchor="start" x="1351.5" y="-406.3" font-family="Times New Roman,serif" font-size="14.00">Optional[str]</text>
<polygon fill="none" stroke="black" points="1058,-378.5 1058,-399.5 1255,-399.5 1255,-378.5 1058,-378.5"/>
<text text-anchor="start" x="1142" y="-385.3" font-family="Times New Roman,serif" font-size="14.00">basis</text>
<polygon fill="none" stroke="black" points="1255,-378.5 1255,-399.5 1520,-399.5 1520,-378.5 1255,-378.5"/>
<text text-anchor="start" x="1310" y="-385.3" font-family="Times New Roman,serif" font-size="14.00">AssessmentBasis(StrEnum)</text>
<polygon fill="none" stroke="black" points="1058,-357.5 1058,-378.5 1255,-378.5 1255,-357.5 1058,-357.5"/>
<text text-anchor="start" x="1129.5" y="-364.3" font-family="Times New Roman,serif" font-size="14.00">variability</text>
<polygon fill="none" stroke="black" points="1255,-357.5 1255,-378.5 1520,-378.5 1520,-357.5 1255,-357.5"/>
<text text-anchor="start" x="1301.5" y="-364.3" font-family="Times New Roman,serif" font-size="14.00">TimeVariabilityType(StrEnum)</text>
<polygon fill="none" stroke="black" points="1058,-336.5 1058,-357.5 1255,-357.5 1255,-336.5 1058,-336.5"/>
<text text-anchor="start" x="1114" y="-343.3" font-family="Times New Roman,serif" font-size="14.00">is_independent</text>
<polygon fill="none" stroke="black" points="1255,-336.5 1255,-357.5 1520,-357.5 1520,-336.5 1255,-336.5"/>
<text text-anchor="start" x="1374.5" y="-343.3" font-family="Times New Roman,serif" font-size="14.00">bool</text>
<polygon fill="none" stroke="black" points="1058,-315.5 1058,-336.5 1255,-336.5 1255,-315.5 1058,-315.5"/>
<text text-anchor="start" x="1061" y="-322.3" font-family="Times New Roman,serif" font-size="14.00">assessment_process_descriptions</text>
<polygon fill="none" stroke="black" points="1255,-315.5 1255,-336.5 1520,-336.5 1520,-315.5 1255,-315.5"/>
<text text-anchor="start" x="1258" y="-322.3" font-family="Times New Roman,serif" font-size="14.00">Optional[list[AssessmentProcessDescription]]</text>
<polygon fill="none" stroke="black" points="1058,-294.5 1058,-315.5 1255,-315.5 1255,-294.5 1058,-294.5"/>
<text text-anchor="start" x="1113.5" y="-301.3" font-family="Times New Roman,serif" font-size="14.00">element_results</text>
<polygon fill="none" stroke="black" points="1255,-294.5 1255,-315.5 1520,-315.5 1520,-294.5 1255,-294.5"/>
<text text-anchor="start" x="1357" y="-301.3" font-family="Times New Roman,serif" font-size="14.00">list[Result]</text>
</a>
</g>
</g>
<!-- eya_def_tools.data_models.plant_performance.PlantPerformanceSubcategory&#45;&gt;eya_def_tools.data_models.plant_performance.PlantPerformanceSubcategoryElement -->
<g id="edge4" class="edge">
<title>eya_def_tools.data_models.plant_performance.PlantPerformanceSubcategory:e&#45;&gt;eya_def_tools.data_models.plant_performance.PlantPerformanceSubcategoryElement:w</title>
<path fill="none" stroke="black" d="M950,-366.5C1010.44,-366.5 995.1,-452.12 1039.56,-470.18"/>
<polygon fill="black" stroke="black" points="1048.16,-471.73 1057.2,-477.93 1053.08,-472.61 1058,-473.5 1058,-473.5 1058,-473.5 1053.08,-472.61 1058.8,-469.07 1048.16,-471.73 1048.16,-471.73"/>
<ellipse fill="none" stroke="black" cx="1043.73" cy="-470.93" rx="4" ry="4"/>
</g>
<!-- eya_def_tools.data_models.result.ResultStatistic -->
<g id="node6" class="node">
<title>eya_def_tools.data_models.result.ResultStatistic</title>
<g id="a_node6"><a xlink:title="eya_def_tools.data_models.result.ResultStatistic&#10;&#10;Result values for one specific statistic type.&#10;&#10;Attributes:&#10; &#160;&#160;&#160;description (Optional[str]): Description of the data object. Default is None.&#10; &#160;&#160;&#160;comments (Optional[str]): Comments on the data object. Default is None.&#10; &#160;&#160;&#160;statistic_type (StatisticType(StrEnum)): Type of statistic in the results component.&#10; &#160;&#160;&#160;values (UnionType[float, list[tuple[tuple[UnionType[float, int, str], ...], float]]]): Result as a single number or values at coordinates.&#10;">
<polygon fill="none" stroke="black" points="2126,-101.5 2126,-122.5 2604,-122.5 2604,-101.5 2126,-101.5"/>
<text text-anchor="start" x="2320.5" y="-109.3" font-family="Times New Roman,serif" font-weight="bold" font-size="14.00">ResultStatistic</text>
<polygon fill="none" stroke="black" points="2126,-80.5 2126,-101.5 2206,-101.5 2206,-80.5 2126,-80.5"/>
<text text-anchor="start" x="2134.5" y="-87.3" font-family="Times New Roman,serif" font-size="14.00">description</text>
<polygon fill="none" stroke="black" points="2206,-80.5 2206,-101.5 2604,-101.5 2604,-80.5 2206,-80.5"/>
<text text-anchor="start" x="2369" y="-87.3" font-family="Times New Roman,serif" font-size="14.00">Optional[str]</text>
<polygon fill="none" stroke="black" points="2126,-59.5 2126,-80.5 2206,-80.5 2206,-59.5 2126,-59.5"/>
<text text-anchor="start" x="2137" y="-66.3" font-family="Times New Roman,serif" font-size="14.00">comments</text>
<polygon fill="none" stroke="black" points="2206,-59.5 2206,-80.5 2604,-80.5 2604,-59.5 2206,-59.5"/>
<text text-anchor="start" x="2369" y="-66.3" font-family="Times New Roman,serif" font-size="14.00">Optional[str]</text>
<polygon fill="none" stroke="black" points="2126,-38.5 2126,-59.5 2206,-59.5 2206,-38.5 2126,-38.5"/>
<text text-anchor="start" x="2129" y="-45.3" font-family="Times New Roman,serif" font-size="14.00">statistic_type</text>
<polygon fill="none" stroke="black" points="2206,-38.5 2206,-59.5 2604,-59.5 2604,-38.5 2206,-38.5"/>
<text text-anchor="start" x="2339" y="-45.3" font-family="Times New Roman,serif" font-size="14.00">StatisticType(StrEnum)</text>
<polygon fill="none" stroke="black" points="2126,-17.5 2126,-38.5 2206,-38.5 2206,-17.5 2126,-17.5"/>
<text text-anchor="start" x="2148.5" y="-24.3" font-family="Times New Roman,serif" font-size="14.00">values</text>
<polygon fill="none" stroke="black" points="2206,-17.5 2206,-38.5 2604,-38.5 2604,-17.5 2206,-17.5"/>
<text text-anchor="start" x="2209" y="-24.3" font-family="Times New Roman,serif" font-size="14.00">UnionType[float, list[tuple[tuple[UnionType[float, int, str], ...], float]]]</text>
</a>
</g>
</g>
<!-- eya_def_tools.data_models.result.Result&#45;&gt;eya_def_tools.data_models.result.ResultStatistic -->
<g id="edge8" class="edge">
<title>eya_def_tools.data_models.result.Result:e&#45;&gt;eya_def_tools.data_models.result.ResultStatistic:w</title>
<path fill="none" stroke="black" d="M2018,-112.5C2059.06,-112.5 2073.78,-112.5 2107.23,-112.5"/>
<polygon fill="black" stroke="black" points="2116,-112.5 2126,-117 2121,-112.5 2126,-112.5 2126,-112.5 2126,-112.5 2121,-112.5 2126,-108 2116,-112.5 2116,-112.5"/>
<ellipse fill="none" stroke="black" cx="2111.5" cy="-112.5" rx="4" ry="4"/>
</g>
<!-- eya_def_tools.data_models.plant_performance.PlantPerformanceSubcategoryElement&#45;&gt;eya_def_tools.data_models.assessment_process_description.AssessmentProcessDescription -->
<g id="edge6" class="edge">
<title>eya_def_tools.data_models.plant_performance.PlantPerformanceSubcategoryElement:e&#45;&gt;eya_def_tools.data_models.assessment_process_description.AssessmentProcessDescription:w</title>
<path fill="none" stroke="black" d="M1520,-325.5C1619.37,-325.5 1618.48,-434.26 1705.12,-448.06"/>
<polygon fill="black" stroke="black" points="1714.03,-448.74 1723.66,-453.99 1719.01,-449.12 1724,-449.5 1724,-449.5 1724,-449.5 1719.01,-449.12 1724.34,-445.01 1714.03,-448.74 1714.03,-448.74"/>
<ellipse fill="none" stroke="black" cx="1709.54" cy="-448.4" rx="4" ry="4"/>
</g>
<!-- eya_def_tools.data_models.plant_performance.PlantPerformanceSubcategoryElement&#45;&gt;eya_def_tools.data_models.result.Result -->
<g id="edge7" class="edge">
<title>eya_def_tools.data_models.plant_performance.PlantPerformanceSubcategoryElement:e&#45;&gt;eya_def_tools.data_models.result.Result:w</title>
<path fill="none" stroke="black" d="M1520,-304.5C1569.02,-304.5 1572.05,-254.73 1609.57,-242.29"/>
<polygon fill="black" stroke="black" points="1618.11,-241 1628.67,-243.95 1623.06,-240.25 1628,-239.5 1628,-239.5 1628,-239.5 1623.06,-240.25 1627.33,-235.05 1618.11,-241 1618.11,-241"/>
<ellipse fill="none" stroke="black" cx="1613.66" cy="-241.67" rx="4" ry="4"/>
</g>
</g>
</svg>
