<?xml version="1.0" encoding="UTF-8" standalone="no"?>
<!DOCTYPE svg PUBLIC "-//W3C//DTD SVG 1.1//EN"
 "http://www.w3.org/Graphics/SVG/1.1/DTD/svg11.dtd">
<!-- Generated by graphviz version 7.0.4 (20221203.1631)
 -->
<!-- Title: Entity Relationship Diagram Pages: 1 -->
<svg width="1528pt" height="479pt"
 viewBox="0.00 0.00 1528.00 478.50" xmlns="http://www.w3.org/2000/svg" xmlns:xlink="http://www.w3.org/1999/xlink">
<g id="graph0" class="graph" transform="scale(1 1) rotate(0) translate(4 474.5)">
<title>Entity Relationship Diagram</title>
<polygon fill="white" stroke="none" points="-4,4 -4,-474.5 1524,-474.5 1524,4 -4,4"/>
<text text-anchor="middle" x="760" y="-6.8" font-family="Times New Roman,serif" font-size="9.00" fill="#a8a8a8">Created by erdantic v0.5.0 &lt;https://github.com/drivendataorg/erdantic&gt;</text>
<!-- eya_def_tools.data_models.organisation.Organisation -->
<g id="node1" class="node">
<title>eya_def_tools.data_models.organisation.Organisation</title>
<g id="a_node1"><a xlink:title="eya_def_tools.data_models.organisation.Organisation&#10;&#10;Issuing or receiving organisation of an energy yield assessment.&#10;&#10;Attributes:&#10; &#160;&#160;&#160;name (str): Entity name of the organisation.&#10; &#160;&#160;&#160;abbreviation (Optional[str]): Abbreviated name of the organisation. Default is None.&#10; &#160;&#160;&#160;address (Optional[str]): Address of the organisation. Default is None.&#10; &#160;&#160;&#160;contact_name (Optional[str]): Name(s) of contact person(s) in the organisation. Default is None.&#10;">
<polygon fill="none" stroke="black" points="1023.5,-144 1023.5,-165 1186.5,-165 1186.5,-144 1023.5,-144"/>
<text text-anchor="start" x="1064.5" y="-151.8" font-family="Times New Roman,serif" font-weight="bold" font-size="14.00">Organisation</text>
<polygon fill="none" stroke="black" points="1023.5,-123 1023.5,-144 1108.5,-144 1108.5,-123 1023.5,-123"/>
<text text-anchor="start" x="1051" y="-129.8" font-family="Times New Roman,serif" font-size="14.00">name</text>
<polygon fill="none" stroke="black" points="1108.5,-123 1108.5,-144 1186.5,-144 1186.5,-123 1108.5,-123"/>
<text text-anchor="start" x="1140" y="-129.8" font-family="Times New Roman,serif" font-size="14.00">str</text>
<polygon fill="none" stroke="black" points="1023.5,-102 1023.5,-123 1108.5,-123 1108.5,-102 1023.5,-102"/>
<text text-anchor="start" x="1031.5" y="-108.8" font-family="Times New Roman,serif" font-size="14.00">abbreviation</text>
<polygon fill="none" stroke="black" points="1108.5,-102 1108.5,-123 1186.5,-123 1186.5,-102 1108.5,-102"/>
<text text-anchor="start" x="1111.5" y="-108.8" font-family="Times New Roman,serif" font-size="14.00">Optional[str]</text>
<polygon fill="none" stroke="black" points="1023.5,-81 1023.5,-102 1108.5,-102 1108.5,-81 1023.5,-81"/>
<text text-anchor="start" x="1044" y="-87.8" font-family="Times New Roman,serif" font-size="14.00">address</text>
<polygon fill="none" stroke="black" points="1108.5,-81 1108.5,-102 1186.5,-102 1186.5,-81 1108.5,-81"/>
<text text-anchor="start" x="1111.5" y="-87.8" font-family="Times New Roman,serif" font-size="14.00">Optional[str]</text>
<polygon fill="none" stroke="black" points="1023.5,-60 1023.5,-81 1108.5,-81 1108.5,-60 1023.5,-60"/>
<text text-anchor="start" x="1026.5" y="-66.8" font-family="Times New Roman,serif" font-size="14.00">contact_name</text>
<polygon fill="none" stroke="black" points="1108.5,-60 1108.5,-81 1186.5,-81 1186.5,-60 1108.5,-60"/>
<text text-anchor="start" x="1111.5" y="-66.8" font-family="Times New Roman,serif" font-size="14.00">Optional[str]</text>
</a>
</g>
</g>
<!-- eya_def_tools.data_models.reference_wind_farm.ReferenceWindFarm -->
<g id="node2" class="node">
<title>eya_def_tools.data_models.reference_wind_farm.ReferenceWindFarm</title>
<g id="a_node2"><a xlink:title="eya_def_tools.data_models.reference_wind_farm.ReferenceWindFarm&#10;&#10;Reference wind farm metadata.&#10;&#10;Attributes:&#10; &#160;&#160;&#160;reference_wind_farm_id (str): Unique ID for the reference wind farm within the EYA DEF document.&#10; &#160;&#160;&#160;wind_farm_configuration (WindFarmConfiguration): The configuration data for the reference wind farm.&#10; &#160;&#160;&#160;datasets (list[ReferenceWindFarmDataset]): Metadata for the operational dataset.&#10;">
<polygon fill="none" stroke="black" points="0.5,-341 0.5,-362 337.5,-362 337.5,-341 0.5,-341"/>
<text text-anchor="start" x="104" y="-348.8" font-family="Times New Roman,serif" font-weight="bold" font-size="14.00">ReferenceWindFarm</text>
<polygon fill="none" stroke="black" points="0.5,-320 0.5,-341 148.5,-341 148.5,-320 0.5,-320"/>
<text text-anchor="start" x="6" y="-326.8" font-family="Times New Roman,serif" font-size="14.00">reference_wind_farm_id</text>
<polygon fill="none" stroke="black" points="148.5,-320 148.5,-341 337.5,-341 337.5,-320 148.5,-320"/>
<text text-anchor="start" x="235.5" y="-326.8" font-family="Times New Roman,serif" font-size="14.00">str</text>
<polygon fill="none" stroke="black" points="0.5,-299 0.5,-320 148.5,-320 148.5,-299 0.5,-299"/>
<text text-anchor="start" x="3.5" y="-305.8" font-family="Times New Roman,serif" font-size="14.00">wind_farm_configuration</text>
<polygon fill="none" stroke="black" points="148.5,-299 148.5,-320 337.5,-320 337.5,-299 148.5,-299"/>
<text text-anchor="start" x="174.5" y="-305.8" font-family="Times New Roman,serif" font-size="14.00">WindFarmConfiguration</text>
<polygon fill="none" stroke="black" points="0.5,-278 0.5,-299 148.5,-299 148.5,-278 0.5,-278"/>
<text text-anchor="start" x="51.5" y="-284.8" font-family="Times New Roman,serif" font-size="14.00">datasets</text>
<polygon fill="none" stroke="black" points="148.5,-278 148.5,-299 337.5,-299 337.5,-278 148.5,-278"/>
<text text-anchor="start" x="151.5" y="-284.8" font-family="Times New Roman,serif" font-size="14.00">list[ReferenceWindFarmDataset]</text>
</a>
</g>
</g>
<!-- eya_def_tools.data_models.reference_wind_farm.ReferenceWindFarmDataset -->
<g id="node3" class="node">
<title>eya_def_tools.data_models.reference_wind_farm.ReferenceWindFarmDataset</title>
<g id="a_node3"><a xlink:title="eya_def_tools.data_models.reference_wind_farm.ReferenceWindFarmDataset&#10;&#10;Reference wind farm operational dataset metadata.&#10;&#10;Attributes:&#10; &#160;&#160;&#160;data_supplier_organisation (Organisation): The organisation that supplied the data.&#10; &#160;&#160;&#160;data_source_type (DataSourceType(StrEnum)): The type of the operational data source. Primary data, such as primary SCADA data, comes directly from the source without processing. Report data refers to data extracted from report document, such as monthly operational reports. Other secondary data comprises all other data source categories, such as secondary SCADA data provided in processed (harmonised) form by a data management service provider.&#10; &#160;&#160;&#160;data_level (OperationalDataLevel(StrEnum)): Whether the operational data is provided for each individual wind turbine, is aggregated at the wind farm level or corresponds to a different (&#39;other&#39;) unit such as an environmental measurement station.&#10; &#160;&#160;&#160;data_type (OperationalDataType(StrEnum)): The type of data in the operational data, categorised as &#39;scada&#39; for data from a Supervisory Control and Data Acquisition (SCADA) system, &#39;metered&#39; for data from a production meter, &#39;environmental_measurement&#39; for data from an (on&#45;site) environmental measurement station such as a meteorological mast or a remote sensing device (RSD) and &#39;other&#39; for any other type of unit.&#10; &#160;&#160;&#160;time_resolution (TimeResolution(StrEnum)): Time resolution of the data.&#10; &#160;&#160;&#160;data_period_start_date (date): Start of the data period in the ISO 8601 standard format for a calendar date, i.e. YYYY&#45;MM&#45;DD.&#10; &#160;&#160;&#160;data_period_end_date (date): End of the data period in the ISO 8601 standard format for a calendar date, i.e. YYYY&#45;MM&#45;DD.&#10;">
<polygon fill="none" stroke="black" points="471,-165 471,-186 812,-186 812,-165 471,-165"/>
<text text-anchor="start" x="553" y="-172.8" font-family="Times New Roman,serif" font-weight="bold" font-size="14.00">ReferenceWindFarmDataset</text>
<polygon fill="none" stroke="black" points="471,-144 471,-165 628,-165 628,-144 471,-144"/>
<text text-anchor="start" x="474" y="-150.8" font-family="Times New Roman,serif" font-size="14.00">data_supplier_organisation</text>
<polygon fill="none" stroke="black" points="628,-144 628,-165 812,-165 812,-144 628,-144"/>
<text text-anchor="start" x="684.5" y="-150.8" font-family="Times New Roman,serif" font-size="14.00">Organisation</text>
<polygon fill="none" stroke="black" points="471,-123 471,-144 628,-144 628,-123 471,-123"/>
<text text-anchor="start" x="499.5" y="-129.8" font-family="Times New Roman,serif" font-size="14.00">data_source_type</text>
<polygon fill="none" stroke="black" points="628,-123 628,-144 812,-144 812,-123 628,-123"/>
<text text-anchor="start" x="643.5" y="-129.8" font-family="Times New Roman,serif" font-size="14.00">DataSourceType(StrEnum)</text>
<polygon fill="none" stroke="black" points="471,-102 471,-123 628,-123 628,-102 471,-102"/>
<text text-anchor="start" x="521.5" y="-108.8" font-family="Times New Roman,serif" font-size="14.00">data_level</text>
<polygon fill="none" stroke="black" points="628,-102 628,-123 812,-123 812,-102 628,-102"/>
<text text-anchor="start" x="631" y="-108.8" font-family="Times New Roman,serif" font-size="14.00">OperationalDataLevel(StrEnum)</text>
<polygon fill="none" stroke="black" points="471,-81 471,-102 628,-102 628,-81 471,-81"/>
<text text-anchor="start" x="522" y="-87.8" font-family="Times New Roman,serif" font-size="14.00">data_type</text>
<polygon fill="none" stroke="black" points="628,-81 628,-102 812,-102 812,-81 628,-81"/>
<text text-anchor="start" x="631" y="-87.8" font-family="Times New Roman,serif" font-size="14.00">OperationalDataType(StrEnum)</text>
<polygon fill="none" stroke="black" points="471,-60 471,-81 628,-81 628,-60 471,-60"/>
<text text-anchor="start" x="506.5" y="-66.8" font-family="Times New Roman,serif" font-size="14.00">time_resolution</text>
<polygon fill="none" stroke="black" points="628,-60 628,-81 812,-81 812,-60 628,-60"/>
<text text-anchor="start" x="646.5" y="-66.8" font-family="Times New Roman,serif" font-size="14.00">TimeResolution(StrEnum)</text>
<polygon fill="none" stroke="black" points="471,-39 471,-60 628,-60 628,-39 471,-39"/>
<text text-anchor="start" x="484.5" y="-45.8" font-family="Times New Roman,serif" font-size="14.00">data_period_start_date</text>
<polygon fill="none" stroke="black" points="628,-39 628,-60 812,-60 812,-39 628,-39"/>
<text text-anchor="start" x="708" y="-45.8" font-family="Times New Roman,serif" font-size="14.00">date</text>
<polygon fill="none" stroke="black" points="471,-18 471,-39 628,-39 628,-18 471,-18"/>
<text text-anchor="start" x="486.5" y="-24.8" font-family="Times New Roman,serif" font-size="14.00">data_period_end_date</text>
<polygon fill="none" stroke="black" points="628,-18 628,-39 812,-39 812,-18 628,-18"/>
<text text-anchor="start" x="708" y="-24.8" font-family="Times New Roman,serif" font-size="14.00">date</text>
</a>
</g>
</g>
<!-- eya_def_tools.data_models.reference_wind_farm.ReferenceWindFarm&#45;&gt;eya_def_tools.data_models.reference_wind_farm.ReferenceWindFarmDataset -->
<g id="edge1" class="edge">
<title>eya_def_tools.data_models.reference_wind_farm.ReferenceWindFarm:e&#45;&gt;eya_def_tools.data_models.reference_wind_farm.ReferenceWindFarmDataset:w</title>
<path fill="none" stroke="black" d="M337,-288C407.34,-288 395.8,-195.22 451.42,-178.55"/>
<polygon fill="black" stroke="black" points="460.09,-177.36 470.61,-180.46 465.05,-176.68 470,-176 470,-176 470,-176 465.05,-176.68 469.39,-171.54 460.09,-177.36 460.09,-177.36"/>
<ellipse fill="none" stroke="black" cx="455.63" cy="-177.97" rx="4" ry="4"/>
</g>
<!-- eya_def_tools.data_models.wind_farm.WindFarmConfiguration -->
<g id="node4" class="node">
<title>eya_def_tools.data_models.wind_farm.WindFarmConfiguration</title>
<g id="a_node4"><a xlink:title="eya_def_tools.data_models.wind_farm.WindFarmConfiguration&#10;&#10;A collection of wind turbines considered as one unit (plant).&#10;&#10;Attributes:&#10; &#160;&#160;&#160;name (str): Name of the wind farm.&#10; &#160;&#160;&#160;label (Optional[str]): Abbreviated label of the wind farm. Default is None.&#10; &#160;&#160;&#160;description (Optional[str]): Description of the data object. Default is None.&#10; &#160;&#160;&#160;comments (Optional[str]): Comments on the data object. Default is None.&#10; &#160;&#160;&#160;turbines (list[TurbineConfiguration]): List of specifications for constituent turbines.&#10; &#160;&#160;&#160;relevance (WindFarmRelevance(StrEnum)): The relevance of the wind farm for the assessment.&#10; &#160;&#160;&#160;operational_lifetime_start_date (Optional[date]): Operational lifetime start date (format YYYY&#45;MM&#45;DD). Default is None.&#10; &#160;&#160;&#160;operational_lifetime_end_date (Optional[date]): Operational lifetime end date (format YYYY&#45;MM&#45;DD). Default is None.&#10; &#160;&#160;&#160;wind_farm_restrictions (Optional[list[OperationalRestriction]]): List of operational restrictions at the wind farm level. Default is None.&#10;">
<polygon fill="none" stroke="black" points="445,-411 445,-432 837,-432 837,-411 445,-411"/>
<text text-anchor="start" x="564.5" y="-418.8" font-family="Times New Roman,serif" font-weight="bold" font-size="14.00">WindFarmConfiguration</text>
<polygon fill="none" stroke="black" points="445,-390 445,-411 623,-411 623,-390 445,-390"/>
<text text-anchor="start" x="519" y="-396.8" font-family="Times New Roman,serif" font-size="14.00">name</text>
<polygon fill="none" stroke="black" points="623,-390 623,-411 837,-411 837,-390 623,-390"/>
<text text-anchor="start" x="722.5" y="-396.8" font-family="Times New Roman,serif" font-size="14.00">str</text>
<polygon fill="none" stroke="black" points="445,-369 445,-390 623,-390 623,-369 445,-369"/>
<text text-anchor="start" x="521" y="-375.8" font-family="Times New Roman,serif" font-size="14.00">label</text>
<polygon fill="none" stroke="black" points="623,-369 623,-390 837,-390 837,-369 623,-369"/>
<text text-anchor="start" x="694" y="-375.8" font-family="Times New Roman,serif" font-size="14.00">Optional[str]</text>
<polygon fill="none" stroke="black" points="445,-348 445,-369 623,-369 623,-348 445,-348"/>
<text text-anchor="start" x="502.5" y="-354.8" font-family="Times New Roman,serif" font-size="14.00">description</text>
<polygon fill="none" stroke="black" points="623,-348 623,-369 837,-369 837,-348 623,-348"/>
<text text-anchor="start" x="694" y="-354.8" font-family="Times New Roman,serif" font-size="14.00">Optional[str]</text>
<polygon fill="none" stroke="black" points="445,-327 445,-348 623,-348 623,-327 445,-327"/>
<text text-anchor="start" x="505" y="-333.8" font-family="Times New Roman,serif" font-size="14.00">comments</text>
<polygon fill="none" stroke="black" points="623,-327 623,-348 837,-348 837,-327 623,-327"/>
<text text-anchor="start" x="694" y="-333.8" font-family="Times New Roman,serif" font-size="14.00">Optional[str]</text>
<polygon fill="none" stroke="black" points="445,-306 445,-327 623,-327 623,-306 445,-306"/>
<text text-anchor="start" x="511.5" y="-312.8" font-family="Times New Roman,serif" font-size="14.00">turbines</text>
<polygon fill="none" stroke="black" points="623,-306 623,-327 837,-327 837,-306 623,-306"/>
<text text-anchor="start" x="657.5" y="-312.8" font-family="Times New Roman,serif" font-size="14.00">list[TurbineConfiguration]</text>
<polygon fill="none" stroke="black" points="445,-285 445,-306 623,-306 623,-285 445,-285"/>
<text text-anchor="start" x="508" y="-291.8" font-family="Times New Roman,serif" font-size="14.00">relevance</text>
<polygon fill="none" stroke="black" points="623,-285 623,-306 837,-306 837,-285 623,-285"/>
<text text-anchor="start" x="642.5" y="-291.8" font-family="Times New Roman,serif" font-size="14.00">WindFarmRelevance(StrEnum)</text>
<polygon fill="none" stroke="black" points="445,-264 445,-285 623,-285 623,-264 445,-264"/>
<text text-anchor="start" x="448" y="-270.8" font-family="Times New Roman,serif" font-size="14.00">operational_lifetime_start_date</text>
<polygon fill="none" stroke="black" points="623,-264 623,-285 837,-285 837,-264 623,-264"/>
<text text-anchor="start" x="689.5" y="-270.8" font-family="Times New Roman,serif" font-size="14.00">Optional[date]</text>
<polygon fill="none" stroke="black" points="445,-243 445,-264 623,-264 623,-243 445,-243"/>
<text text-anchor="start" x="450" y="-249.8" font-family="Times New Roman,serif" font-size="14.00">operational_lifetime_end_date</text>
<polygon fill="none" stroke="black" points="623,-243 623,-264 837,-264 837,-243 623,-243"/>
<text text-anchor="start" x="689.5" y="-249.8" font-family="Times New Roman,serif" font-size="14.00">Optional[date]</text>
<polygon fill="none" stroke="black" points="445,-222 445,-243 623,-243 623,-222 445,-222"/>
<text text-anchor="start" x="469" y="-228.8" font-family="Times New Roman,serif" font-size="14.00">wind_farm_restrictions</text>
<polygon fill="none" stroke="black" points="623,-222 623,-243 837,-243 837,-222 623,-222"/>
<text text-anchor="start" x="626" y="-228.8" font-family="Times New Roman,serif" font-size="14.00">Optional[list[OperationalRestriction]]</text>
</a>
</g>
</g>
<!-- eya_def_tools.data_models.reference_wind_farm.ReferenceWindFarm&#45;&gt;eya_def_tools.data_models.wind_farm.WindFarmConfiguration -->
<g id="edge2" class="edge">
<title>eya_def_tools.data_models.reference_wind_farm.ReferenceWindFarm:e&#45;&gt;eya_def_tools.data_models.wind_farm.WindFarmConfiguration:w</title>
<path fill="none" stroke="black" d="M337,-309C401.04,-309 379.75,-405.03 430.46,-420.04"/>
<polyline fill="none" stroke="black" points="445,-422 440.04,-421.33"/>
<polygon fill="black" stroke="black" points="439.72,-416.24 438.39,-426.15 436.4,-425.89 437.74,-415.98 439.72,-416.24"/>
<polyline fill="none" stroke="black" points="440.04,-421.33 435.09,-420.66"/>
<polygon fill="black" stroke="black" points="434.77,-415.57 433.43,-425.48 431.45,-425.22 432.79,-415.31 434.77,-415.57"/>
<polyline fill="none" stroke="black" points="435.09,-420.66 430.13,-419.99"/>
</g>
<!-- eya_def_tools.data_models.reference_wind_farm.ReferenceWindFarmDataset&#45;&gt;eya_def_tools.data_models.organisation.Organisation -->
<g id="edge3" class="edge">
<title>eya_def_tools.data_models.reference_wind_farm.ReferenceWindFarmDataset:e&#45;&gt;eya_def_tools.data_models.organisation.Organisation:w</title>
<path fill="none" stroke="black" d="M813,-155C900.93,-155 926.58,-155 1007.58,-155"/>
<polyline fill="none" stroke="black" points="1022.5,-155 1017.5,-155"/>
<polygon fill="black" stroke="black" points="1016.5,-150 1016.5,-160 1014.5,-160 1014.5,-150 1016.5,-150"/>
<polyline fill="none" stroke="black" points="1017.5,-155 1012.5,-155"/>
<polygon fill="black" stroke="black" points="1011.5,-150 1011.5,-160 1009.5,-160 1009.5,-150 1011.5,-150"/>
<polyline fill="none" stroke="black" points="1012.5,-155 1007.5,-155"/>
</g>
<!-- eya_def_tools.data_models.wind_farm.OperationalRestriction -->
<g id="node6" class="node">
<title>eya_def_tools.data_models.wind_farm.OperationalRestriction</title>
<g id="a_node6"><a xlink:title="eya_def_tools.data_models.wind_farm.OperationalRestriction&#10;&#10;Specifications of a restriction that limits power output.&#10;&#10;In the current draft of the schema, &#39;label&#39;, &#39;description&#39; and&#10;&#39;comments&#39; fields are available to describe the restriction with&#10;free text. This is intended to be expanded into a more comprehensive&#10;data model.&#10;&#10;Attributes:&#10; &#160;&#160;&#160;label (str): Short label to indicate the type of operational restriction.&#10; &#160;&#160;&#160;description (Optional[str]): Description of the data object. Default is None.&#10; &#160;&#160;&#160;comments (Optional[str]): Comments on the data object. Default is None.&#10;">
<polygon fill="none" stroke="black" points="1372,-215 1372,-236 1520,-236 1520,-215 1372,-215"/>
<text text-anchor="start" x="1375" y="-222.8" font-family="Times New Roman,serif" font-weight="bold" font-size="14.00">OperationalRestriction</text>
<polygon fill="none" stroke="black" points="1372,-194 1372,-215 1441,-215 1441,-194 1372,-194"/>
<text text-anchor="start" x="1393.5" y="-200.8" font-family="Times New Roman,serif" font-size="14.00">label</text>
<polygon fill="none" stroke="black" points="1441,-194 1441,-215 1520,-215 1520,-194 1441,-194"/>
<text text-anchor="start" x="1473" y="-200.8" font-family="Times New Roman,serif" font-size="14.00">str</text>
<polygon fill="none" stroke="black" points="1372,-173 1372,-194 1441,-194 1441,-173 1372,-173"/>
<text text-anchor="start" x="1375" y="-179.8" font-family="Times New Roman,serif" font-size="14.00">description</text>
<polygon fill="none" stroke="black" points="1441,-173 1441,-194 1520,-194 1520,-173 1441,-173"/>
<text text-anchor="start" x="1444.5" y="-179.8" font-family="Times New Roman,serif" font-size="14.00">Optional[str]</text>
<polygon fill="none" stroke="black" points="1372,-152 1372,-173 1441,-173 1441,-152 1372,-152"/>
<text text-anchor="start" x="1377.5" y="-158.8" font-family="Times New Roman,serif" font-size="14.00">comments</text>
<polygon fill="none" stroke="black" points="1441,-152 1441,-173 1520,-173 1520,-152 1441,-152"/>
<text text-anchor="start" x="1444.5" y="-158.8" font-family="Times New Roman,serif" font-size="14.00">Optional[str]</text>
</a>
</g>
</g>
<!-- eya_def_tools.data_models.wind_farm.WindFarmConfiguration&#45;&gt;eya_def_tools.data_models.wind_farm.OperationalRestriction -->
<g id="edge6" class="edge">
<title>eya_def_tools.data_models.wind_farm.WindFarmConfiguration:e&#45;&gt;eya_def_tools.data_models.wind_farm.OperationalRestriction:w</title>
<path fill="none" stroke="black" d="M837,-232C1068.41,-232 1130.89,-226.32 1353.22,-226.01"/>
<polygon fill="black" stroke="black" points="1362,-226.01 1372,-230.5 1367,-226 1372,-226 1372,-226 1372,-226 1367,-226 1372,-221.5 1362,-226.01 1362,-226.01"/>
<ellipse fill="none" stroke="black" cx="1357.5" cy="-226.01" rx="4" ry="4"/>
</g>
<!-- eya_def_tools.data_models.wind_farm.TurbineConfiguration -->
<g id="node7" class="node">
<title>eya_def_tools.data_models.wind_farm.TurbineConfiguration</title>
<g id="a_node7"><a xlink:title="eya_def_tools.data_models.wind_farm.TurbineConfiguration&#10;&#10;Specification of all details for a turbine configuration.&#10;&#10;Attributes:&#10; &#160;&#160;&#160;turbine_id (Optional[str]): Unique identifier of the turbine specification. Default is None.&#10; &#160;&#160;&#160;label (str): Label of the turbine.&#10; &#160;&#160;&#160;description (Optional[str]): Description of the data object. Default is None.&#10; &#160;&#160;&#160;comments (Optional[str]): Comments on the data object. Default is None.&#10; &#160;&#160;&#160;location (Location): Horizontal location of the turbine.&#10; &#160;&#160;&#160;hub_height (float): Turbine hub height.&#10; &#160;&#160;&#160;turbine_model_id (str): Unique identifier of the turbine model.&#10; &#160;&#160;&#160;restrictions (Optional[list[OperationalRestriction]]): List of operational restrictions at the turbine level. Default is None.&#10;">
<polygon fill="none" stroke="black" points="945.5,-449 945.5,-470 1264.5,-470 1264.5,-449 945.5,-449"/>
<text text-anchor="start" x="1037.5" y="-456.8" font-family="Times New Roman,serif" font-weight="bold" font-size="14.00">TurbineConfiguration</text>
<polygon fill="none" stroke="black" points="945.5,-428 945.5,-449 1050.5,-449 1050.5,-428 945.5,-428"/>
<text text-anchor="start" x="969.5" y="-434.8" font-family="Times New Roman,serif" font-size="14.00">turbine_id</text>
<polygon fill="none" stroke="black" points="1050.5,-428 1050.5,-449 1264.5,-449 1264.5,-428 1050.5,-428"/>
<text text-anchor="start" x="1121.5" y="-434.8" font-family="Times New Roman,serif" font-size="14.00">Optional[str]</text>
<polygon fill="none" stroke="black" points="945.5,-407 945.5,-428 1050.5,-428 1050.5,-407 945.5,-407"/>
<text text-anchor="start" x="985" y="-413.8" font-family="Times New Roman,serif" font-size="14.00">label</text>
<polygon fill="none" stroke="black" points="1050.5,-407 1050.5,-428 1264.5,-428 1264.5,-407 1050.5,-407"/>
<text text-anchor="start" x="1150" y="-413.8" font-family="Times New Roman,serif" font-size="14.00">str</text>
<polygon fill="none" stroke="black" points="945.5,-386 945.5,-407 1050.5,-407 1050.5,-386 945.5,-386"/>
<text text-anchor="start" x="966.5" y="-392.8" font-family="Times New Roman,serif" font-size="14.00">description</text>
<polygon fill="none" stroke="black" points="1050.5,-386 1050.5,-407 1264.5,-407 1264.5,-386 1050.5,-386"/>
<text text-anchor="start" x="1121.5" y="-392.8" font-family="Times New Roman,serif" font-size="14.00">Optional[str]</text>
<polygon fill="none" stroke="black" points="945.5,-365 945.5,-386 1050.5,-386 1050.5,-365 945.5,-365"/>
<text text-anchor="start" x="969" y="-371.8" font-family="Times New Roman,serif" font-size="14.00">comments</text>
<polygon fill="none" stroke="black" points="1050.5,-365 1050.5,-386 1264.5,-386 1264.5,-365 1050.5,-365"/>
<text text-anchor="start" x="1121.5" y="-371.8" font-family="Times New Roman,serif" font-size="14.00">Optional[str]</text>
<polygon fill="none" stroke="black" points="945.5,-344 945.5,-365 1050.5,-365 1050.5,-344 945.5,-344"/>
<text text-anchor="start" x="975.5" y="-350.8" font-family="Times New Roman,serif" font-size="14.00">location</text>
<polygon fill="none" stroke="black" points="1050.5,-344 1050.5,-365 1264.5,-365 1264.5,-344 1050.5,-344"/>
<text text-anchor="start" x="1132.5" y="-350.8" font-family="Times New Roman,serif" font-size="14.00">Location</text>
<polygon fill="none" stroke="black" points="945.5,-323 945.5,-344 1050.5,-344 1050.5,-323 945.5,-323"/>
<text text-anchor="start" x="967" y="-329.8" font-family="Times New Roman,serif" font-size="14.00">hub_height</text>
<polygon fill="none" stroke="black" points="1050.5,-323 1050.5,-344 1264.5,-344 1264.5,-323 1050.5,-323"/>
<text text-anchor="start" x="1145" y="-329.8" font-family="Times New Roman,serif" font-size="14.00">float</text>
<polygon fill="none" stroke="black" points="945.5,-302 945.5,-323 1050.5,-323 1050.5,-302 945.5,-302"/>
<text text-anchor="start" x="948.5" y="-308.8" font-family="Times New Roman,serif" font-size="14.00">turbine_model_id</text>
<polygon fill="none" stroke="black" points="1050.5,-302 1050.5,-323 1264.5,-323 1264.5,-302 1050.5,-302"/>
<text text-anchor="start" x="1150" y="-308.8" font-family="Times New Roman,serif" font-size="14.00">str</text>
<polygon fill="none" stroke="black" points="945.5,-281 945.5,-302 1050.5,-302 1050.5,-281 945.5,-281"/>
<text text-anchor="start" x="967" y="-287.8" font-family="Times New Roman,serif" font-size="14.00">restrictions</text>
<polygon fill="none" stroke="black" points="1050.5,-281 1050.5,-302 1264.5,-302 1264.5,-281 1050.5,-281"/>
<text text-anchor="start" x="1053.5" y="-287.8" font-family="Times New Roman,serif" font-size="14.00">Optional[list[OperationalRestriction]]</text>
</a>
</g>
</g>
<!-- eya_def_tools.data_models.wind_farm.WindFarmConfiguration&#45;&gt;eya_def_tools.data_models.wind_farm.TurbineConfiguration -->
<g id="edge7" class="edge">
<title>eya_def_tools.data_models.wind_farm.WindFarmConfiguration:e&#45;&gt;eya_def_tools.data_models.wind_farm.TurbineConfiguration:w</title>
<path fill="none" stroke="black" d="M837,-316C909.81,-316 873.28,-435.29 926.44,-456.72"/>
<polygon fill="black" stroke="black" points="935.15,-458.26 944.22,-464.43 940.08,-459.13 945,-460 945,-460 945,-460 940.08,-459.13 945.78,-455.57 935.15,-458.26 935.15,-458.26"/>
<ellipse fill="none" stroke="black" cx="930.72" cy="-457.48" rx="4" ry="4"/>
</g>
<!-- eya_def_tools.data_models.spatial.Location -->
<g id="node5" class="node">
<title>eya_def_tools.data_models.spatial.Location</title>
<g id="a_node5"><a xlink:title="eya_def_tools.data_models.spatial.Location&#10;&#10;Specification of a horizontal location in space.&#10;&#10;Attributes:&#10; &#160;&#160;&#160;location_id (Optional[str]): Unique identifier of the location. Default is None.&#10; &#160;&#160;&#160;label (Optional[str]): Label of the location. Default is None.&#10; &#160;&#160;&#160;description (Optional[str]): Description of the data object. Default is None.&#10; &#160;&#160;&#160;comments (Optional[str]): Comments on the data object. Default is None.&#10; &#160;&#160;&#160;x (float): Location x&#45;coordinate (typically easing).&#10; &#160;&#160;&#160;y (float): Location y&#45;coordinate (typically northing).&#10;">
<polygon fill="none" stroke="black" points="1373,-398 1373,-419 1520,-419 1520,-398 1373,-398"/>
<text text-anchor="start" x="1419" y="-405.8" font-family="Times New Roman,serif" font-weight="bold" font-size="14.00">Location</text>
<polygon fill="none" stroke="black" points="1373,-377 1373,-398 1442,-398 1442,-377 1373,-377"/>
<text text-anchor="start" x="1376" y="-383.8" font-family="Times New Roman,serif" font-size="14.00">location_id</text>
<polygon fill="none" stroke="black" points="1442,-377 1442,-398 1520,-398 1520,-377 1442,-377"/>
<text text-anchor="start" x="1445" y="-383.8" font-family="Times New Roman,serif" font-size="14.00">Optional[str]</text>
<polygon fill="none" stroke="black" points="1373,-356 1373,-377 1442,-377 1442,-356 1373,-356"/>
<text text-anchor="start" x="1394.5" y="-362.8" font-family="Times New Roman,serif" font-size="14.00">label</text>
<polygon fill="none" stroke="black" points="1442,-356 1442,-377 1520,-377 1520,-356 1442,-356"/>
<text text-anchor="start" x="1445" y="-362.8" font-family="Times New Roman,serif" font-size="14.00">Optional[str]</text>
<polygon fill="none" stroke="black" points="1373,-335 1373,-356 1442,-356 1442,-335 1373,-335"/>
<text text-anchor="start" x="1376" y="-341.8" font-family="Times New Roman,serif" font-size="14.00">description</text>
<polygon fill="none" stroke="black" points="1442,-335 1442,-356 1520,-356 1520,-335 1442,-335"/>
<text text-anchor="start" x="1445" y="-341.8" font-family="Times New Roman,serif" font-size="14.00">Optional[str]</text>
<polygon fill="none" stroke="black" points="1373,-314 1373,-335 1442,-335 1442,-314 1373,-314"/>
<text text-anchor="start" x="1378.5" y="-320.8" font-family="Times New Roman,serif" font-size="14.00">comments</text>
<polygon fill="none" stroke="black" points="1442,-314 1442,-335 1520,-335 1520,-314 1442,-314"/>
<text text-anchor="start" x="1445" y="-320.8" font-family="Times New Roman,serif" font-size="14.00">Optional[str]</text>
<polygon fill="none" stroke="black" points="1373,-293 1373,-314 1442,-314 1442,-293 1373,-293"/>
<text text-anchor="start" x="1404" y="-299.8" font-family="Times New Roman,serif" font-size="14.00">x</text>
<polygon fill="none" stroke="black" points="1442,-293 1442,-314 1520,-314 1520,-293 1442,-293"/>
<text text-anchor="start" x="1468.5" y="-299.8" font-family="Times New Roman,serif" font-size="14.00">float</text>
<polygon fill="none" stroke="black" points="1373,-272 1373,-293 1442,-293 1442,-272 1373,-272"/>
<text text-anchor="start" x="1404" y="-278.8" font-family="Times New Roman,serif" font-size="14.00">y</text>
<polygon fill="none" stroke="black" points="1442,-272 1442,-293 1520,-293 1520,-272 1442,-272"/>
<text text-anchor="start" x="1468.5" y="-278.8" font-family="Times New Roman,serif" font-size="14.00">float</text>
</a>
</g>
</g>
<!-- eya_def_tools.data_models.wind_farm.TurbineConfiguration&#45;&gt;eya_def_tools.data_models.spatial.Location -->
<g id="edge4" class="edge">
<title>eya_def_tools.data_models.wind_farm.TurbineConfiguration:e&#45;&gt;eya_def_tools.data_models.spatial.Location:w</title>
<path fill="none" stroke="black" d="M1264,-354C1312.4,-354 1317.53,-398.4 1357.13,-407.41"/>
<polyline fill="none" stroke="black" points="1372,-409 1367.03,-408.47"/>
<polygon fill="black" stroke="black" points="1366.56,-403.39 1365.5,-413.33 1363.51,-413.12 1364.58,-403.18 1366.56,-403.39"/>
<polyline fill="none" stroke="black" points="1367.03,-408.47 1362.06,-407.94"/>
<polygon fill="black" stroke="black" points="1361.59,-402.86 1360.53,-412.8 1358.54,-412.59 1359.6,-402.65 1361.59,-402.86"/>
<polyline fill="none" stroke="black" points="1362.06,-407.94 1357.08,-407.41"/>
</g>
<!-- eya_def_tools.data_models.wind_farm.TurbineConfiguration&#45;&gt;eya_def_tools.data_models.wind_farm.OperationalRestriction -->
<g id="edge5" class="edge">
<title>eya_def_tools.data_models.wind_farm.TurbineConfiguration:e&#45;&gt;eya_def_tools.data_models.wind_farm.OperationalRestriction:w</title>
<path fill="none" stroke="black" d="M1264,-291C1313.02,-291 1316.05,-241.23 1353.57,-228.79"/>
<polygon fill="black" stroke="black" points="1362.11,-227.5 1372.67,-230.45 1367.06,-226.75 1372,-226 1372,-226 1372,-226 1367.06,-226.75 1371.33,-221.55 1362.11,-227.5 1362.11,-227.5"/>
<ellipse fill="none" stroke="black" cx="1357.66" cy="-228.17" rx="4" ry="4"/>
</g>
</g>
</svg>
