<?xml version="1.0" encoding="UTF-8" standalone="no"?>
<!DOCTYPE svg PUBLIC "-//W3C//DTD SVG 1.1//EN"
 "http://www.w3.org/Graphics/SVG/1.1/DTD/svg11.dtd">
<!-- Generated by graphviz version 7.0.4 (20221203.1631)
 -->
<!-- Title: Entity Relationship Diagram Pages: 1 -->
<svg width="1528pt" height="437pt"
 viewBox="0.00 0.00 1528.00 436.50" xmlns="http://www.w3.org/2000/svg" xmlns:xlink="http://www.w3.org/1999/xlink">
<g id="graph0" class="graph" transform="scale(1 1) rotate(0) translate(4 432.5)">
<title>Entity Relationship Diagram</title>
<polygon fill="white" stroke="none" points="-4,4 -4,-432.5 1524,-432.5 1524,4 -4,4"/>
<text text-anchor="middle" x="760" y="-6.8" font-family="Times New Roman,serif" font-size="9.00" fill="#a8a8a8">Created by erdantic v0.5.0 &lt;https://github.com/drivendataorg/erdantic&gt;</text>
<!-- eya_def_tools.data_models.organisation.Organisation -->
<g id="node1" class="node">
<title>eya_def_tools.data_models.organisation.Organisation</title>
<g id="a_node1"><a xlink:title="eya_def_tools.data_models.organisation.Organisation&#10;&#10;Issuing or receiving organisation of an energy yield assessment.&#10;&#10;Attributes:&#10; &#160;&#160;&#160;name (str): Entity name of the organisation.&#10; &#160;&#160;&#160;abbreviation (Optional[str]): Abbreviated name of the organisation. Default is None.&#10; &#160;&#160;&#160;address (Optional[str]): Address of the organisation. Default is None.&#10; &#160;&#160;&#160;contact_name (Optional[str]): Name(s) of contact person(s) in the organisation. Default is None.&#10;">
<polygon fill="none" stroke="black" points="1023.5,-102 1023.5,-123 1186.5,-123 1186.5,-102 1023.5,-102"/>
<text text-anchor="start" x="1064.5" y="-109.8" font-family="Times New Roman,serif" font-weight="bold" font-size="14.00">Organisation</text>
<polygon fill="none" stroke="black" points="1023.5,-81 1023.5,-102 1108.5,-102 1108.5,-81 1023.5,-81"/>
<text text-anchor="start" x="1051" y="-87.8" font-family="Times New Roman,serif" font-size="14.00">name</text>
<polygon fill="none" stroke="black" points="1108.5,-81 1108.5,-102 1186.5,-102 1186.5,-81 1108.5,-81"/>
<text text-anchor="start" x="1140" y="-87.8" font-family="Times New Roman,serif" font-size="14.00">str</text>
<polygon fill="none" stroke="black" points="1023.5,-60 1023.5,-81 1108.5,-81 1108.5,-60 1023.5,-60"/>
<text text-anchor="start" x="1031.5" y="-66.8" font-family="Times New Roman,serif" font-size="14.00">abbreviation</text>
<polygon fill="none" stroke="black" points="1108.5,-60 1108.5,-81 1186.5,-81 1186.5,-60 1108.5,-60"/>
<text text-anchor="start" x="1111.5" y="-66.8" font-family="Times New Roman,serif" font-size="14.00">Optional[str]</text>
<polygon fill="none" stroke="black" points="1023.5,-39 1023.5,-60 1108.5,-60 1108.5,-39 1023.5,-39"/>
<text text-anchor="start" x="1044" y="-45.8" font-family="Times New Roman,serif" font-size="14.00">address</text>
<polygon fill="none" stroke="black" points="1108.5,-39 1108.5,-60 1186.5,-60 1186.5,-39 1108.5,-39"/>
<text text-anchor="start" x="1111.5" y="-45.8" font-family="Times New Roman,serif" font-size="14.00">Optional[str]</text>
<polygon fill="none" stroke="black" points="1023.5,-18 1023.5,-39 1108.5,-39 1108.5,-18 1023.5,-18"/>
<text text-anchor="start" x="1026.5" y="-24.8" font-family="Times New Roman,serif" font-size="14.00">contact_name</text>
<polygon fill="none" stroke="black" points="1108.5,-18 1108.5,-39 1186.5,-39 1186.5,-18 1108.5,-18"/>
<text text-anchor="start" x="1111.5" y="-24.8" font-family="Times New Roman,serif" font-size="14.00">Optional[str]</text>
</a>
</g>
</g>
<!-- eya_def_tools.data_models.reference_wind_farm.ReferenceWindFarm -->
<g id="node2" class="node">
<title>eya_def_tools.data_models.reference_wind_farm.ReferenceWindFarm</title>
<g id="a_node2"><a xlink:title="eya_def_tools.data_models.reference_wind_farm.ReferenceWindFarm&#10;&#10;Reference wind farm metadata.&#10;&#10;Attributes:&#10; &#160;&#160;&#160;reference_wind_farm_id (str): Unique ID for the reference wind farm within the EYA DEF document.&#10; &#160;&#160;&#160;wind_farm_configuration (WindFarmConfiguration): The configuration data for the reference wind farm.&#10; &#160;&#160;&#160;datasets (list[ReferenceWindFarmDataset]): Metadata for the operational dataset.&#10;">
<polygon fill="none" stroke="black" points="0.5,-299 0.5,-320 337.5,-320 337.5,-299 0.5,-299"/>
<text text-anchor="start" x="104" y="-306.8" font-family="Times New Roman,serif" font-weight="bold" font-size="14.00">ReferenceWindFarm</text>
<polygon fill="none" stroke="black" points="0.5,-278 0.5,-299 148.5,-299 148.5,-278 0.5,-278"/>
<text text-anchor="start" x="6" y="-284.8" font-family="Times New Roman,serif" font-size="14.00">reference_wind_farm_id</text>
<polygon fill="none" stroke="black" points="148.5,-278 148.5,-299 337.5,-299 337.5,-278 148.5,-278"/>
<text text-anchor="start" x="235.5" y="-284.8" font-family="Times New Roman,serif" font-size="14.00">str</text>
<polygon fill="none" stroke="black" points="0.5,-257 0.5,-278 148.5,-278 148.5,-257 0.5,-257"/>
<text text-anchor="start" x="3.5" y="-263.8" font-family="Times New Roman,serif" font-size="14.00">wind_farm_configuration</text>
<polygon fill="none" stroke="black" points="148.5,-257 148.5,-278 337.5,-278 337.5,-257 148.5,-257"/>
<text text-anchor="start" x="174.5" y="-263.8" font-family="Times New Roman,serif" font-size="14.00">WindFarmConfiguration</text>
<polygon fill="none" stroke="black" points="0.5,-236 0.5,-257 148.5,-257 148.5,-236 0.5,-236"/>
<text text-anchor="start" x="51.5" y="-242.8" font-family="Times New Roman,serif" font-size="14.00">datasets</text>
<polygon fill="none" stroke="black" points="148.5,-236 148.5,-257 337.5,-257 337.5,-236 148.5,-236"/>
<text text-anchor="start" x="151.5" y="-242.8" font-family="Times New Roman,serif" font-size="14.00">list[ReferenceWindFarmDataset]</text>
</a>
</g>
</g>
<!-- eya_def_tools.data_models.reference_wind_farm.ReferenceWindFarmDataset -->
<g id="node3" class="node">
<title>eya_def_tools.data_models.reference_wind_farm.ReferenceWindFarmDataset</title>
<g id="a_node3"><a xlink:title="eya_def_tools.data_models.reference_wind_farm.ReferenceWindFarmDataset&#10;&#10;Reference wind farm operational dataset metadata.&#10;&#10;Attributes:&#10; &#160;&#160;&#160;data_supplier_organisation (Organisation): The organisation that supplied the data.&#10; &#160;&#160;&#160;data_type (OperationalDataType(StrEnum)): The type of the operational data. Primary SCADA data refers to data originating directly from the turbine OEM SCADA system. Secondary SCADA data is provided by a data management service provider who has processed the primary SCADA data and often makes it available in a harmonised format independent of OEM. Metered production refers to quantities measured by the project revenue meter.&#10; &#160;&#160;&#160;time_resolution (TimeResolution(StrEnum)): Time resolution of the data.&#10; &#160;&#160;&#160;data_period_start_date (date): Start of the data period in the ISO 8601 standard format for a calendar date, i.e. YYYY&#45;MM&#45;DD.&#10; &#160;&#160;&#160;data_period_end_date (date): End of the data period in the ISO 8601 standard format for a calendar date, i.e. YYYY&#45;MM&#45;DD.&#10;">
<polygon fill="none" stroke="black" points="471,-123 471,-144 812,-144 812,-123 471,-123"/>
<text text-anchor="start" x="553" y="-130.8" font-family="Times New Roman,serif" font-weight="bold" font-size="14.00">ReferenceWindFarmDataset</text>
<polygon fill="none" stroke="black" points="471,-102 471,-123 628,-123 628,-102 471,-102"/>
<text text-anchor="start" x="474" y="-108.8" font-family="Times New Roman,serif" font-size="14.00">data_supplier_organisation</text>
<polygon fill="none" stroke="black" points="628,-102 628,-123 812,-123 812,-102 628,-102"/>
<text text-anchor="start" x="684.5" y="-108.8" font-family="Times New Roman,serif" font-size="14.00">Organisation</text>
<polygon fill="none" stroke="black" points="471,-81 471,-102 628,-102 628,-81 471,-81"/>
<text text-anchor="start" x="522" y="-87.8" font-family="Times New Roman,serif" font-size="14.00">data_type</text>
<polygon fill="none" stroke="black" points="628,-81 628,-102 812,-102 812,-81 628,-81"/>
<text text-anchor="start" x="631" y="-87.8" font-family="Times New Roman,serif" font-size="14.00">OperationalDataType(StrEnum)</text>
<polygon fill="none" stroke="black" points="471,-60 471,-81 628,-81 628,-60 471,-60"/>
<text text-anchor="start" x="506.5" y="-66.8" font-family="Times New Roman,serif" font-size="14.00">time_resolution</text>
<polygon fill="none" stroke="black" points="628,-60 628,-81 812,-81 812,-60 628,-60"/>
<text text-anchor="start" x="646.5" y="-66.8" font-family="Times New Roman,serif" font-size="14.00">TimeResolution(StrEnum)</text>
<polygon fill="none" stroke="black" points="471,-39 471,-60 628,-60 628,-39 471,-39"/>
<text text-anchor="start" x="484.5" y="-45.8" font-family="Times New Roman,serif" font-size="14.00">data_period_start_date</text>
<polygon fill="none" stroke="black" points="628,-39 628,-60 812,-60 812,-39 628,-39"/>
<text text-anchor="start" x="708" y="-45.8" font-family="Times New Roman,serif" font-size="14.00">date</text>
<polygon fill="none" stroke="black" points="471,-18 471,-39 628,-39 628,-18 471,-18"/>
<text text-anchor="start" x="486.5" y="-24.8" font-family="Times New Roman,serif" font-size="14.00">data_period_end_date</text>
<polygon fill="none" stroke="black" points="628,-18 628,-39 812,-39 812,-18 628,-18"/>
<text text-anchor="start" x="708" y="-24.8" font-family="Times New Roman,serif" font-size="14.00">date</text>
</a>
</g>
</g>
<!-- eya_def_tools.data_models.reference_wind_farm.ReferenceWindFarm&#45;&gt;eya_def_tools.data_models.reference_wind_farm.ReferenceWindFarmDataset -->
<g id="edge1" class="edge">
<title>eya_def_tools.data_models.reference_wind_farm.ReferenceWindFarm:e&#45;&gt;eya_def_tools.data_models.reference_wind_farm.ReferenceWindFarmDataset:w</title>
<path fill="none" stroke="black" d="M337,-246C407.34,-246 395.8,-153.22 451.42,-136.55"/>
<polygon fill="black" stroke="black" points="460.09,-135.36 470.61,-138.46 465.05,-134.68 470,-134 470,-134 470,-134 465.05,-134.68 469.39,-129.54 460.09,-135.36 460.09,-135.36"/>
<ellipse fill="none" stroke="black" cx="455.63" cy="-135.97" rx="4" ry="4"/>
</g>
<!-- eya_def_tools.data_models.wind_farm.WindFarmConfiguration -->
<g id="node4" class="node">
<title>eya_def_tools.data_models.wind_farm.WindFarmConfiguration</title>
<g id="a_node4"><a xlink:title="eya_def_tools.data_models.wind_farm.WindFarmConfiguration&#10;&#10;A collection of wind turbines considered as one unit (plant).&#10;&#10;Attributes:&#10; &#160;&#160;&#160;name (str): Name of the wind farm.&#10; &#160;&#160;&#160;label (Optional[str]): Abbreviated label of the wind farm. Default is None.&#10; &#160;&#160;&#160;description (Optional[str]): Description of the data object. Default is None.&#10; &#160;&#160;&#160;comments (Optional[str]): Comments on the data object. Default is None.&#10; &#160;&#160;&#160;turbines (list[TurbineConfiguration]): List of specifications for constituent turbines.&#10; &#160;&#160;&#160;relevance (WindFarmRelevance(StrEnum)): The relevance of the wind farm for the assessment.&#10; &#160;&#160;&#160;operational_lifetime_start_date (Optional[date]): Operational lifetime start date (format YYYY&#45;MM&#45;DD). Default is None.&#10; &#160;&#160;&#160;operational_lifetime_end_date (Optional[date]): Operational lifetime end date (format YYYY&#45;MM&#45;DD). Default is None.&#10; &#160;&#160;&#160;wind_farm_restrictions (Optional[list[OperationalRestriction]]): List of operational restrictions at the wind farm level. Default is None.&#10;">
<polygon fill="none" stroke="black" points="445,-369 445,-390 837,-390 837,-369 445,-369"/>
<text text-anchor="start" x="564.5" y="-376.8" font-family="Times New Roman,serif" font-weight="bold" font-size="14.00">WindFarmConfiguration</text>
<polygon fill="none" stroke="black" points="445,-348 445,-369 623,-369 623,-348 445,-348"/>
<text text-anchor="start" x="519" y="-354.8" font-family="Times New Roman,serif" font-size="14.00">name</text>
<polygon fill="none" stroke="black" points="623,-348 623,-369 837,-369 837,-348 623,-348"/>
<text text-anchor="start" x="722.5" y="-354.8" font-family="Times New Roman,serif" font-size="14.00">str</text>
<polygon fill="none" stroke="black" points="445,-327 445,-348 623,-348 623,-327 445,-327"/>
<text text-anchor="start" x="521" y="-333.8" font-family="Times New Roman,serif" font-size="14.00">label</text>
<polygon fill="none" stroke="black" points="623,-327 623,-348 837,-348 837,-327 623,-327"/>
<text text-anchor="start" x="694" y="-333.8" font-family="Times New Roman,serif" font-size="14.00">Optional[str]</text>
<polygon fill="none" stroke="black" points="445,-306 445,-327 623,-327 623,-306 445,-306"/>
<text text-anchor="start" x="502.5" y="-312.8" font-family="Times New Roman,serif" font-size="14.00">description</text>
<polygon fill="none" stroke="black" points="623,-306 623,-327 837,-327 837,-306 623,-306"/>
<text text-anchor="start" x="694" y="-312.8" font-family="Times New Roman,serif" font-size="14.00">Optional[str]</text>
<polygon fill="none" stroke="black" points="445,-285 445,-306 623,-306 623,-285 445,-285"/>
<text text-anchor="start" x="505" y="-291.8" font-family="Times New Roman,serif" font-size="14.00">comments</text>
<polygon fill="none" stroke="black" points="623,-285 623,-306 837,-306 837,-285 623,-285"/>
<text text-anchor="start" x="694" y="-291.8" font-family="Times New Roman,serif" font-size="14.00">Optional[str]</text>
<polygon fill="none" stroke="black" points="445,-264 445,-285 623,-285 623,-264 445,-264"/>
<text text-anchor="start" x="511.5" y="-270.8" font-family="Times New Roman,serif" font-size="14.00">turbines</text>
<polygon fill="none" stroke="black" points="623,-264 623,-285 837,-285 837,-264 623,-264"/>
<text text-anchor="start" x="657.5" y="-270.8" font-family="Times New Roman,serif" font-size="14.00">list[TurbineConfiguration]</text>
<polygon fill="none" stroke="black" points="445,-243 445,-264 623,-264 623,-243 445,-243"/>
<text text-anchor="start" x="508" y="-249.8" font-family="Times New Roman,serif" font-size="14.00">relevance</text>
<polygon fill="none" stroke="black" points="623,-243 623,-264 837,-264 837,-243 623,-243"/>
<text text-anchor="start" x="642.5" y="-249.8" font-family="Times New Roman,serif" font-size="14.00">WindFarmRelevance(StrEnum)</text>
<polygon fill="none" stroke="black" points="445,-222 445,-243 623,-243 623,-222 445,-222"/>
<text text-anchor="start" x="448" y="-228.8" font-family="Times New Roman,serif" font-size="14.00">operational_lifetime_start_date</text>
<polygon fill="none" stroke="black" points="623,-222 623,-243 837,-243 837,-222 623,-222"/>
<text text-anchor="start" x="689.5" y="-228.8" font-family="Times New Roman,serif" font-size="14.00">Optional[date]</text>
<polygon fill="none" stroke="black" points="445,-201 445,-222 623,-222 623,-201 445,-201"/>
<text text-anchor="start" x="450" y="-207.8" font-family="Times New Roman,serif" font-size="14.00">operational_lifetime_end_date</text>
<polygon fill="none" stroke="black" points="623,-201 623,-222 837,-222 837,-201 623,-201"/>
<text text-anchor="start" x="689.5" y="-207.8" font-family="Times New Roman,serif" font-size="14.00">Optional[date]</text>
<polygon fill="none" stroke="black" points="445,-180 445,-201 623,-201 623,-180 445,-180"/>
<text text-anchor="start" x="469" y="-186.8" font-family="Times New Roman,serif" font-size="14.00">wind_farm_restrictions</text>
<polygon fill="none" stroke="black" points="623,-180 623,-201 837,-201 837,-180 623,-180"/>
<text text-anchor="start" x="626" y="-186.8" font-family="Times New Roman,serif" font-size="14.00">Optional[list[OperationalRestriction]]</text>
</a>
</g>
</g>
<!-- eya_def_tools.data_models.reference_wind_farm.ReferenceWindFarm&#45;&gt;eya_def_tools.data_models.wind_farm.WindFarmConfiguration -->
<g id="edge2" class="edge">
<title>eya_def_tools.data_models.reference_wind_farm.ReferenceWindFarm:e&#45;&gt;eya_def_tools.data_models.wind_farm.WindFarmConfiguration:w</title>
<path fill="none" stroke="black" d="M337,-267C401.04,-267 379.75,-363.03 430.46,-378.04"/>
<polyline fill="none" stroke="black" points="445,-380 440.04,-379.33"/>
<polygon fill="black" stroke="black" points="439.72,-374.24 438.39,-384.15 436.4,-383.89 437.74,-373.98 439.72,-374.24"/>
<polyline fill="none" stroke="black" points="440.04,-379.33 435.09,-378.66"/>
<polygon fill="black" stroke="black" points="434.77,-373.57 433.43,-383.48 431.45,-383.22 432.79,-373.31 434.77,-373.57"/>
<polyline fill="none" stroke="black" points="435.09,-378.66 430.13,-377.99"/>
</g>
<!-- eya_def_tools.data_models.reference_wind_farm.ReferenceWindFarmDataset&#45;&gt;eya_def_tools.data_models.organisation.Organisation -->
<g id="edge3" class="edge">
<title>eya_def_tools.data_models.reference_wind_farm.ReferenceWindFarmDataset:e&#45;&gt;eya_def_tools.data_models.organisation.Organisation:w</title>
<path fill="none" stroke="black" d="M813,-113C900.93,-113 926.58,-113 1007.58,-113"/>
<polyline fill="none" stroke="black" points="1022.5,-113 1017.5,-113"/>
<polygon fill="black" stroke="black" points="1016.5,-108 1016.5,-118 1014.5,-118 1014.5,-108 1016.5,-108"/>
<polyline fill="none" stroke="black" points="1017.5,-113 1012.5,-113"/>
<polygon fill="black" stroke="black" points="1011.5,-108 1011.5,-118 1009.5,-118 1009.5,-108 1011.5,-108"/>
<polyline fill="none" stroke="black" points="1012.5,-113 1007.5,-113"/>
</g>
<!-- eya_def_tools.data_models.wind_farm.OperationalRestriction -->
<g id="node6" class="node">
<title>eya_def_tools.data_models.wind_farm.OperationalRestriction</title>
<g id="a_node6"><a xlink:title="eya_def_tools.data_models.wind_farm.OperationalRestriction&#10;&#10;Specifications of a restriction that limits power output.&#10;&#10;In the current draft of the schema, &#39;label&#39;, &#39;description&#39; and&#10;&#39;comments&#39; fields are available to describe the restriction with&#10;free text. This is intended to be expanded into a more comprehensive&#10;data model.&#10;&#10;Attributes:&#10; &#160;&#160;&#160;label (str): Short label to indicate the type of operational restriction.&#10; &#160;&#160;&#160;description (Optional[str]): Description of the data object. Default is None.&#10; &#160;&#160;&#160;comments (Optional[str]): Comments on the data object. Default is None.&#10;">
<polygon fill="none" stroke="black" points="1372,-173 1372,-194 1520,-194 1520,-173 1372,-173"/>
<text text-anchor="start" x="1375" y="-180.8" font-family="Times New Roman,serif" font-weight="bold" font-size="14.00">OperationalRestriction</text>
<polygon fill="none" stroke="black" points="1372,-152 1372,-173 1441,-173 1441,-152 1372,-152"/>
<text text-anchor="start" x="1393.5" y="-158.8" font-family="Times New Roman,serif" font-size="14.00">label</text>
<polygon fill="none" stroke="black" points="1441,-152 1441,-173 1520,-173 1520,-152 1441,-152"/>
<text text-anchor="start" x="1473" y="-158.8" font-family="Times New Roman,serif" font-size="14.00">str</text>
<polygon fill="none" stroke="black" points="1372,-131 1372,-152 1441,-152 1441,-131 1372,-131"/>
<text text-anchor="start" x="1375" y="-137.8" font-family="Times New Roman,serif" font-size="14.00">description</text>
<polygon fill="none" stroke="black" points="1441,-131 1441,-152 1520,-152 1520,-131 1441,-131"/>
<text text-anchor="start" x="1444.5" y="-137.8" font-family="Times New Roman,serif" font-size="14.00">Optional[str]</text>
<polygon fill="none" stroke="black" points="1372,-110 1372,-131 1441,-131 1441,-110 1372,-110"/>
<text text-anchor="start" x="1377.5" y="-116.8" font-family="Times New Roman,serif" font-size="14.00">comments</text>
<polygon fill="none" stroke="black" points="1441,-110 1441,-131 1520,-131 1520,-110 1441,-110"/>
<text text-anchor="start" x="1444.5" y="-116.8" font-family="Times New Roman,serif" font-size="14.00">Optional[str]</text>
</a>
</g>
</g>
<!-- eya_def_tools.data_models.wind_farm.WindFarmConfiguration&#45;&gt;eya_def_tools.data_models.wind_farm.OperationalRestriction -->
<g id="edge6" class="edge">
<title>eya_def_tools.data_models.wind_farm.WindFarmConfiguration:e&#45;&gt;eya_def_tools.data_models.wind_farm.OperationalRestriction:w</title>
<path fill="none" stroke="black" d="M837,-190C1068.41,-190 1130.89,-184.32 1353.22,-184.01"/>
<polygon fill="black" stroke="black" points="1362,-184.01 1372,-188.5 1367,-184 1372,-184 1372,-184 1372,-184 1367,-184 1372,-179.5 1362,-184.01 1362,-184.01"/>
<ellipse fill="none" stroke="black" cx="1357.5" cy="-184.01" rx="4" ry="4"/>
</g>
<!-- eya_def_tools.data_models.wind_farm.TurbineConfiguration -->
<g id="node7" class="node">
<title>eya_def_tools.data_models.wind_farm.TurbineConfiguration</title>
<g id="a_node7"><a xlink:title="eya_def_tools.data_models.wind_farm.TurbineConfiguration&#10;&#10;Specification of all details for a turbine configuration.&#10;&#10;Attributes:&#10; &#160;&#160;&#160;turbine_id (Optional[str]): Unique identifier of the turbine specification. Default is None.&#10; &#160;&#160;&#160;label (str): Label of the turbine.&#10; &#160;&#160;&#160;description (Optional[str]): Description of the data object. Default is None.&#10; &#160;&#160;&#160;comments (Optional[str]): Comments on the data object. Default is None.&#10; &#160;&#160;&#160;location (Location): Horizontal location of the turbine.&#10; &#160;&#160;&#160;hub_height (float): Turbine hub height.&#10; &#160;&#160;&#160;turbine_model_id (str): Unique identifier of the turbine model.&#10; &#160;&#160;&#160;restrictions (Optional[list[OperationalRestriction]]): List of operational restrictions at the turbine level. Default is None.&#10;">
<polygon fill="none" stroke="black" points="945.5,-407 945.5,-428 1264.5,-428 1264.5,-407 945.5,-407"/>
<text text-anchor="start" x="1037.5" y="-414.8" font-family="Times New Roman,serif" font-weight="bold" font-size="14.00">TurbineConfiguration</text>
<polygon fill="none" stroke="black" points="945.5,-386 945.5,-407 1050.5,-407 1050.5,-386 945.5,-386"/>
<text text-anchor="start" x="969.5" y="-392.8" font-family="Times New Roman,serif" font-size="14.00">turbine_id</text>
<polygon fill="none" stroke="black" points="1050.5,-386 1050.5,-407 1264.5,-407 1264.5,-386 1050.5,-386"/>
<text text-anchor="start" x="1121.5" y="-392.8" font-family="Times New Roman,serif" font-size="14.00">Optional[str]</text>
<polygon fill="none" stroke="black" points="945.5,-365 945.5,-386 1050.5,-386 1050.5,-365 945.5,-365"/>
<text text-anchor="start" x="985" y="-371.8" font-family="Times New Roman,serif" font-size="14.00">label</text>
<polygon fill="none" stroke="black" points="1050.5,-365 1050.5,-386 1264.5,-386 1264.5,-365 1050.5,-365"/>
<text text-anchor="start" x="1150" y="-371.8" font-family="Times New Roman,serif" font-size="14.00">str</text>
<polygon fill="none" stroke="black" points="945.5,-344 945.5,-365 1050.5,-365 1050.5,-344 945.5,-344"/>
<text text-anchor="start" x="966.5" y="-350.8" font-family="Times New Roman,serif" font-size="14.00">description</text>
<polygon fill="none" stroke="black" points="1050.5,-344 1050.5,-365 1264.5,-365 1264.5,-344 1050.5,-344"/>
<text text-anchor="start" x="1121.5" y="-350.8" font-family="Times New Roman,serif" font-size="14.00">Optional[str]</text>
<polygon fill="none" stroke="black" points="945.5,-323 945.5,-344 1050.5,-344 1050.5,-323 945.5,-323"/>
<text text-anchor="start" x="969" y="-329.8" font-family="Times New Roman,serif" font-size="14.00">comments</text>
<polygon fill="none" stroke="black" points="1050.5,-323 1050.5,-344 1264.5,-344 1264.5,-323 1050.5,-323"/>
<text text-anchor="start" x="1121.5" y="-329.8" font-family="Times New Roman,serif" font-size="14.00">Optional[str]</text>
<polygon fill="none" stroke="black" points="945.5,-302 945.5,-323 1050.5,-323 1050.5,-302 945.5,-302"/>
<text text-anchor="start" x="975.5" y="-308.8" font-family="Times New Roman,serif" font-size="14.00">location</text>
<polygon fill="none" stroke="black" points="1050.5,-302 1050.5,-323 1264.5,-323 1264.5,-302 1050.5,-302"/>
<text text-anchor="start" x="1132.5" y="-308.8" font-family="Times New Roman,serif" font-size="14.00">Location</text>
<polygon fill="none" stroke="black" points="945.5,-281 945.5,-302 1050.5,-302 1050.5,-281 945.5,-281"/>
<text text-anchor="start" x="967" y="-287.8" font-family="Times New Roman,serif" font-size="14.00">hub_height</text>
<polygon fill="none" stroke="black" points="1050.5,-281 1050.5,-302 1264.5,-302 1264.5,-281 1050.5,-281"/>
<text text-anchor="start" x="1145" y="-287.8" font-family="Times New Roman,serif" font-size="14.00">float</text>
<polygon fill="none" stroke="black" points="945.5,-260 945.5,-281 1050.5,-281 1050.5,-260 945.5,-260"/>
<text text-anchor="start" x="948.5" y="-266.8" font-family="Times New Roman,serif" font-size="14.00">turbine_model_id</text>
<polygon fill="none" stroke="black" points="1050.5,-260 1050.5,-281 1264.5,-281 1264.5,-260 1050.5,-260"/>
<text text-anchor="start" x="1150" y="-266.8" font-family="Times New Roman,serif" font-size="14.00">str</text>
<polygon fill="none" stroke="black" points="945.5,-239 945.5,-260 1050.5,-260 1050.5,-239 945.5,-239"/>
<text text-anchor="start" x="967" y="-245.8" font-family="Times New Roman,serif" font-size="14.00">restrictions</text>
<polygon fill="none" stroke="black" points="1050.5,-239 1050.5,-260 1264.5,-260 1264.5,-239 1050.5,-239"/>
<text text-anchor="start" x="1053.5" y="-245.8" font-family="Times New Roman,serif" font-size="14.00">Optional[list[OperationalRestriction]]</text>
</a>
</g>
</g>
<!-- eya_def_tools.data_models.wind_farm.WindFarmConfiguration&#45;&gt;eya_def_tools.data_models.wind_farm.TurbineConfiguration -->
<g id="edge7" class="edge">
<title>eya_def_tools.data_models.wind_farm.WindFarmConfiguration:e&#45;&gt;eya_def_tools.data_models.wind_farm.TurbineConfiguration:w</title>
<path fill="none" stroke="black" d="M837,-274C909.81,-274 873.28,-393.29 926.44,-414.72"/>
<polygon fill="black" stroke="black" points="935.15,-416.26 944.22,-422.43 940.08,-417.13 945,-418 945,-418 945,-418 940.08,-417.13 945.78,-413.57 935.15,-416.26 935.15,-416.26"/>
<ellipse fill="none" stroke="black" cx="930.72" cy="-415.48" rx="4" ry="4"/>
</g>
<!-- eya_def_tools.data_models.spatial.Location -->
<g id="node5" class="node">
<title>eya_def_tools.data_models.spatial.Location</title>
<g id="a_node5"><a xlink:title="eya_def_tools.data_models.spatial.Location&#10;&#10;Specification of a horizontal location in space.&#10;&#10;Attributes:&#10; &#160;&#160;&#160;location_id (Optional[str]): Unique identifier of the location. Default is None.&#10; &#160;&#160;&#160;label (Optional[str]): Label of the location. Default is None.&#10; &#160;&#160;&#160;description (Optional[str]): Description of the data object. Default is None.&#10; &#160;&#160;&#160;comments (Optional[str]): Comments on the data object. Default is None.&#10; &#160;&#160;&#160;x (float): Location x&#45;coordinate (typically easing).&#10; &#160;&#160;&#160;y (float): Location y&#45;coordinate (typically northing).&#10;">
<polygon fill="none" stroke="black" points="1373,-356 1373,-377 1520,-377 1520,-356 1373,-356"/>
<text text-anchor="start" x="1419" y="-363.8" font-family="Times New Roman,serif" font-weight="bold" font-size="14.00">Location</text>
<polygon fill="none" stroke="black" points="1373,-335 1373,-356 1442,-356 1442,-335 1373,-335"/>
<text text-anchor="start" x="1376" y="-341.8" font-family="Times New Roman,serif" font-size="14.00">location_id</text>
<polygon fill="none" stroke="black" points="1442,-335 1442,-356 1520,-356 1520,-335 1442,-335"/>
<text text-anchor="start" x="1445" y="-341.8" font-family="Times New Roman,serif" font-size="14.00">Optional[str]</text>
<polygon fill="none" stroke="black" points="1373,-314 1373,-335 1442,-335 1442,-314 1373,-314"/>
<text text-anchor="start" x="1394.5" y="-320.8" font-family="Times New Roman,serif" font-size="14.00">label</text>
<polygon fill="none" stroke="black" points="1442,-314 1442,-335 1520,-335 1520,-314 1442,-314"/>
<text text-anchor="start" x="1445" y="-320.8" font-family="Times New Roman,serif" font-size="14.00">Optional[str]</text>
<polygon fill="none" stroke="black" points="1373,-293 1373,-314 1442,-314 1442,-293 1373,-293"/>
<text text-anchor="start" x="1376" y="-299.8" font-family="Times New Roman,serif" font-size="14.00">description</text>
<polygon fill="none" stroke="black" points="1442,-293 1442,-314 1520,-314 1520,-293 1442,-293"/>
<text text-anchor="start" x="1445" y="-299.8" font-family="Times New Roman,serif" font-size="14.00">Optional[str]</text>
<polygon fill="none" stroke="black" points="1373,-272 1373,-293 1442,-293 1442,-272 1373,-272"/>
<text text-anchor="start" x="1378.5" y="-278.8" font-family="Times New Roman,serif" font-size="14.00">comments</text>
<polygon fill="none" stroke="black" points="1442,-272 1442,-293 1520,-293 1520,-272 1442,-272"/>
<text text-anchor="start" x="1445" y="-278.8" font-family="Times New Roman,serif" font-size="14.00">Optional[str]</text>
<polygon fill="none" stroke="black" points="1373,-251 1373,-272 1442,-272 1442,-251 1373,-251"/>
<text text-anchor="start" x="1404" y="-257.8" font-family="Times New Roman,serif" font-size="14.00">x</text>
<polygon fill="none" stroke="black" points="1442,-251 1442,-272 1520,-272 1520,-251 1442,-251"/>
<text text-anchor="start" x="1468.5" y="-257.8" font-family="Times New Roman,serif" font-size="14.00">float</text>
<polygon fill="none" stroke="black" points="1373,-230 1373,-251 1442,-251 1442,-230 1373,-230"/>
<text text-anchor="start" x="1404" y="-236.8" font-family="Times New Roman,serif" font-size="14.00">y</text>
<polygon fill="none" stroke="black" points="1442,-230 1442,-251 1520,-251 1520,-230 1442,-230"/>
<text text-anchor="start" x="1468.5" y="-236.8" font-family="Times New Roman,serif" font-size="14.00">float</text>
</a>
</g>
</g>
<!-- eya_def_tools.data_models.wind_farm.TurbineConfiguration&#45;&gt;eya_def_tools.data_models.spatial.Location -->
<g id="edge4" class="edge">
<title>eya_def_tools.data_models.wind_farm.TurbineConfiguration:e&#45;&gt;eya_def_tools.data_models.spatial.Location:w</title>
<path fill="none" stroke="black" d="M1264,-312C1312.4,-312 1317.53,-356.4 1357.13,-365.41"/>
<polyline fill="none" stroke="black" points="1372,-367 1367.03,-366.47"/>
<polygon fill="black" stroke="black" points="1366.56,-361.39 1365.5,-371.33 1363.51,-371.12 1364.58,-361.18 1366.56,-361.39"/>
<polyline fill="none" stroke="black" points="1367.03,-366.47 1362.06,-365.94"/>
<polygon fill="black" stroke="black" points="1361.59,-360.86 1360.53,-370.8 1358.54,-370.59 1359.6,-360.65 1361.59,-360.86"/>
<polyline fill="none" stroke="black" points="1362.06,-365.94 1357.08,-365.41"/>
</g>
<!-- eya_def_tools.data_models.wind_farm.TurbineConfiguration&#45;&gt;eya_def_tools.data_models.wind_farm.OperationalRestriction -->
<g id="edge5" class="edge">
<title>eya_def_tools.data_models.wind_farm.TurbineConfiguration:e&#45;&gt;eya_def_tools.data_models.wind_farm.OperationalRestriction:w</title>
<path fill="none" stroke="black" d="M1264,-249C1313.02,-249 1316.05,-199.23 1353.57,-186.79"/>
<polygon fill="black" stroke="black" points="1362.11,-185.5 1372.67,-188.45 1367.06,-184.75 1372,-184 1372,-184 1372,-184 1367.06,-184.75 1371.33,-179.55 1362.11,-185.5 1362.11,-185.5"/>
<ellipse fill="none" stroke="black" cx="1357.66" cy="-186.17" rx="4" ry="4"/>
</g>
</g>
</svg>
