<?xml version="1.0" encoding="UTF-8" standalone="no"?>
<!DOCTYPE svg PUBLIC "-//W3C//DTD SVG 1.1//EN"
 "http://www.w3.org/Graphics/SVG/1.1/DTD/svg11.dtd">
<!-- Generated by graphviz version 7.0.4 (20221203.1631)
 -->
<!-- Title: Entity Relationship Diagram Pages: 1 -->
<svg width="1528pt" height="651pt"
 viewBox="0.00 0.00 1528.00 651.00" xmlns="http://www.w3.org/2000/svg" xmlns:xlink="http://www.w3.org/1999/xlink">
<g id="graph0" class="graph" transform="scale(1 1) rotate(0) translate(4 647)">
<title>Entity Relationship Diagram</title>
<polygon fill="white" stroke="none" points="-4,4 -4,-647 1524,-647 1524,4 -4,4"/>
<text text-anchor="middle" x="760" y="-6.8" font-family="Times New Roman,serif" font-size="9.00" fill="#a8a8a8">Created by erdantic v0.5.0 &lt;https://github.com/drivendataorg/erdantic&gt;</text>
<!-- eya_def_tools.data_models.organisation.Organisation -->
<g id="node1" class="node">
<title>eya_def_tools.data_models.organisation.Organisation</title>
<g id="a_node1"><a xlink:title="eya_def_tools.data_models.organisation.Organisation&#10;&#10;Issuing or receiving organisation of an energy yield assessment.&#10;&#10;Attributes:&#10; &#160;&#160;&#160;name (str): Entity name of the organisation.&#10; &#160;&#160;&#160;abbreviation (Optional[str]): Abbreviated name of the organisation. Default is None.&#10; &#160;&#160;&#160;address (Optional[str]): Address of the organisation. Default is None.&#10; &#160;&#160;&#160;contact_name (Optional[str]): Name(s) of contact person(s) in the organisation. Default is None.&#10;">
<polygon fill="none" stroke="black" points="1023.5,-284.5 1023.5,-305.5 1186.5,-305.5 1186.5,-284.5 1023.5,-284.5"/>
<text text-anchor="start" x="1064.5" y="-292.3" font-family="Times New Roman,serif" font-weight="bold" font-size="14.00">Organisation</text>
<polygon fill="none" stroke="black" points="1023.5,-263.5 1023.5,-284.5 1108.5,-284.5 1108.5,-263.5 1023.5,-263.5"/>
<text text-anchor="start" x="1051" y="-270.3" font-family="Times New Roman,serif" font-size="14.00">name</text>
<polygon fill="none" stroke="black" points="1108.5,-263.5 1108.5,-284.5 1186.5,-284.5 1186.5,-263.5 1108.5,-263.5"/>
<text text-anchor="start" x="1140" y="-270.3" font-family="Times New Roman,serif" font-size="14.00">str</text>
<polygon fill="none" stroke="black" points="1023.5,-242.5 1023.5,-263.5 1108.5,-263.5 1108.5,-242.5 1023.5,-242.5"/>
<text text-anchor="start" x="1031.5" y="-249.3" font-family="Times New Roman,serif" font-size="14.00">abbreviation</text>
<polygon fill="none" stroke="black" points="1108.5,-242.5 1108.5,-263.5 1186.5,-263.5 1186.5,-242.5 1108.5,-242.5"/>
<text text-anchor="start" x="1111.5" y="-249.3" font-family="Times New Roman,serif" font-size="14.00">Optional[str]</text>
<polygon fill="none" stroke="black" points="1023.5,-221.5 1023.5,-242.5 1108.5,-242.5 1108.5,-221.5 1023.5,-221.5"/>
<text text-anchor="start" x="1044" y="-228.3" font-family="Times New Roman,serif" font-size="14.00">address</text>
<polygon fill="none" stroke="black" points="1108.5,-221.5 1108.5,-242.5 1186.5,-242.5 1186.5,-221.5 1108.5,-221.5"/>
<text text-anchor="start" x="1111.5" y="-228.3" font-family="Times New Roman,serif" font-size="14.00">Optional[str]</text>
<polygon fill="none" stroke="black" points="1023.5,-200.5 1023.5,-221.5 1108.5,-221.5 1108.5,-200.5 1023.5,-200.5"/>
<text text-anchor="start" x="1026.5" y="-207.3" font-family="Times New Roman,serif" font-size="14.00">contact_name</text>
<polygon fill="none" stroke="black" points="1108.5,-200.5 1108.5,-221.5 1186.5,-221.5 1186.5,-200.5 1108.5,-200.5"/>
<text text-anchor="start" x="1111.5" y="-207.3" font-family="Times New Roman,serif" font-size="14.00">Optional[str]</text>
</a>
</g>
</g>
<!-- eya_def_tools.data_models.reference_wind_farm.ReferenceWindFarm -->
<g id="node2" class="node">
<title>eya_def_tools.data_models.reference_wind_farm.ReferenceWindFarm</title>
<g id="a_node2"><a xlink:title="eya_def_tools.data_models.reference_wind_farm.ReferenceWindFarm&#10;&#10;Reference wind farm metadata.&#10;&#10;Attributes:&#10; &#160;&#160;&#160;reference_wind_farm_id (str): Unique ID for the reference wind farm within the EYA DEF document.&#10; &#160;&#160;&#160;description (Optional[str]): Description of the data object. Default is None.&#10; &#160;&#160;&#160;comments (Optional[str]): Comments on the data object. Default is None.&#10; &#160;&#160;&#160;wind_farm_configuration (WindFarmConfiguration): The configuration data for the reference wind farm.&#10; &#160;&#160;&#160;datasets (list[ReferenceWindFarmDataset]): Metadata for the operational dataset.&#10;">
<polygon fill="none" stroke="black" points="0.5,-568.5 0.5,-589.5 337.5,-589.5 337.5,-568.5 0.5,-568.5"/>
<text text-anchor="start" x="104" y="-576.3" font-family="Times New Roman,serif" font-weight="bold" font-size="14.00">ReferenceWindFarm</text>
<polygon fill="none" stroke="black" points="0.5,-547.5 0.5,-568.5 148.5,-568.5 148.5,-547.5 0.5,-547.5"/>
<text text-anchor="start" x="6" y="-554.3" font-family="Times New Roman,serif" font-size="14.00">reference_wind_farm_id</text>
<polygon fill="none" stroke="black" points="148.5,-547.5 148.5,-568.5 337.5,-568.5 337.5,-547.5 148.5,-547.5"/>
<text text-anchor="start" x="235.5" y="-554.3" font-family="Times New Roman,serif" font-size="14.00">str</text>
<polygon fill="none" stroke="black" points="0.5,-526.5 0.5,-547.5 148.5,-547.5 148.5,-526.5 0.5,-526.5"/>
<text text-anchor="start" x="43" y="-533.3" font-family="Times New Roman,serif" font-size="14.00">description</text>
<polygon fill="none" stroke="black" points="148.5,-526.5 148.5,-547.5 337.5,-547.5 337.5,-526.5 148.5,-526.5"/>
<text text-anchor="start" x="207" y="-533.3" font-family="Times New Roman,serif" font-size="14.00">Optional[str]</text>
<polygon fill="none" stroke="black" points="0.5,-505.5 0.5,-526.5 148.5,-526.5 148.5,-505.5 0.5,-505.5"/>
<text text-anchor="start" x="45.5" y="-512.3" font-family="Times New Roman,serif" font-size="14.00">comments</text>
<polygon fill="none" stroke="black" points="148.5,-505.5 148.5,-526.5 337.5,-526.5 337.5,-505.5 148.5,-505.5"/>
<text text-anchor="start" x="207" y="-512.3" font-family="Times New Roman,serif" font-size="14.00">Optional[str]</text>
<polygon fill="none" stroke="black" points="0.5,-484.5 0.5,-505.5 148.5,-505.5 148.5,-484.5 0.5,-484.5"/>
<text text-anchor="start" x="3.5" y="-491.3" font-family="Times New Roman,serif" font-size="14.00">wind_farm_configuration</text>
<polygon fill="none" stroke="black" points="148.5,-484.5 148.5,-505.5 337.5,-505.5 337.5,-484.5 148.5,-484.5"/>
<text text-anchor="start" x="174.5" y="-491.3" font-family="Times New Roman,serif" font-size="14.00">WindFarmConfiguration</text>
<polygon fill="none" stroke="black" points="0.5,-463.5 0.5,-484.5 148.5,-484.5 148.5,-463.5 0.5,-463.5"/>
<text text-anchor="start" x="51.5" y="-470.3" font-family="Times New Roman,serif" font-size="14.00">datasets</text>
<polygon fill="none" stroke="black" points="148.5,-463.5 148.5,-484.5 337.5,-484.5 337.5,-463.5 148.5,-463.5"/>
<text text-anchor="start" x="151.5" y="-470.3" font-family="Times New Roman,serif" font-size="14.00">list[ReferenceWindFarmDataset]</text>
</a>
</g>
</g>
<!-- eya_def_tools.data_models.reference_wind_farm.ReferenceWindFarmDataset -->
<g id="node3" class="node">
<title>eya_def_tools.data_models.reference_wind_farm.ReferenceWindFarmDataset</title>
<g id="a_node3"><a xlink:title="eya_def_tools.data_models.reference_wind_farm.ReferenceWindFarmDataset&#10;&#10;Reference wind farm operational dataset metadata.&#10;&#10;Attributes:&#10; &#160;&#160;&#160;label (Optional[str]): Label of the reference wind farm dataset.&#10; &#160;&#160;&#160;description (Optional[str]): Description of the data object. Default is None.&#10; &#160;&#160;&#160;comments (Optional[str]): Comments on the data object. Default is None.&#10; &#160;&#160;&#160;data_supplier_organisation (Organisation): The organisation that supplied the data.&#10; &#160;&#160;&#160;data_type (OperationalDataType(StrEnum)): The type of data in the operational data, categorised as &#39;scada&#39; for data from a Supervisory Control and Data Acquisition (SCADA) system, &#39;metered&#39; for data from a production meter, &#39;environmental_measurement&#39; for data from an (on&#45;site) environmental measurement station such as a meteorological mast or a remote sensing device (RSD) and &#39;other&#39; for any other type of unit.&#10; &#160;&#160;&#160;data_source_type (DataSourceType(StrEnum)): The type of the operational data source. Primary data, such as primary SCADA data, comes directly from the source without processing. Report data refers to data extracted from report document, such as monthly operational reports. Other secondary data comprises all other data source categories, such as secondary SCADA data provided in processed (harmonised) form by a data management service provider.&#10; &#160;&#160;&#160;used_data_variables (list[ReferenceWindFarmDataVariable]): A list of the types of data variables included in this dataset and used in the assessment. For a large dataset (such as a full wind turbine SCADA dataset) this field should not include all the variables but only the ones that were used in the analysis.&#10; &#160;&#160;&#160;time_resolution (TimeResolution(StrEnum)): Time resolution of the data.&#10; &#160;&#160;&#160;data_period_start_date (date): Start of the data period in the ISO 8601 standard format for a calendar date, i.e. YYYY&#45;MM&#45;DD.&#10; &#160;&#160;&#160;data_period_end_date (date): End of the data period in the ISO 8601 standard format for a calendar date, i.e. YYYY&#45;MM&#45;DD.&#10;">
<polygon fill="none" stroke="black" points="453,-349.5 453,-370.5 829,-370.5 829,-349.5 453,-349.5"/>
<text text-anchor="start" x="552.5" y="-357.3" font-family="Times New Roman,serif" font-weight="bold" font-size="14.00">ReferenceWindFarmDataset</text>
<polygon fill="none" stroke="black" points="453,-328.5 453,-349.5 610,-349.5 610,-328.5 453,-328.5"/>
<text text-anchor="start" x="518.5" y="-335.3" font-family="Times New Roman,serif" font-size="14.00">label</text>
<polygon fill="none" stroke="black" points="610,-328.5 610,-349.5 829,-349.5 829,-328.5 610,-328.5"/>
<text text-anchor="start" x="683.5" y="-335.3" font-family="Times New Roman,serif" font-size="14.00">Optional[str]</text>
<polygon fill="none" stroke="black" points="453,-307.5 453,-328.5 610,-328.5 610,-307.5 453,-307.5"/>
<text text-anchor="start" x="500" y="-314.3" font-family="Times New Roman,serif" font-size="14.00">description</text>
<polygon fill="none" stroke="black" points="610,-307.5 610,-328.5 829,-328.5 829,-307.5 610,-307.5"/>
<text text-anchor="start" x="683.5" y="-314.3" font-family="Times New Roman,serif" font-size="14.00">Optional[str]</text>
<polygon fill="none" stroke="black" points="453,-286.5 453,-307.5 610,-307.5 610,-286.5 453,-286.5"/>
<text text-anchor="start" x="502.5" y="-293.3" font-family="Times New Roman,serif" font-size="14.00">comments</text>
<polygon fill="none" stroke="black" points="610,-286.5 610,-307.5 829,-307.5 829,-286.5 610,-286.5"/>
<text text-anchor="start" x="683.5" y="-293.3" font-family="Times New Roman,serif" font-size="14.00">Optional[str]</text>
<polygon fill="none" stroke="black" points="453,-265.5 453,-286.5 610,-286.5 610,-265.5 453,-265.5"/>
<text text-anchor="start" x="456" y="-272.3" font-family="Times New Roman,serif" font-size="14.00">data_supplier_organisation</text>
<polygon fill="none" stroke="black" points="610,-265.5 610,-286.5 829,-286.5 829,-265.5 610,-265.5"/>
<text text-anchor="start" x="684" y="-272.3" font-family="Times New Roman,serif" font-size="14.00">Organisation</text>
<polygon fill="none" stroke="black" points="453,-244.5 453,-265.5 610,-265.5 610,-244.5 453,-244.5"/>
<text text-anchor="start" x="504" y="-251.3" font-family="Times New Roman,serif" font-size="14.00">data_type</text>
<polygon fill="none" stroke="black" points="610,-244.5 610,-265.5 829,-265.5 829,-244.5 610,-244.5"/>
<text text-anchor="start" x="630.5" y="-251.3" font-family="Times New Roman,serif" font-size="14.00">OperationalDataType(StrEnum)</text>
<polygon fill="none" stroke="black" points="453,-223.5 453,-244.5 610,-244.5 610,-223.5 453,-223.5"/>
<text text-anchor="start" x="481.5" y="-230.3" font-family="Times New Roman,serif" font-size="14.00">data_source_type</text>
<polygon fill="none" stroke="black" points="610,-223.5 610,-244.5 829,-244.5 829,-223.5 610,-223.5"/>
<text text-anchor="start" x="643" y="-230.3" font-family="Times New Roman,serif" font-size="14.00">DataSourceType(StrEnum)</text>
<polygon fill="none" stroke="black" points="453,-202.5 453,-223.5 610,-223.5 610,-202.5 453,-202.5"/>
<text text-anchor="start" x="474.5" y="-209.3" font-family="Times New Roman,serif" font-size="14.00">used_data_variables</text>
<polygon fill="none" stroke="black" points="610,-202.5 610,-223.5 829,-223.5 829,-202.5 610,-202.5"/>
<text text-anchor="start" x="613" y="-209.3" font-family="Times New Roman,serif" font-size="14.00">list[ReferenceWindFarmDataVariable]</text>
<polygon fill="none" stroke="black" points="453,-181.5 453,-202.5 610,-202.5 610,-181.5 453,-181.5"/>
<text text-anchor="start" x="488.5" y="-188.3" font-family="Times New Roman,serif" font-size="14.00">time_resolution</text>
<polygon fill="none" stroke="black" points="610,-181.5 610,-202.5 829,-202.5 829,-181.5 610,-181.5"/>
<text text-anchor="start" x="646" y="-188.3" font-family="Times New Roman,serif" font-size="14.00">TimeResolution(StrEnum)</text>
<polygon fill="none" stroke="black" points="453,-160.5 453,-181.5 610,-181.5 610,-160.5 453,-160.5"/>
<text text-anchor="start" x="466.5" y="-167.3" font-family="Times New Roman,serif" font-size="14.00">data_period_start_date</text>
<polygon fill="none" stroke="black" points="610,-160.5 610,-181.5 829,-181.5 829,-160.5 610,-160.5"/>
<text text-anchor="start" x="707.5" y="-167.3" font-family="Times New Roman,serif" font-size="14.00">date</text>
<polygon fill="none" stroke="black" points="453,-139.5 453,-160.5 610,-160.5 610,-139.5 453,-139.5"/>
<text text-anchor="start" x="468.5" y="-146.3" font-family="Times New Roman,serif" font-size="14.00">data_period_end_date</text>
<polygon fill="none" stroke="black" points="610,-139.5 610,-160.5 829,-160.5 829,-139.5 610,-139.5"/>
<text text-anchor="start" x="707.5" y="-146.3" font-family="Times New Roman,serif" font-size="14.00">date</text>
</a>
</g>
</g>
<!-- eya_def_tools.data_models.reference_wind_farm.ReferenceWindFarm&#45;&gt;eya_def_tools.data_models.reference_wind_farm.ReferenceWindFarmDataset -->
<g id="edge1" class="edge">
<title>eya_def_tools.data_models.reference_wind_farm.ReferenceWindFarm:e&#45;&gt;eya_def_tools.data_models.reference_wind_farm.ReferenceWindFarmDataset:w</title>
<path fill="none" stroke="black" d="M337,-473.5C401.52,-473.5 384.99,-381.89 433.37,-363.64"/>
<polygon fill="black" stroke="black" points="442.14,-362.16 452.75,-364.94 447.07,-361.33 452,-360.5 452,-360.5 452,-360.5 447.07,-361.33 451.25,-356.06 442.14,-362.16 442.14,-362.16"/>
<ellipse fill="none" stroke="black" cx="437.7" cy="-362.91" rx="4" ry="4"/>
</g>
<!-- eya_def_tools.data_models.wind_farm.WindFarmConfiguration -->
<g id="node4" class="node">
<title>eya_def_tools.data_models.wind_farm.WindFarmConfiguration</title>
<g id="a_node4"><a xlink:title="eya_def_tools.data_models.wind_farm.WindFarmConfiguration&#10;&#10;A collection of wind turbines considered as one unit (plant).&#10;&#10;Attributes:&#10; &#160;&#160;&#160;name (str): Name of the wind farm.&#10; &#160;&#160;&#160;label (Optional[str]): Abbreviated label of the wind farm. Default is None.&#10; &#160;&#160;&#160;description (Optional[str]): Description of the data object. Default is None.&#10; &#160;&#160;&#160;comments (Optional[str]): Comments on the data object. Default is None.&#10; &#160;&#160;&#160;turbines (list[TurbineConfiguration]): List of specifications for constituent turbines.&#10; &#160;&#160;&#160;relevance (WindFarmRelevance(StrEnum)): The relevance of the wind farm for the assessment.&#10; &#160;&#160;&#160;operational_lifetime_start_date (Optional[date]): Operational lifetime start date (format YYYY&#45;MM&#45;DD). Default is None.&#10; &#160;&#160;&#160;operational_lifetime_end_date (Optional[date]): Operational lifetime end date (format YYYY&#45;MM&#45;DD). Default is None.&#10; &#160;&#160;&#160;wind_farm_restrictions (Optional[list[OperationalRestriction]]): List of operational restrictions at the wind farm level. Default is None.&#10;">
<polygon fill="none" stroke="black" points="445,-596.5 445,-617.5 837,-617.5 837,-596.5 445,-596.5"/>
<text text-anchor="start" x="564.5" y="-604.3" font-family="Times New Roman,serif" font-weight="bold" font-size="14.00">WindFarmConfiguration</text>
<polygon fill="none" stroke="black" points="445,-575.5 445,-596.5 623,-596.5 623,-575.5 445,-575.5"/>
<text text-anchor="start" x="519" y="-582.3" font-family="Times New Roman,serif" font-size="14.00">name</text>
<polygon fill="none" stroke="black" points="623,-575.5 623,-596.5 837,-596.5 837,-575.5 623,-575.5"/>
<text text-anchor="start" x="722.5" y="-582.3" font-family="Times New Roman,serif" font-size="14.00">str</text>
<polygon fill="none" stroke="black" points="445,-554.5 445,-575.5 623,-575.5 623,-554.5 445,-554.5"/>
<text text-anchor="start" x="521" y="-561.3" font-family="Times New Roman,serif" font-size="14.00">label</text>
<polygon fill="none" stroke="black" points="623,-554.5 623,-575.5 837,-575.5 837,-554.5 623,-554.5"/>
<text text-anchor="start" x="694" y="-561.3" font-family="Times New Roman,serif" font-size="14.00">Optional[str]</text>
<polygon fill="none" stroke="black" points="445,-533.5 445,-554.5 623,-554.5 623,-533.5 445,-533.5"/>
<text text-anchor="start" x="502.5" y="-540.3" font-family="Times New Roman,serif" font-size="14.00">description</text>
<polygon fill="none" stroke="black" points="623,-533.5 623,-554.5 837,-554.5 837,-533.5 623,-533.5"/>
<text text-anchor="start" x="694" y="-540.3" font-family="Times New Roman,serif" font-size="14.00">Optional[str]</text>
<polygon fill="none" stroke="black" points="445,-512.5 445,-533.5 623,-533.5 623,-512.5 445,-512.5"/>
<text text-anchor="start" x="505" y="-519.3" font-family="Times New Roman,serif" font-size="14.00">comments</text>
<polygon fill="none" stroke="black" points="623,-512.5 623,-533.5 837,-533.5 837,-512.5 623,-512.5"/>
<text text-anchor="start" x="694" y="-519.3" font-family="Times New Roman,serif" font-size="14.00">Optional[str]</text>
<polygon fill="none" stroke="black" points="445,-491.5 445,-512.5 623,-512.5 623,-491.5 445,-491.5"/>
<text text-anchor="start" x="511.5" y="-498.3" font-family="Times New Roman,serif" font-size="14.00">turbines</text>
<polygon fill="none" stroke="black" points="623,-491.5 623,-512.5 837,-512.5 837,-491.5 623,-491.5"/>
<text text-anchor="start" x="657.5" y="-498.3" font-family="Times New Roman,serif" font-size="14.00">list[TurbineConfiguration]</text>
<polygon fill="none" stroke="black" points="445,-470.5 445,-491.5 623,-491.5 623,-470.5 445,-470.5"/>
<text text-anchor="start" x="508" y="-477.3" font-family="Times New Roman,serif" font-size="14.00">relevance</text>
<polygon fill="none" stroke="black" points="623,-470.5 623,-491.5 837,-491.5 837,-470.5 623,-470.5"/>
<text text-anchor="start" x="642.5" y="-477.3" font-family="Times New Roman,serif" font-size="14.00">WindFarmRelevance(StrEnum)</text>
<polygon fill="none" stroke="black" points="445,-449.5 445,-470.5 623,-470.5 623,-449.5 445,-449.5"/>
<text text-anchor="start" x="448" y="-456.3" font-family="Times New Roman,serif" font-size="14.00">operational_lifetime_start_date</text>
<polygon fill="none" stroke="black" points="623,-449.5 623,-470.5 837,-470.5 837,-449.5 623,-449.5"/>
<text text-anchor="start" x="689.5" y="-456.3" font-family="Times New Roman,serif" font-size="14.00">Optional[date]</text>
<polygon fill="none" stroke="black" points="445,-428.5 445,-449.5 623,-449.5 623,-428.5 445,-428.5"/>
<text text-anchor="start" x="450" y="-435.3" font-family="Times New Roman,serif" font-size="14.00">operational_lifetime_end_date</text>
<polygon fill="none" stroke="black" points="623,-428.5 623,-449.5 837,-449.5 837,-428.5 623,-428.5"/>
<text text-anchor="start" x="689.5" y="-435.3" font-family="Times New Roman,serif" font-size="14.00">Optional[date]</text>
<polygon fill="none" stroke="black" points="445,-407.5 445,-428.5 623,-428.5 623,-407.5 445,-407.5"/>
<text text-anchor="start" x="469" y="-414.3" font-family="Times New Roman,serif" font-size="14.00">wind_farm_restrictions</text>
<polygon fill="none" stroke="black" points="623,-407.5 623,-428.5 837,-428.5 837,-407.5 623,-407.5"/>
<text text-anchor="start" x="626" y="-414.3" font-family="Times New Roman,serif" font-size="14.00">Optional[list[OperationalRestriction]]</text>
</a>
</g>
</g>
<!-- eya_def_tools.data_models.reference_wind_farm.ReferenceWindFarm&#45;&gt;eya_def_tools.data_models.wind_farm.WindFarmConfiguration -->
<g id="edge2" class="edge">
<title>eya_def_tools.data_models.reference_wind_farm.ReferenceWindFarm:e&#45;&gt;eya_def_tools.data_models.wind_farm.WindFarmConfiguration:w</title>
<path fill="none" stroke="black" d="M337,-494.5C401.04,-494.5 379.75,-590.53 430.46,-605.54"/>
<polyline fill="none" stroke="black" points="445,-607.5 440.04,-606.83"/>
<polygon fill="black" stroke="black" points="439.72,-601.74 438.39,-611.65 436.4,-611.39 437.74,-601.48 439.72,-601.74"/>
<polyline fill="none" stroke="black" points="440.04,-606.83 435.09,-606.16"/>
<polygon fill="black" stroke="black" points="434.77,-601.07 433.43,-610.98 431.45,-610.72 432.79,-600.81 434.77,-601.07"/>
<polyline fill="none" stroke="black" points="435.09,-606.16 430.13,-605.49"/>
</g>
<!-- eya_def_tools.data_models.reference_wind_farm.ReferenceWindFarmDataset&#45;&gt;eya_def_tools.data_models.organisation.Organisation -->
<g id="edge3" class="edge">
<title>eya_def_tools.data_models.reference_wind_farm.ReferenceWindFarmDataset:e&#45;&gt;eya_def_tools.data_models.organisation.Organisation:w</title>
<path fill="none" stroke="black" d="M830,-276.5C910.77,-276.5 933.8,-293.27 1007.57,-295.3"/>
<polyline fill="none" stroke="black" points="1022.5,-295.5 1017.5,-295.43"/>
<polygon fill="black" stroke="black" points="1016.57,-290.42 1016.43,-300.42 1014.43,-300.39 1014.57,-290.39 1016.57,-290.42"/>
<polyline fill="none" stroke="black" points="1017.5,-295.43 1012.5,-295.37"/>
<polygon fill="black" stroke="black" points="1011.57,-290.35 1011.43,-300.35 1009.43,-300.32 1009.57,-290.33 1011.57,-290.35"/>
<polyline fill="none" stroke="black" points="1012.5,-295.37 1007.5,-295.3"/>
</g>
<!-- eya_def_tools.data_models.reference_wind_farm.ReferenceWindFarmDataVariable -->
<g id="node5" class="node">
<title>eya_def_tools.data_models.reference_wind_farm.ReferenceWindFarmDataVariable</title>
<g id="a_node5"><a xlink:title="eya_def_tools.data_models.reference_wind_farm.ReferenceWindFarmDataVariable&#10;&#10;Reference wind farm operational data variable metadata.&#10;&#10;Attributes:&#10; &#160;&#160;&#160;label (str): Label of the data variable. This is currently free text but should be replaced by a list of enum options.&#10; &#160;&#160;&#160;description (Optional[str]): Description of the data object. Default is None.&#10; &#160;&#160;&#160;comments (Optional[str]): Comments on the data object. Default is None.&#10; &#160;&#160;&#160;data_level (OperationalDataLevel(StrEnum)): Whether the operational data variable is provided for each individual wind turbine (&#39;turbine_level&#39;), is aggregated at the wind farm level (&#39;wind_farm_level&#39;) or corresponds to a different (&#39;other&#39;) unit such as an environmental measurement station.&#10; &#160;&#160;&#160;statistic_types (list[StatisticType(StrEnum)]): A list of the types of statistics included for this data variable.&#10; &#160;&#160;&#160;measurement_point (Optional[str]): Optional clarification of the point of measurement, such as the location of the energy meter for metered production. Default is None.&#10;">
<polygon fill="none" stroke="black" points="955.5,-143.5 955.5,-164.5 1254.5,-164.5 1254.5,-143.5 955.5,-143.5"/>
<text text-anchor="start" x="999" y="-151.3" font-family="Times New Roman,serif" font-weight="bold" font-size="14.00">ReferenceWindFarmDataVariable</text>
<polygon fill="none" stroke="black" points="955.5,-122.5 955.5,-143.5 1070.5,-143.5 1070.5,-122.5 955.5,-122.5"/>
<text text-anchor="start" x="1000" y="-129.3" font-family="Times New Roman,serif" font-size="14.00">label</text>
<polygon fill="none" stroke="black" points="1070.5,-122.5 1070.5,-143.5 1254.5,-143.5 1254.5,-122.5 1070.5,-122.5"/>
<text text-anchor="start" x="1155" y="-129.3" font-family="Times New Roman,serif" font-size="14.00">str</text>
<polygon fill="none" stroke="black" points="955.5,-101.5 955.5,-122.5 1070.5,-122.5 1070.5,-101.5 955.5,-101.5"/>
<text text-anchor="start" x="981.5" y="-108.3" font-family="Times New Roman,serif" font-size="14.00">description</text>
<polygon fill="none" stroke="black" points="1070.5,-101.5 1070.5,-122.5 1254.5,-122.5 1254.5,-101.5 1070.5,-101.5"/>
<text text-anchor="start" x="1126.5" y="-108.3" font-family="Times New Roman,serif" font-size="14.00">Optional[str]</text>
<polygon fill="none" stroke="black" points="955.5,-80.5 955.5,-101.5 1070.5,-101.5 1070.5,-80.5 955.5,-80.5"/>
<text text-anchor="start" x="984" y="-87.3" font-family="Times New Roman,serif" font-size="14.00">comments</text>
<polygon fill="none" stroke="black" points="1070.5,-80.5 1070.5,-101.5 1254.5,-101.5 1254.5,-80.5 1070.5,-80.5"/>
<text text-anchor="start" x="1126.5" y="-87.3" font-family="Times New Roman,serif" font-size="14.00">Optional[str]</text>
<polygon fill="none" stroke="black" points="955.5,-59.5 955.5,-80.5 1070.5,-80.5 1070.5,-59.5 955.5,-59.5"/>
<text text-anchor="start" x="985" y="-66.3" font-family="Times New Roman,serif" font-size="14.00">data_level</text>
<polygon fill="none" stroke="black" points="1070.5,-59.5 1070.5,-80.5 1254.5,-80.5 1254.5,-59.5 1070.5,-59.5"/>
<text text-anchor="start" x="1073.5" y="-66.3" font-family="Times New Roman,serif" font-size="14.00">OperationalDataLevel(StrEnum)</text>
<polygon fill="none" stroke="black" points="955.5,-38.5 955.5,-59.5 1070.5,-59.5 1070.5,-38.5 955.5,-38.5"/>
<text text-anchor="start" x="973" y="-45.3" font-family="Times New Roman,serif" font-size="14.00">statistic_types</text>
<polygon fill="none" stroke="black" points="1070.5,-38.5 1070.5,-59.5 1254.5,-59.5 1254.5,-38.5 1070.5,-38.5"/>
<text text-anchor="start" x="1084" y="-45.3" font-family="Times New Roman,serif" font-size="14.00">list[StatisticType(StrEnum)]</text>
<polygon fill="none" stroke="black" points="955.5,-17.5 955.5,-38.5 1070.5,-38.5 1070.5,-17.5 955.5,-17.5"/>
<text text-anchor="start" x="958.5" y="-24.3" font-family="Times New Roman,serif" font-size="14.00">measurement_point</text>
<polygon fill="none" stroke="black" points="1070.5,-17.5 1070.5,-38.5 1254.5,-38.5 1254.5,-17.5 1070.5,-17.5"/>
<text text-anchor="start" x="1126.5" y="-24.3" font-family="Times New Roman,serif" font-size="14.00">Optional[str]</text>
</a>
</g>
</g>
<!-- eya_def_tools.data_models.reference_wind_farm.ReferenceWindFarmDataset&#45;&gt;eya_def_tools.data_models.reference_wind_farm.ReferenceWindFarmDataVariable -->
<g id="edge4" class="edge">
<title>eya_def_tools.data_models.reference_wind_farm.ReferenceWindFarmDataset:e&#45;&gt;eya_def_tools.data_models.reference_wind_farm.ReferenceWindFarmDataVariable:w</title>
<path fill="none" stroke="black" d="M830,-212.5C884.13,-212.5 892.16,-166.9 935.84,-156.56"/>
<polygon fill="black" stroke="black" points="944.56,-155.6 954.99,-158.97 949.53,-155.05 954.5,-154.5 954.5,-154.5 954.5,-154.5 949.53,-155.05 954.01,-150.03 944.56,-155.6 944.56,-155.6"/>
<ellipse fill="none" stroke="black" cx="940.09" cy="-156.09" rx="4" ry="4"/>
</g>
<!-- eya_def_tools.data_models.wind_farm.OperationalRestriction -->
<g id="node7" class="node">
<title>eya_def_tools.data_models.wind_farm.OperationalRestriction</title>
<g id="a_node7"><a xlink:title="eya_def_tools.data_models.wind_farm.OperationalRestriction&#10;&#10;Specifications of a restriction that limits power output.&#10;&#10;In the current draft of the schema, &#39;label&#39;, &#39;description&#39; and&#10;&#39;comments&#39; fields are available to describe the restriction with&#10;free text. This is intended to be expanded into a more comprehensive&#10;data model.&#10;&#10;Attributes:&#10; &#160;&#160;&#160;label (str): Short label to indicate the type of operational restriction.&#10; &#160;&#160;&#160;description (Optional[str]): Description of the data object. Default is None.&#10; &#160;&#160;&#160;comments (Optional[str]): Comments on the data object. Default is None.&#10;">
<polygon fill="none" stroke="black" points="1372,-387.5 1372,-408.5 1520,-408.5 1520,-387.5 1372,-387.5"/>
<text text-anchor="start" x="1375" y="-395.3" font-family="Times New Roman,serif" font-weight="bold" font-size="14.00">OperationalRestriction</text>
<polygon fill="none" stroke="black" points="1372,-366.5 1372,-387.5 1441,-387.5 1441,-366.5 1372,-366.5"/>
<text text-anchor="start" x="1393.5" y="-373.3" font-family="Times New Roman,serif" font-size="14.00">label</text>
<polygon fill="none" stroke="black" points="1441,-366.5 1441,-387.5 1520,-387.5 1520,-366.5 1441,-366.5"/>
<text text-anchor="start" x="1473" y="-373.3" font-family="Times New Roman,serif" font-size="14.00">str</text>
<polygon fill="none" stroke="black" points="1372,-345.5 1372,-366.5 1441,-366.5 1441,-345.5 1372,-345.5"/>
<text text-anchor="start" x="1375" y="-352.3" font-family="Times New Roman,serif" font-size="14.00">description</text>
<polygon fill="none" stroke="black" points="1441,-345.5 1441,-366.5 1520,-366.5 1520,-345.5 1441,-345.5"/>
<text text-anchor="start" x="1444.5" y="-352.3" font-family="Times New Roman,serif" font-size="14.00">Optional[str]</text>
<polygon fill="none" stroke="black" points="1372,-324.5 1372,-345.5 1441,-345.5 1441,-324.5 1372,-324.5"/>
<text text-anchor="start" x="1377.5" y="-331.3" font-family="Times New Roman,serif" font-size="14.00">comments</text>
<polygon fill="none" stroke="black" points="1441,-324.5 1441,-345.5 1520,-345.5 1520,-324.5 1441,-324.5"/>
<text text-anchor="start" x="1444.5" y="-331.3" font-family="Times New Roman,serif" font-size="14.00">Optional[str]</text>
</a>
</g>
</g>
<!-- eya_def_tools.data_models.wind_farm.WindFarmConfiguration&#45;&gt;eya_def_tools.data_models.wind_farm.OperationalRestriction -->
<g id="edge7" class="edge">
<title>eya_def_tools.data_models.wind_farm.WindFarmConfiguration:e&#45;&gt;eya_def_tools.data_models.wind_farm.OperationalRestriction:w</title>
<path fill="none" stroke="black" d="M837,-417.5C1068.54,-417.5 1130.77,-399.51 1353.21,-398.54"/>
<polygon fill="black" stroke="black" points="1362,-398.52 1372.01,-403 1367,-398.51 1372,-398.5 1372,-398.5 1372,-398.5 1367,-398.51 1371.99,-394 1362,-398.52 1362,-398.52"/>
<ellipse fill="none" stroke="black" cx="1357.5" cy="-398.53" rx="4" ry="4"/>
</g>
<!-- eya_def_tools.data_models.wind_farm.TurbineConfiguration -->
<g id="node8" class="node">
<title>eya_def_tools.data_models.wind_farm.TurbineConfiguration</title>
<g id="a_node8"><a xlink:title="eya_def_tools.data_models.wind_farm.TurbineConfiguration&#10;&#10;Specification of all details for a turbine configuration.&#10;&#10;Attributes:&#10; &#160;&#160;&#160;turbine_id (Optional[str]): Unique identifier of the turbine specification. Default is None.&#10; &#160;&#160;&#160;label (str): Label of the turbine.&#10; &#160;&#160;&#160;description (Optional[str]): Description of the data object. Default is None.&#10; &#160;&#160;&#160;comments (Optional[str]): Comments on the data object. Default is None.&#10; &#160;&#160;&#160;location (Location): Horizontal location of the turbine.&#10; &#160;&#160;&#160;hub_height (float): Turbine hub height.&#10; &#160;&#160;&#160;turbine_model_id (str): Unique identifier of the turbine model.&#10; &#160;&#160;&#160;restrictions (Optional[list[OperationalRestriction]]): List of operational restrictions at the turbine level. Default is None.&#10;">
<polygon fill="none" stroke="black" points="945.5,-621.5 945.5,-642.5 1264.5,-642.5 1264.5,-621.5 945.5,-621.5"/>
<text text-anchor="start" x="1037.5" y="-629.3" font-family="Times New Roman,serif" font-weight="bold" font-size="14.00">TurbineConfiguration</text>
<polygon fill="none" stroke="black" points="945.5,-600.5 945.5,-621.5 1050.5,-621.5 1050.5,-600.5 945.5,-600.5"/>
<text text-anchor="start" x="969.5" y="-607.3" font-family="Times New Roman,serif" font-size="14.00">turbine_id</text>
<polygon fill="none" stroke="black" points="1050.5,-600.5 1050.5,-621.5 1264.5,-621.5 1264.5,-600.5 1050.5,-600.5"/>
<text text-anchor="start" x="1121.5" y="-607.3" font-family="Times New Roman,serif" font-size="14.00">Optional[str]</text>
<polygon fill="none" stroke="black" points="945.5,-579.5 945.5,-600.5 1050.5,-600.5 1050.5,-579.5 945.5,-579.5"/>
<text text-anchor="start" x="985" y="-586.3" font-family="Times New Roman,serif" font-size="14.00">label</text>
<polygon fill="none" stroke="black" points="1050.5,-579.5 1050.5,-600.5 1264.5,-600.5 1264.5,-579.5 1050.5,-579.5"/>
<text text-anchor="start" x="1150" y="-586.3" font-family="Times New Roman,serif" font-size="14.00">str</text>
<polygon fill="none" stroke="black" points="945.5,-558.5 945.5,-579.5 1050.5,-579.5 1050.5,-558.5 945.5,-558.5"/>
<text text-anchor="start" x="966.5" y="-565.3" font-family="Times New Roman,serif" font-size="14.00">description</text>
<polygon fill="none" stroke="black" points="1050.5,-558.5 1050.5,-579.5 1264.5,-579.5 1264.5,-558.5 1050.5,-558.5"/>
<text text-anchor="start" x="1121.5" y="-565.3" font-family="Times New Roman,serif" font-size="14.00">Optional[str]</text>
<polygon fill="none" stroke="black" points="945.5,-537.5 945.5,-558.5 1050.5,-558.5 1050.5,-537.5 945.5,-537.5"/>
<text text-anchor="start" x="969" y="-544.3" font-family="Times New Roman,serif" font-size="14.00">comments</text>
<polygon fill="none" stroke="black" points="1050.5,-537.5 1050.5,-558.5 1264.5,-558.5 1264.5,-537.5 1050.5,-537.5"/>
<text text-anchor="start" x="1121.5" y="-544.3" font-family="Times New Roman,serif" font-size="14.00">Optional[str]</text>
<polygon fill="none" stroke="black" points="945.5,-516.5 945.5,-537.5 1050.5,-537.5 1050.5,-516.5 945.5,-516.5"/>
<text text-anchor="start" x="975.5" y="-523.3" font-family="Times New Roman,serif" font-size="14.00">location</text>
<polygon fill="none" stroke="black" points="1050.5,-516.5 1050.5,-537.5 1264.5,-537.5 1264.5,-516.5 1050.5,-516.5"/>
<text text-anchor="start" x="1132.5" y="-523.3" font-family="Times New Roman,serif" font-size="14.00">Location</text>
<polygon fill="none" stroke="black" points="945.5,-495.5 945.5,-516.5 1050.5,-516.5 1050.5,-495.5 945.5,-495.5"/>
<text text-anchor="start" x="967" y="-502.3" font-family="Times New Roman,serif" font-size="14.00">hub_height</text>
<polygon fill="none" stroke="black" points="1050.5,-495.5 1050.5,-516.5 1264.5,-516.5 1264.5,-495.5 1050.5,-495.5"/>
<text text-anchor="start" x="1145" y="-502.3" font-family="Times New Roman,serif" font-size="14.00">float</text>
<polygon fill="none" stroke="black" points="945.5,-474.5 945.5,-495.5 1050.5,-495.5 1050.5,-474.5 945.5,-474.5"/>
<text text-anchor="start" x="948.5" y="-481.3" font-family="Times New Roman,serif" font-size="14.00">turbine_model_id</text>
<polygon fill="none" stroke="black" points="1050.5,-474.5 1050.5,-495.5 1264.5,-495.5 1264.5,-474.5 1050.5,-474.5"/>
<text text-anchor="start" x="1150" y="-481.3" font-family="Times New Roman,serif" font-size="14.00">str</text>
<polygon fill="none" stroke="black" points="945.5,-453.5 945.5,-474.5 1050.5,-474.5 1050.5,-453.5 945.5,-453.5"/>
<text text-anchor="start" x="967" y="-460.3" font-family="Times New Roman,serif" font-size="14.00">restrictions</text>
<polygon fill="none" stroke="black" points="1050.5,-453.5 1050.5,-474.5 1264.5,-474.5 1264.5,-453.5 1050.5,-453.5"/>
<text text-anchor="start" x="1053.5" y="-460.3" font-family="Times New Roman,serif" font-size="14.00">Optional[list[OperationalRestriction]]</text>
</a>
</g>
</g>
<!-- eya_def_tools.data_models.wind_farm.WindFarmConfiguration&#45;&gt;eya_def_tools.data_models.wind_farm.TurbineConfiguration -->
<g id="edge8" class="edge">
<title>eya_def_tools.data_models.wind_farm.WindFarmConfiguration:e&#45;&gt;eya_def_tools.data_models.wind_farm.TurbineConfiguration:w</title>
<path fill="none" stroke="black" d="M837,-501.5C905.24,-501.5 876.67,-608.63 926.38,-629.13"/>
<polygon fill="black" stroke="black" points="935.16,-630.72 944.2,-636.93 940.08,-631.61 945,-632.5 945,-632.5 945,-632.5 940.08,-631.61 945.8,-628.07 935.16,-630.72 935.16,-630.72"/>
<ellipse fill="none" stroke="black" cx="930.73" cy="-629.92" rx="4" ry="4"/>
</g>
<!-- eya_def_tools.data_models.spatial.Location -->
<g id="node6" class="node">
<title>eya_def_tools.data_models.spatial.Location</title>
<g id="a_node6"><a xlink:title="eya_def_tools.data_models.spatial.Location&#10;&#10;Specification of a horizontal location in space.&#10;&#10;Attributes:&#10; &#160;&#160;&#160;location_id (Optional[str]): Unique identifier of the location. Default is None.&#10; &#160;&#160;&#160;label (Optional[str]): Label of the location. Default is None.&#10; &#160;&#160;&#160;description (Optional[str]): Description of the data object. Default is None.&#10; &#160;&#160;&#160;comments (Optional[str]): Comments on the data object. Default is None.&#10; &#160;&#160;&#160;x (float): Location x&#45;coordinate (typically easing).&#10; &#160;&#160;&#160;y (float): Location y&#45;coordinate (typically northing).&#10;">
<polygon fill="none" stroke="black" points="1373,-570.5 1373,-591.5 1520,-591.5 1520,-570.5 1373,-570.5"/>
<text text-anchor="start" x="1419" y="-578.3" font-family="Times New Roman,serif" font-weight="bold" font-size="14.00">Location</text>
<polygon fill="none" stroke="black" points="1373,-549.5 1373,-570.5 1442,-570.5 1442,-549.5 1373,-549.5"/>
<text text-anchor="start" x="1376" y="-556.3" font-family="Times New Roman,serif" font-size="14.00">location_id</text>
<polygon fill="none" stroke="black" points="1442,-549.5 1442,-570.5 1520,-570.5 1520,-549.5 1442,-549.5"/>
<text text-anchor="start" x="1445" y="-556.3" font-family="Times New Roman,serif" font-size="14.00">Optional[str]</text>
<polygon fill="none" stroke="black" points="1373,-528.5 1373,-549.5 1442,-549.5 1442,-528.5 1373,-528.5"/>
<text text-anchor="start" x="1394.5" y="-535.3" font-family="Times New Roman,serif" font-size="14.00">label</text>
<polygon fill="none" stroke="black" points="1442,-528.5 1442,-549.5 1520,-549.5 1520,-528.5 1442,-528.5"/>
<text text-anchor="start" x="1445" y="-535.3" font-family="Times New Roman,serif" font-size="14.00">Optional[str]</text>
<polygon fill="none" stroke="black" points="1373,-507.5 1373,-528.5 1442,-528.5 1442,-507.5 1373,-507.5"/>
<text text-anchor="start" x="1376" y="-514.3" font-family="Times New Roman,serif" font-size="14.00">description</text>
<polygon fill="none" stroke="black" points="1442,-507.5 1442,-528.5 1520,-528.5 1520,-507.5 1442,-507.5"/>
<text text-anchor="start" x="1445" y="-514.3" font-family="Times New Roman,serif" font-size="14.00">Optional[str]</text>
<polygon fill="none" stroke="black" points="1373,-486.5 1373,-507.5 1442,-507.5 1442,-486.5 1373,-486.5"/>
<text text-anchor="start" x="1378.5" y="-493.3" font-family="Times New Roman,serif" font-size="14.00">comments</text>
<polygon fill="none" stroke="black" points="1442,-486.5 1442,-507.5 1520,-507.5 1520,-486.5 1442,-486.5"/>
<text text-anchor="start" x="1445" y="-493.3" font-family="Times New Roman,serif" font-size="14.00">Optional[str]</text>
<polygon fill="none" stroke="black" points="1373,-465.5 1373,-486.5 1442,-486.5 1442,-465.5 1373,-465.5"/>
<text text-anchor="start" x="1404" y="-472.3" font-family="Times New Roman,serif" font-size="14.00">x</text>
<polygon fill="none" stroke="black" points="1442,-465.5 1442,-486.5 1520,-486.5 1520,-465.5 1442,-465.5"/>
<text text-anchor="start" x="1468.5" y="-472.3" font-family="Times New Roman,serif" font-size="14.00">float</text>
<polygon fill="none" stroke="black" points="1373,-444.5 1373,-465.5 1442,-465.5 1442,-444.5 1373,-444.5"/>
<text text-anchor="start" x="1404" y="-451.3" font-family="Times New Roman,serif" font-size="14.00">y</text>
<polygon fill="none" stroke="black" points="1442,-444.5 1442,-465.5 1520,-465.5 1520,-444.5 1442,-444.5"/>
<text text-anchor="start" x="1468.5" y="-451.3" font-family="Times New Roman,serif" font-size="14.00">float</text>
</a>
</g>
</g>
<!-- eya_def_tools.data_models.wind_farm.TurbineConfiguration&#45;&gt;eya_def_tools.data_models.spatial.Location -->
<g id="edge5" class="edge">
<title>eya_def_tools.data_models.wind_farm.TurbineConfiguration:e&#45;&gt;eya_def_tools.data_models.spatial.Location:w</title>
<path fill="none" stroke="black" d="M1264,-526.5C1312.4,-526.5 1317.53,-570.9 1357.13,-579.91"/>
<polyline fill="none" stroke="black" points="1372,-581.5 1367.03,-580.97"/>
<polygon fill="black" stroke="black" points="1366.56,-575.89 1365.5,-585.83 1363.51,-585.62 1364.58,-575.68 1366.56,-575.89"/>
<polyline fill="none" stroke="black" points="1367.03,-580.97 1362.06,-580.44"/>
<polygon fill="black" stroke="black" points="1361.59,-575.36 1360.53,-585.3 1358.54,-585.09 1359.6,-575.15 1361.59,-575.36"/>
<polyline fill="none" stroke="black" points="1362.06,-580.44 1357.08,-579.91"/>
</g>
<!-- eya_def_tools.data_models.wind_farm.TurbineConfiguration&#45;&gt;eya_def_tools.data_models.wind_farm.OperationalRestriction -->
<g id="edge6" class="edge">
<title>eya_def_tools.data_models.wind_farm.TurbineConfiguration:e&#45;&gt;eya_def_tools.data_models.wind_farm.OperationalRestriction:w</title>
<path fill="none" stroke="black" d="M1264,-463.5C1313.02,-463.5 1316.05,-413.73 1353.57,-401.29"/>
<polygon fill="black" stroke="black" points="1362.11,-400 1372.67,-402.95 1367.06,-399.25 1372,-398.5 1372,-398.5 1372,-398.5 1367.06,-399.25 1371.33,-394.05 1362.11,-400 1362.11,-400"/>
<ellipse fill="none" stroke="black" cx="1357.66" cy="-400.67" rx="4" ry="4"/>
</g>
</g>
</svg>
