<?xml version="1.0" encoding="UTF-8" standalone="no"?>
<!DOCTYPE svg PUBLIC "-//W3C//DTD SVG 1.1//EN"
 "http://www.w3.org/Graphics/SVG/1.1/DTD/svg11.dtd">
<!-- Generated by graphviz version 7.0.4 (20221203.1631)
 -->
<!-- Title: Entity Relationship Diagram Pages: 1 -->
<svg width="958pt" height="576pt"
 viewBox="0.00 0.00 958.00 576.00" xmlns="http://www.w3.org/2000/svg" xmlns:xlink="http://www.w3.org/1999/xlink">
<g id="graph0" class="graph" transform="scale(1 1) rotate(0) translate(4 572)">
<title>Entity Relationship Diagram</title>
<polygon fill="white" stroke="none" points="-4,4 -4,-572 954,-572 954,4 -4,4"/>
<text text-anchor="middle" x="475" y="-6.8" font-family="Times New Roman,serif" font-size="9.00" fill="#a8a8a8">Created by erdantic v0.5.0 &lt;https://github.com/drivendataorg/erdantic&gt;</text>
<!-- eya_def_tools.data_models.energy_assessment.EnergyAssessment -->
<g id="node1" class="node">
<title>eya_def_tools.data_models.energy_assessment.EnergyAssessment</title>
<g id="a_node1"><a xlink:title="eya_def_tools.data_models.energy_assessment.EnergyAssessment&#10;&#10;Energy assessment details and results.&#10;&#10;Attributes:&#10; &#160;&#160;&#160;gross_eya_process (AssessmentProcessDescription): Specification of the model used to calculate the gross EYA estimates.&#10; &#160;&#160;&#160;gross_eya_results (list[Result]): Gross energy production predictions in GWh.&#10; &#160;&#160;&#160;plant_performance_loss_categories (list[PlantPerformanceCategory]): Plant performance loss assessment categories including results.&#10; &#160;&#160;&#160;net_energy_uncertainty_assessment (Optional[UncertaintyAssessment]): Net energy production uncertainty assessment, including the conversion of the wind resource assessment uncertainty results from wind speed to energy quantities and results for all main energy uncertainty categories. Default is None.&#10; &#160;&#160;&#160;net_eya_results (list[Result]): Net energy production predictions in GWh, including overall uncertainties and results at different confidence levels.&#10;">
<polygon fill="none" stroke="black" points="545,-123 545,-144 945,-144 945,-123 545,-123"/>
<text text-anchor="start" x="687.5" y="-130.8" font-family="Times New Roman,serif" font-weight="bold" font-size="14.00">EnergyAssessment</text>
<polygon fill="none" stroke="black" points="545,-102 545,-123 751,-123 751,-102 545,-102"/>
<text text-anchor="start" x="593.5" y="-108.8" font-family="Times New Roman,serif" font-size="14.00">gross_eya_process</text>
<polygon fill="none" stroke="black" points="751,-102 751,-123 945,-123 945,-102 751,-102"/>
<text text-anchor="start" x="759.5" y="-108.8" font-family="Times New Roman,serif" font-size="14.00">AssessmentProcessDescription</text>
<polygon fill="none" stroke="black" points="545,-81 545,-102 751,-102 751,-81 545,-81"/>
<text text-anchor="start" x="597.5" y="-87.8" font-family="Times New Roman,serif" font-size="14.00">gross_eya_results</text>
<polygon fill="none" stroke="black" points="751,-81 751,-102 945,-102 945,-81 751,-81"/>
<text text-anchor="start" x="817.5" y="-87.8" font-family="Times New Roman,serif" font-size="14.00">list[Result]</text>
<polygon fill="none" stroke="black" points="545,-60 545,-81 751,-81 751,-60 545,-60"/>
<text text-anchor="start" x="548.5" y="-66.8" font-family="Times New Roman,serif" font-size="14.00">plant_performance_loss_categories</text>
<polygon fill="none" stroke="black" points="751,-60 751,-81 945,-81 945,-60 751,-60"/>
<text text-anchor="start" x="760.5" y="-66.8" font-family="Times New Roman,serif" font-size="14.00">list[PlantPerformanceCategory]</text>
<polygon fill="none" stroke="black" points="545,-39 545,-60 751,-60 751,-39 545,-39"/>
<text text-anchor="start" x="548" y="-45.8" font-family="Times New Roman,serif" font-size="14.00">net_energy_uncertainty_assessment</text>
<polygon fill="none" stroke="black" points="751,-39 751,-60 945,-60 945,-39 751,-39"/>
<text text-anchor="start" x="754" y="-45.8" font-family="Times New Roman,serif" font-size="14.00">Optional[UncertaintyAssessment]</text>
<polygon fill="none" stroke="black" points="545,-18 545,-39 751,-39 751,-18 545,-18"/>
<text text-anchor="start" x="604.5" y="-24.8" font-family="Times New Roman,serif" font-size="14.00">net_eya_results</text>
<polygon fill="none" stroke="black" points="751,-18 751,-39 945,-39 945,-18 751,-18"/>
<text text-anchor="start" x="817.5" y="-24.8" font-family="Times New Roman,serif" font-size="14.00">list[Result]</text>
</a>
</g>
</g>
<!-- eya_def_tools.data_models.scenario.Scenario -->
<g id="node2" class="node">
<title>eya_def_tools.data_models.scenario.Scenario</title>
<g id="a_node2"><a xlink:title="eya_def_tools.data_models.scenario.Scenario&#10;&#10;Single unique energy yield assessment scenario.&#10;&#10;Attributes:&#10; &#160;&#160;&#160;scenario_id (Optional[str]): Unique identifier of the scenario. Default is None.&#10; &#160;&#160;&#160;label (str): Label of the scenario.&#10; &#160;&#160;&#160;description (Optional[str]): Description of the data object. Default is None.&#10; &#160;&#160;&#160;comments (Optional[str]): Comments on the data object. Default is None.&#10; &#160;&#160;&#160;is_main_scenario (Optional[bool]): Whether or not this is the main scenario in the report. Default is None.&#10; &#160;&#160;&#160;operational_lifetime_length_years (ConstrainedFloatValue): Number of years of project operational lifetime.&#10; &#160;&#160;&#160;wind_farms (list[WindFarmConfiguration]): List of all wind farms included in the scenario.&#10; &#160;&#160;&#160;wind_resource_assessment_reference (WindResourceAssessmentReference): Measurement wind resource assessment reference for the scenario.&#10; &#160;&#160;&#160;turbine_wind_resource_assessment (TurbineWindResourceAssessment): Wind resource assessment at the turbine locations.&#10; &#160;&#160;&#160;energy_assessment (EnergyAssessment): Energy assessment details and results, including gross energy, plant performance, net energy and uncertainties.&#10;">
<polygon fill="none" stroke="black" points="0,-450 0,-471 432,-471 432,-450 0,-450"/>
<text text-anchor="start" x="188.5" y="-457.8" font-family="Times New Roman,serif" font-weight="bold" font-size="14.00">Scenario</text>
<polygon fill="none" stroke="black" points="0,-429 0,-450 218,-450 218,-429 0,-429"/>
<text text-anchor="start" x="76.5" y="-435.8" font-family="Times New Roman,serif" font-size="14.00">scenario_id</text>
<polygon fill="none" stroke="black" points="218,-429 218,-450 432,-450 432,-429 218,-429"/>
<text text-anchor="start" x="289" y="-435.8" font-family="Times New Roman,serif" font-size="14.00">Optional[str]</text>
<polygon fill="none" stroke="black" points="0,-408 0,-429 218,-429 218,-408 0,-408"/>
<text text-anchor="start" x="96" y="-414.8" font-family="Times New Roman,serif" font-size="14.00">label</text>
<polygon fill="none" stroke="black" points="218,-408 218,-429 432,-429 432,-408 218,-408"/>
<text text-anchor="start" x="317.5" y="-414.8" font-family="Times New Roman,serif" font-size="14.00">str</text>
<polygon fill="none" stroke="black" points="0,-387 0,-408 218,-408 218,-387 0,-387"/>
<text text-anchor="start" x="77.5" y="-393.8" font-family="Times New Roman,serif" font-size="14.00">description</text>
<polygon fill="none" stroke="black" points="218,-387 218,-408 432,-408 432,-387 218,-387"/>
<text text-anchor="start" x="289" y="-393.8" font-family="Times New Roman,serif" font-size="14.00">Optional[str]</text>
<polygon fill="none" stroke="black" points="0,-366 0,-387 218,-387 218,-366 0,-366"/>
<text text-anchor="start" x="80" y="-372.8" font-family="Times New Roman,serif" font-size="14.00">comments</text>
<polygon fill="none" stroke="black" points="218,-366 218,-387 432,-387 432,-366 218,-366"/>
<text text-anchor="start" x="289" y="-372.8" font-family="Times New Roman,serif" font-size="14.00">Optional[str]</text>
<polygon fill="none" stroke="black" points="0,-345 0,-366 218,-366 218,-345 0,-345"/>
<text text-anchor="start" x="60.5" y="-351.8" font-family="Times New Roman,serif" font-size="14.00">is_main_scenario</text>
<polygon fill="none" stroke="black" points="218,-345 218,-366 432,-366 432,-345 218,-345"/>
<text text-anchor="start" x="283.5" y="-351.8" font-family="Times New Roman,serif" font-size="14.00">Optional[bool]</text>
<polygon fill="none" stroke="black" points="0,-324 0,-345 218,-345 218,-324 0,-324"/>
<text text-anchor="start" x="15.5" y="-330.8" font-family="Times New Roman,serif" font-size="14.00">operational_lifetime_length_years</text>
<polygon fill="none" stroke="black" points="218,-324 218,-345 432,-345 432,-324 218,-324"/>
<text text-anchor="start" x="261" y="-330.8" font-family="Times New Roman,serif" font-size="14.00">ConstrainedFloatValue</text>
<polygon fill="none" stroke="black" points="0,-303 0,-324 218,-324 218,-303 0,-303"/>
<text text-anchor="start" x="75.5" y="-309.8" font-family="Times New Roman,serif" font-size="14.00">wind_farms</text>
<polygon fill="none" stroke="black" points="218,-303 218,-324 432,-324 432,-303 218,-303"/>
<text text-anchor="start" x="244" y="-309.8" font-family="Times New Roman,serif" font-size="14.00">list[WindFarmConfiguration]</text>
<polygon fill="none" stroke="black" points="0,-282 0,-303 218,-303 218,-282 0,-282"/>
<text text-anchor="start" x="3" y="-288.8" font-family="Times New Roman,serif" font-size="14.00">wind_resource_assessment_reference</text>
<polygon fill="none" stroke="black" points="218,-282 218,-303 432,-303 432,-282 218,-282"/>
<text text-anchor="start" x="221" y="-288.8" font-family="Times New Roman,serif" font-size="14.00">WindResourceAssessmentReference</text>
<polygon fill="none" stroke="black" points="0,-261 0,-282 218,-282 218,-261 0,-261"/>
<text text-anchor="start" x="9.5" y="-267.8" font-family="Times New Roman,serif" font-size="14.00">turbine_wind_resource_assessment</text>
<polygon fill="none" stroke="black" points="218,-261 218,-282 432,-282 432,-261 218,-261"/>
<text text-anchor="start" x="227.5" y="-267.8" font-family="Times New Roman,serif" font-size="14.00">TurbineWindResourceAssessment</text>
<polygon fill="none" stroke="black" points="0,-240 0,-261 218,-261 218,-240 0,-240"/>
<text text-anchor="start" x="55" y="-246.8" font-family="Times New Roman,serif" font-size="14.00">energy_assessment</text>
<polygon fill="none" stroke="black" points="218,-240 218,-261 432,-261 432,-240 218,-240"/>
<text text-anchor="start" x="272" y="-246.8" font-family="Times New Roman,serif" font-size="14.00">EnergyAssessment</text>
</a>
</g>
</g>
<!-- eya_def_tools.data_models.scenario.Scenario&#45;&gt;eya_def_tools.data_models.energy_assessment.EnergyAssessment -->
<g id="edge1" class="edge">
<title>eya_def_tools.data_models.scenario.Scenario:e&#45;&gt;eya_def_tools.data_models.energy_assessment.EnergyAssessment:w</title>
<path fill="none" stroke="black" d="M432,-250C498.21,-250 476.51,-151 529.33,-135.92"/>
<polyline fill="none" stroke="black" points="544,-134 539.04,-134.65"/>
<polygon fill="black" stroke="black" points="537.4,-129.82 538.7,-139.73 536.71,-139.99 535.42,-130.08 537.4,-129.82"/>
<polyline fill="none" stroke="black" points="539.04,-134.65 534.08,-135.3"/>
<polygon fill="black" stroke="black" points="532.45,-130.47 533.74,-140.38 531.76,-140.64 530.46,-130.73 532.45,-130.47"/>
<polyline fill="none" stroke="black" points="534.08,-135.3 529.13,-135.94"/>
</g>
<!-- eya_def_tools.data_models.wind_farm.WindFarmConfiguration -->
<g id="node3" class="node">
<title>eya_def_tools.data_models.wind_farm.WindFarmConfiguration</title>
<g id="a_node3"><a xlink:title="eya_def_tools.data_models.wind_farm.WindFarmConfiguration&#10;&#10;A collection of wind turbines considered as one unit (plant).&#10;&#10;Attributes:&#10; &#160;&#160;&#160;name (str): Name of the wind farm.&#10; &#160;&#160;&#160;label (Optional[str]): Abbreviated label of the wind farm. Default is None.&#10; &#160;&#160;&#160;description (Optional[str]): Description of the data object. Default is None.&#10; &#160;&#160;&#160;comments (Optional[str]): Comments on the data object. Default is None.&#10; &#160;&#160;&#160;turbines (list[TurbineConfiguration]): List of specifications for constituent turbines.&#10; &#160;&#160;&#160;relevance (WindFarmRelevance(StrEnum)): The relevance of the wind farm for the assessment.&#10; &#160;&#160;&#160;operational_lifetime_start_date (Optional[date]): Operational lifetime start date (format YYYY&#45;MM&#45;DD). Default is None.&#10; &#160;&#160;&#160;operational_lifetime_end_date (Optional[date]): Operational lifetime end date (format YYYY&#45;MM&#45;DD). Default is None.&#10; &#160;&#160;&#160;wind_farm_restrictions (Optional[list[OperationalRestriction]]): List of operational restrictions at the wind farm level. Default is None.&#10;">
<polygon fill="none" stroke="black" points="549,-547 549,-568 941,-568 941,-547 549,-547"/>
<text text-anchor="start" x="668.5" y="-554.8" font-family="Times New Roman,serif" font-weight="bold" font-size="14.00">WindFarmConfiguration</text>
<polygon fill="none" stroke="black" points="549,-526 549,-547 727,-547 727,-526 549,-526"/>
<text text-anchor="start" x="623" y="-532.8" font-family="Times New Roman,serif" font-size="14.00">name</text>
<polygon fill="none" stroke="black" points="727,-526 727,-547 941,-547 941,-526 727,-526"/>
<text text-anchor="start" x="826.5" y="-532.8" font-family="Times New Roman,serif" font-size="14.00">str</text>
<polygon fill="none" stroke="black" points="549,-505 549,-526 727,-526 727,-505 549,-505"/>
<text text-anchor="start" x="625" y="-511.8" font-family="Times New Roman,serif" font-size="14.00">label</text>
<polygon fill="none" stroke="black" points="727,-505 727,-526 941,-526 941,-505 727,-505"/>
<text text-anchor="start" x="798" y="-511.8" font-family="Times New Roman,serif" font-size="14.00">Optional[str]</text>
<polygon fill="none" stroke="black" points="549,-484 549,-505 727,-505 727,-484 549,-484"/>
<text text-anchor="start" x="606.5" y="-490.8" font-family="Times New Roman,serif" font-size="14.00">description</text>
<polygon fill="none" stroke="black" points="727,-484 727,-505 941,-505 941,-484 727,-484"/>
<text text-anchor="start" x="798" y="-490.8" font-family="Times New Roman,serif" font-size="14.00">Optional[str]</text>
<polygon fill="none" stroke="black" points="549,-463 549,-484 727,-484 727,-463 549,-463"/>
<text text-anchor="start" x="609" y="-469.8" font-family="Times New Roman,serif" font-size="14.00">comments</text>
<polygon fill="none" stroke="black" points="727,-463 727,-484 941,-484 941,-463 727,-463"/>
<text text-anchor="start" x="798" y="-469.8" font-family="Times New Roman,serif" font-size="14.00">Optional[str]</text>
<polygon fill="none" stroke="black" points="549,-442 549,-463 727,-463 727,-442 549,-442"/>
<text text-anchor="start" x="615.5" y="-448.8" font-family="Times New Roman,serif" font-size="14.00">turbines</text>
<polygon fill="none" stroke="black" points="727,-442 727,-463 941,-463 941,-442 727,-442"/>
<text text-anchor="start" x="761.5" y="-448.8" font-family="Times New Roman,serif" font-size="14.00">list[TurbineConfiguration]</text>
<polygon fill="none" stroke="black" points="549,-421 549,-442 727,-442 727,-421 549,-421"/>
<text text-anchor="start" x="612" y="-427.8" font-family="Times New Roman,serif" font-size="14.00">relevance</text>
<polygon fill="none" stroke="black" points="727,-421 727,-442 941,-442 941,-421 727,-421"/>
<text text-anchor="start" x="746.5" y="-427.8" font-family="Times New Roman,serif" font-size="14.00">WindFarmRelevance(StrEnum)</text>
<polygon fill="none" stroke="black" points="549,-400 549,-421 727,-421 727,-400 549,-400"/>
<text text-anchor="start" x="552" y="-406.8" font-family="Times New Roman,serif" font-size="14.00">operational_lifetime_start_date</text>
<polygon fill="none" stroke="black" points="727,-400 727,-421 941,-421 941,-400 727,-400"/>
<text text-anchor="start" x="793.5" y="-406.8" font-family="Times New Roman,serif" font-size="14.00">Optional[date]</text>
<polygon fill="none" stroke="black" points="549,-379 549,-400 727,-400 727,-379 549,-379"/>
<text text-anchor="start" x="554" y="-385.8" font-family="Times New Roman,serif" font-size="14.00">operational_lifetime_end_date</text>
<polygon fill="none" stroke="black" points="727,-379 727,-400 941,-400 941,-379 727,-379"/>
<text text-anchor="start" x="793.5" y="-385.8" font-family="Times New Roman,serif" font-size="14.00">Optional[date]</text>
<polygon fill="none" stroke="black" points="549,-358 549,-379 727,-379 727,-358 549,-358"/>
<text text-anchor="start" x="573" y="-364.8" font-family="Times New Roman,serif" font-size="14.00">wind_farm_restrictions</text>
<polygon fill="none" stroke="black" points="727,-358 727,-379 941,-379 941,-358 727,-358"/>
<text text-anchor="start" x="730" y="-364.8" font-family="Times New Roman,serif" font-size="14.00">Optional[list[OperationalRestriction]]</text>
</a>
</g>
</g>
<!-- eya_def_tools.data_models.scenario.Scenario&#45;&gt;eya_def_tools.data_models.wind_farm.WindFarmConfiguration -->
<g id="edge2" class="edge">
<title>eya_def_tools.data_models.scenario.Scenario:e&#45;&gt;eya_def_tools.data_models.wind_farm.WindFarmConfiguration:w</title>
<path fill="none" stroke="black" d="M432,-313C545.42,-313 441.32,-530.13 529.25,-555.58"/>
<polygon fill="black" stroke="black" points="538.08,-556.72 547.42,-562.46 543.04,-557.36 548,-558 548,-558 548,-558 543.04,-557.36 548.58,-553.54 538.08,-556.72 538.08,-556.72"/>
<ellipse fill="none" stroke="black" cx="533.62" cy="-556.14" rx="4" ry="4"/>
</g>
<!-- eya_def_tools.data_models.wind_resource.TurbineWindResourceAssessment -->
<g id="node4" class="node">
<title>eya_def_tools.data_models.wind_resource.TurbineWindResourceAssessment</title>
<g id="a_node4"><a xlink:title="eya_def_tools.data_models.wind_resource.TurbineWindResourceAssessment&#10;&#10;Wind resource assessment at the turbine locations.&#10;&#10;Attributes:&#10; &#160;&#160;&#160;turbine_wind_resource_results (list[Result]): Assessment results at the turbine location(s).&#10; &#160;&#160;&#160;wind_spatial_modelling_processes (list[AssessmentProcessDescription]): Wind spatial modelling processes used in the assessment.&#10; &#160;&#160;&#160;uncertainty_assessment (Optional[UncertaintyAssessment]): Turbine wind resource uncertainty assessment. Default is None.&#10;">
<polygon fill="none" stroke="black" points="540,-243 540,-264 950,-264 950,-243 540,-243"/>
<text text-anchor="start" x="639.5" y="-250.8" font-family="Times New Roman,serif" font-weight="bold" font-size="14.00">TurbineWindResourceAssessment</text>
<polygon fill="none" stroke="black" points="540,-222 540,-243 742,-243 742,-222 540,-222"/>
<text text-anchor="start" x="555" y="-228.8" font-family="Times New Roman,serif" font-size="14.00">turbine_wind_resource_results</text>
<polygon fill="none" stroke="black" points="742,-222 742,-243 950,-243 950,-222 742,-222"/>
<text text-anchor="start" x="815.5" y="-228.8" font-family="Times New Roman,serif" font-size="14.00">list[Result]</text>
<polygon fill="none" stroke="black" points="540,-201 540,-222 742,-222 742,-201 540,-201"/>
<text text-anchor="start" x="543" y="-207.8" font-family="Times New Roman,serif" font-size="14.00">wind_spatial_modelling_processes</text>
<polygon fill="none" stroke="black" points="742,-201 742,-222 950,-222 950,-201 742,-201"/>
<text text-anchor="start" x="745" y="-207.8" font-family="Times New Roman,serif" font-size="14.00">list[AssessmentProcessDescription]</text>
<polygon fill="none" stroke="black" points="540,-180 540,-201 742,-201 742,-180 540,-180"/>
<text text-anchor="start" x="575" y="-186.8" font-family="Times New Roman,serif" font-size="14.00">uncertainty_assessment</text>
<polygon fill="none" stroke="black" points="742,-180 742,-201 950,-201 950,-180 742,-180"/>
<text text-anchor="start" x="752" y="-186.8" font-family="Times New Roman,serif" font-size="14.00">Optional[UncertaintyAssessment]</text>
</a>
</g>
</g>
<!-- eya_def_tools.data_models.scenario.Scenario&#45;&gt;eya_def_tools.data_models.wind_resource.TurbineWindResourceAssessment -->
<g id="edge3" class="edge">
<title>eya_def_tools.data_models.scenario.Scenario:e&#45;&gt;eya_def_tools.data_models.wind_resource.TurbineWindResourceAssessment:w</title>
<path fill="none" stroke="black" d="M432,-271C475.28,-271 488.59,-257.52 525.31,-254.57"/>
<polyline fill="none" stroke="black" points="540,-254 535,-254.19"/>
<polygon fill="black" stroke="black" points="533.81,-249.23 534.2,-259.23 532.2,-259.3 531.81,-249.31 533.81,-249.23"/>
<polyline fill="none" stroke="black" points="535,-254.19 530.01,-254.38"/>
<polygon fill="black" stroke="black" points="528.82,-249.43 529.2,-259.42 527.2,-259.5 526.82,-249.5 528.82,-249.43"/>
<polyline fill="none" stroke="black" points="530.01,-254.38 525.01,-254.58"/>
</g>
<!-- eya_def_tools.data_models.wind_resource.WindResourceAssessmentReference -->
<g id="node5" class="node">
<title>eya_def_tools.data_models.wind_resource.WindResourceAssessmentReference</title>
<g id="a_node5"><a xlink:title="eya_def_tools.data_models.wind_resource.WindResourceAssessmentReference&#10;&#10;Measurement wind resource assessment basis in a scenario.&#10;">
<polygon fill="none" stroke="black" points="630,-300 630,-321 860,-321 860,-300 630,-300"/>
<text text-anchor="start" x="633" y="-307.8" font-family="Times New Roman,serif" font-weight="bold" font-size="14.00">WindResourceAssessmentReference</text>
</a>
</g>
</g>
<!-- eya_def_tools.data_models.scenario.Scenario&#45;&gt;eya_def_tools.data_models.wind_resource.WindResourceAssessmentReference -->
<g id="edge4" class="edge">
<title>eya_def_tools.data_models.scenario.Scenario:e&#45;&gt;eya_def_tools.data_models.wind_resource.WindResourceAssessmentReference:w</title>
<path fill="none" stroke="black" d="M432,-292C514.77,-292 538.37,-307.95 614.21,-309.82"/>
<polyline fill="none" stroke="black" points="629,-310 624,-309.94"/>
<polygon fill="black" stroke="black" points="623.06,-304.93 622.94,-314.93 620.94,-314.9 621.06,-304.9 623.06,-304.93"/>
<polyline fill="none" stroke="black" points="624,-309.94 619,-309.88"/>
<polygon fill="black" stroke="black" points="618.06,-304.87 617.94,-314.87 615.94,-314.84 616.06,-304.84 618.06,-304.87"/>
<polyline fill="none" stroke="black" points="619,-309.88 614,-309.82"/>
</g>
</g>
</svg>
