<?xml version="1.0" encoding="UTF-8" standalone="no"?>
<!DOCTYPE svg PUBLIC "-//W3C//DTD SVG 1.1//EN"
 "http://www.w3.org/Graphics/SVG/1.1/DTD/svg11.dtd">
<!-- Generated by graphviz version 7.0.4 (20221203.1631)
 -->
<!-- Title: Entity Relationship Diagram Pages: 1 -->
<svg width="1337pt" height="322pt"
 viewBox="0.00 0.00 1337.00 322.00" xmlns="http://www.w3.org/2000/svg" xmlns:xlink="http://www.w3.org/1999/xlink">
<g id="graph0" class="graph" transform="scale(1 1) rotate(0) translate(4 318)">
<title>Entity Relationship Diagram</title>
<polygon fill="white" stroke="none" points="-4,4 -4,-318 1333,-318 1333,4 -4,4"/>
<text text-anchor="middle" x="664.5" y="-6.8" font-family="Times New Roman,serif" font-size="9.00" fill="#a8a8a8">Created by erdantic v0.5.0 &lt;https://github.com/drivendataorg/erdantic&gt;</text>
<!-- eya_def_tools.data_models.result.Result -->
<g id="node1" class="node">
<title>eya_def_tools.data_models.result.Result</title>
<g id="a_node1"><a xlink:title="eya_def_tools.data_models.result.Result&#10;&#10;Set of results for an element of an energy assessment.&#10;&#10;Attributes:&#10; &#160;&#160;&#160;quantity (Optional[ResultsQuantity(StrEnum)]): The quantity that the set of results describe, where this is not obvious from the context. Default is None.&#10; &#160;&#160;&#160;label (Optional[str]): Label of the results. Default is None.&#10; &#160;&#160;&#160;description (Optional[str]): Description of the data object. Default is None.&#10; &#160;&#160;&#160;comments (Optional[str]): Comments on the data object. Default is None.&#10; &#160;&#160;&#160;assessment_period (Optional[AssessmentPeriod(StrEnum)]): Period of or in time that has been assessed and for which the results are applicable. Default is None.&#10; &#160;&#160;&#160;dimensions (Optional[tuple[ResultsDimension(StrEnum), ...]]): Dimensions along which the results are binned (all result values in the same results object must have the same dimensions). Default is None.&#10; &#160;&#160;&#160;statistics (list[ResultStatistic]): List of result statistic objects that each include result values for a specific statistic type.&#10;">
<polygon fill="none" stroke="black" points="353,-249.5 353,-270.5 743,-270.5 743,-249.5 353,-249.5"/>
<text text-anchor="start" x="528" y="-257.3" font-family="Times New Roman,serif" font-weight="bold" font-size="14.00">Result</text>
<polygon fill="none" stroke="black" points="353,-228.5 353,-249.5 466,-249.5 466,-228.5 353,-228.5"/>
<text text-anchor="start" x="387" y="-235.3" font-family="Times New Roman,serif" font-size="14.00">quantity</text>
<polygon fill="none" stroke="black" points="466,-228.5 466,-249.5 743,-249.5 743,-228.5 466,-228.5"/>
<text text-anchor="start" x="502.5" y="-235.3" font-family="Times New Roman,serif" font-size="14.00">Optional[ResultsQuantity(StrEnum)]</text>
<polygon fill="none" stroke="black" points="353,-207.5 353,-228.5 466,-228.5 466,-207.5 353,-207.5"/>
<text text-anchor="start" x="396.5" y="-214.3" font-family="Times New Roman,serif" font-size="14.00">label</text>
<polygon fill="none" stroke="black" points="466,-207.5 466,-228.5 743,-228.5 743,-207.5 466,-207.5"/>
<text text-anchor="start" x="568.5" y="-214.3" font-family="Times New Roman,serif" font-size="14.00">Optional[str]</text>
<polygon fill="none" stroke="black" points="353,-186.5 353,-207.5 466,-207.5 466,-186.5 353,-186.5"/>
<text text-anchor="start" x="378" y="-193.3" font-family="Times New Roman,serif" font-size="14.00">description</text>
<polygon fill="none" stroke="black" points="466,-186.5 466,-207.5 743,-207.5 743,-186.5 466,-186.5"/>
<text text-anchor="start" x="568.5" y="-193.3" font-family="Times New Roman,serif" font-size="14.00">Optional[str]</text>
<polygon fill="none" stroke="black" points="353,-165.5 353,-186.5 466,-186.5 466,-165.5 353,-165.5"/>
<text text-anchor="start" x="380.5" y="-172.3" font-family="Times New Roman,serif" font-size="14.00">comments</text>
<polygon fill="none" stroke="black" points="466,-165.5 466,-186.5 743,-186.5 743,-165.5 466,-165.5"/>
<text text-anchor="start" x="568.5" y="-172.3" font-family="Times New Roman,serif" font-size="14.00">Optional[str]</text>
<polygon fill="none" stroke="black" points="353,-144.5 353,-165.5 466,-165.5 466,-144.5 353,-144.5"/>
<text text-anchor="start" x="356" y="-151.3" font-family="Times New Roman,serif" font-size="14.00">assessment_period</text>
<polygon fill="none" stroke="black" points="466,-144.5 466,-165.5 743,-165.5 743,-144.5 466,-144.5"/>
<text text-anchor="start" x="495" y="-151.3" font-family="Times New Roman,serif" font-size="14.00">Optional[AssessmentPeriod(StrEnum)]</text>
<polygon fill="none" stroke="black" points="353,-123.5 353,-144.5 466,-144.5 466,-123.5 353,-123.5"/>
<text text-anchor="start" x="377.5" y="-130.3" font-family="Times New Roman,serif" font-size="14.00">dimensions</text>
<polygon fill="none" stroke="black" points="466,-123.5 466,-144.5 743,-144.5 743,-123.5 466,-123.5"/>
<text text-anchor="start" x="469" y="-130.3" font-family="Times New Roman,serif" font-size="14.00">Optional[tuple[ResultsDimension(StrEnum), ...]]</text>
<polygon fill="none" stroke="black" points="353,-102.5 353,-123.5 466,-123.5 466,-102.5 353,-102.5"/>
<text text-anchor="start" x="385" y="-109.3" font-family="Times New Roman,serif" font-size="14.00">statistics</text>
<polygon fill="none" stroke="black" points="466,-102.5 466,-123.5 743,-123.5 743,-102.5 466,-102.5"/>
<text text-anchor="start" x="552" y="-109.3" font-family="Times New Roman,serif" font-size="14.00">list[ResultStatistic]</text>
</a>
</g>
</g>
<!-- eya_def_tools.data_models.result.ResultStatistic -->
<g id="node2" class="node">
<title>eya_def_tools.data_models.result.ResultStatistic</title>
<g id="a_node2"><a xlink:title="eya_def_tools.data_models.result.ResultStatistic&#10;&#10;Result values for one specific statistic type.&#10;&#10;Attributes:&#10; &#160;&#160;&#160;description (Optional[str]): Description of the data object. Default is None.&#10; &#160;&#160;&#160;comments (Optional[str]): Comments on the data object. Default is None.&#10; &#160;&#160;&#160;statistic_type (StatisticType(StrEnum)): Type of statistic in the results component.&#10; &#160;&#160;&#160;values (UnionType[float, list[tuple[tuple[UnionType[float, int, str], ...], float]]]): Result as a single number or values at coordinates.&#10;">
<polygon fill="none" stroke="black" points="851,-101.5 851,-122.5 1329,-122.5 1329,-101.5 851,-101.5"/>
<text text-anchor="start" x="1045.5" y="-109.3" font-family="Times New Roman,serif" font-weight="bold" font-size="14.00">ResultStatistic</text>
<polygon fill="none" stroke="black" points="851,-80.5 851,-101.5 931,-101.5 931,-80.5 851,-80.5"/>
<text text-anchor="start" x="859.5" y="-87.3" font-family="Times New Roman,serif" font-size="14.00">description</text>
<polygon fill="none" stroke="black" points="931,-80.5 931,-101.5 1329,-101.5 1329,-80.5 931,-80.5"/>
<text text-anchor="start" x="1094" y="-87.3" font-family="Times New Roman,serif" font-size="14.00">Optional[str]</text>
<polygon fill="none" stroke="black" points="851,-59.5 851,-80.5 931,-80.5 931,-59.5 851,-59.5"/>
<text text-anchor="start" x="862" y="-66.3" font-family="Times New Roman,serif" font-size="14.00">comments</text>
<polygon fill="none" stroke="black" points="931,-59.5 931,-80.5 1329,-80.5 1329,-59.5 931,-59.5"/>
<text text-anchor="start" x="1094" y="-66.3" font-family="Times New Roman,serif" font-size="14.00">Optional[str]</text>
<polygon fill="none" stroke="black" points="851,-38.5 851,-59.5 931,-59.5 931,-38.5 851,-38.5"/>
<text text-anchor="start" x="854" y="-45.3" font-family="Times New Roman,serif" font-size="14.00">statistic_type</text>
<polygon fill="none" stroke="black" points="931,-38.5 931,-59.5 1329,-59.5 1329,-38.5 931,-38.5"/>
<text text-anchor="start" x="1064" y="-45.3" font-family="Times New Roman,serif" font-size="14.00">StatisticType(StrEnum)</text>
<polygon fill="none" stroke="black" points="851,-17.5 851,-38.5 931,-38.5 931,-17.5 851,-17.5"/>
<text text-anchor="start" x="873.5" y="-24.3" font-family="Times New Roman,serif" font-size="14.00">values</text>
<polygon fill="none" stroke="black" points="931,-17.5 931,-38.5 1329,-38.5 1329,-17.5 931,-17.5"/>
<text text-anchor="start" x="934" y="-24.3" font-family="Times New Roman,serif" font-size="14.00">UnionType[float, list[tuple[tuple[UnionType[float, int, str], ...], float]]]</text>
</a>
</g>
</g>
<!-- eya_def_tools.data_models.result.Result&#45;&gt;eya_def_tools.data_models.result.ResultStatistic -->
<g id="edge1" class="edge">
<title>eya_def_tools.data_models.result.Result:e&#45;&gt;eya_def_tools.data_models.result.ResultStatistic:w</title>
<path fill="none" stroke="black" d="M743,-112.5C784.06,-112.5 798.78,-112.5 832.23,-112.5"/>
<polygon fill="black" stroke="black" points="841,-112.5 851,-117 846,-112.5 851,-112.5 851,-112.5 851,-112.5 846,-112.5 851,-108 841,-112.5 841,-112.5"/>
<ellipse fill="none" stroke="black" cx="836.5" cy="-112.5" rx="4" ry="4"/>
</g>
<!-- eya_def_tools.data_models.wind_resource.WindResourceAssessment -->
<g id="node3" class="node">
<title>eya_def_tools.data_models.wind_resource.WindResourceAssessment</title>
<g id="a_node3"><a xlink:title="eya_def_tools.data_models.wind_resource.WindResourceAssessment&#10;&#10;Wind resource assessment at the measurement location(s).&#10;&#10;Attributes:&#10; &#160;&#160;&#160;wind_resource_assessment_id (str): Unique ID of the wind resource assessment within the EYA DEF document.&#10; &#160;&#160;&#160;wind_speed_results (list[Result]): Final long&#45;term wind speed estimates from the wind resource assessment at the measurement location(s).&#10;">
<polygon fill="none" stroke="black" points="0.5,-292.5 0.5,-313.5 245.5,-313.5 245.5,-292.5 0.5,-292.5"/>
<text text-anchor="start" x="42" y="-300.3" font-family="Times New Roman,serif" font-weight="bold" font-size="14.00">WindResourceAssessment</text>
<polygon fill="none" stroke="black" points="0.5,-271.5 0.5,-292.5 178.5,-292.5 178.5,-271.5 0.5,-271.5"/>
<text text-anchor="start" x="3.5" y="-278.3" font-family="Times New Roman,serif" font-size="14.00">wind_resource_assessment_id</text>
<polygon fill="none" stroke="black" points="178.5,-271.5 178.5,-292.5 245.5,-292.5 245.5,-271.5 178.5,-271.5"/>
<text text-anchor="start" x="204.5" y="-278.3" font-family="Times New Roman,serif" font-size="14.00">str</text>
<polygon fill="none" stroke="black" points="0.5,-250.5 0.5,-271.5 178.5,-271.5 178.5,-250.5 0.5,-250.5"/>
<text text-anchor="start" x="33.5" y="-257.3" font-family="Times New Roman,serif" font-size="14.00">wind_speed_results</text>
<polygon fill="none" stroke="black" points="178.5,-250.5 178.5,-271.5 245.5,-271.5 245.5,-250.5 178.5,-250.5"/>
<text text-anchor="start" x="181.5" y="-257.3" font-family="Times New Roman,serif" font-size="14.00">list[Result]</text>
</a>
</g>
</g>
<!-- eya_def_tools.data_models.wind_resource.WindResourceAssessment&#45;&gt;eya_def_tools.data_models.result.Result -->
<g id="edge2" class="edge">
<title>eya_def_tools.data_models.wind_resource.WindResourceAssessment:e&#45;&gt;eya_def_tools.data_models.result.Result:w</title>
<path fill="none" stroke="black" d="M245,-260.5C286.06,-260.5 300.78,-260.5 334.23,-260.5"/>
<polygon fill="black" stroke="black" points="343,-260.5 353,-265 348,-260.5 353,-260.5 353,-260.5 353,-260.5 348,-260.5 353,-256 343,-260.5 343,-260.5"/>
<ellipse fill="none" stroke="black" cx="338.5" cy="-260.5" rx="4" ry="4"/>
</g>
</g>
</svg>
