<?xml version="1.0" encoding="UTF-8" standalone="no"?>
<!DOCTYPE svg PUBLIC "-//W3C//DTD SVG 1.1//EN"
 "http://www.w3.org/Graphics/SVG/1.1/DTD/svg11.dtd">
<!-- Generated by graphviz version 12.2.1 (20241206.2353)
 -->
<!-- Title: Entity Relationship Diagram created by erdantic Pages: 1 -->
<svg width="1808pt" height="400pt"
 viewBox="0.00 0.00 1808.00 399.75" xmlns="http://www.w3.org/2000/svg" xmlns:xlink="http://www.w3.org/1999/xlink">
<g id="graph0" class="graph" transform="scale(1 1) rotate(0) translate(4 395.75)">
<title>Entity Relationship Diagram created by erdantic</title>
<polygon fill="white" stroke="none" points="-4,4 -4,-395.75 1804,-395.75 1804,4 -4,4"/>
<text text-anchor="middle" x="900" y="-5.95" font-family="Times New Roman,Times,Liberation Serif,serif" font-size="9.00" fill="#a8a8a8">Created by erdantic v1.0.5 &lt;https://github.com/drivendataorg/erdantic&gt;</text>
<!-- eya_def_tools.data_models.dataset.BasicStatistic -->
<g id="node1" class="node">
<title>eya_def_tools.data_models.dataset.BasicStatistic</title>
<g id="a_node1"><a xlink:title="eya_def_tools.data_models.dataset.BasicStatistic&#10;&#10;Specification of a statistic that only requires type definition.&#10;&#10;Fields:&#10; &#160;&#160;&#160;statistic_type: Specification of the type of statistic, using the standardised naming conventions.&#10; &#160;&#160;&#160;return_period: Optional specification of the return period in years, to be included when relevant to the context and statistic in question. It may for example specify a 1&#45;year or a 10&#45;year return period for the standard deviation of an uncertainty distribution or certain probability of exceedance level. Default is None.&#10;">
<polygon fill="none" stroke="black" points="1081.5,-293.5 1081.5,-316 1800,-316 1800,-293.5 1081.5,-293.5"/>
<text text-anchor="start" x="1402.12" y="-300.7" font-family="Times New Roman,Times,Liberation Serif,serif" font-weight="bold" font-size="14.00">BasicStatistic</text>
<polygon fill="none" stroke="black" points="1081.5,-271 1081.5,-293.5 1161,-293.5 1161,-271 1081.5,-271"/>
<text text-anchor="start" x="1085.62" y="-277.2" font-family="Times New Roman,Times,Liberation Serif,serif" font-size="14.00">statistic_type</text>
<polygon fill="none" stroke="black" points="1161,-271 1161,-293.5 1672.5,-293.5 1672.5,-271 1161,-271"/>
<text text-anchor="start" x="1164" y="-277.2" font-family="Times New Roman,Times,Liberation Serif,serif" font-size="14.00">Literal[&#39;sum&#39;, &#39;mean&#39;, &#39;median&#39;, &#39;standard_deviation&#39;, &#39;minimum&#39;, &#39;maximum&#39;, &#39;sample_count&#39;]</text>
<polygon fill="none" stroke="black" points="1672.5,-271 1672.5,-293.5 1800,-293.5 1800,-271 1672.5,-271"/>
<text text-anchor="start" x="1720.88" y="-277.2" font-family="Times New Roman,Times,Liberation Serif,serif" font-size="14.00">string</text>
<polygon fill="none" stroke="black" points="1081.5,-248.5 1081.5,-271 1161,-271 1161,-248.5 1081.5,-248.5"/>
<text text-anchor="start" x="1084.5" y="-254.7" font-family="Times New Roman,Times,Liberation Serif,serif" font-size="14.00">return_period</text>
<polygon fill="none" stroke="black" points="1161,-248.5 1161,-271 1672.5,-271 1672.5,-248.5 1161,-248.5"/>
<text text-anchor="start" x="1372.12" y="-254.7" font-family="Times New Roman,Times,Liberation Serif,serif" font-size="14.00">int | float | None</text>
<polygon fill="none" stroke="black" points="1672.5,-248.5 1672.5,-271 1800,-271 1800,-248.5 1672.5,-248.5"/>
<text text-anchor="start" x="1675.5" y="-254.7" font-family="Times New Roman,Times,Liberation Serif,serif" font-size="14.00">integer | number | null</text>
</a>
</g>
</g>
<!-- eya_def_tools.data_models.dataset.Dataset -->
<g id="node2" class="node">
<title>eya_def_tools.data_models.dataset.Dataset</title>
<g id="a_node2"><a xlink:title="eya_def_tools.data_models.dataset.Dataset&#10;&#10;Collection of labelled data for one specific quantity.&#10;&#10;The data is labelled by specifying dimensions and including&#10;coordinates along the dimensions for each data value.&#10;&#10;Fields:&#10; &#160;&#160;&#160;label: Optional label of the dataset, which should not be empty if the field is included. Default is None.&#10; &#160;&#160;&#160;description: Optional description of the dataset, which should not be empty if the field is included. Default is None.&#10; &#160;&#160;&#160;comments: Optional comments on the dataset, which should not be empty if the field is included. Default is None.&#10; &#160;&#160;&#160;dimensions: Dimensions along which the dataset is binned. All statistics within the same dataset object must have the same dimensions. The dimensions must correspond to and be listed in the same order as the coordinates for the values of all statistics. A dataset without dimensions can only have a single value for each statistic. Default is None.&#10; &#160;&#160;&#160;statistics: List of dataset statistic objects that each include data values for a specific statistic type. For example, there may be two statistics, one for mean values and one for standard deviation values.&#10;">
<polygon fill="none" stroke="black" points="0,-369.25 0,-391.75 308.25,-391.75 308.25,-369.25 0,-369.25"/>
<text text-anchor="start" x="132.38" y="-376.45" font-family="Times New Roman,Times,Liberation Serif,serif" font-weight="bold" font-size="14.00">Dataset</text>
<polygon fill="none" stroke="black" points="0,-346.75 0,-369.25 68.25,-369.25 68.25,-346.75 0,-346.75"/>
<text text-anchor="start" x="21" y="-352.95" font-family="Times New Roman,Times,Liberation Serif,serif" font-size="14.00">label</text>
<polygon fill="none" stroke="black" points="68.25,-346.75 68.25,-369.25 240,-369.25 240,-346.75 68.25,-346.75"/>
<text text-anchor="start" x="127.5" y="-352.95" font-family="Times New Roman,Times,Liberation Serif,serif" font-size="14.00">str | None</text>
<polygon fill="none" stroke="black" points="240,-346.75 240,-369.25 308.25,-369.25 308.25,-346.75 240,-346.75"/>
<text text-anchor="start" x="243" y="-352.95" font-family="Times New Roman,Times,Liberation Serif,serif" font-size="14.00">string | null</text>
<polygon fill="none" stroke="black" points="0,-324.25 0,-346.75 68.25,-346.75 68.25,-324.25 0,-324.25"/>
<text text-anchor="start" x="4.12" y="-330.45" font-family="Times New Roman,Times,Liberation Serif,serif" font-size="14.00">description</text>
<polygon fill="none" stroke="black" points="68.25,-324.25 68.25,-346.75 240,-346.75 240,-324.25 68.25,-324.25"/>
<text text-anchor="start" x="127.5" y="-330.45" font-family="Times New Roman,Times,Liberation Serif,serif" font-size="14.00">str | None</text>
<polygon fill="none" stroke="black" points="240,-324.25 240,-346.75 308.25,-346.75 308.25,-324.25 240,-324.25"/>
<text text-anchor="start" x="243" y="-330.45" font-family="Times New Roman,Times,Liberation Serif,serif" font-size="14.00">string | null</text>
<polygon fill="none" stroke="black" points="0,-301.75 0,-324.25 68.25,-324.25 68.25,-301.75 0,-301.75"/>
<text text-anchor="start" x="5.62" y="-307.95" font-family="Times New Roman,Times,Liberation Serif,serif" font-size="14.00">comments</text>
<polygon fill="none" stroke="black" points="68.25,-301.75 68.25,-324.25 240,-324.25 240,-301.75 68.25,-301.75"/>
<text text-anchor="start" x="127.5" y="-307.95" font-family="Times New Roman,Times,Liberation Serif,serif" font-size="14.00">str | None</text>
<polygon fill="none" stroke="black" points="240,-301.75 240,-324.25 308.25,-324.25 308.25,-301.75 240,-301.75"/>
<text text-anchor="start" x="243" y="-307.95" font-family="Times New Roman,Times,Liberation Serif,serif" font-size="14.00">string | null</text>
<polygon fill="none" stroke="black" points="0,-279.25 0,-301.75 68.25,-301.75 68.25,-279.25 0,-279.25"/>
<text text-anchor="start" x="3" y="-285.45" font-family="Times New Roman,Times,Liberation Serif,serif" font-size="14.00">dimensions</text>
<polygon fill="none" stroke="black" points="68.25,-279.25 68.25,-301.75 240,-301.75 240,-279.25 68.25,-279.25"/>
<text text-anchor="start" x="71.25" y="-285.45" font-family="Times New Roman,Times,Liberation Serif,serif" font-size="14.00">list[DatasetDimension] | None</text>
<polygon fill="none" stroke="black" points="240,-279.25 240,-301.75 308.25,-301.75 308.25,-279.25 240,-279.25"/>
<text text-anchor="start" x="244.5" y="-285.45" font-family="Times New Roman,Times,Liberation Serif,serif" font-size="14.00">array | null</text>
<polygon fill="none" stroke="black" points="0,-256.75 0,-279.25 68.25,-279.25 68.25,-256.75 0,-256.75"/>
<text text-anchor="start" x="10.88" y="-262.95" font-family="Times New Roman,Times,Liberation Serif,serif" font-size="14.00">statistics</text>
<polygon fill="none" stroke="black" points="68.25,-256.75 68.25,-279.25 240,-279.25 240,-256.75 68.25,-256.75"/>
<text text-anchor="start" x="99.38" y="-262.95" font-family="Times New Roman,Times,Liberation Serif,serif" font-size="14.00">list[DatasetStatistic]</text>
<polygon fill="none" stroke="black" points="240,-256.75 240,-279.25 308.25,-279.25 308.25,-256.75 240,-256.75"/>
<text text-anchor="start" x="260.25" y="-262.95" font-family="Times New Roman,Times,Liberation Serif,serif" font-size="14.00">array</text>
</a>
</g>
</g>
<!-- eya_def_tools.data_models.dataset.DatasetStatistic -->
<g id="node3" class="node">
<title>eya_def_tools.data_models.dataset.DatasetStatistic</title>
<g id="a_node3"><a xlink:title="eya_def_tools.data_models.dataset.DatasetStatistic&#10;&#10;Dataset values for one specific statistic type.&#10;&#10;Fields:&#10; &#160;&#160;&#160;description: Optional description of the dataset statistic, which should not be empty if the field is included. Default is None.&#10; &#160;&#160;&#160;comments: Optional comments on the dataset statistic, which should not be empty if the field is included. Default is None.&#10; &#160;&#160;&#160;statistic: Specification of the statistic that the element of the dataset corresponds to.&#10; &#160;&#160;&#160;values: Dataset value(s) as a single number or one or more values at coordinates. If more than one value is included the values must be represented together with coordinates. A single value can be included either with or without coordinates. The coordinates must correspond to and be listed the same order as the dimensions specified for the dataset.&#10;">
<polygon fill="none" stroke="black" points="416.25,-257 416.25,-279.5 973.5,-279.5 973.5,-257 416.25,-257"/>
<text text-anchor="start" x="649.88" y="-264.2" font-family="Times New Roman,Times,Liberation Serif,serif" font-weight="bold" font-size="14.00">DatasetStatistic</text>
<polygon fill="none" stroke="black" points="416.25,-234.5 416.25,-257 482.25,-257 482.25,-234.5 416.25,-234.5"/>
<text text-anchor="start" x="419.25" y="-240.7" font-family="Times New Roman,Times,Liberation Serif,serif" font-size="14.00">description</text>
<polygon fill="none" stroke="black" points="482.25,-234.5 482.25,-257 887.25,-257 887.25,-234.5 482.25,-234.5"/>
<text text-anchor="start" x="658.12" y="-240.7" font-family="Times New Roman,Times,Liberation Serif,serif" font-size="14.00">str | None</text>
<polygon fill="none" stroke="black" points="887.25,-234.5 887.25,-257 973.5,-257 973.5,-234.5 887.25,-234.5"/>
<text text-anchor="start" x="899.25" y="-240.7" font-family="Times New Roman,Times,Liberation Serif,serif" font-size="14.00">string | null</text>
<polygon fill="none" stroke="black" points="416.25,-212 416.25,-234.5 482.25,-234.5 482.25,-212 416.25,-212"/>
<text text-anchor="start" x="420.75" y="-218.2" font-family="Times New Roman,Times,Liberation Serif,serif" font-size="14.00">comments</text>
<polygon fill="none" stroke="black" points="482.25,-212 482.25,-234.5 887.25,-234.5 887.25,-212 482.25,-212"/>
<text text-anchor="start" x="658.12" y="-218.2" font-family="Times New Roman,Times,Liberation Serif,serif" font-size="14.00">str | None</text>
<polygon fill="none" stroke="black" points="887.25,-212 887.25,-234.5 973.5,-234.5 973.5,-212 887.25,-212"/>
<text text-anchor="start" x="899.25" y="-218.2" font-family="Times New Roman,Times,Liberation Serif,serif" font-size="14.00">string | null</text>
<polygon fill="none" stroke="black" points="416.25,-189.5 416.25,-212 482.25,-212 482.25,-189.5 416.25,-189.5"/>
<text text-anchor="start" x="428.62" y="-195.7" font-family="Times New Roman,Times,Liberation Serif,serif" font-size="14.00">statistic</text>
<polygon fill="none" stroke="black" points="482.25,-189.5 482.25,-212 887.25,-212 887.25,-189.5 482.25,-189.5"/>
<text text-anchor="start" x="485.25" y="-195.7" font-family="Times New Roman,Times,Liberation Serif,serif" font-size="14.00">BasicStatistic | InterAnnualVariabilityStatistic | ExceedanceLevelStatistic</text>
<polygon fill="none" stroke="black" points="887.25,-189.5 887.25,-212 973.5,-212 973.5,-189.5 887.25,-189.5"/>
<polygon fill="none" stroke="black" points="416.25,-167 416.25,-189.5 482.25,-189.5 482.25,-167 416.25,-167"/>
<text text-anchor="start" x="432" y="-173.2" font-family="Times New Roman,Times,Liberation Serif,serif" font-size="14.00">values</text>
<polygon fill="none" stroke="black" points="482.25,-167 482.25,-189.5 887.25,-189.5 887.25,-167 482.25,-167"/>
<text text-anchor="start" x="532.5" y="-173.2" font-family="Times New Roman,Times,Liberation Serif,serif" font-size="14.00">Union[float, list[tuple[list[Union[int, float, str]], float]]]</text>
<polygon fill="none" stroke="black" points="887.25,-167 887.25,-189.5 973.5,-189.5 973.5,-167 887.25,-167"/>
<text text-anchor="start" x="890.25" y="-173.2" font-family="Times New Roman,Times,Liberation Serif,serif" font-size="14.00">number | array</text>
</a>
</g>
</g>
<!-- eya_def_tools.data_models.dataset.Dataset&#45;&gt;eya_def_tools.data_models.dataset.DatasetStatistic -->
<g id="edge1" class="edge">
<title>eya_def_tools.data_models.dataset.Dataset:e&#45;&gt;eya_def_tools.data_models.dataset.DatasetStatistic:w</title>
<path fill="none" stroke="black" d="M318.12,-268C353.17,-268.03 367.92,-268.2 400.89,-268.24"/>
<polyline fill="none" stroke="black" points="308.25,-268 313.25,-268"/>
<polyline fill="none" stroke="black" points="313.25,-268 318.25,-268"/>
<polygon fill="black" stroke="black" points="405.92,-268.24 415.91,-272.75 411.25,-268.25 415.58,-268.25 415.58,-268.25 415.58,-268.25 411.25,-268.25 415.92,-263.75 405.92,-268.24"/>
<polyline fill="none" stroke="black" points="404.7,-268.24 399.7,-268.24"/>
</g>
<!-- eya_def_tools.data_models.dataset.DatasetStatistic&#45;&gt;eya_def_tools.data_models.dataset.BasicStatistic -->
<g id="edge2" class="edge">
<title>eya_def_tools.data_models.dataset.DatasetStatistic:e&#45;&gt;eya_def_tools.data_models.dataset.BasicStatistic:w</title>
<path fill="none" stroke="black" d="M983.3,-201.59C1032.94,-210.56 1021.21,-288.99 1066.66,-302.71"/>
<polyline fill="none" stroke="black" points="973.5,-200.75 978.48,-201.18"/>
<polyline fill="none" stroke="black" points="978.48,-201.18 983.46,-201.6"/>
<polyline fill="none" stroke="black" points="1081.5,-304.75 1076.55,-304.07"/>
<polygon fill="black" stroke="black" points="1076.24,-298.98 1074.87,-308.89 1072.89,-308.61 1074.26,-298.71 1076.24,-298.98"/>
<polyline fill="none" stroke="black" points="1076.55,-304.07 1071.59,-303.39"/>
<polygon fill="black" stroke="black" points="1071.28,-298.3 1069.92,-308.2 1067.94,-307.93 1069.3,-298.02 1071.28,-298.3"/>
<polyline fill="none" stroke="black" points="1071.59,-303.39 1066.64,-302.7"/>
</g>
<!-- eya_def_tools.data_models.dataset.ExceedanceLevelStatistic -->
<g id="node4" class="node">
<title>eya_def_tools.data_models.dataset.ExceedanceLevelStatistic</title>
<g id="a_node4"><a xlink:title="eya_def_tools.data_models.dataset.ExceedanceLevelStatistic&#10;&#10;Specification of a probability of exceedance level statistic.&#10;&#10;Fields:&#10; &#160;&#160;&#160;statistic_type: Specification of the type of statistic, using the standardised naming conventions. For an exceedance level statistic, the type must always be &#39;exceedance_level&#39;. Default is &#39;exceedance_level&#39;.&#10; &#160;&#160;&#160;probability: The dimensionless probability of exceedance level (i.e. probability value between 0.0 and 1.0) of the statistic.&#10; &#160;&#160;&#160;return_period: Optional specification of the return period in years, to be included when relevant to the context and statistic in question. It may for example specify a 1&#45;year or a 10&#45;year return period for the standard deviation of an uncertainty distribution or certain probability of exceedance level. Default is None.&#10;">
<polygon fill="none" stroke="black" points="1261.88,-189.75 1261.88,-212.25 1619.62,-212.25 1619.62,-189.75 1261.88,-189.75"/>
<text text-anchor="start" x="1368" y="-196.95" font-family="Times New Roman,Times,Liberation Serif,serif" font-weight="bold" font-size="14.00">ExceedanceLevelStatistic</text>
<polygon fill="none" stroke="black" points="1261.88,-167.25 1261.88,-189.75 1341.38,-189.75 1341.38,-167.25 1261.88,-167.25"/>
<text text-anchor="start" x="1266" y="-173.45" font-family="Times New Roman,Times,Liberation Serif,serif" font-size="14.00">statistic_type</text>
<polygon fill="none" stroke="black" points="1341.38,-167.25 1341.38,-189.75 1492.12,-189.75 1492.12,-167.25 1341.38,-167.25"/>
<text text-anchor="start" x="1344.38" y="-173.45" font-family="Times New Roman,Times,Liberation Serif,serif" font-size="14.00">Literal[&#39;exceedance_level&#39;]</text>
<polygon fill="none" stroke="black" points="1492.12,-167.25 1492.12,-189.75 1619.62,-189.75 1619.62,-167.25 1492.12,-167.25"/>
<text text-anchor="start" x="1540.5" y="-173.45" font-family="Times New Roman,Times,Liberation Serif,serif" font-size="14.00">string</text>
<polygon fill="none" stroke="black" points="1261.88,-144.75 1261.88,-167.25 1341.38,-167.25 1341.38,-144.75 1261.88,-144.75"/>
<text text-anchor="start" x="1272" y="-150.95" font-family="Times New Roman,Times,Liberation Serif,serif" font-size="14.00">probability</text>
<polygon fill="none" stroke="black" points="1341.38,-144.75 1341.38,-167.25 1492.12,-167.25 1492.12,-144.75 1341.38,-144.75"/>
<text text-anchor="start" x="1404.38" y="-150.95" font-family="Times New Roman,Times,Liberation Serif,serif" font-size="14.00">float</text>
<polygon fill="none" stroke="black" points="1492.12,-144.75 1492.12,-167.25 1619.62,-167.25 1619.62,-144.75 1492.12,-144.75"/>
<text text-anchor="start" x="1534.88" y="-150.95" font-family="Times New Roman,Times,Liberation Serif,serif" font-size="14.00">number</text>
<polygon fill="none" stroke="black" points="1261.88,-122.25 1261.88,-144.75 1341.38,-144.75 1341.38,-122.25 1261.88,-122.25"/>
<text text-anchor="start" x="1264.88" y="-128.45" font-family="Times New Roman,Times,Liberation Serif,serif" font-size="14.00">return_period</text>
<polygon fill="none" stroke="black" points="1341.38,-122.25 1341.38,-144.75 1492.12,-144.75 1492.12,-122.25 1341.38,-122.25"/>
<text text-anchor="start" x="1372.12" y="-128.45" font-family="Times New Roman,Times,Liberation Serif,serif" font-size="14.00">int | float | None</text>
<polygon fill="none" stroke="black" points="1492.12,-122.25 1492.12,-144.75 1619.62,-144.75 1619.62,-122.25 1492.12,-122.25"/>
<text text-anchor="start" x="1495.12" y="-128.45" font-family="Times New Roman,Times,Liberation Serif,serif" font-size="14.00">integer | number | null</text>
</a>
</g>
</g>
<!-- eya_def_tools.data_models.dataset.DatasetStatistic&#45;&gt;eya_def_tools.data_models.dataset.ExceedanceLevelStatistic -->
<g id="edge3" class="edge">
<title>eya_def_tools.data_models.dataset.DatasetStatistic:e&#45;&gt;eya_def_tools.data_models.dataset.ExceedanceLevelStatistic:w</title>
<path fill="none" stroke="black" d="M983.41,-200.75C1098.07,-200.76 1133.62,-200.98 1246.02,-201"/>
<polyline fill="none" stroke="black" points="973.5,-200.75 978.5,-200.75"/>
<polyline fill="none" stroke="black" points="978.5,-200.75 983.5,-200.75"/>
<polyline fill="none" stroke="black" points="1260.88,-201 1255.88,-201"/>
<polygon fill="black" stroke="black" points="1254.88,-196 1254.87,-206 1252.87,-206 1252.88,-196 1254.88,-196"/>
<polyline fill="none" stroke="black" points="1255.88,-201 1250.88,-201"/>
<polygon fill="black" stroke="black" points="1249.88,-196 1249.87,-206 1247.87,-206 1247.88,-196 1249.88,-196"/>
<polyline fill="none" stroke="black" points="1250.88,-201 1245.88,-201"/>
</g>
<!-- eya_def_tools.data_models.dataset.InterAnnualVariabilityStatistic -->
<g id="node5" class="node">
<title>eya_def_tools.data_models.dataset.InterAnnualVariabilityStatistic</title>
<g id="a_node5"><a xlink:title="eya_def_tools.data_models.dataset.InterAnnualVariabilityStatistic&#10;&#10;Specification of an inter&#45;annual variability statistic.&#10;&#10;Fields:&#10; &#160;&#160;&#160;statistic_type: Specification of the type of statistic, using the standardised naming conventions. For a standard deviation statistic, the type must always be &#39;standard_deviation&#39;. Default is &#39;inter_annual_variability&#39;.&#10; &#160;&#160;&#160;return_period: Specification of the return period in years, which for inter&#45;annual variability must always be 1 (it is by definition the variability of a one&#45;year period relative to the full time period). Default is 1.&#10;">
<polygon fill="none" stroke="black" points="1286.62,-63.5 1286.62,-86 1594.88,-86 1594.88,-63.5 1286.62,-63.5"/>
<text text-anchor="start" x="1350.38" y="-70.7" font-family="Times New Roman,Times,Liberation Serif,serif" font-weight="bold" font-size="14.00">InterAnnualVariabilityStatistic</text>
<polygon fill="none" stroke="black" points="1286.62,-41 1286.62,-63.5 1366.12,-63.5 1366.12,-41 1286.62,-41"/>
<text text-anchor="start" x="1290.75" y="-47.2" font-family="Times New Roman,Times,Liberation Serif,serif" font-size="14.00">statistic_type</text>
<polygon fill="none" stroke="black" points="1366.12,-41 1366.12,-63.5 1551.38,-63.5 1551.38,-41 1366.12,-41"/>
<text text-anchor="start" x="1369.12" y="-47.2" font-family="Times New Roman,Times,Liberation Serif,serif" font-size="14.00">Literal[&#39;inter_annual_variability&#39;]</text>
<polygon fill="none" stroke="black" points="1551.38,-41 1551.38,-63.5 1594.88,-63.5 1594.88,-41 1551.38,-41"/>
<text text-anchor="start" x="1557.75" y="-47.2" font-family="Times New Roman,Times,Liberation Serif,serif" font-size="14.00">string</text>
<polygon fill="none" stroke="black" points="1286.62,-18.5 1286.62,-41 1366.12,-41 1366.12,-18.5 1286.62,-18.5"/>
<text text-anchor="start" x="1289.62" y="-24.7" font-family="Times New Roman,Times,Liberation Serif,serif" font-size="14.00">return_period</text>
<polygon fill="none" stroke="black" points="1366.12,-18.5 1366.12,-41 1551.38,-41 1551.38,-18.5 1366.12,-18.5"/>
<text text-anchor="start" x="1430.62" y="-24.7" font-family="Times New Roman,Times,Liberation Serif,serif" font-size="14.00">Literal[&#39;1&#39;]</text>
<polygon fill="none" stroke="black" points="1551.38,-18.5 1551.38,-41 1594.88,-41 1594.88,-18.5 1551.38,-18.5"/>
<text text-anchor="start" x="1554.38" y="-24.7" font-family="Times New Roman,Times,Liberation Serif,serif" font-size="14.00">integer</text>
</a>
</g>
</g>
<!-- eya_def_tools.data_models.dataset.DatasetStatistic&#45;&gt;eya_def_tools.data_models.dataset.InterAnnualVariabilityStatistic -->
<g id="edge4" class="edge">
<title>eya_def_tools.data_models.dataset.DatasetStatistic:e&#45;&gt;eya_def_tools.data_models.dataset.InterAnnualVariabilityStatistic:w</title>
<path fill="none" stroke="black" d="M983.38,-200.15C1036.48,-193.3 1026.35,-129.97 1081.5,-104.25 1159.87,-67.7 1190.46,-73.86 1270.63,-74.67"/>
<polyline fill="none" stroke="black" points="973.5,-200.75 978.49,-200.44"/>
<polyline fill="none" stroke="black" points="978.49,-200.44 983.48,-200.14"/>
<polyline fill="none" stroke="black" points="1285.62,-74.75 1280.63,-74.72"/>
<polygon fill="black" stroke="black" points="1279.65,-69.72 1279.6,-79.72 1277.6,-79.71 1277.65,-69.71 1279.65,-69.72"/>
<polyline fill="none" stroke="black" points="1280.63,-74.72 1275.63,-74.7"/>
<polygon fill="black" stroke="black" points="1274.65,-69.69 1274.6,-79.69 1272.6,-79.68 1272.65,-69.68 1274.65,-69.69"/>
<polyline fill="none" stroke="black" points="1275.63,-74.7 1270.63,-74.67"/>
</g>
</g>
</svg>
