<?xml version="1.0" encoding="UTF-8" standalone="no"?>
<!DOCTYPE svg PUBLIC "-//W3C//DTD SVG 1.1//EN"
 "http://www.w3.org/Graphics/SVG/1.1/DTD/svg11.dtd">
<!-- Generated by graphviz version 12.0.0 (20240704.0754)
 -->
<!-- Title: Entity Relationship Diagram created by erdantic Pages: 1 -->
<svg width="1874pt" height="384pt"
 viewBox="0.00 0.00 1874.00 383.75" xmlns="http://www.w3.org/2000/svg" xmlns:xlink="http://www.w3.org/1999/xlink">
<g id="graph0" class="graph" transform="scale(1 1) rotate(0) translate(4 379.75)">
<title>Entity Relationship Diagram created by erdantic</title>
<polygon fill="white" stroke="none" points="-4,4 -4,-379.75 1870,-379.75 1870,4 -4,4"/>
<text text-anchor="middle" x="933" y="-6.7" font-family="Times New Roman,Times,Liberation Serif,serif" font-size="9.00" fill="#a8a8a8">Created by erdantic v1.0.3 &lt;https://github.com/drivendataorg/erdantic&gt;</text>
<!-- eya_def_tools.data_models.dataset.Dataset -->
<g id="node1" class="node">
<title>eya_def_tools.data_models.dataset.Dataset</title>
<g id="a_node1"><a xlink:title="eya_def_tools.data_models.dataset.Dataset&#10;&#10;Collection of labelled data for one specific quantity.&#10;&#10;The data is labelled by specifying dimensions and including&#10;coordinates along the dimensions for each data value.&#10;&#10;Fields:&#10; &#160;&#160;&#160;label: Optional label of the dataset, which should not be empty if the field is included. Default is None.&#10; &#160;&#160;&#160;description: Optional description of the dataset, which should not be empty if the field is included. Default is None.&#10; &#160;&#160;&#160;comments: Optional comments on the dataset, which should not be empty if the field is included. Default is None.&#10; &#160;&#160;&#160;dimensions: Dimensions along which the dataset is binned. All statistics within the same dataset object must have the same dimensions. The dimensions must correspond to and be listed in the same order as the coordinates for the values of all statistics. A dataset without dimensions can only have a single value for each statistic. Default is None.&#10; &#160;&#160;&#160;statistics: List of dataset statistic objects that each include data values for a specific statistic type. For example, there may be two statistics, one for mean values and one for standard deviation values.&#10;">
<polygon fill="none" stroke="black" points="0,-353.75 0,-375.75 323,-375.75 323,-353.75 0,-353.75"/>
<text text-anchor="start" x="137.88" y="-360.45" font-family="Times New Roman,Times,Liberation Serif,serif" font-weight="bold" font-size="14.00">Dataset</text>
<polygon fill="none" stroke="black" points="0,-332.75 0,-353.75 69,-353.75 69,-332.75 0,-332.75"/>
<text text-anchor="start" x="21.75" y="-337.45" font-family="Times New Roman,Times,Liberation Serif,serif" font-size="14.00">label</text>
<polygon fill="none" stroke="black" points="69,-332.75 69,-353.75 257,-353.75 257,-332.75 69,-332.75"/>
<text text-anchor="start" x="127.38" y="-337.45" font-family="Times New Roman,Times,Liberation Serif,serif" font-size="14.00">Optional[str]</text>
<polygon fill="none" stroke="black" points="257,-332.75 257,-353.75 323,-353.75 323,-332.75 257,-332.75"/>
<text text-anchor="start" x="260" y="-337.45" font-family="Times New Roman,Times,Liberation Serif,serif" font-size="14.00">string | null</text>
<polygon fill="none" stroke="black" points="0,-311.75 0,-332.75 69,-332.75 69,-311.75 0,-311.75"/>
<text text-anchor="start" x="3.38" y="-316.45" font-family="Times New Roman,Times,Liberation Serif,serif" font-size="14.00">description</text>
<polygon fill="none" stroke="black" points="69,-311.75 69,-332.75 257,-332.75 257,-311.75 69,-311.75"/>
<text text-anchor="start" x="127.38" y="-316.45" font-family="Times New Roman,Times,Liberation Serif,serif" font-size="14.00">Optional[str]</text>
<polygon fill="none" stroke="black" points="257,-311.75 257,-332.75 323,-332.75 323,-311.75 257,-311.75"/>
<text text-anchor="start" x="260" y="-316.45" font-family="Times New Roman,Times,Liberation Serif,serif" font-size="14.00">string | null</text>
<polygon fill="none" stroke="black" points="0,-290.75 0,-311.75 69,-311.75 69,-290.75 0,-290.75"/>
<text text-anchor="start" x="5.62" y="-295.45" font-family="Times New Roman,Times,Liberation Serif,serif" font-size="14.00">comments</text>
<polygon fill="none" stroke="black" points="69,-290.75 69,-311.75 257,-311.75 257,-290.75 69,-290.75"/>
<text text-anchor="start" x="127.38" y="-295.45" font-family="Times New Roman,Times,Liberation Serif,serif" font-size="14.00">Optional[str]</text>
<polygon fill="none" stroke="black" points="257,-290.75 257,-311.75 323,-311.75 323,-290.75 257,-290.75"/>
<text text-anchor="start" x="260" y="-295.45" font-family="Times New Roman,Times,Liberation Serif,serif" font-size="14.00">string | null</text>
<polygon fill="none" stroke="black" points="0,-269.75 0,-290.75 69,-290.75 69,-269.75 0,-269.75"/>
<text text-anchor="start" x="3" y="-274.45" font-family="Times New Roman,Times,Liberation Serif,serif" font-size="14.00">dimensions</text>
<polygon fill="none" stroke="black" points="69,-269.75 69,-290.75 257,-290.75 257,-269.75 69,-269.75"/>
<text text-anchor="start" x="71.88" y="-274.45" font-family="Times New Roman,Times,Liberation Serif,serif" font-size="14.00">Optional[list[DatasetDimension]]</text>
<polygon fill="none" stroke="black" points="257,-269.75 257,-290.75 323,-290.75 323,-269.75 257,-269.75"/>
<text text-anchor="start" x="261.5" y="-274.45" font-family="Times New Roman,Times,Liberation Serif,serif" font-size="14.00">array | null</text>
<polygon fill="none" stroke="black" points="0,-248.75 0,-269.75 69,-269.75 69,-248.75 0,-248.75"/>
<text text-anchor="start" x="10.5" y="-253.45" font-family="Times New Roman,Times,Liberation Serif,serif" font-size="14.00">statistics</text>
<polygon fill="none" stroke="black" points="69,-248.75 69,-269.75 257,-269.75 257,-248.75 69,-248.75"/>
<text text-anchor="start" x="107.88" y="-253.45" font-family="Times New Roman,Times,Liberation Serif,serif" font-size="14.00">list[DatasetStatistic]</text>
<polygon fill="none" stroke="black" points="257,-248.75 257,-269.75 323,-269.75 323,-248.75 257,-248.75"/>
<text text-anchor="start" x="276.12" y="-253.45" font-family="Times New Roman,Times,Liberation Serif,serif" font-size="14.00">array</text>
</a>
</g>
</g>
<!-- eya_def_tools.data_models.dataset.DatasetStatistic -->
<g id="node2" class="node">
<title>eya_def_tools.data_models.dataset.DatasetStatistic</title>
<g id="a_node2"><a xlink:title="eya_def_tools.data_models.dataset.DatasetStatistic&#10;&#10;Dataset values for one specific statistic type.&#10;&#10;Fields:&#10; &#160;&#160;&#160;description: Optional description of the dataset statistic, which should not be empty if the field is included. Default is None.&#10; &#160;&#160;&#160;comments: Optional comments on the dataset statistic, which should not be empty if the field is included. Default is None.&#10; &#160;&#160;&#160;statistic: Specification of the statistic that the element of the dataset corresponds to.&#10; &#160;&#160;&#160;values: Dataset value(s) as a single number or one or more values at coordinates. If more than one value is included the values must be represented together with coordinates. A single value can be included either with or without coordinates. The coordinates must correspond to and be listed the same order as the dimensions specified for the dataset.&#10;">
<polygon fill="none" stroke="black" points="431,-248.25 431,-270.25 893,-270.25 893,-248.25 431,-248.25"/>
<text text-anchor="start" x="613.62" y="-254.95" font-family="Times New Roman,Times,Liberation Serif,serif" font-weight="bold" font-size="14.00">DatasetStatistic</text>
<polygon fill="none" stroke="black" points="431,-227.25 431,-248.25 499,-248.25 499,-227.25 431,-227.25"/>
<text text-anchor="start" x="433.88" y="-231.95" font-family="Times New Roman,Times,Liberation Serif,serif" font-size="14.00">description</text>
<polygon fill="none" stroke="black" points="499,-227.25 499,-248.25 808,-248.25 808,-227.25 499,-227.25"/>
<text text-anchor="start" x="617.88" y="-231.95" font-family="Times New Roman,Times,Liberation Serif,serif" font-size="14.00">Optional[str]</text>
<polygon fill="none" stroke="black" points="808,-227.25 808,-248.25 893,-248.25 893,-227.25 808,-227.25"/>
<text text-anchor="start" x="820.5" y="-231.95" font-family="Times New Roman,Times,Liberation Serif,serif" font-size="14.00">string | null</text>
<polygon fill="none" stroke="black" points="431,-206.25 431,-227.25 499,-227.25 499,-206.25 431,-206.25"/>
<text text-anchor="start" x="436.12" y="-210.95" font-family="Times New Roman,Times,Liberation Serif,serif" font-size="14.00">comments</text>
<polygon fill="none" stroke="black" points="499,-206.25 499,-227.25 808,-227.25 808,-206.25 499,-206.25"/>
<text text-anchor="start" x="617.88" y="-210.95" font-family="Times New Roman,Times,Liberation Serif,serif" font-size="14.00">Optional[str]</text>
<polygon fill="none" stroke="black" points="808,-206.25 808,-227.25 893,-227.25 893,-206.25 808,-206.25"/>
<text text-anchor="start" x="820.5" y="-210.95" font-family="Times New Roman,Times,Liberation Serif,serif" font-size="14.00">string | null</text>
<polygon fill="none" stroke="black" points="431,-185.25 431,-206.25 499,-206.25 499,-185.25 431,-185.25"/>
<text text-anchor="start" x="444" y="-189.95" font-family="Times New Roman,Times,Liberation Serif,serif" font-size="14.00">statistic</text>
<polygon fill="none" stroke="black" points="499,-185.25 499,-206.25 808,-206.25 808,-185.25 499,-185.25"/>
<text text-anchor="start" x="536.88" y="-189.95" font-family="Times New Roman,Times,Liberation Serif,serif" font-size="14.00">SimpleStatistic | ExceedanceLevelStatistic</text>
<polygon fill="none" stroke="black" points="808,-185.25 808,-206.25 893,-206.25 893,-185.25 808,-185.25"/>
<polygon fill="none" stroke="black" points="431,-164.25 431,-185.25 499,-185.25 499,-164.25 431,-164.25"/>
<text text-anchor="start" x="447.75" y="-168.95" font-family="Times New Roman,Times,Liberation Serif,serif" font-size="14.00">values</text>
<polygon fill="none" stroke="black" points="499,-164.25 499,-185.25 808,-185.25 808,-164.25 499,-164.25"/>
<text text-anchor="start" x="502" y="-168.95" font-family="Times New Roman,Times,Liberation Serif,serif" font-size="14.00">Union[float, list[tuple[list[Union[int, float, str]], float]]]</text>
<polygon fill="none" stroke="black" points="808,-164.25 808,-185.25 893,-185.25 893,-164.25 808,-164.25"/>
<text text-anchor="start" x="810.75" y="-168.95" font-family="Times New Roman,Times,Liberation Serif,serif" font-size="14.00">number | array</text>
</a>
</g>
</g>
<!-- eya_def_tools.data_models.dataset.Dataset&#45;&gt;eya_def_tools.data_models.dataset.DatasetStatistic -->
<g id="edge1" class="edge">
<title>eya_def_tools.data_models.dataset.Dataset:e&#45;&gt;eya_def_tools.data_models.dataset.DatasetStatistic:w</title>
<path fill="none" stroke="black" d="M332.87,-259.25C367.92,-259.25 382.67,-259.25 415.64,-259.25"/>
<polyline fill="none" stroke="black" points="323,-259.25 328,-259.25"/>
<polyline fill="none" stroke="black" points="328,-259.25 333,-259.25"/>
<polygon fill="black" stroke="black" points="420.67,-259.25 430.67,-263.75 426,-259.25 430.33,-259.25 430.33,-259.25 430.33,-259.25 426,-259.25 430.67,-254.75 420.67,-259.25"/>
<polyline fill="none" stroke="black" points="419.45,-259.25 414.45,-259.25"/>
</g>
<!-- eya_def_tools.data_models.dataset.ExceedanceLevelStatistic -->
<g id="node3" class="node">
<title>eya_def_tools.data_models.dataset.ExceedanceLevelStatistic</title>
<g id="a_node3"><a xlink:title="eya_def_tools.data_models.dataset.ExceedanceLevelStatistic&#10;&#10;Specification of a probability of exceedance level statistic.&#10;&#10;Fields:&#10; &#160;&#160;&#160;statistic_type: Specification of the type of statistic, using the standardised naming conventions. For an exceedance level statistic, the type must always be &#39;exceedance_level&#39;. Default is &#39;exceedance_level&#39;.&#10; &#160;&#160;&#160;probability: The dimensionless probability of exceedance level (i.e. probability value between 0.0 and 1.0) of the statistic.&#10; &#160;&#160;&#160;time_frame_start_date: Optional specification of the start date of the time frame (period) to which the statistic applies. When not specified, it shall be assumed that the time frame start date is the start of the full period of the relevant context (e.g. the full assessment period). The time frame can for example be used to specify that a certain uncertainty standard deviation value applies from the second through the tenth year of wind farm operation. Default is None.&#10; &#160;&#160;&#160;time_frame_end_date: Optional specification of the end date of the time frame (period) to which the statistic applies. When not specified, it shall be assumed that the time frame end date is the end of the full period of the relevant context (e.g. the full assessment period). Default is None.&#10; &#160;&#160;&#160;return_period: Optional specification of the return period in years, to be included when relevant to the statistic in question. It may for example specify a 1&#45;year or 10&#45;year return period for a the standard deviation of an uncertainty distribution or certain probability of exceedance level. Default is None.&#10;">
<polygon fill="none" stroke="black" points="1254,-266.75 1254,-288.75 1613,-288.75 1613,-266.75 1254,-266.75"/>
<text text-anchor="start" x="1355.88" y="-273.45" font-family="Times New Roman,Times,Liberation Serif,serif" font-weight="bold" font-size="14.00">ExceedanceLevelStatistic</text>
<polygon fill="none" stroke="black" points="1254,-245.75 1254,-266.75 1384,-266.75 1384,-245.75 1254,-245.75"/>
<text text-anchor="start" x="1282.25" y="-250.45" font-family="Times New Roman,Times,Liberation Serif,serif" font-size="14.00">statistic_type</text>
<polygon fill="none" stroke="black" points="1384,-245.75 1384,-266.75 1536,-266.75 1536,-245.75 1384,-245.75"/>
<text text-anchor="start" x="1386.88" y="-250.45" font-family="Times New Roman,Times,Liberation Serif,serif" font-size="14.00">Literal[&#39;exceedance_level&#39;]</text>
<polygon fill="none" stroke="black" points="1536,-245.75 1536,-266.75 1613,-266.75 1613,-245.75 1536,-245.75"/>
<text text-anchor="start" x="1559.12" y="-250.45" font-family="Times New Roman,Times,Liberation Serif,serif" font-size="14.00">string</text>
<polygon fill="none" stroke="black" points="1254,-224.75 1254,-245.75 1384,-245.75 1384,-224.75 1254,-224.75"/>
<text text-anchor="start" x="1289" y="-229.45" font-family="Times New Roman,Times,Liberation Serif,serif" font-size="14.00">probability</text>
<polygon fill="none" stroke="black" points="1384,-224.75 1384,-245.75 1536,-245.75 1536,-224.75 1384,-224.75"/>
<text text-anchor="start" x="1447.62" y="-229.45" font-family="Times New Roman,Times,Liberation Serif,serif" font-size="14.00">float</text>
<polygon fill="none" stroke="black" points="1536,-224.75 1536,-245.75 1613,-245.75 1613,-224.75 1536,-224.75"/>
<text text-anchor="start" x="1553.5" y="-229.45" font-family="Times New Roman,Times,Liberation Serif,serif" font-size="14.00">number</text>
<polygon fill="none" stroke="black" points="1254,-203.75 1254,-224.75 1384,-224.75 1384,-203.75 1254,-203.75"/>
<text text-anchor="start" x="1256.75" y="-208.45" font-family="Times New Roman,Times,Liberation Serif,serif" font-size="14.00">time_frame_start_date</text>
<polygon fill="none" stroke="black" points="1384,-203.75 1384,-224.75 1536,-224.75 1536,-203.75 1384,-203.75"/>
<text text-anchor="start" x="1419.88" y="-208.45" font-family="Times New Roman,Times,Liberation Serif,serif" font-size="14.00">Optional[date]</text>
<polygon fill="none" stroke="black" points="1536,-203.75 1536,-224.75 1613,-224.75 1613,-203.75 1536,-203.75"/>
<text text-anchor="start" x="1544.5" y="-208.45" font-family="Times New Roman,Times,Liberation Serif,serif" font-size="14.00">string | null</text>
<polygon fill="none" stroke="black" points="1254,-182.75 1254,-203.75 1384,-203.75 1384,-182.75 1254,-182.75"/>
<text text-anchor="start" x="1258.62" y="-187.45" font-family="Times New Roman,Times,Liberation Serif,serif" font-size="14.00">time_frame_end_date</text>
<polygon fill="none" stroke="black" points="1384,-182.75 1384,-203.75 1536,-203.75 1536,-182.75 1384,-182.75"/>
<text text-anchor="start" x="1419.88" y="-187.45" font-family="Times New Roman,Times,Liberation Serif,serif" font-size="14.00">Optional[date]</text>
<polygon fill="none" stroke="black" points="1536,-182.75 1536,-203.75 1613,-203.75 1613,-182.75 1536,-182.75"/>
<text text-anchor="start" x="1544.5" y="-187.45" font-family="Times New Roman,Times,Liberation Serif,serif" font-size="14.00">string | null</text>
<polygon fill="none" stroke="black" points="1254,-161.75 1254,-182.75 1384,-182.75 1384,-161.75 1254,-161.75"/>
<text text-anchor="start" x="1281.12" y="-166.45" font-family="Times New Roman,Times,Liberation Serif,serif" font-size="14.00">return_period</text>
<polygon fill="none" stroke="black" points="1384,-161.75 1384,-182.75 1536,-182.75 1536,-161.75 1384,-161.75"/>
<text text-anchor="start" x="1419.12" y="-166.45" font-family="Times New Roman,Times,Liberation Serif,serif" font-size="14.00">Optional[float]</text>
<polygon fill="none" stroke="black" points="1536,-161.75 1536,-182.75 1613,-182.75 1613,-161.75 1536,-161.75"/>
<text text-anchor="start" x="1538.88" y="-166.45" font-family="Times New Roman,Times,Liberation Serif,serif" font-size="14.00">number | null</text>
</a>
</g>
</g>
<!-- eya_def_tools.data_models.dataset.DatasetStatistic&#45;&gt;eya_def_tools.data_models.dataset.ExceedanceLevelStatistic -->
<g id="edge2" class="edge">
<title>eya_def_tools.data_models.dataset.DatasetStatistic:e&#45;&gt;eya_def_tools.data_models.dataset.ExceedanceLevelStatistic:w</title>
<path fill="none" stroke="black" d="M902.93,-195.85C1053.6,-198.98 1090.04,-272.91 1238.3,-277.52"/>
<polyline fill="none" stroke="black" points="893,-195.75 898,-195.8"/>
<polyline fill="none" stroke="black" points="898,-195.8 903,-195.85"/>
<polyline fill="none" stroke="black" points="1253,-277.75 1248,-277.67"/>
<polygon fill="black" stroke="black" points="1247.08,-272.66 1246.92,-282.66 1244.92,-282.63 1245.08,-272.63 1247.08,-272.66"/>
<polyline fill="none" stroke="black" points="1248,-277.67 1243,-277.6"/>
<polygon fill="black" stroke="black" points="1242.08,-272.58 1241.92,-282.58 1239.92,-282.55 1240.08,-272.55 1242.08,-272.58"/>
<polyline fill="none" stroke="black" points="1243,-277.6 1238,-277.52"/>
</g>
<!-- eya_def_tools.data_models.dataset.SimpleStatistic -->
<g id="node4" class="node">
<title>eya_def_tools.data_models.dataset.SimpleStatistic</title>
<g id="a_node4"><a xlink:title="eya_def_tools.data_models.dataset.SimpleStatistic&#10;&#10;Specification of a statistic that only requires type definition.&#10;&#10;Fields:&#10; &#160;&#160;&#160;statistic_type: Specification of the type of statistic, using the standardised naming conventions.&#10; &#160;&#160;&#160;time_frame_start_date: Optional specification of the start date of the time frame (period) to which the statistic applies. When not specified, it shall be assumed that the time frame start date is the start of the full period of the relevant context (e.g. the full assessment period). The time frame can for example be used to specify that a certain uncertainty standard deviation value applies from the second through the tenth year of wind farm operation. Default is None.&#10; &#160;&#160;&#160;time_frame_end_date: Optional specification of the end date of the time frame (period) to which the statistic applies. When not specified, it shall be assumed that the time frame end date is the end of the full period of the relevant context (e.g. the full assessment period). Default is None.&#10; &#160;&#160;&#160;return_period: Optional specification of the return period in years, to be included when relevant to the statistic in question. It may for example specify a 1&#45;year or 10&#45;year return period for a the standard deviation of an uncertainty distribution or certain probability of exceedance level. Default is None.&#10;">
<polygon fill="none" stroke="black" points="1001,-103.25 1001,-125.25 1866,-125.25 1866,-103.25 1001,-103.25"/>
<text text-anchor="start" x="1388.12" y="-109.95" font-family="Times New Roman,Times,Liberation Serif,serif" font-weight="bold" font-size="14.00">SimpleStatistic</text>
<polygon fill="none" stroke="black" points="1001,-82.25 1001,-103.25 1131,-103.25 1131,-82.25 1001,-82.25"/>
<text text-anchor="start" x="1029.25" y="-86.95" font-family="Times New Roman,Times,Liberation Serif,serif" font-size="14.00">statistic_type</text>
<polygon fill="none" stroke="black" points="1131,-82.25 1131,-103.25 1789,-103.25 1789,-82.25 1131,-82.25"/>
<text text-anchor="start" x="1133.75" y="-86.95" font-family="Times New Roman,Times,Liberation Serif,serif" font-size="14.00">Literal[&#39;sum&#39;, &#39;mean&#39;, &#39;median&#39;, &#39;standard_deviation&#39;, &#39;minimum&#39;, &#39;maximum&#39;, &#39;inter_annual_variability&#39;, &#39;sample_count&#39;]</text>
<polygon fill="none" stroke="black" points="1789,-82.25 1789,-103.25 1866,-103.25 1866,-82.25 1789,-82.25"/>
<text text-anchor="start" x="1812.12" y="-86.95" font-family="Times New Roman,Times,Liberation Serif,serif" font-size="14.00">string</text>
<polygon fill="none" stroke="black" points="1001,-61.25 1001,-82.25 1131,-82.25 1131,-61.25 1001,-61.25"/>
<text text-anchor="start" x="1003.75" y="-65.95" font-family="Times New Roman,Times,Liberation Serif,serif" font-size="14.00">time_frame_start_date</text>
<polygon fill="none" stroke="black" points="1131,-61.25 1131,-82.25 1789,-82.25 1789,-61.25 1131,-61.25"/>
<text text-anchor="start" x="1419.88" y="-65.95" font-family="Times New Roman,Times,Liberation Serif,serif" font-size="14.00">Optional[date]</text>
<polygon fill="none" stroke="black" points="1789,-61.25 1789,-82.25 1866,-82.25 1866,-61.25 1789,-61.25"/>
<text text-anchor="start" x="1797.5" y="-65.95" font-family="Times New Roman,Times,Liberation Serif,serif" font-size="14.00">string | null</text>
<polygon fill="none" stroke="black" points="1001,-40.25 1001,-61.25 1131,-61.25 1131,-40.25 1001,-40.25"/>
<text text-anchor="start" x="1005.62" y="-44.95" font-family="Times New Roman,Times,Liberation Serif,serif" font-size="14.00">time_frame_end_date</text>
<polygon fill="none" stroke="black" points="1131,-40.25 1131,-61.25 1789,-61.25 1789,-40.25 1131,-40.25"/>
<text text-anchor="start" x="1419.88" y="-44.95" font-family="Times New Roman,Times,Liberation Serif,serif" font-size="14.00">Optional[date]</text>
<polygon fill="none" stroke="black" points="1789,-40.25 1789,-61.25 1866,-61.25 1866,-40.25 1789,-40.25"/>
<text text-anchor="start" x="1797.5" y="-44.95" font-family="Times New Roman,Times,Liberation Serif,serif" font-size="14.00">string | null</text>
<polygon fill="none" stroke="black" points="1001,-19.25 1001,-40.25 1131,-40.25 1131,-19.25 1001,-19.25"/>
<text text-anchor="start" x="1028.12" y="-23.95" font-family="Times New Roman,Times,Liberation Serif,serif" font-size="14.00">return_period</text>
<polygon fill="none" stroke="black" points="1131,-19.25 1131,-40.25 1789,-40.25 1789,-19.25 1131,-19.25"/>
<text text-anchor="start" x="1419.12" y="-23.95" font-family="Times New Roman,Times,Liberation Serif,serif" font-size="14.00">Optional[float]</text>
<polygon fill="none" stroke="black" points="1789,-19.25 1789,-40.25 1866,-40.25 1866,-19.25 1789,-19.25"/>
<text text-anchor="start" x="1791.88" y="-23.95" font-family="Times New Roman,Times,Liberation Serif,serif" font-size="14.00">number | null</text>
</a>
</g>
</g>
<!-- eya_def_tools.data_models.dataset.DatasetStatistic&#45;&gt;eya_def_tools.data_models.dataset.SimpleStatistic -->
<g id="edge3" class="edge">
<title>eya_def_tools.data_models.dataset.DatasetStatistic:e&#45;&gt;eya_def_tools.data_models.dataset.SimpleStatistic:w</title>
<path fill="none" stroke="black" d="M902.85,-194.94C947.15,-187.31 945.33,-127.75 986.14,-116.19"/>
<polyline fill="none" stroke="black" points="893,-195.75 897.98,-195.34"/>
<polyline fill="none" stroke="black" points="897.98,-195.34 902.97,-194.93"/>
<polyline fill="none" stroke="black" points="1001,-114.25 996.04,-114.9"/>
<polygon fill="black" stroke="black" points="994.4,-110.07 995.7,-119.98 993.71,-120.24 992.42,-110.33 994.4,-110.07"/>
<polyline fill="none" stroke="black" points="996.04,-114.9 991.08,-115.54"/>
<polygon fill="black" stroke="black" points="989.45,-110.72 990.74,-120.63 988.76,-120.89 987.46,-110.97 989.45,-110.72"/>
<polyline fill="none" stroke="black" points="991.08,-115.54 986.13,-116.19"/>
</g>
</g>
</svg>
