<?xml version="1.0" encoding="UTF-8" standalone="no"?>
<!DOCTYPE svg PUBLIC "-//W3C//DTD SVG 1.1//EN"
 "http://www.w3.org/Graphics/SVG/1.1/DTD/svg11.dtd">
<!-- Generated by graphviz version 12.2.1 (20241206.2353)
 -->
<!-- Title: Entity Relationship Diagram created by erdantic Pages: 1 -->
<svg width="1825pt" height="400pt"
 viewBox="0.00 0.00 1824.50 399.75" xmlns="http://www.w3.org/2000/svg" xmlns:xlink="http://www.w3.org/1999/xlink">
<g id="graph0" class="graph" transform="scale(1 1) rotate(0) translate(4 395.75)">
<title>Entity Relationship Diagram created by erdantic</title>
<polygon fill="white" stroke="none" points="-4,4 -4,-395.75 1820.5,-395.75 1820.5,4 -4,4"/>
<text text-anchor="middle" x="908.25" y="-5.95" font-family="Times New Roman,Times,Liberation Serif,serif" font-size="9.00" fill="#a8a8a8">Created by erdantic v1.0.5 &lt;https://github.com/drivendataorg/erdantic&gt;</text>
<!-- eya_def_tools.data_models.dataset.BasicStatistic -->
<g id="node1" class="node">
<title>eya_def_tools.data_models.dataset.BasicStatistic</title>
<g id="a_node1"><a xlink:title="eya_def_tools.data_models.dataset.BasicStatistic&#10;&#10;Specification of a statistic that only requires type definition.&#10;&#10;Fields:&#10; &#160;&#160;&#160;statistic_type: Specification of the type of statistic, using the standardised naming conventions.&#10; &#160;&#160;&#160;return_period: Optional specification of the return period in years, to be included when relevant to the context and statistic in question. It may for example specify a 1&#45;year or a 10&#45;year return period for the standard deviation of an uncertainty distribution or certain probability of exceedance level. Default is None.&#10;">
<polygon fill="none" stroke="black" points="1098,-293.5 1098,-316 1816.5,-316 1816.5,-293.5 1098,-293.5"/>
<text text-anchor="start" x="1418.62" y="-300.7" font-family="Times New Roman,Times,Liberation Serif,serif" font-weight="bold" font-size="14.00">BasicStatistic</text>
<polygon fill="none" stroke="black" points="1098,-271 1098,-293.5 1177.5,-293.5 1177.5,-271 1098,-271"/>
<text text-anchor="start" x="1102.12" y="-277.2" font-family="Times New Roman,Times,Liberation Serif,serif" font-size="14.00">statistic_type</text>
<polygon fill="none" stroke="black" points="1177.5,-271 1177.5,-293.5 1689,-293.5 1689,-271 1177.5,-271"/>
<text text-anchor="start" x="1180.5" y="-277.2" font-family="Times New Roman,Times,Liberation Serif,serif" font-size="14.00">Literal[&#39;sum&#39;, &#39;mean&#39;, &#39;median&#39;, &#39;standard_deviation&#39;, &#39;minimum&#39;, &#39;maximum&#39;, &#39;sample_count&#39;]</text>
<polygon fill="none" stroke="black" points="1689,-271 1689,-293.5 1816.5,-293.5 1816.5,-271 1689,-271"/>
<text text-anchor="start" x="1737.38" y="-277.2" font-family="Times New Roman,Times,Liberation Serif,serif" font-size="14.00">string</text>
<polygon fill="none" stroke="black" points="1098,-248.5 1098,-271 1177.5,-271 1177.5,-248.5 1098,-248.5"/>
<text text-anchor="start" x="1101" y="-254.7" font-family="Times New Roman,Times,Liberation Serif,serif" font-size="14.00">return_period</text>
<polygon fill="none" stroke="black" points="1177.5,-248.5 1177.5,-271 1689,-271 1689,-248.5 1177.5,-248.5"/>
<text text-anchor="start" x="1380.38" y="-254.7" font-family="Times New Roman,Times,Liberation Serif,serif" font-size="14.00">Optional[int | float]</text>
<polygon fill="none" stroke="black" points="1689,-248.5 1689,-271 1816.5,-271 1816.5,-248.5 1689,-248.5"/>
<text text-anchor="start" x="1692" y="-254.7" font-family="Times New Roman,Times,Liberation Serif,serif" font-size="14.00">integer | number | null</text>
</a>
</g>
</g>
<!-- eya_def_tools.data_models.dataset.Dataset -->
<g id="node2" class="node">
<title>eya_def_tools.data_models.dataset.Dataset</title>
<g id="a_node2"><a xlink:title="eya_def_tools.data_models.dataset.Dataset&#10;&#10;Collection of labelled data for one specific quantity.&#10;&#10;The data is labelled by specifying dimensions and including&#10;coordinates along the dimensions for each data value.&#10;&#10;Fields:&#10; &#160;&#160;&#160;label: Optional label of the dataset, which should not be empty if the field is included. Default is None.&#10; &#160;&#160;&#160;description: Optional description of the dataset, which should not be empty if the field is included. Default is None.&#10; &#160;&#160;&#160;comments: Optional comments on the dataset, which should not be empty if the field is included. Default is None.&#10; &#160;&#160;&#160;dimensions: Dimensions along which the dataset is binned. All statistics within the same dataset object must have the same dimensions. The dimensions must correspond to and be listed in the same order as the coordinates for the values of all statistics. A dataset without dimensions can only have a single value for each statistic. Default is None.&#10; &#160;&#160;&#160;statistics: List of dataset statistic objects that each include data values for a specific statistic type. For example, there may be two statistics, one for mean values and one for standard deviation values.&#10;">
<polygon fill="none" stroke="black" points="0,-369.25 0,-391.75 324.75,-391.75 324.75,-369.25 0,-369.25"/>
<text text-anchor="start" x="140.62" y="-376.45" font-family="Times New Roman,Times,Liberation Serif,serif" font-weight="bold" font-size="14.00">Dataset</text>
<polygon fill="none" stroke="black" points="0,-346.75 0,-369.25 68.25,-369.25 68.25,-346.75 0,-346.75"/>
<text text-anchor="start" x="21" y="-352.95" font-family="Times New Roman,Times,Liberation Serif,serif" font-size="14.00">label</text>
<polygon fill="none" stroke="black" points="68.25,-346.75 68.25,-369.25 256.5,-369.25 256.5,-346.75 68.25,-346.75"/>
<text text-anchor="start" x="127.5" y="-352.95" font-family="Times New Roman,Times,Liberation Serif,serif" font-size="14.00">Optional[str]</text>
<polygon fill="none" stroke="black" points="256.5,-346.75 256.5,-369.25 324.75,-369.25 324.75,-346.75 256.5,-346.75"/>
<text text-anchor="start" x="259.5" y="-352.95" font-family="Times New Roman,Times,Liberation Serif,serif" font-size="14.00">string | null</text>
<polygon fill="none" stroke="black" points="0,-324.25 0,-346.75 68.25,-346.75 68.25,-324.25 0,-324.25"/>
<text text-anchor="start" x="4.12" y="-330.45" font-family="Times New Roman,Times,Liberation Serif,serif" font-size="14.00">description</text>
<polygon fill="none" stroke="black" points="68.25,-324.25 68.25,-346.75 256.5,-346.75 256.5,-324.25 68.25,-324.25"/>
<text text-anchor="start" x="127.5" y="-330.45" font-family="Times New Roman,Times,Liberation Serif,serif" font-size="14.00">Optional[str]</text>
<polygon fill="none" stroke="black" points="256.5,-324.25 256.5,-346.75 324.75,-346.75 324.75,-324.25 256.5,-324.25"/>
<text text-anchor="start" x="259.5" y="-330.45" font-family="Times New Roman,Times,Liberation Serif,serif" font-size="14.00">string | null</text>
<polygon fill="none" stroke="black" points="0,-301.75 0,-324.25 68.25,-324.25 68.25,-301.75 0,-301.75"/>
<text text-anchor="start" x="5.62" y="-307.95" font-family="Times New Roman,Times,Liberation Serif,serif" font-size="14.00">comments</text>
<polygon fill="none" stroke="black" points="68.25,-301.75 68.25,-324.25 256.5,-324.25 256.5,-301.75 68.25,-301.75"/>
<text text-anchor="start" x="127.5" y="-307.95" font-family="Times New Roman,Times,Liberation Serif,serif" font-size="14.00">Optional[str]</text>
<polygon fill="none" stroke="black" points="256.5,-301.75 256.5,-324.25 324.75,-324.25 324.75,-301.75 256.5,-301.75"/>
<text text-anchor="start" x="259.5" y="-307.95" font-family="Times New Roman,Times,Liberation Serif,serif" font-size="14.00">string | null</text>
<polygon fill="none" stroke="black" points="0,-279.25 0,-301.75 68.25,-301.75 68.25,-279.25 0,-279.25"/>
<text text-anchor="start" x="3" y="-285.45" font-family="Times New Roman,Times,Liberation Serif,serif" font-size="14.00">dimensions</text>
<polygon fill="none" stroke="black" points="68.25,-279.25 68.25,-301.75 256.5,-301.75 256.5,-279.25 68.25,-279.25"/>
<text text-anchor="start" x="71.25" y="-285.45" font-family="Times New Roman,Times,Liberation Serif,serif" font-size="14.00">Optional[list[DatasetDimension]]</text>
<polygon fill="none" stroke="black" points="256.5,-279.25 256.5,-301.75 324.75,-301.75 324.75,-279.25 256.5,-279.25"/>
<text text-anchor="start" x="261" y="-285.45" font-family="Times New Roman,Times,Liberation Serif,serif" font-size="14.00">array | null</text>
<polygon fill="none" stroke="black" points="0,-256.75 0,-279.25 68.25,-279.25 68.25,-256.75 0,-256.75"/>
<text text-anchor="start" x="10.88" y="-262.95" font-family="Times New Roman,Times,Liberation Serif,serif" font-size="14.00">statistics</text>
<polygon fill="none" stroke="black" points="68.25,-256.75 68.25,-279.25 256.5,-279.25 256.5,-256.75 68.25,-256.75"/>
<text text-anchor="start" x="107.62" y="-262.95" font-family="Times New Roman,Times,Liberation Serif,serif" font-size="14.00">list[DatasetStatistic]</text>
<polygon fill="none" stroke="black" points="256.5,-256.75 256.5,-279.25 324.75,-279.25 324.75,-256.75 256.5,-256.75"/>
<text text-anchor="start" x="276.75" y="-262.95" font-family="Times New Roman,Times,Liberation Serif,serif" font-size="14.00">array</text>
</a>
</g>
</g>
<!-- eya_def_tools.data_models.dataset.DatasetStatistic -->
<g id="node3" class="node">
<title>eya_def_tools.data_models.dataset.DatasetStatistic</title>
<g id="a_node3"><a xlink:title="eya_def_tools.data_models.dataset.DatasetStatistic&#10;&#10;Dataset values for one specific statistic type.&#10;&#10;Fields:&#10; &#160;&#160;&#160;description: Optional description of the dataset statistic, which should not be empty if the field is included. Default is None.&#10; &#160;&#160;&#160;comments: Optional comments on the dataset statistic, which should not be empty if the field is included. Default is None.&#10; &#160;&#160;&#160;statistic: Specification of the statistic that the element of the dataset corresponds to.&#10; &#160;&#160;&#160;values: Dataset value(s) as a single number or one or more values at coordinates. If more than one value is included the values must be represented together with coordinates. A single value can be included either with or without coordinates. The coordinates must correspond to and be listed the same order as the dimensions specified for the dataset.&#10;">
<polygon fill="none" stroke="black" points="432.75,-257 432.75,-279.5 990,-279.5 990,-257 432.75,-257"/>
<text text-anchor="start" x="666.38" y="-264.2" font-family="Times New Roman,Times,Liberation Serif,serif" font-weight="bold" font-size="14.00">DatasetStatistic</text>
<polygon fill="none" stroke="black" points="432.75,-234.5 432.75,-257 498.75,-257 498.75,-234.5 432.75,-234.5"/>
<text text-anchor="start" x="435.75" y="-240.7" font-family="Times New Roman,Times,Liberation Serif,serif" font-size="14.00">description</text>
<polygon fill="none" stroke="black" points="498.75,-234.5 498.75,-257 903.75,-257 903.75,-234.5 498.75,-234.5"/>
<text text-anchor="start" x="666.38" y="-240.7" font-family="Times New Roman,Times,Liberation Serif,serif" font-size="14.00">Optional[str]</text>
<polygon fill="none" stroke="black" points="903.75,-234.5 903.75,-257 990,-257 990,-234.5 903.75,-234.5"/>
<text text-anchor="start" x="915.75" y="-240.7" font-family="Times New Roman,Times,Liberation Serif,serif" font-size="14.00">string | null</text>
<polygon fill="none" stroke="black" points="432.75,-212 432.75,-234.5 498.75,-234.5 498.75,-212 432.75,-212"/>
<text text-anchor="start" x="437.25" y="-218.2" font-family="Times New Roman,Times,Liberation Serif,serif" font-size="14.00">comments</text>
<polygon fill="none" stroke="black" points="498.75,-212 498.75,-234.5 903.75,-234.5 903.75,-212 498.75,-212"/>
<text text-anchor="start" x="666.38" y="-218.2" font-family="Times New Roman,Times,Liberation Serif,serif" font-size="14.00">Optional[str]</text>
<polygon fill="none" stroke="black" points="903.75,-212 903.75,-234.5 990,-234.5 990,-212 903.75,-212"/>
<text text-anchor="start" x="915.75" y="-218.2" font-family="Times New Roman,Times,Liberation Serif,serif" font-size="14.00">string | null</text>
<polygon fill="none" stroke="black" points="432.75,-189.5 432.75,-212 498.75,-212 498.75,-189.5 432.75,-189.5"/>
<text text-anchor="start" x="445.12" y="-195.7" font-family="Times New Roman,Times,Liberation Serif,serif" font-size="14.00">statistic</text>
<polygon fill="none" stroke="black" points="498.75,-189.5 498.75,-212 903.75,-212 903.75,-189.5 498.75,-189.5"/>
<text text-anchor="start" x="501.75" y="-195.7" font-family="Times New Roman,Times,Liberation Serif,serif" font-size="14.00">BasicStatistic | InterAnnualVariabilityStatistic | ExceedanceLevelStatistic</text>
<polygon fill="none" stroke="black" points="903.75,-189.5 903.75,-212 990,-212 990,-189.5 903.75,-189.5"/>
<polygon fill="none" stroke="black" points="432.75,-167 432.75,-189.5 498.75,-189.5 498.75,-167 432.75,-167"/>
<text text-anchor="start" x="448.5" y="-173.2" font-family="Times New Roman,Times,Liberation Serif,serif" font-size="14.00">values</text>
<polygon fill="none" stroke="black" points="498.75,-167 498.75,-189.5 903.75,-189.5 903.75,-167 498.75,-167"/>
<text text-anchor="start" x="549" y="-173.2" font-family="Times New Roman,Times,Liberation Serif,serif" font-size="14.00">Union[float, list[tuple[list[Union[int, float, str]], float]]]</text>
<polygon fill="none" stroke="black" points="903.75,-167 903.75,-189.5 990,-189.5 990,-167 903.75,-167"/>
<text text-anchor="start" x="906.75" y="-173.2" font-family="Times New Roman,Times,Liberation Serif,serif" font-size="14.00">number | array</text>
</a>
</g>
</g>
<!-- eya_def_tools.data_models.dataset.Dataset&#45;&gt;eya_def_tools.data_models.dataset.DatasetStatistic -->
<g id="edge1" class="edge">
<title>eya_def_tools.data_models.dataset.Dataset:e&#45;&gt;eya_def_tools.data_models.dataset.DatasetStatistic:w</title>
<path fill="none" stroke="black" d="M334.62,-268C369.67,-268.03 384.42,-268.2 417.39,-268.24"/>
<polyline fill="none" stroke="black" points="324.75,-268 329.75,-268"/>
<polyline fill="none" stroke="black" points="329.75,-268 334.75,-268"/>
<polygon fill="black" stroke="black" points="422.42,-268.24 432.41,-272.75 427.75,-268.25 432.08,-268.25 432.08,-268.25 432.08,-268.25 427.75,-268.25 432.42,-263.75 422.42,-268.24"/>
<polyline fill="none" stroke="black" points="421.2,-268.24 416.2,-268.24"/>
</g>
<!-- eya_def_tools.data_models.dataset.DatasetStatistic&#45;&gt;eya_def_tools.data_models.dataset.BasicStatistic -->
<g id="edge2" class="edge">
<title>eya_def_tools.data_models.dataset.DatasetStatistic:e&#45;&gt;eya_def_tools.data_models.dataset.BasicStatistic:w</title>
<path fill="none" stroke="black" d="M999.8,-201.59C1049.44,-210.56 1037.71,-288.99 1083.16,-302.71"/>
<polyline fill="none" stroke="black" points="990,-200.75 994.98,-201.18"/>
<polyline fill="none" stroke="black" points="994.98,-201.18 999.96,-201.6"/>
<polyline fill="none" stroke="black" points="1098,-304.75 1093.05,-304.07"/>
<polygon fill="black" stroke="black" points="1092.74,-298.98 1091.37,-308.89 1089.39,-308.61 1090.76,-298.71 1092.74,-298.98"/>
<polyline fill="none" stroke="black" points="1093.05,-304.07 1088.09,-303.39"/>
<polygon fill="black" stroke="black" points="1087.78,-298.3 1086.42,-308.2 1084.44,-307.93 1085.8,-298.02 1087.78,-298.3"/>
<polyline fill="none" stroke="black" points="1088.09,-303.39 1083.14,-302.7"/>
</g>
<!-- eya_def_tools.data_models.dataset.ExceedanceLevelStatistic -->
<g id="node4" class="node">
<title>eya_def_tools.data_models.dataset.ExceedanceLevelStatistic</title>
<g id="a_node4"><a xlink:title="eya_def_tools.data_models.dataset.ExceedanceLevelStatistic&#10;&#10;Specification of a probability of exceedance level statistic.&#10;&#10;Fields:&#10; &#160;&#160;&#160;statistic_type: Specification of the type of statistic, using the standardised naming conventions. For an exceedance level statistic, the type must always be &#39;exceedance_level&#39;. Default is &#39;exceedance_level&#39;.&#10; &#160;&#160;&#160;probability: The dimensionless probability of exceedance level (i.e. probability value between 0.0 and 1.0) of the statistic.&#10; &#160;&#160;&#160;return_period: Optional specification of the return period in years, to be included when relevant to the context and statistic in question. It may for example specify a 1&#45;year or a 10&#45;year return period for the standard deviation of an uncertainty distribution or certain probability of exceedance level. Default is None.&#10;">
<polygon fill="none" stroke="black" points="1278.38,-189.75 1278.38,-212.25 1636.12,-212.25 1636.12,-189.75 1278.38,-189.75"/>
<text text-anchor="start" x="1384.5" y="-196.95" font-family="Times New Roman,Times,Liberation Serif,serif" font-weight="bold" font-size="14.00">ExceedanceLevelStatistic</text>
<polygon fill="none" stroke="black" points="1278.38,-167.25 1278.38,-189.75 1357.88,-189.75 1357.88,-167.25 1278.38,-167.25"/>
<text text-anchor="start" x="1282.5" y="-173.45" font-family="Times New Roman,Times,Liberation Serif,serif" font-size="14.00">statistic_type</text>
<polygon fill="none" stroke="black" points="1357.88,-167.25 1357.88,-189.75 1508.62,-189.75 1508.62,-167.25 1357.88,-167.25"/>
<text text-anchor="start" x="1360.88" y="-173.45" font-family="Times New Roman,Times,Liberation Serif,serif" font-size="14.00">Literal[&#39;exceedance_level&#39;]</text>
<polygon fill="none" stroke="black" points="1508.62,-167.25 1508.62,-189.75 1636.12,-189.75 1636.12,-167.25 1508.62,-167.25"/>
<text text-anchor="start" x="1557" y="-173.45" font-family="Times New Roman,Times,Liberation Serif,serif" font-size="14.00">string</text>
<polygon fill="none" stroke="black" points="1278.38,-144.75 1278.38,-167.25 1357.88,-167.25 1357.88,-144.75 1278.38,-144.75"/>
<text text-anchor="start" x="1288.5" y="-150.95" font-family="Times New Roman,Times,Liberation Serif,serif" font-size="14.00">probability</text>
<polygon fill="none" stroke="black" points="1357.88,-144.75 1357.88,-167.25 1508.62,-167.25 1508.62,-144.75 1357.88,-144.75"/>
<text text-anchor="start" x="1420.88" y="-150.95" font-family="Times New Roman,Times,Liberation Serif,serif" font-size="14.00">float</text>
<polygon fill="none" stroke="black" points="1508.62,-144.75 1508.62,-167.25 1636.12,-167.25 1636.12,-144.75 1508.62,-144.75"/>
<text text-anchor="start" x="1551.38" y="-150.95" font-family="Times New Roman,Times,Liberation Serif,serif" font-size="14.00">number</text>
<polygon fill="none" stroke="black" points="1278.38,-122.25 1278.38,-144.75 1357.88,-144.75 1357.88,-122.25 1278.38,-122.25"/>
<text text-anchor="start" x="1281.38" y="-128.45" font-family="Times New Roman,Times,Liberation Serif,serif" font-size="14.00">return_period</text>
<polygon fill="none" stroke="black" points="1357.88,-122.25 1357.88,-144.75 1508.62,-144.75 1508.62,-122.25 1357.88,-122.25"/>
<text text-anchor="start" x="1380.38" y="-128.45" font-family="Times New Roman,Times,Liberation Serif,serif" font-size="14.00">Optional[int | float]</text>
<polygon fill="none" stroke="black" points="1508.62,-122.25 1508.62,-144.75 1636.12,-144.75 1636.12,-122.25 1508.62,-122.25"/>
<text text-anchor="start" x="1511.62" y="-128.45" font-family="Times New Roman,Times,Liberation Serif,serif" font-size="14.00">integer | number | null</text>
</a>
</g>
</g>
<!-- eya_def_tools.data_models.dataset.DatasetStatistic&#45;&gt;eya_def_tools.data_models.dataset.ExceedanceLevelStatistic -->
<g id="edge3" class="edge">
<title>eya_def_tools.data_models.dataset.DatasetStatistic:e&#45;&gt;eya_def_tools.data_models.dataset.ExceedanceLevelStatistic:w</title>
<path fill="none" stroke="black" d="M999.91,-200.75C1114.57,-200.76 1150.12,-200.98 1262.52,-201"/>
<polyline fill="none" stroke="black" points="990,-200.75 995,-200.75"/>
<polyline fill="none" stroke="black" points="995,-200.75 1000,-200.75"/>
<polyline fill="none" stroke="black" points="1277.38,-201 1272.38,-201"/>
<polygon fill="black" stroke="black" points="1271.38,-196 1271.37,-206 1269.37,-206 1269.38,-196 1271.38,-196"/>
<polyline fill="none" stroke="black" points="1272.38,-201 1267.38,-201"/>
<polygon fill="black" stroke="black" points="1266.38,-196 1266.37,-206 1264.37,-206 1264.38,-196 1266.38,-196"/>
<polyline fill="none" stroke="black" points="1267.38,-201 1262.38,-201"/>
</g>
<!-- eya_def_tools.data_models.dataset.InterAnnualVariabilityStatistic -->
<g id="node5" class="node">
<title>eya_def_tools.data_models.dataset.InterAnnualVariabilityStatistic</title>
<g id="a_node5"><a xlink:title="eya_def_tools.data_models.dataset.InterAnnualVariabilityStatistic&#10;&#10;Specification of an inter&#45;annual variability statistic.&#10;&#10;Fields:&#10; &#160;&#160;&#160;statistic_type: Specification of the type of statistic, using the standardised naming conventions. For a standard deviation statistic, the type must always be &#39;standard_deviation&#39;. Default is &#39;inter_annual_variability&#39;.&#10; &#160;&#160;&#160;return_period: Specification of the return period in years, which for inter&#45;annual variability must always be 1 (it is by definition the variability of a one&#45;year period relative to the full time period). Default is 1.&#10;">
<polygon fill="none" stroke="black" points="1303.12,-63.5 1303.12,-86 1611.38,-86 1611.38,-63.5 1303.12,-63.5"/>
<text text-anchor="start" x="1366.88" y="-70.7" font-family="Times New Roman,Times,Liberation Serif,serif" font-weight="bold" font-size="14.00">InterAnnualVariabilityStatistic</text>
<polygon fill="none" stroke="black" points="1303.12,-41 1303.12,-63.5 1382.62,-63.5 1382.62,-41 1303.12,-41"/>
<text text-anchor="start" x="1307.25" y="-47.2" font-family="Times New Roman,Times,Liberation Serif,serif" font-size="14.00">statistic_type</text>
<polygon fill="none" stroke="black" points="1382.62,-41 1382.62,-63.5 1567.88,-63.5 1567.88,-41 1382.62,-41"/>
<text text-anchor="start" x="1385.62" y="-47.2" font-family="Times New Roman,Times,Liberation Serif,serif" font-size="14.00">Literal[&#39;inter_annual_variability&#39;]</text>
<polygon fill="none" stroke="black" points="1567.88,-41 1567.88,-63.5 1611.38,-63.5 1611.38,-41 1567.88,-41"/>
<text text-anchor="start" x="1574.25" y="-47.2" font-family="Times New Roman,Times,Liberation Serif,serif" font-size="14.00">string</text>
<polygon fill="none" stroke="black" points="1303.12,-18.5 1303.12,-41 1382.62,-41 1382.62,-18.5 1303.12,-18.5"/>
<text text-anchor="start" x="1306.12" y="-24.7" font-family="Times New Roman,Times,Liberation Serif,serif" font-size="14.00">return_period</text>
<polygon fill="none" stroke="black" points="1382.62,-18.5 1382.62,-41 1567.88,-41 1567.88,-18.5 1382.62,-18.5"/>
<text text-anchor="start" x="1447.12" y="-24.7" font-family="Times New Roman,Times,Liberation Serif,serif" font-size="14.00">Literal[&#39;1&#39;]</text>
<polygon fill="none" stroke="black" points="1567.88,-18.5 1567.88,-41 1611.38,-41 1611.38,-18.5 1567.88,-18.5"/>
<text text-anchor="start" x="1570.88" y="-24.7" font-family="Times New Roman,Times,Liberation Serif,serif" font-size="14.00">integer</text>
</a>
</g>
</g>
<!-- eya_def_tools.data_models.dataset.DatasetStatistic&#45;&gt;eya_def_tools.data_models.dataset.InterAnnualVariabilityStatistic -->
<g id="edge4" class="edge">
<title>eya_def_tools.data_models.dataset.DatasetStatistic:e&#45;&gt;eya_def_tools.data_models.dataset.InterAnnualVariabilityStatistic:w</title>
<path fill="none" stroke="black" d="M999.88,-200.15C1052.98,-193.3 1042.85,-129.97 1098,-104.25 1176.37,-67.7 1206.96,-73.86 1287.13,-74.67"/>
<polyline fill="none" stroke="black" points="990,-200.75 994.99,-200.44"/>
<polyline fill="none" stroke="black" points="994.99,-200.44 999.98,-200.14"/>
<polyline fill="none" stroke="black" points="1302.12,-74.75 1297.13,-74.72"/>
<polygon fill="black" stroke="black" points="1296.15,-69.72 1296.1,-79.72 1294.1,-79.71 1294.15,-69.71 1296.15,-69.72"/>
<polyline fill="none" stroke="black" points="1297.13,-74.72 1292.13,-74.7"/>
<polygon fill="black" stroke="black" points="1291.15,-69.69 1291.1,-79.69 1289.1,-79.68 1289.15,-69.68 1291.15,-69.69"/>
<polyline fill="none" stroke="black" points="1292.13,-74.7 1287.13,-74.67"/>
</g>
</g>
</svg>
