<?xml version="1.0" encoding="UTF-8" standalone="no"?>
<!DOCTYPE svg PUBLIC "-//W3C//DTD SVG 1.1//EN"
 "http://www.w3.org/Graphics/SVG/1.1/DTD/svg11.dtd">
<!-- Generated by graphviz version 11.0.0 (20240428.1522)
 -->
<!-- Title: Entity Relationship Diagram Pages: 1 -->
<svg width="1270pt" height="260pt"
 viewBox="0.00 0.00 1270.00 259.75" xmlns="http://www.w3.org/2000/svg" xmlns:xlink="http://www.w3.org/1999/xlink">
<g id="graph0" class="graph" transform="scale(1 1) rotate(0) translate(4 255.75)">
<title>Entity Relationship Diagram</title>
<polygon fill="white" stroke="none" points="-4,4 -4,-255.75 1266,-255.75 1266,4 -4,4"/>
<text text-anchor="middle" x="631" y="-6.7" font-family="Times New Roman,serif" font-size="9.00" fill="#a8a8a8">Created by erdantic v0.7.0 &lt;https://github.com/drivendataorg/erdantic&gt;</text>
<!-- eya_def_tools.data_models.dataset.Dataset -->
<g id="node1" class="node">
<title>eya_def_tools.data_models.dataset.Dataset</title>
<g id="a_node1"><a xlink:title="eya_def_tools.data_models.dataset.Dataset&#10;&#10;Collection of labelled data for one specific quantity.&#10;&#10;The data is labelled by specifying dimensions and including&#10;coordinates along the dimensions for each data value.&#10;&#10;Attributes:&#10; &#160;&#160;&#160;label (Optional[str]): Optional label of the dataset, which should not be empty if the field is included. Default is None.&#10; &#160;&#160;&#160;description (Optional[str]): Optional description of the dataset, which should not be empty if the field is included. Default is None.&#10; &#160;&#160;&#160;comments (Optional[str]): Optional comments on the dataset, which should not be empty if the field is included. Default is None.&#10; &#160;&#160;&#160;assessment_period (Optional[AssessmentPeriod(StrEnum)]): Optional period of or in time that has been assessed and for which the dataset is applicable. This field is to be included only when relevant. Default is None.&#10; &#160;&#160;&#160;dimensions (Optional[list[DatasetDimension(StrEnum)]]): Dimensions along which the dataset is binned. All statistics within the same dataset object must have the same dimensions. The dimensions must correspond to and be listed in the same order as the coordinates for the values of all statistics. A dataset without dimensions can only have a single value for each statistic. Default is None.&#10; &#160;&#160;&#160;statistics (list[DatasetStatistic]): List of dataset statistic objects that each include data values for a specific statistic type. For example, there may be two statistics, one for mean values and one for standard deviation values.&#10;">
<polygon fill="none" stroke="black" points="0,-229.75 0,-251.75 358,-251.75 358,-229.75 0,-229.75"/>
<text text-anchor="start" x="155.38" y="-236.45" font-family="Times New Roman,serif" font-weight="bold" font-size="14.00">Dataset</text>
<polygon fill="none" stroke="black" points="0,-208.75 0,-229.75 112,-229.75 112,-208.75 0,-208.75"/>
<text text-anchor="start" x="43.25" y="-213.45" font-family="Times New Roman,serif" font-size="14.00">label</text>
<polygon fill="none" stroke="black" points="112,-208.75 112,-229.75 358,-229.75 358,-208.75 112,-208.75"/>
<text text-anchor="start" x="199.38" y="-213.45" font-family="Times New Roman,serif" font-size="14.00">Optional[str]</text>
<polygon fill="none" stroke="black" points="0,-187.75 0,-208.75 112,-208.75 112,-187.75 0,-187.75"/>
<text text-anchor="start" x="24.88" y="-192.45" font-family="Times New Roman,serif" font-size="14.00">description</text>
<polygon fill="none" stroke="black" points="112,-187.75 112,-208.75 358,-208.75 358,-187.75 112,-187.75"/>
<text text-anchor="start" x="199.38" y="-192.45" font-family="Times New Roman,serif" font-size="14.00">Optional[str]</text>
<polygon fill="none" stroke="black" points="0,-166.75 0,-187.75 112,-187.75 112,-166.75 0,-166.75"/>
<text text-anchor="start" x="27.12" y="-171.45" font-family="Times New Roman,serif" font-size="14.00">comments</text>
<polygon fill="none" stroke="black" points="112,-166.75 112,-187.75 358,-187.75 358,-166.75 112,-166.75"/>
<text text-anchor="start" x="199.38" y="-171.45" font-family="Times New Roman,serif" font-size="14.00">Optional[str]</text>
<polygon fill="none" stroke="black" points="0,-145.75 0,-166.75 112,-166.75 112,-145.75 0,-145.75"/>
<text text-anchor="start" x="2.75" y="-150.45" font-family="Times New Roman,serif" font-size="14.00">assessment_period</text>
<polygon fill="none" stroke="black" points="112,-145.75 112,-166.75 358,-166.75 358,-145.75 112,-145.75"/>
<text text-anchor="start" x="125.88" y="-150.45" font-family="Times New Roman,serif" font-size="14.00">Optional[AssessmentPeriod(StrEnum)]</text>
<polygon fill="none" stroke="black" points="0,-124.75 0,-145.75 112,-145.75 112,-124.75 0,-124.75"/>
<text text-anchor="start" x="24.5" y="-129.45" font-family="Times New Roman,serif" font-size="14.00">dimensions</text>
<polygon fill="none" stroke="black" points="112,-124.75 112,-145.75 358,-145.75 358,-124.75 112,-124.75"/>
<text text-anchor="start" x="115" y="-129.45" font-family="Times New Roman,serif" font-size="14.00">Optional[list[DatasetDimension(StrEnum)]]</text>
<polygon fill="none" stroke="black" points="0,-103.75 0,-124.75 112,-124.75 112,-103.75 0,-103.75"/>
<text text-anchor="start" x="32" y="-108.45" font-family="Times New Roman,serif" font-size="14.00">statistics</text>
<polygon fill="none" stroke="black" points="112,-103.75 112,-124.75 358,-124.75 358,-103.75 112,-103.75"/>
<text text-anchor="start" x="179.88" y="-108.45" font-family="Times New Roman,serif" font-size="14.00">list[DatasetStatistic]</text>
</a>
</g>
</g>
<!-- eya_def_tools.data_models.dataset.DatasetStatistic -->
<g id="node2" class="node">
<title>eya_def_tools.data_models.dataset.DatasetStatistic</title>
<g id="a_node2"><a xlink:title="eya_def_tools.data_models.dataset.DatasetStatistic&#10;&#10;Dataset values for one specific statistic type.&#10;&#10;Attributes:&#10; &#160;&#160;&#160;description (Optional[str]): Optional description of the dataset statistic, which should not be empty if the field is included. Default is None.&#10; &#160;&#160;&#160;comments (Optional[str]): Optional comments on the dataset statistic, which should not be empty if the field is included. Default is None.&#10; &#160;&#160;&#160;statistic_type (UnionType[BasicStatisticType(StrEnum), ExceedanceLevelStatisticType]): Type of statistic that the component of the dataset contains. All values must correspond to this statistic. It can be either the string identifier of a basic statistic type (e.g. &#39;mean&#39;) or a specification of a probability of exceedance level.&#10; &#160;&#160;&#160;values (Union[float, list[tuple[list[Union[int, float, str]], float]]]): Dataset value(s) as a single number or one or more values at coordinates. If more than one value is included the values must be represented together with coordinates. A single value can be included either with or without coordinates. The coordinates must correspond to and be listed the same order as the dimensions specified for the dataset.&#10;">
<polygon fill="none" stroke="black" points="466,-103.75 466,-125.75 962,-125.75 962,-103.75 466,-103.75"/>
<text text-anchor="start" x="665.62" y="-110.45" font-family="Times New Roman,serif" font-weight="bold" font-size="14.00">DatasetStatistic</text>
<polygon fill="none" stroke="black" points="466,-82.75 466,-103.75 545,-103.75 545,-82.75 466,-82.75"/>
<text text-anchor="start" x="474.38" y="-87.45" font-family="Times New Roman,serif" font-size="14.00">description</text>
<polygon fill="none" stroke="black" points="545,-82.75 545,-103.75 962,-103.75 962,-82.75 545,-82.75"/>
<text text-anchor="start" x="717.88" y="-87.45" font-family="Times New Roman,serif" font-size="14.00">Optional[str]</text>
<polygon fill="none" stroke="black" points="466,-61.75 466,-82.75 545,-82.75 545,-61.75 466,-61.75"/>
<text text-anchor="start" x="476.62" y="-66.45" font-family="Times New Roman,serif" font-size="14.00">comments</text>
<polygon fill="none" stroke="black" points="545,-61.75 545,-82.75 962,-82.75 962,-61.75 545,-61.75"/>
<text text-anchor="start" x="717.88" y="-66.45" font-family="Times New Roman,serif" font-size="14.00">Optional[str]</text>
<polygon fill="none" stroke="black" points="466,-40.75 466,-61.75 545,-61.75 545,-40.75 466,-40.75"/>
<text text-anchor="start" x="468.75" y="-45.45" font-family="Times New Roman,serif" font-size="14.00">statistic_type</text>
<polygon fill="none" stroke="black" points="545,-40.75 545,-61.75 962,-61.75 962,-40.75 545,-40.75"/>
<text text-anchor="start" x="547.62" y="-45.45" font-family="Times New Roman,serif" font-size="14.00">UnionType[BasicStatisticType(StrEnum), ExceedanceLevelStatisticType]</text>
<polygon fill="none" stroke="black" points="466,-19.75 466,-40.75 545,-40.75 545,-19.75 466,-19.75"/>
<text text-anchor="start" x="488.25" y="-24.45" font-family="Times New Roman,serif" font-size="14.00">values</text>
<polygon fill="none" stroke="black" points="545,-19.75 545,-40.75 962,-40.75 962,-19.75 545,-19.75"/>
<text text-anchor="start" x="602" y="-24.45" font-family="Times New Roman,serif" font-size="14.00">Union[float, list[tuple[list[Union[int, float, str]], float]]]</text>
</a>
</g>
</g>
<!-- eya_def_tools.data_models.dataset.Dataset&#45;&gt;eya_def_tools.data_models.dataset.DatasetStatistic -->
<g id="edge1" class="edge">
<title>eya_def_tools.data_models.dataset.Dataset:e&#45;&gt;eya_def_tools.data_models.dataset.DatasetStatistic:w</title>
<path fill="none" stroke="black" d="M358,-114.25C406,-114.25 418,-114.75 466,-114.75"/>
<polygon fill="black" stroke="black" points="476.24,-124.99 470.74,-110.49 471,-119.75 466.47,-115.22 466.47,-115.22 466.47,-115.22 471,-119.75 461.74,-119.49 476.24,-124.99"/>
<ellipse fill="none" stroke="black" cx="481.45" cy="-130.2" rx="5.66" ry="5.66"/>
</g>
<!-- eya_def_tools.data_models.dataset.ExceedanceLevelStatisticType -->
<g id="node3" class="node">
<title>eya_def_tools.data_models.dataset.ExceedanceLevelStatisticType</title>
<g id="a_node3"><a xlink:title="eya_def_tools.data_models.dataset.ExceedanceLevelStatisticType&#10;&#10;Probability of exceedance level statistic type.&#10;&#10;Attributes:&#10; &#160;&#160;&#160;exceedance_level (float): The dimensionless probability of exceedance level (i.e. probability value between 0.0 and 1.0) of the statistic.&#10;">
<polygon fill="none" stroke="black" points="1070,-40.25 1070,-62.25 1262,-62.25 1262,-40.25 1070,-40.25"/>
<text text-anchor="start" x="1073" y="-46.95" font-family="Times New Roman,serif" font-weight="bold" font-size="14.00">ExceedanceLevelStatisticType</text>
<polygon fill="none" stroke="black" points="1070,-19.25 1070,-40.25 1202,-40.25 1202,-19.25 1070,-19.25"/>
<text text-anchor="start" x="1087.62" y="-23.95" font-family="Times New Roman,serif" font-size="14.00">exceedance_level</text>
<polygon fill="none" stroke="black" points="1202,-19.25 1202,-40.25 1262,-40.25 1262,-19.25 1202,-19.25"/>
<text text-anchor="start" x="1219.62" y="-23.95" font-family="Times New Roman,serif" font-size="14.00">float</text>
</a>
</g>
</g>
<!-- eya_def_tools.data_models.dataset.DatasetStatistic&#45;&gt;eya_def_tools.data_models.dataset.ExceedanceLevelStatisticType -->
<g id="edge2" class="edge">
<title>eya_def_tools.data_models.dataset.DatasetStatistic:e&#45;&gt;eya_def_tools.data_models.dataset.ExceedanceLevelStatisticType:w</title>
<path fill="none" stroke="black" d="M962,-51.25C1004.75,-51.25 1018.94,-51.25 1055.45,-51.25"/>
<polyline fill="none" stroke="black" points="1070,-51.25 1065,-51.25"/>
<polygon fill="black" stroke="black" points="1064,-46.25 1064,-56.25 1062,-56.25 1062,-46.25 1064,-46.25"/>
<polyline fill="none" stroke="black" points="1065,-51.25 1060,-51.25"/>
<polygon fill="black" stroke="black" points="1059,-46.25 1059,-56.25 1057,-56.25 1057,-46.25 1059,-46.25"/>
<polyline fill="none" stroke="black" points="1060,-51.25 1055,-51.25"/>
</g>
</g>
</svg>
