<?xml version="1.0" encoding="UTF-8" standalone="no"?>
<!DOCTYPE svg PUBLIC "-//W3C//DTD SVG 1.1//EN"
 "http://www.w3.org/Graphics/SVG/1.1/DTD/svg11.dtd">
<!-- Generated by graphviz version 7.0.4 (20221203.1631)
 -->
<!-- Title: Entity Relationship Diagram Pages: 1 -->
<svg width="2645pt" height="260pt"
 viewBox="0.00 0.00 2645.00 259.50" xmlns="http://www.w3.org/2000/svg" xmlns:xlink="http://www.w3.org/1999/xlink">
<g id="graph0" class="graph" transform="scale(1 1) rotate(0) translate(4 255.5)">
<title>Entity Relationship Diagram</title>
<polygon fill="white" stroke="none" points="-4,4 -4,-255.5 2641,-255.5 2641,4 -4,4"/>
<text text-anchor="middle" x="1318.5" y="-6.8" font-family="Times New Roman,serif" font-size="9.00" fill="#a8a8a8">Created by erdantic v0.6.0 &lt;https://github.com/drivendataorg/erdantic&gt;</text>
<!-- eya_def_tools.data_models.dataset.Dataset -->
<g id="node1" class="node">
<title>eya_def_tools.data_models.dataset.Dataset</title>
<g id="a_node1"><a xlink:title="eya_def_tools.data_models.dataset.Dataset&#10;&#10;Collection of labelled data for one specific quantity.&#10;&#10;The data is labelled by specifying dimensions and including&#10;coordinates along the dimensions for each data value.&#10;&#10;Attributes:&#10; &#160;&#160;&#160;label (Optional[Annotated[str, FieldInfo(annotation=NoneType, required=True, metadata=[MinLen(min_length=1)])]]): Optional label of the dataset, which should not be empty if the field is included. Default is None.&#10; &#160;&#160;&#160;description (Optional[Annotated[str, FieldInfo(annotation=NoneType, required=True, metadata=[MinLen(min_length=1)])]]): Optional description of the dataset, which should not be empty if the field is included. Default is None.&#10; &#160;&#160;&#160;comments (Optional[Annotated[str, FieldInfo(annotation=NoneType, required=True, metadata=[MinLen(min_length=1)])]]): Optional comments on the dataset, which should not be empty if the field is included. Default is None.&#10; &#160;&#160;&#160;assessment_period (Optional[AssessmentPeriod(StrEnum)]): Optional period of or in time that has been assessed and for which the dataset is applicable. This field is to be included only when relevant. Default is None.&#10; &#160;&#160;&#160;dimensions (Optional[list[DatasetDimension(StrEnum)]]): Dimensions along which the dataset is binned. All statistics within the same dataset object must have the same dimensions. The dimensions must correspond to and be listed in the same order as the coordinates for the values of all statistics. A dataset without dimensions can only have a single value for each statistic. Default is None.&#10; &#160;&#160;&#160;statistics (list[DatasetStatistic]): List of dataset statistic objects that each include data values for a specific statistic type. For example, there may be two statistics, one for mean values and one for standard deviation values.&#10;">
<polygon fill="none" stroke="black" points="0,-230 0,-251 740,-251 740,-230 0,-230"/>
<text text-anchor="start" x="346" y="-237.8" font-family="Times New Roman,serif" font-weight="bold" font-size="14.00">Dataset</text>
<polygon fill="none" stroke="black" points="0,-209 0,-230 113,-230 113,-209 0,-209"/>
<text text-anchor="start" x="43.5" y="-215.8" font-family="Times New Roman,serif" font-size="14.00">label</text>
<polygon fill="none" stroke="black" points="113,-209 113,-230 740,-230 740,-209 113,-209"/>
<text text-anchor="start" x="116" y="-215.8" font-family="Times New Roman,serif" font-size="14.00">Optional[Annotated[str, FieldInfo(annotation=NoneType, required=True, metadata=[MinLen(min_length=1)])]]</text>
<polygon fill="none" stroke="black" points="0,-188 0,-209 113,-209 113,-188 0,-188"/>
<text text-anchor="start" x="25" y="-194.8" font-family="Times New Roman,serif" font-size="14.00">description</text>
<polygon fill="none" stroke="black" points="113,-188 113,-209 740,-209 740,-188 113,-188"/>
<text text-anchor="start" x="116" y="-194.8" font-family="Times New Roman,serif" font-size="14.00">Optional[Annotated[str, FieldInfo(annotation=NoneType, required=True, metadata=[MinLen(min_length=1)])]]</text>
<polygon fill="none" stroke="black" points="0,-167 0,-188 113,-188 113,-167 0,-167"/>
<text text-anchor="start" x="27.5" y="-173.8" font-family="Times New Roman,serif" font-size="14.00">comments</text>
<polygon fill="none" stroke="black" points="113,-167 113,-188 740,-188 740,-167 113,-167"/>
<text text-anchor="start" x="116" y="-173.8" font-family="Times New Roman,serif" font-size="14.00">Optional[Annotated[str, FieldInfo(annotation=NoneType, required=True, metadata=[MinLen(min_length=1)])]]</text>
<polygon fill="none" stroke="black" points="0,-146 0,-167 113,-167 113,-146 0,-146"/>
<text text-anchor="start" x="3" y="-152.8" font-family="Times New Roman,serif" font-size="14.00">assessment_period</text>
<polygon fill="none" stroke="black" points="113,-146 113,-167 740,-167 740,-146 113,-146"/>
<text text-anchor="start" x="317" y="-152.8" font-family="Times New Roman,serif" font-size="14.00">Optional[AssessmentPeriod(StrEnum)]</text>
<polygon fill="none" stroke="black" points="0,-125 0,-146 113,-146 113,-125 0,-125"/>
<text text-anchor="start" x="24.5" y="-131.8" font-family="Times New Roman,serif" font-size="14.00">dimensions</text>
<polygon fill="none" stroke="black" points="113,-125 113,-146 740,-146 740,-125 113,-125"/>
<text text-anchor="start" x="306" y="-131.8" font-family="Times New Roman,serif" font-size="14.00">Optional[list[DatasetDimension(StrEnum)]]</text>
<polygon fill="none" stroke="black" points="0,-104 0,-125 113,-125 113,-104 0,-104"/>
<text text-anchor="start" x="32" y="-110.8" font-family="Times New Roman,serif" font-size="14.00">statistics</text>
<polygon fill="none" stroke="black" points="113,-104 113,-125 740,-125 740,-104 113,-104"/>
<text text-anchor="start" x="371" y="-110.8" font-family="Times New Roman,serif" font-size="14.00">list[DatasetStatistic]</text>
</a>
</g>
</g>
<!-- eya_def_tools.data_models.dataset.DatasetStatistic -->
<g id="node2" class="node">
<title>eya_def_tools.data_models.dataset.DatasetStatistic</title>
<g id="a_node2"><a xlink:title="eya_def_tools.data_models.dataset.DatasetStatistic&#10;&#10;Dataset values for one specific statistic type.&#10;&#10;Attributes:&#10; &#160;&#160;&#160;description (Optional[Annotated[str, FieldInfo(annotation=NoneType, required=True, metadata=[MinLen(min_length=1)])]]): Optional description of the dataset statistic, which should not be empty if the field is included. Default is None.&#10; &#160;&#160;&#160;comments (Optional[Annotated[str, FieldInfo(annotation=NoneType, required=True, metadata=[MinLen(min_length=1)])]]): Optional comments on the dataset statistic, which should not be empty if the field is included. Default is None.&#10; &#160;&#160;&#160;statistic_type (UnionType[BasicStatisticType(StrEnum), ExceedanceLevelStatisticType]): Type of statistic that the component of the dataset contains. All values must correspond to this statistic.&#10; &#160;&#160;&#160;values (Union[float, Annotated[list[tuple[list[Union[float, int, Annotated[str, FieldInfo(annotation=NoneType, required=True, metadata=[MinLen(min_length=1)])]]], float]], FieldInfo(annotation=NoneType, required=True, metadata=[MinLen(min_length=1)])]]): Dataset value(s) as a single number or &#160;one or more values at coordinates. If more than one value is included the values must be represented together with coordinates. A single value can be included either with or without coordinates. The coordinates must correspond to and be listed the same order as the dimensions specified for the dataset.&#10;">
<polygon fill="none" stroke="black" points="848,-103 848,-124 2336,-124 2336,-103 848,-103"/>
<text text-anchor="start" x="1543.5" y="-110.8" font-family="Times New Roman,serif" font-weight="bold" font-size="14.00">DatasetStatistic</text>
<polygon fill="none" stroke="black" points="848,-82 848,-103 928,-103 928,-82 848,-82"/>
<text text-anchor="start" x="856.5" y="-88.8" font-family="Times New Roman,serif" font-size="14.00">description</text>
<polygon fill="none" stroke="black" points="928,-82 928,-103 2336,-103 2336,-82 928,-82"/>
<text text-anchor="start" x="1321.5" y="-88.8" font-family="Times New Roman,serif" font-size="14.00">Optional[Annotated[str, FieldInfo(annotation=NoneType, required=True, metadata=[MinLen(min_length=1)])]]</text>
<polygon fill="none" stroke="black" points="848,-61 848,-82 928,-82 928,-61 848,-61"/>
<text text-anchor="start" x="859" y="-67.8" font-family="Times New Roman,serif" font-size="14.00">comments</text>
<polygon fill="none" stroke="black" points="928,-61 928,-82 2336,-82 2336,-61 928,-61"/>
<text text-anchor="start" x="1321.5" y="-67.8" font-family="Times New Roman,serif" font-size="14.00">Optional[Annotated[str, FieldInfo(annotation=NoneType, required=True, metadata=[MinLen(min_length=1)])]]</text>
<polygon fill="none" stroke="black" points="848,-40 848,-61 928,-61 928,-40 848,-40"/>
<text text-anchor="start" x="851" y="-46.8" font-family="Times New Roman,serif" font-size="14.00">statistic_type</text>
<polygon fill="none" stroke="black" points="928,-40 928,-61 2336,-61 2336,-40 928,-40"/>
<text text-anchor="start" x="1426" y="-46.8" font-family="Times New Roman,serif" font-size="14.00">UnionType[BasicStatisticType(StrEnum), ExceedanceLevelStatisticType]</text>
<polygon fill="none" stroke="black" points="848,-19 848,-40 928,-40 928,-19 848,-19"/>
<text text-anchor="start" x="870.5" y="-25.8" font-family="Times New Roman,serif" font-size="14.00">values</text>
<polygon fill="none" stroke="black" points="928,-19 928,-40 2336,-40 2336,-19 928,-19"/>
<text text-anchor="start" x="931" y="-25.8" font-family="Times New Roman,serif" font-size="14.00">Union[float, Annotated[list[tuple[list[Union[float, int, Annotated[str, FieldInfo(annotation=NoneType, required=True, metadata=[MinLen(min_length=1)])]]], float]], FieldInfo(annotation=NoneType, required=True, metadata=[MinLen(min_length=1)])]]</text>
</a>
</g>
</g>
<!-- eya_def_tools.data_models.dataset.Dataset&#45;&gt;eya_def_tools.data_models.dataset.DatasetStatistic -->
<g id="edge1" class="edge">
<title>eya_def_tools.data_models.dataset.Dataset:e&#45;&gt;eya_def_tools.data_models.dataset.DatasetStatistic:w</title>
<path fill="none" stroke="black" d="M740,-114C781.06,-114 795.78,-114 829.23,-114"/>
<polygon fill="black" stroke="black" points="838,-114 848,-118.5 843,-114 848,-114 848,-114 848,-114 843,-114 848,-109.5 838,-114 838,-114"/>
<ellipse fill="none" stroke="black" cx="833.5" cy="-114" rx="4" ry="4"/>
</g>
<!-- eya_def_tools.data_models.dataset.ExceedanceLevelStatisticType -->
<g id="node3" class="node">
<title>eya_def_tools.data_models.dataset.ExceedanceLevelStatisticType</title>
<g id="a_node3"><a xlink:title="eya_def_tools.data_models.dataset.ExceedanceLevelStatisticType&#10;&#10;Probability of exceedance level statistic type.&#10;&#10;Attributes:&#10; &#160;&#160;&#160;exceedance_level (float): The dimensionless probability of exceedance level (i.e. probability value between 0.0 and 1.0) of the statistic.&#10;">
<polygon fill="none" stroke="black" points="2444.5,-39 2444.5,-60 2637.5,-60 2637.5,-39 2444.5,-39"/>
<text text-anchor="start" x="2447.5" y="-46.8" font-family="Times New Roman,serif" font-weight="bold" font-size="14.00">ExceedanceLevelStatisticType</text>
<polygon fill="none" stroke="black" points="2444.5,-18 2444.5,-39 2576.5,-39 2576.5,-18 2444.5,-18"/>
<text text-anchor="start" x="2462" y="-24.8" font-family="Times New Roman,serif" font-size="14.00">exceedance_level</text>
<polygon fill="none" stroke="black" points="2576.5,-18 2576.5,-39 2637.5,-39 2637.5,-18 2576.5,-18"/>
<text text-anchor="start" x="2594.5" y="-24.8" font-family="Times New Roman,serif" font-size="14.00">float</text>
</a>
</g>
</g>
<!-- eya_def_tools.data_models.dataset.DatasetStatistic&#45;&gt;eya_def_tools.data_models.dataset.ExceedanceLevelStatisticType -->
<g id="edge2" class="edge">
<title>eya_def_tools.data_models.dataset.DatasetStatistic:e&#45;&gt;eya_def_tools.data_models.dataset.ExceedanceLevelStatisticType:w</title>
<path fill="none" stroke="black" d="M2336,-50C2378.75,-50 2392.94,-50 2429.45,-50"/>
<polyline fill="none" stroke="black" points="2444,-50 2439,-50"/>
<polygon fill="black" stroke="black" points="2438,-45 2438,-55 2436,-55 2436,-45 2438,-45"/>
<polyline fill="none" stroke="black" points="2439,-50 2434,-50"/>
<polygon fill="black" stroke="black" points="2433,-45 2433,-55 2431,-55 2431,-45 2433,-45"/>
<polyline fill="none" stroke="black" points="2434,-50 2429,-50"/>
</g>
</g>
</svg>
