<?xml version="1.0" encoding="UTF-8" standalone="no"?>
<!DOCTYPE svg PUBLIC "-//W3C//DTD SVG 1.1//EN"
 "http://www.w3.org/Graphics/SVG/1.1/DTD/svg11.dtd">
<!-- Generated by graphviz version 7.0.4 (20221203.1631)
 -->
<!-- Title: Entity Relationship Diagram Pages: 1 -->
<svg width="1166pt" height="1081pt"
 viewBox="0.00 0.00 1166.00 1081.00" xmlns="http://www.w3.org/2000/svg" xmlns:xlink="http://www.w3.org/1999/xlink">
<g id="graph0" class="graph" transform="scale(1 1) rotate(0) translate(4 1077)">
<title>Entity Relationship Diagram</title>
<polygon fill="white" stroke="none" points="-4,4 -4,-1077 1162,-1077 1162,4 -4,4"/>
<text text-anchor="middle" x="579" y="-6.8" font-family="Times New Roman,serif" font-size="9.00" fill="#a8a8a8">Created by erdantic v0.6.0 &lt;https://github.com/drivendataorg/erdantic&gt;</text>
<!-- eya_def_tools.data_models.eya_def.EyaDefDocument -->
<g id="node1" class="node">
<title>eya_def_tools.data_models.eya_def.EyaDefDocument</title>
<g id="a_node1"><a xlink:title="eya_def_tools.data_models.eya_def.EyaDefDocument&#10;&#10;IEC 61400&#45;15&#45;2 EYA DEF top&#45;level data model.&#10;&#10;Attributes:&#10; &#160;&#160;&#160;uri (Optional[Url]): URI of the EYA DEF JSON document, which should have the field name &#39;$id&#39; in the JSON document. Default is None.&#10; &#160;&#160;&#160;schema_uri (Url): URI of the EYA DEF JSON Schema, which should have the field name &#39;$schema&#39; in the JSON document. It is assumed to be the latest published version if not included. Default is https://raw.githubusercontent.com/IEC&#45;61400&#45;15/eya_def/blob/main/iec_61400&#45;15&#45;2_eya_def.schema.json.&#10; &#160;&#160;&#160;uuid (Optional[UUID]): UUID of the EYA DEF JSON document. Default is None.&#10; &#160;&#160;&#160;title (str): Title of the energy yield assessment (EYA) report.&#10; &#160;&#160;&#160;description (Optional[str]): Optional description of the energy yield assessment (EYA) report. Default is None.&#10; &#160;&#160;&#160;comments (Optional[str]): Optional comments on the energy yield assessment (EYA) report. Default is None.&#10; &#160;&#160;&#160;project_name (str): Name of the project under assessment.&#10; &#160;&#160;&#160;project_country (Alpha2CountryCode(StrEnum)): The ISO 3166&#45;1 alpha&#45;2 two&#45;letter code of the country where the project under assessment is located.&#10; &#160;&#160;&#160;document_id (Optional[str]): The ID of the report document; not including the version when &#39;document_version&#39; is used. This will typically follow the convention of the document management system of the issuing organisation(s). Default is None.&#10; &#160;&#160;&#160;document_version (Optional[str]): Version of the report document, also known as revision. As with the &#39;document_id&#39;, this will typically follow the document versioning convention of the document management system of the issuing organisation(s). Default is None.&#10; &#160;&#160;&#160;issue_date (date): Report issue date in the ISO 8601 standard format for a calendar date, i.e. YYYY&#45;MM&#45;DD.&#10; &#160;&#160;&#160;contributors (list[ReportContributor]): List of report contributors (e.g. author and verifier)&#10; &#160;&#160;&#160;issuing_organisations (list[Organisation]): The organisation(s) issuing the report (e.g. consultant).&#10; &#160;&#160;&#160;receiving_organisations (Optional[list[Organisation]]): The organisation(s) receiving the report (e.g. client), if relevant. Default is None.&#10; &#160;&#160;&#160;contract_reference (Optional[str]): Reference to contract between the issuing and receiving organisations that governs the energy yield assessment (EYA) report document, if relevant. Default is None.&#10; &#160;&#160;&#160;confidentiality_classification (Optional[str]): Confidentiality classification of the report document, if relevant. Default is None.&#10; &#160;&#160;&#160;epsg_srid (int): EPSG Spatial Reference System Identifier (SRID) for the Coordinate Reference System (CRS) used for all spatial data (e.g. turbine locations) in the EYA DEF JSON document. All location coordinates must be reported in the same CRS, which must be one that has an EPSG code. If different CRSs are used the data must be converted to be consistent with the EPSG code specified here.&#10; &#160;&#160;&#160;measurement_stations (Annotated[Optional[list[dict[str, Any]]], IEATask43WraDataModel]): List of measurement station metadata JSON document(s) according to the IEA Task 43 WRA Data Model, for all station datasets used in the EYA, if any. Default is None.&#10; &#160;&#160;&#160;reference_wind_farms (Optional[list[ReferenceWindFarm]]): List of reference operational wind farms used in the EYA. Default is None.&#10; &#160;&#160;&#160;reference_meteorological_datasets (Optional[list[ReferenceMeteorologicalDataset]]): List of reference meteorological datasets used in the EYA. Default is None.&#10; &#160;&#160;&#160;wind_resource_assessments (list[WindResourceAssessment]): List of wind resource assessments, including results, at the measurement station locations.&#10; &#160;&#160;&#160;turbine_models (Annotated[Optional[list[dict[str, Any]]], IEC61400x16PowerCurveDataModel]): List of wind turbine model specifications. Default is None.&#10; &#160;&#160;&#160;scenarios (Optional[list[Scenario]]): List of energy yield assessment scenarios. Default is None.&#10;">
<polygon fill="none" stroke="black" points="0,-1052 0,-1073 644,-1073 644,-1052 0,-1052"/>
<text text-anchor="start" x="267.5" y="-1059.8" font-family="Times New Roman,serif" font-weight="bold" font-size="14.00">EyaDefDocument</text>
<polygon fill="none" stroke="black" points="0,-1031 0,-1052 199,-1052 199,-1031 0,-1031"/>
<text text-anchor="start" x="92" y="-1037.8" font-family="Times New Roman,serif" font-size="14.00">uri</text>
<polygon fill="none" stroke="black" points="199,-1031 199,-1052 644,-1052 644,-1031 199,-1031"/>
<text text-anchor="start" x="384" y="-1037.8" font-family="Times New Roman,serif" font-size="14.00">Optional[Url]</text>
<polygon fill="none" stroke="black" points="0,-1010 0,-1031 199,-1031 199,-1010 0,-1010"/>
<text text-anchor="start" x="67.5" y="-1016.8" font-family="Times New Roman,serif" font-size="14.00">schema_uri</text>
<polygon fill="none" stroke="black" points="199,-1010 199,-1031 644,-1031 644,-1010 199,-1010"/>
<text text-anchor="start" x="412.5" y="-1016.8" font-family="Times New Roman,serif" font-size="14.00">Url</text>
<polygon fill="none" stroke="black" points="0,-989 0,-1010 199,-1010 199,-989 0,-989"/>
<text text-anchor="start" x="87" y="-995.8" font-family="Times New Roman,serif" font-size="14.00">uuid</text>
<polygon fill="none" stroke="black" points="199,-989 199,-1010 644,-1010 644,-989 199,-989"/>
<text text-anchor="start" x="376" y="-995.8" font-family="Times New Roman,serif" font-size="14.00">Optional[UUID]</text>
<polygon fill="none" stroke="black" points="0,-968 0,-989 199,-989 199,-968 0,-968"/>
<text text-anchor="start" x="89.5" y="-974.8" font-family="Times New Roman,serif" font-size="14.00">title</text>
<polygon fill="none" stroke="black" points="199,-968 199,-989 644,-989 644,-968 199,-968"/>
<text text-anchor="start" x="414" y="-974.8" font-family="Times New Roman,serif" font-size="14.00">str</text>
<polygon fill="none" stroke="black" points="0,-947 0,-968 199,-968 199,-947 0,-947"/>
<text text-anchor="start" x="68" y="-953.8" font-family="Times New Roman,serif" font-size="14.00">description</text>
<polygon fill="none" stroke="black" points="199,-947 199,-968 644,-968 644,-947 199,-947"/>
<text text-anchor="start" x="385.5" y="-953.8" font-family="Times New Roman,serif" font-size="14.00">Optional[str]</text>
<polygon fill="none" stroke="black" points="0,-926 0,-947 199,-947 199,-926 0,-926"/>
<text text-anchor="start" x="70.5" y="-932.8" font-family="Times New Roman,serif" font-size="14.00">comments</text>
<polygon fill="none" stroke="black" points="199,-926 199,-947 644,-947 644,-926 199,-926"/>
<text text-anchor="start" x="385.5" y="-932.8" font-family="Times New Roman,serif" font-size="14.00">Optional[str]</text>
<polygon fill="none" stroke="black" points="0,-905 0,-926 199,-926 199,-905 0,-905"/>
<text text-anchor="start" x="61.5" y="-911.8" font-family="Times New Roman,serif" font-size="14.00">project_name</text>
<polygon fill="none" stroke="black" points="199,-905 199,-926 644,-926 644,-905 199,-905"/>
<text text-anchor="start" x="414" y="-911.8" font-family="Times New Roman,serif" font-size="14.00">str</text>
<polygon fill="none" stroke="black" points="0,-884 0,-905 199,-905 199,-884 0,-884"/>
<text text-anchor="start" x="54.5" y="-890.8" font-family="Times New Roman,serif" font-size="14.00">project_country</text>
<polygon fill="none" stroke="black" points="199,-884 199,-905 644,-905 644,-884 199,-884"/>
<text text-anchor="start" x="334" y="-890.8" font-family="Times New Roman,serif" font-size="14.00">Alpha2CountryCode(StrEnum)</text>
<polygon fill="none" stroke="black" points="0,-863 0,-884 199,-884 199,-863 0,-863"/>
<text text-anchor="start" x="62.5" y="-869.8" font-family="Times New Roman,serif" font-size="14.00">document_id</text>
<polygon fill="none" stroke="black" points="199,-863 199,-884 644,-884 644,-863 199,-863"/>
<text text-anchor="start" x="385.5" y="-869.8" font-family="Times New Roman,serif" font-size="14.00">Optional[str]</text>
<polygon fill="none" stroke="black" points="0,-842 0,-863 199,-863 199,-842 0,-842"/>
<text text-anchor="start" x="47.5" y="-848.8" font-family="Times New Roman,serif" font-size="14.00">document_version</text>
<polygon fill="none" stroke="black" points="199,-842 199,-863 644,-863 644,-842 199,-842"/>
<text text-anchor="start" x="385.5" y="-848.8" font-family="Times New Roman,serif" font-size="14.00">Optional[str]</text>
<polygon fill="none" stroke="black" points="0,-821 0,-842 199,-842 199,-821 0,-821"/>
<text text-anchor="start" x="70" y="-827.8" font-family="Times New Roman,serif" font-size="14.00">issue_date</text>
<polygon fill="none" stroke="black" points="199,-821 199,-842 644,-842 644,-821 199,-821"/>
<text text-anchor="start" x="409.5" y="-827.8" font-family="Times New Roman,serif" font-size="14.00">date</text>
<polygon fill="none" stroke="black" points="0,-800 0,-821 199,-821 199,-800 0,-800"/>
<text text-anchor="start" x="65" y="-806.8" font-family="Times New Roman,serif" font-size="14.00">contributors</text>
<polygon fill="none" stroke="black" points="199,-800 199,-821 644,-821 644,-800 199,-800"/>
<text text-anchor="start" x="356.5" y="-806.8" font-family="Times New Roman,serif" font-size="14.00">list[ReportContributor]</text>
<polygon fill="none" stroke="black" points="0,-779 0,-800 199,-800 199,-779 0,-779"/>
<text text-anchor="start" x="39.5" y="-785.8" font-family="Times New Roman,serif" font-size="14.00">issuing_organisations</text>
<polygon fill="none" stroke="black" points="199,-779 199,-800 644,-800 644,-779 199,-779"/>
<text text-anchor="start" x="373.5" y="-785.8" font-family="Times New Roman,serif" font-size="14.00">list[Organisation]</text>
<polygon fill="none" stroke="black" points="0,-758 0,-779 199,-779 199,-758 0,-758"/>
<text text-anchor="start" x="34" y="-764.8" font-family="Times New Roman,serif" font-size="14.00">receiving_organisations</text>
<polygon fill="none" stroke="black" points="199,-758 199,-779 644,-779 644,-758 199,-758"/>
<text text-anchor="start" x="345" y="-764.8" font-family="Times New Roman,serif" font-size="14.00">Optional[list[Organisation]]</text>
<polygon fill="none" stroke="black" points="0,-737 0,-758 199,-758 199,-737 0,-737"/>
<text text-anchor="start" x="47" y="-743.8" font-family="Times New Roman,serif" font-size="14.00">contract_reference</text>
<polygon fill="none" stroke="black" points="199,-737 199,-758 644,-758 644,-737 199,-737"/>
<text text-anchor="start" x="385.5" y="-743.8" font-family="Times New Roman,serif" font-size="14.00">Optional[str]</text>
<polygon fill="none" stroke="black" points="0,-716 0,-737 199,-737 199,-716 0,-716"/>
<text text-anchor="start" x="20.5" y="-722.8" font-family="Times New Roman,serif" font-size="14.00">confidentiality_classification</text>
<polygon fill="none" stroke="black" points="199,-716 199,-737 644,-737 644,-716 199,-716"/>
<text text-anchor="start" x="385.5" y="-722.8" font-family="Times New Roman,serif" font-size="14.00">Optional[str]</text>
<polygon fill="none" stroke="black" points="0,-695 0,-716 199,-716 199,-695 0,-695"/>
<text text-anchor="start" x="72" y="-701.8" font-family="Times New Roman,serif" font-size="14.00">epsg_srid</text>
<polygon fill="none" stroke="black" points="199,-695 199,-716 644,-716 644,-695 199,-695"/>
<text text-anchor="start" x="414.5" y="-701.8" font-family="Times New Roman,serif" font-size="14.00">int</text>
<polygon fill="none" stroke="black" points="0,-674 0,-695 199,-695 199,-674 0,-674"/>
<text text-anchor="start" x="37.5" y="-680.8" font-family="Times New Roman,serif" font-size="14.00">measurement_stations</text>
<polygon fill="none" stroke="black" points="199,-674 199,-695 644,-695 644,-674 199,-674"/>
<text text-anchor="start" x="231" y="-680.8" font-family="Times New Roman,serif" font-size="14.00">Annotated[Optional[list[dict[str, Any]]], IEATask43WraDataModel]</text>
<polygon fill="none" stroke="black" points="0,-653 0,-674 199,-674 199,-653 0,-653"/>
<text text-anchor="start" x="37" y="-659.8" font-family="Times New Roman,serif" font-size="14.00">reference_wind_farms</text>
<polygon fill="none" stroke="black" points="199,-653 199,-674 644,-674 644,-653 199,-653"/>
<text text-anchor="start" x="322" y="-659.8" font-family="Times New Roman,serif" font-size="14.00">Optional[list[ReferenceWindFarm]]</text>
<polygon fill="none" stroke="black" points="0,-632 0,-653 199,-653 199,-632 0,-632"/>
<text text-anchor="start" x="3" y="-638.8" font-family="Times New Roman,serif" font-size="14.00">reference_meteorological_datasets</text>
<polygon fill="none" stroke="black" points="199,-632 199,-653 644,-653 644,-632 199,-632"/>
<text text-anchor="start" x="290" y="-638.8" font-family="Times New Roman,serif" font-size="14.00">Optional[list[ReferenceMeteorologicalDataset]]</text>
<polygon fill="none" stroke="black" points="0,-611 0,-632 199,-632 199,-611 0,-611"/>
<text text-anchor="start" x="19.5" y="-617.8" font-family="Times New Roman,serif" font-size="14.00">wind_resource_assessments</text>
<polygon fill="none" stroke="black" points="199,-611 199,-632 644,-632 644,-611 199,-611"/>
<text text-anchor="start" x="333.5" y="-617.8" font-family="Times New Roman,serif" font-size="14.00">list[WindResourceAssessment]</text>
<polygon fill="none" stroke="black" points="0,-590 0,-611 199,-611 199,-590 0,-590"/>
<text text-anchor="start" x="56" y="-596.8" font-family="Times New Roman,serif" font-size="14.00">turbine_models</text>
<polygon fill="none" stroke="black" points="199,-590 199,-611 644,-611 644,-590 199,-590"/>
<text text-anchor="start" x="202" y="-596.8" font-family="Times New Roman,serif" font-size="14.00">Annotated[Optional[list[dict[str, Any]]], IEC61400x16PowerCurveDataModel]</text>
<polygon fill="none" stroke="black" points="0,-569 0,-590 199,-590 199,-569 0,-569"/>
<text text-anchor="start" x="73" y="-575.8" font-family="Times New Roman,serif" font-size="14.00">scenarios</text>
<polygon fill="none" stroke="black" points="199,-569 199,-590 644,-590 644,-569 199,-569"/>
<text text-anchor="start" x="356" y="-575.8" font-family="Times New Roman,serif" font-size="14.00">Optional[list[Scenario]]</text>
</a>
</g>
</g>
<!-- eya_def_tools.data_models.general_metadata.Organisation -->
<g id="node2" class="node">
<title>eya_def_tools.data_models.general_metadata.Organisation</title>
<g id="a_node2"><a xlink:title="eya_def_tools.data_models.general_metadata.Organisation&#10;&#10;Issuing or receiving organisation of an energy yield assessment.&#10;&#10;Attributes:&#10; &#160;&#160;&#160;name (str): Entity name of the organisation.&#10; &#160;&#160;&#160;abbreviation (Optional[str]): Abbreviated name of the organisation. Default is None.&#10; &#160;&#160;&#160;address (Optional[str]): Address of the organisation. Default is None.&#10; &#160;&#160;&#160;contact_name (Optional[str]): Name(s) of contact person(s) in the organisation. Default is None.&#10;">
<polygon fill="none" stroke="black" points="874,-793 874,-814 1037,-814 1037,-793 874,-793"/>
<text text-anchor="start" x="915" y="-800.8" font-family="Times New Roman,serif" font-weight="bold" font-size="14.00">Organisation</text>
<polygon fill="none" stroke="black" points="874,-772 874,-793 959,-793 959,-772 874,-772"/>
<text text-anchor="start" x="901.5" y="-778.8" font-family="Times New Roman,serif" font-size="14.00">name</text>
<polygon fill="none" stroke="black" points="959,-772 959,-793 1037,-793 1037,-772 959,-772"/>
<text text-anchor="start" x="990.5" y="-778.8" font-family="Times New Roman,serif" font-size="14.00">str</text>
<polygon fill="none" stroke="black" points="874,-751 874,-772 959,-772 959,-751 874,-751"/>
<text text-anchor="start" x="882" y="-757.8" font-family="Times New Roman,serif" font-size="14.00">abbreviation</text>
<polygon fill="none" stroke="black" points="959,-751 959,-772 1037,-772 1037,-751 959,-751"/>
<text text-anchor="start" x="962" y="-757.8" font-family="Times New Roman,serif" font-size="14.00">Optional[str]</text>
<polygon fill="none" stroke="black" points="874,-730 874,-751 959,-751 959,-730 874,-730"/>
<text text-anchor="start" x="894.5" y="-736.8" font-family="Times New Roman,serif" font-size="14.00">address</text>
<polygon fill="none" stroke="black" points="959,-730 959,-751 1037,-751 1037,-730 959,-730"/>
<text text-anchor="start" x="962" y="-736.8" font-family="Times New Roman,serif" font-size="14.00">Optional[str]</text>
<polygon fill="none" stroke="black" points="874,-709 874,-730 959,-730 959,-709 874,-709"/>
<text text-anchor="start" x="877" y="-715.8" font-family="Times New Roman,serif" font-size="14.00">contact_name</text>
<polygon fill="none" stroke="black" points="959,-709 959,-730 1037,-730 1037,-709 959,-709"/>
<text text-anchor="start" x="962" y="-715.8" font-family="Times New Roman,serif" font-size="14.00">Optional[str]</text>
</a>
</g>
</g>
<!-- eya_def_tools.data_models.eya_def.EyaDefDocument&#45;&gt;eya_def_tools.data_models.general_metadata.Organisation -->
<g id="edge1" class="edge">
<title>eya_def_tools.data_models.eya_def.EyaDefDocument:e&#45;&gt;eya_def_tools.data_models.general_metadata.Organisation:w</title>
<path fill="none" stroke="black" d="M644,-789C739.42,-789 767.46,-802.13 854.2,-803.82"/>
<polygon fill="black" stroke="black" points="863,-803.9 872.96,-808.5 868,-803.95 873,-804 873,-804 873,-804 868,-803.95 873.04,-799.5 863,-803.9 863,-803.9"/>
<ellipse fill="none" stroke="black" cx="858.5" cy="-803.86" rx="4" ry="4"/>
</g>
<!-- eya_def_tools.data_models.eya_def.EyaDefDocument&#45;&gt;eya_def_tools.data_models.general_metadata.Organisation -->
<g id="edge2" class="edge">
<title>eya_def_tools.data_models.eya_def.EyaDefDocument:e&#45;&gt;eya_def_tools.data_models.general_metadata.Organisation:w</title>
<path fill="none" stroke="black" d="M644,-768C740.39,-768 766.68,-799.51 854.03,-803.57"/>
<polyline fill="none" stroke="black" points="873,-804 868,-803.89"/>
<polygon fill="black" stroke="black" points="867.11,-798.87 866.89,-808.86 864.89,-808.82 865.12,-798.82 867.11,-798.87"/>
<polyline fill="none" stroke="black" points="868,-803.89 863,-803.77"/>
<ellipse fill="none" stroke="black" cx="858.5" cy="-803.67" rx="4" ry="4"/>
</g>
<!-- eya_def_tools.data_models.general_metadata.ReportContributor -->
<g id="node3" class="node">
<title>eya_def_tools.data_models.general_metadata.ReportContributor</title>
<g id="a_node3"><a xlink:title="eya_def_tools.data_models.general_metadata.ReportContributor&#10;&#10;Contributor to an energy yield assessment.&#10;&#10;Attributes:&#10; &#160;&#160;&#160;name (str): Name of the contributor.&#10; &#160;&#160;&#160;email_address (Optional[EmailStr]): Email address of the contributor. Default is None.&#10; &#160;&#160;&#160;contributor_type (ReportContributorType(StrEnum)): Type of contributor.&#10; &#160;&#160;&#160;contribution_comments (Optional[str]): Comments to clarify contribution. Default is None.&#10; &#160;&#160;&#160;completion_date (Optional[date]): Contribution completion date (format YYYY&#45;MM&#45;DD). Default is None.&#10;">
<polygon fill="none" stroke="black" points="787,-956 787,-977 1124,-977 1124,-956 787,-956"/>
<text text-anchor="start" x="897.5" y="-963.8" font-family="Times New Roman,serif" font-weight="bold" font-size="14.00">ReportContributor</text>
<polygon fill="none" stroke="black" points="787,-935 787,-956 926,-956 926,-935 787,-935"/>
<text text-anchor="start" x="841.5" y="-941.8" font-family="Times New Roman,serif" font-size="14.00">name</text>
<polygon fill="none" stroke="black" points="926,-935 926,-956 1124,-956 1124,-935 926,-935"/>
<text text-anchor="start" x="1017.5" y="-941.8" font-family="Times New Roman,serif" font-size="14.00">str</text>
<polygon fill="none" stroke="black" points="787,-914 787,-935 926,-935 926,-914 787,-914"/>
<text text-anchor="start" x="816.5" y="-920.8" font-family="Times New Roman,serif" font-size="14.00">email_address</text>
<polygon fill="none" stroke="black" points="926,-914 926,-935 1124,-935 1124,-914 926,-914"/>
<text text-anchor="start" x="972.5" y="-920.8" font-family="Times New Roman,serif" font-size="14.00">Optional[EmailStr]</text>
<polygon fill="none" stroke="black" points="787,-893 787,-914 926,-914 926,-893 787,-893"/>
<text text-anchor="start" x="809.5" y="-899.8" font-family="Times New Roman,serif" font-size="14.00">contributor_type</text>
<polygon fill="none" stroke="black" points="926,-893 926,-914 1124,-914 1124,-893 926,-893"/>
<text text-anchor="start" x="929" y="-899.8" font-family="Times New Roman,serif" font-size="14.00">ReportContributorType(StrEnum)</text>
<polygon fill="none" stroke="black" points="787,-872 787,-893 926,-893 926,-872 787,-872"/>
<text text-anchor="start" x="790" y="-878.8" font-family="Times New Roman,serif" font-size="14.00">contribution_comments</text>
<polygon fill="none" stroke="black" points="926,-872 926,-893 1124,-893 1124,-872 926,-872"/>
<text text-anchor="start" x="989" y="-878.8" font-family="Times New Roman,serif" font-size="14.00">Optional[str]</text>
<polygon fill="none" stroke="black" points="787,-851 787,-872 926,-872 926,-851 787,-851"/>
<text text-anchor="start" x="809.5" y="-857.8" font-family="Times New Roman,serif" font-size="14.00">completion_date</text>
<polygon fill="none" stroke="black" points="926,-851 926,-872 1124,-872 1124,-851 926,-851"/>
<text text-anchor="start" x="984.5" y="-857.8" font-family="Times New Roman,serif" font-size="14.00">Optional[date]</text>
</a>
</g>
</g>
<!-- eya_def_tools.data_models.eya_def.EyaDefDocument&#45;&gt;eya_def_tools.data_models.general_metadata.ReportContributor -->
<g id="edge3" class="edge">
<title>eya_def_tools.data_models.eya_def.EyaDefDocument:e&#45;&gt;eya_def_tools.data_models.general_metadata.ReportContributor:w</title>
<path fill="none" stroke="black" d="M644,-810C731.1,-810 698,-944.56 767.25,-964.53"/>
<polygon fill="black" stroke="black" points="776.09,-965.7 785.41,-971.46 781.04,-966.35 786,-967 786,-967 786,-967 781.04,-966.35 786.59,-962.54 776.09,-965.7 776.09,-965.7"/>
<ellipse fill="none" stroke="black" cx="771.62" cy="-965.11" rx="4" ry="4"/>
</g>
<!-- eya_def_tools.data_models.reference_met_data.ReferenceMeteorologicalDataset -->
<g id="node4" class="node">
<title>eya_def_tools.data_models.reference_met_data.ReferenceMeteorologicalDataset</title>
<g id="a_node4"><a xlink:title="eya_def_tools.data_models.reference_met_data.ReferenceMeteorologicalDataset&#10;&#10;Metadata for a reference meteorological dataset.&#10;&#10;The schema describes a dataset at a single horizontal spatial&#10;location. Separate data model instances need to be used to describe&#10;data at different location from the same source dataset (e.g.&#10;different grid cells from a reanalysis dataset).&#10;&#10;Attributes:&#10; &#160;&#160;&#160;id (str): Unique ID for the reference meteorological dataset within the EYA DEF document.&#10; &#160;&#160;&#160;description (str): Description of the meteorological dataset.&#10; &#160;&#160;&#160;comments (Optional[str]): Optional comments on the meteorological dataset. Default is None.&#10; &#160;&#160;&#160;location (Location): The horizontal spatial location of the meteorological data.&#10;">
<polygon fill="none" stroke="black" points="851,-489 851,-510 1060,-510 1060,-489 851,-489"/>
<text text-anchor="start" x="854" y="-496.8" font-family="Times New Roman,serif" font-weight="bold" font-size="14.00">ReferenceMeteorologicalDataset</text>
<polygon fill="none" stroke="black" points="851,-468 851,-489 951,-489 951,-468 851,-468"/>
<text text-anchor="start" x="895.5" y="-474.8" font-family="Times New Roman,serif" font-size="14.00">id</text>
<polygon fill="none" stroke="black" points="951,-468 951,-489 1060,-489 1060,-468 951,-468"/>
<text text-anchor="start" x="998" y="-474.8" font-family="Times New Roman,serif" font-size="14.00">str</text>
<polygon fill="none" stroke="black" points="851,-447 851,-468 951,-468 951,-447 851,-447"/>
<text text-anchor="start" x="869.5" y="-453.8" font-family="Times New Roman,serif" font-size="14.00">description</text>
<polygon fill="none" stroke="black" points="951,-447 951,-468 1060,-468 1060,-447 951,-447"/>
<text text-anchor="start" x="998" y="-453.8" font-family="Times New Roman,serif" font-size="14.00">str</text>
<polygon fill="none" stroke="black" points="851,-426 851,-447 951,-447 951,-426 851,-426"/>
<text text-anchor="start" x="872" y="-432.8" font-family="Times New Roman,serif" font-size="14.00">comments</text>
<polygon fill="none" stroke="black" points="951,-426 951,-447 1060,-447 1060,-426 951,-426"/>
<text text-anchor="start" x="969.5" y="-432.8" font-family="Times New Roman,serif" font-size="14.00">Optional[str]</text>
<polygon fill="none" stroke="black" points="851,-405 851,-426 951,-426 951,-405 851,-405"/>
<text text-anchor="start" x="878.5" y="-411.8" font-family="Times New Roman,serif" font-size="14.00">location</text>
<polygon fill="none" stroke="black" points="951,-405 951,-426 1060,-426 1060,-405 951,-405"/>
<text text-anchor="start" x="980.5" y="-411.8" font-family="Times New Roman,serif" font-size="14.00">Location</text>
</a>
</g>
</g>
<!-- eya_def_tools.data_models.eya_def.EyaDefDocument&#45;&gt;eya_def_tools.data_models.reference_met_data.ReferenceMeteorologicalDataset -->
<g id="edge4" class="edge">
<title>eya_def_tools.data_models.eya_def.EyaDefDocument:e&#45;&gt;eya_def_tools.data_models.reference_met_data.ReferenceMeteorologicalDataset:w</title>
<path fill="none" stroke="black" d="M644,-642C713.47,-642 692.7,-565.19 752,-529 784.87,-508.95 799.79,-502.05 831.24,-500.42"/>
<polyline fill="none" stroke="black" points="850,-500 845,-500.11"/>
<polygon fill="black" stroke="black" points="843.89,-495.13 844.11,-505.13 842.11,-505.18 841.89,-495.18 843.89,-495.13"/>
<polyline fill="none" stroke="black" points="845,-500.11 840,-500.22"/>
<ellipse fill="none" stroke="black" cx="835.5" cy="-500.32" rx="4" ry="4"/>
</g>
<!-- eya_def_tools.data_models.reference_wind_farm.ReferenceWindFarm -->
<g id="node5" class="node">
<title>eya_def_tools.data_models.reference_wind_farm.ReferenceWindFarm</title>
<g id="a_node5"><a xlink:title="eya_def_tools.data_models.reference_wind_farm.ReferenceWindFarm&#10;&#10;Reference wind farm.&#10;&#10;Attributes:&#10; &#160;&#160;&#160;id (str): Unique ID for the reference wind farm within the EYA DEF document.&#10; &#160;&#160;&#160;description (Optional[str]): Optional description of the reference wind farm. Default is None.&#10; &#160;&#160;&#160;comments (Optional[str]): Optional comments on the reference wind farm. Default is None.&#10; &#160;&#160;&#160;wind_farm_configuration (WindFarmConfiguration): The configuration data for the reference wind farm.&#10; &#160;&#160;&#160;datasets (list[ReferenceWindFarmDataset]): Metadata for the operational dataset.&#10;">
<polygon fill="none" stroke="black" points="787,-652 787,-673 1124,-673 1124,-652 787,-652"/>
<text text-anchor="start" x="890.5" y="-659.8" font-family="Times New Roman,serif" font-weight="bold" font-size="14.00">ReferenceWindFarm</text>
<polygon fill="none" stroke="black" points="787,-631 787,-652 935,-652 935,-631 787,-631"/>
<text text-anchor="start" x="855.5" y="-637.8" font-family="Times New Roman,serif" font-size="14.00">id</text>
<polygon fill="none" stroke="black" points="935,-631 935,-652 1124,-652 1124,-631 935,-631"/>
<text text-anchor="start" x="1022" y="-637.8" font-family="Times New Roman,serif" font-size="14.00">str</text>
<polygon fill="none" stroke="black" points="787,-610 787,-631 935,-631 935,-610 787,-610"/>
<text text-anchor="start" x="829.5" y="-616.8" font-family="Times New Roman,serif" font-size="14.00">description</text>
<polygon fill="none" stroke="black" points="935,-610 935,-631 1124,-631 1124,-610 935,-610"/>
<text text-anchor="start" x="993.5" y="-616.8" font-family="Times New Roman,serif" font-size="14.00">Optional[str]</text>
<polygon fill="none" stroke="black" points="787,-589 787,-610 935,-610 935,-589 787,-589"/>
<text text-anchor="start" x="832" y="-595.8" font-family="Times New Roman,serif" font-size="14.00">comments</text>
<polygon fill="none" stroke="black" points="935,-589 935,-610 1124,-610 1124,-589 935,-589"/>
<text text-anchor="start" x="993.5" y="-595.8" font-family="Times New Roman,serif" font-size="14.00">Optional[str]</text>
<polygon fill="none" stroke="black" points="787,-568 787,-589 935,-589 935,-568 787,-568"/>
<text text-anchor="start" x="790" y="-574.8" font-family="Times New Roman,serif" font-size="14.00">wind_farm_configuration</text>
<polygon fill="none" stroke="black" points="935,-568 935,-589 1124,-589 1124,-568 935,-568"/>
<text text-anchor="start" x="961" y="-574.8" font-family="Times New Roman,serif" font-size="14.00">WindFarmConfiguration</text>
<polygon fill="none" stroke="black" points="787,-547 787,-568 935,-568 935,-547 787,-547"/>
<text text-anchor="start" x="838" y="-553.8" font-family="Times New Roman,serif" font-size="14.00">datasets</text>
<polygon fill="none" stroke="black" points="935,-547 935,-568 1124,-568 1124,-547 935,-547"/>
<text text-anchor="start" x="938" y="-553.8" font-family="Times New Roman,serif" font-size="14.00">list[ReferenceWindFarmDataset]</text>
</a>
</g>
</g>
<!-- eya_def_tools.data_models.eya_def.EyaDefDocument&#45;&gt;eya_def_tools.data_models.reference_wind_farm.ReferenceWindFarm -->
<g id="edge5" class="edge">
<title>eya_def_tools.data_models.eya_def.EyaDefDocument:e&#45;&gt;eya_def_tools.data_models.reference_wind_farm.ReferenceWindFarm:w</title>
<path fill="none" stroke="black" d="M644,-663C700.33,-663 718.95,-663 767.18,-663"/>
<polyline fill="none" stroke="black" points="786,-663 781,-663"/>
<polygon fill="black" stroke="black" points="780,-658 780,-668 778,-668 778,-658 780,-658"/>
<polyline fill="none" stroke="black" points="781,-663 776,-663"/>
<ellipse fill="none" stroke="black" cx="771.5" cy="-663" rx="4" ry="4"/>
</g>
<!-- eya_def_tools.data_models.scenario.Scenario -->
<g id="node6" class="node">
<title>eya_def_tools.data_models.scenario.Scenario</title>
<g id="a_node6"><a xlink:title="eya_def_tools.data_models.scenario.Scenario&#10;&#10;Single unique energy yield assessment scenario.&#10;&#10;Attributes:&#10; &#160;&#160;&#160;id (Optional[str]): Optional unique identifier of the scenario. Default is None.&#10; &#160;&#160;&#160;label (str): Label of the scenario.&#10; &#160;&#160;&#160;description (Optional[str]): Optional description of the scenario. Default is None.&#10; &#160;&#160;&#160;comments (Optional[str]): Optional comments on the scenario. Default is None.&#10; &#160;&#160;&#160;is_main_scenario (Optional[bool]): Whether or not this is the main scenario in the report. Default is None.&#10; &#160;&#160;&#160;operational_lifetime_length_years (float): Number of years of project operational lifetime.&#10; &#160;&#160;&#160;wind_farms (list[WindFarmConfiguration]): List of all wind farms included in the scenario.&#10; &#160;&#160;&#160;turbine_wind_resource_assessment (TurbineWindResourceAssessment): Wind resource assessment at the turbine locations.&#10; &#160;&#160;&#160;energy_assessment (EnergyAssessment): Energy assessment details and results, including gross energy, plant performance, net energy and uncertainties.&#10;">
<polygon fill="none" stroke="black" points="752,-207 752,-228 1158,-228 1158,-207 752,-207"/>
<text text-anchor="start" x="927.5" y="-214.8" font-family="Times New Roman,serif" font-weight="bold" font-size="14.00">Scenario</text>
<polygon fill="none" stroke="black" points="752,-186 752,-207 957,-207 957,-186 752,-186"/>
<text text-anchor="start" x="849" y="-192.8" font-family="Times New Roman,serif" font-size="14.00">id</text>
<polygon fill="none" stroke="black" points="957,-186 957,-207 1158,-207 1158,-186 957,-186"/>
<text text-anchor="start" x="1021.5" y="-192.8" font-family="Times New Roman,serif" font-size="14.00">Optional[str]</text>
<polygon fill="none" stroke="black" points="752,-165 752,-186 957,-186 957,-165 752,-165"/>
<text text-anchor="start" x="841.5" y="-171.8" font-family="Times New Roman,serif" font-size="14.00">label</text>
<polygon fill="none" stroke="black" points="957,-165 957,-186 1158,-186 1158,-165 957,-165"/>
<text text-anchor="start" x="1050" y="-171.8" font-family="Times New Roman,serif" font-size="14.00">str</text>
<polygon fill="none" stroke="black" points="752,-144 752,-165 957,-165 957,-144 752,-144"/>
<text text-anchor="start" x="823" y="-150.8" font-family="Times New Roman,serif" font-size="14.00">description</text>
<polygon fill="none" stroke="black" points="957,-144 957,-165 1158,-165 1158,-144 957,-144"/>
<text text-anchor="start" x="1021.5" y="-150.8" font-family="Times New Roman,serif" font-size="14.00">Optional[str]</text>
<polygon fill="none" stroke="black" points="752,-123 752,-144 957,-144 957,-123 752,-123"/>
<text text-anchor="start" x="825.5" y="-129.8" font-family="Times New Roman,serif" font-size="14.00">comments</text>
<polygon fill="none" stroke="black" points="957,-123 957,-144 1158,-144 1158,-123 957,-123"/>
<text text-anchor="start" x="1021.5" y="-129.8" font-family="Times New Roman,serif" font-size="14.00">Optional[str]</text>
<polygon fill="none" stroke="black" points="752,-102 752,-123 957,-123 957,-102 752,-102"/>
<text text-anchor="start" x="806" y="-108.8" font-family="Times New Roman,serif" font-size="14.00">is_main_scenario</text>
<polygon fill="none" stroke="black" points="957,-102 957,-123 1158,-123 1158,-102 957,-102"/>
<text text-anchor="start" x="1016" y="-108.8" font-family="Times New Roman,serif" font-size="14.00">Optional[bool]</text>
<polygon fill="none" stroke="black" points="752,-81 752,-102 957,-102 957,-81 752,-81"/>
<text text-anchor="start" x="761" y="-87.8" font-family="Times New Roman,serif" font-size="14.00">operational_lifetime_length_years</text>
<polygon fill="none" stroke="black" points="957,-81 957,-102 1158,-102 1158,-81 957,-81"/>
<text text-anchor="start" x="1045" y="-87.8" font-family="Times New Roman,serif" font-size="14.00">float</text>
<polygon fill="none" stroke="black" points="752,-60 752,-81 957,-81 957,-60 752,-60"/>
<text text-anchor="start" x="821" y="-66.8" font-family="Times New Roman,serif" font-size="14.00">wind_farms</text>
<polygon fill="none" stroke="black" points="957,-60 957,-81 1158,-81 1158,-60 957,-60"/>
<text text-anchor="start" x="976.5" y="-66.8" font-family="Times New Roman,serif" font-size="14.00">list[WindFarmConfiguration]</text>
<polygon fill="none" stroke="black" points="752,-39 752,-60 957,-60 957,-39 752,-39"/>
<text text-anchor="start" x="755" y="-45.8" font-family="Times New Roman,serif" font-size="14.00">turbine_wind_resource_assessment</text>
<polygon fill="none" stroke="black" points="957,-39 957,-60 1158,-60 1158,-39 957,-39"/>
<text text-anchor="start" x="960" y="-45.8" font-family="Times New Roman,serif" font-size="14.00">TurbineWindResourceAssessment</text>
<polygon fill="none" stroke="black" points="752,-18 752,-39 957,-39 957,-18 752,-18"/>
<text text-anchor="start" x="800.5" y="-24.8" font-family="Times New Roman,serif" font-size="14.00">energy_assessment</text>
<polygon fill="none" stroke="black" points="957,-18 957,-39 1158,-39 1158,-18 957,-18"/>
<text text-anchor="start" x="1004.5" y="-24.8" font-family="Times New Roman,serif" font-size="14.00">EnergyAssessment</text>
</a>
</g>
</g>
<!-- eya_def_tools.data_models.eya_def.EyaDefDocument&#45;&gt;eya_def_tools.data_models.scenario.Scenario -->
<g id="edge6" class="edge">
<title>eya_def_tools.data_models.eya_def.EyaDefDocument:e&#45;&gt;eya_def_tools.data_models.scenario.Scenario:w</title>
<path fill="none" stroke="black" d="M644,-579C804.6,-579 602.48,-247.01 733.33,-219.77"/>
<polyline fill="none" stroke="black" points="752,-218 747.02,-218.47"/>
<polygon fill="black" stroke="black" points="745.55,-213.59 746.5,-223.54 744.51,-223.73 743.56,-213.78 745.55,-213.59"/>
<polyline fill="none" stroke="black" points="747.02,-218.47 742.04,-218.94"/>
<ellipse fill="none" stroke="black" cx="737.56" cy="-219.37" rx="4" ry="4"/>
</g>
<!-- eya_def_tools.data_models.wind_resource.WindResourceAssessment -->
<g id="node7" class="node">
<title>eya_def_tools.data_models.wind_resource.WindResourceAssessment</title>
<g id="a_node7"><a xlink:title="eya_def_tools.data_models.wind_resource.WindResourceAssessment&#10;&#10;Wind resource assessment at the measurement location(s).&#10;&#10;Attributes:&#10; &#160;&#160;&#160;wind_resource_assessment_id (str): Unique ID of the wind resource assessment within the EYA DEF document.&#10; &#160;&#160;&#160;description (Optional[str]): Optional description of the wind resource assessment. Default is None.&#10; &#160;&#160;&#160;comments (Optional[str]): Optional comments on the wind resource assessment. Default is None.&#10; &#160;&#160;&#160;results (WindResourceResults): Results of the wind resource assessment at the measurement location(s).&#10;">
<polygon fill="none" stroke="black" points="800,-348 800,-369 1110,-369 1110,-348 800,-348"/>
<text text-anchor="start" x="874" y="-355.8" font-family="Times New Roman,serif" font-weight="bold" font-size="14.00">WindResourceAssessment</text>
<polygon fill="none" stroke="black" points="800,-327 800,-348 978,-348 978,-327 800,-327"/>
<text text-anchor="start" x="803" y="-333.8" font-family="Times New Roman,serif" font-size="14.00">wind_resource_assessment_id</text>
<polygon fill="none" stroke="black" points="978,-327 978,-348 1110,-348 1110,-327 978,-327"/>
<text text-anchor="start" x="1036.5" y="-333.8" font-family="Times New Roman,serif" font-size="14.00">str</text>
<polygon fill="none" stroke="black" points="800,-306 800,-327 978,-327 978,-306 800,-306"/>
<text text-anchor="start" x="857.5" y="-312.8" font-family="Times New Roman,serif" font-size="14.00">description</text>
<polygon fill="none" stroke="black" points="978,-306 978,-327 1110,-327 1110,-306 978,-306"/>
<text text-anchor="start" x="1008" y="-312.8" font-family="Times New Roman,serif" font-size="14.00">Optional[str]</text>
<polygon fill="none" stroke="black" points="800,-285 800,-306 978,-306 978,-285 800,-285"/>
<text text-anchor="start" x="860" y="-291.8" font-family="Times New Roman,serif" font-size="14.00">comments</text>
<polygon fill="none" stroke="black" points="978,-285 978,-306 1110,-306 1110,-285 978,-285"/>
<text text-anchor="start" x="1008" y="-291.8" font-family="Times New Roman,serif" font-size="14.00">Optional[str]</text>
<polygon fill="none" stroke="black" points="800,-264 800,-285 978,-285 978,-264 800,-264"/>
<text text-anchor="start" x="870.5" y="-270.8" font-family="Times New Roman,serif" font-size="14.00">results</text>
<polygon fill="none" stroke="black" points="978,-264 978,-285 1110,-285 1110,-264 978,-264"/>
<text text-anchor="start" x="981" y="-270.8" font-family="Times New Roman,serif" font-size="14.00">WindResourceResults</text>
</a>
</g>
</g>
<!-- eya_def_tools.data_models.eya_def.EyaDefDocument&#45;&gt;eya_def_tools.data_models.wind_resource.WindResourceAssessment -->
<g id="edge7" class="edge">
<title>eya_def_tools.data_models.eya_def.EyaDefDocument:e&#45;&gt;eya_def_tools.data_models.wind_resource.WindResourceAssessment:w</title>
<path fill="none" stroke="black" d="M644,-621C772.43,-621 674.8,-384.93 780.26,-360.96"/>
<polygon fill="black" stroke="black" points="789.05,-360.04 799.47,-363.48 794.03,-359.52 799,-359 799,-359 799,-359 794.03,-359.52 798.53,-354.52 789.05,-360.04 789.05,-360.04"/>
<ellipse fill="none" stroke="black" cx="784.58" cy="-360.51" rx="4" ry="4"/>
</g>
</g>
</svg>
