<?xml version="1.0" encoding="UTF-8" standalone="no"?>
<!DOCTYPE svg PUBLIC "-//W3C//DTD SVG 1.1//EN"
 "http://www.w3.org/Graphics/SVG/1.1/DTD/svg11.dtd">
<!-- Generated by graphviz version 7.0.4 (20221203.1631)
 -->
<!-- Title: Entity Relationship Diagram Pages: 1 -->
<svg width="990pt" height="1110pt"
 viewBox="0.00 0.00 990.00 1109.50" xmlns="http://www.w3.org/2000/svg" xmlns:xlink="http://www.w3.org/1999/xlink">
<g id="graph0" class="graph" transform="scale(1 1) rotate(0) translate(4 1105.5)">
<title>Entity Relationship Diagram</title>
<polygon fill="white" stroke="none" points="-4,4 -4,-1105.5 986,-1105.5 986,4 -4,4"/>
<text text-anchor="middle" x="491" y="-6.8" font-family="Times New Roman,serif" font-size="9.00" fill="#a8a8a8">Created by erdantic v0.5.0 &lt;https://github.com/drivendataorg/erdantic&gt;</text>
<!-- eya_def_tools.data_models.eya_def.EyaDefDocument -->
<g id="node1" class="node">
<title>eya_def_tools.data_models.eya_def.EyaDefDocument</title>
<g id="a_node1"><a xlink:title="eya_def_tools.data_models.eya_def.EyaDefDocument&#10;&#10;IEC 61400&#45;15&#45;2 EYA DEF top&#45;level data model.&#10;&#10;Attributes:&#10; &#160;&#160;&#160;uri (Optional[str]): URI of the EYA DEF JSON document. Default is None.&#10; &#160;&#160;&#160;uuid (Optional[UUID1, UUID3, UUID4, UUID5]): UUID of the EYA DEF JSON document. Default is None.&#10; &#160;&#160;&#160;title (str): Title of the energy yield assessment (EYA) report.&#10; &#160;&#160;&#160;description (Optional[str]): Description of the data object. Default is None.&#10; &#160;&#160;&#160;comments (Optional[str]): Comments on the data object. Default is None.&#10; &#160;&#160;&#160;project_name (str): Name of the project under assessment.&#10; &#160;&#160;&#160;project_country (Alpha2CountryCode(StrEnum)): The ISO 3166&#45;1 alpha&#45;2 two&#45;letter code of the country where the project under assessment is located.&#10; &#160;&#160;&#160;document_id (Optional[str]): The ID of the report document; not including the version when &#39;document_version&#39; is used. This will typically follow the convention of the document management system of the issuing organisation(s). Default is None.&#10; &#160;&#160;&#160;document_version (Optional[str]): Version of the report document, also known as revision. As with the &#39;document_id&#39;, this will typically follow the document versioning convention of the document management system of the issuing organisation(s). Default is None.&#10; &#160;&#160;&#160;issue_date (date): Report issue date in the ISO 8601 standard format for a calendar date, i.e. YYYY&#45;MM&#45;DD.&#10; &#160;&#160;&#160;contributors (list[ReportContributor]): List of report contributors (e.g. author and verifier)&#10; &#160;&#160;&#160;issuing_organisations (list[Organisation]): The organisation(s) issuing the report (e.g. consultant).&#10; &#160;&#160;&#160;receiving_organisations (Optional[list[Organisation]]): The organisation(s) receiving the report (e.g. client), if relevant. Default is None.&#10; &#160;&#160;&#160;contract_reference (Optional[str]): Reference to contract between the issuing and receiving organisations that governs the energy yield assessment (EYA) report document, if relevant. Default is None.&#10; &#160;&#160;&#160;confidentiality_classification (Optional[str]): Confidentiality classification of the report document, if relevant. Default is None.&#10; &#160;&#160;&#160;epsg_srid (int): EPSG Spatial Reference System Identifier (SRID) for the Coordinate Reference System (CRS) used for all spatial data (e.g. turbine locations) in the EYA DEF JSON document. All location coordinates must be reported in the same CRS, which must be one that has an EPSG code. If different CRSs are used the data must be converted to be consistent with the EPSG code specified here.&#10; &#160;&#160;&#160;measurement_stations (Optional[list[MeasurementStationMetadata]]): List of measurement station metadata JSON document(s) according to the IEA Task 43 WRA Data Model, for all station datasets used in the EYA. Default is None.&#10; &#160;&#160;&#160;reference_wind_farms (Optional[list[ReferenceWindFarm]]): List of reference operational wind farms used in the EYA. Default is None.&#10; &#160;&#160;&#160;reference_meteorological_datasets (Optional[list[ReferenceMeteorologicalDataset]]): List of reference meteorological datasets used in the EYA. Default is None.&#10; &#160;&#160;&#160;wind_resource_assessments (Optional[list[WindResourceAssessment]]): List of wind resource assessments, including results, at the measurement station locations. Default is None.&#10; &#160;&#160;&#160;turbine_models (Optional[list[TurbineModel]]): List of wind turbine model specifications. Default is None.&#10; &#160;&#160;&#160;scenarios (Optional[list[Scenario]]): List of energy yield assessment scenarios. Default is None.&#10;">
<polygon fill="none" stroke="black" points="0,-1080 0,-1101 468,-1101 468,-1080 0,-1080"/>
<text text-anchor="start" x="179.5" y="-1087.8" font-family="Times New Roman,serif" font-weight="bold" font-size="14.00">EyaDefDocument</text>
<polygon fill="none" stroke="black" points="0,-1059 0,-1080 199,-1080 199,-1059 0,-1059"/>
<text text-anchor="start" x="92" y="-1065.8" font-family="Times New Roman,serif" font-size="14.00">uri</text>
<polygon fill="none" stroke="black" points="199,-1059 199,-1080 468,-1080 468,-1059 199,-1059"/>
<text text-anchor="start" x="297.5" y="-1065.8" font-family="Times New Roman,serif" font-size="14.00">Optional[str]</text>
<polygon fill="none" stroke="black" points="0,-1038 0,-1059 199,-1059 199,-1038 0,-1038"/>
<text text-anchor="start" x="87" y="-1044.8" font-family="Times New Roman,serif" font-size="14.00">uuid</text>
<polygon fill="none" stroke="black" points="199,-1038 199,-1059 468,-1059 468,-1038 199,-1038"/>
<text text-anchor="start" x="212.5" y="-1044.8" font-family="Times New Roman,serif" font-size="14.00">Optional[UUID1, UUID3, UUID4, UUID5]</text>
<polygon fill="none" stroke="black" points="0,-1017 0,-1038 199,-1038 199,-1017 0,-1017"/>
<text text-anchor="start" x="89.5" y="-1023.8" font-family="Times New Roman,serif" font-size="14.00">title</text>
<polygon fill="none" stroke="black" points="199,-1017 199,-1038 468,-1038 468,-1017 199,-1017"/>
<text text-anchor="start" x="326" y="-1023.8" font-family="Times New Roman,serif" font-size="14.00">str</text>
<polygon fill="none" stroke="black" points="0,-996 0,-1017 199,-1017 199,-996 0,-996"/>
<text text-anchor="start" x="68" y="-1002.8" font-family="Times New Roman,serif" font-size="14.00">description</text>
<polygon fill="none" stroke="black" points="199,-996 199,-1017 468,-1017 468,-996 199,-996"/>
<text text-anchor="start" x="297.5" y="-1002.8" font-family="Times New Roman,serif" font-size="14.00">Optional[str]</text>
<polygon fill="none" stroke="black" points="0,-975 0,-996 199,-996 199,-975 0,-975"/>
<text text-anchor="start" x="70.5" y="-981.8" font-family="Times New Roman,serif" font-size="14.00">comments</text>
<polygon fill="none" stroke="black" points="199,-975 199,-996 468,-996 468,-975 199,-975"/>
<text text-anchor="start" x="297.5" y="-981.8" font-family="Times New Roman,serif" font-size="14.00">Optional[str]</text>
<polygon fill="none" stroke="black" points="0,-954 0,-975 199,-975 199,-954 0,-954"/>
<text text-anchor="start" x="61.5" y="-960.8" font-family="Times New Roman,serif" font-size="14.00">project_name</text>
<polygon fill="none" stroke="black" points="199,-954 199,-975 468,-975 468,-954 199,-954"/>
<text text-anchor="start" x="326" y="-960.8" font-family="Times New Roman,serif" font-size="14.00">str</text>
<polygon fill="none" stroke="black" points="0,-933 0,-954 199,-954 199,-933 0,-933"/>
<text text-anchor="start" x="54.5" y="-939.8" font-family="Times New Roman,serif" font-size="14.00">project_country</text>
<polygon fill="none" stroke="black" points="199,-933 199,-954 468,-954 468,-933 199,-933"/>
<text text-anchor="start" x="246" y="-939.8" font-family="Times New Roman,serif" font-size="14.00">Alpha2CountryCode(StrEnum)</text>
<polygon fill="none" stroke="black" points="0,-912 0,-933 199,-933 199,-912 0,-912"/>
<text text-anchor="start" x="62.5" y="-918.8" font-family="Times New Roman,serif" font-size="14.00">document_id</text>
<polygon fill="none" stroke="black" points="199,-912 199,-933 468,-933 468,-912 199,-912"/>
<text text-anchor="start" x="297.5" y="-918.8" font-family="Times New Roman,serif" font-size="14.00">Optional[str]</text>
<polygon fill="none" stroke="black" points="0,-891 0,-912 199,-912 199,-891 0,-891"/>
<text text-anchor="start" x="47.5" y="-897.8" font-family="Times New Roman,serif" font-size="14.00">document_version</text>
<polygon fill="none" stroke="black" points="199,-891 199,-912 468,-912 468,-891 199,-891"/>
<text text-anchor="start" x="297.5" y="-897.8" font-family="Times New Roman,serif" font-size="14.00">Optional[str]</text>
<polygon fill="none" stroke="black" points="0,-870 0,-891 199,-891 199,-870 0,-870"/>
<text text-anchor="start" x="70" y="-876.8" font-family="Times New Roman,serif" font-size="14.00">issue_date</text>
<polygon fill="none" stroke="black" points="199,-870 199,-891 468,-891 468,-870 199,-870"/>
<text text-anchor="start" x="321.5" y="-876.8" font-family="Times New Roman,serif" font-size="14.00">date</text>
<polygon fill="none" stroke="black" points="0,-849 0,-870 199,-870 199,-849 0,-849"/>
<text text-anchor="start" x="65" y="-855.8" font-family="Times New Roman,serif" font-size="14.00">contributors</text>
<polygon fill="none" stroke="black" points="199,-849 199,-870 468,-870 468,-849 199,-849"/>
<text text-anchor="start" x="268.5" y="-855.8" font-family="Times New Roman,serif" font-size="14.00">list[ReportContributor]</text>
<polygon fill="none" stroke="black" points="0,-828 0,-849 199,-849 199,-828 0,-828"/>
<text text-anchor="start" x="39.5" y="-834.8" font-family="Times New Roman,serif" font-size="14.00">issuing_organisations</text>
<polygon fill="none" stroke="black" points="199,-828 199,-849 468,-849 468,-828 199,-828"/>
<text text-anchor="start" x="285.5" y="-834.8" font-family="Times New Roman,serif" font-size="14.00">list[Organisation]</text>
<polygon fill="none" stroke="black" points="0,-807 0,-828 199,-828 199,-807 0,-807"/>
<text text-anchor="start" x="34" y="-813.8" font-family="Times New Roman,serif" font-size="14.00">receiving_organisations</text>
<polygon fill="none" stroke="black" points="199,-807 199,-828 468,-828 468,-807 199,-807"/>
<text text-anchor="start" x="257" y="-813.8" font-family="Times New Roman,serif" font-size="14.00">Optional[list[Organisation]]</text>
<polygon fill="none" stroke="black" points="0,-786 0,-807 199,-807 199,-786 0,-786"/>
<text text-anchor="start" x="47" y="-792.8" font-family="Times New Roman,serif" font-size="14.00">contract_reference</text>
<polygon fill="none" stroke="black" points="199,-786 199,-807 468,-807 468,-786 199,-786"/>
<text text-anchor="start" x="297.5" y="-792.8" font-family="Times New Roman,serif" font-size="14.00">Optional[str]</text>
<polygon fill="none" stroke="black" points="0,-765 0,-786 199,-786 199,-765 0,-765"/>
<text text-anchor="start" x="20.5" y="-771.8" font-family="Times New Roman,serif" font-size="14.00">confidentiality_classification</text>
<polygon fill="none" stroke="black" points="199,-765 199,-786 468,-786 468,-765 199,-765"/>
<text text-anchor="start" x="297.5" y="-771.8" font-family="Times New Roman,serif" font-size="14.00">Optional[str]</text>
<polygon fill="none" stroke="black" points="0,-744 0,-765 199,-765 199,-744 0,-744"/>
<text text-anchor="start" x="72" y="-750.8" font-family="Times New Roman,serif" font-size="14.00">epsg_srid</text>
<polygon fill="none" stroke="black" points="199,-744 199,-765 468,-765 468,-744 199,-744"/>
<text text-anchor="start" x="326.5" y="-750.8" font-family="Times New Roman,serif" font-size="14.00">int</text>
<polygon fill="none" stroke="black" points="0,-723 0,-744 199,-744 199,-723 0,-723"/>
<text text-anchor="start" x="37.5" y="-729.8" font-family="Times New Roman,serif" font-size="14.00">measurement_stations</text>
<polygon fill="none" stroke="black" points="199,-723 199,-744 468,-744 468,-723 199,-723"/>
<text text-anchor="start" x="210" y="-729.8" font-family="Times New Roman,serif" font-size="14.00">Optional[list[MeasurementStationMetadata]]</text>
<polygon fill="none" stroke="black" points="0,-702 0,-723 199,-723 199,-702 0,-702"/>
<text text-anchor="start" x="37" y="-708.8" font-family="Times New Roman,serif" font-size="14.00">reference_wind_farms</text>
<polygon fill="none" stroke="black" points="199,-702 199,-723 468,-723 468,-702 199,-702"/>
<text text-anchor="start" x="234" y="-708.8" font-family="Times New Roman,serif" font-size="14.00">Optional[list[ReferenceWindFarm]]</text>
<polygon fill="none" stroke="black" points="0,-681 0,-702 199,-702 199,-681 0,-681"/>
<text text-anchor="start" x="3" y="-687.8" font-family="Times New Roman,serif" font-size="14.00">reference_meteorological_datasets</text>
<polygon fill="none" stroke="black" points="199,-681 199,-702 468,-702 468,-681 199,-681"/>
<text text-anchor="start" x="202" y="-687.8" font-family="Times New Roman,serif" font-size="14.00">Optional[list[ReferenceMeteorologicalDataset]]</text>
<polygon fill="none" stroke="black" points="0,-660 0,-681 199,-681 199,-660 0,-660"/>
<text text-anchor="start" x="19.5" y="-666.8" font-family="Times New Roman,serif" font-size="14.00">wind_resource_assessments</text>
<polygon fill="none" stroke="black" points="199,-660 199,-681 468,-681 468,-660 199,-660"/>
<text text-anchor="start" x="217" y="-666.8" font-family="Times New Roman,serif" font-size="14.00">Optional[list[WindResourceAssessment]]</text>
<polygon fill="none" stroke="black" points="0,-639 0,-660 199,-660 199,-639 0,-639"/>
<text text-anchor="start" x="56" y="-645.8" font-family="Times New Roman,serif" font-size="14.00">turbine_models</text>
<polygon fill="none" stroke="black" points="199,-639 199,-660 468,-660 468,-639 199,-639"/>
<text text-anchor="start" x="252.5" y="-645.8" font-family="Times New Roman,serif" font-size="14.00">Optional[list[TurbineModel]]</text>
<polygon fill="none" stroke="black" points="0,-618 0,-639 199,-639 199,-618 0,-618"/>
<text text-anchor="start" x="73" y="-624.8" font-family="Times New Roman,serif" font-size="14.00">scenarios</text>
<polygon fill="none" stroke="black" points="199,-618 199,-639 468,-639 468,-618 199,-618"/>
<text text-anchor="start" x="268" y="-624.8" font-family="Times New Roman,serif" font-size="14.00">Optional[list[Scenario]]</text>
</a>
</g>
</g>
<!-- eya_def_tools.data_models.reference_met_data.ReferenceMeteorologicalDataset -->
<g id="node2" class="node">
<title>eya_def_tools.data_models.reference_met_data.ReferenceMeteorologicalDataset</title>
<g id="a_node2"><a xlink:title="eya_def_tools.data_models.reference_met_data.ReferenceMeteorologicalDataset&#10;&#10;Metadata for a reference meteorological dataset.&#10;&#10;The schema describes a dataset at a single horizontal spatial&#10;location. Separate data model instances need to be used to describe&#10;data at different location from the same source dataset (e.g.&#10;different grid cells from a reanalysis dataset).&#10;&#10;Attributes:&#10; &#160;&#160;&#160;reference_meteorological_dataset_id (str): Unique ID for the reference meteorological dataset within the EYA DEF document.&#10; &#160;&#160;&#160;description (Optional[str]): Description of the data object. Default is None.&#10; &#160;&#160;&#160;comments (Optional[str]): Comments on the data object. Default is None.&#10; &#160;&#160;&#160;location (Location): The horizontal spatial location of the meteorological data.&#10;">
<polygon fill="none" stroke="black" points="635,-609 635,-630 924,-630 924,-609 635,-609"/>
<text text-anchor="start" x="678" y="-616.8" font-family="Times New Roman,serif" font-weight="bold" font-size="14.00">ReferenceMeteorologicalDataset</text>
<polygon fill="none" stroke="black" points="635,-588 635,-609 846,-609 846,-588 635,-588"/>
<text text-anchor="start" x="638" y="-594.8" font-family="Times New Roman,serif" font-size="14.00">reference_meteorological_dataset_id</text>
<polygon fill="none" stroke="black" points="846,-588 846,-609 924,-609 924,-588 846,-588"/>
<text text-anchor="start" x="877.5" y="-594.8" font-family="Times New Roman,serif" font-size="14.00">str</text>
<polygon fill="none" stroke="black" points="635,-567 635,-588 846,-588 846,-567 635,-567"/>
<text text-anchor="start" x="709" y="-573.8" font-family="Times New Roman,serif" font-size="14.00">description</text>
<polygon fill="none" stroke="black" points="846,-567 846,-588 924,-588 924,-567 846,-567"/>
<text text-anchor="start" x="849" y="-573.8" font-family="Times New Roman,serif" font-size="14.00">Optional[str]</text>
<polygon fill="none" stroke="black" points="635,-546 635,-567 846,-567 846,-546 635,-546"/>
<text text-anchor="start" x="711.5" y="-552.8" font-family="Times New Roman,serif" font-size="14.00">comments</text>
<polygon fill="none" stroke="black" points="846,-546 846,-567 924,-567 924,-546 846,-546"/>
<text text-anchor="start" x="849" y="-552.8" font-family="Times New Roman,serif" font-size="14.00">Optional[str]</text>
<polygon fill="none" stroke="black" points="635,-525 635,-546 846,-546 846,-525 635,-525"/>
<text text-anchor="start" x="718" y="-531.8" font-family="Times New Roman,serif" font-size="14.00">location</text>
<polygon fill="none" stroke="black" points="846,-525 846,-546 924,-546 924,-525 846,-525"/>
<text text-anchor="start" x="860" y="-531.8" font-family="Times New Roman,serif" font-size="14.00">Location</text>
</a>
</g>
</g>
<!-- eya_def_tools.data_models.eya_def.EyaDefDocument&#45;&gt;eya_def_tools.data_models.reference_met_data.ReferenceMeteorologicalDataset -->
<g id="edge1" class="edge">
<title>eya_def_tools.data_models.eya_def.EyaDefDocument:e&#45;&gt;eya_def_tools.data_models.reference_met_data.ReferenceMeteorologicalDataset:w</title>
<path fill="none" stroke="black" d="M468,-691C541.5,-691 552.3,-631.42 615.28,-621.42"/>
<polygon fill="black" stroke="black" points="624.03,-620.76 634.34,-624.49 629.01,-620.38 634,-620 634,-620 634,-620 629.01,-620.38 633.66,-615.51 624.03,-620.76 624.03,-620.76"/>
<ellipse fill="none" stroke="black" cx="619.54" cy="-621.1" rx="4" ry="4"/>
</g>
<!-- eya_def_tools.data_models.reference_wind_farm.ReferenceWindFarm -->
<g id="node3" class="node">
<title>eya_def_tools.data_models.reference_wind_farm.ReferenceWindFarm</title>
<g id="a_node3"><a xlink:title="eya_def_tools.data_models.reference_wind_farm.ReferenceWindFarm&#10;&#10;Reference wind farm metadata.&#10;&#10;Attributes:&#10; &#160;&#160;&#160;reference_wind_farm_id (str): Unique ID for the reference wind farm within the EYA DEF document.&#10; &#160;&#160;&#160;description (Optional[str]): Description of the data object. Default is None.&#10; &#160;&#160;&#160;comments (Optional[str]): Comments on the data object. Default is None.&#10; &#160;&#160;&#160;wind_farm_configuration (WindFarmConfiguration): The configuration data for the reference wind farm.&#10; &#160;&#160;&#160;datasets (list[ReferenceWindFarmDataset]): Metadata for the operational dataset.&#10;">
<polygon fill="none" stroke="black" points="611,-772 611,-793 948,-793 948,-772 611,-772"/>
<text text-anchor="start" x="714.5" y="-779.8" font-family="Times New Roman,serif" font-weight="bold" font-size="14.00">ReferenceWindFarm</text>
<polygon fill="none" stroke="black" points="611,-751 611,-772 759,-772 759,-751 611,-751"/>
<text text-anchor="start" x="616.5" y="-757.8" font-family="Times New Roman,serif" font-size="14.00">reference_wind_farm_id</text>
<polygon fill="none" stroke="black" points="759,-751 759,-772 948,-772 948,-751 759,-751"/>
<text text-anchor="start" x="846" y="-757.8" font-family="Times New Roman,serif" font-size="14.00">str</text>
<polygon fill="none" stroke="black" points="611,-730 611,-751 759,-751 759,-730 611,-730"/>
<text text-anchor="start" x="653.5" y="-736.8" font-family="Times New Roman,serif" font-size="14.00">description</text>
<polygon fill="none" stroke="black" points="759,-730 759,-751 948,-751 948,-730 759,-730"/>
<text text-anchor="start" x="817.5" y="-736.8" font-family="Times New Roman,serif" font-size="14.00">Optional[str]</text>
<polygon fill="none" stroke="black" points="611,-709 611,-730 759,-730 759,-709 611,-709"/>
<text text-anchor="start" x="656" y="-715.8" font-family="Times New Roman,serif" font-size="14.00">comments</text>
<polygon fill="none" stroke="black" points="759,-709 759,-730 948,-730 948,-709 759,-709"/>
<text text-anchor="start" x="817.5" y="-715.8" font-family="Times New Roman,serif" font-size="14.00">Optional[str]</text>
<polygon fill="none" stroke="black" points="611,-688 611,-709 759,-709 759,-688 611,-688"/>
<text text-anchor="start" x="614" y="-694.8" font-family="Times New Roman,serif" font-size="14.00">wind_farm_configuration</text>
<polygon fill="none" stroke="black" points="759,-688 759,-709 948,-709 948,-688 759,-688"/>
<text text-anchor="start" x="785" y="-694.8" font-family="Times New Roman,serif" font-size="14.00">WindFarmConfiguration</text>
<polygon fill="none" stroke="black" points="611,-667 611,-688 759,-688 759,-667 611,-667"/>
<text text-anchor="start" x="662" y="-673.8" font-family="Times New Roman,serif" font-size="14.00">datasets</text>
<polygon fill="none" stroke="black" points="759,-667 759,-688 948,-688 948,-667 759,-667"/>
<text text-anchor="start" x="762" y="-673.8" font-family="Times New Roman,serif" font-size="14.00">list[ReferenceWindFarmDataset]</text>
</a>
</g>
</g>
<!-- eya_def_tools.data_models.eya_def.EyaDefDocument&#45;&gt;eya_def_tools.data_models.reference_wind_farm.ReferenceWindFarm -->
<g id="edge2" class="edge">
<title>eya_def_tools.data_models.eya_def.EyaDefDocument:e&#45;&gt;eya_def_tools.data_models.reference_wind_farm.ReferenceWindFarm:w</title>
<path fill="none" stroke="black" d="M468,-712C531.67,-712 538.6,-769.81 591.19,-781.1"/>
<polygon fill="black" stroke="black" points="600.05,-782 609.55,-787.48 605.03,-782.5 610,-783 610,-783 610,-783 605.03,-782.5 610.45,-778.52 600.05,-782 600.05,-782"/>
<ellipse fill="none" stroke="black" cx="595.57" cy="-781.54" rx="4" ry="4"/>
</g>
<!-- eya_def_tools.data_models.report_metadata.Organisation -->
<g id="node4" class="node">
<title>eya_def_tools.data_models.report_metadata.Organisation</title>
<g id="a_node4"><a xlink:title="eya_def_tools.data_models.report_metadata.Organisation&#10;&#10;Issuing or receiving organisation of an energy yield assessment.&#10;&#10;Attributes:&#10; &#160;&#160;&#160;name (str): Entity name of the organisation.&#10; &#160;&#160;&#160;abbreviation (Optional[str]): Abbreviated name of the organisation. Default is None.&#10; &#160;&#160;&#160;address (Optional[str]): Address of the organisation. Default is None.&#10; &#160;&#160;&#160;contact_name (Optional[str]): Name(s) of contact person(s) in the organisation. Default is None.&#10;">
<polygon fill="none" stroke="black" points="698,-913 698,-934 861,-934 861,-913 698,-913"/>
<text text-anchor="start" x="739" y="-920.8" font-family="Times New Roman,serif" font-weight="bold" font-size="14.00">Organisation</text>
<polygon fill="none" stroke="black" points="698,-892 698,-913 783,-913 783,-892 698,-892"/>
<text text-anchor="start" x="725.5" y="-898.8" font-family="Times New Roman,serif" font-size="14.00">name</text>
<polygon fill="none" stroke="black" points="783,-892 783,-913 861,-913 861,-892 783,-892"/>
<text text-anchor="start" x="814.5" y="-898.8" font-family="Times New Roman,serif" font-size="14.00">str</text>
<polygon fill="none" stroke="black" points="698,-871 698,-892 783,-892 783,-871 698,-871"/>
<text text-anchor="start" x="706" y="-877.8" font-family="Times New Roman,serif" font-size="14.00">abbreviation</text>
<polygon fill="none" stroke="black" points="783,-871 783,-892 861,-892 861,-871 783,-871"/>
<text text-anchor="start" x="786" y="-877.8" font-family="Times New Roman,serif" font-size="14.00">Optional[str]</text>
<polygon fill="none" stroke="black" points="698,-850 698,-871 783,-871 783,-850 698,-850"/>
<text text-anchor="start" x="718.5" y="-856.8" font-family="Times New Roman,serif" font-size="14.00">address</text>
<polygon fill="none" stroke="black" points="783,-850 783,-871 861,-871 861,-850 783,-850"/>
<text text-anchor="start" x="786" y="-856.8" font-family="Times New Roman,serif" font-size="14.00">Optional[str]</text>
<polygon fill="none" stroke="black" points="698,-829 698,-850 783,-850 783,-829 698,-829"/>
<text text-anchor="start" x="701" y="-835.8" font-family="Times New Roman,serif" font-size="14.00">contact_name</text>
<polygon fill="none" stroke="black" points="783,-829 783,-850 861,-850 861,-829 783,-829"/>
<text text-anchor="start" x="786" y="-835.8" font-family="Times New Roman,serif" font-size="14.00">Optional[str]</text>
</a>
</g>
</g>
<!-- eya_def_tools.data_models.eya_def.EyaDefDocument&#45;&gt;eya_def_tools.data_models.report_metadata.Organisation -->
<g id="edge3" class="edge">
<title>eya_def_tools.data_models.eya_def.EyaDefDocument:e&#45;&gt;eya_def_tools.data_models.report_metadata.Organisation:w</title>
<path fill="none" stroke="black" d="M468,-838C570.14,-838 586.53,-913.9 678.28,-923.09"/>
<polygon fill="black" stroke="black" points="687.01,-923.52 696.78,-928.49 692.01,-923.76 697,-924 697,-924 697,-924 692.01,-923.76 697.22,-919.51 687.01,-923.52 687.01,-923.52"/>
<ellipse fill="none" stroke="black" cx="682.52" cy="-923.3" rx="4" ry="4"/>
</g>
<!-- eya_def_tools.data_models.eya_def.EyaDefDocument&#45;&gt;eya_def_tools.data_models.report_metadata.Organisation -->
<g id="edge4" class="edge">
<title>eya_def_tools.data_models.eya_def.EyaDefDocument:e&#45;&gt;eya_def_tools.data_models.report_metadata.Organisation:w</title>
<path fill="none" stroke="black" d="M468,-817C573.76,-817 583.78,-911.83 678.32,-922.94"/>
<polygon fill="black" stroke="black" points="687.02,-923.43 696.75,-928.49 692.01,-923.72 697,-924 697,-924 697,-924 692.01,-923.72 697.25,-919.51 687.02,-923.43 687.02,-923.43"/>
<ellipse fill="none" stroke="black" cx="682.52" cy="-923.18" rx="4" ry="4"/>
</g>
<!-- eya_def_tools.data_models.report_metadata.ReportContributor -->
<g id="node5" class="node">
<title>eya_def_tools.data_models.report_metadata.ReportContributor</title>
<g id="a_node5"><a xlink:title="eya_def_tools.data_models.report_metadata.ReportContributor&#10;&#10;Contributor to an energy yield assessment.&#10;&#10;Attributes:&#10; &#160;&#160;&#160;name (str): Name of the contributor.&#10; &#160;&#160;&#160;email_address (Optional[EmailStr]): Email address of the contributor. Default is None.&#10; &#160;&#160;&#160;contributor_type (ReportContributorType(StrEnum)): Type of contributor.&#10; &#160;&#160;&#160;contribution_comments (Optional[str]): Comments to clarify contribution. Default is None.&#10; &#160;&#160;&#160;completion_date (Optional[date]): Contribution completion date (format YYYY&#45;MM&#45;DD). Default is None.&#10;">
<polygon fill="none" stroke="black" points="611,-1076 611,-1097 948,-1097 948,-1076 611,-1076"/>
<text text-anchor="start" x="721.5" y="-1083.8" font-family="Times New Roman,serif" font-weight="bold" font-size="14.00">ReportContributor</text>
<polygon fill="none" stroke="black" points="611,-1055 611,-1076 750,-1076 750,-1055 611,-1055"/>
<text text-anchor="start" x="665.5" y="-1061.8" font-family="Times New Roman,serif" font-size="14.00">name</text>
<polygon fill="none" stroke="black" points="750,-1055 750,-1076 948,-1076 948,-1055 750,-1055"/>
<text text-anchor="start" x="841.5" y="-1061.8" font-family="Times New Roman,serif" font-size="14.00">str</text>
<polygon fill="none" stroke="black" points="611,-1034 611,-1055 750,-1055 750,-1034 611,-1034"/>
<text text-anchor="start" x="640.5" y="-1040.8" font-family="Times New Roman,serif" font-size="14.00">email_address</text>
<polygon fill="none" stroke="black" points="750,-1034 750,-1055 948,-1055 948,-1034 750,-1034"/>
<text text-anchor="start" x="796.5" y="-1040.8" font-family="Times New Roman,serif" font-size="14.00">Optional[EmailStr]</text>
<polygon fill="none" stroke="black" points="611,-1013 611,-1034 750,-1034 750,-1013 611,-1013"/>
<text text-anchor="start" x="633.5" y="-1019.8" font-family="Times New Roman,serif" font-size="14.00">contributor_type</text>
<polygon fill="none" stroke="black" points="750,-1013 750,-1034 948,-1034 948,-1013 750,-1013"/>
<text text-anchor="start" x="753" y="-1019.8" font-family="Times New Roman,serif" font-size="14.00">ReportContributorType(StrEnum)</text>
<polygon fill="none" stroke="black" points="611,-992 611,-1013 750,-1013 750,-992 611,-992"/>
<text text-anchor="start" x="614" y="-998.8" font-family="Times New Roman,serif" font-size="14.00">contribution_comments</text>
<polygon fill="none" stroke="black" points="750,-992 750,-1013 948,-1013 948,-992 750,-992"/>
<text text-anchor="start" x="813" y="-998.8" font-family="Times New Roman,serif" font-size="14.00">Optional[str]</text>
<polygon fill="none" stroke="black" points="611,-971 611,-992 750,-992 750,-971 611,-971"/>
<text text-anchor="start" x="633.5" y="-977.8" font-family="Times New Roman,serif" font-size="14.00">completion_date</text>
<polygon fill="none" stroke="black" points="750,-971 750,-992 948,-992 948,-971 750,-971"/>
<text text-anchor="start" x="808.5" y="-977.8" font-family="Times New Roman,serif" font-size="14.00">Optional[date]</text>
</a>
</g>
</g>
<!-- eya_def_tools.data_models.eya_def.EyaDefDocument&#45;&gt;eya_def_tools.data_models.report_metadata.ReportContributor -->
<g id="edge5" class="edge">
<title>eya_def_tools.data_models.eya_def.EyaDefDocument:e&#45;&gt;eya_def_tools.data_models.report_metadata.ReportContributor:w</title>
<path fill="none" stroke="black" d="M468,-859C580.38,-859 501.22,-1061.06 591.15,-1084.74"/>
<polygon fill="black" stroke="black" points="600.07,-1085.81 609.46,-1091.47 605.04,-1086.41 610,-1087 610,-1087 610,-1087 605.04,-1086.41 610.54,-1082.53 600.07,-1085.81 600.07,-1085.81"/>
<ellipse fill="none" stroke="black" cx="595.6" cy="-1085.28" rx="4" ry="4"/>
</g>
<!-- eya_def_tools.data_models.scenario.Scenario -->
<g id="node6" class="node">
<title>eya_def_tools.data_models.scenario.Scenario</title>
<g id="a_node6"><a xlink:title="eya_def_tools.data_models.scenario.Scenario&#10;&#10;Single unique energy yield assessment scenario.&#10;&#10;Attributes:&#10; &#160;&#160;&#160;scenario_id (Optional[str]): Unique identifier of the scenario. Default is None.&#10; &#160;&#160;&#160;label (str): Label of the scenario.&#10; &#160;&#160;&#160;description (Optional[str]): Description of the data object. Default is None.&#10; &#160;&#160;&#160;comments (Optional[str]): Comments on the data object. Default is None.&#10; &#160;&#160;&#160;is_main_scenario (Optional[bool]): Whether or not this is the main scenario in the report. Default is None.&#10; &#160;&#160;&#160;operational_lifetime_length_years (ConstrainedFloatValue): Number of years of project operational lifetime.&#10; &#160;&#160;&#160;wind_farms (list[WindFarmConfiguration]): List of all wind farms included in the scenario.&#10; &#160;&#160;&#160;turbine_wind_resource_assessment (TurbineWindResourceAssessment): Wind resource assessment at the turbine locations.&#10; &#160;&#160;&#160;energy_assessment (EnergyAssessment): Energy assessment details and results, including gross energy, plant performance, net energy and uncertainties.&#10;">
<polygon fill="none" stroke="black" points="576,-207 576,-228 982,-228 982,-207 576,-207"/>
<text text-anchor="start" x="751.5" y="-214.8" font-family="Times New Roman,serif" font-weight="bold" font-size="14.00">Scenario</text>
<polygon fill="none" stroke="black" points="576,-186 576,-207 781,-207 781,-186 576,-186"/>
<text text-anchor="start" x="646" y="-192.8" font-family="Times New Roman,serif" font-size="14.00">scenario_id</text>
<polygon fill="none" stroke="black" points="781,-186 781,-207 982,-207 982,-186 781,-186"/>
<text text-anchor="start" x="845.5" y="-192.8" font-family="Times New Roman,serif" font-size="14.00">Optional[str]</text>
<polygon fill="none" stroke="black" points="576,-165 576,-186 781,-186 781,-165 576,-165"/>
<text text-anchor="start" x="665.5" y="-171.8" font-family="Times New Roman,serif" font-size="14.00">label</text>
<polygon fill="none" stroke="black" points="781,-165 781,-186 982,-186 982,-165 781,-165"/>
<text text-anchor="start" x="874" y="-171.8" font-family="Times New Roman,serif" font-size="14.00">str</text>
<polygon fill="none" stroke="black" points="576,-144 576,-165 781,-165 781,-144 576,-144"/>
<text text-anchor="start" x="647" y="-150.8" font-family="Times New Roman,serif" font-size="14.00">description</text>
<polygon fill="none" stroke="black" points="781,-144 781,-165 982,-165 982,-144 781,-144"/>
<text text-anchor="start" x="845.5" y="-150.8" font-family="Times New Roman,serif" font-size="14.00">Optional[str]</text>
<polygon fill="none" stroke="black" points="576,-123 576,-144 781,-144 781,-123 576,-123"/>
<text text-anchor="start" x="649.5" y="-129.8" font-family="Times New Roman,serif" font-size="14.00">comments</text>
<polygon fill="none" stroke="black" points="781,-123 781,-144 982,-144 982,-123 781,-123"/>
<text text-anchor="start" x="845.5" y="-129.8" font-family="Times New Roman,serif" font-size="14.00">Optional[str]</text>
<polygon fill="none" stroke="black" points="576,-102 576,-123 781,-123 781,-102 576,-102"/>
<text text-anchor="start" x="630" y="-108.8" font-family="Times New Roman,serif" font-size="14.00">is_main_scenario</text>
<polygon fill="none" stroke="black" points="781,-102 781,-123 982,-123 982,-102 781,-102"/>
<text text-anchor="start" x="840" y="-108.8" font-family="Times New Roman,serif" font-size="14.00">Optional[bool]</text>
<polygon fill="none" stroke="black" points="576,-81 576,-102 781,-102 781,-81 576,-81"/>
<text text-anchor="start" x="585" y="-87.8" font-family="Times New Roman,serif" font-size="14.00">operational_lifetime_length_years</text>
<polygon fill="none" stroke="black" points="781,-81 781,-102 982,-102 982,-81 781,-81"/>
<text text-anchor="start" x="817.5" y="-87.8" font-family="Times New Roman,serif" font-size="14.00">ConstrainedFloatValue</text>
<polygon fill="none" stroke="black" points="576,-60 576,-81 781,-81 781,-60 576,-60"/>
<text text-anchor="start" x="645" y="-66.8" font-family="Times New Roman,serif" font-size="14.00">wind_farms</text>
<polygon fill="none" stroke="black" points="781,-60 781,-81 982,-81 982,-60 781,-60"/>
<text text-anchor="start" x="800.5" y="-66.8" font-family="Times New Roman,serif" font-size="14.00">list[WindFarmConfiguration]</text>
<polygon fill="none" stroke="black" points="576,-39 576,-60 781,-60 781,-39 576,-39"/>
<text text-anchor="start" x="579" y="-45.8" font-family="Times New Roman,serif" font-size="14.00">turbine_wind_resource_assessment</text>
<polygon fill="none" stroke="black" points="781,-39 781,-60 982,-60 982,-39 781,-39"/>
<text text-anchor="start" x="784" y="-45.8" font-family="Times New Roman,serif" font-size="14.00">TurbineWindResourceAssessment</text>
<polygon fill="none" stroke="black" points="576,-18 576,-39 781,-39 781,-18 576,-18"/>
<text text-anchor="start" x="624.5" y="-24.8" font-family="Times New Roman,serif" font-size="14.00">energy_assessment</text>
<polygon fill="none" stroke="black" points="781,-18 781,-39 982,-39 982,-18 781,-18"/>
<text text-anchor="start" x="828.5" y="-24.8" font-family="Times New Roman,serif" font-size="14.00">EnergyAssessment</text>
</a>
</g>
</g>
<!-- eya_def_tools.data_models.eya_def.EyaDefDocument&#45;&gt;eya_def_tools.data_models.scenario.Scenario -->
<g id="edge6" class="edge">
<title>eya_def_tools.data_models.eya_def.EyaDefDocument:e&#45;&gt;eya_def_tools.data_models.scenario.Scenario:w</title>
<path fill="none" stroke="black" d="M468,-628C649.63,-628 406.4,-247.09 557.32,-219.57"/>
<polygon fill="black" stroke="black" points="566.04,-218.84 576.38,-222.48 571.02,-218.42 576,-218 576,-218 576,-218 571.02,-218.42 575.62,-213.52 566.04,-218.84 566.04,-218.84"/>
<ellipse fill="none" stroke="black" cx="561.55" cy="-219.21" rx="4" ry="4"/>
</g>
<!-- eya_def_tools.data_models.turbine_model.TurbineModel -->
<g id="node7" class="node">
<title>eya_def_tools.data_models.turbine_model.TurbineModel</title>
<g id="a_node7"><a xlink:title="eya_def_tools.data_models.turbine_model.TurbineModel&#10;&#10;Specification of a wind turbine model.&#10;&#10;Attributes:&#10; &#160;&#160;&#160;turbine_model_id (str): Unique identifier of the turbine model.&#10; &#160;&#160;&#160;label (str): Label of the turbine model.&#10; &#160;&#160;&#160;perf_spec_ref (Optional[TurbineModelSpecification]): Reference to a json document with turbine model performance specification (PLACEHOLDER). Default is None.&#10;">
<polygon fill="none" stroke="black" points="619,-327 619,-348 940,-348 940,-327 619,-327"/>
<text text-anchor="start" x="735.5" y="-334.8" font-family="Times New Roman,serif" font-weight="bold" font-size="14.00">TurbineModel</text>
<polygon fill="none" stroke="black" points="619,-306 619,-327 724,-327 724,-306 619,-306"/>
<text text-anchor="start" x="622" y="-312.8" font-family="Times New Roman,serif" font-size="14.00">turbine_model_id</text>
<polygon fill="none" stroke="black" points="724,-306 724,-327 940,-327 940,-306 724,-306"/>
<text text-anchor="start" x="824.5" y="-312.8" font-family="Times New Roman,serif" font-size="14.00">str</text>
<polygon fill="none" stroke="black" points="619,-285 619,-306 724,-306 724,-285 619,-285"/>
<text text-anchor="start" x="658.5" y="-291.8" font-family="Times New Roman,serif" font-size="14.00">label</text>
<polygon fill="none" stroke="black" points="724,-285 724,-306 940,-306 940,-285 724,-285"/>
<text text-anchor="start" x="824.5" y="-291.8" font-family="Times New Roman,serif" font-size="14.00">str</text>
<polygon fill="none" stroke="black" points="619,-264 619,-285 724,-285 724,-264 619,-264"/>
<text text-anchor="start" x="632" y="-270.8" font-family="Times New Roman,serif" font-size="14.00">perf_spec_ref</text>
<polygon fill="none" stroke="black" points="724,-264 724,-285 940,-285 940,-264 724,-264"/>
<text text-anchor="start" x="727" y="-270.8" font-family="Times New Roman,serif" font-size="14.00">Optional[TurbineModelSpecification]</text>
</a>
</g>
</g>
<!-- eya_def_tools.data_models.eya_def.EyaDefDocument&#45;&gt;eya_def_tools.data_models.turbine_model.TurbineModel -->
<g id="edge7" class="edge">
<title>eya_def_tools.data_models.eya_def.EyaDefDocument:e&#45;&gt;eya_def_tools.data_models.turbine_model.TurbineModel:w</title>
<path fill="none" stroke="black" d="M468,-649C614.57,-649 478.01,-365.31 599.14,-339.83"/>
<polygon fill="black" stroke="black" points="608.05,-338.96 618.43,-342.48 613.02,-338.48 618,-338 618,-338 618,-338 613.02,-338.48 617.57,-333.52 608.05,-338.96 608.05,-338.96"/>
<ellipse fill="none" stroke="black" cx="603.57" cy="-339.4" rx="4" ry="4"/>
</g>
<!-- eya_def_tools.data_models.wind_resource.WindResourceAssessment -->
<g id="node8" class="node">
<title>eya_def_tools.data_models.wind_resource.WindResourceAssessment</title>
<g id="a_node8"><a xlink:title="eya_def_tools.data_models.wind_resource.WindResourceAssessment&#10;&#10;Wind resource assessment at the measurement location(s).&#10;&#10;Attributes:&#10; &#160;&#160;&#160;wind_resource_assessment_id (str): Unique ID of the wind resource assessment within the EYA DEF document.&#10; &#160;&#160;&#160;description (Optional[str]): Description of the data object. Default is None.&#10; &#160;&#160;&#160;comments (Optional[str]): Comments on the data object. Default is None.&#10; &#160;&#160;&#160;results (WindResourceResults): Results of the wind resource assessment at the measurement location(s).&#10;">
<polygon fill="none" stroke="black" points="624,-468 624,-489 934,-489 934,-468 624,-468"/>
<text text-anchor="start" x="698" y="-475.8" font-family="Times New Roman,serif" font-weight="bold" font-size="14.00">WindResourceAssessment</text>
<polygon fill="none" stroke="black" points="624,-447 624,-468 802,-468 802,-447 624,-447"/>
<text text-anchor="start" x="627" y="-453.8" font-family="Times New Roman,serif" font-size="14.00">wind_resource_assessment_id</text>
<polygon fill="none" stroke="black" points="802,-447 802,-468 934,-468 934,-447 802,-447"/>
<text text-anchor="start" x="860.5" y="-453.8" font-family="Times New Roman,serif" font-size="14.00">str</text>
<polygon fill="none" stroke="black" points="624,-426 624,-447 802,-447 802,-426 624,-426"/>
<text text-anchor="start" x="681.5" y="-432.8" font-family="Times New Roman,serif" font-size="14.00">description</text>
<polygon fill="none" stroke="black" points="802,-426 802,-447 934,-447 934,-426 802,-426"/>
<text text-anchor="start" x="832" y="-432.8" font-family="Times New Roman,serif" font-size="14.00">Optional[str]</text>
<polygon fill="none" stroke="black" points="624,-405 624,-426 802,-426 802,-405 624,-405"/>
<text text-anchor="start" x="684" y="-411.8" font-family="Times New Roman,serif" font-size="14.00">comments</text>
<polygon fill="none" stroke="black" points="802,-405 802,-426 934,-426 934,-405 802,-405"/>
<text text-anchor="start" x="832" y="-411.8" font-family="Times New Roman,serif" font-size="14.00">Optional[str]</text>
<polygon fill="none" stroke="black" points="624,-384 624,-405 802,-405 802,-384 624,-384"/>
<text text-anchor="start" x="694.5" y="-390.8" font-family="Times New Roman,serif" font-size="14.00">results</text>
<polygon fill="none" stroke="black" points="802,-384 802,-405 934,-405 934,-384 802,-384"/>
<text text-anchor="start" x="805" y="-390.8" font-family="Times New Roman,serif" font-size="14.00">WindResourceResults</text>
</a>
</g>
</g>
<!-- eya_def_tools.data_models.eya_def.EyaDefDocument&#45;&gt;eya_def_tools.data_models.wind_resource.WindResourceAssessment -->
<g id="edge8" class="edge">
<title>eya_def_tools.data_models.eya_def.EyaDefDocument:e&#45;&gt;eya_def_tools.data_models.wind_resource.WindResourceAssessment:w</title>
<path fill="none" stroke="black" d="M468,-670C570.38,-670 521.06,-502.48 604.18,-481.21"/>
<polygon fill="black" stroke="black" points="613.07,-480.17 623.53,-483.47 618.03,-479.58 623,-479 623,-479 623,-479 618.03,-479.58 622.47,-474.53 613.07,-480.17 613.07,-480.17"/>
<ellipse fill="none" stroke="black" cx="608.6" cy="-480.69" rx="4" ry="4"/>
</g>
</g>
</svg>
