<?xml version="1.0" encoding="UTF-8" standalone="no"?>
<!DOCTYPE svg PUBLIC "-//W3C//DTD SVG 1.1//EN"
 "http://www.w3.org/Graphics/SVG/1.1/DTD/svg11.dtd">
<!-- Generated by graphviz version 11.0.0 (20240428.1522)
 -->
<!-- Title: Entity Relationship Diagram created by erdantic Pages: 1 -->
<svg width="3330pt" height="531pt"
 viewBox="0.00 0.00 3330.00 531.25" xmlns="http://www.w3.org/2000/svg" xmlns:xlink="http://www.w3.org/1999/xlink">
<g id="graph0" class="graph" transform="scale(1 1) rotate(0) translate(4 527.25)">
<title>Entity Relationship Diagram created by erdantic</title>
<polygon fill="white" stroke="none" points="-4,4 -4,-527.25 3326,-527.25 3326,4 -4,4"/>
<text text-anchor="middle" x="1661" y="-6.7" font-family="Times New Roman,Times,Liberation Serif,serif" font-size="9.00" fill="#a8a8a8">Created by erdantic v1.0.3 &lt;https://github.com/drivendataorg/erdantic&gt;</text>
<!-- eya_def_tools.data_models.dataset.Dataset -->
<g id="node1" class="node">
<title>eya_def_tools.data_models.dataset.Dataset</title>
<g id="a_node1"><a xlink:title="eya_def_tools.data_models.dataset.Dataset&#10;&#10;Collection of labelled data for one specific quantity.&#10;&#10;The data is labelled by specifying dimensions and including&#10;coordinates along the dimensions for each data value.&#10;&#10;Fields:&#10; &#160;&#160;&#160;label: Optional label of the dataset, which should not be empty if the field is included. Default is None.&#10; &#160;&#160;&#160;description: Optional description of the dataset, which should not be empty if the field is included. Default is None.&#10; &#160;&#160;&#160;comments: Optional comments on the dataset, which should not be empty if the field is included. Default is None.&#10; &#160;&#160;&#160;assessment_period: Optional period of or in time that has been assessed and for which the dataset is applicable. This field is to be included only when relevant. Default is None.&#10; &#160;&#160;&#160;dimensions: Dimensions along which the dataset is binned. All statistics within the same dataset object must have the same dimensions. The dimensions must correspond to and be listed in the same order as the coordinates for the values of all statistics. A dataset without dimensions can only have a single value for each statistic. Default is None.&#10; &#160;&#160;&#160;statistics: List of dataset statistic objects that each include data values for a specific statistic type. For example, there may be two statistics, one for mean values and one for standard deviation values.&#10;">
<polygon fill="none" stroke="black" points="2075,-229.75 2075,-251.75 2441,-251.75 2441,-229.75 2075,-229.75"/>
<text text-anchor="start" x="2234.38" y="-236.45" font-family="Times New Roman,Times,Liberation Serif,serif" font-weight="bold" font-size="14.00">Dataset</text>
<polygon fill="none" stroke="black" points="2075,-208.75 2075,-229.75 2187,-229.75 2187,-208.75 2075,-208.75"/>
<text text-anchor="start" x="2118.25" y="-213.45" font-family="Times New Roman,Times,Liberation Serif,serif" font-size="14.00">label</text>
<polygon fill="none" stroke="black" points="2187,-208.75 2187,-229.75 2375,-229.75 2375,-208.75 2187,-208.75"/>
<text text-anchor="start" x="2245.38" y="-213.45" font-family="Times New Roman,Times,Liberation Serif,serif" font-size="14.00">Optional[str]</text>
<polygon fill="none" stroke="black" points="2375,-208.75 2375,-229.75 2441,-229.75 2441,-208.75 2375,-208.75"/>
<text text-anchor="start" x="2378" y="-213.45" font-family="Times New Roman,Times,Liberation Serif,serif" font-size="14.00">string | null</text>
<polygon fill="none" stroke="black" points="2075,-187.75 2075,-208.75 2187,-208.75 2187,-187.75 2075,-187.75"/>
<text text-anchor="start" x="2099.88" y="-192.45" font-family="Times New Roman,Times,Liberation Serif,serif" font-size="14.00">description</text>
<polygon fill="none" stroke="black" points="2187,-187.75 2187,-208.75 2375,-208.75 2375,-187.75 2187,-187.75"/>
<text text-anchor="start" x="2245.38" y="-192.45" font-family="Times New Roman,Times,Liberation Serif,serif" font-size="14.00">Optional[str]</text>
<polygon fill="none" stroke="black" points="2375,-187.75 2375,-208.75 2441,-208.75 2441,-187.75 2375,-187.75"/>
<text text-anchor="start" x="2378" y="-192.45" font-family="Times New Roman,Times,Liberation Serif,serif" font-size="14.00">string | null</text>
<polygon fill="none" stroke="black" points="2075,-166.75 2075,-187.75 2187,-187.75 2187,-166.75 2075,-166.75"/>
<text text-anchor="start" x="2102.12" y="-171.45" font-family="Times New Roman,Times,Liberation Serif,serif" font-size="14.00">comments</text>
<polygon fill="none" stroke="black" points="2187,-166.75 2187,-187.75 2375,-187.75 2375,-166.75 2187,-166.75"/>
<text text-anchor="start" x="2245.38" y="-171.45" font-family="Times New Roman,Times,Liberation Serif,serif" font-size="14.00">Optional[str]</text>
<polygon fill="none" stroke="black" points="2375,-166.75 2375,-187.75 2441,-187.75 2441,-166.75 2375,-166.75"/>
<text text-anchor="start" x="2378" y="-171.45" font-family="Times New Roman,Times,Liberation Serif,serif" font-size="14.00">string | null</text>
<polygon fill="none" stroke="black" points="2075,-145.75 2075,-166.75 2187,-166.75 2187,-145.75 2075,-145.75"/>
<text text-anchor="start" x="2077.75" y="-150.45" font-family="Times New Roman,Times,Liberation Serif,serif" font-size="14.00">assessment_period</text>
<polygon fill="none" stroke="black" points="2187,-145.75 2187,-166.75 2375,-166.75 2375,-145.75 2187,-145.75"/>
<text text-anchor="start" x="2200.75" y="-150.45" font-family="Times New Roman,Times,Liberation Serif,serif" font-size="14.00">Optional[AssessmentPeriod]</text>
<polygon fill="none" stroke="black" points="2375,-145.75 2375,-166.75 2441,-166.75 2441,-145.75 2375,-145.75"/>
<text text-anchor="start" x="2378" y="-150.45" font-family="Times New Roman,Times,Liberation Serif,serif" font-size="14.00">string | null</text>
<polygon fill="none" stroke="black" points="2075,-124.75 2075,-145.75 2187,-145.75 2187,-124.75 2075,-124.75"/>
<text text-anchor="start" x="2099.5" y="-129.45" font-family="Times New Roman,Times,Liberation Serif,serif" font-size="14.00">dimensions</text>
<polygon fill="none" stroke="black" points="2187,-124.75 2187,-145.75 2375,-145.75 2375,-124.75 2187,-124.75"/>
<text text-anchor="start" x="2189.88" y="-129.45" font-family="Times New Roman,Times,Liberation Serif,serif" font-size="14.00">Optional[list[DatasetDimension]]</text>
<polygon fill="none" stroke="black" points="2375,-124.75 2375,-145.75 2441,-145.75 2441,-124.75 2375,-124.75"/>
<text text-anchor="start" x="2379.5" y="-129.45" font-family="Times New Roman,Times,Liberation Serif,serif" font-size="14.00">array | null</text>
<polygon fill="none" stroke="black" points="2075,-103.75 2075,-124.75 2187,-124.75 2187,-103.75 2075,-103.75"/>
<text text-anchor="start" x="2107" y="-108.45" font-family="Times New Roman,Times,Liberation Serif,serif" font-size="14.00">statistics</text>
<polygon fill="none" stroke="black" points="2187,-103.75 2187,-124.75 2375,-124.75 2375,-103.75 2187,-103.75"/>
<text text-anchor="start" x="2225.88" y="-108.45" font-family="Times New Roman,Times,Liberation Serif,serif" font-size="14.00">list[DatasetStatistic]</text>
<polygon fill="none" stroke="black" points="2375,-103.75 2375,-124.75 2441,-124.75 2441,-103.75 2375,-103.75"/>
<text text-anchor="start" x="2394.12" y="-108.45" font-family="Times New Roman,Times,Liberation Serif,serif" font-size="14.00">array</text>
</a>
</g>
</g>
<!-- eya_def_tools.data_models.dataset.DatasetStatistic -->
<g id="node2" class="node">
<title>eya_def_tools.data_models.dataset.DatasetStatistic</title>
<g id="a_node2"><a xlink:title="eya_def_tools.data_models.dataset.DatasetStatistic&#10;&#10;Dataset values for one specific statistic type.&#10;&#10;Fields:&#10; &#160;&#160;&#160;description: Optional description of the dataset statistic, which should not be empty if the field is included. Default is None.&#10; &#160;&#160;&#160;comments: Optional comments on the dataset statistic, which should not be empty if the field is included. Default is None.&#10; &#160;&#160;&#160;statistic_type: Type of statistic that the component of the dataset contains. All values must correspond to this statistic. It can be either the string identifier of a basic statistic type (e.g. &#39;mean&#39;) or a specification of a probability of exceedance level.&#10; &#160;&#160;&#160;values: Dataset value(s) as a single number or one or more values at coordinates. If more than one value is included the values must be represented together with coordinates. A single value can be included either with or without coordinates. The coordinates must correspond to and be listed the same order as the dimensions specified for the dataset.&#10;">
<polygon fill="none" stroke="black" points="2549,-103.75 2549,-125.75 3022,-125.75 3022,-103.75 2549,-103.75"/>
<text text-anchor="start" x="2737.12" y="-110.45" font-family="Times New Roman,Times,Liberation Serif,serif" font-weight="bold" font-size="14.00">DatasetStatistic</text>
<polygon fill="none" stroke="black" points="2549,-82.75 2549,-103.75 2628,-103.75 2628,-82.75 2549,-82.75"/>
<text text-anchor="start" x="2557.38" y="-87.45" font-family="Times New Roman,Times,Liberation Serif,serif" font-size="14.00">description</text>
<polygon fill="none" stroke="black" points="2628,-82.75 2628,-103.75 2937,-103.75 2937,-82.75 2628,-82.75"/>
<text text-anchor="start" x="2746.88" y="-87.45" font-family="Times New Roman,Times,Liberation Serif,serif" font-size="14.00">Optional[str]</text>
<polygon fill="none" stroke="black" points="2937,-82.75 2937,-103.75 3022,-103.75 3022,-82.75 2937,-82.75"/>
<text text-anchor="start" x="2949.5" y="-87.45" font-family="Times New Roman,Times,Liberation Serif,serif" font-size="14.00">string | null</text>
<polygon fill="none" stroke="black" points="2549,-61.75 2549,-82.75 2628,-82.75 2628,-61.75 2549,-61.75"/>
<text text-anchor="start" x="2559.62" y="-66.45" font-family="Times New Roman,Times,Liberation Serif,serif" font-size="14.00">comments</text>
<polygon fill="none" stroke="black" points="2628,-61.75 2628,-82.75 2937,-82.75 2937,-61.75 2628,-61.75"/>
<text text-anchor="start" x="2746.88" y="-66.45" font-family="Times New Roman,Times,Liberation Serif,serif" font-size="14.00">Optional[str]</text>
<polygon fill="none" stroke="black" points="2937,-61.75 2937,-82.75 3022,-82.75 3022,-61.75 2937,-61.75"/>
<text text-anchor="start" x="2949.5" y="-66.45" font-family="Times New Roman,Times,Liberation Serif,serif" font-size="14.00">string | null</text>
<polygon fill="none" stroke="black" points="2549,-40.75 2549,-61.75 2628,-61.75 2628,-40.75 2549,-40.75"/>
<text text-anchor="start" x="2551.75" y="-45.45" font-family="Times New Roman,Times,Liberation Serif,serif" font-size="14.00">statistic_type</text>
<polygon fill="none" stroke="black" points="2628,-40.75 2628,-61.75 2937,-61.75 2937,-40.75 2628,-40.75"/>
<text text-anchor="start" x="2640.38" y="-45.45" font-family="Times New Roman,Times,Liberation Serif,serif" font-size="14.00">BasicStatisticType | ExceedanceLevelStatisticType</text>
<polygon fill="none" stroke="black" points="2937,-40.75 2937,-61.75 3022,-61.75 3022,-40.75 2937,-40.75"/>
<text text-anchor="start" x="2942" y="-45.45" font-family="Times New Roman,Times,Liberation Serif,serif" font-size="14.00">string | object</text>
<polygon fill="none" stroke="black" points="2549,-19.75 2549,-40.75 2628,-40.75 2628,-19.75 2549,-19.75"/>
<text text-anchor="start" x="2571.25" y="-24.45" font-family="Times New Roman,Times,Liberation Serif,serif" font-size="14.00">values</text>
<polygon fill="none" stroke="black" points="2628,-19.75 2628,-40.75 2937,-40.75 2937,-19.75 2628,-19.75"/>
<text text-anchor="start" x="2631" y="-24.45" font-family="Times New Roman,Times,Liberation Serif,serif" font-size="14.00">Union[float, list[tuple[list[Union[int, float, str]], float]]]</text>
<polygon fill="none" stroke="black" points="2937,-19.75 2937,-40.75 3022,-40.75 3022,-19.75 2937,-19.75"/>
<text text-anchor="start" x="2939.75" y="-24.45" font-family="Times New Roman,Times,Liberation Serif,serif" font-size="14.00">number | array</text>
</a>
</g>
</g>
<!-- eya_def_tools.data_models.dataset.Dataset&#45;&gt;eya_def_tools.data_models.dataset.DatasetStatistic -->
<g id="edge1" class="edge">
<title>eya_def_tools.data_models.dataset.Dataset:e&#45;&gt;eya_def_tools.data_models.dataset.DatasetStatistic:w</title>
<path fill="none" stroke="black" d="M2450.87,-114.26C2485.92,-114.31 2500.67,-114.65 2533.64,-114.73"/>
<polyline fill="none" stroke="black" points="2441,-114.25 2446,-114.25"/>
<polyline fill="none" stroke="black" points="2446,-114.25 2451,-114.26"/>
<polygon fill="black" stroke="black" points="2538.67,-114.74 2548.66,-119.25 2544,-114.74 2548.33,-114.75 2548.33,-114.75 2548.33,-114.75 2544,-114.74 2548.67,-110.25 2538.67,-114.74"/>
<polyline fill="none" stroke="black" points="2537.45,-114.74 2532.45,-114.73"/>
</g>
<!-- eya_def_tools.data_models.dataset.ExceedanceLevelStatisticType -->
<g id="node3" class="node">
<title>eya_def_tools.data_models.dataset.ExceedanceLevelStatisticType</title>
<g id="a_node3"><a xlink:title="eya_def_tools.data_models.dataset.ExceedanceLevelStatisticType&#10;&#10;Probability of exceedance level statistic type.&#10;&#10;Fields:&#10; &#160;&#160;&#160;exceedance_level: The dimensionless probability of exceedance level (i.e. probability value between 0.0 and 1.0) of the statistic.&#10;">
<polygon fill="none" stroke="black" points="3130,-40.25 3130,-62.25 3322,-62.25 3322,-40.25 3130,-40.25"/>
<text text-anchor="start" x="3133" y="-46.95" font-family="Times New Roman,Times,Liberation Serif,serif" font-weight="bold" font-size="14.00">ExceedanceLevelStatisticType</text>
<polygon fill="none" stroke="black" points="3130,-19.25 3130,-40.25 3238,-40.25 3238,-19.25 3130,-19.25"/>
<text text-anchor="start" x="3135.62" y="-23.95" font-family="Times New Roman,Times,Liberation Serif,serif" font-size="14.00">exceedance_level</text>
<polygon fill="none" stroke="black" points="3238,-19.25 3238,-40.25 3271,-40.25 3271,-19.25 3238,-19.25"/>
<text text-anchor="start" x="3242.12" y="-23.95" font-family="Times New Roman,Times,Liberation Serif,serif" font-size="14.00">float</text>
<polygon fill="none" stroke="black" points="3271,-19.25 3271,-40.25 3322,-40.25 3322,-19.25 3271,-19.25"/>
<text text-anchor="start" x="3275.5" y="-23.95" font-family="Times New Roman,Times,Liberation Serif,serif" font-size="14.00">number</text>
</a>
</g>
</g>
<!-- eya_def_tools.data_models.dataset.DatasetStatistic&#45;&gt;eya_def_tools.data_models.dataset.ExceedanceLevelStatisticType -->
<g id="edge2" class="edge">
<title>eya_def_tools.data_models.dataset.DatasetStatistic:e&#45;&gt;eya_def_tools.data_models.dataset.ExceedanceLevelStatisticType:w</title>
<path fill="none" stroke="black" d="M3031.87,-51.25C3067.07,-51.25 3081.8,-51.25 3115.08,-51.25"/>
<polyline fill="none" stroke="black" points="3022,-51.25 3027,-51.25"/>
<polyline fill="none" stroke="black" points="3027,-51.25 3032,-51.25"/>
<polyline fill="none" stroke="black" points="3130,-51.25 3125,-51.25"/>
<polygon fill="black" stroke="black" points="3124,-46.25 3124,-56.25 3122,-56.25 3122,-46.25 3124,-46.25"/>
<polyline fill="none" stroke="black" points="3125,-51.25 3120,-51.25"/>
<polygon fill="black" stroke="black" points="3119,-46.25 3119,-56.25 3117,-56.25 3117,-46.25 3119,-46.25"/>
<polyline fill="none" stroke="black" points="3120,-51.25 3115,-51.25"/>
</g>
<!-- eya_def_tools.data_models.plant_performance.PlantPerformanceAssessment -->
<g id="node4" class="node">
<title>eya_def_tools.data_models.plant_performance.PlantPerformanceAssessment</title>
<g id="a_node4"><a xlink:title="eya_def_tools.data_models.plant_performance.PlantPerformanceAssessment&#10;&#10;Plant performance loss assessment broken into categories.&#10;&#10;Fields:&#10; &#160;&#160;&#160;categories: Plant performance loss assessment categories including results.&#10; &#160;&#160;&#160;results: Overall plant performance loss assessment results.&#10;">
<polygon fill="none" stroke="black" points="0,-260.75 0,-282.75 282,-282.75 282,-260.75 0,-260.75"/>
<text text-anchor="start" x="49.88" y="-267.45" font-family="Times New Roman,Times,Liberation Serif,serif" font-weight="bold" font-size="14.00">PlantPerformanceAssessment</text>
<polygon fill="none" stroke="black" points="0,-239.75 0,-260.75 62,-260.75 62,-239.75 0,-239.75"/>
<text text-anchor="start" x="2.88" y="-244.45" font-family="Times New Roman,Times,Liberation Serif,serif" font-size="14.00">categories</text>
<polygon fill="none" stroke="black" points="62,-239.75 62,-260.75 242,-260.75 242,-239.75 62,-239.75"/>
<text text-anchor="start" x="64.62" y="-244.45" font-family="Times New Roman,Times,Liberation Serif,serif" font-size="14.00">list[PlantPerformanceCategory]</text>
<polygon fill="none" stroke="black" points="242,-239.75 242,-260.75 282,-260.75 282,-239.75 242,-239.75"/>
<text text-anchor="start" x="248.12" y="-244.45" font-family="Times New Roman,Times,Liberation Serif,serif" font-size="14.00">array</text>
<polygon fill="none" stroke="black" points="0,-218.75 0,-239.75 62,-239.75 62,-218.75 0,-218.75"/>
<text text-anchor="start" x="13" y="-223.45" font-family="Times New Roman,Times,Liberation Serif,serif" font-size="14.00">results</text>
<polygon fill="none" stroke="black" points="62,-218.75 62,-239.75 242,-239.75 242,-218.75 62,-218.75"/>
<text text-anchor="start" x="81.88" y="-223.45" font-family="Times New Roman,Times,Liberation Serif,serif" font-size="14.00">PlantPerformanceResults</text>
<polygon fill="none" stroke="black" points="242,-218.75 242,-239.75 282,-239.75 282,-218.75 242,-218.75"/>
<text text-anchor="start" x="244.75" y="-223.45" font-family="Times New Roman,Times,Liberation Serif,serif" font-size="14.00">object</text>
</a>
</g>
</g>
<!-- eya_def_tools.data_models.plant_performance.PlantPerformanceCategory -->
<g id="node5" class="node">
<title>eya_def_tools.data_models.plant_performance.PlantPerformanceCategory</title>
<g id="a_node5"><a xlink:title="eya_def_tools.data_models.plant_performance.PlantPerformanceCategory&#10;&#10;Plant performance loss assessment category.&#10;&#10;Fields:&#10; &#160;&#160;&#160;label: Label of the plant performance loss category.&#10; &#160;&#160;&#160;description: Optional description of the plant performance loss category, which should not be empty if the field is included. Default is None.&#10; &#160;&#160;&#160;comments: Optional comments on the plant performance loss category, which should not be empty if the field is included. Default is None.&#10; &#160;&#160;&#160;subcategories: Plant performance loss assessment subcategories that fall under the category. The subcategory objects include details and results at the subcategory level.&#10; &#160;&#160;&#160;results: Plant performance assessment category results.&#10;">
<polygon fill="none" stroke="black" points="390,-319.25 390,-341.25 738,-341.25 738,-319.25 390,-319.25"/>
<text text-anchor="start" x="479.62" y="-325.95" font-family="Times New Roman,Times,Liberation Serif,serif" font-weight="bold" font-size="14.00">PlantPerformanceCategory</text>
<polygon fill="none" stroke="black" points="390,-298.25 390,-319.25 472,-319.25 472,-298.25 390,-298.25"/>
<text text-anchor="start" x="418.25" y="-302.95" font-family="Times New Roman,Times,Liberation Serif,serif" font-size="14.00">label</text>
<polygon fill="none" stroke="black" points="472,-298.25 472,-319.25 672,-319.25 672,-298.25 472,-298.25"/>
<text text-anchor="start" x="481.62" y="-302.95" font-family="Times New Roman,Times,Liberation Serif,serif" font-size="14.00">PlantPerformanceCategoryLabel</text>
<polygon fill="none" stroke="black" points="672,-298.25 672,-319.25 738,-319.25 738,-298.25 672,-298.25"/>
<text text-anchor="start" x="689.62" y="-302.95" font-family="Times New Roman,Times,Liberation Serif,serif" font-size="14.00">string</text>
<polygon fill="none" stroke="black" points="390,-277.25 390,-298.25 472,-298.25 472,-277.25 390,-277.25"/>
<text text-anchor="start" x="399.88" y="-281.95" font-family="Times New Roman,Times,Liberation Serif,serif" font-size="14.00">description</text>
<polygon fill="none" stroke="black" points="472,-277.25 472,-298.25 672,-298.25 672,-277.25 472,-277.25"/>
<text text-anchor="start" x="536.38" y="-281.95" font-family="Times New Roman,Times,Liberation Serif,serif" font-size="14.00">Optional[str]</text>
<polygon fill="none" stroke="black" points="672,-277.25 672,-298.25 738,-298.25 738,-277.25 672,-277.25"/>
<text text-anchor="start" x="675" y="-281.95" font-family="Times New Roman,Times,Liberation Serif,serif" font-size="14.00">string | null</text>
<polygon fill="none" stroke="black" points="390,-256.25 390,-277.25 472,-277.25 472,-256.25 390,-256.25"/>
<text text-anchor="start" x="402.12" y="-260.95" font-family="Times New Roman,Times,Liberation Serif,serif" font-size="14.00">comments</text>
<polygon fill="none" stroke="black" points="472,-256.25 472,-277.25 672,-277.25 672,-256.25 472,-256.25"/>
<text text-anchor="start" x="536.38" y="-260.95" font-family="Times New Roman,Times,Liberation Serif,serif" font-size="14.00">Optional[str]</text>
<polygon fill="none" stroke="black" points="672,-256.25 672,-277.25 738,-277.25 738,-256.25 672,-256.25"/>
<text text-anchor="start" x="675" y="-260.95" font-family="Times New Roman,Times,Liberation Serif,serif" font-size="14.00">string | null</text>
<polygon fill="none" stroke="black" points="390,-235.25 390,-256.25 472,-256.25 472,-235.25 390,-235.25"/>
<text text-anchor="start" x="392.75" y="-239.95" font-family="Times New Roman,Times,Liberation Serif,serif" font-size="14.00">subcategories</text>
<polygon fill="none" stroke="black" points="472,-235.25 472,-256.25 672,-256.25 672,-235.25 472,-235.25"/>
<text text-anchor="start" x="474.88" y="-239.95" font-family="Times New Roman,Times,Liberation Serif,serif" font-size="14.00">list[PlantPerformanceSubcategory]</text>
<polygon fill="none" stroke="black" points="672,-235.25 672,-256.25 738,-256.25 738,-235.25 672,-235.25"/>
<text text-anchor="start" x="691.12" y="-239.95" font-family="Times New Roman,Times,Liberation Serif,serif" font-size="14.00">array</text>
<polygon fill="none" stroke="black" points="390,-214.25 390,-235.25 472,-235.25 472,-214.25 390,-214.25"/>
<text text-anchor="start" x="413" y="-218.95" font-family="Times New Roman,Times,Liberation Serif,serif" font-size="14.00">results</text>
<polygon fill="none" stroke="black" points="472,-214.25 472,-235.25 672,-235.25 672,-214.25 472,-214.25"/>
<text text-anchor="start" x="501.88" y="-218.95" font-family="Times New Roman,Times,Liberation Serif,serif" font-size="14.00">PlantPerformanceResults</text>
<polygon fill="none" stroke="black" points="672,-214.25 672,-235.25 738,-235.25 738,-214.25 672,-214.25"/>
<text text-anchor="start" x="687.75" y="-218.95" font-family="Times New Roman,Times,Liberation Serif,serif" font-size="14.00">object</text>
</a>
</g>
</g>
<!-- eya_def_tools.data_models.plant_performance.PlantPerformanceAssessment&#45;&gt;eya_def_tools.data_models.plant_performance.PlantPerformanceCategory -->
<g id="edge3" class="edge">
<title>eya_def_tools.data_models.plant_performance.PlantPerformanceAssessment:e&#45;&gt;eya_def_tools.data_models.plant_performance.PlantPerformanceCategory:w</title>
<path fill="none" stroke="black" d="M291.8,-251.04C335.67,-258.51 334.59,-316.49 374.69,-328.2"/>
<polyline fill="none" stroke="black" points="282,-250.25 286.98,-250.65"/>
<polyline fill="none" stroke="black" points="286.98,-250.65 291.97,-251.06"/>
<polygon fill="black" stroke="black" points="379.76,-328.88 389.07,-334.67 385.04,-329.58 389.34,-330.16 389.34,-330.16 389.34,-330.16 385.04,-329.58 390.27,-325.75 379.76,-328.88"/>
<polyline fill="none" stroke="black" points="378.55,-328.71 373.59,-328.05"/>
</g>
<!-- eya_def_tools.data_models.plant_performance.PlantPerformanceResults -->
<g id="node6" class="node">
<title>eya_def_tools.data_models.plant_performance.PlantPerformanceResults</title>
<g id="a_node6"><a xlink:title="eya_def_tools.data_models.plant_performance.PlantPerformanceResults&#10;&#10;Plant performance loss assessment results.&#10;&#10;Fields:&#10; &#160;&#160;&#160;efficiency: Dimensionless plant performance efficiency (loss factor) results. The first standard dataset should have no binning dimension (i.e. correspond to the overall value for the wind farm under assessment). Datasets with results binned by turbine should also be included where the efficiency is predicted at the turbine level, such as for the turbine interaction losses. Further results with other dimensions may also be included. All datasets should include the &#39;mean&#39; and &#39;standard_deviation&#39;, statistics, where the former represents the central estimate and the latter the standard deviation of the associated uncertainty distribution. For the overall plant performance efficiency estimate at the wind farm level (i.e. the result dataset without binning), the statistic &#39;inter_annual_variability&#39; must also be included. The inter&#45;annual variability may optionally also be included for some or all of the other datasets.&#10;">
<polygon fill="none" stroke="black" points="1799,-251.25 1799,-273.25 1967,-273.25 1967,-251.25 1799,-251.25"/>
<text text-anchor="start" x="1804.62" y="-257.95" font-family="Times New Roman,Times,Liberation Serif,serif" font-weight="bold" font-size="14.00">PlantPerformanceResults</text>
<polygon fill="none" stroke="black" points="1799,-230.25 1799,-251.25 1859,-251.25 1859,-230.25 1799,-230.25"/>
<text text-anchor="start" x="1802" y="-234.95" font-family="Times New Roman,Times,Liberation Serif,serif" font-size="14.00">efficiency</text>
<polygon fill="none" stroke="black" points="1859,-230.25 1859,-251.25 1931,-251.25 1931,-230.25 1859,-230.25"/>
<text text-anchor="start" x="1862" y="-234.95" font-family="Times New Roman,Times,Liberation Serif,serif" font-size="14.00">list[Dataset]</text>
<polygon fill="none" stroke="black" points="1931,-230.25 1931,-251.25 1967,-251.25 1967,-230.25 1931,-230.25"/>
<text text-anchor="start" x="1935.12" y="-234.95" font-family="Times New Roman,Times,Liberation Serif,serif" font-size="14.00">array</text>
</a>
</g>
</g>
<!-- eya_def_tools.data_models.plant_performance.PlantPerformanceAssessment&#45;&gt;eya_def_tools.data_models.plant_performance.PlantPerformanceResults -->
<g id="edge4" class="edge">
<title>eya_def_tools.data_models.plant_performance.PlantPerformanceAssessment:e&#45;&gt;eya_def_tools.data_models.plant_performance.PlantPerformanceResults:w</title>
<path fill="none" stroke="black" d="M291.98,-228.89C333.5,-225.79 343.9,-203.54 390,-196.75 543.02,-174.23 583.36,-194.05 738,-196.75 1161.78,-204.16 1272.38,-165.43 1691,-231.75 1735.07,-238.73 1746.8,-257.63 1784.49,-261.54"/>
<polyline fill="none" stroke="black" points="282,-229.25 287,-229.07"/>
<polyline fill="none" stroke="black" points="287,-229.07 291.99,-228.89"/>
<polyline fill="none" stroke="black" points="1799,-262.25 1794.01,-262"/>
<polygon fill="black" stroke="black" points="1793.25,-256.96 1792.76,-266.95 1790.76,-266.85 1791.26,-256.86 1793.25,-256.96"/>
<polyline fill="none" stroke="black" points="1794.01,-262 1789.01,-261.76"/>
<polygon fill="black" stroke="black" points="1788.26,-256.72 1787.77,-266.7 1785.77,-266.61 1786.26,-256.62 1788.26,-256.72"/>
<polyline fill="none" stroke="black" points="1789.01,-261.76 1784.02,-261.51"/>
</g>
<!-- eya_def_tools.data_models.plant_performance.PlantPerformanceCategory&#45;&gt;eya_def_tools.data_models.plant_performance.PlantPerformanceResults -->
<g id="edge5" class="edge">
<title>eya_def_tools.data_models.plant_performance.PlantPerformanceCategory:e&#45;&gt;eya_def_tools.data_models.plant_performance.PlantPerformanceResults:w</title>
<path fill="none" stroke="black" d="M747.87,-224.75C1163.45,-224.93 1270.98,-236.28 1691,-255.75 1733.78,-257.73 1747.88,-261.34 1784.43,-262.1"/>
<polyline fill="none" stroke="black" points="738,-224.75 743,-224.75"/>
<polyline fill="none" stroke="black" points="743,-224.75 748,-224.75"/>
<polyline fill="none" stroke="black" points="1799,-262.25 1794,-262.2"/>
<polygon fill="black" stroke="black" points="1793.05,-257.19 1792.95,-267.19 1790.95,-267.17 1791.05,-257.17 1793.05,-257.19"/>
<polyline fill="none" stroke="black" points="1794,-262.2 1789,-262.15"/>
<polygon fill="black" stroke="black" points="1788.05,-257.14 1787.95,-267.14 1785.95,-267.12 1786.05,-257.12 1788.05,-257.14"/>
<polyline fill="none" stroke="black" points="1789,-262.15 1784,-262.1"/>
</g>
<!-- eya_def_tools.data_models.plant_performance.PlantPerformanceSubcategory -->
<g id="node7" class="node">
<title>eya_def_tools.data_models.plant_performance.PlantPerformanceSubcategory</title>
<g id="a_node7"><a xlink:title="eya_def_tools.data_models.plant_performance.PlantPerformanceSubcategory&#10;&#10;Plant performance loss assessment subcategory.&#10;&#10;Fields:&#10; &#160;&#160;&#160;label: Label of the plant performance loss subcategory.&#10; &#160;&#160;&#160;description: Optional description of the plant performance loss subcategory, which should not be empty if the field is included. Default is None.&#10; &#160;&#160;&#160;comments: Optional comments on the plant performance loss subcategory, which should not be empty if the field is included. Default is None.&#10; &#160;&#160;&#160;basis: Basis of plant performance loss subcategory assessment. The basis describes the level of detail of the calculation or estimate used in the assessment of the subcategory.&#10; &#160;&#160;&#160;variability: Considered variability in the plant performance loss subcategory.&#10; &#160;&#160;&#160;elements: Optional plant performance loss assessment elements that fall under the subcategory. The element objects include details and results at the element level. A breakdown of plant performance loss subcategories into elements is optional and can be included only for a subset of the subcategories, as relevant. Whereas the categories and subcategories are fixed, the user may freely define element labels. Default is None.&#10; &#160;&#160;&#160;results: Plant performance assessment subcategory results.&#10;">
<polygon fill="none" stroke="black" points="846,-435.25 846,-457.25 1281,-457.25 1281,-435.25 846,-435.25"/>
<text text-anchor="start" x="969.38" y="-441.95" font-family="Times New Roman,Times,Liberation Serif,serif" font-weight="bold" font-size="14.00">PlantPerformanceSubcategory</text>
<polygon fill="none" stroke="black" points="846,-414.25 846,-435.25 914,-435.25 914,-414.25 846,-414.25"/>
<text text-anchor="start" x="867.25" y="-418.95" font-family="Times New Roman,Times,Liberation Serif,serif" font-size="14.00">label</text>
<polygon fill="none" stroke="black" points="914,-414.25 914,-435.25 1215,-435.25 1215,-414.25 914,-414.25"/>
<text text-anchor="start" x="964.38" y="-418.95" font-family="Times New Roman,Times,Liberation Serif,serif" font-size="14.00">PlantPerformanceSubcategoryLabel</text>
<polygon fill="none" stroke="black" points="1215,-414.25 1215,-435.25 1281,-435.25 1281,-414.25 1215,-414.25"/>
<text text-anchor="start" x="1232.62" y="-418.95" font-family="Times New Roman,Times,Liberation Serif,serif" font-size="14.00">string</text>
<polygon fill="none" stroke="black" points="846,-393.25 846,-414.25 914,-414.25 914,-393.25 846,-393.25"/>
<text text-anchor="start" x="848.88" y="-397.95" font-family="Times New Roman,Times,Liberation Serif,serif" font-size="14.00">description</text>
<polygon fill="none" stroke="black" points="914,-393.25 914,-414.25 1215,-414.25 1215,-393.25 914,-393.25"/>
<text text-anchor="start" x="1028.88" y="-397.95" font-family="Times New Roman,Times,Liberation Serif,serif" font-size="14.00">Optional[str]</text>
<polygon fill="none" stroke="black" points="1215,-393.25 1215,-414.25 1281,-414.25 1281,-393.25 1215,-393.25"/>
<text text-anchor="start" x="1218" y="-397.95" font-family="Times New Roman,Times,Liberation Serif,serif" font-size="14.00">string | null</text>
<polygon fill="none" stroke="black" points="846,-372.25 846,-393.25 914,-393.25 914,-372.25 846,-372.25"/>
<text text-anchor="start" x="851.12" y="-376.95" font-family="Times New Roman,Times,Liberation Serif,serif" font-size="14.00">comments</text>
<polygon fill="none" stroke="black" points="914,-372.25 914,-393.25 1215,-393.25 1215,-372.25 914,-372.25"/>
<text text-anchor="start" x="1028.88" y="-376.95" font-family="Times New Roman,Times,Liberation Serif,serif" font-size="14.00">Optional[str]</text>
<polygon fill="none" stroke="black" points="1215,-372.25 1215,-393.25 1281,-393.25 1281,-372.25 1215,-372.25"/>
<text text-anchor="start" x="1218" y="-376.95" font-family="Times New Roman,Times,Liberation Serif,serif" font-size="14.00">string | null</text>
<polygon fill="none" stroke="black" points="846,-351.25 846,-372.25 914,-372.25 914,-351.25 846,-351.25"/>
<text text-anchor="start" x="865.75" y="-355.95" font-family="Times New Roman,Times,Liberation Serif,serif" font-size="14.00">basis</text>
<polygon fill="none" stroke="black" points="914,-351.25 914,-372.25 1215,-372.25 1215,-351.25 914,-351.25"/>
<text text-anchor="start" x="1016.12" y="-355.95" font-family="Times New Roman,Times,Liberation Serif,serif" font-size="14.00">AssessmentBasis</text>
<polygon fill="none" stroke="black" points="1215,-351.25 1215,-372.25 1281,-372.25 1281,-351.25 1215,-351.25"/>
<text text-anchor="start" x="1230.75" y="-355.95" font-family="Times New Roman,Times,Liberation Serif,serif" font-size="14.00">object</text>
<polygon fill="none" stroke="black" points="846,-330.25 846,-351.25 914,-351.25 914,-330.25 846,-330.25"/>
<text text-anchor="start" x="853.38" y="-334.95" font-family="Times New Roman,Times,Liberation Serif,serif" font-size="14.00">variability</text>
<polygon fill="none" stroke="black" points="914,-330.25 914,-351.25 1215,-351.25 1215,-330.25 914,-330.25"/>
<text text-anchor="start" x="1007.5" y="-334.95" font-family="Times New Roman,Times,Liberation Serif,serif" font-size="14.00">TimeVariabilityType</text>
<polygon fill="none" stroke="black" points="1215,-330.25 1215,-351.25 1281,-351.25 1281,-330.25 1215,-330.25"/>
<text text-anchor="start" x="1230.75" y="-334.95" font-family="Times New Roman,Times,Liberation Serif,serif" font-size="14.00">object</text>
<polygon fill="none" stroke="black" points="846,-309.25 846,-330.25 914,-330.25 914,-309.25 846,-309.25"/>
<text text-anchor="start" x="856" y="-313.95" font-family="Times New Roman,Times,Liberation Serif,serif" font-size="14.00">elements</text>
<polygon fill="none" stroke="black" points="914,-309.25 914,-330.25 1215,-330.25 1215,-309.25 914,-309.25"/>
<text text-anchor="start" x="916.75" y="-313.95" font-family="Times New Roman,Times,Liberation Serif,serif" font-size="14.00">Optional[list[PlantPerformanceSubcategoryElement]]</text>
<polygon fill="none" stroke="black" points="1215,-309.25 1215,-330.25 1281,-330.25 1281,-309.25 1215,-309.25"/>
<text text-anchor="start" x="1219.5" y="-313.95" font-family="Times New Roman,Times,Liberation Serif,serif" font-size="14.00">array | null</text>
<polygon fill="none" stroke="black" points="846,-288.25 846,-309.25 914,-309.25 914,-288.25 846,-288.25"/>
<text text-anchor="start" x="862" y="-292.95" font-family="Times New Roman,Times,Liberation Serif,serif" font-size="14.00">results</text>
<polygon fill="none" stroke="black" points="914,-288.25 914,-309.25 1215,-309.25 1215,-288.25 914,-288.25"/>
<text text-anchor="start" x="994.38" y="-292.95" font-family="Times New Roman,Times,Liberation Serif,serif" font-size="14.00">PlantPerformanceResults</text>
<polygon fill="none" stroke="black" points="1215,-288.25 1215,-309.25 1281,-309.25 1281,-288.25 1215,-288.25"/>
<text text-anchor="start" x="1230.75" y="-292.95" font-family="Times New Roman,Times,Liberation Serif,serif" font-size="14.00">object</text>
</a>
</g>
</g>
<!-- eya_def_tools.data_models.plant_performance.PlantPerformanceCategory&#45;&gt;eya_def_tools.data_models.plant_performance.PlantPerformanceSubcategory -->
<g id="edge6" class="edge">
<title>eya_def_tools.data_models.plant_performance.PlantPerformanceCategory:e&#45;&gt;eya_def_tools.data_models.plant_performance.PlantPerformanceSubcategory:w</title>
<path fill="none" stroke="black" d="M747.97,-246.48C827.85,-258.83 757.66,-424.97 830.64,-444.4"/>
<polyline fill="none" stroke="black" points="738,-245.75 742.99,-246.11"/>
<polyline fill="none" stroke="black" points="742.99,-246.11 747.97,-246.48"/>
<polygon fill="black" stroke="black" points="835.74,-445.01 845.13,-450.68 841.04,-445.65 845.34,-446.17 845.34,-446.17 845.34,-446.17 841.04,-445.65 846.21,-441.74 835.74,-445.01"/>
<polyline fill="none" stroke="black" points="834.53,-444.87 829.57,-444.27"/>
</g>
<!-- eya_def_tools.data_models.plant_performance.PlantPerformanceResults&#45;&gt;eya_def_tools.data_models.dataset.Dataset -->
<g id="edge7" class="edge">
<title>eya_def_tools.data_models.plant_performance.PlantPerformanceResults:e&#45;&gt;eya_def_tools.data_models.dataset.Dataset:w</title>
<path fill="none" stroke="black" d="M1976.87,-240.75C2011.92,-240.75 2026.67,-240.75 2059.64,-240.75"/>
<polyline fill="none" stroke="black" points="1967,-240.75 1972,-240.75"/>
<polyline fill="none" stroke="black" points="1972,-240.75 1977,-240.75"/>
<polygon fill="black" stroke="black" points="2064.67,-240.75 2074.67,-245.25 2070,-240.75 2074.33,-240.75 2074.33,-240.75 2074.33,-240.75 2070,-240.75 2074.67,-236.25 2064.67,-240.75"/>
<polyline fill="none" stroke="black" points="2063.45,-240.75 2058.45,-240.75"/>
</g>
<!-- eya_def_tools.data_models.plant_performance.PlantPerformanceSubcategory&#45;&gt;eya_def_tools.data_models.plant_performance.PlantPerformanceResults -->
<g id="edge8" class="edge">
<title>eya_def_tools.data_models.plant_performance.PlantPerformanceSubcategory:e&#45;&gt;eya_def_tools.data_models.plant_performance.PlantPerformanceResults:w</title>
<path fill="none" stroke="black" d="M1290.7,-298.73C1508.53,-297.75 1568.84,-263.79 1784.24,-262.3"/>
<polyline fill="none" stroke="black" points="1281,-298.75 1286,-298.74"/>
<polyline fill="none" stroke="black" points="1286,-298.74 1291,-298.73"/>
<polyline fill="none" stroke="black" points="1799,-262.25 1794,-262.27"/>
<polygon fill="black" stroke="black" points="1792.98,-257.27 1793.02,-267.27 1791.02,-267.28 1790.98,-257.28 1792.98,-257.27"/>
<polyline fill="none" stroke="black" points="1794,-262.27 1789,-262.28"/>
<polygon fill="black" stroke="black" points="1787.98,-257.29 1788.02,-267.29 1786.02,-267.29 1785.98,-257.29 1787.98,-257.29"/>
<polyline fill="none" stroke="black" points="1789,-262.28 1784,-262.3"/>
</g>
<!-- eya_def_tools.data_models.plant_performance.PlantPerformanceSubcategoryElement -->
<g id="node8" class="node">
<title>eya_def_tools.data_models.plant_performance.PlantPerformanceSubcategoryElement</title>
<g id="a_node8"><a xlink:title="eya_def_tools.data_models.plant_performance.PlantPerformanceSubcategoryElement&#10;&#10;Plant performance loss assessment subcategory element.&#10;&#10;Fields:&#10; &#160;&#160;&#160;label: Label of the plant performance loss subcategory element.&#10; &#160;&#160;&#160;description: Optional description of the plant performance loss subcategory element, which should not be empty if the field is included. Default is None.&#10; &#160;&#160;&#160;comments: Optional comments on the plant performance loss subcategory element, which should not be empty if the field is included. Default is None.&#10; &#160;&#160;&#160;basis: Basis of plant performance loss subcategory element assessment. The basis describes the level of detail of the calculation or estimate used in the assessment of the element.&#10; &#160;&#160;&#160;variability: Considered variability in the plant performance loss subcategory element.&#10; &#160;&#160;&#160;is_independent: Whether the plant performance loss subcategory element is independent of all other elements. Default is True.&#10; &#160;&#160;&#160;results: Plant performance assessment subcategory element results.&#10;">
<polygon fill="none" stroke="black" points="1389,-501.25 1389,-523.25 1691,-523.25 1691,-501.25 1389,-501.25"/>
<text text-anchor="start" x="1420.75" y="-507.95" font-family="Times New Roman,Times,Liberation Serif,serif" font-weight="bold" font-size="14.00">PlantPerformanceSubcategoryElement</text>
<polygon fill="none" stroke="black" points="1389,-480.25 1389,-501.25 1479,-501.25 1479,-480.25 1389,-480.25"/>
<text text-anchor="start" x="1421.25" y="-484.95" font-family="Times New Roman,Times,Liberation Serif,serif" font-size="14.00">label</text>
<polygon fill="none" stroke="black" points="1479,-480.25 1479,-501.25 1625,-501.25 1625,-480.25 1479,-480.25"/>
<text text-anchor="start" x="1544.88" y="-484.95" font-family="Times New Roman,Times,Liberation Serif,serif" font-size="14.00">str</text>
<polygon fill="none" stroke="black" points="1625,-480.25 1625,-501.25 1691,-501.25 1691,-480.25 1625,-480.25"/>
<text text-anchor="start" x="1642.62" y="-484.95" font-family="Times New Roman,Times,Liberation Serif,serif" font-size="14.00">string</text>
<polygon fill="none" stroke="black" points="1389,-459.25 1389,-480.25 1479,-480.25 1479,-459.25 1389,-459.25"/>
<text text-anchor="start" x="1402.88" y="-463.95" font-family="Times New Roman,Times,Liberation Serif,serif" font-size="14.00">description</text>
<polygon fill="none" stroke="black" points="1479,-459.25 1479,-480.25 1625,-480.25 1625,-459.25 1479,-459.25"/>
<text text-anchor="start" x="1516.38" y="-463.95" font-family="Times New Roman,Times,Liberation Serif,serif" font-size="14.00">Optional[str]</text>
<polygon fill="none" stroke="black" points="1625,-459.25 1625,-480.25 1691,-480.25 1691,-459.25 1625,-459.25"/>
<text text-anchor="start" x="1628" y="-463.95" font-family="Times New Roman,Times,Liberation Serif,serif" font-size="14.00">string | null</text>
<polygon fill="none" stroke="black" points="1389,-438.25 1389,-459.25 1479,-459.25 1479,-438.25 1389,-438.25"/>
<text text-anchor="start" x="1405.12" y="-442.95" font-family="Times New Roman,Times,Liberation Serif,serif" font-size="14.00">comments</text>
<polygon fill="none" stroke="black" points="1479,-438.25 1479,-459.25 1625,-459.25 1625,-438.25 1479,-438.25"/>
<text text-anchor="start" x="1516.38" y="-442.95" font-family="Times New Roman,Times,Liberation Serif,serif" font-size="14.00">Optional[str]</text>
<polygon fill="none" stroke="black" points="1625,-438.25 1625,-459.25 1691,-459.25 1691,-438.25 1625,-438.25"/>
<text text-anchor="start" x="1628" y="-442.95" font-family="Times New Roman,Times,Liberation Serif,serif" font-size="14.00">string | null</text>
<polygon fill="none" stroke="black" points="1389,-417.25 1389,-438.25 1479,-438.25 1479,-417.25 1389,-417.25"/>
<text text-anchor="start" x="1419.75" y="-421.95" font-family="Times New Roman,Times,Liberation Serif,serif" font-size="14.00">basis</text>
<polygon fill="none" stroke="black" points="1479,-417.25 1479,-438.25 1625,-438.25 1625,-417.25 1479,-417.25"/>
<text text-anchor="start" x="1503.62" y="-421.95" font-family="Times New Roman,Times,Liberation Serif,serif" font-size="14.00">AssessmentBasis</text>
<polygon fill="none" stroke="black" points="1625,-417.25 1625,-438.25 1691,-438.25 1691,-417.25 1625,-417.25"/>
<text text-anchor="start" x="1642.62" y="-421.95" font-family="Times New Roman,Times,Liberation Serif,serif" font-size="14.00">string</text>
<polygon fill="none" stroke="black" points="1389,-396.25 1389,-417.25 1479,-417.25 1479,-396.25 1389,-396.25"/>
<text text-anchor="start" x="1407.38" y="-400.95" font-family="Times New Roman,Times,Liberation Serif,serif" font-size="14.00">variability</text>
<polygon fill="none" stroke="black" points="1479,-396.25 1479,-417.25 1625,-417.25 1625,-396.25 1479,-396.25"/>
<text text-anchor="start" x="1495" y="-400.95" font-family="Times New Roman,Times,Liberation Serif,serif" font-size="14.00">TimeVariabilityType</text>
<polygon fill="none" stroke="black" points="1625,-396.25 1625,-417.25 1691,-417.25 1691,-396.25 1625,-396.25"/>
<text text-anchor="start" x="1642.62" y="-400.95" font-family="Times New Roman,Times,Liberation Serif,serif" font-size="14.00">string</text>
<polygon fill="none" stroke="black" points="1389,-375.25 1389,-396.25 1479,-396.25 1479,-375.25 1389,-375.25"/>
<text text-anchor="start" x="1392" y="-379.95" font-family="Times New Roman,Times,Liberation Serif,serif" font-size="14.00">is_independent</text>
<polygon fill="none" stroke="black" points="1479,-375.25 1479,-396.25 1625,-396.25 1625,-375.25 1479,-375.25"/>
<text text-anchor="start" x="1539.25" y="-379.95" font-family="Times New Roman,Times,Liberation Serif,serif" font-size="14.00">bool</text>
<polygon fill="none" stroke="black" points="1625,-375.25 1625,-396.25 1691,-396.25 1691,-375.25 1625,-375.25"/>
<text text-anchor="start" x="1635.88" y="-379.95" font-family="Times New Roman,Times,Liberation Serif,serif" font-size="14.00">boolean</text>
<polygon fill="none" stroke="black" points="1389,-354.25 1389,-375.25 1479,-375.25 1479,-354.25 1389,-354.25"/>
<text text-anchor="start" x="1416" y="-358.95" font-family="Times New Roman,Times,Liberation Serif,serif" font-size="14.00">results</text>
<polygon fill="none" stroke="black" points="1479,-354.25 1479,-375.25 1625,-375.25 1625,-354.25 1479,-354.25"/>
<text text-anchor="start" x="1481.88" y="-358.95" font-family="Times New Roman,Times,Liberation Serif,serif" font-size="14.00">PlantPerformanceResults</text>
<polygon fill="none" stroke="black" points="1625,-354.25 1625,-375.25 1691,-375.25 1691,-354.25 1625,-354.25"/>
<text text-anchor="start" x="1640.75" y="-358.95" font-family="Times New Roman,Times,Liberation Serif,serif" font-size="14.00">object</text>
</a>
</g>
</g>
<!-- eya_def_tools.data_models.plant_performance.PlantPerformanceSubcategory&#45;&gt;eya_def_tools.data_models.plant_performance.PlantPerformanceSubcategoryElement -->
<g id="edge9" class="edge">
<title>eya_def_tools.data_models.plant_performance.PlantPerformanceSubcategory:e&#45;&gt;eya_def_tools.data_models.plant_performance.PlantPerformanceSubcategoryElement:w</title>
<path fill="none" stroke="black" d="M1290.67,-320.45C1366.69,-332.06 1305.67,-485.27 1369.83,-509.13"/>
<polyline fill="none" stroke="black" points="1281,-319.75 1285.99,-320.11"/>
<polyline fill="none" stroke="black" points="1285.99,-320.11 1290.97,-320.47"/>
<polygon fill="black" stroke="black" points="1378.8,-510.59 1387.95,-516.64 1384.06,-511.45 1388.34,-512.14 1388.34,-512.14 1388.34,-512.14 1384.06,-511.45 1389.39,-507.75 1378.8,-510.59"/>
<ellipse fill="none" stroke="black" cx="1373.16" cy="-509.67" rx="4" ry="4"/>
</g>
<!-- eya_def_tools.data_models.plant_performance.PlantPerformanceSubcategoryElement&#45;&gt;eya_def_tools.data_models.plant_performance.PlantPerformanceResults -->
<g id="edge10" class="edge">
<title>eya_def_tools.data_models.plant_performance.PlantPerformanceSubcategoryElement:e&#45;&gt;eya_def_tools.data_models.plant_performance.PlantPerformanceResults:w</title>
<path fill="none" stroke="black" d="M1700.74,-363.92C1750.1,-355.08 1739.01,-277.78 1784.25,-264.26"/>
<polyline fill="none" stroke="black" points="1691,-364.75 1695.98,-364.33"/>
<polyline fill="none" stroke="black" points="1695.98,-364.33 1700.96,-363.91"/>
<polyline fill="none" stroke="black" points="1799,-262.25 1794.05,-262.93"/>
<polygon fill="black" stroke="black" points="1792.38,-258.11 1793.73,-268.02 1791.75,-268.29 1790.4,-258.38 1792.38,-258.11"/>
<polyline fill="none" stroke="black" points="1794.05,-262.93 1789.09,-263.6"/>
<polygon fill="black" stroke="black" points="1787.42,-258.78 1788.78,-268.69 1786.8,-268.96 1785.44,-259.05 1787.42,-258.78"/>
<polyline fill="none" stroke="black" points="1789.09,-263.6 1784.14,-264.28"/>
</g>
</g>
</svg>
