<?xml version="1.0" encoding="UTF-8" standalone="no"?>
<!DOCTYPE svg PUBLIC "-//W3C//DTD SVG 1.1//EN"
 "http://www.w3.org/Graphics/SVG/1.1/DTD/svg11.dtd">
<!-- Generated by graphviz version 7.0.4 (20221203.1631)
 -->
<!-- Title: Entity Relationship Diagram Pages: 1 -->
<svg width="4534pt" height="641pt"
 viewBox="0.00 0.00 4534.00 641.14" xmlns="http://www.w3.org/2000/svg" xmlns:xlink="http://www.w3.org/1999/xlink">
<g id="graph0" class="graph" transform="scale(1 1) rotate(0) translate(4 637.14)">
<title>Entity Relationship Diagram</title>
<polygon fill="white" stroke="none" points="-4,4 -4,-637.14 4530,-637.14 4530,4 -4,4"/>
<text text-anchor="middle" x="2263" y="-6.8" font-family="Times New Roman,serif" font-size="9.00" fill="#a8a8a8">Created by erdantic v0.6.0 &lt;https://github.com/drivendataorg/erdantic&gt;</text>
<!-- eya_def_tools.data_models.dataset.Dataset -->
<g id="node1" class="node">
<title>eya_def_tools.data_models.dataset.Dataset</title>
<g id="a_node1"><a xlink:title="eya_def_tools.data_models.dataset.Dataset&#10;&#10;Collection of labelled data for one specific quantity.&#10;&#10;The data is labelled by specifying dimensions and including&#10;coordinates along the dimensions for each data value.&#10;&#10;Attributes:&#10; &#160;&#160;&#160;label (Optional[str]): Optional label of the dataset, which should not be empty if the field is included. Default is None.&#10; &#160;&#160;&#160;description (Optional[str]): Optional description of the dataset, which should not be empty if the field is included. Default is None.&#10; &#160;&#160;&#160;comments (Optional[str]): Optional comments on the dataset, which should not be empty if the field is included. Default is None.&#10; &#160;&#160;&#160;assessment_period (Optional[AssessmentPeriod(StrEnum)]): Optional period of or in time that has been assessed and for which the dataset is applicable. This field is to be included only when relevant. Default is None.&#10; &#160;&#160;&#160;dimensions (Optional[list[DatasetDimension(StrEnum)]]): Dimensions along which the dataset is binned. All statistics within the same dataset object must have the same dimensions. The dimensions must correspond to and be listed in the same order as the coordinates for the values of all statistics. A dataset without dimensions can only have a single value for each statistic. Default is None.&#10; &#160;&#160;&#160;statistics (list[DatasetStatistic]): List of dataset statistic objects that each include data values for a specific statistic type. For example, there may be two statistics, one for mean values and one for standard deviation values.&#10;">
<polygon fill="none" stroke="black" points="2269,-230 2269,-251 2629,-251 2629,-230 2269,-230"/>
<text text-anchor="start" x="2425" y="-237.8" font-family="Times New Roman,serif" font-weight="bold" font-size="14.00">Dataset</text>
<polygon fill="none" stroke="black" points="2269,-209 2269,-230 2382,-230 2382,-209 2269,-209"/>
<text text-anchor="start" x="2312.5" y="-215.8" font-family="Times New Roman,serif" font-size="14.00">label</text>
<polygon fill="none" stroke="black" points="2382,-209 2382,-230 2629,-230 2629,-209 2382,-209"/>
<text text-anchor="start" x="2469.5" y="-215.8" font-family="Times New Roman,serif" font-size="14.00">Optional[str]</text>
<polygon fill="none" stroke="black" points="2269,-188 2269,-209 2382,-209 2382,-188 2269,-188"/>
<text text-anchor="start" x="2294" y="-194.8" font-family="Times New Roman,serif" font-size="14.00">description</text>
<polygon fill="none" stroke="black" points="2382,-188 2382,-209 2629,-209 2629,-188 2382,-188"/>
<text text-anchor="start" x="2469.5" y="-194.8" font-family="Times New Roman,serif" font-size="14.00">Optional[str]</text>
<polygon fill="none" stroke="black" points="2269,-167 2269,-188 2382,-188 2382,-167 2269,-167"/>
<text text-anchor="start" x="2296.5" y="-173.8" font-family="Times New Roman,serif" font-size="14.00">comments</text>
<polygon fill="none" stroke="black" points="2382,-167 2382,-188 2629,-188 2629,-167 2382,-167"/>
<text text-anchor="start" x="2469.5" y="-173.8" font-family="Times New Roman,serif" font-size="14.00">Optional[str]</text>
<polygon fill="none" stroke="black" points="2269,-146 2269,-167 2382,-167 2382,-146 2269,-146"/>
<text text-anchor="start" x="2272" y="-152.8" font-family="Times New Roman,serif" font-size="14.00">assessment_period</text>
<polygon fill="none" stroke="black" points="2382,-146 2382,-167 2629,-167 2629,-146 2382,-146"/>
<text text-anchor="start" x="2396" y="-152.8" font-family="Times New Roman,serif" font-size="14.00">Optional[AssessmentPeriod(StrEnum)]</text>
<polygon fill="none" stroke="black" points="2269,-125 2269,-146 2382,-146 2382,-125 2269,-125"/>
<text text-anchor="start" x="2293.5" y="-131.8" font-family="Times New Roman,serif" font-size="14.00">dimensions</text>
<polygon fill="none" stroke="black" points="2382,-125 2382,-146 2629,-146 2629,-125 2382,-125"/>
<text text-anchor="start" x="2385" y="-131.8" font-family="Times New Roman,serif" font-size="14.00">Optional[list[DatasetDimension(StrEnum)]]</text>
<polygon fill="none" stroke="black" points="2269,-104 2269,-125 2382,-125 2382,-104 2269,-104"/>
<text text-anchor="start" x="2301" y="-110.8" font-family="Times New Roman,serif" font-size="14.00">statistics</text>
<polygon fill="none" stroke="black" points="2382,-104 2382,-125 2629,-125 2629,-104 2382,-104"/>
<text text-anchor="start" x="2450" y="-110.8" font-family="Times New Roman,serif" font-size="14.00">list[DatasetStatistic]</text>
</a>
</g>
</g>
<!-- eya_def_tools.data_models.dataset.DatasetStatistic -->
<g id="node2" class="node">
<title>eya_def_tools.data_models.dataset.DatasetStatistic</title>
<g id="a_node2"><a xlink:title="eya_def_tools.data_models.dataset.DatasetStatistic&#10;&#10;Dataset values for one specific statistic type.&#10;&#10;Attributes:&#10; &#160;&#160;&#160;description (Optional[str]): Optional description of the dataset statistic, which should not be empty if the field is included. Default is None.&#10; &#160;&#160;&#160;comments (Optional[str]): Optional comments on the dataset statistic, which should not be empty if the field is included. Default is None.&#10; &#160;&#160;&#160;statistic_type (UnionType[BasicStatisticType(StrEnum), ExceedanceLevelStatisticType]): Type of statistic that the component of the dataset contains. All values must correspond to this statistic.&#10; &#160;&#160;&#160;values (Union[float, Annotated[list[tuple[list[Union[float, int, Annotated[str, FieldInfo(annotation=NoneType, required=True, metadata=[MinLen(min_length=1)])]]], float]], FieldInfo(annotation=NoneType, required=True, metadata=[MinLen(min_length=1)])]]): Dataset value(s) as a single number or &#160;one or more values at coordinates. If more than one value is included the values must be represented together with coordinates. A single value can be included either with or without coordinates. The coordinates must correspond to and be listed the same order as the dimensions specified for the dataset.&#10;">
<polygon fill="none" stroke="black" points="2737,-103 2737,-124 4225,-124 4225,-103 2737,-103"/>
<text text-anchor="start" x="3432.5" y="-110.8" font-family="Times New Roman,serif" font-weight="bold" font-size="14.00">DatasetStatistic</text>
<polygon fill="none" stroke="black" points="2737,-82 2737,-103 2817,-103 2817,-82 2737,-82"/>
<text text-anchor="start" x="2745.5" y="-88.8" font-family="Times New Roman,serif" font-size="14.00">description</text>
<polygon fill="none" stroke="black" points="2817,-82 2817,-103 4225,-103 4225,-82 2817,-82"/>
<text text-anchor="start" x="3485" y="-88.8" font-family="Times New Roman,serif" font-size="14.00">Optional[str]</text>
<polygon fill="none" stroke="black" points="2737,-61 2737,-82 2817,-82 2817,-61 2737,-61"/>
<text text-anchor="start" x="2748" y="-67.8" font-family="Times New Roman,serif" font-size="14.00">comments</text>
<polygon fill="none" stroke="black" points="2817,-61 2817,-82 4225,-82 4225,-61 2817,-61"/>
<text text-anchor="start" x="3485" y="-67.8" font-family="Times New Roman,serif" font-size="14.00">Optional[str]</text>
<polygon fill="none" stroke="black" points="2737,-40 2737,-61 2817,-61 2817,-40 2737,-40"/>
<text text-anchor="start" x="2740" y="-46.8" font-family="Times New Roman,serif" font-size="14.00">statistic_type</text>
<polygon fill="none" stroke="black" points="2817,-40 2817,-61 4225,-61 4225,-40 2817,-40"/>
<text text-anchor="start" x="3315" y="-46.8" font-family="Times New Roman,serif" font-size="14.00">UnionType[BasicStatisticType(StrEnum), ExceedanceLevelStatisticType]</text>
<polygon fill="none" stroke="black" points="2737,-19 2737,-40 2817,-40 2817,-19 2737,-19"/>
<text text-anchor="start" x="2759.5" y="-25.8" font-family="Times New Roman,serif" font-size="14.00">values</text>
<polygon fill="none" stroke="black" points="2817,-19 2817,-40 4225,-40 4225,-19 2817,-19"/>
<text text-anchor="start" x="2820" y="-25.8" font-family="Times New Roman,serif" font-size="14.00">Union[float, Annotated[list[tuple[list[Union[float, int, Annotated[str, FieldInfo(annotation=NoneType, required=True, metadata=[MinLen(min_length=1)])]]], float]], FieldInfo(annotation=NoneType, required=True, metadata=[MinLen(min_length=1)])]]</text>
</a>
</g>
</g>
<!-- eya_def_tools.data_models.dataset.Dataset&#45;&gt;eya_def_tools.data_models.dataset.DatasetStatistic -->
<g id="edge1" class="edge">
<title>eya_def_tools.data_models.dataset.Dataset:e&#45;&gt;eya_def_tools.data_models.dataset.DatasetStatistic:w</title>
<path fill="none" stroke="black" d="M2629,-114C2670.06,-114 2684.78,-114 2718.23,-114"/>
<polygon fill="black" stroke="black" points="2727,-114 2737,-118.5 2732,-114 2737,-114 2737,-114 2737,-114 2732,-114 2737,-109.5 2727,-114 2727,-114"/>
<ellipse fill="none" stroke="black" cx="2722.5" cy="-114" rx="4" ry="4"/>
</g>
<!-- eya_def_tools.data_models.dataset.ExceedanceLevelStatisticType -->
<g id="node3" class="node">
<title>eya_def_tools.data_models.dataset.ExceedanceLevelStatisticType</title>
<g id="a_node3"><a xlink:title="eya_def_tools.data_models.dataset.ExceedanceLevelStatisticType&#10;&#10;Probability of exceedance level statistic type.&#10;&#10;Attributes:&#10; &#160;&#160;&#160;exceedance_level (float): The dimensionless probability of exceedance level (i.e. probability value between 0.0 and 1.0) of the statistic.&#10;">
<polygon fill="none" stroke="black" points="4333.5,-39 4333.5,-60 4526.5,-60 4526.5,-39 4333.5,-39"/>
<text text-anchor="start" x="4336.5" y="-46.8" font-family="Times New Roman,serif" font-weight="bold" font-size="14.00">ExceedanceLevelStatisticType</text>
<polygon fill="none" stroke="black" points="4333.5,-18 4333.5,-39 4465.5,-39 4465.5,-18 4333.5,-18"/>
<text text-anchor="start" x="4351" y="-24.8" font-family="Times New Roman,serif" font-size="14.00">exceedance_level</text>
<polygon fill="none" stroke="black" points="4465.5,-18 4465.5,-39 4526.5,-39 4526.5,-18 4465.5,-18"/>
<text text-anchor="start" x="4483.5" y="-24.8" font-family="Times New Roman,serif" font-size="14.00">float</text>
</a>
</g>
</g>
<!-- eya_def_tools.data_models.dataset.DatasetStatistic&#45;&gt;eya_def_tools.data_models.dataset.ExceedanceLevelStatisticType -->
<g id="edge2" class="edge">
<title>eya_def_tools.data_models.dataset.DatasetStatistic:e&#45;&gt;eya_def_tools.data_models.dataset.ExceedanceLevelStatisticType:w</title>
<path fill="none" stroke="black" d="M4225,-50C4267.75,-50 4281.94,-50 4318.45,-50"/>
<polyline fill="none" stroke="black" points="4333,-50 4328,-50"/>
<polygon fill="black" stroke="black" points="4327,-45 4327,-55 4325,-55 4325,-45 4327,-45"/>
<polyline fill="none" stroke="black" points="4328,-50 4323,-50"/>
<polygon fill="black" stroke="black" points="4322,-45 4322,-55 4320,-55 4320,-45 4322,-45"/>
<polyline fill="none" stroke="black" points="4323,-50 4318,-50"/>
</g>
<!-- eya_def_tools.data_models.plant_performance.PlantPerformanceAssessment -->
<g id="node4" class="node">
<title>eya_def_tools.data_models.plant_performance.PlantPerformanceAssessment</title>
<g id="a_node4"><a xlink:title="eya_def_tools.data_models.plant_performance.PlantPerformanceAssessment&#10;&#10;Plant performance loss assessment broken into categories.&#10;&#10;Attributes:&#10; &#160;&#160;&#160;categories (list[PlantPerformanceCategory]): Plant performance loss assessment categories including results.&#10; &#160;&#160;&#160;results (PlantPerformanceResults): Overall plant performance loss assessment results.&#10;">
<polygon fill="none" stroke="black" points="0,-280 0,-301 244,-301 244,-280 0,-280"/>
<text text-anchor="start" x="30.5" y="-287.8" font-family="Times New Roman,serif" font-weight="bold" font-size="14.00">PlantPerformanceAssessment</text>
<polygon fill="none" stroke="black" points="0,-259 0,-280 63,-280 63,-259 0,-259"/>
<text text-anchor="start" x="3" y="-265.8" font-family="Times New Roman,serif" font-size="14.00">categories</text>
<polygon fill="none" stroke="black" points="63,-259 63,-280 244,-280 244,-259 63,-259"/>
<text text-anchor="start" x="66" y="-265.8" font-family="Times New Roman,serif" font-size="14.00">list[PlantPerformanceCategory]</text>
<polygon fill="none" stroke="black" points="0,-238 0,-259 63,-259 63,-238 0,-238"/>
<text text-anchor="start" x="13" y="-244.8" font-family="Times New Roman,serif" font-size="14.00">results</text>
<polygon fill="none" stroke="black" points="63,-238 63,-259 244,-259 244,-238 63,-238"/>
<text text-anchor="start" x="83" y="-244.8" font-family="Times New Roman,serif" font-size="14.00">PlantPerformanceResults</text>
</a>
</g>
</g>
<!-- eya_def_tools.data_models.plant_performance.PlantPerformanceCategory -->
<g id="node5" class="node">
<title>eya_def_tools.data_models.plant_performance.PlantPerformanceCategory</title>
<g id="a_node5"><a xlink:title="eya_def_tools.data_models.plant_performance.PlantPerformanceCategory&#10;&#10;Plant performance loss assessment category.&#10;&#10;Attributes:&#10; &#160;&#160;&#160;label (PlantPerformanceCategoryLabel(StrEnum)): Label of the plant performance loss category.&#10; &#160;&#160;&#160;description (Optional[str]): Optional description of the plant performance loss category, which should not be empty if the field is included. Default is None.&#10; &#160;&#160;&#160;comments (Optional[str]): Optional comments on the plant performance loss category, which should not be empty if the field is included. Default is None.&#10; &#160;&#160;&#160;subcategories (list[PlantPerformanceSubcategory]): Plant performance loss assessment subcategories that fall under the category. The subcategory objects include details and results at the subcategory level.&#10; &#160;&#160;&#160;results (PlantPerformanceResults): Plant performance assessment category results.&#10;">
<polygon fill="none" stroke="black" points="352,-338 352,-359 680,-359 680,-338 352,-338"/>
<text text-anchor="start" x="431.5" y="-345.8" font-family="Times New Roman,serif" font-weight="bold" font-size="14.00">PlantPerformanceCategory</text>
<polygon fill="none" stroke="black" points="352,-317 352,-338 435,-338 435,-317 352,-317"/>
<text text-anchor="start" x="380.5" y="-323.8" font-family="Times New Roman,serif" font-size="14.00">label</text>
<polygon fill="none" stroke="black" points="435,-317 435,-338 680,-338 680,-317 435,-317"/>
<text text-anchor="start" x="438" y="-323.8" font-family="Times New Roman,serif" font-size="14.00">PlantPerformanceCategoryLabel(StrEnum)</text>
<polygon fill="none" stroke="black" points="352,-296 352,-317 435,-317 435,-296 352,-296"/>
<text text-anchor="start" x="362" y="-302.8" font-family="Times New Roman,serif" font-size="14.00">description</text>
<polygon fill="none" stroke="black" points="435,-296 435,-317 680,-317 680,-296 435,-296"/>
<text text-anchor="start" x="521.5" y="-302.8" font-family="Times New Roman,serif" font-size="14.00">Optional[str]</text>
<polygon fill="none" stroke="black" points="352,-275 352,-296 435,-296 435,-275 352,-275"/>
<text text-anchor="start" x="364.5" y="-281.8" font-family="Times New Roman,serif" font-size="14.00">comments</text>
<polygon fill="none" stroke="black" points="435,-275 435,-296 680,-296 680,-275 435,-275"/>
<text text-anchor="start" x="521.5" y="-281.8" font-family="Times New Roman,serif" font-size="14.00">Optional[str]</text>
<polygon fill="none" stroke="black" points="352,-254 352,-275 435,-275 435,-254 352,-254"/>
<text text-anchor="start" x="355" y="-260.8" font-family="Times New Roman,serif" font-size="14.00">subcategories</text>
<polygon fill="none" stroke="black" points="435,-254 435,-275 680,-275 680,-254 435,-254"/>
<text text-anchor="start" x="460" y="-260.8" font-family="Times New Roman,serif" font-size="14.00">list[PlantPerformanceSubcategory]</text>
<polygon fill="none" stroke="black" points="352,-233 352,-254 435,-254 435,-233 352,-233"/>
<text text-anchor="start" x="375" y="-239.8" font-family="Times New Roman,serif" font-size="14.00">results</text>
<polygon fill="none" stroke="black" points="435,-233 435,-254 680,-254 680,-233 435,-233"/>
<text text-anchor="start" x="487" y="-239.8" font-family="Times New Roman,serif" font-size="14.00">PlantPerformanceResults</text>
</a>
</g>
</g>
<!-- eya_def_tools.data_models.plant_performance.PlantPerformanceAssessment&#45;&gt;eya_def_tools.data_models.plant_performance.PlantPerformanceCategory -->
<g id="edge3" class="edge">
<title>eya_def_tools.data_models.plant_performance.PlantPerformanceAssessment:e&#45;&gt;eya_def_tools.data_models.plant_performance.PlantPerformanceCategory:w</title>
<path fill="none" stroke="black" d="M244,-269C296.62,-269 293.99,-331.07 333.44,-345.86"/>
<polygon fill="black" stroke="black" points="342.14,-347.33 351.25,-353.44 347.07,-348.17 352,-349 352,-349 352,-349 347.07,-348.17 352.75,-344.56 342.14,-347.33 342.14,-347.33"/>
<ellipse fill="none" stroke="black" cx="337.7" cy="-346.58" rx="4" ry="4"/>
</g>
<!-- eya_def_tools.data_models.plant_performance.PlantPerformanceResults -->
<g id="node6" class="node">
<title>eya_def_tools.data_models.plant_performance.PlantPerformanceResults</title>
<g id="a_node6"><a xlink:title="eya_def_tools.data_models.plant_performance.PlantPerformanceResults&#10;&#10;Plant performance loss assessment results.&#10;&#10;Attributes:&#10; &#160;&#160;&#160;efficiency (list[Dataset]): Dimensionless plant performance efficiency (loss factor) results.&#10;">
<polygon fill="none" stroke="black" points="1982,-252 1982,-273 2145,-273 2145,-252 1982,-252"/>
<text text-anchor="start" x="1985" y="-259.8" font-family="Times New Roman,serif" font-weight="bold" font-size="14.00">PlantPerformanceResults</text>
<polygon fill="none" stroke="black" points="1982,-231 1982,-252 2057,-252 2057,-231 1982,-231"/>
<text text-anchor="start" x="1992" y="-237.8" font-family="Times New Roman,serif" font-size="14.00">efficiency</text>
<polygon fill="none" stroke="black" points="2057,-231 2057,-252 2145,-252 2145,-231 2057,-231"/>
<text text-anchor="start" x="2067.5" y="-237.8" font-family="Times New Roman,serif" font-size="14.00">list[Dataset]</text>
</a>
</g>
</g>
<!-- eya_def_tools.data_models.plant_performance.PlantPerformanceAssessment&#45;&gt;eya_def_tools.data_models.plant_performance.PlantPerformanceResults -->
<g id="edge4" class="edge">
<title>eya_def_tools.data_models.plant_performance.PlantPerformanceAssessment:e&#45;&gt;eya_def_tools.data_models.plant_performance.PlantPerformanceResults:w</title>
<path fill="none" stroke="black" d="M244,-248C294.19,-248 302.36,-222.41 352,-215 496.18,-193.46 534.24,-213.02 680,-215 1203.26,-222.11 1335.28,-206.35 1857,-247 1907.1,-250.9 1922.55,-260.83 1966.14,-262.7"/>
<polyline fill="none" stroke="black" points="1981,-263 1976,-262.9"/>
<polygon fill="black" stroke="black" points="1975.1,-257.88 1974.9,-267.88 1972.9,-267.84 1973.1,-257.84 1975.1,-257.88"/>
<polyline fill="none" stroke="black" points="1976,-262.9 1971,-262.8"/>
<polygon fill="black" stroke="black" points="1970.1,-257.78 1969.9,-267.77 1967.9,-267.73 1968.11,-257.73 1970.1,-257.78"/>
<polyline fill="none" stroke="black" points="1971,-262.8 1966,-262.69"/>
</g>
<!-- eya_def_tools.data_models.plant_performance.PlantPerformanceCategory&#45;&gt;eya_def_tools.data_models.plant_performance.PlantPerformanceResults -->
<g id="edge5" class="edge">
<title>eya_def_tools.data_models.plant_performance.PlantPerformanceCategory:e&#45;&gt;eya_def_tools.data_models.plant_performance.PlantPerformanceResults:w</title>
<path fill="none" stroke="black" d="M680,-243C1253.35,-243 1400.21,-262.66 1966.27,-263"/>
<polyline fill="none" stroke="black" points="1981,-263 1976,-263"/>
<polygon fill="black" stroke="black" points="1975,-258 1975,-268 1973,-268 1973,-258 1975,-258"/>
<polyline fill="none" stroke="black" points="1976,-263 1971,-263"/>
<polygon fill="black" stroke="black" points="1970,-258 1970,-268 1968,-268 1968,-258 1970,-258"/>
<polyline fill="none" stroke="black" points="1971,-263 1966,-263"/>
</g>
<!-- eya_def_tools.data_models.plant_performance.PlantPerformanceSubcategory -->
<g id="node7" class="node">
<title>eya_def_tools.data_models.plant_performance.PlantPerformanceSubcategory</title>
<g id="a_node7"><a xlink:title="eya_def_tools.data_models.plant_performance.PlantPerformanceSubcategory&#10;&#10;Plant performance loss assessment subcategory.&#10;&#10;Attributes:&#10; &#160;&#160;&#160;label (PlantPerformanceSubcategoryLabel(StrEnum)): Label of the plant performance loss subcategory.&#10; &#160;&#160;&#160;description (Optional[str]): Optional description of the plant performance loss subcategory, which should not be empty if the field is included. Default is None.&#10; &#160;&#160;&#160;comments (Optional[str]): Optional comments on the plant performance loss subcategory, which should not be empty if the field is included. Default is None.&#10; &#160;&#160;&#160;basis (AssessmentBasis(StrEnum)): Basis of plant performance loss subcategory assessment. The basis describes the level of detail of the calculation or estimate used in the assessment of the subcategory.&#10; &#160;&#160;&#160;variability (TimeVariabilityType(StrEnum)): Considered variability in the plant performance loss subcategory.&#10; &#160;&#160;&#160;assessment_process_descriptions (Optional[list[AssessmentProcessDescription]]): Optional description of calculation processes used in the assessment of the plant performance loss subcategory. The field should not be empty if it is included. Default is None.&#10; &#160;&#160;&#160;elements (Optional[list[PlantPerformanceSubcategoryElement]]): Optional plant performance loss assessment elements that fall under the subcategory. The element objects include details and results at the element level. A breakdown of plant performance loss subcategories into elements is optional and can be included only for a subset of the subcategories, as relevant. Whereas the categories and subcategories are fixed, the user may freely define element labels. Default is None.&#10; &#160;&#160;&#160;results (PlantPerformanceResults): Plant performance assessment subcategory results.&#10;">
<polygon fill="none" stroke="black" points="788.5,-581 788.5,-602 1287.5,-602 1287.5,-581 788.5,-581"/>
<text text-anchor="start" x="943.5" y="-588.8" font-family="Times New Roman,serif" font-weight="bold" font-size="14.00">PlantPerformanceSubcategory</text>
<polygon fill="none" stroke="black" points="788.5,-560 788.5,-581 985.5,-581 985.5,-560 788.5,-560"/>
<text text-anchor="start" x="874" y="-566.8" font-family="Times New Roman,serif" font-size="14.00">label</text>
<polygon fill="none" stroke="black" points="985.5,-560 985.5,-581 1287.5,-581 1287.5,-560 985.5,-560"/>
<text text-anchor="start" x="1007" y="-566.8" font-family="Times New Roman,serif" font-size="14.00">PlantPerformanceSubcategoryLabel(StrEnum)</text>
<polygon fill="none" stroke="black" points="788.5,-539 788.5,-560 985.5,-560 985.5,-539 788.5,-539"/>
<text text-anchor="start" x="855.5" y="-545.8" font-family="Times New Roman,serif" font-size="14.00">description</text>
<polygon fill="none" stroke="black" points="985.5,-539 985.5,-560 1287.5,-560 1287.5,-539 985.5,-539"/>
<text text-anchor="start" x="1100.5" y="-545.8" font-family="Times New Roman,serif" font-size="14.00">Optional[str]</text>
<polygon fill="none" stroke="black" points="788.5,-518 788.5,-539 985.5,-539 985.5,-518 788.5,-518"/>
<text text-anchor="start" x="858" y="-524.8" font-family="Times New Roman,serif" font-size="14.00">comments</text>
<polygon fill="none" stroke="black" points="985.5,-518 985.5,-539 1287.5,-539 1287.5,-518 985.5,-518"/>
<text text-anchor="start" x="1100.5" y="-524.8" font-family="Times New Roman,serif" font-size="14.00">Optional[str]</text>
<polygon fill="none" stroke="black" points="788.5,-497 788.5,-518 985.5,-518 985.5,-497 788.5,-497"/>
<text text-anchor="start" x="872.5" y="-503.8" font-family="Times New Roman,serif" font-size="14.00">basis</text>
<polygon fill="none" stroke="black" points="985.5,-497 985.5,-518 1287.5,-518 1287.5,-497 985.5,-497"/>
<text text-anchor="start" x="1059" y="-503.8" font-family="Times New Roman,serif" font-size="14.00">AssessmentBasis(StrEnum)</text>
<polygon fill="none" stroke="black" points="788.5,-476 788.5,-497 985.5,-497 985.5,-476 788.5,-476"/>
<text text-anchor="start" x="860" y="-482.8" font-family="Times New Roman,serif" font-size="14.00">variability</text>
<polygon fill="none" stroke="black" points="985.5,-476 985.5,-497 1287.5,-497 1287.5,-476 985.5,-476"/>
<text text-anchor="start" x="1050.5" y="-482.8" font-family="Times New Roman,serif" font-size="14.00">TimeVariabilityType(StrEnum)</text>
<polygon fill="none" stroke="black" points="788.5,-455 788.5,-476 985.5,-476 985.5,-455 788.5,-455"/>
<text text-anchor="start" x="791.5" y="-461.8" font-family="Times New Roman,serif" font-size="14.00">assessment_process_descriptions</text>
<polygon fill="none" stroke="black" points="985.5,-455 985.5,-476 1287.5,-476 1287.5,-455 985.5,-455"/>
<text text-anchor="start" x="1007" y="-461.8" font-family="Times New Roman,serif" font-size="14.00">Optional[list[AssessmentProcessDescription]]</text>
<polygon fill="none" stroke="black" points="788.5,-434 788.5,-455 985.5,-455 985.5,-434 788.5,-434"/>
<text text-anchor="start" x="862.5" y="-440.8" font-family="Times New Roman,serif" font-size="14.00">elements</text>
<polygon fill="none" stroke="black" points="985.5,-434 985.5,-455 1287.5,-455 1287.5,-434 985.5,-434"/>
<text text-anchor="start" x="988.5" y="-440.8" font-family="Times New Roman,serif" font-size="14.00">Optional[list[PlantPerformanceSubcategoryElement]]</text>
<polygon fill="none" stroke="black" points="788.5,-413 788.5,-434 985.5,-434 985.5,-413 788.5,-413"/>
<text text-anchor="start" x="868.5" y="-419.8" font-family="Times New Roman,serif" font-size="14.00">results</text>
<polygon fill="none" stroke="black" points="985.5,-413 985.5,-434 1287.5,-434 1287.5,-413 985.5,-413"/>
<text text-anchor="start" x="1066" y="-419.8" font-family="Times New Roman,serif" font-size="14.00">PlantPerformanceResults</text>
</a>
</g>
</g>
<!-- eya_def_tools.data_models.plant_performance.PlantPerformanceCategory&#45;&gt;eya_def_tools.data_models.plant_performance.PlantPerformanceSubcategory -->
<g id="edge6" class="edge">
<title>eya_def_tools.data_models.plant_performance.PlantPerformanceCategory:e&#45;&gt;eya_def_tools.data_models.plant_performance.PlantPerformanceSubcategory:w</title>
<path fill="none" stroke="black" d="M680,-264C826.58,-264 651.69,-563.19 769.39,-590.07"/>
<polygon fill="black" stroke="black" points="778.05,-590.97 787.54,-596.48 783.03,-591.49 788,-592 788,-592 788,-592 783.03,-591.49 788.46,-587.52 778.05,-590.97 778.05,-590.97"/>
<ellipse fill="none" stroke="black" cx="773.58" cy="-590.51" rx="4" ry="4"/>
</g>
<!-- eya_def_tools.data_models.plant_performance.PlantPerformanceResults&#45;&gt;eya_def_tools.data_models.dataset.Dataset -->
<g id="edge7" class="edge">
<title>eya_def_tools.data_models.plant_performance.PlantPerformanceResults:e&#45;&gt;eya_def_tools.data_models.dataset.Dataset:w</title>
<path fill="none" stroke="black" d="M2146,-241C2193.83,-241 2210.28,-241 2250.26,-241"/>
<polygon fill="black" stroke="black" points="2259,-241 2269,-245.5 2264,-241 2269,-241 2269,-241 2269,-241 2264,-241 2269,-236.5 2259,-241 2259,-241"/>
<ellipse fill="none" stroke="black" cx="2254.5" cy="-241" rx="4" ry="4"/>
</g>
<!-- eya_def_tools.data_models.plant_performance.PlantPerformanceSubcategory&#45;&gt;eya_def_tools.data_models.plant_performance.PlantPerformanceResults -->
<g id="edge8" class="edge">
<title>eya_def_tools.data_models.plant_performance.PlantPerformanceSubcategory:e&#45;&gt;eya_def_tools.data_models.plant_performance.PlantPerformanceResults:w</title>
<path fill="none" stroke="black" d="M1287,-423C1343.96,-423 1341.72,-374.13 1395,-354 1453.15,-332.03 1864.45,-270.53 1966.17,-263.63"/>
<polyline fill="none" stroke="black" points="1981,-263 1976,-263.21"/>
<polygon fill="black" stroke="black" points="1974.79,-258.26 1975.22,-268.25 1973.22,-268.34 1972.79,-258.34 1974.79,-258.26"/>
<polyline fill="none" stroke="black" points="1976,-263.21 1971.01,-263.43"/>
<polygon fill="black" stroke="black" points="1969.8,-258.47 1970.22,-268.46 1968.22,-268.55 1967.8,-258.56 1969.8,-258.47"/>
<polyline fill="none" stroke="black" points="1971.01,-263.43 1966.01,-263.64"/>
</g>
<!-- eya_def_tools.data_models.plant_performance.PlantPerformanceSubcategoryElement -->
<g id="node8" class="node">
<title>eya_def_tools.data_models.plant_performance.PlantPerformanceSubcategoryElement</title>
<g id="a_node8"><a xlink:title="eya_def_tools.data_models.plant_performance.PlantPerformanceSubcategoryElement&#10;&#10;Plant performance loss assessment subcategory element.&#10;&#10;Attributes:&#10; &#160;&#160;&#160;label (str): Label of the plant performance loss subcategory element.&#10; &#160;&#160;&#160;description (Optional[str]): Optional description of the plant performance loss subcategory element, which should not be empty if the field is included. Default is None.&#10; &#160;&#160;&#160;comments (Optional[str]): Optional comments on the plant performance loss subcategory element, which should not be empty if the field is included. Default is None.&#10; &#160;&#160;&#160;basis (AssessmentBasis(StrEnum)): Basis of plant performance loss subcategory element assessment. The basis describes the level of detail of the calculation or estimate used in the assessment of the element.&#10; &#160;&#160;&#160;variability (TimeVariabilityType(StrEnum)): Considered variability in the plant performance loss subcategory element.&#10; &#160;&#160;&#160;is_independent (bool): Whether the plant performance loss subcategory element is independent of all other elements. Default is True.&#10; &#160;&#160;&#160;assessment_process_descriptions (Optional[list[AssessmentProcessDescription]]): Description of calculation processes used in the assessment of the plant performance loss subcategory element. Default is None.&#10; &#160;&#160;&#160;results (PlantPerformanceResults): Plant performance assessment subcategory element results.&#10;">
<polygon fill="none" stroke="black" points="1395,-540 1395,-561 1857,-561 1857,-540 1395,-540"/>
<text text-anchor="start" x="1506.5" y="-547.8" font-family="Times New Roman,serif" font-weight="bold" font-size="14.00">PlantPerformanceSubcategoryElement</text>
<polygon fill="none" stroke="black" points="1395,-519 1395,-540 1592,-540 1592,-519 1395,-519"/>
<text text-anchor="start" x="1480.5" y="-525.8" font-family="Times New Roman,serif" font-size="14.00">label</text>
<polygon fill="none" stroke="black" points="1592,-519 1592,-540 1857,-540 1857,-519 1592,-519"/>
<text text-anchor="start" x="1717" y="-525.8" font-family="Times New Roman,serif" font-size="14.00">str</text>
<polygon fill="none" stroke="black" points="1395,-498 1395,-519 1592,-519 1592,-498 1395,-498"/>
<text text-anchor="start" x="1462" y="-504.8" font-family="Times New Roman,serif" font-size="14.00">description</text>
<polygon fill="none" stroke="black" points="1592,-498 1592,-519 1857,-519 1857,-498 1592,-498"/>
<text text-anchor="start" x="1688.5" y="-504.8" font-family="Times New Roman,serif" font-size="14.00">Optional[str]</text>
<polygon fill="none" stroke="black" points="1395,-477 1395,-498 1592,-498 1592,-477 1395,-477"/>
<text text-anchor="start" x="1464.5" y="-483.8" font-family="Times New Roman,serif" font-size="14.00">comments</text>
<polygon fill="none" stroke="black" points="1592,-477 1592,-498 1857,-498 1857,-477 1592,-477"/>
<text text-anchor="start" x="1688.5" y="-483.8" font-family="Times New Roman,serif" font-size="14.00">Optional[str]</text>
<polygon fill="none" stroke="black" points="1395,-456 1395,-477 1592,-477 1592,-456 1395,-456"/>
<text text-anchor="start" x="1479" y="-462.8" font-family="Times New Roman,serif" font-size="14.00">basis</text>
<polygon fill="none" stroke="black" points="1592,-456 1592,-477 1857,-477 1857,-456 1592,-456"/>
<text text-anchor="start" x="1647" y="-462.8" font-family="Times New Roman,serif" font-size="14.00">AssessmentBasis(StrEnum)</text>
<polygon fill="none" stroke="black" points="1395,-435 1395,-456 1592,-456 1592,-435 1395,-435"/>
<text text-anchor="start" x="1466.5" y="-441.8" font-family="Times New Roman,serif" font-size="14.00">variability</text>
<polygon fill="none" stroke="black" points="1592,-435 1592,-456 1857,-456 1857,-435 1592,-435"/>
<text text-anchor="start" x="1638.5" y="-441.8" font-family="Times New Roman,serif" font-size="14.00">TimeVariabilityType(StrEnum)</text>
<polygon fill="none" stroke="black" points="1395,-414 1395,-435 1592,-435 1592,-414 1395,-414"/>
<text text-anchor="start" x="1451" y="-420.8" font-family="Times New Roman,serif" font-size="14.00">is_independent</text>
<polygon fill="none" stroke="black" points="1592,-414 1592,-435 1857,-435 1857,-414 1592,-414"/>
<text text-anchor="start" x="1711.5" y="-420.8" font-family="Times New Roman,serif" font-size="14.00">bool</text>
<polygon fill="none" stroke="black" points="1395,-393 1395,-414 1592,-414 1592,-393 1395,-393"/>
<text text-anchor="start" x="1398" y="-399.8" font-family="Times New Roman,serif" font-size="14.00">assessment_process_descriptions</text>
<polygon fill="none" stroke="black" points="1592,-393 1592,-414 1857,-414 1857,-393 1592,-393"/>
<text text-anchor="start" x="1595" y="-399.8" font-family="Times New Roman,serif" font-size="14.00">Optional[list[AssessmentProcessDescription]]</text>
<polygon fill="none" stroke="black" points="1395,-372 1395,-393 1592,-393 1592,-372 1395,-372"/>
<text text-anchor="start" x="1475" y="-378.8" font-family="Times New Roman,serif" font-size="14.00">results</text>
<polygon fill="none" stroke="black" points="1592,-372 1592,-393 1857,-393 1857,-372 1592,-372"/>
<text text-anchor="start" x="1654" y="-378.8" font-family="Times New Roman,serif" font-size="14.00">PlantPerformanceResults</text>
</a>
</g>
</g>
<!-- eya_def_tools.data_models.plant_performance.PlantPerformanceSubcategory&#45;&gt;eya_def_tools.data_models.plant_performance.PlantPerformanceSubcategoryElement -->
<g id="edge9" class="edge">
<title>eya_def_tools.data_models.plant_performance.PlantPerformanceSubcategory:e&#45;&gt;eya_def_tools.data_models.plant_performance.PlantPerformanceSubcategoryElement:w</title>
<path fill="none" stroke="black" d="M1287,-444C1347.44,-444 1332.1,-529.62 1376.56,-547.68"/>
<polyline fill="none" stroke="black" points="1395,-551 1390.08,-550.11"/>
<polygon fill="black" stroke="black" points="1389.98,-545.02 1388.21,-554.86 1386.24,-554.5 1388.01,-544.66 1389.98,-545.02"/>
<polyline fill="none" stroke="black" points="1390.08,-550.11 1385.16,-549.23"/>
<ellipse fill="none" stroke="black" cx="1380.73" cy="-548.43" rx="4" ry="4"/>
</g>
<!-- eya_def_tools.data_models.process_description.AssessmentProcessDescription -->
<g id="node9" class="node">
<title>eya_def_tools.data_models.process_description.AssessmentProcessDescription</title>
<g id="a_node9"><a xlink:title="eya_def_tools.data_models.process_description.AssessmentProcessDescription&#10;&#10;Description of a process used in an energy yield assessment.&#10;&#10;Attributes:&#10; &#160;&#160;&#160;label (str): Label or name of the process or model.&#10; &#160;&#160;&#160;description (str): Description of the assessment process or model.&#10; &#160;&#160;&#160;comments (Optional[str]): Optional comments on the assessment process or model, which should not be empty if the field is included. Default is None.&#10;">
<polygon fill="none" stroke="black" points="1965,-499 1965,-520 2161,-520 2161,-499 1965,-499"/>
<text text-anchor="start" x="1968" y="-506.8" font-family="Times New Roman,serif" font-weight="bold" font-size="14.00">AssessmentProcessDescription</text>
<polygon fill="none" stroke="black" points="1965,-478 1965,-499 2058,-499 2058,-478 1965,-478"/>
<text text-anchor="start" x="1998.5" y="-484.8" font-family="Times New Roman,serif" font-size="14.00">label</text>
<polygon fill="none" stroke="black" points="2058,-478 2058,-499 2161,-499 2161,-478 2058,-478"/>
<text text-anchor="start" x="2102" y="-484.8" font-family="Times New Roman,serif" font-size="14.00">str</text>
<polygon fill="none" stroke="black" points="1965,-457 1965,-478 2058,-478 2058,-457 1965,-457"/>
<text text-anchor="start" x="1980" y="-463.8" font-family="Times New Roman,serif" font-size="14.00">description</text>
<polygon fill="none" stroke="black" points="2058,-457 2058,-478 2161,-478 2161,-457 2058,-457"/>
<text text-anchor="start" x="2102" y="-463.8" font-family="Times New Roman,serif" font-size="14.00">str</text>
<polygon fill="none" stroke="black" points="1965,-436 1965,-457 2058,-457 2058,-436 1965,-436"/>
<text text-anchor="start" x="1982.5" y="-442.8" font-family="Times New Roman,serif" font-size="14.00">comments</text>
<polygon fill="none" stroke="black" points="2058,-436 2058,-457 2161,-457 2161,-436 2058,-436"/>
<text text-anchor="start" x="2073.5" y="-442.8" font-family="Times New Roman,serif" font-size="14.00">Optional[str]</text>
</a>
</g>
</g>
<!-- eya_def_tools.data_models.plant_performance.PlantPerformanceSubcategory&#45;&gt;eya_def_tools.data_models.process_description.AssessmentProcessDescription -->
<g id="edge10" class="edge">
<title>eya_def_tools.data_models.plant_performance.PlantPerformanceSubcategory:e&#45;&gt;eya_def_tools.data_models.process_description.AssessmentProcessDescription:w</title>
<path fill="none" stroke="black" d="M1287,-465C1357.12,-465 1330.65,-552.15 1395,-580 1583.45,-661.54 1660.1,-638.23 1857,-580 1905,-565.81 1907.89,-522.86 1946.19,-512.34"/>
<polyline fill="none" stroke="black" points="1965,-510 1960.04,-510.62"/>
<polygon fill="black" stroke="black" points="1958.43,-505.78 1959.66,-515.7 1957.68,-515.95 1956.44,-506.03 1958.43,-505.78"/>
<polyline fill="none" stroke="black" points="1960.04,-510.62 1955.08,-511.24"/>
<ellipse fill="none" stroke="black" cx="1950.61" cy="-511.79" rx="4" ry="4"/>
</g>
<!-- eya_def_tools.data_models.plant_performance.PlantPerformanceSubcategoryElement&#45;&gt;eya_def_tools.data_models.plant_performance.PlantPerformanceResults -->
<g id="edge11" class="edge">
<title>eya_def_tools.data_models.plant_performance.PlantPerformanceSubcategoryElement:e&#45;&gt;eya_def_tools.data_models.plant_performance.PlantPerformanceResults:w</title>
<path fill="none" stroke="black" d="M1857,-382C1928.01,-382 1908.14,-279.15 1966.37,-264.68"/>
<polyline fill="none" stroke="black" points="1981,-263 1976.03,-263.57"/>
<polygon fill="black" stroke="black" points="1974.47,-258.72 1975.61,-268.65 1973.62,-268.88 1972.48,-258.95 1974.47,-258.72"/>
<polyline fill="none" stroke="black" points="1976.03,-263.57 1971.07,-264.14"/>
<polygon fill="black" stroke="black" points="1969.5,-259.29 1970.64,-269.22 1968.66,-269.45 1967.51,-259.52 1969.5,-259.29"/>
<polyline fill="none" stroke="black" points="1971.07,-264.14 1966.1,-264.71"/>
</g>
<!-- eya_def_tools.data_models.plant_performance.PlantPerformanceSubcategoryElement&#45;&gt;eya_def_tools.data_models.process_description.AssessmentProcessDescription -->
<g id="edge12" class="edge">
<title>eya_def_tools.data_models.plant_performance.PlantPerformanceSubcategoryElement:e&#45;&gt;eya_def_tools.data_models.process_description.AssessmentProcessDescription:w</title>
<path fill="none" stroke="black" d="M1857,-403C1917.44,-403 1902.1,-488.62 1946.56,-506.68"/>
<polyline fill="none" stroke="black" points="1965,-510 1960.08,-509.11"/>
<polygon fill="black" stroke="black" points="1959.98,-504.02 1958.21,-513.86 1956.24,-513.5 1958.01,-503.66 1959.98,-504.02"/>
<polyline fill="none" stroke="black" points="1960.08,-509.11 1955.16,-508.23"/>
<ellipse fill="none" stroke="black" cx="1950.73" cy="-507.43" rx="4" ry="4"/>
</g>
</g>
</svg>
