<?xml version="1.0" encoding="UTF-8" standalone="no"?>
<!DOCTYPE svg PUBLIC "-//W3C//DTD SVG 1.1//EN"
 "http://www.w3.org/Graphics/SVG/1.1/DTD/svg11.dtd">
<!-- Generated by graphviz version 7.0.4 (20221203.1631)
 -->
<!-- Title: Entity Relationship Diagram Pages: 1 -->
<svg width="2901pt" height="582pt"
 viewBox="0.00 0.00 2901.00 581.69" xmlns="http://www.w3.org/2000/svg" xmlns:xlink="http://www.w3.org/1999/xlink">
<g id="graph0" class="graph" transform="scale(1 1) rotate(0) translate(4 577.69)">
<title>Entity Relationship Diagram</title>
<polygon fill="white" stroke="none" points="-4,4 -4,-577.69 2897,-577.69 2897,4 -4,4"/>
<text text-anchor="middle" x="1446.5" y="-6.8" font-family="Times New Roman,serif" font-size="9.00" fill="#a8a8a8">Created by erdantic v0.5.0 &lt;https://github.com/drivendataorg/erdantic&gt;</text>
<!-- eya_def_tools.data_models.plant_performance.PlantPerformanceCategory -->
<g id="node1" class="node">
<title>eya_def_tools.data_models.plant_performance.PlantPerformanceCategory</title>
<g id="a_node1"><a xlink:title="eya_def_tools.data_models.plant_performance.PlantPerformanceCategory&#10;&#10;Plant performance loss assessment category.&#10;&#10;Attributes:&#10; &#160;&#160;&#160;label (PlantPerformanceCategoryLabel(StrEnum)): Label of the plant performance loss category.&#10; &#160;&#160;&#160;description (Optional[str]): Description of the data object. Default is None.&#10; &#160;&#160;&#160;comments (Optional[str]): Comments on the data object. Default is None.&#10; &#160;&#160;&#160;subcategories (list[PlantPerformanceSubcategory]): Plant performance loss assessment subcategories that fall under the category. The subcategory objects include details and results at the subcategory level.&#10; &#160;&#160;&#160;results (PlantPerformanceResults): Plant performance assessment category results.&#10;">
<polygon fill="none" stroke="black" points="0,-393.5 0,-414.5 328,-414.5 328,-393.5 0,-393.5"/>
<text text-anchor="start" x="79.5" y="-401.3" font-family="Times New Roman,serif" font-weight="bold" font-size="14.00">PlantPerformanceCategory</text>
<polygon fill="none" stroke="black" points="0,-372.5 0,-393.5 83,-393.5 83,-372.5 0,-372.5"/>
<text text-anchor="start" x="28.5" y="-379.3" font-family="Times New Roman,serif" font-size="14.00">label</text>
<polygon fill="none" stroke="black" points="83,-372.5 83,-393.5 328,-393.5 328,-372.5 83,-372.5"/>
<text text-anchor="start" x="86" y="-379.3" font-family="Times New Roman,serif" font-size="14.00">PlantPerformanceCategoryLabel(StrEnum)</text>
<polygon fill="none" stroke="black" points="0,-351.5 0,-372.5 83,-372.5 83,-351.5 0,-351.5"/>
<text text-anchor="start" x="10" y="-358.3" font-family="Times New Roman,serif" font-size="14.00">description</text>
<polygon fill="none" stroke="black" points="83,-351.5 83,-372.5 328,-372.5 328,-351.5 83,-351.5"/>
<text text-anchor="start" x="169.5" y="-358.3" font-family="Times New Roman,serif" font-size="14.00">Optional[str]</text>
<polygon fill="none" stroke="black" points="0,-330.5 0,-351.5 83,-351.5 83,-330.5 0,-330.5"/>
<text text-anchor="start" x="12.5" y="-337.3" font-family="Times New Roman,serif" font-size="14.00">comments</text>
<polygon fill="none" stroke="black" points="83,-330.5 83,-351.5 328,-351.5 328,-330.5 83,-330.5"/>
<text text-anchor="start" x="169.5" y="-337.3" font-family="Times New Roman,serif" font-size="14.00">Optional[str]</text>
<polygon fill="none" stroke="black" points="0,-309.5 0,-330.5 83,-330.5 83,-309.5 0,-309.5"/>
<text text-anchor="start" x="3" y="-316.3" font-family="Times New Roman,serif" font-size="14.00">subcategories</text>
<polygon fill="none" stroke="black" points="83,-309.5 83,-330.5 328,-330.5 328,-309.5 83,-309.5"/>
<text text-anchor="start" x="108" y="-316.3" font-family="Times New Roman,serif" font-size="14.00">list[PlantPerformanceSubcategory]</text>
<polygon fill="none" stroke="black" points="0,-288.5 0,-309.5 83,-309.5 83,-288.5 0,-288.5"/>
<text text-anchor="start" x="23" y="-295.3" font-family="Times New Roman,serif" font-size="14.00">results</text>
<polygon fill="none" stroke="black" points="83,-288.5 83,-309.5 328,-309.5 328,-288.5 83,-288.5"/>
<text text-anchor="start" x="135" y="-295.3" font-family="Times New Roman,serif" font-size="14.00">PlantPerformanceResults</text>
</a>
</g>
</g>
<!-- eya_def_tools.data_models.plant_performance.PlantPerformanceResults -->
<g id="node2" class="node">
<title>eya_def_tools.data_models.plant_performance.PlantPerformanceResults</title>
<g id="a_node2"><a xlink:title="eya_def_tools.data_models.plant_performance.PlantPerformanceResults&#10;&#10;Plant performance loss assessment results.&#10;&#10;Attributes:&#10; &#160;&#160;&#160;efficiency (list[Result]): Dimensionless plant performance efficiency (loss factor) results.&#10;">
<polygon fill="none" stroke="black" points="1630,-250.5 1630,-271.5 1793,-271.5 1793,-250.5 1630,-250.5"/>
<text text-anchor="start" x="1633" y="-258.3" font-family="Times New Roman,serif" font-weight="bold" font-size="14.00">PlantPerformanceResults</text>
<polygon fill="none" stroke="black" points="1630,-229.5 1630,-250.5 1708,-250.5 1708,-229.5 1630,-229.5"/>
<text text-anchor="start" x="1641.5" y="-236.3" font-family="Times New Roman,serif" font-size="14.00">efficiency</text>
<polygon fill="none" stroke="black" points="1708,-229.5 1708,-250.5 1793,-250.5 1793,-229.5 1708,-229.5"/>
<text text-anchor="start" x="1720" y="-236.3" font-family="Times New Roman,serif" font-size="14.00">list[Result]</text>
</a>
</g>
</g>
<!-- eya_def_tools.data_models.plant_performance.PlantPerformanceCategory&#45;&gt;eya_def_tools.data_models.plant_performance.PlantPerformanceResults -->
<g id="edge1" class="edge">
<title>eya_def_tools.data_models.plant_performance.PlantPerformanceCategory:e&#45;&gt;eya_def_tools.data_models.plant_performance.PlantPerformanceResults:w</title>
<path fill="none" stroke="black" d="M328,-298.5C851.72,-298.5 982.95,-199.67 1505,-241.5 1555.32,-245.53 1570.38,-258.63 1614.09,-261.1"/>
<polyline fill="none" stroke="black" points="1629,-261.5 1624,-261.36"/>
<polygon fill="black" stroke="black" points="1623.14,-256.34 1622.87,-266.34 1620.87,-266.28 1621.14,-256.29 1623.14,-256.34"/>
<polyline fill="none" stroke="black" points="1624,-261.36 1619,-261.23"/>
<polygon fill="black" stroke="black" points="1618.14,-256.2 1617.87,-266.2 1615.87,-266.15 1616.14,-256.15 1618.14,-256.2"/>
<polyline fill="none" stroke="black" points="1619,-261.23 1614.01,-261.09"/>
</g>
<!-- eya_def_tools.data_models.plant_performance.PlantPerformanceSubcategory -->
<g id="node3" class="node">
<title>eya_def_tools.data_models.plant_performance.PlantPerformanceSubcategory</title>
<g id="a_node3"><a xlink:title="eya_def_tools.data_models.plant_performance.PlantPerformanceSubcategory&#10;&#10;Plant performance loss assessment subcategory.&#10;&#10;Attributes:&#10; &#160;&#160;&#160;label (PlantPerformanceSubcategoryLabel(StrEnum)): Label of the plant performance loss subcategory.&#10; &#160;&#160;&#160;description (Optional[str]): Description of the data object. Default is None.&#10; &#160;&#160;&#160;comments (Optional[str]): Comments on the data object. Default is None.&#10; &#160;&#160;&#160;basis (AssessmentBasis(StrEnum)): Basis of plant performance loss subcategory assessment. The basis describes the level of detail of the calculation or estimate used in the assessment of the subcategory.&#10; &#160;&#160;&#160;variability (TimeVariabilityType(StrEnum)): Considered variability in the plant performance loss subcategory.&#10; &#160;&#160;&#160;assessment_process_descriptions (Optional[list[AssessmentProcessDescription]]): Description of calculation processes used in the assessment of the plant performance loss subcategory. Default is None.&#10; &#160;&#160;&#160;elements (Optional[list[PlantPerformanceSubcategoryElement]]): Plant performance loss assessment elements that fall under the subcategory. The element objects include details and results at the element level. A breakdown of plant performance loss subcategories into elements is optional and can be included only for a subset of the subcategories, as relevant. Whereas the categories and subcategories are fixed, the user may freely define element labels. Default is None.&#10; &#160;&#160;&#160;results (PlantPerformanceResults): Plant performance assessment subcategory results.&#10;">
<polygon fill="none" stroke="black" points="436.5,-525.5 436.5,-546.5 935.5,-546.5 935.5,-525.5 436.5,-525.5"/>
<text text-anchor="start" x="591.5" y="-533.3" font-family="Times New Roman,serif" font-weight="bold" font-size="14.00">PlantPerformanceSubcategory</text>
<polygon fill="none" stroke="black" points="436.5,-504.5 436.5,-525.5 633.5,-525.5 633.5,-504.5 436.5,-504.5"/>
<text text-anchor="start" x="522" y="-511.3" font-family="Times New Roman,serif" font-size="14.00">label</text>
<polygon fill="none" stroke="black" points="633.5,-504.5 633.5,-525.5 935.5,-525.5 935.5,-504.5 633.5,-504.5"/>
<text text-anchor="start" x="655" y="-511.3" font-family="Times New Roman,serif" font-size="14.00">PlantPerformanceSubcategoryLabel(StrEnum)</text>
<polygon fill="none" stroke="black" points="436.5,-483.5 436.5,-504.5 633.5,-504.5 633.5,-483.5 436.5,-483.5"/>
<text text-anchor="start" x="503.5" y="-490.3" font-family="Times New Roman,serif" font-size="14.00">description</text>
<polygon fill="none" stroke="black" points="633.5,-483.5 633.5,-504.5 935.5,-504.5 935.5,-483.5 633.5,-483.5"/>
<text text-anchor="start" x="748.5" y="-490.3" font-family="Times New Roman,serif" font-size="14.00">Optional[str]</text>
<polygon fill="none" stroke="black" points="436.5,-462.5 436.5,-483.5 633.5,-483.5 633.5,-462.5 436.5,-462.5"/>
<text text-anchor="start" x="506" y="-469.3" font-family="Times New Roman,serif" font-size="14.00">comments</text>
<polygon fill="none" stroke="black" points="633.5,-462.5 633.5,-483.5 935.5,-483.5 935.5,-462.5 633.5,-462.5"/>
<text text-anchor="start" x="748.5" y="-469.3" font-family="Times New Roman,serif" font-size="14.00">Optional[str]</text>
<polygon fill="none" stroke="black" points="436.5,-441.5 436.5,-462.5 633.5,-462.5 633.5,-441.5 436.5,-441.5"/>
<text text-anchor="start" x="520.5" y="-448.3" font-family="Times New Roman,serif" font-size="14.00">basis</text>
<polygon fill="none" stroke="black" points="633.5,-441.5 633.5,-462.5 935.5,-462.5 935.5,-441.5 633.5,-441.5"/>
<text text-anchor="start" x="707" y="-448.3" font-family="Times New Roman,serif" font-size="14.00">AssessmentBasis(StrEnum)</text>
<polygon fill="none" stroke="black" points="436.5,-420.5 436.5,-441.5 633.5,-441.5 633.5,-420.5 436.5,-420.5"/>
<text text-anchor="start" x="508" y="-427.3" font-family="Times New Roman,serif" font-size="14.00">variability</text>
<polygon fill="none" stroke="black" points="633.5,-420.5 633.5,-441.5 935.5,-441.5 935.5,-420.5 633.5,-420.5"/>
<text text-anchor="start" x="698.5" y="-427.3" font-family="Times New Roman,serif" font-size="14.00">TimeVariabilityType(StrEnum)</text>
<polygon fill="none" stroke="black" points="436.5,-399.5 436.5,-420.5 633.5,-420.5 633.5,-399.5 436.5,-399.5"/>
<text text-anchor="start" x="439.5" y="-406.3" font-family="Times New Roman,serif" font-size="14.00">assessment_process_descriptions</text>
<polygon fill="none" stroke="black" points="633.5,-399.5 633.5,-420.5 935.5,-420.5 935.5,-399.5 633.5,-399.5"/>
<text text-anchor="start" x="655" y="-406.3" font-family="Times New Roman,serif" font-size="14.00">Optional[list[AssessmentProcessDescription]]</text>
<polygon fill="none" stroke="black" points="436.5,-378.5 436.5,-399.5 633.5,-399.5 633.5,-378.5 436.5,-378.5"/>
<text text-anchor="start" x="510.5" y="-385.3" font-family="Times New Roman,serif" font-size="14.00">elements</text>
<polygon fill="none" stroke="black" points="633.5,-378.5 633.5,-399.5 935.5,-399.5 935.5,-378.5 633.5,-378.5"/>
<text text-anchor="start" x="636.5" y="-385.3" font-family="Times New Roman,serif" font-size="14.00">Optional[list[PlantPerformanceSubcategoryElement]]</text>
<polygon fill="none" stroke="black" points="436.5,-357.5 436.5,-378.5 633.5,-378.5 633.5,-357.5 436.5,-357.5"/>
<text text-anchor="start" x="516.5" y="-364.3" font-family="Times New Roman,serif" font-size="14.00">results</text>
<polygon fill="none" stroke="black" points="633.5,-357.5 633.5,-378.5 935.5,-378.5 935.5,-357.5 633.5,-357.5"/>
<text text-anchor="start" x="714" y="-364.3" font-family="Times New Roman,serif" font-size="14.00">PlantPerformanceResults</text>
</a>
</g>
</g>
<!-- eya_def_tools.data_models.plant_performance.PlantPerformanceCategory&#45;&gt;eya_def_tools.data_models.plant_performance.PlantPerformanceSubcategory -->
<g id="edge2" class="edge">
<title>eya_def_tools.data_models.plant_performance.PlantPerformanceCategory:e&#45;&gt;eya_def_tools.data_models.plant_performance.PlantPerformanceSubcategory:w</title>
<path fill="none" stroke="black" d="M328,-319.5C428.58,-319.5 341.59,-508.64 417.26,-533.76"/>
<polygon fill="black" stroke="black" points="426.11,-535.05 435.35,-540.95 431.05,-535.78 436,-536.5 436,-536.5 436,-536.5 431.05,-535.78 436.65,-532.05 426.11,-535.05 426.11,-535.05"/>
<ellipse fill="none" stroke="black" cx="421.65" cy="-534.4" rx="4" ry="4"/>
</g>
<!-- eya_def_tools.data_models.result.Result -->
<g id="node4" class="node">
<title>eya_def_tools.data_models.result.Result</title>
<g id="a_node4"><a xlink:title="eya_def_tools.data_models.result.Result&#10;&#10;Collection of results a quantity along specific dimensions.&#10;&#10;Attributes:&#10; &#160;&#160;&#160;label (Optional[str]): Label of the results. Default is None.&#10; &#160;&#160;&#160;description (Optional[str]): Description of the data object. Default is None.&#10; &#160;&#160;&#160;comments (Optional[str]): Comments on the data object. Default is None.&#10; &#160;&#160;&#160;assessment_period (Optional[AssessmentPeriod(StrEnum)]): Period of or in time that has been assessed and for which the results are applicable. Default is None.&#10; &#160;&#160;&#160;dimensions (Optional[tuple[ResultsDimension(StrEnum), ...]]): Dimensions along which the results are binned (all result values in the same results object must have the same dimensions). Default is None.&#10; &#160;&#160;&#160;statistics (list[ResultStatistic]): List of result statistic objects that each include result values for a specific statistic type.&#10;">
<polygon fill="none" stroke="black" points="1917,-228.5 1917,-249.5 2307,-249.5 2307,-228.5 1917,-228.5"/>
<text text-anchor="start" x="2092" y="-236.3" font-family="Times New Roman,serif" font-weight="bold" font-size="14.00">Result</text>
<polygon fill="none" stroke="black" points="1917,-207.5 1917,-228.5 2030,-228.5 2030,-207.5 1917,-207.5"/>
<text text-anchor="start" x="1960.5" y="-214.3" font-family="Times New Roman,serif" font-size="14.00">label</text>
<polygon fill="none" stroke="black" points="2030,-207.5 2030,-228.5 2307,-228.5 2307,-207.5 2030,-207.5"/>
<text text-anchor="start" x="2132.5" y="-214.3" font-family="Times New Roman,serif" font-size="14.00">Optional[str]</text>
<polygon fill="none" stroke="black" points="1917,-186.5 1917,-207.5 2030,-207.5 2030,-186.5 1917,-186.5"/>
<text text-anchor="start" x="1942" y="-193.3" font-family="Times New Roman,serif" font-size="14.00">description</text>
<polygon fill="none" stroke="black" points="2030,-186.5 2030,-207.5 2307,-207.5 2307,-186.5 2030,-186.5"/>
<text text-anchor="start" x="2132.5" y="-193.3" font-family="Times New Roman,serif" font-size="14.00">Optional[str]</text>
<polygon fill="none" stroke="black" points="1917,-165.5 1917,-186.5 2030,-186.5 2030,-165.5 1917,-165.5"/>
<text text-anchor="start" x="1944.5" y="-172.3" font-family="Times New Roman,serif" font-size="14.00">comments</text>
<polygon fill="none" stroke="black" points="2030,-165.5 2030,-186.5 2307,-186.5 2307,-165.5 2030,-165.5"/>
<text text-anchor="start" x="2132.5" y="-172.3" font-family="Times New Roman,serif" font-size="14.00">Optional[str]</text>
<polygon fill="none" stroke="black" points="1917,-144.5 1917,-165.5 2030,-165.5 2030,-144.5 1917,-144.5"/>
<text text-anchor="start" x="1920" y="-151.3" font-family="Times New Roman,serif" font-size="14.00">assessment_period</text>
<polygon fill="none" stroke="black" points="2030,-144.5 2030,-165.5 2307,-165.5 2307,-144.5 2030,-144.5"/>
<text text-anchor="start" x="2059" y="-151.3" font-family="Times New Roman,serif" font-size="14.00">Optional[AssessmentPeriod(StrEnum)]</text>
<polygon fill="none" stroke="black" points="1917,-123.5 1917,-144.5 2030,-144.5 2030,-123.5 1917,-123.5"/>
<text text-anchor="start" x="1941.5" y="-130.3" font-family="Times New Roman,serif" font-size="14.00">dimensions</text>
<polygon fill="none" stroke="black" points="2030,-123.5 2030,-144.5 2307,-144.5 2307,-123.5 2030,-123.5"/>
<text text-anchor="start" x="2033" y="-130.3" font-family="Times New Roman,serif" font-size="14.00">Optional[tuple[ResultsDimension(StrEnum), ...]]</text>
<polygon fill="none" stroke="black" points="1917,-102.5 1917,-123.5 2030,-123.5 2030,-102.5 1917,-102.5"/>
<text text-anchor="start" x="1949" y="-109.3" font-family="Times New Roman,serif" font-size="14.00">statistics</text>
<polygon fill="none" stroke="black" points="2030,-102.5 2030,-123.5 2307,-123.5 2307,-102.5 2030,-102.5"/>
<text text-anchor="start" x="2116" y="-109.3" font-family="Times New Roman,serif" font-size="14.00">list[ResultStatistic]</text>
</a>
</g>
</g>
<!-- eya_def_tools.data_models.plant_performance.PlantPerformanceResults&#45;&gt;eya_def_tools.data_models.result.Result -->
<g id="edge3" class="edge">
<title>eya_def_tools.data_models.plant_performance.PlantPerformanceResults:e&#45;&gt;eya_def_tools.data_models.result.Result:w</title>
<path fill="none" stroke="black" d="M1794,-239.5C1841.83,-239.5 1858.28,-239.5 1898.26,-239.5"/>
<polygon fill="black" stroke="black" points="1907,-239.5 1917,-244 1912,-239.5 1917,-239.5 1917,-239.5 1917,-239.5 1912,-239.5 1917,-235 1907,-239.5 1907,-239.5"/>
<ellipse fill="none" stroke="black" cx="1902.5" cy="-239.5" rx="4" ry="4"/>
</g>
<!-- eya_def_tools.data_models.plant_performance.PlantPerformanceSubcategory&#45;&gt;eya_def_tools.data_models.plant_performance.PlantPerformanceResults -->
<g id="edge4" class="edge">
<title>eya_def_tools.data_models.plant_performance.PlantPerformanceSubcategory:e&#45;&gt;eya_def_tools.data_models.plant_performance.PlantPerformanceResults:w</title>
<path fill="none" stroke="black" d="M935,-367.5C991.96,-367.5 988.86,-316.19 1043,-298.5 1286.33,-219 1365.04,-259.87 1614.29,-261.45"/>
<polyline fill="none" stroke="black" points="1629,-261.5 1624,-261.48"/>
<polygon fill="black" stroke="black" points="1623.02,-256.48 1622.98,-266.48 1620.98,-266.47 1621.02,-256.47 1623.02,-256.48"/>
<polyline fill="none" stroke="black" points="1624,-261.48 1619,-261.47"/>
<polygon fill="black" stroke="black" points="1618.02,-256.46 1617.98,-266.46 1615.98,-266.46 1616.02,-256.46 1618.02,-256.46"/>
<polyline fill="none" stroke="black" points="1619,-261.47 1614,-261.45"/>
</g>
<!-- eya_def_tools.data_models.plant_performance.PlantPerformanceSubcategoryElement -->
<g id="node5" class="node">
<title>eya_def_tools.data_models.plant_performance.PlantPerformanceSubcategoryElement</title>
<g id="a_node5"><a xlink:title="eya_def_tools.data_models.plant_performance.PlantPerformanceSubcategoryElement&#10;&#10;Plant performance loss assessment subcategory element.&#10;&#10;Attributes:&#10; &#160;&#160;&#160;label (str): Label of the plant performance loss subcategory element.&#10; &#160;&#160;&#160;description (Optional[str]): Description of the data object. Default is None.&#10; &#160;&#160;&#160;comments (Optional[str]): Comments on the data object. Default is None.&#10; &#160;&#160;&#160;basis (AssessmentBasis(StrEnum)): Basis of plant performance loss subcategory element assessment. The basis describes the level of detail of the calculation or estimate used in the assessment of the element.&#10; &#160;&#160;&#160;variability (TimeVariabilityType(StrEnum)): Considered variability in the plant performance loss subcategory element.&#10; &#160;&#160;&#160;is_independent (bool): Whether the plant performance loss subcategory element is independent of all other elements. Default is True.&#10; &#160;&#160;&#160;assessment_process_descriptions (Optional[list[AssessmentProcessDescription]]): Description of calculation processes used in the assessment of the plant performance loss subcategory element. Default is None.&#10; &#160;&#160;&#160;results (PlantPerformanceResults): Plant performance assessment subcategory element results.&#10;">
<polygon fill="none" stroke="black" points="1043,-484.5 1043,-505.5 1505,-505.5 1505,-484.5 1043,-484.5"/>
<text text-anchor="start" x="1154.5" y="-492.3" font-family="Times New Roman,serif" font-weight="bold" font-size="14.00">PlantPerformanceSubcategoryElement</text>
<polygon fill="none" stroke="black" points="1043,-463.5 1043,-484.5 1240,-484.5 1240,-463.5 1043,-463.5"/>
<text text-anchor="start" x="1128.5" y="-470.3" font-family="Times New Roman,serif" font-size="14.00">label</text>
<polygon fill="none" stroke="black" points="1240,-463.5 1240,-484.5 1505,-484.5 1505,-463.5 1240,-463.5"/>
<text text-anchor="start" x="1365" y="-470.3" font-family="Times New Roman,serif" font-size="14.00">str</text>
<polygon fill="none" stroke="black" points="1043,-442.5 1043,-463.5 1240,-463.5 1240,-442.5 1043,-442.5"/>
<text text-anchor="start" x="1110" y="-449.3" font-family="Times New Roman,serif" font-size="14.00">description</text>
<polygon fill="none" stroke="black" points="1240,-442.5 1240,-463.5 1505,-463.5 1505,-442.5 1240,-442.5"/>
<text text-anchor="start" x="1336.5" y="-449.3" font-family="Times New Roman,serif" font-size="14.00">Optional[str]</text>
<polygon fill="none" stroke="black" points="1043,-421.5 1043,-442.5 1240,-442.5 1240,-421.5 1043,-421.5"/>
<text text-anchor="start" x="1112.5" y="-428.3" font-family="Times New Roman,serif" font-size="14.00">comments</text>
<polygon fill="none" stroke="black" points="1240,-421.5 1240,-442.5 1505,-442.5 1505,-421.5 1240,-421.5"/>
<text text-anchor="start" x="1336.5" y="-428.3" font-family="Times New Roman,serif" font-size="14.00">Optional[str]</text>
<polygon fill="none" stroke="black" points="1043,-400.5 1043,-421.5 1240,-421.5 1240,-400.5 1043,-400.5"/>
<text text-anchor="start" x="1127" y="-407.3" font-family="Times New Roman,serif" font-size="14.00">basis</text>
<polygon fill="none" stroke="black" points="1240,-400.5 1240,-421.5 1505,-421.5 1505,-400.5 1240,-400.5"/>
<text text-anchor="start" x="1295" y="-407.3" font-family="Times New Roman,serif" font-size="14.00">AssessmentBasis(StrEnum)</text>
<polygon fill="none" stroke="black" points="1043,-379.5 1043,-400.5 1240,-400.5 1240,-379.5 1043,-379.5"/>
<text text-anchor="start" x="1114.5" y="-386.3" font-family="Times New Roman,serif" font-size="14.00">variability</text>
<polygon fill="none" stroke="black" points="1240,-379.5 1240,-400.5 1505,-400.5 1505,-379.5 1240,-379.5"/>
<text text-anchor="start" x="1286.5" y="-386.3" font-family="Times New Roman,serif" font-size="14.00">TimeVariabilityType(StrEnum)</text>
<polygon fill="none" stroke="black" points="1043,-358.5 1043,-379.5 1240,-379.5 1240,-358.5 1043,-358.5"/>
<text text-anchor="start" x="1099" y="-365.3" font-family="Times New Roman,serif" font-size="14.00">is_independent</text>
<polygon fill="none" stroke="black" points="1240,-358.5 1240,-379.5 1505,-379.5 1505,-358.5 1240,-358.5"/>
<text text-anchor="start" x="1359.5" y="-365.3" font-family="Times New Roman,serif" font-size="14.00">bool</text>
<polygon fill="none" stroke="black" points="1043,-337.5 1043,-358.5 1240,-358.5 1240,-337.5 1043,-337.5"/>
<text text-anchor="start" x="1046" y="-344.3" font-family="Times New Roman,serif" font-size="14.00">assessment_process_descriptions</text>
<polygon fill="none" stroke="black" points="1240,-337.5 1240,-358.5 1505,-358.5 1505,-337.5 1240,-337.5"/>
<text text-anchor="start" x="1243" y="-344.3" font-family="Times New Roman,serif" font-size="14.00">Optional[list[AssessmentProcessDescription]]</text>
<polygon fill="none" stroke="black" points="1043,-316.5 1043,-337.5 1240,-337.5 1240,-316.5 1043,-316.5"/>
<text text-anchor="start" x="1123" y="-323.3" font-family="Times New Roman,serif" font-size="14.00">results</text>
<polygon fill="none" stroke="black" points="1240,-316.5 1240,-337.5 1505,-337.5 1505,-316.5 1240,-316.5"/>
<text text-anchor="start" x="1302" y="-323.3" font-family="Times New Roman,serif" font-size="14.00">PlantPerformanceResults</text>
</a>
</g>
</g>
<!-- eya_def_tools.data_models.plant_performance.PlantPerformanceSubcategory&#45;&gt;eya_def_tools.data_models.plant_performance.PlantPerformanceSubcategoryElement -->
<g id="edge5" class="edge">
<title>eya_def_tools.data_models.plant_performance.PlantPerformanceSubcategory:e&#45;&gt;eya_def_tools.data_models.plant_performance.PlantPerformanceSubcategoryElement:w</title>
<path fill="none" stroke="black" d="M935,-388.5C995.44,-388.5 980.1,-474.12 1024.56,-492.18"/>
<polygon fill="black" stroke="black" points="1033.16,-493.73 1042.2,-499.93 1038.08,-494.61 1043,-495.5 1043,-495.5 1043,-495.5 1038.08,-494.61 1043.8,-491.07 1033.16,-493.73 1033.16,-493.73"/>
<ellipse fill="none" stroke="black" cx="1028.73" cy="-492.93" rx="4" ry="4"/>
</g>
<!-- eya_def_tools.data_models.process_description.AssessmentProcessDescription -->
<g id="node6" class="node">
<title>eya_def_tools.data_models.process_description.AssessmentProcessDescription</title>
<g id="a_node6"><a xlink:title="eya_def_tools.data_models.process_description.AssessmentProcessDescription&#10;&#10;Description of a process used in an energy yield assessment.&#10;&#10;Attributes:&#10; &#160;&#160;&#160;name (str): Name of the process or model.&#10; &#160;&#160;&#160;description (Optional[str]): Description of the data object. Default is None.&#10; &#160;&#160;&#160;comments (Optional[str]): Comments on the data object. Default is None.&#10;">
<polygon fill="none" stroke="black" points="1613,-460.5 1613,-481.5 1809,-481.5 1809,-460.5 1613,-460.5"/>
<text text-anchor="start" x="1616" y="-468.3" font-family="Times New Roman,serif" font-weight="bold" font-size="14.00">AssessmentProcessDescription</text>
<polygon fill="none" stroke="black" points="1613,-439.5 1613,-460.5 1706,-460.5 1706,-439.5 1613,-439.5"/>
<text text-anchor="start" x="1644.5" y="-446.3" font-family="Times New Roman,serif" font-size="14.00">name</text>
<polygon fill="none" stroke="black" points="1706,-439.5 1706,-460.5 1809,-460.5 1809,-439.5 1706,-439.5"/>
<text text-anchor="start" x="1750" y="-446.3" font-family="Times New Roman,serif" font-size="14.00">str</text>
<polygon fill="none" stroke="black" points="1613,-418.5 1613,-439.5 1706,-439.5 1706,-418.5 1613,-418.5"/>
<text text-anchor="start" x="1628" y="-425.3" font-family="Times New Roman,serif" font-size="14.00">description</text>
<polygon fill="none" stroke="black" points="1706,-418.5 1706,-439.5 1809,-439.5 1809,-418.5 1706,-418.5"/>
<text text-anchor="start" x="1721.5" y="-425.3" font-family="Times New Roman,serif" font-size="14.00">Optional[str]</text>
<polygon fill="none" stroke="black" points="1613,-397.5 1613,-418.5 1706,-418.5 1706,-397.5 1613,-397.5"/>
<text text-anchor="start" x="1630.5" y="-404.3" font-family="Times New Roman,serif" font-size="14.00">comments</text>
<polygon fill="none" stroke="black" points="1706,-397.5 1706,-418.5 1809,-418.5 1809,-397.5 1706,-397.5"/>
<text text-anchor="start" x="1721.5" y="-404.3" font-family="Times New Roman,serif" font-size="14.00">Optional[str]</text>
</a>
</g>
</g>
<!-- eya_def_tools.data_models.plant_performance.PlantPerformanceSubcategory&#45;&gt;eya_def_tools.data_models.process_description.AssessmentProcessDescription -->
<g id="edge6" class="edge">
<title>eya_def_tools.data_models.plant_performance.PlantPerformanceSubcategory:e&#45;&gt;eya_def_tools.data_models.process_description.AssessmentProcessDescription:w</title>
<path fill="none" stroke="black" d="M935,-409.5C1005.12,-409.5 978.65,-496.65 1043,-524.5 1231.45,-606.04 1304.99,-570.93 1505,-524.5 1550.17,-514.01 1558.01,-481.86 1594.16,-473.5"/>
<polygon fill="black" stroke="black" points="1603.06,-472.56 1613.48,-475.97 1608.03,-472.03 1613,-471.5 1613,-471.5 1613,-471.5 1608.03,-472.03 1612.52,-467.03 1603.06,-472.56 1603.06,-472.56"/>
<ellipse fill="none" stroke="black" cx="1598.58" cy="-473.03" rx="4" ry="4"/>
</g>
<!-- eya_def_tools.data_models.result.ResultStatistic -->
<g id="node7" class="node">
<title>eya_def_tools.data_models.result.ResultStatistic</title>
<g id="a_node7"><a xlink:title="eya_def_tools.data_models.result.ResultStatistic&#10;&#10;Result values for one specific statistic type.&#10;&#10;Attributes:&#10; &#160;&#160;&#160;description (Optional[str]): Description of the data object. Default is None.&#10; &#160;&#160;&#160;comments (Optional[str]): Comments on the data object. Default is None.&#10; &#160;&#160;&#160;statistic_type (StatisticType(StrEnum)): Type of statistic in the results component.&#10; &#160;&#160;&#160;values (UnionType[float, list[tuple[tuple[UnionType[float, int, str], ...], float]]]): Result as a single number or values at coordinates.&#10;">
<polygon fill="none" stroke="black" points="2415,-101.5 2415,-122.5 2893,-122.5 2893,-101.5 2415,-101.5"/>
<text text-anchor="start" x="2609.5" y="-109.3" font-family="Times New Roman,serif" font-weight="bold" font-size="14.00">ResultStatistic</text>
<polygon fill="none" stroke="black" points="2415,-80.5 2415,-101.5 2495,-101.5 2495,-80.5 2415,-80.5"/>
<text text-anchor="start" x="2423.5" y="-87.3" font-family="Times New Roman,serif" font-size="14.00">description</text>
<polygon fill="none" stroke="black" points="2495,-80.5 2495,-101.5 2893,-101.5 2893,-80.5 2495,-80.5"/>
<text text-anchor="start" x="2658" y="-87.3" font-family="Times New Roman,serif" font-size="14.00">Optional[str]</text>
<polygon fill="none" stroke="black" points="2415,-59.5 2415,-80.5 2495,-80.5 2495,-59.5 2415,-59.5"/>
<text text-anchor="start" x="2426" y="-66.3" font-family="Times New Roman,serif" font-size="14.00">comments</text>
<polygon fill="none" stroke="black" points="2495,-59.5 2495,-80.5 2893,-80.5 2893,-59.5 2495,-59.5"/>
<text text-anchor="start" x="2658" y="-66.3" font-family="Times New Roman,serif" font-size="14.00">Optional[str]</text>
<polygon fill="none" stroke="black" points="2415,-38.5 2415,-59.5 2495,-59.5 2495,-38.5 2415,-38.5"/>
<text text-anchor="start" x="2418" y="-45.3" font-family="Times New Roman,serif" font-size="14.00">statistic_type</text>
<polygon fill="none" stroke="black" points="2495,-38.5 2495,-59.5 2893,-59.5 2893,-38.5 2495,-38.5"/>
<text text-anchor="start" x="2628" y="-45.3" font-family="Times New Roman,serif" font-size="14.00">StatisticType(StrEnum)</text>
<polygon fill="none" stroke="black" points="2415,-17.5 2415,-38.5 2495,-38.5 2495,-17.5 2415,-17.5"/>
<text text-anchor="start" x="2437.5" y="-24.3" font-family="Times New Roman,serif" font-size="14.00">values</text>
<polygon fill="none" stroke="black" points="2495,-17.5 2495,-38.5 2893,-38.5 2893,-17.5 2495,-17.5"/>
<text text-anchor="start" x="2498" y="-24.3" font-family="Times New Roman,serif" font-size="14.00">UnionType[float, list[tuple[tuple[UnionType[float, int, str], ...], float]]]</text>
</a>
</g>
</g>
<!-- eya_def_tools.data_models.result.Result&#45;&gt;eya_def_tools.data_models.result.ResultStatistic -->
<g id="edge9" class="edge">
<title>eya_def_tools.data_models.result.Result:e&#45;&gt;eya_def_tools.data_models.result.ResultStatistic:w</title>
<path fill="none" stroke="black" d="M2307,-112.5C2348.06,-112.5 2362.78,-112.5 2396.23,-112.5"/>
<polygon fill="black" stroke="black" points="2405,-112.5 2415,-117 2410,-112.5 2415,-112.5 2415,-112.5 2415,-112.5 2410,-112.5 2415,-108 2405,-112.5 2405,-112.5"/>
<ellipse fill="none" stroke="black" cx="2400.5" cy="-112.5" rx="4" ry="4"/>
</g>
<!-- eya_def_tools.data_models.plant_performance.PlantPerformanceSubcategoryElement&#45;&gt;eya_def_tools.data_models.plant_performance.PlantPerformanceResults -->
<g id="edge7" class="edge">
<title>eya_def_tools.data_models.plant_performance.PlantPerformanceSubcategoryElement:e&#45;&gt;eya_def_tools.data_models.plant_performance.PlantPerformanceResults:w</title>
<path fill="none" stroke="black" d="M1505,-326.5C1561.88,-326.5 1566.39,-272.19 1614.27,-262.86"/>
<polyline fill="none" stroke="black" points="1629,-261.5 1624.02,-261.96"/>
<polygon fill="black" stroke="black" points="1622.57,-257.07 1623.48,-267.03 1621.49,-267.21 1620.57,-257.26 1622.57,-257.07"/>
<polyline fill="none" stroke="black" points="1624.02,-261.96 1619.04,-262.42"/>
<polygon fill="black" stroke="black" points="1617.59,-257.53 1618.51,-267.49 1616.51,-267.67 1615.6,-257.71 1617.59,-257.53"/>
<polyline fill="none" stroke="black" points="1619.04,-262.42 1614.06,-262.88"/>
</g>
<!-- eya_def_tools.data_models.plant_performance.PlantPerformanceSubcategoryElement&#45;&gt;eya_def_tools.data_models.process_description.AssessmentProcessDescription -->
<g id="edge8" class="edge">
<title>eya_def_tools.data_models.plant_performance.PlantPerformanceSubcategoryElement:e&#45;&gt;eya_def_tools.data_models.process_description.AssessmentProcessDescription:w</title>
<path fill="none" stroke="black" d="M1505,-347.5C1570.95,-347.5 1546.31,-448.46 1594.56,-468.18"/>
<polygon fill="black" stroke="black" points="1603.16,-469.73 1612.2,-475.93 1608.08,-470.61 1613,-471.5 1613,-471.5 1613,-471.5 1608.08,-470.61 1613.8,-467.07 1603.16,-469.73 1603.16,-469.73"/>
<ellipse fill="none" stroke="black" cx="1598.73" cy="-468.93" rx="4" ry="4"/>
</g>
</g>
</svg>
