<?xml version="1.0" encoding="UTF-8" standalone="no"?>
<!DOCTYPE svg PUBLIC "-//W3C//DTD SVG 1.1//EN"
 "http://www.w3.org/Graphics/SVG/1.1/DTD/svg11.dtd">
<!-- Generated by graphviz version 11.0.0 (20240428.1522)
 -->
<!-- Title: Entity Relationship Diagram Pages: 1 -->
<svg width="3176pt" height="531pt"
 viewBox="0.00 0.00 3176.00 531.25" xmlns="http://www.w3.org/2000/svg" xmlns:xlink="http://www.w3.org/1999/xlink">
<g id="graph0" class="graph" transform="scale(1 1) rotate(0) translate(4 527.25)">
<title>Entity Relationship Diagram</title>
<polygon fill="white" stroke="none" points="-4,4 -4,-527.25 3172,-527.25 3172,4 -4,4"/>
<text text-anchor="middle" x="1584" y="-6.7" font-family="Times New Roman,serif" font-size="9.00" fill="#a8a8a8">Created by erdantic v0.7.0 &lt;https://github.com/drivendataorg/erdantic&gt;</text>
<!-- eya_def_tools.data_models.dataset.Dataset -->
<g id="node1" class="node">
<title>eya_def_tools.data_models.dataset.Dataset</title>
<g id="a_node1"><a xlink:title="eya_def_tools.data_models.dataset.Dataset&#10;&#10;Collection of labelled data for one specific quantity.&#10;&#10;The data is labelled by specifying dimensions and including&#10;coordinates along the dimensions for each data value.&#10;&#10;Attributes:&#10; &#160;&#160;&#160;label (Optional[str]): Optional label of the dataset, which should not be empty if the field is included. Default is None.&#10; &#160;&#160;&#160;description (Optional[str]): Optional description of the dataset, which should not be empty if the field is included. Default is None.&#10; &#160;&#160;&#160;comments (Optional[str]): Optional comments on the dataset, which should not be empty if the field is included. Default is None.&#10; &#160;&#160;&#160;assessment_period (Optional[AssessmentPeriod(StrEnum)]): Optional period of or in time that has been assessed and for which the dataset is applicable. This field is to be included only when relevant. Default is None.&#10; &#160;&#160;&#160;dimensions (Optional[list[DatasetDimension(StrEnum)]]): Dimensions along which the dataset is binned. All statistics within the same dataset object must have the same dimensions. The dimensions must correspond to and be listed in the same order as the coordinates for the values of all statistics. A dataset without dimensions can only have a single value for each statistic. Default is None.&#10; &#160;&#160;&#160;statistics (list[DatasetStatistic]): List of dataset statistic objects that each include data values for a specific statistic type. For example, there may be two statistics, one for mean values and one for standard deviation values.&#10;">
<polygon fill="none" stroke="black" points="1906,-229.75 1906,-251.75 2264,-251.75 2264,-229.75 1906,-229.75"/>
<text text-anchor="start" x="2061.38" y="-236.45" font-family="Times New Roman,serif" font-weight="bold" font-size="14.00">Dataset</text>
<polygon fill="none" stroke="black" points="1906,-208.75 1906,-229.75 2018,-229.75 2018,-208.75 1906,-208.75"/>
<text text-anchor="start" x="1949.25" y="-213.45" font-family="Times New Roman,serif" font-size="14.00">label</text>
<polygon fill="none" stroke="black" points="2018,-208.75 2018,-229.75 2264,-229.75 2264,-208.75 2018,-208.75"/>
<text text-anchor="start" x="2105.38" y="-213.45" font-family="Times New Roman,serif" font-size="14.00">Optional[str]</text>
<polygon fill="none" stroke="black" points="1906,-187.75 1906,-208.75 2018,-208.75 2018,-187.75 1906,-187.75"/>
<text text-anchor="start" x="1930.88" y="-192.45" font-family="Times New Roman,serif" font-size="14.00">description</text>
<polygon fill="none" stroke="black" points="2018,-187.75 2018,-208.75 2264,-208.75 2264,-187.75 2018,-187.75"/>
<text text-anchor="start" x="2105.38" y="-192.45" font-family="Times New Roman,serif" font-size="14.00">Optional[str]</text>
<polygon fill="none" stroke="black" points="1906,-166.75 1906,-187.75 2018,-187.75 2018,-166.75 1906,-166.75"/>
<text text-anchor="start" x="1933.12" y="-171.45" font-family="Times New Roman,serif" font-size="14.00">comments</text>
<polygon fill="none" stroke="black" points="2018,-166.75 2018,-187.75 2264,-187.75 2264,-166.75 2018,-166.75"/>
<text text-anchor="start" x="2105.38" y="-171.45" font-family="Times New Roman,serif" font-size="14.00">Optional[str]</text>
<polygon fill="none" stroke="black" points="1906,-145.75 1906,-166.75 2018,-166.75 2018,-145.75 1906,-145.75"/>
<text text-anchor="start" x="1908.75" y="-150.45" font-family="Times New Roman,serif" font-size="14.00">assessment_period</text>
<polygon fill="none" stroke="black" points="2018,-145.75 2018,-166.75 2264,-166.75 2264,-145.75 2018,-145.75"/>
<text text-anchor="start" x="2031.88" y="-150.45" font-family="Times New Roman,serif" font-size="14.00">Optional[AssessmentPeriod(StrEnum)]</text>
<polygon fill="none" stroke="black" points="1906,-124.75 1906,-145.75 2018,-145.75 2018,-124.75 1906,-124.75"/>
<text text-anchor="start" x="1930.5" y="-129.45" font-family="Times New Roman,serif" font-size="14.00">dimensions</text>
<polygon fill="none" stroke="black" points="2018,-124.75 2018,-145.75 2264,-145.75 2264,-124.75 2018,-124.75"/>
<text text-anchor="start" x="2021" y="-129.45" font-family="Times New Roman,serif" font-size="14.00">Optional[list[DatasetDimension(StrEnum)]]</text>
<polygon fill="none" stroke="black" points="1906,-103.75 1906,-124.75 2018,-124.75 2018,-103.75 1906,-103.75"/>
<text text-anchor="start" x="1938" y="-108.45" font-family="Times New Roman,serif" font-size="14.00">statistics</text>
<polygon fill="none" stroke="black" points="2018,-103.75 2018,-124.75 2264,-124.75 2264,-103.75 2018,-103.75"/>
<text text-anchor="start" x="2085.88" y="-108.45" font-family="Times New Roman,serif" font-size="14.00">list[DatasetStatistic]</text>
</a>
</g>
</g>
<!-- eya_def_tools.data_models.dataset.DatasetStatistic -->
<g id="node2" class="node">
<title>eya_def_tools.data_models.dataset.DatasetStatistic</title>
<g id="a_node2"><a xlink:title="eya_def_tools.data_models.dataset.DatasetStatistic&#10;&#10;Dataset values for one specific statistic type.&#10;&#10;Attributes:&#10; &#160;&#160;&#160;description (Optional[str]): Optional description of the dataset statistic, which should not be empty if the field is included. Default is None.&#10; &#160;&#160;&#160;comments (Optional[str]): Optional comments on the dataset statistic, which should not be empty if the field is included. Default is None.&#10; &#160;&#160;&#160;statistic_type (UnionType[BasicStatisticType(StrEnum), ExceedanceLevelStatisticType]): Type of statistic that the component of the dataset contains. All values must correspond to this statistic. It can be either the string identifier of a basic statistic type (e.g. &#39;mean&#39;) or a specification of a probability of exceedance level.&#10; &#160;&#160;&#160;values (Union[float, list[tuple[list[Union[int, float, str]], float]]]): Dataset value(s) as a single number or one or more values at coordinates. If more than one value is included the values must be represented together with coordinates. A single value can be included either with or without coordinates. The coordinates must correspond to and be listed the same order as the dimensions specified for the dataset.&#10;">
<polygon fill="none" stroke="black" points="2372,-103.75 2372,-125.75 2868,-125.75 2868,-103.75 2372,-103.75"/>
<text text-anchor="start" x="2571.62" y="-110.45" font-family="Times New Roman,serif" font-weight="bold" font-size="14.00">DatasetStatistic</text>
<polygon fill="none" stroke="black" points="2372,-82.75 2372,-103.75 2451,-103.75 2451,-82.75 2372,-82.75"/>
<text text-anchor="start" x="2380.38" y="-87.45" font-family="Times New Roman,serif" font-size="14.00">description</text>
<polygon fill="none" stroke="black" points="2451,-82.75 2451,-103.75 2868,-103.75 2868,-82.75 2451,-82.75"/>
<text text-anchor="start" x="2623.88" y="-87.45" font-family="Times New Roman,serif" font-size="14.00">Optional[str]</text>
<polygon fill="none" stroke="black" points="2372,-61.75 2372,-82.75 2451,-82.75 2451,-61.75 2372,-61.75"/>
<text text-anchor="start" x="2382.62" y="-66.45" font-family="Times New Roman,serif" font-size="14.00">comments</text>
<polygon fill="none" stroke="black" points="2451,-61.75 2451,-82.75 2868,-82.75 2868,-61.75 2451,-61.75"/>
<text text-anchor="start" x="2623.88" y="-66.45" font-family="Times New Roman,serif" font-size="14.00">Optional[str]</text>
<polygon fill="none" stroke="black" points="2372,-40.75 2372,-61.75 2451,-61.75 2451,-40.75 2372,-40.75"/>
<text text-anchor="start" x="2374.75" y="-45.45" font-family="Times New Roman,serif" font-size="14.00">statistic_type</text>
<polygon fill="none" stroke="black" points="2451,-40.75 2451,-61.75 2868,-61.75 2868,-40.75 2451,-40.75"/>
<text text-anchor="start" x="2453.62" y="-45.45" font-family="Times New Roman,serif" font-size="14.00">UnionType[BasicStatisticType(StrEnum), ExceedanceLevelStatisticType]</text>
<polygon fill="none" stroke="black" points="2372,-19.75 2372,-40.75 2451,-40.75 2451,-19.75 2372,-19.75"/>
<text text-anchor="start" x="2394.25" y="-24.45" font-family="Times New Roman,serif" font-size="14.00">values</text>
<polygon fill="none" stroke="black" points="2451,-19.75 2451,-40.75 2868,-40.75 2868,-19.75 2451,-19.75"/>
<text text-anchor="start" x="2508" y="-24.45" font-family="Times New Roman,serif" font-size="14.00">Union[float, list[tuple[list[Union[int, float, str]], float]]]</text>
</a>
</g>
</g>
<!-- eya_def_tools.data_models.dataset.Dataset&#45;&gt;eya_def_tools.data_models.dataset.DatasetStatistic -->
<g id="edge1" class="edge">
<title>eya_def_tools.data_models.dataset.Dataset:e&#45;&gt;eya_def_tools.data_models.dataset.DatasetStatistic:w</title>
<path fill="none" stroke="black" d="M2264,-114.25C2312,-114.25 2324,-114.75 2372,-114.75"/>
<polygon fill="black" stroke="black" points="2382.24,-124.99 2376.74,-110.49 2377,-119.75 2372.47,-115.22 2372.47,-115.22 2372.47,-115.22 2377,-119.75 2367.74,-119.49 2382.24,-124.99"/>
<ellipse fill="none" stroke="black" cx="2387.45" cy="-130.2" rx="5.66" ry="5.66"/>
</g>
<!-- eya_def_tools.data_models.dataset.ExceedanceLevelStatisticType -->
<g id="node3" class="node">
<title>eya_def_tools.data_models.dataset.ExceedanceLevelStatisticType</title>
<g id="a_node3"><a xlink:title="eya_def_tools.data_models.dataset.ExceedanceLevelStatisticType&#10;&#10;Probability of exceedance level statistic type.&#10;&#10;Attributes:&#10; &#160;&#160;&#160;exceedance_level (float): The dimensionless probability of exceedance level (i.e. probability value between 0.0 and 1.0) of the statistic.&#10;">
<polygon fill="none" stroke="black" points="2976,-40.25 2976,-62.25 3168,-62.25 3168,-40.25 2976,-40.25"/>
<text text-anchor="start" x="2979" y="-46.95" font-family="Times New Roman,serif" font-weight="bold" font-size="14.00">ExceedanceLevelStatisticType</text>
<polygon fill="none" stroke="black" points="2976,-19.25 2976,-40.25 3108,-40.25 3108,-19.25 2976,-19.25"/>
<text text-anchor="start" x="2993.62" y="-23.95" font-family="Times New Roman,serif" font-size="14.00">exceedance_level</text>
<polygon fill="none" stroke="black" points="3108,-19.25 3108,-40.25 3168,-40.25 3168,-19.25 3108,-19.25"/>
<text text-anchor="start" x="3125.62" y="-23.95" font-family="Times New Roman,serif" font-size="14.00">float</text>
</a>
</g>
</g>
<!-- eya_def_tools.data_models.dataset.DatasetStatistic&#45;&gt;eya_def_tools.data_models.dataset.ExceedanceLevelStatisticType -->
<g id="edge2" class="edge">
<title>eya_def_tools.data_models.dataset.DatasetStatistic:e&#45;&gt;eya_def_tools.data_models.dataset.ExceedanceLevelStatisticType:w</title>
<path fill="none" stroke="black" d="M2868,-51.25C2910.75,-51.25 2924.94,-51.25 2961.45,-51.25"/>
<polyline fill="none" stroke="black" points="2976,-51.25 2971,-51.25"/>
<polygon fill="black" stroke="black" points="2970,-46.25 2970,-56.25 2968,-56.25 2968,-46.25 2970,-46.25"/>
<polyline fill="none" stroke="black" points="2971,-51.25 2966,-51.25"/>
<polygon fill="black" stroke="black" points="2965,-46.25 2965,-56.25 2963,-56.25 2963,-46.25 2965,-46.25"/>
<polyline fill="none" stroke="black" points="2966,-51.25 2961,-51.25"/>
</g>
<!-- eya_def_tools.data_models.plant_performance.PlantPerformanceAssessment -->
<g id="node4" class="node">
<title>eya_def_tools.data_models.plant_performance.PlantPerformanceAssessment</title>
<g id="a_node4"><a xlink:title="eya_def_tools.data_models.plant_performance.PlantPerformanceAssessment&#10;&#10;Plant performance loss assessment broken into categories.&#10;&#10;Attributes:&#10; &#160;&#160;&#160;categories (list[PlantPerformanceCategory]): Plant performance loss assessment categories including results.&#10; &#160;&#160;&#160;results (PlantPerformanceResults): Overall plant performance loss assessment results.&#10;">
<polygon fill="none" stroke="black" points="0,-260.75 0,-282.75 242,-282.75 242,-260.75 0,-260.75"/>
<text text-anchor="start" x="29.88" y="-267.45" font-family="Times New Roman,serif" font-weight="bold" font-size="14.00">PlantPerformanceAssessment</text>
<polygon fill="none" stroke="black" points="0,-239.75 0,-260.75 62,-260.75 62,-239.75 0,-239.75"/>
<text text-anchor="start" x="2.88" y="-244.45" font-family="Times New Roman,serif" font-size="14.00">categories</text>
<polygon fill="none" stroke="black" points="62,-239.75 62,-260.75 242,-260.75 242,-239.75 62,-239.75"/>
<text text-anchor="start" x="64.62" y="-244.45" font-family="Times New Roman,serif" font-size="14.00">list[PlantPerformanceCategory]</text>
<polygon fill="none" stroke="black" points="0,-218.75 0,-239.75 62,-239.75 62,-218.75 0,-218.75"/>
<text text-anchor="start" x="13" y="-223.45" font-family="Times New Roman,serif" font-size="14.00">results</text>
<polygon fill="none" stroke="black" points="62,-218.75 62,-239.75 242,-239.75 242,-218.75 62,-218.75"/>
<text text-anchor="start" x="81.88" y="-223.45" font-family="Times New Roman,serif" font-size="14.00">PlantPerformanceResults</text>
</a>
</g>
</g>
<!-- eya_def_tools.data_models.plant_performance.PlantPerformanceCategory -->
<g id="node5" class="node">
<title>eya_def_tools.data_models.plant_performance.PlantPerformanceCategory</title>
<g id="a_node5"><a xlink:title="eya_def_tools.data_models.plant_performance.PlantPerformanceCategory&#10;&#10;Plant performance loss assessment category.&#10;&#10;Attributes:&#10; &#160;&#160;&#160;label (PlantPerformanceCategoryLabel(StrEnum)): Label of the plant performance loss category.&#10; &#160;&#160;&#160;description (Optional[str]): Optional description of the plant performance loss category, which should not be empty if the field is included. Default is None.&#10; &#160;&#160;&#160;comments (Optional[str]): Optional comments on the plant performance loss category, which should not be empty if the field is included. Default is None.&#10; &#160;&#160;&#160;subcategories (list[PlantPerformanceSubcategory]): Plant performance loss assessment subcategories that fall under the category. The subcategory objects include details and results at the subcategory level.&#10; &#160;&#160;&#160;results (PlantPerformanceResults): Plant performance assessment category results.&#10;">
<polygon fill="none" stroke="black" points="350,-319.25 350,-341.25 676,-341.25 676,-319.25 350,-319.25"/>
<text text-anchor="start" x="428.62" y="-325.95" font-family="Times New Roman,serif" font-weight="bold" font-size="14.00">PlantPerformanceCategory</text>
<polygon fill="none" stroke="black" points="350,-298.25 350,-319.25 432,-319.25 432,-298.25 350,-298.25"/>
<text text-anchor="start" x="378.25" y="-302.95" font-family="Times New Roman,serif" font-size="14.00">label</text>
<polygon fill="none" stroke="black" points="432,-298.25 432,-319.25 676,-319.25 676,-298.25 432,-298.25"/>
<text text-anchor="start" x="434.75" y="-302.95" font-family="Times New Roman,serif" font-size="14.00">PlantPerformanceCategoryLabel(StrEnum)</text>
<polygon fill="none" stroke="black" points="350,-277.25 350,-298.25 432,-298.25 432,-277.25 350,-277.25"/>
<text text-anchor="start" x="359.88" y="-281.95" font-family="Times New Roman,serif" font-size="14.00">description</text>
<polygon fill="none" stroke="black" points="432,-277.25 432,-298.25 676,-298.25 676,-277.25 432,-277.25"/>
<text text-anchor="start" x="518.38" y="-281.95" font-family="Times New Roman,serif" font-size="14.00">Optional[str]</text>
<polygon fill="none" stroke="black" points="350,-256.25 350,-277.25 432,-277.25 432,-256.25 350,-256.25"/>
<text text-anchor="start" x="362.12" y="-260.95" font-family="Times New Roman,serif" font-size="14.00">comments</text>
<polygon fill="none" stroke="black" points="432,-256.25 432,-277.25 676,-277.25 676,-256.25 432,-256.25"/>
<text text-anchor="start" x="518.38" y="-260.95" font-family="Times New Roman,serif" font-size="14.00">Optional[str]</text>
<polygon fill="none" stroke="black" points="350,-235.25 350,-256.25 432,-256.25 432,-235.25 350,-235.25"/>
<text text-anchor="start" x="352.75" y="-239.95" font-family="Times New Roman,serif" font-size="14.00">subcategories</text>
<polygon fill="none" stroke="black" points="432,-235.25 432,-256.25 676,-256.25 676,-235.25 432,-235.25"/>
<text text-anchor="start" x="456.88" y="-239.95" font-family="Times New Roman,serif" font-size="14.00">list[PlantPerformanceSubcategory]</text>
<polygon fill="none" stroke="black" points="350,-214.25 350,-235.25 432,-235.25 432,-214.25 350,-214.25"/>
<text text-anchor="start" x="373" y="-218.95" font-family="Times New Roman,serif" font-size="14.00">results</text>
<polygon fill="none" stroke="black" points="432,-214.25 432,-235.25 676,-235.25 676,-214.25 432,-214.25"/>
<text text-anchor="start" x="483.88" y="-218.95" font-family="Times New Roman,serif" font-size="14.00">PlantPerformanceResults</text>
</a>
</g>
</g>
<!-- eya_def_tools.data_models.plant_performance.PlantPerformanceAssessment&#45;&gt;eya_def_tools.data_models.plant_performance.PlantPerformanceCategory -->
<g id="edge3" class="edge">
<title>eya_def_tools.data_models.plant_performance.PlantPerformanceAssessment:e&#45;&gt;eya_def_tools.data_models.plant_performance.PlantPerformanceCategory:w</title>
<path fill="none" stroke="black" d="M242,-250.25C301.73,-250.25 290.27,-330.25 350,-330.25"/>
<polygon fill="black" stroke="black" points="360.24,-340.49 354.74,-325.99 355,-335.25 350.47,-330.72 350.47,-330.72 350.47,-330.72 355,-335.25 345.74,-334.99 360.24,-340.49"/>
<ellipse fill="none" stroke="black" cx="365.45" cy="-345.7" rx="5.66" ry="5.66"/>
</g>
<!-- eya_def_tools.data_models.plant_performance.PlantPerformanceResults -->
<g id="node6" class="node">
<title>eya_def_tools.data_models.plant_performance.PlantPerformanceResults</title>
<g id="a_node6"><a xlink:title="eya_def_tools.data_models.plant_performance.PlantPerformanceResults&#10;&#10;Plant performance loss assessment results.&#10;&#10;Attributes:&#10; &#160;&#160;&#160;efficiency (list[Dataset]): Dimensionless plant performance efficiency (loss factor) results.&#10;">
<polygon fill="none" stroke="black" points="1636,-251.25 1636,-273.25 1798,-273.25 1798,-251.25 1636,-251.25"/>
<text text-anchor="start" x="1638.62" y="-257.95" font-family="Times New Roman,serif" font-weight="bold" font-size="14.00">PlantPerformanceResults</text>
<polygon fill="none" stroke="black" points="1636,-230.25 1636,-251.25 1711,-251.25 1711,-230.25 1636,-230.25"/>
<text text-anchor="start" x="1646.5" y="-234.95" font-family="Times New Roman,serif" font-size="14.00">efficiency</text>
<polygon fill="none" stroke="black" points="1711,-230.25 1711,-251.25 1798,-251.25 1798,-230.25 1711,-230.25"/>
<text text-anchor="start" x="1721.5" y="-234.95" font-family="Times New Roman,serif" font-size="14.00">list[Dataset]</text>
</a>
</g>
</g>
<!-- eya_def_tools.data_models.plant_performance.PlantPerformanceAssessment&#45;&gt;eya_def_tools.data_models.plant_performance.PlantPerformanceResults -->
<g id="edge4" class="edge">
<title>eya_def_tools.data_models.plant_performance.PlantPerformanceAssessment:e&#45;&gt;eya_def_tools.data_models.plant_performance.PlantPerformanceResults:w</title>
<path fill="none" stroke="black" d="M242,-229.25C292.13,-229.25 300.41,-204.05 350,-196.75 493.34,-175.65 531.14,-193.87 676,-196.75 1054.95,-204.29 1153.4,-175.99 1528,-233.75 1571.7,-240.49 1583.85,-257.83 1621.05,-261.54"/>
<polyline fill="none" stroke="black" points="1636,-262.25 1631.01,-262.01"/>
<polygon fill="black" stroke="black" points="1630.24,-256.97 1629.77,-266.96 1627.77,-266.87 1628.25,-256.88 1630.24,-256.97"/>
<polyline fill="none" stroke="black" points="1631.01,-262.01 1626.01,-261.78"/>
<polygon fill="black" stroke="black" points="1625.25,-256.74 1624.78,-266.73 1622.78,-266.63 1623.25,-256.64 1625.25,-256.74"/>
<polyline fill="none" stroke="black" points="1626.01,-261.78 1621.02,-261.54"/>
</g>
<!-- eya_def_tools.data_models.plant_performance.PlantPerformanceCategory&#45;&gt;eya_def_tools.data_models.plant_performance.PlantPerformanceResults -->
<g id="edge5" class="edge">
<title>eya_def_tools.data_models.plant_performance.PlantPerformanceCategory:e&#45;&gt;eya_def_tools.data_models.plant_performance.PlantPerformanceResults:w</title>
<path fill="none" stroke="black" d="M676,-224.75C1054.93,-224.75 1149.44,-240 1528,-256.75 1570.76,-258.64 1584.9,-261.53 1621.43,-262.13"/>
<polyline fill="none" stroke="black" points="1636,-262.25 1631,-262.21"/>
<polygon fill="black" stroke="black" points="1630.04,-257.2 1629.96,-267.2 1627.96,-267.19 1628.04,-257.19 1630.04,-257.2"/>
<polyline fill="none" stroke="black" points="1631,-262.21 1626,-262.17"/>
<polygon fill="black" stroke="black" points="1625.04,-257.16 1624.96,-267.16 1622.96,-267.15 1623.04,-257.15 1625.04,-257.16"/>
<polyline fill="none" stroke="black" points="1626,-262.17 1621,-262.13"/>
</g>
<!-- eya_def_tools.data_models.plant_performance.PlantPerformanceSubcategory -->
<g id="node7" class="node">
<title>eya_def_tools.data_models.plant_performance.PlantPerformanceSubcategory</title>
<g id="a_node7"><a xlink:title="eya_def_tools.data_models.plant_performance.PlantPerformanceSubcategory&#10;&#10;Plant performance loss assessment subcategory.&#10;&#10;Attributes:&#10; &#160;&#160;&#160;label (PlantPerformanceSubcategoryLabel(StrEnum)): Label of the plant performance loss subcategory.&#10; &#160;&#160;&#160;description (Optional[str]): Optional description of the plant performance loss subcategory, which should not be empty if the field is included. Default is None.&#10; &#160;&#160;&#160;comments (Optional[str]): Optional comments on the plant performance loss subcategory, which should not be empty if the field is included. Default is None.&#10; &#160;&#160;&#160;basis (AssessmentBasis(StrEnum)): Basis of plant performance loss subcategory assessment. The basis describes the level of detail of the calculation or estimate used in the assessment of the subcategory.&#10; &#160;&#160;&#160;variability (TimeVariabilityType(StrEnum)): Considered variability in the plant performance loss subcategory.&#10; &#160;&#160;&#160;elements (Optional[list[PlantPerformanceSubcategoryElement]]): Optional plant performance loss assessment elements that fall under the subcategory. The element objects include details and results at the element level. A breakdown of plant performance loss subcategories into elements is optional and can be included only for a subset of the subcategories, as relevant. Whereas the categories and subcategories are fixed, the user may freely define element labels. Default is None.&#10; &#160;&#160;&#160;results (PlantPerformanceResults): Plant performance assessment subcategory results.&#10;">
<polygon fill="none" stroke="black" points="784,-435.25 784,-457.25 1153,-457.25 1153,-435.25 784,-435.25"/>
<text text-anchor="start" x="874.38" y="-441.95" font-family="Times New Roman,serif" font-weight="bold" font-size="14.00">PlantPerformanceSubcategory</text>
<polygon fill="none" stroke="black" points="784,-414.25 784,-435.25 852,-435.25 852,-414.25 784,-414.25"/>
<text text-anchor="start" x="805.25" y="-418.95" font-family="Times New Roman,serif" font-size="14.00">label</text>
<polygon fill="none" stroke="black" points="852,-414.25 852,-435.25 1153,-435.25 1153,-414.25 852,-414.25"/>
<text text-anchor="start" x="873.5" y="-418.95" font-family="Times New Roman,serif" font-size="14.00">PlantPerformanceSubcategoryLabel(StrEnum)</text>
<polygon fill="none" stroke="black" points="784,-393.25 784,-414.25 852,-414.25 852,-393.25 784,-393.25"/>
<text text-anchor="start" x="786.88" y="-397.95" font-family="Times New Roman,serif" font-size="14.00">description</text>
<polygon fill="none" stroke="black" points="852,-393.25 852,-414.25 1153,-414.25 1153,-393.25 852,-393.25"/>
<text text-anchor="start" x="966.88" y="-397.95" font-family="Times New Roman,serif" font-size="14.00">Optional[str]</text>
<polygon fill="none" stroke="black" points="784,-372.25 784,-393.25 852,-393.25 852,-372.25 784,-372.25"/>
<text text-anchor="start" x="789.12" y="-376.95" font-family="Times New Roman,serif" font-size="14.00">comments</text>
<polygon fill="none" stroke="black" points="852,-372.25 852,-393.25 1153,-393.25 1153,-372.25 852,-372.25"/>
<text text-anchor="start" x="966.88" y="-376.95" font-family="Times New Roman,serif" font-size="14.00">Optional[str]</text>
<polygon fill="none" stroke="black" points="784,-351.25 784,-372.25 852,-372.25 852,-351.25 784,-351.25"/>
<text text-anchor="start" x="803.75" y="-355.95" font-family="Times New Roman,serif" font-size="14.00">basis</text>
<polygon fill="none" stroke="black" points="852,-351.25 852,-372.25 1153,-372.25 1153,-351.25 852,-351.25"/>
<text text-anchor="start" x="925.25" y="-355.95" font-family="Times New Roman,serif" font-size="14.00">AssessmentBasis(StrEnum)</text>
<polygon fill="none" stroke="black" points="784,-330.25 784,-351.25 852,-351.25 852,-330.25 784,-330.25"/>
<text text-anchor="start" x="791.38" y="-334.95" font-family="Times New Roman,serif" font-size="14.00">variability</text>
<polygon fill="none" stroke="black" points="852,-330.25 852,-351.25 1153,-351.25 1153,-330.25 852,-330.25"/>
<text text-anchor="start" x="916.62" y="-334.95" font-family="Times New Roman,serif" font-size="14.00">TimeVariabilityType(StrEnum)</text>
<polygon fill="none" stroke="black" points="784,-309.25 784,-330.25 852,-330.25 852,-309.25 784,-309.25"/>
<text text-anchor="start" x="794" y="-313.95" font-family="Times New Roman,serif" font-size="14.00">elements</text>
<polygon fill="none" stroke="black" points="852,-309.25 852,-330.25 1153,-330.25 1153,-309.25 852,-309.25"/>
<text text-anchor="start" x="854.75" y="-313.95" font-family="Times New Roman,serif" font-size="14.00">Optional[list[PlantPerformanceSubcategoryElement]]</text>
<polygon fill="none" stroke="black" points="784,-288.25 784,-309.25 852,-309.25 852,-288.25 784,-288.25"/>
<text text-anchor="start" x="800" y="-292.95" font-family="Times New Roman,serif" font-size="14.00">results</text>
<polygon fill="none" stroke="black" points="852,-288.25 852,-309.25 1153,-309.25 1153,-288.25 852,-288.25"/>
<text text-anchor="start" x="932.38" y="-292.95" font-family="Times New Roman,serif" font-size="14.00">PlantPerformanceResults</text>
</a>
</g>
</g>
<!-- eya_def_tools.data_models.plant_performance.PlantPerformanceCategory&#45;&gt;eya_def_tools.data_models.plant_performance.PlantPerformanceSubcategory -->
<g id="edge6" class="edge">
<title>eya_def_tools.data_models.plant_performance.PlantPerformanceCategory:e&#45;&gt;eya_def_tools.data_models.plant_performance.PlantPerformanceSubcategory:w</title>
<path fill="none" stroke="black" d="M676,-245.75C777.22,-245.75 682.78,-446.25 784,-446.25"/>
<polygon fill="black" stroke="black" points="794.24,-456.49 788.74,-441.99 789,-451.25 784.47,-446.72 784.47,-446.72 784.47,-446.72 789,-451.25 779.74,-450.99 794.24,-456.49"/>
<ellipse fill="none" stroke="black" cx="799.45" cy="-461.7" rx="5.66" ry="5.66"/>
</g>
<!-- eya_def_tools.data_models.plant_performance.PlantPerformanceResults&#45;&gt;eya_def_tools.data_models.dataset.Dataset -->
<g id="edge7" class="edge">
<title>eya_def_tools.data_models.plant_performance.PlantPerformanceResults:e&#45;&gt;eya_def_tools.data_models.dataset.Dataset:w</title>
<path fill="none" stroke="black" d="M1798,-240.75C1846,-240.75 1858,-240.75 1906,-240.75"/>
<polygon fill="black" stroke="black" points="1916.24,-250.99 1910.74,-236.49 1911,-245.75 1906.47,-241.22 1906.47,-241.22 1906.47,-241.22 1911,-245.75 1901.74,-245.49 1916.24,-250.99"/>
<ellipse fill="none" stroke="black" cx="1921.45" cy="-256.2" rx="5.66" ry="5.66"/>
</g>
<!-- eya_def_tools.data_models.plant_performance.PlantPerformanceSubcategory&#45;&gt;eya_def_tools.data_models.plant_performance.PlantPerformanceResults -->
<g id="edge8" class="edge">
<title>eya_def_tools.data_models.plant_performance.PlantPerformanceSubcategory:e&#45;&gt;eya_def_tools.data_models.plant_performance.PlantPerformanceResults:w</title>
<path fill="none" stroke="black" d="M1153,-298.75C1363.23,-298.75 1418.17,-263.94 1621.13,-262.31"/>
<polyline fill="none" stroke="black" points="1636,-262.25 1631,-262.27"/>
<polygon fill="black" stroke="black" points="1629.98,-257.27 1630.02,-267.27 1628.02,-267.28 1627.98,-257.28 1629.98,-257.27"/>
<polyline fill="none" stroke="black" points="1631,-262.27 1626,-262.29"/>
<polygon fill="black" stroke="black" points="1624.98,-257.29 1625.02,-267.29 1623.02,-267.3 1622.98,-257.3 1624.98,-257.29"/>
<polyline fill="none" stroke="black" points="1626,-262.29 1621,-262.31"/>
</g>
<!-- eya_def_tools.data_models.plant_performance.PlantPerformanceSubcategoryElement -->
<g id="node8" class="node">
<title>eya_def_tools.data_models.plant_performance.PlantPerformanceSubcategoryElement</title>
<g id="a_node8"><a xlink:title="eya_def_tools.data_models.plant_performance.PlantPerformanceSubcategoryElement&#10;&#10;Plant performance loss assessment subcategory element.&#10;&#10;Attributes:&#10; &#160;&#160;&#160;label (str): Label of the plant performance loss subcategory element.&#10; &#160;&#160;&#160;description (Optional[str]): Optional description of the plant performance loss subcategory element, which should not be empty if the field is included. Default is None.&#10; &#160;&#160;&#160;comments (Optional[str]): Optional comments on the plant performance loss subcategory element, which should not be empty if the field is included. Default is None.&#10; &#160;&#160;&#160;basis (AssessmentBasis(StrEnum)): Basis of plant performance loss subcategory element assessment. The basis describes the level of detail of the calculation or estimate used in the assessment of the element.&#10; &#160;&#160;&#160;variability (TimeVariabilityType(StrEnum)): Considered variability in the plant performance loss subcategory element.&#10; &#160;&#160;&#160;is_independent (bool): Whether the plant performance loss subcategory element is independent of all other elements. Default is True.&#10; &#160;&#160;&#160;results (PlantPerformanceResults): Plant performance assessment subcategory element results.&#10;">
<polygon fill="none" stroke="black" points="1261,-501.25 1261,-523.25 1528,-523.25 1528,-501.25 1261,-501.25"/>
<text text-anchor="start" x="1275.25" y="-507.95" font-family="Times New Roman,serif" font-weight="bold" font-size="14.00">PlantPerformanceSubcategoryElement</text>
<polygon fill="none" stroke="black" points="1261,-480.25 1261,-501.25 1351,-501.25 1351,-480.25 1261,-480.25"/>
<text text-anchor="start" x="1293.25" y="-484.95" font-family="Times New Roman,serif" font-size="14.00">label</text>
<polygon fill="none" stroke="black" points="1351,-480.25 1351,-501.25 1528,-501.25 1528,-480.25 1351,-480.25"/>
<text text-anchor="start" x="1432.38" y="-484.95" font-family="Times New Roman,serif" font-size="14.00">str</text>
<polygon fill="none" stroke="black" points="1261,-459.25 1261,-480.25 1351,-480.25 1351,-459.25 1261,-459.25"/>
<text text-anchor="start" x="1274.88" y="-463.95" font-family="Times New Roman,serif" font-size="14.00">description</text>
<polygon fill="none" stroke="black" points="1351,-459.25 1351,-480.25 1528,-480.25 1528,-459.25 1351,-459.25"/>
<text text-anchor="start" x="1403.88" y="-463.95" font-family="Times New Roman,serif" font-size="14.00">Optional[str]</text>
<polygon fill="none" stroke="black" points="1261,-438.25 1261,-459.25 1351,-459.25 1351,-438.25 1261,-438.25"/>
<text text-anchor="start" x="1277.12" y="-442.95" font-family="Times New Roman,serif" font-size="14.00">comments</text>
<polygon fill="none" stroke="black" points="1351,-438.25 1351,-459.25 1528,-459.25 1528,-438.25 1351,-438.25"/>
<text text-anchor="start" x="1403.88" y="-442.95" font-family="Times New Roman,serif" font-size="14.00">Optional[str]</text>
<polygon fill="none" stroke="black" points="1261,-417.25 1261,-438.25 1351,-438.25 1351,-417.25 1261,-417.25"/>
<text text-anchor="start" x="1291.75" y="-421.95" font-family="Times New Roman,serif" font-size="14.00">basis</text>
<polygon fill="none" stroke="black" points="1351,-417.25 1351,-438.25 1528,-438.25 1528,-417.25 1351,-417.25"/>
<text text-anchor="start" x="1362.25" y="-421.95" font-family="Times New Roman,serif" font-size="14.00">AssessmentBasis(StrEnum)</text>
<polygon fill="none" stroke="black" points="1261,-396.25 1261,-417.25 1351,-417.25 1351,-396.25 1261,-396.25"/>
<text text-anchor="start" x="1279.38" y="-400.95" font-family="Times New Roman,serif" font-size="14.00">variability</text>
<polygon fill="none" stroke="black" points="1351,-396.25 1351,-417.25 1528,-417.25 1528,-396.25 1351,-396.25"/>
<text text-anchor="start" x="1353.62" y="-400.95" font-family="Times New Roman,serif" font-size="14.00">TimeVariabilityType(StrEnum)</text>
<polygon fill="none" stroke="black" points="1261,-375.25 1261,-396.25 1351,-396.25 1351,-375.25 1261,-375.25"/>
<text text-anchor="start" x="1264" y="-379.95" font-family="Times New Roman,serif" font-size="14.00">is_independent</text>
<polygon fill="none" stroke="black" points="1351,-375.25 1351,-396.25 1528,-396.25 1528,-375.25 1351,-375.25"/>
<text text-anchor="start" x="1426.75" y="-379.95" font-family="Times New Roman,serif" font-size="14.00">bool</text>
<polygon fill="none" stroke="black" points="1261,-354.25 1261,-375.25 1351,-375.25 1351,-354.25 1261,-354.25"/>
<text text-anchor="start" x="1288" y="-358.95" font-family="Times New Roman,serif" font-size="14.00">results</text>
<polygon fill="none" stroke="black" points="1351,-354.25 1351,-375.25 1528,-375.25 1528,-354.25 1351,-354.25"/>
<text text-anchor="start" x="1369.38" y="-358.95" font-family="Times New Roman,serif" font-size="14.00">PlantPerformanceResults</text>
</a>
</g>
</g>
<!-- eya_def_tools.data_models.plant_performance.PlantPerformanceSubcategory&#45;&gt;eya_def_tools.data_models.plant_performance.PlantPerformanceSubcategoryElement -->
<g id="edge9" class="edge">
<title>eya_def_tools.data_models.plant_performance.PlantPerformanceSubcategory:e&#45;&gt;eya_def_tools.data_models.plant_performance.PlantPerformanceSubcategoryElement:w</title>
<path fill="none" stroke="black" d="M1153,-319.75C1244.01,-319.75 1174.67,-485.43 1242.51,-509.38"/>
<polyline fill="none" stroke="black" points="1261,-512.25 1256.06,-511.48"/>
<polygon fill="black" stroke="black" points="1255.84,-506.39 1254.3,-516.27 1252.33,-515.96 1253.86,-506.08 1255.84,-506.39"/>
<polyline fill="none" stroke="black" points="1256.06,-511.48 1251.12,-510.72"/>
<ellipse fill="none" stroke="black" cx="1246.67" cy="-510.03" rx="4" ry="4"/>
</g>
<!-- eya_def_tools.data_models.plant_performance.PlantPerformanceSubcategoryElement&#45;&gt;eya_def_tools.data_models.plant_performance.PlantPerformanceResults -->
<g id="edge10" class="edge">
<title>eya_def_tools.data_models.plant_performance.PlantPerformanceSubcategoryElement:e&#45;&gt;eya_def_tools.data_models.plant_performance.PlantPerformanceResults:w</title>
<path fill="none" stroke="black" d="M1528,-364.75C1588.75,-364.75 1573.21,-278.38 1621.44,-264.21"/>
<polyline fill="none" stroke="black" points="1636,-262.25 1631.04,-262.92"/>
<polygon fill="black" stroke="black" points="1629.39,-258.09 1630.72,-268 1628.74,-268.27 1627.41,-258.36 1629.39,-258.09"/>
<polyline fill="none" stroke="black" points="1631.04,-262.92 1626.09,-263.58"/>
<polygon fill="black" stroke="black" points="1624.43,-258.76 1625.76,-268.67 1623.78,-268.94 1622.45,-259.03 1624.43,-258.76"/>
<polyline fill="none" stroke="black" points="1626.09,-263.58 1621.13,-264.25"/>
</g>
</g>
</svg>
