<?xml version="1.0" encoding="UTF-8" standalone="no"?>
<!DOCTYPE svg PUBLIC "-//W3C//DTD SVG 1.1//EN"
 "http://www.w3.org/Graphics/SVG/1.1/DTD/svg11.dtd">
<!-- Generated by graphviz version 7.0.4 (20221203.1631)
 -->
<!-- Title: Entity Relationship Diagram Pages: 1 -->
<svg width="8196pt" height="621pt"
 viewBox="0.00 0.00 8196.00 621.19" xmlns="http://www.w3.org/2000/svg" xmlns:xlink="http://www.w3.org/1999/xlink">
<g id="graph0" class="graph" transform="scale(1 1) rotate(0) translate(4 617.19)">
<title>Entity Relationship Diagram</title>
<polygon fill="white" stroke="none" points="-4,4 -4,-617.19 8192,-617.19 8192,4 -4,4"/>
<text text-anchor="middle" x="4094" y="-6.8" font-family="Times New Roman,serif" font-size="9.00" fill="#a8a8a8">Created by erdantic v0.6.0 &lt;https://github.com/drivendataorg/erdantic&gt;</text>
<!-- eya_def_tools.data_models.dataset.Dataset -->
<g id="node1" class="node">
<title>eya_def_tools.data_models.dataset.Dataset</title>
<g id="a_node1"><a xlink:title="eya_def_tools.data_models.dataset.Dataset&#10;&#10;Collection of labelled data for one specific quantity.&#10;&#10;The data is labelled by specifying dimensions and including&#10;coordinates along the dimensions for each data value.&#10;&#10;Attributes:&#10; &#160;&#160;&#160;label (Optional[Annotated[str, FieldInfo(annotation=NoneType, required=True, metadata=[MinLen(min_length=1)])]]): Optional label of the dataset, which should not be empty if the field is included. Default is None.&#10; &#160;&#160;&#160;description (Optional[Annotated[str, FieldInfo(annotation=NoneType, required=True, metadata=[MinLen(min_length=1)])]]): Optional description of the dataset, which should not be empty if the field is included. Default is None.&#10; &#160;&#160;&#160;comments (Optional[Annotated[str, FieldInfo(annotation=NoneType, required=True, metadata=[MinLen(min_length=1)])]]): Optional comments on the dataset, which should not be empty if the field is included. Default is None.&#10; &#160;&#160;&#160;assessment_period (Optional[AssessmentPeriod(StrEnum)]): Optional period of or in time that has been assessed and for which the dataset is applicable. This field is to be included only when relevant. Default is None.&#10; &#160;&#160;&#160;dimensions (Optional[list[DatasetDimension(StrEnum)]]): Dimensions along which the dataset is binned. All statistics within the same dataset object must have the same dimensions. The dimensions must correspond to and be listed in the same order as the coordinates for the values of all statistics. A dataset without dimensions can only have a single value for each statistic. Default is None.&#10; &#160;&#160;&#160;statistics (list[DatasetStatistic]): List of dataset statistic objects that each include data values for a specific statistic type. For example, there may be two statistics, one for mean values and one for standard deviation values.&#10;">
<polygon fill="none" stroke="black" points="3486,-230 3486,-251 4226,-251 4226,-230 3486,-230"/>
<text text-anchor="start" x="3832" y="-237.8" font-family="Times New Roman,serif" font-weight="bold" font-size="14.00">Dataset</text>
<polygon fill="none" stroke="black" points="3486,-209 3486,-230 3599,-230 3599,-209 3486,-209"/>
<text text-anchor="start" x="3529.5" y="-215.8" font-family="Times New Roman,serif" font-size="14.00">label</text>
<polygon fill="none" stroke="black" points="3599,-209 3599,-230 4226,-230 4226,-209 3599,-209"/>
<text text-anchor="start" x="3602" y="-215.8" font-family="Times New Roman,serif" font-size="14.00">Optional[Annotated[str, FieldInfo(annotation=NoneType, required=True, metadata=[MinLen(min_length=1)])]]</text>
<polygon fill="none" stroke="black" points="3486,-188 3486,-209 3599,-209 3599,-188 3486,-188"/>
<text text-anchor="start" x="3511" y="-194.8" font-family="Times New Roman,serif" font-size="14.00">description</text>
<polygon fill="none" stroke="black" points="3599,-188 3599,-209 4226,-209 4226,-188 3599,-188"/>
<text text-anchor="start" x="3602" y="-194.8" font-family="Times New Roman,serif" font-size="14.00">Optional[Annotated[str, FieldInfo(annotation=NoneType, required=True, metadata=[MinLen(min_length=1)])]]</text>
<polygon fill="none" stroke="black" points="3486,-167 3486,-188 3599,-188 3599,-167 3486,-167"/>
<text text-anchor="start" x="3513.5" y="-173.8" font-family="Times New Roman,serif" font-size="14.00">comments</text>
<polygon fill="none" stroke="black" points="3599,-167 3599,-188 4226,-188 4226,-167 3599,-167"/>
<text text-anchor="start" x="3602" y="-173.8" font-family="Times New Roman,serif" font-size="14.00">Optional[Annotated[str, FieldInfo(annotation=NoneType, required=True, metadata=[MinLen(min_length=1)])]]</text>
<polygon fill="none" stroke="black" points="3486,-146 3486,-167 3599,-167 3599,-146 3486,-146"/>
<text text-anchor="start" x="3489" y="-152.8" font-family="Times New Roman,serif" font-size="14.00">assessment_period</text>
<polygon fill="none" stroke="black" points="3599,-146 3599,-167 4226,-167 4226,-146 3599,-146"/>
<text text-anchor="start" x="3803" y="-152.8" font-family="Times New Roman,serif" font-size="14.00">Optional[AssessmentPeriod(StrEnum)]</text>
<polygon fill="none" stroke="black" points="3486,-125 3486,-146 3599,-146 3599,-125 3486,-125"/>
<text text-anchor="start" x="3510.5" y="-131.8" font-family="Times New Roman,serif" font-size="14.00">dimensions</text>
<polygon fill="none" stroke="black" points="3599,-125 3599,-146 4226,-146 4226,-125 3599,-125"/>
<text text-anchor="start" x="3792" y="-131.8" font-family="Times New Roman,serif" font-size="14.00">Optional[list[DatasetDimension(StrEnum)]]</text>
<polygon fill="none" stroke="black" points="3486,-104 3486,-125 3599,-125 3599,-104 3486,-104"/>
<text text-anchor="start" x="3518" y="-110.8" font-family="Times New Roman,serif" font-size="14.00">statistics</text>
<polygon fill="none" stroke="black" points="3599,-104 3599,-125 4226,-125 4226,-104 3599,-104"/>
<text text-anchor="start" x="3857" y="-110.8" font-family="Times New Roman,serif" font-size="14.00">list[DatasetStatistic]</text>
</a>
</g>
</g>
<!-- eya_def_tools.data_models.dataset.DatasetStatistic -->
<g id="node2" class="node">
<title>eya_def_tools.data_models.dataset.DatasetStatistic</title>
<g id="a_node2"><a xlink:title="eya_def_tools.data_models.dataset.DatasetStatistic&#10;&#10;Dataset values for one specific statistic type.&#10;&#10;Attributes:&#10; &#160;&#160;&#160;description (Optional[Annotated[str, FieldInfo(annotation=NoneType, required=True, metadata=[MinLen(min_length=1)])]]): Optional description of the dataset statistic, which should not be empty if the field is included. Default is None.&#10; &#160;&#160;&#160;comments (Optional[Annotated[str, FieldInfo(annotation=NoneType, required=True, metadata=[MinLen(min_length=1)])]]): Optional comments on the dataset statistic, which should not be empty if the field is included. Default is None.&#10; &#160;&#160;&#160;statistic_type (UnionType[BasicStatisticType(StrEnum), ExceedanceLevelStatisticType]): Type of statistic that the component of the dataset contains. All values must correspond to this statistic.&#10; &#160;&#160;&#160;values (Union[Annotated[float, FieldInfo(annotation=NoneType, required=True, metadata=[PydanticGeneralMetadata(allow_inf_nan=False)])], Annotated[list[tuple[list[Union[Annotated[float, FieldInfo(annotation=NoneType, required=True, metadata=[PydanticGeneralMetadata(allow_inf_nan=False)])], int, Annotated[str, FieldInfo(annotation=NoneType, required=True, metadata=[MinLen(min_length=1)])]]], Annotated[float, FieldInfo(annotation=NoneType, required=True, metadata=[PydanticGeneralMetadata(allow_inf_nan=False)])]]], FieldInfo(annotation=NoneType, required=True, metadata=[MinLen(min_length=1)])]]): Dataset value(s) as a single number or &#160;one or more values at coordinates. If more than one value is included the values must be represented together with coordinates. A single value can be included either with or without coordinates. The coordinates must correspond to and be listed the same order as the dimensions specified for the dataset.&#10;">
<polygon fill="none" stroke="black" points="4334.5,-103 4334.5,-124 7887.5,-124 7887.5,-103 4334.5,-103"/>
<text text-anchor="start" x="6062.5" y="-110.8" font-family="Times New Roman,serif" font-weight="bold" font-size="14.00">DatasetStatistic</text>
<polygon fill="none" stroke="black" points="4334.5,-82 4334.5,-103 4414.5,-103 4414.5,-82 4334.5,-82"/>
<text text-anchor="start" x="4343" y="-88.8" font-family="Times New Roman,serif" font-size="14.00">description</text>
<polygon fill="none" stroke="black" points="4414.5,-82 4414.5,-103 7887.5,-103 7887.5,-82 4414.5,-82"/>
<text text-anchor="start" x="5840.5" y="-88.8" font-family="Times New Roman,serif" font-size="14.00">Optional[Annotated[str, FieldInfo(annotation=NoneType, required=True, metadata=[MinLen(min_length=1)])]]</text>
<polygon fill="none" stroke="black" points="4334.5,-61 4334.5,-82 4414.5,-82 4414.5,-61 4334.5,-61"/>
<text text-anchor="start" x="4345.5" y="-67.8" font-family="Times New Roman,serif" font-size="14.00">comments</text>
<polygon fill="none" stroke="black" points="4414.5,-61 4414.5,-82 7887.5,-82 7887.5,-61 4414.5,-61"/>
<text text-anchor="start" x="5840.5" y="-67.8" font-family="Times New Roman,serif" font-size="14.00">Optional[Annotated[str, FieldInfo(annotation=NoneType, required=True, metadata=[MinLen(min_length=1)])]]</text>
<polygon fill="none" stroke="black" points="4334.5,-40 4334.5,-61 4414.5,-61 4414.5,-40 4334.5,-40"/>
<text text-anchor="start" x="4337.5" y="-46.8" font-family="Times New Roman,serif" font-size="14.00">statistic_type</text>
<polygon fill="none" stroke="black" points="4414.5,-40 4414.5,-61 7887.5,-61 7887.5,-40 4414.5,-40"/>
<text text-anchor="start" x="5945" y="-46.8" font-family="Times New Roman,serif" font-size="14.00">UnionType[BasicStatisticType(StrEnum), ExceedanceLevelStatisticType]</text>
<polygon fill="none" stroke="black" points="4334.5,-19 4334.5,-40 4414.5,-40 4414.5,-19 4334.5,-19"/>
<text text-anchor="start" x="4357" y="-25.8" font-family="Times New Roman,serif" font-size="14.00">values</text>
<polygon fill="none" stroke="black" points="4414.5,-19 4414.5,-40 7887.5,-40 7887.5,-19 4414.5,-19"/>
<text text-anchor="start" x="4417.5" y="-25.8" font-family="Times New Roman,serif" font-size="14.00">Union[Annotated[float, FieldInfo(annotation=NoneType, required=True, metadata=[PydanticGeneralMetadata(allow_inf_nan=False)])], Annotated[list[tuple[list[Union[Annotated[float, FieldInfo(annotation=NoneType, required=True, metadata=[PydanticGeneralMetadata(allow_inf_nan=False)])], int, Annotated[str, FieldInfo(annotation=NoneType, required=True, metadata=[MinLen(min_length=1)])]]], Annotated[float, FieldInfo(annotation=NoneType, required=True, metadata=[PydanticGeneralMetadata(allow_inf_nan=False)])]]], FieldInfo(annotation=NoneType, required=True, metadata=[MinLen(min_length=1)])]]</text>
</a>
</g>
</g>
<!-- eya_def_tools.data_models.dataset.Dataset&#45;&gt;eya_def_tools.data_models.dataset.DatasetStatistic -->
<g id="edge1" class="edge">
<title>eya_def_tools.data_models.dataset.Dataset:e&#45;&gt;eya_def_tools.data_models.dataset.DatasetStatistic:w</title>
<path fill="none" stroke="black" d="M4226,-114C4267.06,-114 4281.78,-114 4315.23,-114"/>
<polygon fill="black" stroke="black" points="4324,-114 4334,-118.5 4329,-114 4334,-114 4334,-114 4334,-114 4329,-114 4334,-109.5 4324,-114 4324,-114"/>
<ellipse fill="none" stroke="black" cx="4319.5" cy="-114" rx="4" ry="4"/>
</g>
<!-- eya_def_tools.data_models.dataset.ExceedanceLevelStatisticType -->
<g id="node3" class="node">
<title>eya_def_tools.data_models.dataset.ExceedanceLevelStatisticType</title>
<g id="a_node3"><a xlink:title="eya_def_tools.data_models.dataset.ExceedanceLevelStatisticType&#10;&#10;Probability of exceedance level statistic type.&#10;&#10;Attributes:&#10; &#160;&#160;&#160;exceedance_level (float): The dimensionless probability of exceedance level (i.e. probability value between 0.0 and 1.0) of the statistic.&#10;">
<polygon fill="none" stroke="black" points="7995.5,-39 7995.5,-60 8188.5,-60 8188.5,-39 7995.5,-39"/>
<text text-anchor="start" x="7998.5" y="-46.8" font-family="Times New Roman,serif" font-weight="bold" font-size="14.00">ExceedanceLevelStatisticType</text>
<polygon fill="none" stroke="black" points="7995.5,-18 7995.5,-39 8127.5,-39 8127.5,-18 7995.5,-18"/>
<text text-anchor="start" x="8013" y="-24.8" font-family="Times New Roman,serif" font-size="14.00">exceedance_level</text>
<polygon fill="none" stroke="black" points="8127.5,-18 8127.5,-39 8188.5,-39 8188.5,-18 8127.5,-18"/>
<text text-anchor="start" x="8145.5" y="-24.8" font-family="Times New Roman,serif" font-size="14.00">float</text>
</a>
</g>
</g>
<!-- eya_def_tools.data_models.dataset.DatasetStatistic&#45;&gt;eya_def_tools.data_models.dataset.ExceedanceLevelStatisticType -->
<g id="edge2" class="edge">
<title>eya_def_tools.data_models.dataset.DatasetStatistic:e&#45;&gt;eya_def_tools.data_models.dataset.ExceedanceLevelStatisticType:w</title>
<path fill="none" stroke="black" d="M7887,-50C7929.75,-50 7943.94,-50 7980.45,-50"/>
<polyline fill="none" stroke="black" points="7995,-50 7990,-50"/>
<polygon fill="black" stroke="black" points="7989,-45 7989,-55 7987,-55 7987,-45 7989,-45"/>
<polyline fill="none" stroke="black" points="7990,-50 7985,-50"/>
<polygon fill="black" stroke="black" points="7984,-45 7984,-55 7982,-55 7982,-45 7984,-45"/>
<polyline fill="none" stroke="black" points="7985,-50 7980,-50"/>
</g>
<!-- eya_def_tools.data_models.plant_performance.PlantPerformanceCategory -->
<g id="node4" class="node">
<title>eya_def_tools.data_models.plant_performance.PlantPerformanceCategory</title>
<g id="a_node4"><a xlink:title="eya_def_tools.data_models.plant_performance.PlantPerformanceCategory&#10;&#10;Plant performance loss assessment category.&#10;&#10;Attributes:&#10; &#160;&#160;&#160;label (PlantPerformanceCategoryLabel(StrEnum)): Label of the plant performance loss category.&#10; &#160;&#160;&#160;description (Optional[Annotated[str, FieldInfo(annotation=NoneType, required=True, metadata=[MinLen(min_length=1)])]]): Optional description of the plant performance loss category, which should not be empty if the field is included. Default is None.&#10; &#160;&#160;&#160;comments (Optional[Annotated[str, FieldInfo(annotation=NoneType, required=True, metadata=[MinLen(min_length=1)])]]): Optional comments on the plant performance loss category, which should not be empty if the field is included. Default is None.&#10; &#160;&#160;&#160;subcategories (list[PlantPerformanceSubcategory]): Plant performance loss assessment subcategories that fall under the category. The subcategory objects include details and results at the subcategory level.&#10; &#160;&#160;&#160;results (PlantPerformanceResults): Plant performance assessment category results.&#10;">
<polygon fill="none" stroke="black" points="0,-395 0,-416 710,-416 710,-395 0,-395"/>
<text text-anchor="start" x="270.5" y="-402.8" font-family="Times New Roman,serif" font-weight="bold" font-size="14.00">PlantPerformanceCategory</text>
<polygon fill="none" stroke="black" points="0,-374 0,-395 83,-395 83,-374 0,-374"/>
<text text-anchor="start" x="28.5" y="-380.8" font-family="Times New Roman,serif" font-size="14.00">label</text>
<polygon fill="none" stroke="black" points="83,-374 83,-395 710,-395 710,-374 83,-374"/>
<text text-anchor="start" x="277" y="-380.8" font-family="Times New Roman,serif" font-size="14.00">PlantPerformanceCategoryLabel(StrEnum)</text>
<polygon fill="none" stroke="black" points="0,-353 0,-374 83,-374 83,-353 0,-353"/>
<text text-anchor="start" x="10" y="-359.8" font-family="Times New Roman,serif" font-size="14.00">description</text>
<polygon fill="none" stroke="black" points="83,-353 83,-374 710,-374 710,-353 83,-353"/>
<text text-anchor="start" x="86" y="-359.8" font-family="Times New Roman,serif" font-size="14.00">Optional[Annotated[str, FieldInfo(annotation=NoneType, required=True, metadata=[MinLen(min_length=1)])]]</text>
<polygon fill="none" stroke="black" points="0,-332 0,-353 83,-353 83,-332 0,-332"/>
<text text-anchor="start" x="12.5" y="-338.8" font-family="Times New Roman,serif" font-size="14.00">comments</text>
<polygon fill="none" stroke="black" points="83,-332 83,-353 710,-353 710,-332 83,-332"/>
<text text-anchor="start" x="86" y="-338.8" font-family="Times New Roman,serif" font-size="14.00">Optional[Annotated[str, FieldInfo(annotation=NoneType, required=True, metadata=[MinLen(min_length=1)])]]</text>
<polygon fill="none" stroke="black" points="0,-311 0,-332 83,-332 83,-311 0,-311"/>
<text text-anchor="start" x="3" y="-317.8" font-family="Times New Roman,serif" font-size="14.00">subcategories</text>
<polygon fill="none" stroke="black" points="83,-311 83,-332 710,-332 710,-311 83,-311"/>
<text text-anchor="start" x="299" y="-317.8" font-family="Times New Roman,serif" font-size="14.00">list[PlantPerformanceSubcategory]</text>
<polygon fill="none" stroke="black" points="0,-290 0,-311 83,-311 83,-290 0,-290"/>
<text text-anchor="start" x="23" y="-296.8" font-family="Times New Roman,serif" font-size="14.00">results</text>
<polygon fill="none" stroke="black" points="83,-290 83,-311 710,-311 710,-290 83,-290"/>
<text text-anchor="start" x="326" y="-296.8" font-family="Times New Roman,serif" font-size="14.00">PlantPerformanceResults</text>
</a>
</g>
</g>
<!-- eya_def_tools.data_models.plant_performance.PlantPerformanceResults -->
<g id="node5" class="node">
<title>eya_def_tools.data_models.plant_performance.PlantPerformanceResults</title>
<g id="a_node5"><a xlink:title="eya_def_tools.data_models.plant_performance.PlantPerformanceResults&#10;&#10;Plant performance loss assessment results.&#10;&#10;Attributes:&#10; &#160;&#160;&#160;efficiency (list[Dataset]): Dimensionless plant performance efficiency (loss factor) results.&#10;">
<polygon fill="none" stroke="black" points="2949,-252 2949,-273 3112,-273 3112,-252 2949,-252"/>
<text text-anchor="start" x="2952" y="-259.8" font-family="Times New Roman,serif" font-weight="bold" font-size="14.00">PlantPerformanceResults</text>
<polygon fill="none" stroke="black" points="2949,-231 2949,-252 3024,-252 3024,-231 2949,-231"/>
<text text-anchor="start" x="2959" y="-237.8" font-family="Times New Roman,serif" font-size="14.00">efficiency</text>
<polygon fill="none" stroke="black" points="3024,-231 3024,-252 3112,-252 3112,-231 3024,-231"/>
<text text-anchor="start" x="3034.5" y="-237.8" font-family="Times New Roman,serif" font-size="14.00">list[Dataset]</text>
</a>
</g>
</g>
<!-- eya_def_tools.data_models.plant_performance.PlantPerformanceCategory&#45;&gt;eya_def_tools.data_models.plant_performance.PlantPerformanceResults -->
<g id="edge3" class="edge">
<title>eya_def_tools.data_models.plant_performance.PlantPerformanceCategory:e&#45;&gt;eya_def_tools.data_models.plant_performance.PlantPerformanceResults:w</title>
<path fill="none" stroke="black" d="M710,-300C1173.87,-300 1286.54,-231.57 1750,-212 2115.9,-196.55 2208.62,-187.2 2574,-212 2736.31,-223.02 2777.77,-260.63 2933.11,-262.89"/>
<polyline fill="none" stroke="black" points="2948,-263 2943,-262.96"/>
<polygon fill="black" stroke="black" points="2942.04,-257.96 2941.96,-267.96 2939.96,-267.94 2940.04,-257.94 2942.04,-257.96"/>
<polyline fill="none" stroke="black" points="2943,-262.96 2938,-262.93"/>
<polygon fill="black" stroke="black" points="2937.04,-257.92 2936.96,-267.92 2934.96,-267.91 2935.04,-257.91 2937.04,-257.92"/>
<polyline fill="none" stroke="black" points="2938,-262.93 2933,-262.89"/>
</g>
<!-- eya_def_tools.data_models.plant_performance.PlantPerformanceSubcategory -->
<g id="node6" class="node">
<title>eya_def_tools.data_models.plant_performance.PlantPerformanceSubcategory</title>
<g id="a_node6"><a xlink:title="eya_def_tools.data_models.plant_performance.PlantPerformanceSubcategory&#10;&#10;Plant performance loss assessment subcategory.&#10;&#10;Attributes:&#10; &#160;&#160;&#160;label (PlantPerformanceSubcategoryLabel(StrEnum)): Label of the plant performance loss subcategory.&#10; &#160;&#160;&#160;description (Optional[Annotated[str, FieldInfo(annotation=NoneType, required=True, metadata=[MinLen(min_length=1)])]]): Optional description of the plant performance loss subcategory, which should not be empty if the field is included. Default is None.&#10; &#160;&#160;&#160;comments (Optional[Annotated[str, FieldInfo(annotation=NoneType, required=True, metadata=[MinLen(min_length=1)])]]): Optional comments on the plant performance loss subcategory, which should not be empty if the field is included. Default is None.&#10; &#160;&#160;&#160;basis (AssessmentBasis(StrEnum)): Basis of plant performance loss subcategory assessment. The basis describes the level of detail of the calculation or estimate used in the assessment of the subcategory.&#10; &#160;&#160;&#160;variability (TimeVariabilityType(StrEnum)): Considered variability in the plant performance loss subcategory.&#10; &#160;&#160;&#160;assessment_process_descriptions (Optional[list[AssessmentProcessDescription]]): Optional description of calculation processes used in the assessment of the plant performance loss subcategory. The field should not be empty if it is included. Default is None.&#10; &#160;&#160;&#160;elements (Optional[list[PlantPerformanceSubcategoryElement]]): Optional plant performance loss assessment elements that fall under the subcategory. The element objects include details and results at the element level. A breakdown of plant performance loss subcategories into elements is optional and can be included only for a subset of the subcategories, as relevant. Whereas the categories and subcategories are fixed, the user may freely define element labels. Default is None.&#10; &#160;&#160;&#160;results (PlantPerformanceResults): Plant performance assessment subcategory results.&#10;">
<polygon fill="none" stroke="black" points="818,-527 818,-548 1642,-548 1642,-527 818,-527"/>
<text text-anchor="start" x="1135.5" y="-534.8" font-family="Times New Roman,serif" font-weight="bold" font-size="14.00">PlantPerformanceSubcategory</text>
<polygon fill="none" stroke="black" points="818,-506 818,-527 1015,-527 1015,-506 818,-506"/>
<text text-anchor="start" x="903.5" y="-512.8" font-family="Times New Roman,serif" font-size="14.00">label</text>
<polygon fill="none" stroke="black" points="1015,-506 1015,-527 1642,-527 1642,-506 1015,-506"/>
<text text-anchor="start" x="1199" y="-512.8" font-family="Times New Roman,serif" font-size="14.00">PlantPerformanceSubcategoryLabel(StrEnum)</text>
<polygon fill="none" stroke="black" points="818,-485 818,-506 1015,-506 1015,-485 818,-485"/>
<text text-anchor="start" x="885" y="-491.8" font-family="Times New Roman,serif" font-size="14.00">description</text>
<polygon fill="none" stroke="black" points="1015,-485 1015,-506 1642,-506 1642,-485 1015,-485"/>
<text text-anchor="start" x="1018" y="-491.8" font-family="Times New Roman,serif" font-size="14.00">Optional[Annotated[str, FieldInfo(annotation=NoneType, required=True, metadata=[MinLen(min_length=1)])]]</text>
<polygon fill="none" stroke="black" points="818,-464 818,-485 1015,-485 1015,-464 818,-464"/>
<text text-anchor="start" x="887.5" y="-470.8" font-family="Times New Roman,serif" font-size="14.00">comments</text>
<polygon fill="none" stroke="black" points="1015,-464 1015,-485 1642,-485 1642,-464 1015,-464"/>
<text text-anchor="start" x="1018" y="-470.8" font-family="Times New Roman,serif" font-size="14.00">Optional[Annotated[str, FieldInfo(annotation=NoneType, required=True, metadata=[MinLen(min_length=1)])]]</text>
<polygon fill="none" stroke="black" points="818,-443 818,-464 1015,-464 1015,-443 818,-443"/>
<text text-anchor="start" x="902" y="-449.8" font-family="Times New Roman,serif" font-size="14.00">basis</text>
<polygon fill="none" stroke="black" points="1015,-443 1015,-464 1642,-464 1642,-443 1015,-443"/>
<text text-anchor="start" x="1251" y="-449.8" font-family="Times New Roman,serif" font-size="14.00">AssessmentBasis(StrEnum)</text>
<polygon fill="none" stroke="black" points="818,-422 818,-443 1015,-443 1015,-422 818,-422"/>
<text text-anchor="start" x="889.5" y="-428.8" font-family="Times New Roman,serif" font-size="14.00">variability</text>
<polygon fill="none" stroke="black" points="1015,-422 1015,-443 1642,-443 1642,-422 1015,-422"/>
<text text-anchor="start" x="1242.5" y="-428.8" font-family="Times New Roman,serif" font-size="14.00">TimeVariabilityType(StrEnum)</text>
<polygon fill="none" stroke="black" points="818,-401 818,-422 1015,-422 1015,-401 818,-401"/>
<text text-anchor="start" x="821" y="-407.8" font-family="Times New Roman,serif" font-size="14.00">assessment_process_descriptions</text>
<polygon fill="none" stroke="black" points="1015,-401 1015,-422 1642,-422 1642,-401 1015,-401"/>
<text text-anchor="start" x="1199" y="-407.8" font-family="Times New Roman,serif" font-size="14.00">Optional[list[AssessmentProcessDescription]]</text>
<polygon fill="none" stroke="black" points="818,-380 818,-401 1015,-401 1015,-380 818,-380"/>
<text text-anchor="start" x="892" y="-386.8" font-family="Times New Roman,serif" font-size="14.00">elements</text>
<polygon fill="none" stroke="black" points="1015,-380 1015,-401 1642,-401 1642,-380 1015,-380"/>
<text text-anchor="start" x="1180.5" y="-386.8" font-family="Times New Roman,serif" font-size="14.00">Optional[list[PlantPerformanceSubcategoryElement]]</text>
<polygon fill="none" stroke="black" points="818,-359 818,-380 1015,-380 1015,-359 818,-359"/>
<text text-anchor="start" x="898" y="-365.8" font-family="Times New Roman,serif" font-size="14.00">results</text>
<polygon fill="none" stroke="black" points="1015,-359 1015,-380 1642,-380 1642,-359 1015,-359"/>
<text text-anchor="start" x="1258" y="-365.8" font-family="Times New Roman,serif" font-size="14.00">PlantPerformanceResults</text>
</a>
</g>
</g>
<!-- eya_def_tools.data_models.plant_performance.PlantPerformanceCategory&#45;&gt;eya_def_tools.data_models.plant_performance.PlantPerformanceSubcategory -->
<g id="edge4" class="edge">
<title>eya_def_tools.data_models.plant_performance.PlantPerformanceCategory:e&#45;&gt;eya_def_tools.data_models.plant_performance.PlantPerformanceSubcategory:w</title>
<path fill="none" stroke="black" d="M710,-321C810.58,-321 723.59,-510.14 799.26,-535.26"/>
<polygon fill="black" stroke="black" points="808.11,-536.55 817.35,-542.45 813.05,-537.28 818,-538 818,-538 818,-538 813.05,-537.28 818.65,-533.55 808.11,-536.55 808.11,-536.55"/>
<ellipse fill="none" stroke="black" cx="803.65" cy="-535.9" rx="4" ry="4"/>
</g>
<!-- eya_def_tools.data_models.plant_performance.PlantPerformanceResults&#45;&gt;eya_def_tools.data_models.dataset.Dataset -->
<g id="edge5" class="edge">
<title>eya_def_tools.data_models.plant_performance.PlantPerformanceResults:e&#45;&gt;eya_def_tools.data_models.dataset.Dataset:w</title>
<path fill="none" stroke="black" d="M3113,-241C3272.3,-241 3316.79,-241 3467.13,-241"/>
<polygon fill="black" stroke="black" points="3476,-241 3486,-245.5 3481,-241 3486,-241 3486,-241 3486,-241 3481,-241 3486,-236.5 3476,-241 3476,-241"/>
<ellipse fill="none" stroke="black" cx="3471.5" cy="-241" rx="4" ry="4"/>
</g>
<!-- eya_def_tools.data_models.plant_performance.PlantPerformanceSubcategory&#45;&gt;eya_def_tools.data_models.plant_performance.PlantPerformanceResults -->
<g id="edge6" class="edge">
<title>eya_def_tools.data_models.plant_performance.PlantPerformanceSubcategory:e&#45;&gt;eya_def_tools.data_models.plant_performance.PlantPerformanceResults:w</title>
<path fill="none" stroke="black" d="M1642,-369C1698.96,-369 1695.58,-316.82 1750,-300 2254.23,-144.19 2412.37,-260.79 2933.27,-262.97"/>
<polyline fill="none" stroke="black" points="2948,-263 2943,-262.99"/>
<polygon fill="black" stroke="black" points="2942.01,-257.99 2941.99,-267.99 2939.99,-267.98 2940.01,-257.98 2942.01,-257.99"/>
<polyline fill="none" stroke="black" points="2943,-262.99 2938,-262.98"/>
<polygon fill="black" stroke="black" points="2937.01,-257.98 2936.99,-267.98 2934.99,-267.97 2935.01,-257.97 2937.01,-257.98"/>
<polyline fill="none" stroke="black" points="2938,-262.98 2933,-262.97"/>
</g>
<!-- eya_def_tools.data_models.plant_performance.PlantPerformanceSubcategoryElement -->
<g id="node7" class="node">
<title>eya_def_tools.data_models.plant_performance.PlantPerformanceSubcategoryElement</title>
<g id="a_node7"><a xlink:title="eya_def_tools.data_models.plant_performance.PlantPerformanceSubcategoryElement&#10;&#10;Plant performance loss assessment subcategory element.&#10;&#10;Attributes:&#10; &#160;&#160;&#160;label (str): Label of the plant performance loss subcategory element.&#10; &#160;&#160;&#160;description (Optional[Annotated[str, FieldInfo(annotation=NoneType, required=True, metadata=[MinLen(min_length=1)])]]): Optional description of the plant performance loss subcategory element, which should not be empty if the field is included. Default is None.&#10; &#160;&#160;&#160;comments (Optional[Annotated[str, FieldInfo(annotation=NoneType, required=True, metadata=[MinLen(min_length=1)])]]): Optional comments on the plant performance loss subcategory element, which should not be empty if the field is included. Default is None.&#10; &#160;&#160;&#160;basis (AssessmentBasis(StrEnum)): Basis of plant performance loss subcategory element assessment. The basis describes the level of detail of the calculation or estimate used in the assessment of the element.&#10; &#160;&#160;&#160;variability (TimeVariabilityType(StrEnum)): Considered variability in the plant performance loss subcategory element.&#10; &#160;&#160;&#160;is_independent (bool): Whether the plant performance loss subcategory element is independent of all other elements. Default is True.&#10; &#160;&#160;&#160;assessment_process_descriptions (Optional[list[AssessmentProcessDescription]]): Description of calculation processes used in the assessment of the plant performance loss subcategory element. Default is None.&#10; &#160;&#160;&#160;results (PlantPerformanceResults): Plant performance assessment subcategory element results.&#10;">
<polygon fill="none" stroke="black" points="1750,-486 1750,-507 2574,-507 2574,-486 1750,-486"/>
<text text-anchor="start" x="2042.5" y="-493.8" font-family="Times New Roman,serif" font-weight="bold" font-size="14.00">PlantPerformanceSubcategoryElement</text>
<polygon fill="none" stroke="black" points="1750,-465 1750,-486 1947,-486 1947,-465 1750,-465"/>
<text text-anchor="start" x="1835.5" y="-471.8" font-family="Times New Roman,serif" font-size="14.00">label</text>
<polygon fill="none" stroke="black" points="1947,-465 1947,-486 2574,-486 2574,-465 1947,-465"/>
<text text-anchor="start" x="2253" y="-471.8" font-family="Times New Roman,serif" font-size="14.00">str</text>
<polygon fill="none" stroke="black" points="1750,-444 1750,-465 1947,-465 1947,-444 1750,-444"/>
<text text-anchor="start" x="1817" y="-450.8" font-family="Times New Roman,serif" font-size="14.00">description</text>
<polygon fill="none" stroke="black" points="1947,-444 1947,-465 2574,-465 2574,-444 1947,-444"/>
<text text-anchor="start" x="1950" y="-450.8" font-family="Times New Roman,serif" font-size="14.00">Optional[Annotated[str, FieldInfo(annotation=NoneType, required=True, metadata=[MinLen(min_length=1)])]]</text>
<polygon fill="none" stroke="black" points="1750,-423 1750,-444 1947,-444 1947,-423 1750,-423"/>
<text text-anchor="start" x="1819.5" y="-429.8" font-family="Times New Roman,serif" font-size="14.00">comments</text>
<polygon fill="none" stroke="black" points="1947,-423 1947,-444 2574,-444 2574,-423 1947,-423"/>
<text text-anchor="start" x="1950" y="-429.8" font-family="Times New Roman,serif" font-size="14.00">Optional[Annotated[str, FieldInfo(annotation=NoneType, required=True, metadata=[MinLen(min_length=1)])]]</text>
<polygon fill="none" stroke="black" points="1750,-402 1750,-423 1947,-423 1947,-402 1750,-402"/>
<text text-anchor="start" x="1834" y="-408.8" font-family="Times New Roman,serif" font-size="14.00">basis</text>
<polygon fill="none" stroke="black" points="1947,-402 1947,-423 2574,-423 2574,-402 1947,-402"/>
<text text-anchor="start" x="2183" y="-408.8" font-family="Times New Roman,serif" font-size="14.00">AssessmentBasis(StrEnum)</text>
<polygon fill="none" stroke="black" points="1750,-381 1750,-402 1947,-402 1947,-381 1750,-381"/>
<text text-anchor="start" x="1821.5" y="-387.8" font-family="Times New Roman,serif" font-size="14.00">variability</text>
<polygon fill="none" stroke="black" points="1947,-381 1947,-402 2574,-402 2574,-381 1947,-381"/>
<text text-anchor="start" x="2174.5" y="-387.8" font-family="Times New Roman,serif" font-size="14.00">TimeVariabilityType(StrEnum)</text>
<polygon fill="none" stroke="black" points="1750,-360 1750,-381 1947,-381 1947,-360 1750,-360"/>
<text text-anchor="start" x="1806" y="-366.8" font-family="Times New Roman,serif" font-size="14.00">is_independent</text>
<polygon fill="none" stroke="black" points="1947,-360 1947,-381 2574,-381 2574,-360 1947,-360"/>
<text text-anchor="start" x="2247.5" y="-366.8" font-family="Times New Roman,serif" font-size="14.00">bool</text>
<polygon fill="none" stroke="black" points="1750,-339 1750,-360 1947,-360 1947,-339 1750,-339"/>
<text text-anchor="start" x="1753" y="-345.8" font-family="Times New Roman,serif" font-size="14.00">assessment_process_descriptions</text>
<polygon fill="none" stroke="black" points="1947,-339 1947,-360 2574,-360 2574,-339 1947,-339"/>
<text text-anchor="start" x="2131" y="-345.8" font-family="Times New Roman,serif" font-size="14.00">Optional[list[AssessmentProcessDescription]]</text>
<polygon fill="none" stroke="black" points="1750,-318 1750,-339 1947,-339 1947,-318 1750,-318"/>
<text text-anchor="start" x="1830" y="-324.8" font-family="Times New Roman,serif" font-size="14.00">results</text>
<polygon fill="none" stroke="black" points="1947,-318 1947,-339 2574,-339 2574,-318 1947,-318"/>
<text text-anchor="start" x="2190" y="-324.8" font-family="Times New Roman,serif" font-size="14.00">PlantPerformanceResults</text>
</a>
</g>
</g>
<!-- eya_def_tools.data_models.plant_performance.PlantPerformanceSubcategory&#45;&gt;eya_def_tools.data_models.plant_performance.PlantPerformanceSubcategoryElement -->
<g id="edge7" class="edge">
<title>eya_def_tools.data_models.plant_performance.PlantPerformanceSubcategory:e&#45;&gt;eya_def_tools.data_models.plant_performance.PlantPerformanceSubcategoryElement:w</title>
<path fill="none" stroke="black" d="M1642,-390C1702.44,-390 1687.1,-475.62 1731.56,-493.68"/>
<polyline fill="none" stroke="black" points="1750,-497 1745.08,-496.11"/>
<polygon fill="black" stroke="black" points="1744.98,-491.02 1743.21,-500.86 1741.24,-500.5 1743.01,-490.66 1744.98,-491.02"/>
<polyline fill="none" stroke="black" points="1745.08,-496.11 1740.16,-495.23"/>
<ellipse fill="none" stroke="black" cx="1735.73" cy="-494.43" rx="4" ry="4"/>
</g>
<!-- eya_def_tools.data_models.process_description.AssessmentProcessDescription -->
<g id="node8" class="node">
<title>eya_def_tools.data_models.process_description.AssessmentProcessDescription</title>
<g id="a_node8"><a xlink:title="eya_def_tools.data_models.process_description.AssessmentProcessDescription&#10;&#10;Description of a process used in an energy yield assessment.&#10;&#10;Attributes:&#10; &#160;&#160;&#160;label (str): Label or name of the process or model.&#10; &#160;&#160;&#160;description (str): Description of the assessment process or model.&#10; &#160;&#160;&#160;comments (Optional[Annotated[str, FieldInfo(annotation=NoneType, required=True, metadata=[MinLen(min_length=1)])]]): Optional comments on the assessment process or model, which should not be empty if the field is included. Default is None.&#10;">
<polygon fill="none" stroke="black" points="2682,-462 2682,-483 3378,-483 3378,-462 2682,-462"/>
<text text-anchor="start" x="2935" y="-469.8" font-family="Times New Roman,serif" font-weight="bold" font-size="14.00">AssessmentProcessDescription</text>
<polygon fill="none" stroke="black" points="2682,-441 2682,-462 2751,-462 2751,-441 2682,-441"/>
<text text-anchor="start" x="2703.5" y="-447.8" font-family="Times New Roman,serif" font-size="14.00">label</text>
<polygon fill="none" stroke="black" points="2751,-441 2751,-462 3378,-462 3378,-441 2751,-441"/>
<text text-anchor="start" x="3057" y="-447.8" font-family="Times New Roman,serif" font-size="14.00">str</text>
<polygon fill="none" stroke="black" points="2682,-420 2682,-441 2751,-441 2751,-420 2682,-420"/>
<text text-anchor="start" x="2685" y="-426.8" font-family="Times New Roman,serif" font-size="14.00">description</text>
<polygon fill="none" stroke="black" points="2751,-420 2751,-441 3378,-441 3378,-420 2751,-420"/>
<text text-anchor="start" x="3057" y="-426.8" font-family="Times New Roman,serif" font-size="14.00">str</text>
<polygon fill="none" stroke="black" points="2682,-399 2682,-420 2751,-420 2751,-399 2682,-399"/>
<text text-anchor="start" x="2687.5" y="-405.8" font-family="Times New Roman,serif" font-size="14.00">comments</text>
<polygon fill="none" stroke="black" points="2751,-399 2751,-420 3378,-420 3378,-399 2751,-399"/>
<text text-anchor="start" x="2754" y="-405.8" font-family="Times New Roman,serif" font-size="14.00">Optional[Annotated[str, FieldInfo(annotation=NoneType, required=True, metadata=[MinLen(min_length=1)])]]</text>
</a>
</g>
</g>
<!-- eya_def_tools.data_models.plant_performance.PlantPerformanceSubcategory&#45;&gt;eya_def_tools.data_models.process_description.AssessmentProcessDescription -->
<g id="edge8" class="edge">
<title>eya_def_tools.data_models.plant_performance.PlantPerformanceSubcategory:e&#45;&gt;eya_def_tools.data_models.process_description.AssessmentProcessDescription:w</title>
<path fill="none" stroke="black" d="M1642,-411C1712.12,-411 1685.65,-498.15 1750,-526 2086.1,-671.44 2217.26,-608.82 2574,-526 2619.17,-515.51 2627.01,-483.36 2663.16,-475"/>
<polyline fill="none" stroke="black" points="2682,-473 2677.03,-473.53"/>
<polygon fill="black" stroke="black" points="2675.51,-468.66 2676.56,-478.61 2674.57,-478.82 2673.52,-468.87 2675.51,-468.66"/>
<polyline fill="none" stroke="black" points="2677.03,-473.53 2672.06,-474.06"/>
<ellipse fill="none" stroke="black" cx="2667.58" cy="-474.53" rx="4" ry="4"/>
</g>
<!-- eya_def_tools.data_models.plant_performance.PlantPerformanceSubcategoryElement&#45;&gt;eya_def_tools.data_models.plant_performance.PlantPerformanceResults -->
<g id="edge9" class="edge">
<title>eya_def_tools.data_models.plant_performance.PlantPerformanceSubcategoryElement:e&#45;&gt;eya_def_tools.data_models.plant_performance.PlantPerformanceResults:w</title>
<path fill="none" stroke="black" d="M2574,-328C2737.61,-328 2776.95,-266.88 2933.03,-263.18"/>
<polyline fill="none" stroke="black" points="2948,-263 2943,-263.06"/>
<polygon fill="black" stroke="black" points="2941.94,-258.07 2942.06,-268.07 2940.06,-268.09 2939.94,-258.09 2941.94,-258.07"/>
<polyline fill="none" stroke="black" points="2943,-263.06 2938,-263.12"/>
<polygon fill="black" stroke="black" points="2936.94,-258.13 2937.06,-268.13 2935.06,-268.15 2934.94,-258.15 2936.94,-258.13"/>
<polyline fill="none" stroke="black" points="2938,-263.12 2933,-263.18"/>
</g>
<!-- eya_def_tools.data_models.plant_performance.PlantPerformanceSubcategoryElement&#45;&gt;eya_def_tools.data_models.process_description.AssessmentProcessDescription -->
<g id="edge10" class="edge">
<title>eya_def_tools.data_models.plant_performance.PlantPerformanceSubcategoryElement:e&#45;&gt;eya_def_tools.data_models.process_description.AssessmentProcessDescription:w</title>
<path fill="none" stroke="black" d="M2574,-349C2639.95,-349 2615.31,-449.96 2663.56,-469.68"/>
<polyline fill="none" stroke="black" points="2682,-473 2677.08,-472.11"/>
<polygon fill="black" stroke="black" points="2676.98,-467.02 2675.21,-476.86 2673.24,-476.5 2675.01,-466.66 2676.98,-467.02"/>
<polyline fill="none" stroke="black" points="2677.08,-472.11 2672.16,-471.23"/>
<ellipse fill="none" stroke="black" cx="2667.73" cy="-470.43" rx="4" ry="4"/>
</g>
</g>
</svg>
