<?xml version="1.0" encoding="UTF-8" standalone="no"?>
<!DOCTYPE svg PUBLIC "-//W3C//DTD SVG 1.1//EN"
 "http://www.w3.org/Graphics/SVG/1.1/DTD/svg11.dtd">
<!-- Generated by graphviz version 7.0.4 (20221203.1631)
 -->
<!-- Title: Entity Relationship Diagram Pages: 1 -->
<svg width="6483pt" height="682pt"
 viewBox="0.00 0.00 6483.00 682.30" xmlns="http://www.w3.org/2000/svg" xmlns:xlink="http://www.w3.org/1999/xlink">
<g id="graph0" class="graph" transform="scale(1 1) rotate(0) translate(4 678.3)">
<title>Entity Relationship Diagram</title>
<polygon fill="white" stroke="none" points="-4,4 -4,-678.3 6479,-678.3 6479,4 -4,4"/>
<text text-anchor="middle" x="3237.5" y="-6.8" font-family="Times New Roman,serif" font-size="9.00" fill="#a8a8a8">Created by erdantic v0.6.0 &lt;https://github.com/drivendataorg/erdantic&gt;</text>
<!-- eya_def_tools.data_models.dataset.Dataset -->
<g id="node1" class="node">
<title>eya_def_tools.data_models.dataset.Dataset</title>
<g id="a_node1"><a xlink:title="eya_def_tools.data_models.dataset.Dataset&#10;&#10;Collection of labelled data for one specific quantity.&#10;&#10;The data is labelled by specifying dimensions and including&#10;coordinates along the dimensions for each data value.&#10;&#10;Attributes:&#10; &#160;&#160;&#160;label (Optional[Annotated[str, FieldInfo(annotation=NoneType, required=True, metadata=[MinLen(min_length=1)])]]): Optional label of the dataset, which should not be empty if the field is included. Default is None.&#10; &#160;&#160;&#160;description (Optional[Annotated[str, FieldInfo(annotation=NoneType, required=True, metadata=[MinLen(min_length=1)])]]): Optional description of the dataset, which should not be empty if the field is included. Default is None.&#10; &#160;&#160;&#160;comments (Optional[Annotated[str, FieldInfo(annotation=NoneType, required=True, metadata=[MinLen(min_length=1)])]]): Optional comments on the dataset, which should not be empty if the field is included. Default is None.&#10; &#160;&#160;&#160;assessment_period (Optional[AssessmentPeriod(StrEnum)]): Optional period of or in time that has been assessed and for which the dataset is applicable. This field is to be included only when relevant. Default is None.&#10; &#160;&#160;&#160;dimensions (Optional[list[DatasetDimension(StrEnum)]]): Dimensions along which the dataset is binned. All statistics within the same dataset object must have the same dimensions. The dimensions must correspond to and be listed in the same order as the coordinates for the values of all statistics. A dataset without dimensions can only have a single value for each statistic. Default is None.&#10; &#160;&#160;&#160;statistics (list[DatasetStatistic]): List of dataset statistic objects that each include data values for a specific statistic type. For example, there may be two statistics, one for mean values and one for standard deviation values.&#10;">
<polygon fill="none" stroke="black" points="3838,-230 3838,-251 4578,-251 4578,-230 3838,-230"/>
<text text-anchor="start" x="4184" y="-237.8" font-family="Times New Roman,serif" font-weight="bold" font-size="14.00">Dataset</text>
<polygon fill="none" stroke="black" points="3838,-209 3838,-230 3951,-230 3951,-209 3838,-209"/>
<text text-anchor="start" x="3881.5" y="-215.8" font-family="Times New Roman,serif" font-size="14.00">label</text>
<polygon fill="none" stroke="black" points="3951,-209 3951,-230 4578,-230 4578,-209 3951,-209"/>
<text text-anchor="start" x="3954" y="-215.8" font-family="Times New Roman,serif" font-size="14.00">Optional[Annotated[str, FieldInfo(annotation=NoneType, required=True, metadata=[MinLen(min_length=1)])]]</text>
<polygon fill="none" stroke="black" points="3838,-188 3838,-209 3951,-209 3951,-188 3838,-188"/>
<text text-anchor="start" x="3863" y="-194.8" font-family="Times New Roman,serif" font-size="14.00">description</text>
<polygon fill="none" stroke="black" points="3951,-188 3951,-209 4578,-209 4578,-188 3951,-188"/>
<text text-anchor="start" x="3954" y="-194.8" font-family="Times New Roman,serif" font-size="14.00">Optional[Annotated[str, FieldInfo(annotation=NoneType, required=True, metadata=[MinLen(min_length=1)])]]</text>
<polygon fill="none" stroke="black" points="3838,-167 3838,-188 3951,-188 3951,-167 3838,-167"/>
<text text-anchor="start" x="3865.5" y="-173.8" font-family="Times New Roman,serif" font-size="14.00">comments</text>
<polygon fill="none" stroke="black" points="3951,-167 3951,-188 4578,-188 4578,-167 3951,-167"/>
<text text-anchor="start" x="3954" y="-173.8" font-family="Times New Roman,serif" font-size="14.00">Optional[Annotated[str, FieldInfo(annotation=NoneType, required=True, metadata=[MinLen(min_length=1)])]]</text>
<polygon fill="none" stroke="black" points="3838,-146 3838,-167 3951,-167 3951,-146 3838,-146"/>
<text text-anchor="start" x="3841" y="-152.8" font-family="Times New Roman,serif" font-size="14.00">assessment_period</text>
<polygon fill="none" stroke="black" points="3951,-146 3951,-167 4578,-167 4578,-146 3951,-146"/>
<text text-anchor="start" x="4155" y="-152.8" font-family="Times New Roman,serif" font-size="14.00">Optional[AssessmentPeriod(StrEnum)]</text>
<polygon fill="none" stroke="black" points="3838,-125 3838,-146 3951,-146 3951,-125 3838,-125"/>
<text text-anchor="start" x="3862.5" y="-131.8" font-family="Times New Roman,serif" font-size="14.00">dimensions</text>
<polygon fill="none" stroke="black" points="3951,-125 3951,-146 4578,-146 4578,-125 3951,-125"/>
<text text-anchor="start" x="4144" y="-131.8" font-family="Times New Roman,serif" font-size="14.00">Optional[list[DatasetDimension(StrEnum)]]</text>
<polygon fill="none" stroke="black" points="3838,-104 3838,-125 3951,-125 3951,-104 3838,-104"/>
<text text-anchor="start" x="3870" y="-110.8" font-family="Times New Roman,serif" font-size="14.00">statistics</text>
<polygon fill="none" stroke="black" points="3951,-104 3951,-125 4578,-125 4578,-104 3951,-104"/>
<text text-anchor="start" x="4209" y="-110.8" font-family="Times New Roman,serif" font-size="14.00">list[DatasetStatistic]</text>
</a>
</g>
</g>
<!-- eya_def_tools.data_models.dataset.DatasetStatistic -->
<g id="node2" class="node">
<title>eya_def_tools.data_models.dataset.DatasetStatistic</title>
<g id="a_node2"><a xlink:title="eya_def_tools.data_models.dataset.DatasetStatistic&#10;&#10;Dataset values for one specific statistic type.&#10;&#10;Attributes:&#10; &#160;&#160;&#160;description (Optional[Annotated[str, FieldInfo(annotation=NoneType, required=True, metadata=[MinLen(min_length=1)])]]): Optional description of the dataset statistic, which should not be empty if the field is included. Default is None.&#10; &#160;&#160;&#160;comments (Optional[Annotated[str, FieldInfo(annotation=NoneType, required=True, metadata=[MinLen(min_length=1)])]]): Optional comments on the dataset statistic, which should not be empty if the field is included. Default is None.&#10; &#160;&#160;&#160;statistic_type (UnionType[BasicStatisticType(StrEnum), ExceedanceLevelStatisticType]): Type of statistic that the component of the dataset contains. All values must correspond to this statistic.&#10; &#160;&#160;&#160;values (Union[float, Annotated[list[tuple[list[Union[float, int, Annotated[str, FieldInfo(annotation=NoneType, required=True, metadata=[MinLen(min_length=1)])]]], float]], FieldInfo(annotation=NoneType, required=True, metadata=[MinLen(min_length=1)])]]): Dataset value(s) as a single number or &#160;one or more values at coordinates. If more than one value is included the values must be represented together with coordinates. A single value can be included either with or without coordinates. The coordinates must correspond to and be listed the same order as the dimensions specified for the dataset.&#10;">
<polygon fill="none" stroke="black" points="4686,-103 4686,-124 6174,-124 6174,-103 4686,-103"/>
<text text-anchor="start" x="5381.5" y="-110.8" font-family="Times New Roman,serif" font-weight="bold" font-size="14.00">DatasetStatistic</text>
<polygon fill="none" stroke="black" points="4686,-82 4686,-103 4766,-103 4766,-82 4686,-82"/>
<text text-anchor="start" x="4694.5" y="-88.8" font-family="Times New Roman,serif" font-size="14.00">description</text>
<polygon fill="none" stroke="black" points="4766,-82 4766,-103 6174,-103 6174,-82 4766,-82"/>
<text text-anchor="start" x="5159.5" y="-88.8" font-family="Times New Roman,serif" font-size="14.00">Optional[Annotated[str, FieldInfo(annotation=NoneType, required=True, metadata=[MinLen(min_length=1)])]]</text>
<polygon fill="none" stroke="black" points="4686,-61 4686,-82 4766,-82 4766,-61 4686,-61"/>
<text text-anchor="start" x="4697" y="-67.8" font-family="Times New Roman,serif" font-size="14.00">comments</text>
<polygon fill="none" stroke="black" points="4766,-61 4766,-82 6174,-82 6174,-61 4766,-61"/>
<text text-anchor="start" x="5159.5" y="-67.8" font-family="Times New Roman,serif" font-size="14.00">Optional[Annotated[str, FieldInfo(annotation=NoneType, required=True, metadata=[MinLen(min_length=1)])]]</text>
<polygon fill="none" stroke="black" points="4686,-40 4686,-61 4766,-61 4766,-40 4686,-40"/>
<text text-anchor="start" x="4689" y="-46.8" font-family="Times New Roman,serif" font-size="14.00">statistic_type</text>
<polygon fill="none" stroke="black" points="4766,-40 4766,-61 6174,-61 6174,-40 4766,-40"/>
<text text-anchor="start" x="5264" y="-46.8" font-family="Times New Roman,serif" font-size="14.00">UnionType[BasicStatisticType(StrEnum), ExceedanceLevelStatisticType]</text>
<polygon fill="none" stroke="black" points="4686,-19 4686,-40 4766,-40 4766,-19 4686,-19"/>
<text text-anchor="start" x="4708.5" y="-25.8" font-family="Times New Roman,serif" font-size="14.00">values</text>
<polygon fill="none" stroke="black" points="4766,-19 4766,-40 6174,-40 6174,-19 4766,-19"/>
<text text-anchor="start" x="4769" y="-25.8" font-family="Times New Roman,serif" font-size="14.00">Union[float, Annotated[list[tuple[list[Union[float, int, Annotated[str, FieldInfo(annotation=NoneType, required=True, metadata=[MinLen(min_length=1)])]]], float]], FieldInfo(annotation=NoneType, required=True, metadata=[MinLen(min_length=1)])]]</text>
</a>
</g>
</g>
<!-- eya_def_tools.data_models.dataset.Dataset&#45;&gt;eya_def_tools.data_models.dataset.DatasetStatistic -->
<g id="edge1" class="edge">
<title>eya_def_tools.data_models.dataset.Dataset:e&#45;&gt;eya_def_tools.data_models.dataset.DatasetStatistic:w</title>
<path fill="none" stroke="black" d="M4578,-114C4619.06,-114 4633.78,-114 4667.23,-114"/>
<polygon fill="black" stroke="black" points="4676,-114 4686,-118.5 4681,-114 4686,-114 4686,-114 4686,-114 4681,-114 4686,-109.5 4676,-114 4676,-114"/>
<ellipse fill="none" stroke="black" cx="4671.5" cy="-114" rx="4" ry="4"/>
</g>
<!-- eya_def_tools.data_models.dataset.ExceedanceLevelStatisticType -->
<g id="node3" class="node">
<title>eya_def_tools.data_models.dataset.ExceedanceLevelStatisticType</title>
<g id="a_node3"><a xlink:title="eya_def_tools.data_models.dataset.ExceedanceLevelStatisticType&#10;&#10;Probability of exceedance level statistic type.&#10;&#10;Attributes:&#10; &#160;&#160;&#160;exceedance_level (float): The dimensionless probability of exceedance level (i.e. probability value between 0.0 and 1.0) of the statistic.&#10;">
<polygon fill="none" stroke="black" points="6282.5,-39 6282.5,-60 6475.5,-60 6475.5,-39 6282.5,-39"/>
<text text-anchor="start" x="6285.5" y="-46.8" font-family="Times New Roman,serif" font-weight="bold" font-size="14.00">ExceedanceLevelStatisticType</text>
<polygon fill="none" stroke="black" points="6282.5,-18 6282.5,-39 6414.5,-39 6414.5,-18 6282.5,-18"/>
<text text-anchor="start" x="6300" y="-24.8" font-family="Times New Roman,serif" font-size="14.00">exceedance_level</text>
<polygon fill="none" stroke="black" points="6414.5,-18 6414.5,-39 6475.5,-39 6475.5,-18 6414.5,-18"/>
<text text-anchor="start" x="6432.5" y="-24.8" font-family="Times New Roman,serif" font-size="14.00">float</text>
</a>
</g>
</g>
<!-- eya_def_tools.data_models.dataset.DatasetStatistic&#45;&gt;eya_def_tools.data_models.dataset.ExceedanceLevelStatisticType -->
<g id="edge2" class="edge">
<title>eya_def_tools.data_models.dataset.DatasetStatistic:e&#45;&gt;eya_def_tools.data_models.dataset.ExceedanceLevelStatisticType:w</title>
<path fill="none" stroke="black" d="M6174,-50C6216.75,-50 6230.94,-50 6267.45,-50"/>
<polyline fill="none" stroke="black" points="6282,-50 6277,-50"/>
<polygon fill="black" stroke="black" points="6276,-45 6276,-55 6274,-55 6274,-45 6276,-45"/>
<polyline fill="none" stroke="black" points="6277,-50 6272,-50"/>
<polygon fill="black" stroke="black" points="6271,-45 6271,-55 6269,-55 6269,-45 6271,-45"/>
<polyline fill="none" stroke="black" points="6272,-50 6267,-50"/>
</g>
<!-- eya_def_tools.data_models.plant_performance.PlantPerformanceAssessment -->
<g id="node4" class="node">
<title>eya_def_tools.data_models.plant_performance.PlantPerformanceAssessment</title>
<g id="a_node4"><a xlink:title="eya_def_tools.data_models.plant_performance.PlantPerformanceAssessment&#10;&#10;Plant performance loss assessment broken into categories.&#10;&#10;Attributes:&#10; &#160;&#160;&#160;categories (list[PlantPerformanceCategory]): Plant performance loss assessment categories including results.&#10; &#160;&#160;&#160;results (PlantPerformanceResults): Overall plant performance loss assessment results.&#10;">
<polygon fill="none" stroke="black" points="0,-280 0,-301 244,-301 244,-280 0,-280"/>
<text text-anchor="start" x="30.5" y="-287.8" font-family="Times New Roman,serif" font-weight="bold" font-size="14.00">PlantPerformanceAssessment</text>
<polygon fill="none" stroke="black" points="0,-259 0,-280 63,-280 63,-259 0,-259"/>
<text text-anchor="start" x="3" y="-265.8" font-family="Times New Roman,serif" font-size="14.00">categories</text>
<polygon fill="none" stroke="black" points="63,-259 63,-280 244,-280 244,-259 63,-259"/>
<text text-anchor="start" x="66" y="-265.8" font-family="Times New Roman,serif" font-size="14.00">list[PlantPerformanceCategory]</text>
<polygon fill="none" stroke="black" points="0,-238 0,-259 63,-259 63,-238 0,-238"/>
<text text-anchor="start" x="13" y="-244.8" font-family="Times New Roman,serif" font-size="14.00">results</text>
<polygon fill="none" stroke="black" points="63,-238 63,-259 244,-259 244,-238 63,-238"/>
<text text-anchor="start" x="83" y="-244.8" font-family="Times New Roman,serif" font-size="14.00">PlantPerformanceResults</text>
</a>
</g>
</g>
<!-- eya_def_tools.data_models.plant_performance.PlantPerformanceCategory -->
<g id="node5" class="node">
<title>eya_def_tools.data_models.plant_performance.PlantPerformanceCategory</title>
<g id="a_node5"><a xlink:title="eya_def_tools.data_models.plant_performance.PlantPerformanceCategory&#10;&#10;Plant performance loss assessment category.&#10;&#10;Attributes:&#10; &#160;&#160;&#160;label (PlantPerformanceCategoryLabel(StrEnum)): Label of the plant performance loss category.&#10; &#160;&#160;&#160;description (Optional[Annotated[str, FieldInfo(annotation=NoneType, required=True, metadata=[MinLen(min_length=1)])]]): Optional description of the plant performance loss category, which should not be empty if the field is included. Default is None.&#10; &#160;&#160;&#160;comments (Optional[Annotated[str, FieldInfo(annotation=NoneType, required=True, metadata=[MinLen(min_length=1)])]]): Optional comments on the plant performance loss category, which should not be empty if the field is included. Default is None.&#10; &#160;&#160;&#160;subcategories (list[PlantPerformanceSubcategory]): Plant performance loss assessment subcategories that fall under the category. The subcategory objects include details and results at the subcategory level.&#10; &#160;&#160;&#160;results (PlantPerformanceResults): Plant performance assessment category results.&#10;">
<polygon fill="none" stroke="black" points="352,-338 352,-359 1062,-359 1062,-338 352,-338"/>
<text text-anchor="start" x="622.5" y="-345.8" font-family="Times New Roman,serif" font-weight="bold" font-size="14.00">PlantPerformanceCategory</text>
<polygon fill="none" stroke="black" points="352,-317 352,-338 435,-338 435,-317 352,-317"/>
<text text-anchor="start" x="380.5" y="-323.8" font-family="Times New Roman,serif" font-size="14.00">label</text>
<polygon fill="none" stroke="black" points="435,-317 435,-338 1062,-338 1062,-317 435,-317"/>
<text text-anchor="start" x="629" y="-323.8" font-family="Times New Roman,serif" font-size="14.00">PlantPerformanceCategoryLabel(StrEnum)</text>
<polygon fill="none" stroke="black" points="352,-296 352,-317 435,-317 435,-296 352,-296"/>
<text text-anchor="start" x="362" y="-302.8" font-family="Times New Roman,serif" font-size="14.00">description</text>
<polygon fill="none" stroke="black" points="435,-296 435,-317 1062,-317 1062,-296 435,-296"/>
<text text-anchor="start" x="438" y="-302.8" font-family="Times New Roman,serif" font-size="14.00">Optional[Annotated[str, FieldInfo(annotation=NoneType, required=True, metadata=[MinLen(min_length=1)])]]</text>
<polygon fill="none" stroke="black" points="352,-275 352,-296 435,-296 435,-275 352,-275"/>
<text text-anchor="start" x="364.5" y="-281.8" font-family="Times New Roman,serif" font-size="14.00">comments</text>
<polygon fill="none" stroke="black" points="435,-275 435,-296 1062,-296 1062,-275 435,-275"/>
<text text-anchor="start" x="438" y="-281.8" font-family="Times New Roman,serif" font-size="14.00">Optional[Annotated[str, FieldInfo(annotation=NoneType, required=True, metadata=[MinLen(min_length=1)])]]</text>
<polygon fill="none" stroke="black" points="352,-254 352,-275 435,-275 435,-254 352,-254"/>
<text text-anchor="start" x="355" y="-260.8" font-family="Times New Roman,serif" font-size="14.00">subcategories</text>
<polygon fill="none" stroke="black" points="435,-254 435,-275 1062,-275 1062,-254 435,-254"/>
<text text-anchor="start" x="651" y="-260.8" font-family="Times New Roman,serif" font-size="14.00">list[PlantPerformanceSubcategory]</text>
<polygon fill="none" stroke="black" points="352,-233 352,-254 435,-254 435,-233 352,-233"/>
<text text-anchor="start" x="375" y="-239.8" font-family="Times New Roman,serif" font-size="14.00">results</text>
<polygon fill="none" stroke="black" points="435,-233 435,-254 1062,-254 1062,-233 435,-233"/>
<text text-anchor="start" x="678" y="-239.8" font-family="Times New Roman,serif" font-size="14.00">PlantPerformanceResults</text>
</a>
</g>
</g>
<!-- eya_def_tools.data_models.plant_performance.PlantPerformanceAssessment&#45;&gt;eya_def_tools.data_models.plant_performance.PlantPerformanceCategory -->
<g id="edge3" class="edge">
<title>eya_def_tools.data_models.plant_performance.PlantPerformanceAssessment:e&#45;&gt;eya_def_tools.data_models.plant_performance.PlantPerformanceCategory:w</title>
<path fill="none" stroke="black" d="M244,-269C296.62,-269 293.99,-331.07 333.44,-345.86"/>
<polygon fill="black" stroke="black" points="342.14,-347.33 351.25,-353.44 347.07,-348.17 352,-349 352,-349 352,-349 347.07,-348.17 352.75,-344.56 342.14,-347.33 342.14,-347.33"/>
<ellipse fill="none" stroke="black" cx="337.7" cy="-346.58" rx="4" ry="4"/>
</g>
<!-- eya_def_tools.data_models.plant_performance.PlantPerformanceResults -->
<g id="node6" class="node">
<title>eya_def_tools.data_models.plant_performance.PlantPerformanceResults</title>
<g id="a_node6"><a xlink:title="eya_def_tools.data_models.plant_performance.PlantPerformanceResults&#10;&#10;Plant performance loss assessment results.&#10;&#10;Attributes:&#10; &#160;&#160;&#160;efficiency (list[Dataset]): Dimensionless plant performance efficiency (loss factor) results.&#10;">
<polygon fill="none" stroke="black" points="3301,-252 3301,-273 3464,-273 3464,-252 3301,-252"/>
<text text-anchor="start" x="3304" y="-259.8" font-family="Times New Roman,serif" font-weight="bold" font-size="14.00">PlantPerformanceResults</text>
<polygon fill="none" stroke="black" points="3301,-231 3301,-252 3376,-252 3376,-231 3301,-231"/>
<text text-anchor="start" x="3311" y="-237.8" font-family="Times New Roman,serif" font-size="14.00">efficiency</text>
<polygon fill="none" stroke="black" points="3376,-231 3376,-252 3464,-252 3464,-231 3376,-231"/>
<text text-anchor="start" x="3386.5" y="-237.8" font-family="Times New Roman,serif" font-size="14.00">list[Dataset]</text>
</a>
</g>
</g>
<!-- eya_def_tools.data_models.plant_performance.PlantPerformanceAssessment&#45;&gt;eya_def_tools.data_models.plant_performance.PlantPerformanceResults -->
<g id="edge4" class="edge">
<title>eya_def_tools.data_models.plant_performance.PlantPerformanceAssessment:e&#45;&gt;eya_def_tools.data_models.plant_performance.PlantPerformanceResults:w</title>
<path fill="none" stroke="black" d="M244,-248C294.19,-248 302.36,-222.41 352,-215 664.09,-168.38 746.45,-212.55 1062,-215 1890.52,-221.44 2097.91,-216.53 2926,-244 3087.31,-249.35 3130.95,-262.19 3285.22,-262.96"/>
<polyline fill="none" stroke="black" points="3300,-263 3295,-262.99"/>
<polygon fill="black" stroke="black" points="3294.01,-257.99 3293.99,-267.99 3291.99,-267.98 3292.01,-257.98 3294.01,-257.99"/>
<polyline fill="none" stroke="black" points="3295,-262.99 3290,-262.98"/>
<polygon fill="black" stroke="black" points="3289.01,-257.97 3288.99,-267.97 3286.99,-267.97 3287.01,-257.97 3289.01,-257.97"/>
<polyline fill="none" stroke="black" points="3290,-262.98 3285,-262.96"/>
</g>
<!-- eya_def_tools.data_models.plant_performance.PlantPerformanceCategory&#45;&gt;eya_def_tools.data_models.plant_performance.PlantPerformanceResults -->
<g id="edge5" class="edge">
<title>eya_def_tools.data_models.plant_performance.PlantPerformanceCategory:e&#45;&gt;eya_def_tools.data_models.plant_performance.PlantPerformanceResults:w</title>
<path fill="none" stroke="black" d="M1062,-243C2051.73,-243 2302.79,-262.8 3285.12,-263"/>
<polyline fill="none" stroke="black" points="3300,-263 3295,-263"/>
<polygon fill="black" stroke="black" points="3294,-258 3294,-268 3292,-268 3292,-258 3294,-258"/>
<polyline fill="none" stroke="black" points="3295,-263 3290,-263"/>
<polygon fill="black" stroke="black" points="3289,-258 3289,-268 3287,-268 3287,-258 3289,-258"/>
<polyline fill="none" stroke="black" points="3290,-263 3285,-263"/>
</g>
<!-- eya_def_tools.data_models.plant_performance.PlantPerformanceSubcategory -->
<g id="node7" class="node">
<title>eya_def_tools.data_models.plant_performance.PlantPerformanceSubcategory</title>
<g id="a_node7"><a xlink:title="eya_def_tools.data_models.plant_performance.PlantPerformanceSubcategory&#10;&#10;Plant performance loss assessment subcategory.&#10;&#10;Attributes:&#10; &#160;&#160;&#160;label (PlantPerformanceSubcategoryLabel(StrEnum)): Label of the plant performance loss subcategory.&#10; &#160;&#160;&#160;description (Optional[Annotated[str, FieldInfo(annotation=NoneType, required=True, metadata=[MinLen(min_length=1)])]]): Optional description of the plant performance loss subcategory, which should not be empty if the field is included. Default is None.&#10; &#160;&#160;&#160;comments (Optional[Annotated[str, FieldInfo(annotation=NoneType, required=True, metadata=[MinLen(min_length=1)])]]): Optional comments on the plant performance loss subcategory, which should not be empty if the field is included. Default is None.&#10; &#160;&#160;&#160;basis (AssessmentBasis(StrEnum)): Basis of plant performance loss subcategory assessment. The basis describes the level of detail of the calculation or estimate used in the assessment of the subcategory.&#10; &#160;&#160;&#160;variability (TimeVariabilityType(StrEnum)): Considered variability in the plant performance loss subcategory.&#10; &#160;&#160;&#160;assessment_process_descriptions (Optional[list[AssessmentProcessDescription]]): Optional description of calculation processes used in the assessment of the plant performance loss subcategory. The field should not be empty if it is included. Default is None.&#10; &#160;&#160;&#160;elements (Optional[list[PlantPerformanceSubcategoryElement]]): Optional plant performance loss assessment elements that fall under the subcategory. The element objects include details and results at the element level. A breakdown of plant performance loss subcategories into elements is optional and can be included only for a subset of the subcategories, as relevant. Whereas the categories and subcategories are fixed, the user may freely define element labels. Default is None.&#10; &#160;&#160;&#160;results (PlantPerformanceResults): Plant performance assessment subcategory results.&#10;">
<polygon fill="none" stroke="black" points="1170,-581 1170,-602 1994,-602 1994,-581 1170,-581"/>
<text text-anchor="start" x="1487.5" y="-588.8" font-family="Times New Roman,serif" font-weight="bold" font-size="14.00">PlantPerformanceSubcategory</text>
<polygon fill="none" stroke="black" points="1170,-560 1170,-581 1367,-581 1367,-560 1170,-560"/>
<text text-anchor="start" x="1255.5" y="-566.8" font-family="Times New Roman,serif" font-size="14.00">label</text>
<polygon fill="none" stroke="black" points="1367,-560 1367,-581 1994,-581 1994,-560 1367,-560"/>
<text text-anchor="start" x="1551" y="-566.8" font-family="Times New Roman,serif" font-size="14.00">PlantPerformanceSubcategoryLabel(StrEnum)</text>
<polygon fill="none" stroke="black" points="1170,-539 1170,-560 1367,-560 1367,-539 1170,-539"/>
<text text-anchor="start" x="1237" y="-545.8" font-family="Times New Roman,serif" font-size="14.00">description</text>
<polygon fill="none" stroke="black" points="1367,-539 1367,-560 1994,-560 1994,-539 1367,-539"/>
<text text-anchor="start" x="1370" y="-545.8" font-family="Times New Roman,serif" font-size="14.00">Optional[Annotated[str, FieldInfo(annotation=NoneType, required=True, metadata=[MinLen(min_length=1)])]]</text>
<polygon fill="none" stroke="black" points="1170,-518 1170,-539 1367,-539 1367,-518 1170,-518"/>
<text text-anchor="start" x="1239.5" y="-524.8" font-family="Times New Roman,serif" font-size="14.00">comments</text>
<polygon fill="none" stroke="black" points="1367,-518 1367,-539 1994,-539 1994,-518 1367,-518"/>
<text text-anchor="start" x="1370" y="-524.8" font-family="Times New Roman,serif" font-size="14.00">Optional[Annotated[str, FieldInfo(annotation=NoneType, required=True, metadata=[MinLen(min_length=1)])]]</text>
<polygon fill="none" stroke="black" points="1170,-497 1170,-518 1367,-518 1367,-497 1170,-497"/>
<text text-anchor="start" x="1254" y="-503.8" font-family="Times New Roman,serif" font-size="14.00">basis</text>
<polygon fill="none" stroke="black" points="1367,-497 1367,-518 1994,-518 1994,-497 1367,-497"/>
<text text-anchor="start" x="1603" y="-503.8" font-family="Times New Roman,serif" font-size="14.00">AssessmentBasis(StrEnum)</text>
<polygon fill="none" stroke="black" points="1170,-476 1170,-497 1367,-497 1367,-476 1170,-476"/>
<text text-anchor="start" x="1241.5" y="-482.8" font-family="Times New Roman,serif" font-size="14.00">variability</text>
<polygon fill="none" stroke="black" points="1367,-476 1367,-497 1994,-497 1994,-476 1367,-476"/>
<text text-anchor="start" x="1594.5" y="-482.8" font-family="Times New Roman,serif" font-size="14.00">TimeVariabilityType(StrEnum)</text>
<polygon fill="none" stroke="black" points="1170,-455 1170,-476 1367,-476 1367,-455 1170,-455"/>
<text text-anchor="start" x="1173" y="-461.8" font-family="Times New Roman,serif" font-size="14.00">assessment_process_descriptions</text>
<polygon fill="none" stroke="black" points="1367,-455 1367,-476 1994,-476 1994,-455 1367,-455"/>
<text text-anchor="start" x="1551" y="-461.8" font-family="Times New Roman,serif" font-size="14.00">Optional[list[AssessmentProcessDescription]]</text>
<polygon fill="none" stroke="black" points="1170,-434 1170,-455 1367,-455 1367,-434 1170,-434"/>
<text text-anchor="start" x="1244" y="-440.8" font-family="Times New Roman,serif" font-size="14.00">elements</text>
<polygon fill="none" stroke="black" points="1367,-434 1367,-455 1994,-455 1994,-434 1367,-434"/>
<text text-anchor="start" x="1532.5" y="-440.8" font-family="Times New Roman,serif" font-size="14.00">Optional[list[PlantPerformanceSubcategoryElement]]</text>
<polygon fill="none" stroke="black" points="1170,-413 1170,-434 1367,-434 1367,-413 1170,-413"/>
<text text-anchor="start" x="1250" y="-419.8" font-family="Times New Roman,serif" font-size="14.00">results</text>
<polygon fill="none" stroke="black" points="1367,-413 1367,-434 1994,-434 1994,-413 1367,-413"/>
<text text-anchor="start" x="1610" y="-419.8" font-family="Times New Roman,serif" font-size="14.00">PlantPerformanceResults</text>
</a>
</g>
</g>
<!-- eya_def_tools.data_models.plant_performance.PlantPerformanceCategory&#45;&gt;eya_def_tools.data_models.plant_performance.PlantPerformanceSubcategory -->
<g id="edge6" class="edge">
<title>eya_def_tools.data_models.plant_performance.PlantPerformanceCategory:e&#45;&gt;eya_def_tools.data_models.plant_performance.PlantPerformanceSubcategory:w</title>
<path fill="none" stroke="black" d="M1062,-264C1208.58,-264 1033.69,-563.19 1151.39,-590.07"/>
<polygon fill="black" stroke="black" points="1160.05,-590.97 1169.54,-596.48 1165.03,-591.49 1170,-592 1170,-592 1170,-592 1165.03,-591.49 1170.46,-587.52 1160.05,-590.97 1160.05,-590.97"/>
<ellipse fill="none" stroke="black" cx="1155.58" cy="-590.51" rx="4" ry="4"/>
</g>
<!-- eya_def_tools.data_models.plant_performance.PlantPerformanceResults&#45;&gt;eya_def_tools.data_models.dataset.Dataset -->
<g id="edge7" class="edge">
<title>eya_def_tools.data_models.plant_performance.PlantPerformanceResults:e&#45;&gt;eya_def_tools.data_models.dataset.Dataset:w</title>
<path fill="none" stroke="black" d="M3465,-241C3624.3,-241 3668.79,-241 3819.13,-241"/>
<polygon fill="black" stroke="black" points="3828,-241 3838,-245.5 3833,-241 3838,-241 3838,-241 3838,-241 3833,-241 3838,-236.5 3828,-241 3828,-241"/>
<ellipse fill="none" stroke="black" cx="3823.5" cy="-241" rx="4" ry="4"/>
</g>
<!-- eya_def_tools.data_models.plant_performance.PlantPerformanceSubcategory&#45;&gt;eya_def_tools.data_models.plant_performance.PlantPerformanceResults -->
<g id="edge8" class="edge">
<title>eya_def_tools.data_models.plant_performance.PlantPerformanceSubcategory:e&#45;&gt;eya_def_tools.data_models.plant_performance.PlantPerformanceResults:w</title>
<path fill="none" stroke="black" d="M1994,-423C2050.96,-423 2047.97,-372.03 2102,-354 2224.67,-313.05 3108.68,-266.04 3285.18,-263.14"/>
<polyline fill="none" stroke="black" points="3300,-263 3295,-263.05"/>
<polygon fill="black" stroke="black" points="3293.95,-258.06 3294.05,-268.06 3292.05,-268.08 3291.95,-258.08 3293.95,-258.06"/>
<polyline fill="none" stroke="black" points="3295,-263.05 3290,-263.1"/>
<polygon fill="black" stroke="black" points="3288.95,-258.1 3289.05,-268.1 3287.05,-268.12 3286.95,-258.12 3288.95,-258.1"/>
<polyline fill="none" stroke="black" points="3290,-263.1 3285,-263.14"/>
</g>
<!-- eya_def_tools.data_models.plant_performance.PlantPerformanceSubcategoryElement -->
<g id="node8" class="node">
<title>eya_def_tools.data_models.plant_performance.PlantPerformanceSubcategoryElement</title>
<g id="a_node8"><a xlink:title="eya_def_tools.data_models.plant_performance.PlantPerformanceSubcategoryElement&#10;&#10;Plant performance loss assessment subcategory element.&#10;&#10;Attributes:&#10; &#160;&#160;&#160;label (str): Label of the plant performance loss subcategory element.&#10; &#160;&#160;&#160;description (Optional[Annotated[str, FieldInfo(annotation=NoneType, required=True, metadata=[MinLen(min_length=1)])]]): Optional description of the plant performance loss subcategory element, which should not be empty if the field is included. Default is None.&#10; &#160;&#160;&#160;comments (Optional[Annotated[str, FieldInfo(annotation=NoneType, required=True, metadata=[MinLen(min_length=1)])]]): Optional comments on the plant performance loss subcategory element, which should not be empty if the field is included. Default is None.&#10; &#160;&#160;&#160;basis (AssessmentBasis(StrEnum)): Basis of plant performance loss subcategory element assessment. The basis describes the level of detail of the calculation or estimate used in the assessment of the element.&#10; &#160;&#160;&#160;variability (TimeVariabilityType(StrEnum)): Considered variability in the plant performance loss subcategory element.&#10; &#160;&#160;&#160;is_independent (bool): Whether the plant performance loss subcategory element is independent of all other elements. Default is True.&#10; &#160;&#160;&#160;assessment_process_descriptions (Optional[list[AssessmentProcessDescription]]): Description of calculation processes used in the assessment of the plant performance loss subcategory element. Default is None.&#10; &#160;&#160;&#160;results (PlantPerformanceResults): Plant performance assessment subcategory element results.&#10;">
<polygon fill="none" stroke="black" points="2102,-540 2102,-561 2926,-561 2926,-540 2102,-540"/>
<text text-anchor="start" x="2394.5" y="-547.8" font-family="Times New Roman,serif" font-weight="bold" font-size="14.00">PlantPerformanceSubcategoryElement</text>
<polygon fill="none" stroke="black" points="2102,-519 2102,-540 2299,-540 2299,-519 2102,-519"/>
<text text-anchor="start" x="2187.5" y="-525.8" font-family="Times New Roman,serif" font-size="14.00">label</text>
<polygon fill="none" stroke="black" points="2299,-519 2299,-540 2926,-540 2926,-519 2299,-519"/>
<text text-anchor="start" x="2605" y="-525.8" font-family="Times New Roman,serif" font-size="14.00">str</text>
<polygon fill="none" stroke="black" points="2102,-498 2102,-519 2299,-519 2299,-498 2102,-498"/>
<text text-anchor="start" x="2169" y="-504.8" font-family="Times New Roman,serif" font-size="14.00">description</text>
<polygon fill="none" stroke="black" points="2299,-498 2299,-519 2926,-519 2926,-498 2299,-498"/>
<text text-anchor="start" x="2302" y="-504.8" font-family="Times New Roman,serif" font-size="14.00">Optional[Annotated[str, FieldInfo(annotation=NoneType, required=True, metadata=[MinLen(min_length=1)])]]</text>
<polygon fill="none" stroke="black" points="2102,-477 2102,-498 2299,-498 2299,-477 2102,-477"/>
<text text-anchor="start" x="2171.5" y="-483.8" font-family="Times New Roman,serif" font-size="14.00">comments</text>
<polygon fill="none" stroke="black" points="2299,-477 2299,-498 2926,-498 2926,-477 2299,-477"/>
<text text-anchor="start" x="2302" y="-483.8" font-family="Times New Roman,serif" font-size="14.00">Optional[Annotated[str, FieldInfo(annotation=NoneType, required=True, metadata=[MinLen(min_length=1)])]]</text>
<polygon fill="none" stroke="black" points="2102,-456 2102,-477 2299,-477 2299,-456 2102,-456"/>
<text text-anchor="start" x="2186" y="-462.8" font-family="Times New Roman,serif" font-size="14.00">basis</text>
<polygon fill="none" stroke="black" points="2299,-456 2299,-477 2926,-477 2926,-456 2299,-456"/>
<text text-anchor="start" x="2535" y="-462.8" font-family="Times New Roman,serif" font-size="14.00">AssessmentBasis(StrEnum)</text>
<polygon fill="none" stroke="black" points="2102,-435 2102,-456 2299,-456 2299,-435 2102,-435"/>
<text text-anchor="start" x="2173.5" y="-441.8" font-family="Times New Roman,serif" font-size="14.00">variability</text>
<polygon fill="none" stroke="black" points="2299,-435 2299,-456 2926,-456 2926,-435 2299,-435"/>
<text text-anchor="start" x="2526.5" y="-441.8" font-family="Times New Roman,serif" font-size="14.00">TimeVariabilityType(StrEnum)</text>
<polygon fill="none" stroke="black" points="2102,-414 2102,-435 2299,-435 2299,-414 2102,-414"/>
<text text-anchor="start" x="2158" y="-420.8" font-family="Times New Roman,serif" font-size="14.00">is_independent</text>
<polygon fill="none" stroke="black" points="2299,-414 2299,-435 2926,-435 2926,-414 2299,-414"/>
<text text-anchor="start" x="2599.5" y="-420.8" font-family="Times New Roman,serif" font-size="14.00">bool</text>
<polygon fill="none" stroke="black" points="2102,-393 2102,-414 2299,-414 2299,-393 2102,-393"/>
<text text-anchor="start" x="2105" y="-399.8" font-family="Times New Roman,serif" font-size="14.00">assessment_process_descriptions</text>
<polygon fill="none" stroke="black" points="2299,-393 2299,-414 2926,-414 2926,-393 2299,-393"/>
<text text-anchor="start" x="2483" y="-399.8" font-family="Times New Roman,serif" font-size="14.00">Optional[list[AssessmentProcessDescription]]</text>
<polygon fill="none" stroke="black" points="2102,-372 2102,-393 2299,-393 2299,-372 2102,-372"/>
<text text-anchor="start" x="2182" y="-378.8" font-family="Times New Roman,serif" font-size="14.00">results</text>
<polygon fill="none" stroke="black" points="2299,-372 2299,-393 2926,-393 2926,-372 2299,-372"/>
<text text-anchor="start" x="2542" y="-378.8" font-family="Times New Roman,serif" font-size="14.00">PlantPerformanceResults</text>
</a>
</g>
</g>
<!-- eya_def_tools.data_models.plant_performance.PlantPerformanceSubcategory&#45;&gt;eya_def_tools.data_models.plant_performance.PlantPerformanceSubcategoryElement -->
<g id="edge9" class="edge">
<title>eya_def_tools.data_models.plant_performance.PlantPerformanceSubcategory:e&#45;&gt;eya_def_tools.data_models.plant_performance.PlantPerformanceSubcategoryElement:w</title>
<path fill="none" stroke="black" d="M1994,-444C2054.44,-444 2039.1,-529.62 2083.56,-547.68"/>
<polyline fill="none" stroke="black" points="2102,-551 2097.08,-550.11"/>
<polygon fill="black" stroke="black" points="2096.98,-545.02 2095.21,-554.86 2093.24,-554.5 2095.01,-544.66 2096.98,-545.02"/>
<polyline fill="none" stroke="black" points="2097.08,-550.11 2092.16,-549.23"/>
<ellipse fill="none" stroke="black" cx="2087.73" cy="-548.43" rx="4" ry="4"/>
</g>
<!-- eya_def_tools.data_models.process_description.AssessmentProcessDescription -->
<g id="node9" class="node">
<title>eya_def_tools.data_models.process_description.AssessmentProcessDescription</title>
<g id="a_node9"><a xlink:title="eya_def_tools.data_models.process_description.AssessmentProcessDescription&#10;&#10;Description of a process used in an energy yield assessment.&#10;&#10;Attributes:&#10; &#160;&#160;&#160;label (str): Label or name of the process or model.&#10; &#160;&#160;&#160;description (str): Description of the assessment process or model.&#10; &#160;&#160;&#160;comments (Optional[Annotated[str, FieldInfo(annotation=NoneType, required=True, metadata=[MinLen(min_length=1)])]]): Optional comments on the assessment process or model, which should not be empty if the field is included. Default is None.&#10;">
<polygon fill="none" stroke="black" points="3034,-499 3034,-520 3730,-520 3730,-499 3034,-499"/>
<text text-anchor="start" x="3287" y="-506.8" font-family="Times New Roman,serif" font-weight="bold" font-size="14.00">AssessmentProcessDescription</text>
<polygon fill="none" stroke="black" points="3034,-478 3034,-499 3103,-499 3103,-478 3034,-478"/>
<text text-anchor="start" x="3055.5" y="-484.8" font-family="Times New Roman,serif" font-size="14.00">label</text>
<polygon fill="none" stroke="black" points="3103,-478 3103,-499 3730,-499 3730,-478 3103,-478"/>
<text text-anchor="start" x="3409" y="-484.8" font-family="Times New Roman,serif" font-size="14.00">str</text>
<polygon fill="none" stroke="black" points="3034,-457 3034,-478 3103,-478 3103,-457 3034,-457"/>
<text text-anchor="start" x="3037" y="-463.8" font-family="Times New Roman,serif" font-size="14.00">description</text>
<polygon fill="none" stroke="black" points="3103,-457 3103,-478 3730,-478 3730,-457 3103,-457"/>
<text text-anchor="start" x="3409" y="-463.8" font-family="Times New Roman,serif" font-size="14.00">str</text>
<polygon fill="none" stroke="black" points="3034,-436 3034,-457 3103,-457 3103,-436 3034,-436"/>
<text text-anchor="start" x="3039.5" y="-442.8" font-family="Times New Roman,serif" font-size="14.00">comments</text>
<polygon fill="none" stroke="black" points="3103,-436 3103,-457 3730,-457 3730,-436 3103,-436"/>
<text text-anchor="start" x="3106" y="-442.8" font-family="Times New Roman,serif" font-size="14.00">Optional[Annotated[str, FieldInfo(annotation=NoneType, required=True, metadata=[MinLen(min_length=1)])]]</text>
</a>
</g>
</g>
<!-- eya_def_tools.data_models.plant_performance.PlantPerformanceSubcategory&#45;&gt;eya_def_tools.data_models.process_description.AssessmentProcessDescription -->
<g id="edge10" class="edge">
<title>eya_def_tools.data_models.plant_performance.PlantPerformanceSubcategory:e&#45;&gt;eya_def_tools.data_models.process_description.AssessmentProcessDescription:w</title>
<path fill="none" stroke="black" d="M1994,-465C2064.12,-465 2037.65,-552.15 2102,-580 2438.1,-725.44 2574.81,-683.86 2926,-580 2974,-565.81 2976.89,-522.86 3015.19,-512.34"/>
<polyline fill="none" stroke="black" points="3034,-510 3029.04,-510.62"/>
<polygon fill="black" stroke="black" points="3027.43,-505.78 3028.66,-515.7 3026.68,-515.95 3025.44,-506.03 3027.43,-505.78"/>
<polyline fill="none" stroke="black" points="3029.04,-510.62 3024.08,-511.24"/>
<ellipse fill="none" stroke="black" cx="3019.61" cy="-511.79" rx="4" ry="4"/>
</g>
<!-- eya_def_tools.data_models.plant_performance.PlantPerformanceSubcategoryElement&#45;&gt;eya_def_tools.data_models.plant_performance.PlantPerformanceResults -->
<g id="edge11" class="edge">
<title>eya_def_tools.data_models.plant_performance.PlantPerformanceSubcategoryElement:e&#45;&gt;eya_def_tools.data_models.plant_performance.PlantPerformanceResults:w</title>
<path fill="none" stroke="black" d="M2926,-382C3095.32,-382 3123.97,-269.87 3285.05,-263.3"/>
<polyline fill="none" stroke="black" points="3300,-263 3295,-263.1"/>
<polygon fill="black" stroke="black" points="3293.9,-258.12 3294.1,-268.12 3292.1,-268.16 3291.9,-258.16 3293.9,-258.12"/>
<polyline fill="none" stroke="black" points="3295,-263.1 3290,-263.2"/>
<polygon fill="black" stroke="black" points="3288.9,-258.22 3289.1,-268.22 3287.1,-268.26 3286.9,-258.26 3288.9,-258.22"/>
<polyline fill="none" stroke="black" points="3290,-263.2 3285,-263.3"/>
</g>
<!-- eya_def_tools.data_models.plant_performance.PlantPerformanceSubcategoryElement&#45;&gt;eya_def_tools.data_models.process_description.AssessmentProcessDescription -->
<g id="edge12" class="edge">
<title>eya_def_tools.data_models.plant_performance.PlantPerformanceSubcategoryElement:e&#45;&gt;eya_def_tools.data_models.process_description.AssessmentProcessDescription:w</title>
<path fill="none" stroke="black" d="M2926,-403C2986.44,-403 2971.1,-488.62 3015.56,-506.68"/>
<polyline fill="none" stroke="black" points="3034,-510 3029.08,-509.11"/>
<polygon fill="black" stroke="black" points="3028.98,-504.02 3027.21,-513.86 3025.24,-513.5 3027.01,-503.66 3028.98,-504.02"/>
<polyline fill="none" stroke="black" points="3029.08,-509.11 3024.16,-508.23"/>
<ellipse fill="none" stroke="black" cx="3019.73" cy="-507.43" rx="4" ry="4"/>
</g>
</g>
</svg>
