<?xml version="1.0" encoding="UTF-8" standalone="no"?>
<!DOCTYPE svg PUBLIC "-//W3C//DTD SVG 1.1//EN"
 "http://www.w3.org/Graphics/SVG/1.1/DTD/svg11.dtd">
<!-- Generated by graphviz version 7.0.4 (20221203.1631)
 -->
<!-- Title: Entity Relationship Diagram Pages: 1 -->
<svg width="2303pt" height="884pt"
 viewBox="0.00 0.00 2303.00 884.00" xmlns="http://www.w3.org/2000/svg" xmlns:xlink="http://www.w3.org/1999/xlink">
<g id="graph0" class="graph" transform="scale(1 1) rotate(0) translate(4 880)">
<title>Entity Relationship Diagram</title>
<polygon fill="white" stroke="none" points="-4,4 -4,-880 2299,-880 2299,4 -4,4"/>
<text text-anchor="middle" x="1147.5" y="-6.8" font-family="Times New Roman,serif" font-size="9.00" fill="#a8a8a8">Created by erdantic v0.6.0 &lt;https://github.com/drivendataorg/erdantic&gt;</text>
<!-- eya_def_tools.data_models.general_metadata.Organisation -->
<g id="node1" class="node">
<title>eya_def_tools.data_models.general_metadata.Organisation</title>
<g id="a_node1"><a xlink:title="eya_def_tools.data_models.general_metadata.Organisation&#10;&#10;Issuing or receiving organisation of an energy yield assessment.&#10;&#10;Attributes:&#10; &#160;&#160;&#160;name (str): Entity name of the organisation.&#10; &#160;&#160;&#160;abbreviation (Optional[str]): Abbreviated name of the organisation. Default is None.&#10; &#160;&#160;&#160;address (Optional[str]): Address of the organisation. Default is None.&#10; &#160;&#160;&#160;contact_name (Optional[str]): Name(s) of contact person(s) in the organisation. Default is None.&#10;">
<polygon fill="none" stroke="black" points="1027,-517.5 1027,-538.5 1190,-538.5 1190,-517.5 1027,-517.5"/>
<text text-anchor="start" x="1068" y="-525.3" font-family="Times New Roman,serif" font-weight="bold" font-size="14.00">Organisation</text>
<polygon fill="none" stroke="black" points="1027,-496.5 1027,-517.5 1112,-517.5 1112,-496.5 1027,-496.5"/>
<text text-anchor="start" x="1054.5" y="-503.3" font-family="Times New Roman,serif" font-size="14.00">name</text>
<polygon fill="none" stroke="black" points="1112,-496.5 1112,-517.5 1190,-517.5 1190,-496.5 1112,-496.5"/>
<text text-anchor="start" x="1143.5" y="-503.3" font-family="Times New Roman,serif" font-size="14.00">str</text>
<polygon fill="none" stroke="black" points="1027,-475.5 1027,-496.5 1112,-496.5 1112,-475.5 1027,-475.5"/>
<text text-anchor="start" x="1035" y="-482.3" font-family="Times New Roman,serif" font-size="14.00">abbreviation</text>
<polygon fill="none" stroke="black" points="1112,-475.5 1112,-496.5 1190,-496.5 1190,-475.5 1112,-475.5"/>
<text text-anchor="start" x="1115" y="-482.3" font-family="Times New Roman,serif" font-size="14.00">Optional[str]</text>
<polygon fill="none" stroke="black" points="1027,-454.5 1027,-475.5 1112,-475.5 1112,-454.5 1027,-454.5"/>
<text text-anchor="start" x="1047.5" y="-461.3" font-family="Times New Roman,serif" font-size="14.00">address</text>
<polygon fill="none" stroke="black" points="1112,-454.5 1112,-475.5 1190,-475.5 1190,-454.5 1112,-454.5"/>
<text text-anchor="start" x="1115" y="-461.3" font-family="Times New Roman,serif" font-size="14.00">Optional[str]</text>
<polygon fill="none" stroke="black" points="1027,-433.5 1027,-454.5 1112,-454.5 1112,-433.5 1027,-433.5"/>
<text text-anchor="start" x="1030" y="-440.3" font-family="Times New Roman,serif" font-size="14.00">contact_name</text>
<polygon fill="none" stroke="black" points="1112,-433.5 1112,-454.5 1190,-454.5 1190,-433.5 1112,-433.5"/>
<text text-anchor="start" x="1115" y="-440.3" font-family="Times New Roman,serif" font-size="14.00">Optional[str]</text>
</a>
</g>
</g>
<!-- eya_def_tools.data_models.reference_wind_farm.ReferenceWindFarm -->
<g id="node2" class="node">
<title>eya_def_tools.data_models.reference_wind_farm.ReferenceWindFarm</title>
<g id="a_node2"><a xlink:title="eya_def_tools.data_models.reference_wind_farm.ReferenceWindFarm&#10;&#10;Reference wind farm.&#10;&#10;Attributes:&#10; &#160;&#160;&#160;reference_wind_farm_id (str): Unique ID for the reference wind farm within the EYA DEF document.&#10; &#160;&#160;&#160;description (Optional[str]): Optional description of the reference wind farm. Default is None.&#10; &#160;&#160;&#160;comments (Optional[str]): Optional comments on the reference wind farm. Default is None.&#10; &#160;&#160;&#160;wind_farm_configuration (WindFarmConfiguration): The configuration data for the reference wind farm.&#10; &#160;&#160;&#160;datasets (list[ReferenceWindFarmDataset]): Metadata for the operational dataset.&#10;">
<polygon fill="none" stroke="black" points="0.5,-801.5 0.5,-822.5 337.5,-822.5 337.5,-801.5 0.5,-801.5"/>
<text text-anchor="start" x="104" y="-809.3" font-family="Times New Roman,serif" font-weight="bold" font-size="14.00">ReferenceWindFarm</text>
<polygon fill="none" stroke="black" points="0.5,-780.5 0.5,-801.5 148.5,-801.5 148.5,-780.5 0.5,-780.5"/>
<text text-anchor="start" x="6" y="-787.3" font-family="Times New Roman,serif" font-size="14.00">reference_wind_farm_id</text>
<polygon fill="none" stroke="black" points="148.5,-780.5 148.5,-801.5 337.5,-801.5 337.5,-780.5 148.5,-780.5"/>
<text text-anchor="start" x="235.5" y="-787.3" font-family="Times New Roman,serif" font-size="14.00">str</text>
<polygon fill="none" stroke="black" points="0.5,-759.5 0.5,-780.5 148.5,-780.5 148.5,-759.5 0.5,-759.5"/>
<text text-anchor="start" x="43" y="-766.3" font-family="Times New Roman,serif" font-size="14.00">description</text>
<polygon fill="none" stroke="black" points="148.5,-759.5 148.5,-780.5 337.5,-780.5 337.5,-759.5 148.5,-759.5"/>
<text text-anchor="start" x="207" y="-766.3" font-family="Times New Roman,serif" font-size="14.00">Optional[str]</text>
<polygon fill="none" stroke="black" points="0.5,-738.5 0.5,-759.5 148.5,-759.5 148.5,-738.5 0.5,-738.5"/>
<text text-anchor="start" x="45.5" y="-745.3" font-family="Times New Roman,serif" font-size="14.00">comments</text>
<polygon fill="none" stroke="black" points="148.5,-738.5 148.5,-759.5 337.5,-759.5 337.5,-738.5 148.5,-738.5"/>
<text text-anchor="start" x="207" y="-745.3" font-family="Times New Roman,serif" font-size="14.00">Optional[str]</text>
<polygon fill="none" stroke="black" points="0.5,-717.5 0.5,-738.5 148.5,-738.5 148.5,-717.5 0.5,-717.5"/>
<text text-anchor="start" x="3.5" y="-724.3" font-family="Times New Roman,serif" font-size="14.00">wind_farm_configuration</text>
<polygon fill="none" stroke="black" points="148.5,-717.5 148.5,-738.5 337.5,-738.5 337.5,-717.5 148.5,-717.5"/>
<text text-anchor="start" x="174.5" y="-724.3" font-family="Times New Roman,serif" font-size="14.00">WindFarmConfiguration</text>
<polygon fill="none" stroke="black" points="0.5,-696.5 0.5,-717.5 148.5,-717.5 148.5,-696.5 0.5,-696.5"/>
<text text-anchor="start" x="51.5" y="-703.3" font-family="Times New Roman,serif" font-size="14.00">datasets</text>
<polygon fill="none" stroke="black" points="148.5,-696.5 148.5,-717.5 337.5,-717.5 337.5,-696.5 148.5,-696.5"/>
<text text-anchor="start" x="151.5" y="-703.3" font-family="Times New Roman,serif" font-size="14.00">list[ReferenceWindFarmDataset]</text>
</a>
</g>
</g>
<!-- eya_def_tools.data_models.reference_wind_farm.ReferenceWindFarmDataset -->
<g id="node3" class="node">
<title>eya_def_tools.data_models.reference_wind_farm.ReferenceWindFarmDataset</title>
<g id="a_node3"><a xlink:title="eya_def_tools.data_models.reference_wind_farm.ReferenceWindFarmDataset&#10;&#10;Reference wind farm operational dataset.&#10;&#10;Attributes:&#10; &#160;&#160;&#160;label (Optional[str]): Label of the reference wind farm dataset.&#10; &#160;&#160;&#160;description (Optional[str]): Optional description of the dataset. Default is None.&#10; &#160;&#160;&#160;comments (Optional[str]): Optional comments on the dataset. Default is None.&#10; &#160;&#160;&#160;data_supplier_organisation (Organisation): The organisation that supplied the data.&#10; &#160;&#160;&#160;data_type (OperationalDataType(StrEnum)): The type of data in the operational data, categorised as &#39;scada&#39; for data from a Supervisory Control and Data Acquisition (SCADA) system, &#39;metered&#39; for data from a production meter, &#39;environmental_measurement&#39; for data from an (on&#45;site) environmental measurement station such as a meteorological mast or a remote sensing device (RSD) and &#39;other&#39; for any other type of unit.&#10; &#160;&#160;&#160;data_source_type (DataSourceType(StrEnum)): The type of the operational data source. Primary data, such as primary SCADA data, comes directly from the source without processing. Report data refers to data extracted from report document, such as monthly operational reports. Other secondary data comprises all other data source categories, such as secondary SCADA data provided in processed (harmonised) form by a data management service provider.&#10; &#160;&#160;&#160;used_data_variables (list[ReferenceWindFarmDataVariable]): A list of the types of data variables included in this dataset and used in the assessment. For a large dataset (such as a full wind turbine SCADA dataset) this field should not include all the variables but only the ones that were used in the analysis.&#10; &#160;&#160;&#160;time_resolution (TimeResolution(StrEnum)): Time resolution of the data.&#10; &#160;&#160;&#160;data_period_start_date (date): Start of the data period in the ISO 8601 standard format for a calendar date, i.e. YYYY&#45;MM&#45;DD.&#10; &#160;&#160;&#160;data_period_end_date (date): End of the data period in the ISO 8601 standard format for a calendar date, i.e. YYYY&#45;MM&#45;DD.&#10;">
<polygon fill="none" stroke="black" points="453,-582.5 453,-603.5 829,-603.5 829,-582.5 453,-582.5"/>
<text text-anchor="start" x="552.5" y="-590.3" font-family="Times New Roman,serif" font-weight="bold" font-size="14.00">ReferenceWindFarmDataset</text>
<polygon fill="none" stroke="black" points="453,-561.5 453,-582.5 610,-582.5 610,-561.5 453,-561.5"/>
<text text-anchor="start" x="518.5" y="-568.3" font-family="Times New Roman,serif" font-size="14.00">label</text>
<polygon fill="none" stroke="black" points="610,-561.5 610,-582.5 829,-582.5 829,-561.5 610,-561.5"/>
<text text-anchor="start" x="683.5" y="-568.3" font-family="Times New Roman,serif" font-size="14.00">Optional[str]</text>
<polygon fill="none" stroke="black" points="453,-540.5 453,-561.5 610,-561.5 610,-540.5 453,-540.5"/>
<text text-anchor="start" x="500" y="-547.3" font-family="Times New Roman,serif" font-size="14.00">description</text>
<polygon fill="none" stroke="black" points="610,-540.5 610,-561.5 829,-561.5 829,-540.5 610,-540.5"/>
<text text-anchor="start" x="683.5" y="-547.3" font-family="Times New Roman,serif" font-size="14.00">Optional[str]</text>
<polygon fill="none" stroke="black" points="453,-519.5 453,-540.5 610,-540.5 610,-519.5 453,-519.5"/>
<text text-anchor="start" x="502.5" y="-526.3" font-family="Times New Roman,serif" font-size="14.00">comments</text>
<polygon fill="none" stroke="black" points="610,-519.5 610,-540.5 829,-540.5 829,-519.5 610,-519.5"/>
<text text-anchor="start" x="683.5" y="-526.3" font-family="Times New Roman,serif" font-size="14.00">Optional[str]</text>
<polygon fill="none" stroke="black" points="453,-498.5 453,-519.5 610,-519.5 610,-498.5 453,-498.5"/>
<text text-anchor="start" x="456" y="-505.3" font-family="Times New Roman,serif" font-size="14.00">data_supplier_organisation</text>
<polygon fill="none" stroke="black" points="610,-498.5 610,-519.5 829,-519.5 829,-498.5 610,-498.5"/>
<text text-anchor="start" x="684" y="-505.3" font-family="Times New Roman,serif" font-size="14.00">Organisation</text>
<polygon fill="none" stroke="black" points="453,-477.5 453,-498.5 610,-498.5 610,-477.5 453,-477.5"/>
<text text-anchor="start" x="504" y="-484.3" font-family="Times New Roman,serif" font-size="14.00">data_type</text>
<polygon fill="none" stroke="black" points="610,-477.5 610,-498.5 829,-498.5 829,-477.5 610,-477.5"/>
<text text-anchor="start" x="630.5" y="-484.3" font-family="Times New Roman,serif" font-size="14.00">OperationalDataType(StrEnum)</text>
<polygon fill="none" stroke="black" points="453,-456.5 453,-477.5 610,-477.5 610,-456.5 453,-456.5"/>
<text text-anchor="start" x="481.5" y="-463.3" font-family="Times New Roman,serif" font-size="14.00">data_source_type</text>
<polygon fill="none" stroke="black" points="610,-456.5 610,-477.5 829,-477.5 829,-456.5 610,-456.5"/>
<text text-anchor="start" x="643" y="-463.3" font-family="Times New Roman,serif" font-size="14.00">DataSourceType(StrEnum)</text>
<polygon fill="none" stroke="black" points="453,-435.5 453,-456.5 610,-456.5 610,-435.5 453,-435.5"/>
<text text-anchor="start" x="474.5" y="-442.3" font-family="Times New Roman,serif" font-size="14.00">used_data_variables</text>
<polygon fill="none" stroke="black" points="610,-435.5 610,-456.5 829,-456.5 829,-435.5 610,-435.5"/>
<text text-anchor="start" x="613" y="-442.3" font-family="Times New Roman,serif" font-size="14.00">list[ReferenceWindFarmDataVariable]</text>
<polygon fill="none" stroke="black" points="453,-414.5 453,-435.5 610,-435.5 610,-414.5 453,-414.5"/>
<text text-anchor="start" x="488.5" y="-421.3" font-family="Times New Roman,serif" font-size="14.00">time_resolution</text>
<polygon fill="none" stroke="black" points="610,-414.5 610,-435.5 829,-435.5 829,-414.5 610,-414.5"/>
<text text-anchor="start" x="646" y="-421.3" font-family="Times New Roman,serif" font-size="14.00">TimeResolution(StrEnum)</text>
<polygon fill="none" stroke="black" points="453,-393.5 453,-414.5 610,-414.5 610,-393.5 453,-393.5"/>
<text text-anchor="start" x="466.5" y="-400.3" font-family="Times New Roman,serif" font-size="14.00">data_period_start_date</text>
<polygon fill="none" stroke="black" points="610,-393.5 610,-414.5 829,-414.5 829,-393.5 610,-393.5"/>
<text text-anchor="start" x="707.5" y="-400.3" font-family="Times New Roman,serif" font-size="14.00">date</text>
<polygon fill="none" stroke="black" points="453,-372.5 453,-393.5 610,-393.5 610,-372.5 453,-372.5"/>
<text text-anchor="start" x="468.5" y="-379.3" font-family="Times New Roman,serif" font-size="14.00">data_period_end_date</text>
<polygon fill="none" stroke="black" points="610,-372.5 610,-393.5 829,-393.5 829,-372.5 610,-372.5"/>
<text text-anchor="start" x="707.5" y="-379.3" font-family="Times New Roman,serif" font-size="14.00">date</text>
</a>
</g>
</g>
<!-- eya_def_tools.data_models.reference_wind_farm.ReferenceWindFarm&#45;&gt;eya_def_tools.data_models.reference_wind_farm.ReferenceWindFarmDataset -->
<g id="edge1" class="edge">
<title>eya_def_tools.data_models.reference_wind_farm.ReferenceWindFarm:e&#45;&gt;eya_def_tools.data_models.reference_wind_farm.ReferenceWindFarmDataset:w</title>
<path fill="none" stroke="black" d="M337,-706.5C401.52,-706.5 384.99,-614.89 433.37,-596.64"/>
<polygon fill="black" stroke="black" points="442.14,-595.16 452.75,-597.94 447.07,-594.33 452,-593.5 452,-593.5 452,-593.5 447.07,-594.33 451.25,-589.06 442.14,-595.16 442.14,-595.16"/>
<ellipse fill="none" stroke="black" cx="437.7" cy="-595.91" rx="4" ry="4"/>
</g>
<!-- eya_def_tools.data_models.wind_farm.WindFarmConfiguration -->
<g id="node4" class="node">
<title>eya_def_tools.data_models.wind_farm.WindFarmConfiguration</title>
<g id="a_node4"><a xlink:title="eya_def_tools.data_models.wind_farm.WindFarmConfiguration&#10;&#10;A collection of wind turbines considered as one unit (plant).&#10;&#10;Attributes:&#10; &#160;&#160;&#160;label (str): Label or name of the wind farm.&#10; &#160;&#160;&#160;abbreviation (Optional[str]): Optional abbreviated label of the wind farm. Default is None.&#10; &#160;&#160;&#160;description (Optional[str]): Optional description of the wind farm. Default is None.&#10; &#160;&#160;&#160;comments (Optional[str]): Optional comments on the wind farm. Default is None.&#10; &#160;&#160;&#160;turbines (list[TurbineConfiguration]): List of specifications for constituent turbines.&#10; &#160;&#160;&#160;relevance (WindFarmRelevance(StrEnum)): The relevance of the wind farm for the assessment.&#10; &#160;&#160;&#160;operational_lifetime_start_date (Optional[date]): Operational lifetime start date (format YYYY&#45;MM&#45;DD). Default is None.&#10; &#160;&#160;&#160;operational_lifetime_end_date (Optional[date]): Operational lifetime end date (format YYYY&#45;MM&#45;DD). Default is None.&#10; &#160;&#160;&#160;restrictions (Optional[list[OperationalRestriction]]): List of operational restrictions at the wind farm level. Default is None.&#10;">
<polygon fill="none" stroke="black" points="445,-829.5 445,-850.5 837,-850.5 837,-829.5 445,-829.5"/>
<text text-anchor="start" x="564.5" y="-837.3" font-family="Times New Roman,serif" font-weight="bold" font-size="14.00">WindFarmConfiguration</text>
<polygon fill="none" stroke="black" points="445,-808.5 445,-829.5 623,-829.5 623,-808.5 445,-808.5"/>
<text text-anchor="start" x="521" y="-815.3" font-family="Times New Roman,serif" font-size="14.00">label</text>
<polygon fill="none" stroke="black" points="623,-808.5 623,-829.5 837,-829.5 837,-808.5 623,-808.5"/>
<text text-anchor="start" x="722.5" y="-815.3" font-family="Times New Roman,serif" font-size="14.00">str</text>
<polygon fill="none" stroke="black" points="445,-787.5 445,-808.5 623,-808.5 623,-787.5 445,-787.5"/>
<text text-anchor="start" x="499.5" y="-794.3" font-family="Times New Roman,serif" font-size="14.00">abbreviation</text>
<polygon fill="none" stroke="black" points="623,-787.5 623,-808.5 837,-808.5 837,-787.5 623,-787.5"/>
<text text-anchor="start" x="694" y="-794.3" font-family="Times New Roman,serif" font-size="14.00">Optional[str]</text>
<polygon fill="none" stroke="black" points="445,-766.5 445,-787.5 623,-787.5 623,-766.5 445,-766.5"/>
<text text-anchor="start" x="502.5" y="-773.3" font-family="Times New Roman,serif" font-size="14.00">description</text>
<polygon fill="none" stroke="black" points="623,-766.5 623,-787.5 837,-787.5 837,-766.5 623,-766.5"/>
<text text-anchor="start" x="694" y="-773.3" font-family="Times New Roman,serif" font-size="14.00">Optional[str]</text>
<polygon fill="none" stroke="black" points="445,-745.5 445,-766.5 623,-766.5 623,-745.5 445,-745.5"/>
<text text-anchor="start" x="505" y="-752.3" font-family="Times New Roman,serif" font-size="14.00">comments</text>
<polygon fill="none" stroke="black" points="623,-745.5 623,-766.5 837,-766.5 837,-745.5 623,-745.5"/>
<text text-anchor="start" x="694" y="-752.3" font-family="Times New Roman,serif" font-size="14.00">Optional[str]</text>
<polygon fill="none" stroke="black" points="445,-724.5 445,-745.5 623,-745.5 623,-724.5 445,-724.5"/>
<text text-anchor="start" x="511.5" y="-731.3" font-family="Times New Roman,serif" font-size="14.00">turbines</text>
<polygon fill="none" stroke="black" points="623,-724.5 623,-745.5 837,-745.5 837,-724.5 623,-724.5"/>
<text text-anchor="start" x="657.5" y="-731.3" font-family="Times New Roman,serif" font-size="14.00">list[TurbineConfiguration]</text>
<polygon fill="none" stroke="black" points="445,-703.5 445,-724.5 623,-724.5 623,-703.5 445,-703.5"/>
<text text-anchor="start" x="508" y="-710.3" font-family="Times New Roman,serif" font-size="14.00">relevance</text>
<polygon fill="none" stroke="black" points="623,-703.5 623,-724.5 837,-724.5 837,-703.5 623,-703.5"/>
<text text-anchor="start" x="642.5" y="-710.3" font-family="Times New Roman,serif" font-size="14.00">WindFarmRelevance(StrEnum)</text>
<polygon fill="none" stroke="black" points="445,-682.5 445,-703.5 623,-703.5 623,-682.5 445,-682.5"/>
<text text-anchor="start" x="448" y="-689.3" font-family="Times New Roman,serif" font-size="14.00">operational_lifetime_start_date</text>
<polygon fill="none" stroke="black" points="623,-682.5 623,-703.5 837,-703.5 837,-682.5 623,-682.5"/>
<text text-anchor="start" x="689.5" y="-689.3" font-family="Times New Roman,serif" font-size="14.00">Optional[date]</text>
<polygon fill="none" stroke="black" points="445,-661.5 445,-682.5 623,-682.5 623,-661.5 445,-661.5"/>
<text text-anchor="start" x="450" y="-668.3" font-family="Times New Roman,serif" font-size="14.00">operational_lifetime_end_date</text>
<polygon fill="none" stroke="black" points="623,-661.5 623,-682.5 837,-682.5 837,-661.5 623,-661.5"/>
<text text-anchor="start" x="689.5" y="-668.3" font-family="Times New Roman,serif" font-size="14.00">Optional[date]</text>
<polygon fill="none" stroke="black" points="445,-640.5 445,-661.5 623,-661.5 623,-640.5 445,-640.5"/>
<text text-anchor="start" x="503" y="-647.3" font-family="Times New Roman,serif" font-size="14.00">restrictions</text>
<polygon fill="none" stroke="black" points="623,-640.5 623,-661.5 837,-661.5 837,-640.5 623,-640.5"/>
<text text-anchor="start" x="626" y="-647.3" font-family="Times New Roman,serif" font-size="14.00">Optional[list[OperationalRestriction]]</text>
</a>
</g>
</g>
<!-- eya_def_tools.data_models.reference_wind_farm.ReferenceWindFarm&#45;&gt;eya_def_tools.data_models.wind_farm.WindFarmConfiguration -->
<g id="edge2" class="edge">
<title>eya_def_tools.data_models.reference_wind_farm.ReferenceWindFarm:e&#45;&gt;eya_def_tools.data_models.wind_farm.WindFarmConfiguration:w</title>
<path fill="none" stroke="black" d="M337,-727.5C401.04,-727.5 379.75,-823.53 430.46,-838.54"/>
<polyline fill="none" stroke="black" points="445,-840.5 440.04,-839.83"/>
<polygon fill="black" stroke="black" points="439.72,-834.74 438.39,-844.65 436.4,-844.39 437.74,-834.48 439.72,-834.74"/>
<polyline fill="none" stroke="black" points="440.04,-839.83 435.09,-839.16"/>
<polygon fill="black" stroke="black" points="434.77,-834.07 433.43,-843.98 431.45,-843.72 432.79,-833.81 434.77,-834.07"/>
<polyline fill="none" stroke="black" points="435.09,-839.16 430.13,-838.49"/>
</g>
<!-- eya_def_tools.data_models.reference_wind_farm.ReferenceWindFarmDataset&#45;&gt;eya_def_tools.data_models.general_metadata.Organisation -->
<g id="edge4" class="edge">
<title>eya_def_tools.data_models.reference_wind_farm.ReferenceWindFarmDataset:e&#45;&gt;eya_def_tools.data_models.general_metadata.Organisation:w</title>
<path fill="none" stroke="black" d="M830,-509.5C912.39,-509.5 935.8,-526.34 1011.27,-528.31"/>
<polyline fill="none" stroke="black" points="1026,-528.5 1021,-528.44"/>
<polygon fill="black" stroke="black" points="1020.06,-523.42 1019.94,-533.42 1017.94,-533.4 1018.06,-523.4 1020.06,-523.42"/>
<polyline fill="none" stroke="black" points="1021,-528.44 1016,-528.37"/>
<polygon fill="black" stroke="black" points="1015.06,-523.36 1014.94,-533.36 1012.94,-533.33 1013.06,-523.33 1015.06,-523.36"/>
<polyline fill="none" stroke="black" points="1016,-528.37 1011,-528.31"/>
</g>
<!-- eya_def_tools.data_models.reference_wind_farm.ReferenceWindFarmDataVariable -->
<g id="node5" class="node">
<title>eya_def_tools.data_models.reference_wind_farm.ReferenceWindFarmDataVariable</title>
<g id="a_node5"><a xlink:title="eya_def_tools.data_models.reference_wind_farm.ReferenceWindFarmDataVariable&#10;&#10;Reference wind farm operational data variable.&#10;&#10;Attributes:&#10; &#160;&#160;&#160;label (str): Label of the data variable. This is currently free text but should be replaced by a list of enum options.&#10; &#160;&#160;&#160;description (Optional[str]): Optional description of the data variable. Default is None.&#10; &#160;&#160;&#160;comments (Optional[str]): Optional comments on the data variable. Default is None.&#10; &#160;&#160;&#160;data_level (OperationalDataLevel(StrEnum)): Whether the operational data variable is provided for each individual wind turbine (&#39;turbine_level&#39;), is aggregated at the wind farm level (&#39;wind_farm_level&#39;) or corresponds to a different (&#39;other&#39;) unit such as an environmental measurement station.&#10; &#160;&#160;&#160;statistic_types (list[StatisticType(StrEnum)]): A list of the types of statistics included for this data variable.&#10; &#160;&#160;&#160;measurement_point (Optional[str]): Optional clarification of the point of measurement, such as the location of the energy meter for metered production. Default is None.&#10; &#160;&#160;&#160;raw_data_recovery_rate (Optional[list[Result]]): Dimensionless raw data recovery rate for the variable. Default is None.&#10;">
<polygon fill="none" stroke="black" points="945,-376.5 945,-397.5 1271,-397.5 1271,-376.5 945,-376.5"/>
<text text-anchor="start" x="1002" y="-384.3" font-family="Times New Roman,serif" font-weight="bold" font-size="14.00">ReferenceWindFarmDataVariable</text>
<polygon fill="none" stroke="black" points="945,-355.5 945,-376.5 1087,-376.5 1087,-355.5 945,-355.5"/>
<text text-anchor="start" x="1003" y="-362.3" font-family="Times New Roman,serif" font-size="14.00">label</text>
<polygon fill="none" stroke="black" points="1087,-355.5 1087,-376.5 1271,-376.5 1271,-355.5 1087,-355.5"/>
<text text-anchor="start" x="1171.5" y="-362.3" font-family="Times New Roman,serif" font-size="14.00">str</text>
<polygon fill="none" stroke="black" points="945,-334.5 945,-355.5 1087,-355.5 1087,-334.5 945,-334.5"/>
<text text-anchor="start" x="984.5" y="-341.3" font-family="Times New Roman,serif" font-size="14.00">description</text>
<polygon fill="none" stroke="black" points="1087,-334.5 1087,-355.5 1271,-355.5 1271,-334.5 1087,-334.5"/>
<text text-anchor="start" x="1143" y="-341.3" font-family="Times New Roman,serif" font-size="14.00">Optional[str]</text>
<polygon fill="none" stroke="black" points="945,-313.5 945,-334.5 1087,-334.5 1087,-313.5 945,-313.5"/>
<text text-anchor="start" x="987" y="-320.3" font-family="Times New Roman,serif" font-size="14.00">comments</text>
<polygon fill="none" stroke="black" points="1087,-313.5 1087,-334.5 1271,-334.5 1271,-313.5 1087,-313.5"/>
<text text-anchor="start" x="1143" y="-320.3" font-family="Times New Roman,serif" font-size="14.00">Optional[str]</text>
<polygon fill="none" stroke="black" points="945,-292.5 945,-313.5 1087,-313.5 1087,-292.5 945,-292.5"/>
<text text-anchor="start" x="988" y="-299.3" font-family="Times New Roman,serif" font-size="14.00">data_level</text>
<polygon fill="none" stroke="black" points="1087,-292.5 1087,-313.5 1271,-313.5 1271,-292.5 1087,-292.5"/>
<text text-anchor="start" x="1090" y="-299.3" font-family="Times New Roman,serif" font-size="14.00">OperationalDataLevel(StrEnum)</text>
<polygon fill="none" stroke="black" points="945,-271.5 945,-292.5 1087,-292.5 1087,-271.5 945,-271.5"/>
<text text-anchor="start" x="976" y="-278.3" font-family="Times New Roman,serif" font-size="14.00">statistic_types</text>
<polygon fill="none" stroke="black" points="1087,-271.5 1087,-292.5 1271,-292.5 1271,-271.5 1087,-271.5"/>
<text text-anchor="start" x="1100.5" y="-278.3" font-family="Times New Roman,serif" font-size="14.00">list[StatisticType(StrEnum)]</text>
<polygon fill="none" stroke="black" points="945,-250.5 945,-271.5 1087,-271.5 1087,-250.5 945,-250.5"/>
<text text-anchor="start" x="961.5" y="-257.3" font-family="Times New Roman,serif" font-size="14.00">measurement_point</text>
<polygon fill="none" stroke="black" points="1087,-250.5 1087,-271.5 1271,-271.5 1271,-250.5 1087,-250.5"/>
<text text-anchor="start" x="1143" y="-257.3" font-family="Times New Roman,serif" font-size="14.00">Optional[str]</text>
<polygon fill="none" stroke="black" points="945,-229.5 945,-250.5 1087,-250.5 1087,-229.5 945,-229.5"/>
<text text-anchor="start" x="948" y="-236.3" font-family="Times New Roman,serif" font-size="14.00">raw_data_recovery_rate</text>
<polygon fill="none" stroke="black" points="1087,-229.5 1087,-250.5 1271,-250.5 1271,-229.5 1087,-229.5"/>
<text text-anchor="start" x="1120" y="-236.3" font-family="Times New Roman,serif" font-size="14.00">Optional[list[Result]]</text>
</a>
</g>
</g>
<!-- eya_def_tools.data_models.reference_wind_farm.ReferenceWindFarmDataset&#45;&gt;eya_def_tools.data_models.reference_wind_farm.ReferenceWindFarmDataVariable -->
<g id="edge5" class="edge">
<title>eya_def_tools.data_models.reference_wind_farm.ReferenceWindFarmDataset:e&#45;&gt;eya_def_tools.data_models.reference_wind_farm.ReferenceWindFarmDataVariable:w</title>
<path fill="none" stroke="black" d="M830,-445.5C880.2,-445.5 886.77,-400.9 926.23,-389.92"/>
<polygon fill="black" stroke="black" points="935.08,-388.78 945.58,-391.96 940.04,-388.14 945,-387.5 945,-387.5 945,-387.5 940.04,-388.14 944.42,-383.04 935.08,-388.78 935.08,-388.78"/>
<ellipse fill="none" stroke="black" cx="930.62" cy="-389.35" rx="4" ry="4"/>
</g>
<!-- eya_def_tools.data_models.wind_farm.OperationalRestriction -->
<g id="node9" class="node">
<title>eya_def_tools.data_models.wind_farm.OperationalRestriction</title>
<g id="a_node9"><a xlink:title="eya_def_tools.data_models.wind_farm.OperationalRestriction&#10;&#10;Specifications of a restriction that limits power output.&#10;&#10;In the current draft of the schema, &#39;label&#39;, &#39;description&#39; and&#10;&#39;comments&#39; fields are available to describe the restriction with&#10;free text. This is intended to be expanded into a more comprehensive&#10;data model.&#10;&#10;Attributes:&#10; &#160;&#160;&#160;label (str): Short label to indicate the type of operational restriction.&#10; &#160;&#160;&#160;description (Optional[str]): Optional description of the operational restriction. Default is None.&#10; &#160;&#160;&#160;comments (Optional[str]): Optional comments on the operational restriction. Default is None.&#10;">
<polygon fill="none" stroke="black" points="1485,-634.5 1485,-655.5 1633,-655.5 1633,-634.5 1485,-634.5"/>
<text text-anchor="start" x="1488" y="-642.3" font-family="Times New Roman,serif" font-weight="bold" font-size="14.00">OperationalRestriction</text>
<polygon fill="none" stroke="black" points="1485,-613.5 1485,-634.5 1554,-634.5 1554,-613.5 1485,-613.5"/>
<text text-anchor="start" x="1506.5" y="-620.3" font-family="Times New Roman,serif" font-size="14.00">label</text>
<polygon fill="none" stroke="black" points="1554,-613.5 1554,-634.5 1633,-634.5 1633,-613.5 1554,-613.5"/>
<text text-anchor="start" x="1586" y="-620.3" font-family="Times New Roman,serif" font-size="14.00">str</text>
<polygon fill="none" stroke="black" points="1485,-592.5 1485,-613.5 1554,-613.5 1554,-592.5 1485,-592.5"/>
<text text-anchor="start" x="1488" y="-599.3" font-family="Times New Roman,serif" font-size="14.00">description</text>
<polygon fill="none" stroke="black" points="1554,-592.5 1554,-613.5 1633,-613.5 1633,-592.5 1554,-592.5"/>
<text text-anchor="start" x="1557.5" y="-599.3" font-family="Times New Roman,serif" font-size="14.00">Optional[str]</text>
<polygon fill="none" stroke="black" points="1485,-571.5 1485,-592.5 1554,-592.5 1554,-571.5 1485,-571.5"/>
<text text-anchor="start" x="1490.5" y="-578.3" font-family="Times New Roman,serif" font-size="14.00">comments</text>
<polygon fill="none" stroke="black" points="1554,-571.5 1554,-592.5 1633,-592.5 1633,-571.5 1554,-571.5"/>
<text text-anchor="start" x="1557.5" y="-578.3" font-family="Times New Roman,serif" font-size="14.00">Optional[str]</text>
</a>
</g>
</g>
<!-- eya_def_tools.data_models.wind_farm.WindFarmConfiguration&#45;&gt;eya_def_tools.data_models.wind_farm.OperationalRestriction -->
<g id="edge9" class="edge">
<title>eya_def_tools.data_models.wind_farm.WindFarmConfiguration:e&#45;&gt;eya_def_tools.data_models.wind_farm.OperationalRestriction:w</title>
<path fill="none" stroke="black" d="M837,-650.5C1118.25,-650.5 1193.17,-645.72 1465.35,-645.51"/>
<polyline fill="none" stroke="black" points="1484,-645.5 1479,-645.5"/>
<polygon fill="black" stroke="black" points="1478,-640.5 1478,-650.5 1476,-650.5 1476,-640.5 1478,-640.5"/>
<polyline fill="none" stroke="black" points="1479,-645.5 1474,-645.5"/>
<ellipse fill="none" stroke="black" cx="1469.5" cy="-645.51" rx="4" ry="4"/>
</g>
<!-- eya_def_tools.data_models.wind_farm.TurbineConfiguration -->
<g id="node10" class="node">
<title>eya_def_tools.data_models.wind_farm.TurbineConfiguration</title>
<g id="a_node10"><a xlink:title="eya_def_tools.data_models.wind_farm.TurbineConfiguration&#10;&#10;Specification of all details for a turbine configuration.&#10;&#10;Attributes:&#10; &#160;&#160;&#160;id (str): Unique identifier of the turbine.&#10; &#160;&#160;&#160;label (Optional[str]): Label of the turbine, if different from the &#39;id&#39;. Default is None.&#10; &#160;&#160;&#160;description (Optional[str]): Optional description of the turbine. Default is None.&#10; &#160;&#160;&#160;comments (Optional[str]): Optional comments on the turbine. Default is None.&#10; &#160;&#160;&#160;location (Location): The horizontal spatial location of the turbine.&#10; &#160;&#160;&#160;hub_height (float): The hub height of the turbine.&#10; &#160;&#160;&#160;turbine_model_id (str): Unique identifier of the turbine model.&#10; &#160;&#160;&#160;restrictions (Optional[list[OperationalRestriction]]): List of operational restrictions at the turbine level. Default is None.&#10;">
<polygon fill="none" stroke="black" points="949,-854.5 949,-875.5 1268,-875.5 1268,-854.5 949,-854.5"/>
<text text-anchor="start" x="1041" y="-862.3" font-family="Times New Roman,serif" font-weight="bold" font-size="14.00">TurbineConfiguration</text>
<polygon fill="none" stroke="black" points="949,-833.5 949,-854.5 1054,-854.5 1054,-833.5 949,-833.5"/>
<text text-anchor="start" x="996" y="-840.3" font-family="Times New Roman,serif" font-size="14.00">id</text>
<polygon fill="none" stroke="black" points="1054,-833.5 1054,-854.5 1268,-854.5 1268,-833.5 1054,-833.5"/>
<text text-anchor="start" x="1153.5" y="-840.3" font-family="Times New Roman,serif" font-size="14.00">str</text>
<polygon fill="none" stroke="black" points="949,-812.5 949,-833.5 1054,-833.5 1054,-812.5 949,-812.5"/>
<text text-anchor="start" x="988.5" y="-819.3" font-family="Times New Roman,serif" font-size="14.00">label</text>
<polygon fill="none" stroke="black" points="1054,-812.5 1054,-833.5 1268,-833.5 1268,-812.5 1054,-812.5"/>
<text text-anchor="start" x="1125" y="-819.3" font-family="Times New Roman,serif" font-size="14.00">Optional[str]</text>
<polygon fill="none" stroke="black" points="949,-791.5 949,-812.5 1054,-812.5 1054,-791.5 949,-791.5"/>
<text text-anchor="start" x="970" y="-798.3" font-family="Times New Roman,serif" font-size="14.00">description</text>
<polygon fill="none" stroke="black" points="1054,-791.5 1054,-812.5 1268,-812.5 1268,-791.5 1054,-791.5"/>
<text text-anchor="start" x="1125" y="-798.3" font-family="Times New Roman,serif" font-size="14.00">Optional[str]</text>
<polygon fill="none" stroke="black" points="949,-770.5 949,-791.5 1054,-791.5 1054,-770.5 949,-770.5"/>
<text text-anchor="start" x="972.5" y="-777.3" font-family="Times New Roman,serif" font-size="14.00">comments</text>
<polygon fill="none" stroke="black" points="1054,-770.5 1054,-791.5 1268,-791.5 1268,-770.5 1054,-770.5"/>
<text text-anchor="start" x="1125" y="-777.3" font-family="Times New Roman,serif" font-size="14.00">Optional[str]</text>
<polygon fill="none" stroke="black" points="949,-749.5 949,-770.5 1054,-770.5 1054,-749.5 949,-749.5"/>
<text text-anchor="start" x="979" y="-756.3" font-family="Times New Roman,serif" font-size="14.00">location</text>
<polygon fill="none" stroke="black" points="1054,-749.5 1054,-770.5 1268,-770.5 1268,-749.5 1054,-749.5"/>
<text text-anchor="start" x="1136" y="-756.3" font-family="Times New Roman,serif" font-size="14.00">Location</text>
<polygon fill="none" stroke="black" points="949,-728.5 949,-749.5 1054,-749.5 1054,-728.5 949,-728.5"/>
<text text-anchor="start" x="970.5" y="-735.3" font-family="Times New Roman,serif" font-size="14.00">hub_height</text>
<polygon fill="none" stroke="black" points="1054,-728.5 1054,-749.5 1268,-749.5 1268,-728.5 1054,-728.5"/>
<text text-anchor="start" x="1148.5" y="-735.3" font-family="Times New Roman,serif" font-size="14.00">float</text>
<polygon fill="none" stroke="black" points="949,-707.5 949,-728.5 1054,-728.5 1054,-707.5 949,-707.5"/>
<text text-anchor="start" x="952" y="-714.3" font-family="Times New Roman,serif" font-size="14.00">turbine_model_id</text>
<polygon fill="none" stroke="black" points="1054,-707.5 1054,-728.5 1268,-728.5 1268,-707.5 1054,-707.5"/>
<text text-anchor="start" x="1153.5" y="-714.3" font-family="Times New Roman,serif" font-size="14.00">str</text>
<polygon fill="none" stroke="black" points="949,-686.5 949,-707.5 1054,-707.5 1054,-686.5 949,-686.5"/>
<text text-anchor="start" x="970.5" y="-693.3" font-family="Times New Roman,serif" font-size="14.00">restrictions</text>
<polygon fill="none" stroke="black" points="1054,-686.5 1054,-707.5 1268,-707.5 1268,-686.5 1054,-686.5"/>
<text text-anchor="start" x="1057" y="-693.3" font-family="Times New Roman,serif" font-size="14.00">Optional[list[OperationalRestriction]]</text>
</a>
</g>
</g>
<!-- eya_def_tools.data_models.wind_farm.WindFarmConfiguration&#45;&gt;eya_def_tools.data_models.wind_farm.TurbineConfiguration -->
<g id="edge10" class="edge">
<title>eya_def_tools.data_models.wind_farm.WindFarmConfiguration:e&#45;&gt;eya_def_tools.data_models.wind_farm.TurbineConfiguration:w</title>
<path fill="none" stroke="black" d="M837,-734.5C906.16,-734.5 878.46,-842.09 929.45,-862.26"/>
<polygon fill="black" stroke="black" points="938.15,-863.78 947.23,-869.93 943.07,-864.64 948,-865.5 948,-865.5 948,-865.5 943.07,-864.64 948.77,-861.07 938.15,-863.78 938.15,-863.78"/>
<ellipse fill="none" stroke="black" cx="933.72" cy="-863.01" rx="4" ry="4"/>
</g>
<!-- eya_def_tools.data_models.result.Result -->
<g id="node6" class="node">
<title>eya_def_tools.data_models.result.Result</title>
<g id="a_node6"><a xlink:title="eya_def_tools.data_models.result.Result&#10;&#10;Collection of results a quantity along specific dimensions.&#10;&#10;Attributes:&#10; &#160;&#160;&#160;label (Optional[str]): Label of the results. Default is None.&#10; &#160;&#160;&#160;description (Optional[str]): Optional description of the result. Default is None.&#10; &#160;&#160;&#160;comments (Optional[str]): Optional comments on the result. Default is None.&#10; &#160;&#160;&#160;assessment_period (Optional[AssessmentPeriod(StrEnum)]): Period of or in time that has been assessed and for which the results are applicable. Default is None.&#10; &#160;&#160;&#160;dimensions (Optional[list[ResultsDimension(StrEnum)]]): Dimensions along which the results are binned (all result values in the same results object must have the same dimensions). Default is None.&#10; &#160;&#160;&#160;statistics (list[ResultStatistic]): List of result statistic objects that each include result values for a specific statistic type.&#10;">
<polygon fill="none" stroke="black" points="1379,-228.5 1379,-249.5 1739,-249.5 1739,-228.5 1379,-228.5"/>
<text text-anchor="start" x="1539" y="-236.3" font-family="Times New Roman,serif" font-weight="bold" font-size="14.00">Result</text>
<polygon fill="none" stroke="black" points="1379,-207.5 1379,-228.5 1492,-228.5 1492,-207.5 1379,-207.5"/>
<text text-anchor="start" x="1422.5" y="-214.3" font-family="Times New Roman,serif" font-size="14.00">label</text>
<polygon fill="none" stroke="black" points="1492,-207.5 1492,-228.5 1739,-228.5 1739,-207.5 1492,-207.5"/>
<text text-anchor="start" x="1579.5" y="-214.3" font-family="Times New Roman,serif" font-size="14.00">Optional[str]</text>
<polygon fill="none" stroke="black" points="1379,-186.5 1379,-207.5 1492,-207.5 1492,-186.5 1379,-186.5"/>
<text text-anchor="start" x="1404" y="-193.3" font-family="Times New Roman,serif" font-size="14.00">description</text>
<polygon fill="none" stroke="black" points="1492,-186.5 1492,-207.5 1739,-207.5 1739,-186.5 1492,-186.5"/>
<text text-anchor="start" x="1579.5" y="-193.3" font-family="Times New Roman,serif" font-size="14.00">Optional[str]</text>
<polygon fill="none" stroke="black" points="1379,-165.5 1379,-186.5 1492,-186.5 1492,-165.5 1379,-165.5"/>
<text text-anchor="start" x="1406.5" y="-172.3" font-family="Times New Roman,serif" font-size="14.00">comments</text>
<polygon fill="none" stroke="black" points="1492,-165.5 1492,-186.5 1739,-186.5 1739,-165.5 1492,-165.5"/>
<text text-anchor="start" x="1579.5" y="-172.3" font-family="Times New Roman,serif" font-size="14.00">Optional[str]</text>
<polygon fill="none" stroke="black" points="1379,-144.5 1379,-165.5 1492,-165.5 1492,-144.5 1379,-144.5"/>
<text text-anchor="start" x="1382" y="-151.3" font-family="Times New Roman,serif" font-size="14.00">assessment_period</text>
<polygon fill="none" stroke="black" points="1492,-144.5 1492,-165.5 1739,-165.5 1739,-144.5 1492,-144.5"/>
<text text-anchor="start" x="1506" y="-151.3" font-family="Times New Roman,serif" font-size="14.00">Optional[AssessmentPeriod(StrEnum)]</text>
<polygon fill="none" stroke="black" points="1379,-123.5 1379,-144.5 1492,-144.5 1492,-123.5 1379,-123.5"/>
<text text-anchor="start" x="1403.5" y="-130.3" font-family="Times New Roman,serif" font-size="14.00">dimensions</text>
<polygon fill="none" stroke="black" points="1492,-123.5 1492,-144.5 1739,-144.5 1739,-123.5 1492,-123.5"/>
<text text-anchor="start" x="1495" y="-130.3" font-family="Times New Roman,serif" font-size="14.00">Optional[list[ResultsDimension(StrEnum)]]</text>
<polygon fill="none" stroke="black" points="1379,-102.5 1379,-123.5 1492,-123.5 1492,-102.5 1379,-102.5"/>
<text text-anchor="start" x="1411" y="-109.3" font-family="Times New Roman,serif" font-size="14.00">statistics</text>
<polygon fill="none" stroke="black" points="1492,-102.5 1492,-123.5 1739,-123.5 1739,-102.5 1492,-102.5"/>
<text text-anchor="start" x="1563" y="-109.3" font-family="Times New Roman,serif" font-size="14.00">list[ResultStatistic]</text>
</a>
</g>
</g>
<!-- eya_def_tools.data_models.reference_wind_farm.ReferenceWindFarmDataVariable&#45;&gt;eya_def_tools.data_models.result.Result -->
<g id="edge3" class="edge">
<title>eya_def_tools.data_models.reference_wind_farm.ReferenceWindFarmDataVariable:e&#45;&gt;eya_def_tools.data_models.result.Result:w</title>
<path fill="none" stroke="black" d="M1271,-239.5C1312.06,-239.5 1326.78,-239.5 1360.23,-239.5"/>
<polyline fill="none" stroke="black" points="1379,-239.5 1374,-239.5"/>
<polygon fill="black" stroke="black" points="1373,-234.5 1373,-244.5 1371,-244.5 1371,-234.5 1373,-234.5"/>
<polyline fill="none" stroke="black" points="1374,-239.5 1369,-239.5"/>
<ellipse fill="none" stroke="black" cx="1364.5" cy="-239.5" rx="4" ry="4"/>
</g>
<!-- eya_def_tools.data_models.result.ResultStatistic -->
<g id="node7" class="node">
<title>eya_def_tools.data_models.result.ResultStatistic</title>
<g id="a_node7"><a xlink:title="eya_def_tools.data_models.result.ResultStatistic&#10;&#10;Result values for one specific statistic type.&#10;&#10;Attributes:&#10; &#160;&#160;&#160;description (Optional[str]): Optional description of the result statistic. Default is None.&#10; &#160;&#160;&#160;comments (Optional[str]): Optional comments on the result statistic. Default is None.&#10; &#160;&#160;&#160;statistic_type (StatisticType(StrEnum)): Type of statistic in the results component.&#10; &#160;&#160;&#160;values (UnionType[float, list[tuple[list[UnionType[float, int, str]], float]]]): Result as a single number or values at coordinates.&#10;">
<polygon fill="none" stroke="black" points="1847,-101.5 1847,-122.5 2295,-122.5 2295,-101.5 1847,-101.5"/>
<text text-anchor="start" x="2026.5" y="-109.3" font-family="Times New Roman,serif" font-weight="bold" font-size="14.00">ResultStatistic</text>
<polygon fill="none" stroke="black" points="1847,-80.5 1847,-101.5 1927,-101.5 1927,-80.5 1847,-80.5"/>
<text text-anchor="start" x="1855.5" y="-87.3" font-family="Times New Roman,serif" font-size="14.00">description</text>
<polygon fill="none" stroke="black" points="1927,-80.5 1927,-101.5 2295,-101.5 2295,-80.5 1927,-80.5"/>
<text text-anchor="start" x="2075" y="-87.3" font-family="Times New Roman,serif" font-size="14.00">Optional[str]</text>
<polygon fill="none" stroke="black" points="1847,-59.5 1847,-80.5 1927,-80.5 1927,-59.5 1847,-59.5"/>
<text text-anchor="start" x="1858" y="-66.3" font-family="Times New Roman,serif" font-size="14.00">comments</text>
<polygon fill="none" stroke="black" points="1927,-59.5 1927,-80.5 2295,-80.5 2295,-59.5 1927,-59.5"/>
<text text-anchor="start" x="2075" y="-66.3" font-family="Times New Roman,serif" font-size="14.00">Optional[str]</text>
<polygon fill="none" stroke="black" points="1847,-38.5 1847,-59.5 1927,-59.5 1927,-38.5 1847,-38.5"/>
<text text-anchor="start" x="1850" y="-45.3" font-family="Times New Roman,serif" font-size="14.00">statistic_type</text>
<polygon fill="none" stroke="black" points="1927,-38.5 1927,-59.5 2295,-59.5 2295,-38.5 1927,-38.5"/>
<text text-anchor="start" x="2045" y="-45.3" font-family="Times New Roman,serif" font-size="14.00">StatisticType(StrEnum)</text>
<polygon fill="none" stroke="black" points="1847,-17.5 1847,-38.5 1927,-38.5 1927,-17.5 1847,-17.5"/>
<text text-anchor="start" x="1869.5" y="-24.3" font-family="Times New Roman,serif" font-size="14.00">values</text>
<polygon fill="none" stroke="black" points="1927,-17.5 1927,-38.5 2295,-38.5 2295,-17.5 1927,-17.5"/>
<text text-anchor="start" x="1930" y="-24.3" font-family="Times New Roman,serif" font-size="14.00">UnionType[float, list[tuple[list[UnionType[float, int, str]], float]]]</text>
</a>
</g>
</g>
<!-- eya_def_tools.data_models.result.Result&#45;&gt;eya_def_tools.data_models.result.ResultStatistic -->
<g id="edge6" class="edge">
<title>eya_def_tools.data_models.result.Result:e&#45;&gt;eya_def_tools.data_models.result.ResultStatistic:w</title>
<path fill="none" stroke="black" d="M1739,-112.5C1780.06,-112.5 1794.78,-112.5 1828.23,-112.5"/>
<polygon fill="black" stroke="black" points="1837,-112.5 1847,-117 1842,-112.5 1847,-112.5 1847,-112.5 1847,-112.5 1842,-112.5 1847,-108 1837,-112.5 1837,-112.5"/>
<ellipse fill="none" stroke="black" cx="1832.5" cy="-112.5" rx="4" ry="4"/>
</g>
<!-- eya_def_tools.data_models.spatial.Location -->
<g id="node8" class="node">
<title>eya_def_tools.data_models.spatial.Location</title>
<g id="a_node8"><a xlink:title="eya_def_tools.data_models.spatial.Location&#10;&#10;Specification of a horizontal location in space.&#10;&#10;Attributes:&#10; &#160;&#160;&#160;x (float): Location x&#45;coordinate (typically easing).&#10; &#160;&#160;&#160;y (float): Location y&#45;coordinate (typically northing).&#10;">
<polygon fill="none" stroke="black" points="1529,-748.5 1529,-769.5 1590,-769.5 1590,-748.5 1529,-748.5"/>
<text text-anchor="start" x="1532" y="-756.3" font-family="Times New Roman,serif" font-weight="bold" font-size="14.00">Location</text>
<polygon fill="none" stroke="black" points="1529,-727.5 1529,-748.5 1550,-748.5 1550,-727.5 1529,-727.5"/>
<text text-anchor="start" x="1536" y="-734.3" font-family="Times New Roman,serif" font-size="14.00">x</text>
<polygon fill="none" stroke="black" points="1550,-727.5 1550,-748.5 1590,-748.5 1590,-727.5 1550,-727.5"/>
<text text-anchor="start" x="1557.5" y="-734.3" font-family="Times New Roman,serif" font-size="14.00">float</text>
<polygon fill="none" stroke="black" points="1529,-706.5 1529,-727.5 1550,-727.5 1550,-706.5 1529,-706.5"/>
<text text-anchor="start" x="1536" y="-713.3" font-family="Times New Roman,serif" font-size="14.00">y</text>
<polygon fill="none" stroke="black" points="1550,-706.5 1550,-727.5 1590,-727.5 1590,-706.5 1550,-706.5"/>
<text text-anchor="start" x="1557.5" y="-713.3" font-family="Times New Roman,serif" font-size="14.00">float</text>
</a>
</g>
</g>
<!-- eya_def_tools.data_models.wind_farm.TurbineConfiguration&#45;&gt;eya_def_tools.data_models.spatial.Location -->
<g id="edge7" class="edge">
<title>eya_def_tools.data_models.wind_farm.TurbineConfiguration:e&#45;&gt;eya_def_tools.data_models.spatial.Location:w</title>
<path fill="none" stroke="black" d="M1269,-759.5C1379.05,-759.5 1410.19,-759.5 1513.31,-759.5"/>
<polyline fill="none" stroke="black" points="1528,-759.5 1523,-759.5"/>
<polygon fill="black" stroke="black" points="1522,-754.5 1522,-764.5 1520,-764.5 1520,-754.5 1522,-754.5"/>
<polyline fill="none" stroke="black" points="1523,-759.5 1518,-759.5"/>
<polygon fill="black" stroke="black" points="1517,-754.5 1517,-764.5 1515,-764.5 1515,-754.5 1517,-754.5"/>
<polyline fill="none" stroke="black" points="1518,-759.5 1513,-759.5"/>
</g>
<!-- eya_def_tools.data_models.wind_farm.TurbineConfiguration&#45;&gt;eya_def_tools.data_models.wind_farm.OperationalRestriction -->
<g id="edge8" class="edge">
<title>eya_def_tools.data_models.wind_farm.TurbineConfiguration:e&#45;&gt;eya_def_tools.data_models.wind_farm.OperationalRestriction:w</title>
<path fill="none" stroke="black" d="M1269,-696.5C1360.59,-696.5 1382.93,-652.14 1465.18,-646.16"/>
<polyline fill="none" stroke="black" points="1484,-645.5 1479,-645.68"/>
<polygon fill="black" stroke="black" points="1477.83,-640.71 1478.18,-650.71 1476.18,-650.78 1475.83,-640.79 1477.83,-640.71"/>
<polyline fill="none" stroke="black" points="1479,-645.68 1474.01,-645.85"/>
<ellipse fill="none" stroke="black" cx="1469.51" cy="-646.01" rx="4" ry="4"/>
</g>
</g>
</svg>
