<?xml version="1.0" encoding="UTF-8" standalone="no"?>
<!DOCTYPE svg PUBLIC "-//W3C//DTD SVG 1.1//EN"
 "http://www.w3.org/Graphics/SVG/1.1/DTD/svg11.dtd">
<!-- Generated by graphviz version 7.0.4 (20221203.1631)
 -->
<!-- Title: Entity Relationship Diagram Pages: 1 -->
<svg width="2224pt" height="698pt"
 viewBox="0.00 0.00 2224.00 697.50" xmlns="http://www.w3.org/2000/svg" xmlns:xlink="http://www.w3.org/1999/xlink">
<g id="graph0" class="graph" transform="scale(1 1) rotate(0) translate(4 693.5)">
<title>Entity Relationship Diagram</title>
<polygon fill="white" stroke="none" points="-4,4 -4,-693.5 2220,-693.5 2220,4 -4,4"/>
<text text-anchor="middle" x="1108" y="-6.8" font-family="Times New Roman,serif" font-size="9.00" fill="#a8a8a8">Created by erdantic v0.6.0 &lt;https://github.com/drivendataorg/erdantic&gt;</text>
<!-- eya_def_tools.data_models.general_metadata.Organisation -->
<g id="node1" class="node">
<title>eya_def_tools.data_models.general_metadata.Organisation</title>
<g id="a_node1"><a xlink:title="eya_def_tools.data_models.general_metadata.Organisation&#10;&#10;Issuing or receiving organisation of an energy yield assessment.&#10;&#10;Attributes:&#10; &#160;&#160;&#160;name (str): Entity name of the organisation.&#10; &#160;&#160;&#160;abbreviation (Optional[str]): Abbreviated name of the organisation. Default is None.&#10; &#160;&#160;&#160;address (Optional[str]): Address of the organisation. Default is None.&#10; &#160;&#160;&#160;contact_name (Optional[str]): Name(s) of contact person(s) in the organisation. Default is None.&#10;">
<polygon fill="none" stroke="black" points="948,-517.5 948,-538.5 1111,-538.5 1111,-517.5 948,-517.5"/>
<text text-anchor="start" x="989" y="-525.3" font-family="Times New Roman,serif" font-weight="bold" font-size="14.00">Organisation</text>
<polygon fill="none" stroke="black" points="948,-496.5 948,-517.5 1033,-517.5 1033,-496.5 948,-496.5"/>
<text text-anchor="start" x="975.5" y="-503.3" font-family="Times New Roman,serif" font-size="14.00">name</text>
<polygon fill="none" stroke="black" points="1033,-496.5 1033,-517.5 1111,-517.5 1111,-496.5 1033,-496.5"/>
<text text-anchor="start" x="1064.5" y="-503.3" font-family="Times New Roman,serif" font-size="14.00">str</text>
<polygon fill="none" stroke="black" points="948,-475.5 948,-496.5 1033,-496.5 1033,-475.5 948,-475.5"/>
<text text-anchor="start" x="956" y="-482.3" font-family="Times New Roman,serif" font-size="14.00">abbreviation</text>
<polygon fill="none" stroke="black" points="1033,-475.5 1033,-496.5 1111,-496.5 1111,-475.5 1033,-475.5"/>
<text text-anchor="start" x="1036" y="-482.3" font-family="Times New Roman,serif" font-size="14.00">Optional[str]</text>
<polygon fill="none" stroke="black" points="948,-454.5 948,-475.5 1033,-475.5 1033,-454.5 948,-454.5"/>
<text text-anchor="start" x="968.5" y="-461.3" font-family="Times New Roman,serif" font-size="14.00">address</text>
<polygon fill="none" stroke="black" points="1033,-454.5 1033,-475.5 1111,-475.5 1111,-454.5 1033,-454.5"/>
<text text-anchor="start" x="1036" y="-461.3" font-family="Times New Roman,serif" font-size="14.00">Optional[str]</text>
<polygon fill="none" stroke="black" points="948,-433.5 948,-454.5 1033,-454.5 1033,-433.5 948,-433.5"/>
<text text-anchor="start" x="951" y="-440.3" font-family="Times New Roman,serif" font-size="14.00">contact_name</text>
<polygon fill="none" stroke="black" points="1033,-433.5 1033,-454.5 1111,-454.5 1111,-433.5 1033,-433.5"/>
<text text-anchor="start" x="1036" y="-440.3" font-family="Times New Roman,serif" font-size="14.00">Optional[str]</text>
</a>
</g>
</g>
<!-- eya_def_tools.data_models.reference_wind_farm.ReferenceWindFarm -->
<g id="node2" class="node">
<title>eya_def_tools.data_models.reference_wind_farm.ReferenceWindFarm</title>
<g id="a_node2"><a xlink:title="eya_def_tools.data_models.reference_wind_farm.ReferenceWindFarm&#10;&#10;Reference wind farm.&#10;&#10;Attributes:&#10; &#160;&#160;&#160;id (str): Unique ID for the reference wind farm within the EYA DEF document.&#10; &#160;&#160;&#160;description (Optional[str]): Optional description of the reference wind farm. Default is None.&#10; &#160;&#160;&#160;comments (Optional[str]): Optional comments on the reference wind farm. Default is None.&#10; &#160;&#160;&#160;wind_farm_id (str): The ID of the wind farm in the &#39;wind_farms&#39; section of the top&#45;level of the EYA DEF document, containing the configuration data for the reference wind farm.&#10; &#160;&#160;&#160;datasets (list[ReferenceWindFarmDataset]): List of metadata documents describing the operational datasets from the reference wind farm that were used in the EYA.&#10;">
<polygon fill="none" stroke="black" points="0,-668.5 0,-689.5 274,-689.5 274,-668.5 0,-668.5"/>
<text text-anchor="start" x="72" y="-676.3" font-family="Times New Roman,serif" font-weight="bold" font-size="14.00">ReferenceWindFarm</text>
<polygon fill="none" stroke="black" points="0,-647.5 0,-668.5 85,-668.5 85,-647.5 0,-647.5"/>
<text text-anchor="start" x="37" y="-654.3" font-family="Times New Roman,serif" font-size="14.00">id</text>
<polygon fill="none" stroke="black" points="85,-647.5 85,-668.5 274,-668.5 274,-647.5 85,-647.5"/>
<text text-anchor="start" x="172" y="-654.3" font-family="Times New Roman,serif" font-size="14.00">str</text>
<polygon fill="none" stroke="black" points="0,-626.5 0,-647.5 85,-647.5 85,-626.5 0,-626.5"/>
<text text-anchor="start" x="11" y="-633.3" font-family="Times New Roman,serif" font-size="14.00">description</text>
<polygon fill="none" stroke="black" points="85,-626.5 85,-647.5 274,-647.5 274,-626.5 85,-626.5"/>
<text text-anchor="start" x="143.5" y="-633.3" font-family="Times New Roman,serif" font-size="14.00">Optional[str]</text>
<polygon fill="none" stroke="black" points="0,-605.5 0,-626.5 85,-626.5 85,-605.5 0,-605.5"/>
<text text-anchor="start" x="13.5" y="-612.3" font-family="Times New Roman,serif" font-size="14.00">comments</text>
<polygon fill="none" stroke="black" points="85,-605.5 85,-626.5 274,-626.5 274,-605.5 85,-605.5"/>
<text text-anchor="start" x="143.5" y="-612.3" font-family="Times New Roman,serif" font-size="14.00">Optional[str]</text>
<polygon fill="none" stroke="black" points="0,-584.5 0,-605.5 85,-605.5 85,-584.5 0,-584.5"/>
<text text-anchor="start" x="3" y="-591.3" font-family="Times New Roman,serif" font-size="14.00">wind_farm_id</text>
<polygon fill="none" stroke="black" points="85,-584.5 85,-605.5 274,-605.5 274,-584.5 85,-584.5"/>
<text text-anchor="start" x="172" y="-591.3" font-family="Times New Roman,serif" font-size="14.00">str</text>
<polygon fill="none" stroke="black" points="0,-563.5 0,-584.5 85,-584.5 85,-563.5 0,-563.5"/>
<text text-anchor="start" x="19.5" y="-570.3" font-family="Times New Roman,serif" font-size="14.00">datasets</text>
<polygon fill="none" stroke="black" points="85,-563.5 85,-584.5 274,-584.5 274,-563.5 85,-563.5"/>
<text text-anchor="start" x="88" y="-570.3" font-family="Times New Roman,serif" font-size="14.00">list[ReferenceWindFarmDataset]</text>
</a>
</g>
</g>
<!-- eya_def_tools.data_models.reference_wind_farm.ReferenceWindFarmDataset -->
<g id="node3" class="node">
<title>eya_def_tools.data_models.reference_wind_farm.ReferenceWindFarmDataset</title>
<g id="a_node3"><a xlink:title="eya_def_tools.data_models.reference_wind_farm.ReferenceWindFarmDataset&#10;&#10;Reference wind farm operational dataset.&#10;&#10;Attributes:&#10; &#160;&#160;&#160;label (Optional[str]): Label of the reference wind farm dataset.&#10; &#160;&#160;&#160;description (Optional[str]): Optional description of the dataset. Default is None.&#10; &#160;&#160;&#160;comments (Optional[str]): Optional comments on the dataset. Default is None.&#10; &#160;&#160;&#160;data_supplier_organisation (Organisation): The organisation that supplied the data.&#10; &#160;&#160;&#160;data_type (OperationalDataType(StrEnum)): The type of data in the operational data, categorised as &#39;scada&#39; for data from a Supervisory Control and Data Acquisition (SCADA) system, &#39;metered&#39; for data from a production meter, &#39;environmental_measurement&#39; for data from an (on&#45;site) environmental measurement station such as a meteorological mast or a remote sensing device (RSD) and &#39;other&#39; for any other type of unit.&#10; &#160;&#160;&#160;data_source_type (DataSourceType(StrEnum)): The type of the operational data source. Primary data, such as primary SCADA data, comes directly from the source without processing. Report data refers to data extracted from report document, such as monthly operational reports. Other secondary data comprises all other data source categories, such as secondary SCADA data provided in processed (harmonised) form by a data management service provider.&#10; &#160;&#160;&#160;used_data_variables (list[ReferenceWindFarmDataVariable]): A list of the types of data variables included in this dataset and used in the assessment. For a large dataset (such as a full wind turbine SCADA dataset) this field should not include all the variables but only the ones that were used in the analysis.&#10; &#160;&#160;&#160;time_resolution (TimeResolution(StrEnum)): Time resolution of the data.&#10; &#160;&#160;&#160;data_period_start_date (date): Start of the data period in the ISO 8601 standard format for a calendar date, i.e. YYYY&#45;MM&#45;DD.&#10; &#160;&#160;&#160;data_period_end_date (date): End of the data period in the ISO 8601 standard format for a calendar date, i.e. YYYY&#45;MM&#45;DD.&#10;">
<polygon fill="none" stroke="black" points="382,-562.5 382,-583.5 758,-583.5 758,-562.5 382,-562.5"/>
<text text-anchor="start" x="481.5" y="-570.3" font-family="Times New Roman,serif" font-weight="bold" font-size="14.00">ReferenceWindFarmDataset</text>
<polygon fill="none" stroke="black" points="382,-541.5 382,-562.5 539,-562.5 539,-541.5 382,-541.5"/>
<text text-anchor="start" x="447.5" y="-548.3" font-family="Times New Roman,serif" font-size="14.00">label</text>
<polygon fill="none" stroke="black" points="539,-541.5 539,-562.5 758,-562.5 758,-541.5 539,-541.5"/>
<text text-anchor="start" x="612.5" y="-548.3" font-family="Times New Roman,serif" font-size="14.00">Optional[str]</text>
<polygon fill="none" stroke="black" points="382,-520.5 382,-541.5 539,-541.5 539,-520.5 382,-520.5"/>
<text text-anchor="start" x="429" y="-527.3" font-family="Times New Roman,serif" font-size="14.00">description</text>
<polygon fill="none" stroke="black" points="539,-520.5 539,-541.5 758,-541.5 758,-520.5 539,-520.5"/>
<text text-anchor="start" x="612.5" y="-527.3" font-family="Times New Roman,serif" font-size="14.00">Optional[str]</text>
<polygon fill="none" stroke="black" points="382,-499.5 382,-520.5 539,-520.5 539,-499.5 382,-499.5"/>
<text text-anchor="start" x="431.5" y="-506.3" font-family="Times New Roman,serif" font-size="14.00">comments</text>
<polygon fill="none" stroke="black" points="539,-499.5 539,-520.5 758,-520.5 758,-499.5 539,-499.5"/>
<text text-anchor="start" x="612.5" y="-506.3" font-family="Times New Roman,serif" font-size="14.00">Optional[str]</text>
<polygon fill="none" stroke="black" points="382,-478.5 382,-499.5 539,-499.5 539,-478.5 382,-478.5"/>
<text text-anchor="start" x="385" y="-485.3" font-family="Times New Roman,serif" font-size="14.00">data_supplier_organisation</text>
<polygon fill="none" stroke="black" points="539,-478.5 539,-499.5 758,-499.5 758,-478.5 539,-478.5"/>
<text text-anchor="start" x="613" y="-485.3" font-family="Times New Roman,serif" font-size="14.00">Organisation</text>
<polygon fill="none" stroke="black" points="382,-457.5 382,-478.5 539,-478.5 539,-457.5 382,-457.5"/>
<text text-anchor="start" x="433" y="-464.3" font-family="Times New Roman,serif" font-size="14.00">data_type</text>
<polygon fill="none" stroke="black" points="539,-457.5 539,-478.5 758,-478.5 758,-457.5 539,-457.5"/>
<text text-anchor="start" x="559.5" y="-464.3" font-family="Times New Roman,serif" font-size="14.00">OperationalDataType(StrEnum)</text>
<polygon fill="none" stroke="black" points="382,-436.5 382,-457.5 539,-457.5 539,-436.5 382,-436.5"/>
<text text-anchor="start" x="410.5" y="-443.3" font-family="Times New Roman,serif" font-size="14.00">data_source_type</text>
<polygon fill="none" stroke="black" points="539,-436.5 539,-457.5 758,-457.5 758,-436.5 539,-436.5"/>
<text text-anchor="start" x="572" y="-443.3" font-family="Times New Roman,serif" font-size="14.00">DataSourceType(StrEnum)</text>
<polygon fill="none" stroke="black" points="382,-415.5 382,-436.5 539,-436.5 539,-415.5 382,-415.5"/>
<text text-anchor="start" x="403.5" y="-422.3" font-family="Times New Roman,serif" font-size="14.00">used_data_variables</text>
<polygon fill="none" stroke="black" points="539,-415.5 539,-436.5 758,-436.5 758,-415.5 539,-415.5"/>
<text text-anchor="start" x="542" y="-422.3" font-family="Times New Roman,serif" font-size="14.00">list[ReferenceWindFarmDataVariable]</text>
<polygon fill="none" stroke="black" points="382,-394.5 382,-415.5 539,-415.5 539,-394.5 382,-394.5"/>
<text text-anchor="start" x="417.5" y="-401.3" font-family="Times New Roman,serif" font-size="14.00">time_resolution</text>
<polygon fill="none" stroke="black" points="539,-394.5 539,-415.5 758,-415.5 758,-394.5 539,-394.5"/>
<text text-anchor="start" x="575" y="-401.3" font-family="Times New Roman,serif" font-size="14.00">TimeResolution(StrEnum)</text>
<polygon fill="none" stroke="black" points="382,-373.5 382,-394.5 539,-394.5 539,-373.5 382,-373.5"/>
<text text-anchor="start" x="395.5" y="-380.3" font-family="Times New Roman,serif" font-size="14.00">data_period_start_date</text>
<polygon fill="none" stroke="black" points="539,-373.5 539,-394.5 758,-394.5 758,-373.5 539,-373.5"/>
<text text-anchor="start" x="636.5" y="-380.3" font-family="Times New Roman,serif" font-size="14.00">date</text>
<polygon fill="none" stroke="black" points="382,-352.5 382,-373.5 539,-373.5 539,-352.5 382,-352.5"/>
<text text-anchor="start" x="397.5" y="-359.3" font-family="Times New Roman,serif" font-size="14.00">data_period_end_date</text>
<polygon fill="none" stroke="black" points="539,-352.5 539,-373.5 758,-373.5 758,-352.5 539,-352.5"/>
<text text-anchor="start" x="636.5" y="-359.3" font-family="Times New Roman,serif" font-size="14.00">date</text>
</a>
</g>
</g>
<!-- eya_def_tools.data_models.reference_wind_farm.ReferenceWindFarm&#45;&gt;eya_def_tools.data_models.reference_wind_farm.ReferenceWindFarmDataset -->
<g id="edge1" class="edge">
<title>eya_def_tools.data_models.reference_wind_farm.ReferenceWindFarm:e&#45;&gt;eya_def_tools.data_models.reference_wind_farm.ReferenceWindFarmDataset:w</title>
<path fill="none" stroke="black" d="M274,-573.5C315.06,-573.5 329.78,-573.5 363.23,-573.5"/>
<polygon fill="black" stroke="black" points="372,-573.5 382,-578 377,-573.5 382,-573.5 382,-573.5 382,-573.5 377,-573.5 382,-569 372,-573.5 372,-573.5"/>
<ellipse fill="none" stroke="black" cx="367.5" cy="-573.5" rx="4" ry="4"/>
</g>
<!-- eya_def_tools.data_models.reference_wind_farm.ReferenceWindFarmDataset&#45;&gt;eya_def_tools.data_models.general_metadata.Organisation -->
<g id="edge3" class="edge">
<title>eya_def_tools.data_models.reference_wind_farm.ReferenceWindFarmDataset:e&#45;&gt;eya_def_tools.data_models.general_metadata.Organisation:w</title>
<path fill="none" stroke="black" d="M758,-489.5C838.58,-489.5 858.87,-523.92 932.14,-528.09"/>
<polyline fill="none" stroke="black" points="947,-528.5 942,-528.36"/>
<polygon fill="black" stroke="black" points="941.14,-523.34 940.86,-533.33 938.86,-533.28 939.14,-523.28 941.14,-523.34"/>
<polyline fill="none" stroke="black" points="942,-528.36 937,-528.22"/>
<polygon fill="black" stroke="black" points="936.14,-523.2 935.87,-533.19 933.87,-533.14 934.14,-523.14 936.14,-523.2"/>
<polyline fill="none" stroke="black" points="937,-528.22 932.01,-528.08"/>
</g>
<!-- eya_def_tools.data_models.reference_wind_farm.ReferenceWindFarmDataVariable -->
<g id="node4" class="node">
<title>eya_def_tools.data_models.reference_wind_farm.ReferenceWindFarmDataVariable</title>
<g id="a_node4"><a xlink:title="eya_def_tools.data_models.reference_wind_farm.ReferenceWindFarmDataVariable&#10;&#10;Reference wind farm operational data variable.&#10;&#10;Attributes:&#10; &#160;&#160;&#160;label (str): Label of the data variable. This is currently free text but should be replaced by a list of enum options.&#10; &#160;&#160;&#160;description (Optional[str]): Optional description of the data variable. Default is None.&#10; &#160;&#160;&#160;comments (Optional[str]): Optional comments on the data variable. Default is None.&#10; &#160;&#160;&#160;data_level (OperationalDataLevel(StrEnum)): Whether the operational data variable is provided for each individual wind turbine (&#39;turbine_level&#39;), is aggregated at the wind farm level (&#39;wind_farm_level&#39;) or corresponds to a different (&#39;other&#39;) unit such as an environmental measurement station.&#10; &#160;&#160;&#160;statistic_types (list[StatisticType(StrEnum)]): A list of the types of statistics included for this data variable.&#10; &#160;&#160;&#160;measurement_point (Optional[str]): Optional clarification of the point of measurement, such as the location of the energy meter for metered production. Default is None.&#10; &#160;&#160;&#160;raw_data_recovery_rate (Optional[list[Result]]): Dimensionless raw data recovery rate for the variable. Default is None.&#10;">
<polygon fill="none" stroke="black" points="866,-376.5 866,-397.5 1192,-397.5 1192,-376.5 866,-376.5"/>
<text text-anchor="start" x="923" y="-384.3" font-family="Times New Roman,serif" font-weight="bold" font-size="14.00">ReferenceWindFarmDataVariable</text>
<polygon fill="none" stroke="black" points="866,-355.5 866,-376.5 1008,-376.5 1008,-355.5 866,-355.5"/>
<text text-anchor="start" x="924" y="-362.3" font-family="Times New Roman,serif" font-size="14.00">label</text>
<polygon fill="none" stroke="black" points="1008,-355.5 1008,-376.5 1192,-376.5 1192,-355.5 1008,-355.5"/>
<text text-anchor="start" x="1092.5" y="-362.3" font-family="Times New Roman,serif" font-size="14.00">str</text>
<polygon fill="none" stroke="black" points="866,-334.5 866,-355.5 1008,-355.5 1008,-334.5 866,-334.5"/>
<text text-anchor="start" x="905.5" y="-341.3" font-family="Times New Roman,serif" font-size="14.00">description</text>
<polygon fill="none" stroke="black" points="1008,-334.5 1008,-355.5 1192,-355.5 1192,-334.5 1008,-334.5"/>
<text text-anchor="start" x="1064" y="-341.3" font-family="Times New Roman,serif" font-size="14.00">Optional[str]</text>
<polygon fill="none" stroke="black" points="866,-313.5 866,-334.5 1008,-334.5 1008,-313.5 866,-313.5"/>
<text text-anchor="start" x="908" y="-320.3" font-family="Times New Roman,serif" font-size="14.00">comments</text>
<polygon fill="none" stroke="black" points="1008,-313.5 1008,-334.5 1192,-334.5 1192,-313.5 1008,-313.5"/>
<text text-anchor="start" x="1064" y="-320.3" font-family="Times New Roman,serif" font-size="14.00">Optional[str]</text>
<polygon fill="none" stroke="black" points="866,-292.5 866,-313.5 1008,-313.5 1008,-292.5 866,-292.5"/>
<text text-anchor="start" x="909" y="-299.3" font-family="Times New Roman,serif" font-size="14.00">data_level</text>
<polygon fill="none" stroke="black" points="1008,-292.5 1008,-313.5 1192,-313.5 1192,-292.5 1008,-292.5"/>
<text text-anchor="start" x="1011" y="-299.3" font-family="Times New Roman,serif" font-size="14.00">OperationalDataLevel(StrEnum)</text>
<polygon fill="none" stroke="black" points="866,-271.5 866,-292.5 1008,-292.5 1008,-271.5 866,-271.5"/>
<text text-anchor="start" x="897" y="-278.3" font-family="Times New Roman,serif" font-size="14.00">statistic_types</text>
<polygon fill="none" stroke="black" points="1008,-271.5 1008,-292.5 1192,-292.5 1192,-271.5 1008,-271.5"/>
<text text-anchor="start" x="1021.5" y="-278.3" font-family="Times New Roman,serif" font-size="14.00">list[StatisticType(StrEnum)]</text>
<polygon fill="none" stroke="black" points="866,-250.5 866,-271.5 1008,-271.5 1008,-250.5 866,-250.5"/>
<text text-anchor="start" x="882.5" y="-257.3" font-family="Times New Roman,serif" font-size="14.00">measurement_point</text>
<polygon fill="none" stroke="black" points="1008,-250.5 1008,-271.5 1192,-271.5 1192,-250.5 1008,-250.5"/>
<text text-anchor="start" x="1064" y="-257.3" font-family="Times New Roman,serif" font-size="14.00">Optional[str]</text>
<polygon fill="none" stroke="black" points="866,-229.5 866,-250.5 1008,-250.5 1008,-229.5 866,-229.5"/>
<text text-anchor="start" x="869" y="-236.3" font-family="Times New Roman,serif" font-size="14.00">raw_data_recovery_rate</text>
<polygon fill="none" stroke="black" points="1008,-229.5 1008,-250.5 1192,-250.5 1192,-229.5 1008,-229.5"/>
<text text-anchor="start" x="1041" y="-236.3" font-family="Times New Roman,serif" font-size="14.00">Optional[list[Result]]</text>
</a>
</g>
</g>
<!-- eya_def_tools.data_models.reference_wind_farm.ReferenceWindFarmDataset&#45;&gt;eya_def_tools.data_models.reference_wind_farm.ReferenceWindFarmDataVariable -->
<g id="edge4" class="edge">
<title>eya_def_tools.data_models.reference_wind_farm.ReferenceWindFarmDataset:e&#45;&gt;eya_def_tools.data_models.reference_wind_farm.ReferenceWindFarmDataVariable:w</title>
<path fill="none" stroke="black" d="M758,-425.5C801.93,-425.5 812.58,-397.18 847.41,-389.44"/>
<polygon fill="black" stroke="black" points="856.05,-388.54 866.47,-391.98 861.03,-388.02 866,-387.5 866,-387.5 866,-387.5 861.03,-388.02 865.53,-383.02 856.05,-388.54 856.05,-388.54"/>
<ellipse fill="none" stroke="black" cx="851.58" cy="-389" rx="4" ry="4"/>
</g>
<!-- eya_def_tools.data_models.result.Result -->
<g id="node5" class="node">
<title>eya_def_tools.data_models.result.Result</title>
<g id="a_node5"><a xlink:title="eya_def_tools.data_models.result.Result&#10;&#10;Collection of results a quantity along specific dimensions.&#10;&#10;Attributes:&#10; &#160;&#160;&#160;label (Optional[str]): Label of the results. Default is None.&#10; &#160;&#160;&#160;description (Optional[str]): Optional description of the result. Default is None.&#10; &#160;&#160;&#160;comments (Optional[str]): Optional comments on the result. Default is None.&#10; &#160;&#160;&#160;assessment_period (Optional[AssessmentPeriod(StrEnum)]): Period of or in time that has been assessed and for which the results are applicable. Default is None.&#10; &#160;&#160;&#160;dimensions (Optional[list[ResultsDimension(StrEnum)]]): Dimensions along which the results are binned (all result values in the same results object must have the same dimensions). Default is None.&#10; &#160;&#160;&#160;statistics (list[ResultStatistic]): List of result statistic objects that each include result values for a specific statistic type.&#10;">
<polygon fill="none" stroke="black" points="1300,-228.5 1300,-249.5 1660,-249.5 1660,-228.5 1300,-228.5"/>
<text text-anchor="start" x="1460" y="-236.3" font-family="Times New Roman,serif" font-weight="bold" font-size="14.00">Result</text>
<polygon fill="none" stroke="black" points="1300,-207.5 1300,-228.5 1413,-228.5 1413,-207.5 1300,-207.5"/>
<text text-anchor="start" x="1343.5" y="-214.3" font-family="Times New Roman,serif" font-size="14.00">label</text>
<polygon fill="none" stroke="black" points="1413,-207.5 1413,-228.5 1660,-228.5 1660,-207.5 1413,-207.5"/>
<text text-anchor="start" x="1500.5" y="-214.3" font-family="Times New Roman,serif" font-size="14.00">Optional[str]</text>
<polygon fill="none" stroke="black" points="1300,-186.5 1300,-207.5 1413,-207.5 1413,-186.5 1300,-186.5"/>
<text text-anchor="start" x="1325" y="-193.3" font-family="Times New Roman,serif" font-size="14.00">description</text>
<polygon fill="none" stroke="black" points="1413,-186.5 1413,-207.5 1660,-207.5 1660,-186.5 1413,-186.5"/>
<text text-anchor="start" x="1500.5" y="-193.3" font-family="Times New Roman,serif" font-size="14.00">Optional[str]</text>
<polygon fill="none" stroke="black" points="1300,-165.5 1300,-186.5 1413,-186.5 1413,-165.5 1300,-165.5"/>
<text text-anchor="start" x="1327.5" y="-172.3" font-family="Times New Roman,serif" font-size="14.00">comments</text>
<polygon fill="none" stroke="black" points="1413,-165.5 1413,-186.5 1660,-186.5 1660,-165.5 1413,-165.5"/>
<text text-anchor="start" x="1500.5" y="-172.3" font-family="Times New Roman,serif" font-size="14.00">Optional[str]</text>
<polygon fill="none" stroke="black" points="1300,-144.5 1300,-165.5 1413,-165.5 1413,-144.5 1300,-144.5"/>
<text text-anchor="start" x="1303" y="-151.3" font-family="Times New Roman,serif" font-size="14.00">assessment_period</text>
<polygon fill="none" stroke="black" points="1413,-144.5 1413,-165.5 1660,-165.5 1660,-144.5 1413,-144.5"/>
<text text-anchor="start" x="1427" y="-151.3" font-family="Times New Roman,serif" font-size="14.00">Optional[AssessmentPeriod(StrEnum)]</text>
<polygon fill="none" stroke="black" points="1300,-123.5 1300,-144.5 1413,-144.5 1413,-123.5 1300,-123.5"/>
<text text-anchor="start" x="1324.5" y="-130.3" font-family="Times New Roman,serif" font-size="14.00">dimensions</text>
<polygon fill="none" stroke="black" points="1413,-123.5 1413,-144.5 1660,-144.5 1660,-123.5 1413,-123.5"/>
<text text-anchor="start" x="1416" y="-130.3" font-family="Times New Roman,serif" font-size="14.00">Optional[list[ResultsDimension(StrEnum)]]</text>
<polygon fill="none" stroke="black" points="1300,-102.5 1300,-123.5 1413,-123.5 1413,-102.5 1300,-102.5"/>
<text text-anchor="start" x="1332" y="-109.3" font-family="Times New Roman,serif" font-size="14.00">statistics</text>
<polygon fill="none" stroke="black" points="1413,-102.5 1413,-123.5 1660,-123.5 1660,-102.5 1413,-102.5"/>
<text text-anchor="start" x="1484" y="-109.3" font-family="Times New Roman,serif" font-size="14.00">list[ResultStatistic]</text>
</a>
</g>
</g>
<!-- eya_def_tools.data_models.reference_wind_farm.ReferenceWindFarmDataVariable&#45;&gt;eya_def_tools.data_models.result.Result -->
<g id="edge2" class="edge">
<title>eya_def_tools.data_models.reference_wind_farm.ReferenceWindFarmDataVariable:e&#45;&gt;eya_def_tools.data_models.result.Result:w</title>
<path fill="none" stroke="black" d="M1192,-239.5C1233.06,-239.5 1247.78,-239.5 1281.23,-239.5"/>
<polyline fill="none" stroke="black" points="1300,-239.5 1295,-239.5"/>
<polygon fill="black" stroke="black" points="1294,-234.5 1294,-244.5 1292,-244.5 1292,-234.5 1294,-234.5"/>
<polyline fill="none" stroke="black" points="1295,-239.5 1290,-239.5"/>
<ellipse fill="none" stroke="black" cx="1285.5" cy="-239.5" rx="4" ry="4"/>
</g>
<!-- eya_def_tools.data_models.result.ResultStatistic -->
<g id="node6" class="node">
<title>eya_def_tools.data_models.result.ResultStatistic</title>
<g id="a_node6"><a xlink:title="eya_def_tools.data_models.result.ResultStatistic&#10;&#10;Result values for one specific statistic type.&#10;&#10;Attributes:&#10; &#160;&#160;&#160;description (Optional[str]): Optional description of the result statistic. Default is None.&#10; &#160;&#160;&#160;comments (Optional[str]): Optional comments on the result statistic. Default is None.&#10; &#160;&#160;&#160;statistic_type (StatisticType(StrEnum)): Type of statistic in the results component.&#10; &#160;&#160;&#160;values (UnionType[float, list[tuple[list[UnionType[float, int, str]], float]]]): Result as a single number or values at coordinates.&#10;">
<polygon fill="none" stroke="black" points="1768,-101.5 1768,-122.5 2216,-122.5 2216,-101.5 1768,-101.5"/>
<text text-anchor="start" x="1947.5" y="-109.3" font-family="Times New Roman,serif" font-weight="bold" font-size="14.00">ResultStatistic</text>
<polygon fill="none" stroke="black" points="1768,-80.5 1768,-101.5 1848,-101.5 1848,-80.5 1768,-80.5"/>
<text text-anchor="start" x="1776.5" y="-87.3" font-family="Times New Roman,serif" font-size="14.00">description</text>
<polygon fill="none" stroke="black" points="1848,-80.5 1848,-101.5 2216,-101.5 2216,-80.5 1848,-80.5"/>
<text text-anchor="start" x="1996" y="-87.3" font-family="Times New Roman,serif" font-size="14.00">Optional[str]</text>
<polygon fill="none" stroke="black" points="1768,-59.5 1768,-80.5 1848,-80.5 1848,-59.5 1768,-59.5"/>
<text text-anchor="start" x="1779" y="-66.3" font-family="Times New Roman,serif" font-size="14.00">comments</text>
<polygon fill="none" stroke="black" points="1848,-59.5 1848,-80.5 2216,-80.5 2216,-59.5 1848,-59.5"/>
<text text-anchor="start" x="1996" y="-66.3" font-family="Times New Roman,serif" font-size="14.00">Optional[str]</text>
<polygon fill="none" stroke="black" points="1768,-38.5 1768,-59.5 1848,-59.5 1848,-38.5 1768,-38.5"/>
<text text-anchor="start" x="1771" y="-45.3" font-family="Times New Roman,serif" font-size="14.00">statistic_type</text>
<polygon fill="none" stroke="black" points="1848,-38.5 1848,-59.5 2216,-59.5 2216,-38.5 1848,-38.5"/>
<text text-anchor="start" x="1966" y="-45.3" font-family="Times New Roman,serif" font-size="14.00">StatisticType(StrEnum)</text>
<polygon fill="none" stroke="black" points="1768,-17.5 1768,-38.5 1848,-38.5 1848,-17.5 1768,-17.5"/>
<text text-anchor="start" x="1790.5" y="-24.3" font-family="Times New Roman,serif" font-size="14.00">values</text>
<polygon fill="none" stroke="black" points="1848,-17.5 1848,-38.5 2216,-38.5 2216,-17.5 1848,-17.5"/>
<text text-anchor="start" x="1851" y="-24.3" font-family="Times New Roman,serif" font-size="14.00">UnionType[float, list[tuple[list[UnionType[float, int, str]], float]]]</text>
</a>
</g>
</g>
<!-- eya_def_tools.data_models.result.Result&#45;&gt;eya_def_tools.data_models.result.ResultStatistic -->
<g id="edge5" class="edge">
<title>eya_def_tools.data_models.result.Result:e&#45;&gt;eya_def_tools.data_models.result.ResultStatistic:w</title>
<path fill="none" stroke="black" d="M1660,-112.5C1701.06,-112.5 1715.78,-112.5 1749.23,-112.5"/>
<polygon fill="black" stroke="black" points="1758,-112.5 1768,-117 1763,-112.5 1768,-112.5 1768,-112.5 1768,-112.5 1763,-112.5 1768,-108 1758,-112.5 1758,-112.5"/>
<ellipse fill="none" stroke="black" cx="1753.5" cy="-112.5" rx="4" ry="4"/>
</g>
</g>
</svg>
