<?xml version="1.0" encoding="UTF-8" standalone="no"?>
<!DOCTYPE svg PUBLIC "-//W3C//DTD SVG 1.1//EN"
 "http://www.w3.org/Graphics/SVG/1.1/DTD/svg11.dtd">
<!-- Generated by graphviz version 9.0.0 (20230911.1827)
 -->
<!-- Title: Entity Relationship Diagram Pages: 1 -->
<svg width="1435pt" height="650pt"
 viewBox="0.00 0.00 1435.00 649.75" xmlns="http://www.w3.org/2000/svg" xmlns:xlink="http://www.w3.org/1999/xlink">
<g id="graph0" class="graph" transform="scale(1 1) rotate(0) translate(4 645.75)">
<title>Entity Relationship Diagram</title>
<polygon fill="white" stroke="none" points="-4,4 -4,-645.75 1431,-645.75 1431,4 -4,4"/>
<text text-anchor="middle" x="713.5" y="-6.7" font-family="Times New Roman,serif" font-size="9.00" fill="#a8a8a8">Created by erdantic v0.6.0 &lt;https://github.com/drivendataorg/erdantic&gt;</text>
<!-- eya_def_tools.data_models.general.Organisation -->
<g id="node1" class="node">
<title>eya_def_tools.data_models.general.Organisation</title>
<g id="a_node1"><a xlink:title="eya_def_tools.data_models.general.Organisation&#10;&#10;Basic metadata to describe an organisation.&#10;&#10;This model is for example used for issuing and receiving&#10;organisations of an energy yield assessment.&#10;&#10;Attributes:&#10; &#160;&#160;&#160;name (str): Entity name of the organisation.&#10; &#160;&#160;&#160;abbreviation (Optional[str]): Abbreviated name of the organisation. Default is None.&#10; &#160;&#160;&#160;address (Optional[str]): Address of the organisation. Default is None.&#10; &#160;&#160;&#160;contact_name (Optional[str]): Name(s) of contact person(s) in the organisation. Default is None.&#10;">
<polygon fill="none" stroke="black" points="1179.5,-387.25 1179.5,-409.25 1340.5,-409.25 1340.5,-387.25 1179.5,-387.25"/>
<text text-anchor="start" x="1219.88" y="-393.95" font-family="Times New Roman,serif" font-weight="bold" font-size="14.00">Organisation</text>
<polygon fill="none" stroke="black" points="1179.5,-366.25 1179.5,-387.25 1263.5,-387.25 1263.5,-366.25 1179.5,-366.25"/>
<text text-anchor="start" x="1206.88" y="-370.95" font-family="Times New Roman,serif" font-size="14.00">name</text>
<polygon fill="none" stroke="black" points="1263.5,-366.25 1263.5,-387.25 1340.5,-387.25 1340.5,-366.25 1263.5,-366.25"/>
<text text-anchor="start" x="1294.88" y="-370.95" font-family="Times New Roman,serif" font-size="14.00">str</text>
<polygon fill="none" stroke="black" points="1179.5,-345.25 1179.5,-366.25 1263.5,-366.25 1263.5,-345.25 1179.5,-345.25"/>
<text text-anchor="start" x="1187.38" y="-349.95" font-family="Times New Roman,serif" font-size="14.00">abbreviation</text>
<polygon fill="none" stroke="black" points="1263.5,-345.25 1263.5,-366.25 1340.5,-366.25 1340.5,-345.25 1263.5,-345.25"/>
<text text-anchor="start" x="1266.38" y="-349.95" font-family="Times New Roman,serif" font-size="14.00">Optional[str]</text>
<polygon fill="none" stroke="black" points="1179.5,-324.25 1179.5,-345.25 1263.5,-345.25 1263.5,-324.25 1179.5,-324.25"/>
<text text-anchor="start" x="1199.75" y="-328.95" font-family="Times New Roman,serif" font-size="14.00">address</text>
<polygon fill="none" stroke="black" points="1263.5,-324.25 1263.5,-345.25 1340.5,-345.25 1340.5,-324.25 1263.5,-324.25"/>
<text text-anchor="start" x="1266.38" y="-328.95" font-family="Times New Roman,serif" font-size="14.00">Optional[str]</text>
<polygon fill="none" stroke="black" points="1179.5,-303.25 1179.5,-324.25 1263.5,-324.25 1263.5,-303.25 1179.5,-303.25"/>
<text text-anchor="start" x="1182.5" y="-307.95" font-family="Times New Roman,serif" font-size="14.00">contact_name</text>
<polygon fill="none" stroke="black" points="1263.5,-303.25 1263.5,-324.25 1340.5,-324.25 1340.5,-303.25 1263.5,-303.25"/>
<text text-anchor="start" x="1266.38" y="-307.95" font-family="Times New Roman,serif" font-size="14.00">Optional[str]</text>
</a>
</g>
</g>
<!-- eya_def_tools.data_models.general.TimeResolution -->
<g id="node2" class="node">
<title>eya_def_tools.data_models.general.TimeResolution</title>
<g id="a_node2"><a xlink:title="eya_def_tools.data_models.general.TimeResolution&#10;&#10;Resolution of time series data.&#10;&#10;Attributes:&#10; &#160;&#160;&#160;value (float): The value of the time resolution in the specified unit. For example, for 10&#45;minute resolution, the value is &#39;10.0&#39; and the unit is &#39;minute&#39;&#10; &#160;&#160;&#160;unit (TimeMeasurementUnit(StrEnum)): The measurement unit of time in which the time resolution is specified.&#10;">
<polygon fill="none" stroke="black" points="1148.5,-245.25 1148.5,-267.25 1371.5,-267.25 1371.5,-245.25 1148.5,-245.25"/>
<text text-anchor="start" x="1211.62" y="-251.95" font-family="Times New Roman,serif" font-weight="bold" font-size="14.00">TimeResolution</text>
<polygon fill="none" stroke="black" points="1148.5,-224.25 1148.5,-245.25 1182.5,-245.25 1182.5,-224.25 1148.5,-224.25"/>
<text text-anchor="start" x="1151.25" y="-228.95" font-family="Times New Roman,serif" font-size="14.00">value</text>
<polygon fill="none" stroke="black" points="1182.5,-224.25 1182.5,-245.25 1371.5,-245.25 1371.5,-224.25 1182.5,-224.25"/>
<text text-anchor="start" x="1264.62" y="-228.95" font-family="Times New Roman,serif" font-size="14.00">float</text>
<polygon fill="none" stroke="black" points="1148.5,-203.25 1148.5,-224.25 1182.5,-224.25 1182.5,-203.25 1148.5,-203.25"/>
<text text-anchor="start" x="1155.38" y="-207.95" font-family="Times New Roman,serif" font-size="14.00">unit</text>
<polygon fill="none" stroke="black" points="1182.5,-203.25 1182.5,-224.25 1371.5,-224.25 1371.5,-203.25 1182.5,-203.25"/>
<text text-anchor="start" x="1185.12" y="-207.95" font-family="Times New Roman,serif" font-size="14.00">TimeMeasurementUnit(StrEnum)</text>
</a>
</g>
</g>
<!-- eya_def_tools.data_models.reference_wind_farm.OperationalDataVariable -->
<g id="node3" class="node">
<title>eya_def_tools.data_models.reference_wind_farm.OperationalDataVariable</title>
<g id="a_node3"><a xlink:title="eya_def_tools.data_models.reference_wind_farm.OperationalDataVariable&#10;&#10;Reference wind farm operational data variable.&#10;&#10;Attributes:&#10; &#160;&#160;&#160;id (str): Unique ID of the data variable. This is currently free text but could be replaced by a list of enum options.&#10; &#160;&#160;&#160;label (Optional[str]): Optional label of the data variable, which should not be empty if the field is included. Default is None.&#10; &#160;&#160;&#160;description (Optional[str]): Optional description of the data variable, which should not be empty if the field is included. This may include clarification of the point of measurement, where relevant. Default is None.&#10; &#160;&#160;&#160;comments (Optional[str]): Optional comments on the data variable, which should not be empty if the field is included. Default is None.&#10; &#160;&#160;&#160;data_level (OperationalDataLevel(StrEnum)): Whether the operational data variable is provided for each individual wind turbine (&#39;turbine_level&#39;), is corresponding to or aggregated to the wind farm level (&#39;wind_farm_level&#39;) or corresponds to a different (&#39;other&#39;) level such as an environmental measurement station.&#10; &#160;&#160;&#160;statistic_types (Optional[list[BasicStatisticType(StrEnum)]]): Optional list of the types of statistics included for the data variable.&#10;">
<polygon fill="none" stroke="black" points="1093,-145.25 1093,-167.25 1427,-167.25 1427,-145.25 1093,-145.25"/>
<text text-anchor="start" x="1182" y="-151.95" font-family="Times New Roman,serif" font-weight="bold" font-size="14.00">OperationalDataVariable</text>
<polygon fill="none" stroke="black" points="1093,-124.25 1093,-145.25 1178,-145.25 1178,-124.25 1093,-124.25"/>
<text text-anchor="start" x="1130.25" y="-128.95" font-family="Times New Roman,serif" font-size="14.00">id</text>
<polygon fill="none" stroke="black" points="1178,-124.25 1178,-145.25 1427,-145.25 1427,-124.25 1178,-124.25"/>
<text text-anchor="start" x="1295.38" y="-128.95" font-family="Times New Roman,serif" font-size="14.00">str</text>
<polygon fill="none" stroke="black" points="1093,-103.25 1093,-124.25 1178,-124.25 1178,-103.25 1093,-103.25"/>
<text text-anchor="start" x="1122.75" y="-107.95" font-family="Times New Roman,serif" font-size="14.00">label</text>
<polygon fill="none" stroke="black" points="1178,-103.25 1178,-124.25 1427,-124.25 1427,-103.25 1178,-103.25"/>
<text text-anchor="start" x="1266.88" y="-107.95" font-family="Times New Roman,serif" font-size="14.00">Optional[str]</text>
<polygon fill="none" stroke="black" points="1093,-82.25 1093,-103.25 1178,-103.25 1178,-82.25 1093,-82.25"/>
<text text-anchor="start" x="1104.38" y="-86.95" font-family="Times New Roman,serif" font-size="14.00">description</text>
<polygon fill="none" stroke="black" points="1178,-82.25 1178,-103.25 1427,-103.25 1427,-82.25 1178,-82.25"/>
<text text-anchor="start" x="1266.88" y="-86.95" font-family="Times New Roman,serif" font-size="14.00">Optional[str]</text>
<polygon fill="none" stroke="black" points="1093,-61.25 1093,-82.25 1178,-82.25 1178,-61.25 1093,-61.25"/>
<text text-anchor="start" x="1106.62" y="-65.95" font-family="Times New Roman,serif" font-size="14.00">comments</text>
<polygon fill="none" stroke="black" points="1178,-61.25 1178,-82.25 1427,-82.25 1427,-61.25 1178,-61.25"/>
<text text-anchor="start" x="1266.88" y="-65.95" font-family="Times New Roman,serif" font-size="14.00">Optional[str]</text>
<polygon fill="none" stroke="black" points="1093,-40.25 1093,-61.25 1178,-61.25 1178,-40.25 1093,-40.25"/>
<text text-anchor="start" x="1107.75" y="-44.95" font-family="Times New Roman,serif" font-size="14.00">data_level</text>
<polygon fill="none" stroke="black" points="1178,-40.25 1178,-61.25 1427,-61.25 1427,-40.25 1178,-40.25"/>
<text text-anchor="start" x="1213.62" y="-44.95" font-family="Times New Roman,serif" font-size="14.00">OperationalDataLevel(StrEnum)</text>
<polygon fill="none" stroke="black" points="1093,-19.25 1093,-40.25 1178,-40.25 1178,-19.25 1093,-19.25"/>
<text text-anchor="start" x="1095.75" y="-23.95" font-family="Times New Roman,serif" font-size="14.00">statistic_types</text>
<polygon fill="none" stroke="black" points="1178,-19.25 1178,-40.25 1427,-40.25 1427,-19.25 1178,-19.25"/>
<text text-anchor="start" x="1180.62" y="-23.95" font-family="Times New Roman,serif" font-size="14.00">Optional[list[BasicStatisticType(StrEnum)]]</text>
</a>
</g>
</g>
<!-- eya_def_tools.data_models.reference_wind_farm.OperationalDatasetMetadata -->
<g id="node4" class="node">
<title>eya_def_tools.data_models.reference_wind_farm.OperationalDatasetMetadata</title>
<g id="a_node4"><a xlink:title="eya_def_tools.data_models.reference_wind_farm.OperationalDatasetMetadata&#10;&#10;Metadata for a reference wind farm operational dataset.&#10;&#10;Attributes:&#10; &#160;&#160;&#160;id (str): Unique ID of the reference operational wind farm dataset&#10; &#160;&#160;&#160;label (Optional[str]): Optional label of the reference wind farm dataset, which should not be empty if the field is included.&#10; &#160;&#160;&#160;description (Optional[str]): Optional description of the dataset, which should not be empty if the field is included. Default is None.&#10; &#160;&#160;&#160;comments (Optional[str]): Optional comments on the dataset, which should not be empty if the field is included. Default is None.&#10; &#160;&#160;&#160;classification (UnionType[SingleSourceDatasetClassification, DerivedDatasetClassification]): Classification of the type of data and the type of data source. Separate schemas are available to classify unprocessed datasets from a single source, including classification of the data type and source, and datasets that have been derived (aggregated and/or processed, such as operational reports and national databases), including only a classification of the data type as &#39;derived&#39;. For single source data types (e.g. SCADA) it is meaningful to distinguish between primary and secondary source types, whereas for a derived data type the source type is always secondary.&#10; &#160;&#160;&#160;supplying_organisation (Organisation): The organisation that supplied the data.&#10; &#160;&#160;&#160;integrity_verification (Optional[str]): Optional description of how the integrity of the data has been and/or can be verified. This field should not be empty if it is included. If any measures were undertaken to verify data integrity, they should always be described here. When this field is omitted, it shall be interpreted to mean that data integrity verification was not undertaken and/or not possible. Default is None.&#10; &#160;&#160;&#160;time_resolution (TimeResolution): Time resolution of the operational data.&#10; &#160;&#160;&#160;start_date (date): Start of the data period in the ISO 8601 standard format for a calendar date, i.e. YYYY&#45;MM&#45;DD.&#10; &#160;&#160;&#160;end_date (date): End of the data period in the ISO 8601 standard format for a calendar date, i.e. YYYY&#45;MM&#45;DD.&#10; &#160;&#160;&#160;data_variables (list[OperationalDataVariable]): A list of the data variables included in the dataset and used in the assessment. For a large dataset (such as a full wind turbine SCADA dataset) this field should not include all the variables but only the ones that were used in the analysis.&#10;">
<polygon fill="none" stroke="black" points="415,-513.75 415,-535.75 985,-535.75 985,-513.75 415,-513.75"/>
<text text-anchor="start" x="610" y="-520.45" font-family="Times New Roman,serif" font-weight="bold" font-size="14.00">OperationalDatasetMetadata</text>
<polygon fill="none" stroke="black" points="415,-492.75 415,-513.75 550,-513.75 550,-492.75 415,-492.75"/>
<text text-anchor="start" x="477.25" y="-497.45" font-family="Times New Roman,serif" font-size="14.00">id</text>
<polygon fill="none" stroke="black" points="550,-492.75 550,-513.75 985,-513.75 985,-492.75 550,-492.75"/>
<text text-anchor="start" x="760.38" y="-497.45" font-family="Times New Roman,serif" font-size="14.00">str</text>
<polygon fill="none" stroke="black" points="415,-471.75 415,-492.75 550,-492.75 550,-471.75 415,-471.75"/>
<text text-anchor="start" x="469.75" y="-476.45" font-family="Times New Roman,serif" font-size="14.00">label</text>
<polygon fill="none" stroke="black" points="550,-471.75 550,-492.75 985,-492.75 985,-471.75 550,-471.75"/>
<text text-anchor="start" x="731.88" y="-476.45" font-family="Times New Roman,serif" font-size="14.00">Optional[str]</text>
<polygon fill="none" stroke="black" points="415,-450.75 415,-471.75 550,-471.75 550,-450.75 415,-450.75"/>
<text text-anchor="start" x="451.38" y="-455.45" font-family="Times New Roman,serif" font-size="14.00">description</text>
<polygon fill="none" stroke="black" points="550,-450.75 550,-471.75 985,-471.75 985,-450.75 550,-450.75"/>
<text text-anchor="start" x="731.88" y="-455.45" font-family="Times New Roman,serif" font-size="14.00">Optional[str]</text>
<polygon fill="none" stroke="black" points="415,-429.75 415,-450.75 550,-450.75 550,-429.75 415,-429.75"/>
<text text-anchor="start" x="453.62" y="-434.45" font-family="Times New Roman,serif" font-size="14.00">comments</text>
<polygon fill="none" stroke="black" points="550,-429.75 550,-450.75 985,-450.75 985,-429.75 550,-429.75"/>
<text text-anchor="start" x="731.88" y="-434.45" font-family="Times New Roman,serif" font-size="14.00">Optional[str]</text>
<polygon fill="none" stroke="black" points="415,-408.75 415,-429.75 550,-429.75 550,-408.75 415,-408.75"/>
<text text-anchor="start" x="446.5" y="-413.45" font-family="Times New Roman,serif" font-size="14.00">classification</text>
<polygon fill="none" stroke="black" points="550,-408.75 550,-429.75 985,-429.75 985,-408.75 550,-408.75"/>
<text text-anchor="start" x="553" y="-413.45" font-family="Times New Roman,serif" font-size="14.00">UnionType[SingleSourceDatasetClassification, DerivedDatasetClassification]</text>
<polygon fill="none" stroke="black" points="415,-387.75 415,-408.75 550,-408.75 550,-387.75 415,-387.75"/>
<text text-anchor="start" x="418" y="-392.45" font-family="Times New Roman,serif" font-size="14.00">supplying_organisation</text>
<polygon fill="none" stroke="black" points="550,-387.75 550,-408.75 985,-408.75 985,-387.75 550,-387.75"/>
<text text-anchor="start" x="732.25" y="-392.45" font-family="Times New Roman,serif" font-size="14.00">Organisation</text>
<polygon fill="none" stroke="black" points="415,-366.75 415,-387.75 550,-387.75 550,-366.75 415,-366.75"/>
<text text-anchor="start" x="425.88" y="-371.45" font-family="Times New Roman,serif" font-size="14.00">integrity_verification</text>
<polygon fill="none" stroke="black" points="550,-366.75 550,-387.75 985,-387.75 985,-366.75 550,-366.75"/>
<text text-anchor="start" x="731.88" y="-371.45" font-family="Times New Roman,serif" font-size="14.00">Optional[str]</text>
<polygon fill="none" stroke="black" points="415,-345.75 415,-366.75 550,-366.75 550,-345.75 415,-345.75"/>
<text text-anchor="start" x="439.75" y="-350.45" font-family="Times New Roman,serif" font-size="14.00">time_resolution</text>
<polygon fill="none" stroke="black" points="550,-345.75 550,-366.75 985,-366.75 985,-345.75 550,-345.75"/>
<text text-anchor="start" x="723.25" y="-350.45" font-family="Times New Roman,serif" font-size="14.00">TimeResolution</text>
<polygon fill="none" stroke="black" points="415,-324.75 415,-345.75 550,-345.75 550,-324.75 415,-324.75"/>
<text text-anchor="start" x="455.12" y="-329.45" font-family="Times New Roman,serif" font-size="14.00">start_date</text>
<polygon fill="none" stroke="black" points="550,-324.75 550,-345.75 985,-345.75 985,-324.75 550,-324.75"/>
<text text-anchor="start" x="755.88" y="-329.45" font-family="Times New Roman,serif" font-size="14.00">date</text>
<polygon fill="none" stroke="black" points="415,-303.75 415,-324.75 550,-324.75 550,-303.75 415,-303.75"/>
<text text-anchor="start" x="457" y="-308.45" font-family="Times New Roman,serif" font-size="14.00">end_date</text>
<polygon fill="none" stroke="black" points="550,-303.75 550,-324.75 985,-324.75 985,-303.75 550,-303.75"/>
<text text-anchor="start" x="755.88" y="-308.45" font-family="Times New Roman,serif" font-size="14.00">date</text>
<polygon fill="none" stroke="black" points="415,-282.75 415,-303.75 550,-303.75 550,-282.75 415,-282.75"/>
<text text-anchor="start" x="442.75" y="-287.45" font-family="Times New Roman,serif" font-size="14.00">data_variables</text>
<polygon fill="none" stroke="black" points="550,-282.75 550,-303.75 985,-303.75 985,-282.75 550,-282.75"/>
<text text-anchor="start" x="687.25" y="-287.45" font-family="Times New Roman,serif" font-size="14.00">list[OperationalDataVariable]</text>
</a>
</g>
</g>
<!-- eya_def_tools.data_models.reference_wind_farm.OperationalDatasetMetadata&#45;&gt;eya_def_tools.data_models.general.Organisation -->
<g id="edge1" class="edge">
<title>eya_def_tools.data_models.reference_wind_farm.OperationalDatasetMetadata:e&#45;&gt;eya_def_tools.data_models.general.Organisation:w</title>
<path fill="none" stroke="black" d="M985,-398.25C1065.58,-398.25 1089.39,-398.25 1163.1,-398.25"/>
<polyline fill="none" stroke="black" points="1178,-398.25 1173,-398.25"/>
<polygon fill="black" stroke="black" points="1172,-393.25 1172,-403.25 1170,-403.25 1170,-393.25 1172,-393.25"/>
<polyline fill="none" stroke="black" points="1173,-398.25 1168,-398.25"/>
<polygon fill="black" stroke="black" points="1167,-393.25 1167,-403.25 1165,-403.25 1165,-393.25 1167,-393.25"/>
<polyline fill="none" stroke="black" points="1168,-398.25 1163,-398.25"/>
</g>
<!-- eya_def_tools.data_models.reference_wind_farm.OperationalDatasetMetadata&#45;&gt;eya_def_tools.data_models.general.TimeResolution -->
<g id="edge2" class="edge">
<title>eya_def_tools.data_models.reference_wind_farm.OperationalDatasetMetadata:e&#45;&gt;eya_def_tools.data_models.general.TimeResolution:w</title>
<path fill="none" stroke="black" d="M985,-356.25C1064.32,-356.25 1062.93,-268.36 1132.17,-257.37"/>
<polyline fill="none" stroke="black" points="1147,-256.25 1142.01,-256.63"/>
<polygon fill="black" stroke="black" points="1140.64,-251.72 1141.39,-261.69 1139.4,-261.84 1138.65,-251.87 1140.64,-251.72"/>
<polyline fill="none" stroke="black" points="1142.01,-256.63 1137.03,-257.01"/>
<polygon fill="black" stroke="black" points="1135.65,-252.09 1136.41,-262.07 1134.41,-262.22 1133.66,-252.25 1135.65,-252.09"/>
<polyline fill="none" stroke="black" points="1137.03,-257.01 1132.04,-257.38"/>
</g>
<!-- eya_def_tools.data_models.reference_wind_farm.OperationalDatasetMetadata&#45;&gt;eya_def_tools.data_models.reference_wind_farm.OperationalDataVariable -->
<g id="edge3" class="edge">
<title>eya_def_tools.data_models.reference_wind_farm.OperationalDatasetMetadata:e&#45;&gt;eya_def_tools.data_models.reference_wind_farm.OperationalDataVariable:w</title>
<path fill="none" stroke="black" d="M985,-293.25C985.15,-293.25 985.3,-293.25 985.45,-293.25"/>
<polygon fill="black" stroke="black" points="1086.62,-164.38 1096.33,-159.29 1089.91,-160.18 1092.59,-156.78 1092.59,-156.78 1092.59,-156.78 1089.91,-160.18 1089.25,-153.73 1086.62,-164.38"/>
<ellipse fill="none" stroke="black" cx="1083.09" cy="-168.88" rx="4" ry="4"/>
</g>
<!-- eya_def_tools.utils.doc_utils.eya_def_erdantic.DerivedDatasetClassification -->
<g id="node5" class="node">
<title>eya_def_tools.utils.doc_utils.eya_def_erdantic.DerivedDatasetClassification</title>
<g id="a_node5"><a xlink:title="eya_def_tools.utils.doc_utils.eya_def_erdantic.DerivedDatasetClassification&#10;&#10;Base pydantic model for the EYA DEF.&#10;&#10;This base model includes some adaptations to ``pydantic.BaseModel``&#10;to tune the output JSON Schema as desired.&#10;&#10;Attributes:&#10; &#160;&#160;&#160;data_type (OperationalDataType(StrEnum)): The type of operational data, categorised as &#39;derived&#39; for all derived operational datasets (e.g. operational reports or databases with aggregate data). Details of the data type shall be included in the description of the operational dataset, including the type of derived dataset (e.g. an operational report), who produced it (e.g. the turbine OEM) and any relevant details known about how the data were processed. Default is &#39;derived&#39;.&#10; &#160;&#160;&#160;data_source_type (OperationalDataSourceType(StrEnum)): The data source type, which for derived data is &#39;secondary&#39;. Default is &#39;secondary&#39;.&#10;">
<polygon fill="none" stroke="black" points="1096.5,-587.25 1096.5,-609.25 1423.5,-609.25 1423.5,-587.25 1096.5,-587.25"/>
<text text-anchor="start" x="1170.75" y="-593.95" font-family="Times New Roman,serif" font-weight="bold" font-size="14.00">DerivedDatasetClassification</text>
<polygon fill="none" stroke="black" points="1096.5,-566.25 1096.5,-587.25 1201.5,-587.25 1201.5,-566.25 1096.5,-566.25"/>
<text text-anchor="start" x="1121.62" y="-570.95" font-family="Times New Roman,serif" font-size="14.00">data_type</text>
<polygon fill="none" stroke="black" points="1201.5,-566.25 1201.5,-587.25 1423.5,-587.25 1423.5,-566.25 1201.5,-566.25"/>
<text text-anchor="start" x="1224" y="-570.95" font-family="Times New Roman,serif" font-size="14.00">OperationalDataType(StrEnum)</text>
<polygon fill="none" stroke="black" points="1096.5,-545.25 1096.5,-566.25 1201.5,-566.25 1201.5,-545.25 1096.5,-545.25"/>
<text text-anchor="start" x="1099.12" y="-549.95" font-family="Times New Roman,serif" font-size="14.00">data_source_type</text>
<polygon fill="none" stroke="black" points="1201.5,-545.25 1201.5,-566.25 1423.5,-566.25 1423.5,-545.25 1201.5,-545.25"/>
<text text-anchor="start" x="1204.12" y="-549.95" font-family="Times New Roman,serif" font-size="14.00">OperationalDataSourceType(StrEnum)</text>
</a>
</g>
</g>
<!-- eya_def_tools.data_models.reference_wind_farm.OperationalDatasetMetadata&#45;&gt;eya_def_tools.utils.doc_utils.eya_def_erdantic.DerivedDatasetClassification -->
<g id="edge4" class="edge">
<title>eya_def_tools.data_models.reference_wind_farm.OperationalDatasetMetadata:e&#45;&gt;eya_def_tools.utils.doc_utils.eya_def_erdantic.DerivedDatasetClassification:w</title>
<path fill="none" stroke="black" d="M985,-419.25C1072.91,-419.25 1010.03,-577.89 1080.27,-596.48"/>
<polyline fill="none" stroke="black" points="1095,-598.25 1090.04,-597.65"/>
<polygon fill="black" stroke="black" points="1089.64,-592.57 1088.45,-602.5 1086.46,-602.26 1087.65,-592.33 1089.64,-592.57"/>
<polyline fill="none" stroke="black" points="1090.04,-597.65 1085.07,-597.06"/>
<polygon fill="black" stroke="black" points="1084.68,-591.97 1083.48,-601.9 1081.5,-601.66 1082.69,-591.73 1084.68,-591.97"/>
<polyline fill="none" stroke="black" points="1085.07,-597.06 1080.11,-596.46"/>
</g>
<!-- eya_def_tools.utils.doc_utils.eya_def_erdantic.SingleSourceDatasetClassification -->
<g id="node6" class="node">
<title>eya_def_tools.utils.doc_utils.eya_def_erdantic.SingleSourceDatasetClassification</title>
<g id="a_node6"><a xlink:title="eya_def_tools.utils.doc_utils.eya_def_erdantic.SingleSourceDatasetClassification&#10;&#10;Base pydantic model for the EYA DEF.&#10;&#10;This base model includes some adaptations to ``pydantic.BaseModel``&#10;to tune the output JSON Schema as desired.&#10;&#10;Attributes:&#10; &#160;&#160;&#160;data_type (OperationalDataType(StrEnum)): The type of operational data, categorised as &#39;scada&#39; for data from a Supervisory Control and Data Acquisition (SCADA) system, &#39;metered&#39; for data from a production meter and &#39;environmental_measurement&#39; for data from an (on&#45;site) environmental measurement station such as a meteorological mast or a remote sensing device (RSD).&#10; &#160;&#160;&#160;data_source_type (OperationalDataSourceType(StrEnum)): The type of the operational data source. Primary data, such as primary SCADA data, comes directly from the source without any intermediary. Secondary data covers all other types of data sources, where the data does not come directly from the source, such as secondary SCADA data provided in harmonised form by a data management service provider.&#10;">
<polygon fill="none" stroke="black" points="1096.5,-487.25 1096.5,-509.25 1423.5,-509.25 1423.5,-487.25 1096.5,-487.25"/>
<text text-anchor="start" x="1154.62" y="-493.95" font-family="Times New Roman,serif" font-weight="bold" font-size="14.00">SingleSourceDatasetClassification</text>
<polygon fill="none" stroke="black" points="1096.5,-466.25 1096.5,-487.25 1201.5,-487.25 1201.5,-466.25 1096.5,-466.25"/>
<text text-anchor="start" x="1121.62" y="-470.95" font-family="Times New Roman,serif" font-size="14.00">data_type</text>
<polygon fill="none" stroke="black" points="1201.5,-466.25 1201.5,-487.25 1423.5,-487.25 1423.5,-466.25 1201.5,-466.25"/>
<text text-anchor="start" x="1224" y="-470.95" font-family="Times New Roman,serif" font-size="14.00">OperationalDataType(StrEnum)</text>
<polygon fill="none" stroke="black" points="1096.5,-445.25 1096.5,-466.25 1201.5,-466.25 1201.5,-445.25 1096.5,-445.25"/>
<text text-anchor="start" x="1099.12" y="-449.95" font-family="Times New Roman,serif" font-size="14.00">data_source_type</text>
<polygon fill="none" stroke="black" points="1201.5,-445.25 1201.5,-466.25 1423.5,-466.25 1423.5,-445.25 1201.5,-445.25"/>
<text text-anchor="start" x="1204.12" y="-449.95" font-family="Times New Roman,serif" font-size="14.00">OperationalDataSourceType(StrEnum)</text>
</a>
</g>
</g>
<!-- eya_def_tools.data_models.reference_wind_farm.OperationalDatasetMetadata&#45;&gt;eya_def_tools.utils.doc_utils.eya_def_erdantic.SingleSourceDatasetClassification -->
<g id="edge5" class="edge">
<title>eya_def_tools.data_models.reference_wind_farm.OperationalDatasetMetadata:e&#45;&gt;eya_def_tools.utils.doc_utils.eya_def_erdantic.SingleSourceDatasetClassification:w</title>
<path fill="none" stroke="black" d="M985,-419.25C1039.78,-419.25 1036.11,-484.69 1080.38,-496.45"/>
<polyline fill="none" stroke="black" points="1095,-498.25 1090.04,-497.64"/>
<polygon fill="black" stroke="black" points="1089.66,-492.55 1088.43,-502.48 1086.45,-502.24 1087.67,-492.31 1089.66,-492.55"/>
<polyline fill="none" stroke="black" points="1090.04,-497.64 1085.07,-497.03"/>
<polygon fill="black" stroke="black" points="1084.69,-491.94 1083.47,-501.87 1081.49,-501.62 1082.71,-491.7 1084.69,-491.94"/>
<polyline fill="none" stroke="black" points="1085.07,-497.03 1080.11,-496.42"/>
</g>
<!-- eya_def_tools.data_models.reference_wind_farm.ReferenceWindFarm -->
<g id="node7" class="node">
<title>eya_def_tools.data_models.reference_wind_farm.ReferenceWindFarm</title>
<g id="a_node7"><a xlink:title="eya_def_tools.data_models.reference_wind_farm.ReferenceWindFarm&#10;&#10;Reference wind farm.&#10;&#10;Attributes:&#10; &#160;&#160;&#160;id (str): Unique ID for the reference wind farm within the EYA DEF document.&#10; &#160;&#160;&#160;description (Optional[str]): Optional description of the reference wind farm, which should not be empty if the field is included. Default is None.&#10; &#160;&#160;&#160;comments (Optional[str]): Optional comments on the reference wind farm, which should not be empty if the field is included. Default is None.&#10; &#160;&#160;&#160;wind_farm_id (str): The ID of the wind farm in the &#39;wind_farms&#39; section of the top&#45;level of the EYA DEF document, containing the configuration data for the reference wind farm.&#10; &#160;&#160;&#160;operational_datasets (list[OperationalDatasetMetadata]): List of metadata documents describing the operational datasets from the reference wind farm that were used.&#10;">
<polygon fill="none" stroke="black" points="0,-619.75 0,-641.75 307,-641.75 307,-619.75 0,-619.75"/>
<text text-anchor="start" x="89" y="-626.45" font-family="Times New Roman,serif" font-weight="bold" font-size="14.00">ReferenceWindFarm</text>
<polygon fill="none" stroke="black" points="0,-598.75 0,-619.75 120,-619.75 120,-598.75 0,-598.75"/>
<text text-anchor="start" x="54.75" y="-603.45" font-family="Times New Roman,serif" font-size="14.00">id</text>
<polygon fill="none" stroke="black" points="120,-598.75 120,-619.75 307,-619.75 307,-598.75 120,-598.75"/>
<text text-anchor="start" x="206.38" y="-603.45" font-family="Times New Roman,serif" font-size="14.00">str</text>
<polygon fill="none" stroke="black" points="0,-577.75 0,-598.75 120,-598.75 120,-577.75 0,-577.75"/>
<text text-anchor="start" x="28.88" y="-582.45" font-family="Times New Roman,serif" font-size="14.00">description</text>
<polygon fill="none" stroke="black" points="120,-577.75 120,-598.75 307,-598.75 307,-577.75 120,-577.75"/>
<text text-anchor="start" x="177.88" y="-582.45" font-family="Times New Roman,serif" font-size="14.00">Optional[str]</text>
<polygon fill="none" stroke="black" points="0,-556.75 0,-577.75 120,-577.75 120,-556.75 0,-556.75"/>
<text text-anchor="start" x="31.12" y="-561.45" font-family="Times New Roman,serif" font-size="14.00">comments</text>
<polygon fill="none" stroke="black" points="120,-556.75 120,-577.75 307,-577.75 307,-556.75 120,-556.75"/>
<text text-anchor="start" x="177.88" y="-561.45" font-family="Times New Roman,serif" font-size="14.00">Optional[str]</text>
<polygon fill="none" stroke="black" points="0,-535.75 0,-556.75 120,-556.75 120,-535.75 0,-535.75"/>
<text text-anchor="start" x="21" y="-540.45" font-family="Times New Roman,serif" font-size="14.00">wind_farm_id</text>
<polygon fill="none" stroke="black" points="120,-535.75 120,-556.75 307,-556.75 307,-535.75 120,-535.75"/>
<text text-anchor="start" x="206.38" y="-540.45" font-family="Times New Roman,serif" font-size="14.00">str</text>
<polygon fill="none" stroke="black" points="0,-514.75 0,-535.75 120,-535.75 120,-514.75 0,-514.75"/>
<text text-anchor="start" x="3" y="-519.45" font-family="Times New Roman,serif" font-size="14.00">operational_datasets</text>
<polygon fill="none" stroke="black" points="120,-514.75 120,-535.75 307,-535.75 307,-514.75 120,-514.75"/>
<text text-anchor="start" x="122.75" y="-519.45" font-family="Times New Roman,serif" font-size="14.00">list[OperationalDatasetMetadata]</text>
</a>
</g>
</g>
<!-- eya_def_tools.data_models.reference_wind_farm.ReferenceWindFarm&#45;&gt;eya_def_tools.data_models.reference_wind_farm.OperationalDatasetMetadata -->
<g id="edge6" class="edge">
<title>eya_def_tools.data_models.reference_wind_farm.ReferenceWindFarm:e&#45;&gt;eya_def_tools.data_models.reference_wind_farm.OperationalDatasetMetadata:w</title>
<path fill="none" stroke="black" d="M307,-525.25C307.09,-525.25 307.19,-525.25 307.28,-525.25"/>
<polygon fill="black" stroke="black" points="404.67,-525.25 414.67,-529.75 410,-525.25 414.33,-525.25 414.33,-525.25 414.33,-525.25 410,-525.25 414.67,-520.75 404.67,-525.25"/>
<ellipse fill="none" stroke="black" cx="398.95" cy="-525.25" rx="4" ry="4"/>
</g>
</g>
</svg>
