<?xml version="1.0" encoding="UTF-8" standalone="no"?>
<!DOCTYPE svg PUBLIC "-//W3C//DTD SVG 1.1//EN"
 "http://www.w3.org/Graphics/SVG/1.1/DTD/svg11.dtd">
<!-- Generated by graphviz version 7.0.4 (20221203.1631)
 -->
<!-- Title: Entity Relationship Diagram Pages: 1 -->
<svg width="7280pt" height="640pt"
 viewBox="0.00 0.00 7280.00 640.00" xmlns="http://www.w3.org/2000/svg" xmlns:xlink="http://www.w3.org/1999/xlink">
<g id="graph0" class="graph" transform="scale(1 1) rotate(0) translate(4 636)">
<title>Entity Relationship Diagram</title>
<polygon fill="white" stroke="none" points="-4,4 -4,-636 7276,-636 7276,4 -4,4"/>
<text text-anchor="middle" x="3636" y="-6.8" font-family="Times New Roman,serif" font-size="9.00" fill="#a8a8a8">Created by erdantic v0.6.0 &lt;https://github.com/drivendataorg/erdantic&gt;</text>
<!-- eya_def_tools.data_models.dataset.Dataset -->
<g id="node1" class="node">
<title>eya_def_tools.data_models.dataset.Dataset</title>
<g id="a_node1"><a xlink:title="eya_def_tools.data_models.dataset.Dataset&#10;&#10;Collection of labelled data for one specific quantity.&#10;&#10;The data is labelled by specifying dimensions and including&#10;coordinates along the dimensions for each data value.&#10;&#10;Attributes:&#10; &#160;&#160;&#160;label (Optional[Annotated[str, FieldInfo(annotation=NoneType, required=True, metadata=[MinLen(min_length=1)])]]): Optional label of the dataset, which should not be empty if the field is included. Default is None.&#10; &#160;&#160;&#160;description (Optional[Annotated[str, FieldInfo(annotation=NoneType, required=True, metadata=[MinLen(min_length=1)])]]): Optional description of the dataset, which should not be empty if the field is included. Default is None.&#10; &#160;&#160;&#160;comments (Optional[Annotated[str, FieldInfo(annotation=NoneType, required=True, metadata=[MinLen(min_length=1)])]]): Optional comments on the dataset, which should not be empty if the field is included. Default is None.&#10; &#160;&#160;&#160;assessment_period (Optional[AssessmentPeriod(StrEnum)]): Optional period of or in time that has been assessed and for which the dataset is applicable. This field is to be included only when relevant. Default is None.&#10; &#160;&#160;&#160;dimensions (Optional[list[DatasetDimension(StrEnum)]]): Dimensions along which the dataset is binned. All statistics within the same dataset object must have the same dimensions. The dimensions must correspond to and be listed in the same order as the coordinates for the values of all statistics. A dataset without dimensions can only have a single value for each statistic. Default is None.&#10; &#160;&#160;&#160;statistics (list[DatasetStatistic]): List of dataset statistic objects that each include data values for a specific statistic type. For example, there may be two statistics, one for mean values and one for standard deviation values.&#10;">
<polygon fill="none" stroke="black" points="2570,-230 2570,-251 3310,-251 3310,-230 2570,-230"/>
<text text-anchor="start" x="2916" y="-237.8" font-family="Times New Roman,serif" font-weight="bold" font-size="14.00">Dataset</text>
<polygon fill="none" stroke="black" points="2570,-209 2570,-230 2683,-230 2683,-209 2570,-209"/>
<text text-anchor="start" x="2613.5" y="-215.8" font-family="Times New Roman,serif" font-size="14.00">label</text>
<polygon fill="none" stroke="black" points="2683,-209 2683,-230 3310,-230 3310,-209 2683,-209"/>
<text text-anchor="start" x="2686" y="-215.8" font-family="Times New Roman,serif" font-size="14.00">Optional[Annotated[str, FieldInfo(annotation=NoneType, required=True, metadata=[MinLen(min_length=1)])]]</text>
<polygon fill="none" stroke="black" points="2570,-188 2570,-209 2683,-209 2683,-188 2570,-188"/>
<text text-anchor="start" x="2595" y="-194.8" font-family="Times New Roman,serif" font-size="14.00">description</text>
<polygon fill="none" stroke="black" points="2683,-188 2683,-209 3310,-209 3310,-188 2683,-188"/>
<text text-anchor="start" x="2686" y="-194.8" font-family="Times New Roman,serif" font-size="14.00">Optional[Annotated[str, FieldInfo(annotation=NoneType, required=True, metadata=[MinLen(min_length=1)])]]</text>
<polygon fill="none" stroke="black" points="2570,-167 2570,-188 2683,-188 2683,-167 2570,-167"/>
<text text-anchor="start" x="2597.5" y="-173.8" font-family="Times New Roman,serif" font-size="14.00">comments</text>
<polygon fill="none" stroke="black" points="2683,-167 2683,-188 3310,-188 3310,-167 2683,-167"/>
<text text-anchor="start" x="2686" y="-173.8" font-family="Times New Roman,serif" font-size="14.00">Optional[Annotated[str, FieldInfo(annotation=NoneType, required=True, metadata=[MinLen(min_length=1)])]]</text>
<polygon fill="none" stroke="black" points="2570,-146 2570,-167 2683,-167 2683,-146 2570,-146"/>
<text text-anchor="start" x="2573" y="-152.8" font-family="Times New Roman,serif" font-size="14.00">assessment_period</text>
<polygon fill="none" stroke="black" points="2683,-146 2683,-167 3310,-167 3310,-146 2683,-146"/>
<text text-anchor="start" x="2887" y="-152.8" font-family="Times New Roman,serif" font-size="14.00">Optional[AssessmentPeriod(StrEnum)]</text>
<polygon fill="none" stroke="black" points="2570,-125 2570,-146 2683,-146 2683,-125 2570,-125"/>
<text text-anchor="start" x="2594.5" y="-131.8" font-family="Times New Roman,serif" font-size="14.00">dimensions</text>
<polygon fill="none" stroke="black" points="2683,-125 2683,-146 3310,-146 3310,-125 2683,-125"/>
<text text-anchor="start" x="2876" y="-131.8" font-family="Times New Roman,serif" font-size="14.00">Optional[list[DatasetDimension(StrEnum)]]</text>
<polygon fill="none" stroke="black" points="2570,-104 2570,-125 2683,-125 2683,-104 2570,-104"/>
<text text-anchor="start" x="2602" y="-110.8" font-family="Times New Roman,serif" font-size="14.00">statistics</text>
<polygon fill="none" stroke="black" points="2683,-104 2683,-125 3310,-125 3310,-104 2683,-104"/>
<text text-anchor="start" x="2941" y="-110.8" font-family="Times New Roman,serif" font-size="14.00">list[DatasetStatistic]</text>
</a>
</g>
</g>
<!-- eya_def_tools.data_models.dataset.DatasetStatistic -->
<g id="node2" class="node">
<title>eya_def_tools.data_models.dataset.DatasetStatistic</title>
<g id="a_node2"><a xlink:title="eya_def_tools.data_models.dataset.DatasetStatistic&#10;&#10;Dataset values for one specific statistic type.&#10;&#10;Attributes:&#10; &#160;&#160;&#160;description (Optional[Annotated[str, FieldInfo(annotation=NoneType, required=True, metadata=[MinLen(min_length=1)])]]): Optional description of the dataset statistic, which should not be empty if the field is included. Default is None.&#10; &#160;&#160;&#160;comments (Optional[Annotated[str, FieldInfo(annotation=NoneType, required=True, metadata=[MinLen(min_length=1)])]]): Optional comments on the dataset statistic, which should not be empty if the field is included. Default is None.&#10; &#160;&#160;&#160;statistic_type (UnionType[BasicStatisticType(StrEnum), ExceedanceLevelStatisticType]): Type of statistic that the component of the dataset contains. All values must correspond to this statistic.&#10; &#160;&#160;&#160;values (Union[Annotated[float, FieldInfo(annotation=NoneType, required=True, metadata=[PydanticGeneralMetadata(allow_inf_nan=False)])], Annotated[list[tuple[list[Union[Annotated[float, FieldInfo(annotation=NoneType, required=True, metadata=[PydanticGeneralMetadata(allow_inf_nan=False)])], int, Annotated[str, FieldInfo(annotation=NoneType, required=True, metadata=[MinLen(min_length=1)])]]], Annotated[float, FieldInfo(annotation=NoneType, required=True, metadata=[PydanticGeneralMetadata(allow_inf_nan=False)])]]], FieldInfo(annotation=NoneType, required=True, metadata=[MinLen(min_length=1)])]]): Dataset value(s) as a single number or &#160;one or more values at coordinates. If more than one value is included the values must be represented together with coordinates. A single value can be included either with or without coordinates. The coordinates must correspond to and be listed the same order as the dimensions specified for the dataset.&#10;">
<polygon fill="none" stroke="black" points="3418.5,-103 3418.5,-124 6971.5,-124 6971.5,-103 3418.5,-103"/>
<text text-anchor="start" x="5146.5" y="-110.8" font-family="Times New Roman,serif" font-weight="bold" font-size="14.00">DatasetStatistic</text>
<polygon fill="none" stroke="black" points="3418.5,-82 3418.5,-103 3498.5,-103 3498.5,-82 3418.5,-82"/>
<text text-anchor="start" x="3427" y="-88.8" font-family="Times New Roman,serif" font-size="14.00">description</text>
<polygon fill="none" stroke="black" points="3498.5,-82 3498.5,-103 6971.5,-103 6971.5,-82 3498.5,-82"/>
<text text-anchor="start" x="4924.5" y="-88.8" font-family="Times New Roman,serif" font-size="14.00">Optional[Annotated[str, FieldInfo(annotation=NoneType, required=True, metadata=[MinLen(min_length=1)])]]</text>
<polygon fill="none" stroke="black" points="3418.5,-61 3418.5,-82 3498.5,-82 3498.5,-61 3418.5,-61"/>
<text text-anchor="start" x="3429.5" y="-67.8" font-family="Times New Roman,serif" font-size="14.00">comments</text>
<polygon fill="none" stroke="black" points="3498.5,-61 3498.5,-82 6971.5,-82 6971.5,-61 3498.5,-61"/>
<text text-anchor="start" x="4924.5" y="-67.8" font-family="Times New Roman,serif" font-size="14.00">Optional[Annotated[str, FieldInfo(annotation=NoneType, required=True, metadata=[MinLen(min_length=1)])]]</text>
<polygon fill="none" stroke="black" points="3418.5,-40 3418.5,-61 3498.5,-61 3498.5,-40 3418.5,-40"/>
<text text-anchor="start" x="3421.5" y="-46.8" font-family="Times New Roman,serif" font-size="14.00">statistic_type</text>
<polygon fill="none" stroke="black" points="3498.5,-40 3498.5,-61 6971.5,-61 6971.5,-40 3498.5,-40"/>
<text text-anchor="start" x="5029" y="-46.8" font-family="Times New Roman,serif" font-size="14.00">UnionType[BasicStatisticType(StrEnum), ExceedanceLevelStatisticType]</text>
<polygon fill="none" stroke="black" points="3418.5,-19 3418.5,-40 3498.5,-40 3498.5,-19 3418.5,-19"/>
<text text-anchor="start" x="3441" y="-25.8" font-family="Times New Roman,serif" font-size="14.00">values</text>
<polygon fill="none" stroke="black" points="3498.5,-19 3498.5,-40 6971.5,-40 6971.5,-19 3498.5,-19"/>
<text text-anchor="start" x="3501.5" y="-25.8" font-family="Times New Roman,serif" font-size="14.00">Union[Annotated[float, FieldInfo(annotation=NoneType, required=True, metadata=[PydanticGeneralMetadata(allow_inf_nan=False)])], Annotated[list[tuple[list[Union[Annotated[float, FieldInfo(annotation=NoneType, required=True, metadata=[PydanticGeneralMetadata(allow_inf_nan=False)])], int, Annotated[str, FieldInfo(annotation=NoneType, required=True, metadata=[MinLen(min_length=1)])]]], Annotated[float, FieldInfo(annotation=NoneType, required=True, metadata=[PydanticGeneralMetadata(allow_inf_nan=False)])]]], FieldInfo(annotation=NoneType, required=True, metadata=[MinLen(min_length=1)])]]</text>
</a>
</g>
</g>
<!-- eya_def_tools.data_models.dataset.Dataset&#45;&gt;eya_def_tools.data_models.dataset.DatasetStatistic -->
<g id="edge1" class="edge">
<title>eya_def_tools.data_models.dataset.Dataset:e&#45;&gt;eya_def_tools.data_models.dataset.DatasetStatistic:w</title>
<path fill="none" stroke="black" d="M3310,-114C3351.06,-114 3365.78,-114 3399.23,-114"/>
<polygon fill="black" stroke="black" points="3408,-114 3418,-118.5 3413,-114 3418,-114 3418,-114 3418,-114 3413,-114 3418,-109.5 3408,-114 3408,-114"/>
<ellipse fill="none" stroke="black" cx="3403.5" cy="-114" rx="4" ry="4"/>
</g>
<!-- eya_def_tools.data_models.dataset.ExceedanceLevelStatisticType -->
<g id="node3" class="node">
<title>eya_def_tools.data_models.dataset.ExceedanceLevelStatisticType</title>
<g id="a_node3"><a xlink:title="eya_def_tools.data_models.dataset.ExceedanceLevelStatisticType&#10;&#10;Probability of exceedance level statistic type.&#10;&#10;Attributes:&#10; &#160;&#160;&#160;exceedance_level (float): The dimensionless probability of exceedance level (i.e. probability value between 0.0 and 1.0) of the statistic.&#10;">
<polygon fill="none" stroke="black" points="7079.5,-39 7079.5,-60 7272.5,-60 7272.5,-39 7079.5,-39"/>
<text text-anchor="start" x="7082.5" y="-46.8" font-family="Times New Roman,serif" font-weight="bold" font-size="14.00">ExceedanceLevelStatisticType</text>
<polygon fill="none" stroke="black" points="7079.5,-18 7079.5,-39 7211.5,-39 7211.5,-18 7079.5,-18"/>
<text text-anchor="start" x="7097" y="-24.8" font-family="Times New Roman,serif" font-size="14.00">exceedance_level</text>
<polygon fill="none" stroke="black" points="7211.5,-18 7211.5,-39 7272.5,-39 7272.5,-18 7211.5,-18"/>
<text text-anchor="start" x="7229.5" y="-24.8" font-family="Times New Roman,serif" font-size="14.00">float</text>
</a>
</g>
</g>
<!-- eya_def_tools.data_models.dataset.DatasetStatistic&#45;&gt;eya_def_tools.data_models.dataset.ExceedanceLevelStatisticType -->
<g id="edge2" class="edge">
<title>eya_def_tools.data_models.dataset.DatasetStatistic:e&#45;&gt;eya_def_tools.data_models.dataset.ExceedanceLevelStatisticType:w</title>
<path fill="none" stroke="black" d="M6971,-50C7013.75,-50 7027.94,-50 7064.45,-50"/>
<polyline fill="none" stroke="black" points="7079,-50 7074,-50"/>
<polygon fill="black" stroke="black" points="7073,-45 7073,-55 7071,-55 7071,-45 7073,-45"/>
<polyline fill="none" stroke="black" points="7074,-50 7069,-50"/>
<polygon fill="black" stroke="black" points="7068,-45 7068,-55 7066,-55 7066,-45 7068,-45"/>
<polyline fill="none" stroke="black" points="7069,-50 7064,-50"/>
</g>
<!-- eya_def_tools.data_models.general.Organisation -->
<g id="node4" class="node">
<title>eya_def_tools.data_models.general.Organisation</title>
<g id="a_node4"><a xlink:title="eya_def_tools.data_models.general.Organisation&#10;&#10;Basic metadata to describe an organisation.&#10;&#10;This model is for example used for issuing and receiving&#10;organisations of an energy yield assessment.&#10;&#10;Attributes:&#10; &#160;&#160;&#160;name (str): Entity name of the organisation.&#10; &#160;&#160;&#160;abbreviation (Optional[Annotated[str, FieldInfo(annotation=NoneType, required=True, metadata=[MinLen(min_length=1)])]]): Abbreviated name of the organisation. Default is None.&#10; &#160;&#160;&#160;address (Optional[Annotated[str, FieldInfo(annotation=NoneType, required=True, metadata=[MinLen(min_length=1)])]]): Address of the organisation. Default is None.&#10; &#160;&#160;&#160;contact_name (Optional[Annotated[str, FieldInfo(annotation=NoneType, required=True, metadata=[MinLen(min_length=1)])]]): Name(s) of contact person(s) in the organisation. Default is None.&#10;">
<polygon fill="none" stroke="black" points="1731,-498 1731,-519 2443,-519 2443,-498 1731,-498"/>
<text text-anchor="start" x="2046.5" y="-505.8" font-family="Times New Roman,serif" font-weight="bold" font-size="14.00">Organisation</text>
<polygon fill="none" stroke="black" points="1731,-477 1731,-498 1816,-498 1816,-477 1731,-477"/>
<text text-anchor="start" x="1758.5" y="-483.8" font-family="Times New Roman,serif" font-size="14.00">name</text>
<polygon fill="none" stroke="black" points="1816,-477 1816,-498 2443,-498 2443,-477 1816,-477"/>
<text text-anchor="start" x="2122" y="-483.8" font-family="Times New Roman,serif" font-size="14.00">str</text>
<polygon fill="none" stroke="black" points="1731,-456 1731,-477 1816,-477 1816,-456 1731,-456"/>
<text text-anchor="start" x="1739" y="-462.8" font-family="Times New Roman,serif" font-size="14.00">abbreviation</text>
<polygon fill="none" stroke="black" points="1816,-456 1816,-477 2443,-477 2443,-456 1816,-456"/>
<text text-anchor="start" x="1819" y="-462.8" font-family="Times New Roman,serif" font-size="14.00">Optional[Annotated[str, FieldInfo(annotation=NoneType, required=True, metadata=[MinLen(min_length=1)])]]</text>
<polygon fill="none" stroke="black" points="1731,-435 1731,-456 1816,-456 1816,-435 1731,-435"/>
<text text-anchor="start" x="1751.5" y="-441.8" font-family="Times New Roman,serif" font-size="14.00">address</text>
<polygon fill="none" stroke="black" points="1816,-435 1816,-456 2443,-456 2443,-435 1816,-435"/>
<text text-anchor="start" x="1819" y="-441.8" font-family="Times New Roman,serif" font-size="14.00">Optional[Annotated[str, FieldInfo(annotation=NoneType, required=True, metadata=[MinLen(min_length=1)])]]</text>
<polygon fill="none" stroke="black" points="1731,-414 1731,-435 1816,-435 1816,-414 1731,-414"/>
<text text-anchor="start" x="1734" y="-420.8" font-family="Times New Roman,serif" font-size="14.00">contact_name</text>
<polygon fill="none" stroke="black" points="1816,-414 1816,-435 2443,-435 2443,-414 1816,-414"/>
<text text-anchor="start" x="1819" y="-420.8" font-family="Times New Roman,serif" font-size="14.00">Optional[Annotated[str, FieldInfo(annotation=NoneType, required=True, metadata=[MinLen(min_length=1)])]]</text>
</a>
</g>
</g>
<!-- eya_def_tools.data_models.general.TimeResolution -->
<g id="node5" class="node">
<title>eya_def_tools.data_models.general.TimeResolution</title>
<g id="a_node5"><a xlink:title="eya_def_tools.data_models.general.TimeResolution&#10;&#10;Resolution of time series data.&#10;">
<polygon fill="none" stroke="black" points="1975,-174 1975,-195 2200,-195 2200,-174 1975,-174"/>
<text text-anchor="start" x="2039" y="-181.8" font-family="Times New Roman,serif" font-weight="bold" font-size="14.00">TimeResolution</text>
<polygon fill="none" stroke="black" points="1975,-153 1975,-174 2010,-174 2010,-153 1975,-153"/>
<text text-anchor="start" x="1978" y="-159.8" font-family="Times New Roman,serif" font-size="14.00">value</text>
<polygon fill="none" stroke="black" points="2010,-153 2010,-174 2200,-174 2200,-153 2010,-153"/>
<text text-anchor="start" x="2092.5" y="-159.8" font-family="Times New Roman,serif" font-size="14.00">float</text>
<polygon fill="none" stroke="black" points="1975,-132 1975,-153 2010,-153 2010,-132 1975,-132"/>
<text text-anchor="start" x="1982" y="-138.8" font-family="Times New Roman,serif" font-size="14.00">unit</text>
<polygon fill="none" stroke="black" points="2010,-132 2010,-153 2200,-153 2200,-132 2010,-132"/>
<text text-anchor="start" x="2013" y="-138.8" font-family="Times New Roman,serif" font-size="14.00">TimeMeasurementUnit(StrEnum)</text>
</a>
</g>
</g>
<!-- eya_def_tools.data_models.reference_wind_farm.ReferenceWindFarm -->
<g id="node6" class="node">
<title>eya_def_tools.data_models.reference_wind_farm.ReferenceWindFarm</title>
<g id="a_node6"><a xlink:title="eya_def_tools.data_models.reference_wind_farm.ReferenceWindFarm&#10;&#10;Reference wind farm.&#10;&#10;Attributes:&#10; &#160;&#160;&#160;id (str): Unique ID for the reference wind farm within the EYA DEF document.&#10; &#160;&#160;&#160;description (Optional[Annotated[str, FieldInfo(annotation=NoneType, required=True, metadata=[MinLen(min_length=1)])]]): Optional description of the reference wind farm, which should not be empty if the field is included. Default is None.&#10; &#160;&#160;&#160;comments (Optional[Annotated[str, FieldInfo(annotation=NoneType, required=True, metadata=[MinLen(min_length=1)])]]): Optional comments on the reference wind farm, which should not be empty if the field is included. Default is None.&#10; &#160;&#160;&#160;wind_farm_id (str): The ID of the wind farm in the &#39;wind_farms&#39; section of the top&#45;level of the EYA DEF document, containing the configuration data for the reference wind farm.&#10; &#160;&#160;&#160;datasets (list[ReferenceWindFarmDataset]): List of metadata documents describing the operational datasets from the reference wind farm that were used in the EYA.&#10;">
<polygon fill="none" stroke="black" points="0,-611 0,-632 712,-632 712,-611 0,-611"/>
<text text-anchor="start" x="291" y="-618.8" font-family="Times New Roman,serif" font-weight="bold" font-size="14.00">ReferenceWindFarm</text>
<polygon fill="none" stroke="black" points="0,-590 0,-611 85,-611 85,-590 0,-590"/>
<text text-anchor="start" x="37" y="-596.8" font-family="Times New Roman,serif" font-size="14.00">id</text>
<polygon fill="none" stroke="black" points="85,-590 85,-611 712,-611 712,-590 85,-590"/>
<text text-anchor="start" x="391" y="-596.8" font-family="Times New Roman,serif" font-size="14.00">str</text>
<polygon fill="none" stroke="black" points="0,-569 0,-590 85,-590 85,-569 0,-569"/>
<text text-anchor="start" x="11" y="-575.8" font-family="Times New Roman,serif" font-size="14.00">description</text>
<polygon fill="none" stroke="black" points="85,-569 85,-590 712,-590 712,-569 85,-569"/>
<text text-anchor="start" x="88" y="-575.8" font-family="Times New Roman,serif" font-size="14.00">Optional[Annotated[str, FieldInfo(annotation=NoneType, required=True, metadata=[MinLen(min_length=1)])]]</text>
<polygon fill="none" stroke="black" points="0,-548 0,-569 85,-569 85,-548 0,-548"/>
<text text-anchor="start" x="13.5" y="-554.8" font-family="Times New Roman,serif" font-size="14.00">comments</text>
<polygon fill="none" stroke="black" points="85,-548 85,-569 712,-569 712,-548 85,-548"/>
<text text-anchor="start" x="88" y="-554.8" font-family="Times New Roman,serif" font-size="14.00">Optional[Annotated[str, FieldInfo(annotation=NoneType, required=True, metadata=[MinLen(min_length=1)])]]</text>
<polygon fill="none" stroke="black" points="0,-527 0,-548 85,-548 85,-527 0,-527"/>
<text text-anchor="start" x="3" y="-533.8" font-family="Times New Roman,serif" font-size="14.00">wind_farm_id</text>
<polygon fill="none" stroke="black" points="85,-527 85,-548 712,-548 712,-527 85,-527"/>
<text text-anchor="start" x="391" y="-533.8" font-family="Times New Roman,serif" font-size="14.00">str</text>
<polygon fill="none" stroke="black" points="0,-506 0,-527 85,-527 85,-506 0,-506"/>
<text text-anchor="start" x="19.5" y="-512.8" font-family="Times New Roman,serif" font-size="14.00">datasets</text>
<polygon fill="none" stroke="black" points="85,-506 85,-527 712,-527 712,-506 85,-506"/>
<text text-anchor="start" x="307" y="-512.8" font-family="Times New Roman,serif" font-size="14.00">list[ReferenceWindFarmDataset]</text>
</a>
</g>
</g>
<!-- eya_def_tools.data_models.reference_wind_farm.ReferenceWindFarmDataset -->
<g id="node7" class="node">
<title>eya_def_tools.data_models.reference_wind_farm.ReferenceWindFarmDataset</title>
<g id="a_node7"><a xlink:title="eya_def_tools.data_models.reference_wind_farm.ReferenceWindFarmDataset&#10;&#10;Reference wind farm operational dataset.&#10;&#10;Attributes:&#10; &#160;&#160;&#160;label (Optional[Annotated[str, FieldInfo(annotation=NoneType, required=True, metadata=[MinLen(min_length=1)])]]): Optional label of the reference wind farm dataset, which should not be empty if the field is included.&#10; &#160;&#160;&#160;description (Optional[Annotated[str, FieldInfo(annotation=NoneType, required=True, metadata=[MinLen(min_length=1)])]]): Optional description of the dataset, which should not be empty if the field is included. Default is None.&#10; &#160;&#160;&#160;comments (Optional[Annotated[str, FieldInfo(annotation=NoneType, required=True, metadata=[MinLen(min_length=1)])]]): Optional comments on the dataset, which should not be empty if the field is included. Default is None.&#10; &#160;&#160;&#160;data_supplier_organisation (Organisation): The organisation that supplied the data.&#10; &#160;&#160;&#160;data_type (OperationalDataType(StrEnum)): The type of data in the operational data, categorised as &#39;scada&#39; for data from a Supervisory Control and Data Acquisition (SCADA) system, &#39;metered&#39; for data from a production meter, &#39;environmental_measurement&#39; for data from an (on&#45;site) environmental measurement station such as a meteorological mast or a remote sensing device (RSD) and &#39;other&#39; for any other type of unit.&#10; &#160;&#160;&#160;data_source_type (OperationalDataSourceType(StrEnum)): The type of the operational data source. Primary data, such as primary SCADA data, comes directly from the source without processing. Report data refers to data extracted from report document, such as monthly operational reports. Other secondary data comprises all other data source categories, such as secondary SCADA data provided in processed (harmonised) form by a data management service provider.&#10; &#160;&#160;&#160;used_data_variables (list[ReferenceWindFarmDataVariable]): A list of the types of data variables included in this dataset and used in the assessment. For a large dataset (such as a full wind turbine SCADA dataset) this field should not include all the variables but only the ones that were used in the analysis.&#10; &#160;&#160;&#160;time_resolution (TimeResolution): Time resolution of the operational data.&#10; &#160;&#160;&#160;data_period_start_date (date): Start of the data period in the ISO 8601 standard format for a calendar date, i.e. YYYY&#45;MM&#45;DD.&#10; &#160;&#160;&#160;data_period_end_date (date): End of the data period in the ISO 8601 standard format for a calendar date, i.e. YYYY&#45;MM&#45;DD.&#10;">
<polygon fill="none" stroke="black" points="820,-505 820,-526 1604,-526 1604,-505 820,-505"/>
<text text-anchor="start" x="1123.5" y="-512.8" font-family="Times New Roman,serif" font-weight="bold" font-size="14.00">ReferenceWindFarmDataset</text>
<polygon fill="none" stroke="black" points="820,-484 820,-505 977,-505 977,-484 820,-484"/>
<text text-anchor="start" x="885.5" y="-490.8" font-family="Times New Roman,serif" font-size="14.00">label</text>
<polygon fill="none" stroke="black" points="977,-484 977,-505 1604,-505 1604,-484 977,-484"/>
<text text-anchor="start" x="980" y="-490.8" font-family="Times New Roman,serif" font-size="14.00">Optional[Annotated[str, FieldInfo(annotation=NoneType, required=True, metadata=[MinLen(min_length=1)])]]</text>
<polygon fill="none" stroke="black" points="820,-463 820,-484 977,-484 977,-463 820,-463"/>
<text text-anchor="start" x="867" y="-469.8" font-family="Times New Roman,serif" font-size="14.00">description</text>
<polygon fill="none" stroke="black" points="977,-463 977,-484 1604,-484 1604,-463 977,-463"/>
<text text-anchor="start" x="980" y="-469.8" font-family="Times New Roman,serif" font-size="14.00">Optional[Annotated[str, FieldInfo(annotation=NoneType, required=True, metadata=[MinLen(min_length=1)])]]</text>
<polygon fill="none" stroke="black" points="820,-442 820,-463 977,-463 977,-442 820,-442"/>
<text text-anchor="start" x="869.5" y="-448.8" font-family="Times New Roman,serif" font-size="14.00">comments</text>
<polygon fill="none" stroke="black" points="977,-442 977,-463 1604,-463 1604,-442 977,-442"/>
<text text-anchor="start" x="980" y="-448.8" font-family="Times New Roman,serif" font-size="14.00">Optional[Annotated[str, FieldInfo(annotation=NoneType, required=True, metadata=[MinLen(min_length=1)])]]</text>
<polygon fill="none" stroke="black" points="820,-421 820,-442 977,-442 977,-421 820,-421"/>
<text text-anchor="start" x="823" y="-427.8" font-family="Times New Roman,serif" font-size="14.00">data_supplier_organisation</text>
<polygon fill="none" stroke="black" points="977,-421 977,-442 1604,-442 1604,-421 977,-421"/>
<text text-anchor="start" x="1255" y="-427.8" font-family="Times New Roman,serif" font-size="14.00">Organisation</text>
<polygon fill="none" stroke="black" points="820,-400 820,-421 977,-421 977,-400 820,-400"/>
<text text-anchor="start" x="871" y="-406.8" font-family="Times New Roman,serif" font-size="14.00">data_type</text>
<polygon fill="none" stroke="black" points="977,-400 977,-421 1604,-421 1604,-400 977,-400"/>
<text text-anchor="start" x="1201.5" y="-406.8" font-family="Times New Roman,serif" font-size="14.00">OperationalDataType(StrEnum)</text>
<polygon fill="none" stroke="black" points="820,-379 820,-400 977,-400 977,-379 820,-379"/>
<text text-anchor="start" x="848.5" y="-385.8" font-family="Times New Roman,serif" font-size="14.00">data_source_type</text>
<polygon fill="none" stroke="black" points="977,-379 977,-400 1604,-400 1604,-379 977,-379"/>
<text text-anchor="start" x="1182" y="-385.8" font-family="Times New Roman,serif" font-size="14.00">OperationalDataSourceType(StrEnum)</text>
<polygon fill="none" stroke="black" points="820,-358 820,-379 977,-379 977,-358 820,-358"/>
<text text-anchor="start" x="841.5" y="-364.8" font-family="Times New Roman,serif" font-size="14.00">used_data_variables</text>
<polygon fill="none" stroke="black" points="977,-358 977,-379 1604,-379 1604,-358 977,-358"/>
<text text-anchor="start" x="1184" y="-364.8" font-family="Times New Roman,serif" font-size="14.00">list[ReferenceWindFarmDataVariable]</text>
<polygon fill="none" stroke="black" points="820,-337 820,-358 977,-358 977,-337 820,-337"/>
<text text-anchor="start" x="855.5" y="-343.8" font-family="Times New Roman,serif" font-size="14.00">time_resolution</text>
<polygon fill="none" stroke="black" points="977,-337 977,-358 1604,-358 1604,-337 977,-337"/>
<text text-anchor="start" x="1246" y="-343.8" font-family="Times New Roman,serif" font-size="14.00">TimeResolution</text>
<polygon fill="none" stroke="black" points="820,-316 820,-337 977,-337 977,-316 820,-316"/>
<text text-anchor="start" x="833.5" y="-322.8" font-family="Times New Roman,serif" font-size="14.00">data_period_start_date</text>
<polygon fill="none" stroke="black" points="977,-316 977,-337 1604,-337 1604,-316 977,-316"/>
<text text-anchor="start" x="1278.5" y="-322.8" font-family="Times New Roman,serif" font-size="14.00">date</text>
<polygon fill="none" stroke="black" points="820,-295 820,-316 977,-316 977,-295 820,-295"/>
<text text-anchor="start" x="835.5" y="-301.8" font-family="Times New Roman,serif" font-size="14.00">data_period_end_date</text>
<polygon fill="none" stroke="black" points="977,-295 977,-316 1604,-316 1604,-295 977,-295"/>
<text text-anchor="start" x="1278.5" y="-301.8" font-family="Times New Roman,serif" font-size="14.00">date</text>
</a>
</g>
</g>
<!-- eya_def_tools.data_models.reference_wind_farm.ReferenceWindFarm&#45;&gt;eya_def_tools.data_models.reference_wind_farm.ReferenceWindFarmDataset -->
<g id="edge3" class="edge">
<title>eya_def_tools.data_models.reference_wind_farm.ReferenceWindFarm:e&#45;&gt;eya_def_tools.data_models.reference_wind_farm.ReferenceWindFarmDataset:w</title>
<path fill="none" stroke="black" d="M712,-516C753.06,-516 767.78,-516 801.23,-516"/>
<polygon fill="black" stroke="black" points="810,-516 820,-520.5 815,-516 820,-516 820,-516 820,-516 815,-516 820,-511.5 810,-516 810,-516"/>
<ellipse fill="none" stroke="black" cx="805.5" cy="-516" rx="4" ry="4"/>
</g>
<!-- eya_def_tools.data_models.reference_wind_farm.ReferenceWindFarmDataset&#45;&gt;eya_def_tools.data_models.general.Organisation -->
<g id="edge5" class="edge">
<title>eya_def_tools.data_models.reference_wind_farm.ReferenceWindFarmDataset:e&#45;&gt;eya_def_tools.data_models.general.Organisation:w</title>
<path fill="none" stroke="black" d="M1604,-432C1664.25,-432 1664.76,-496.89 1715.2,-507.53"/>
<polyline fill="none" stroke="black" points="1730,-509 1725.02,-508.51"/>
<polygon fill="black" stroke="black" points="1724.52,-503.43 1723.54,-513.38 1721.55,-513.18 1722.53,-503.23 1724.52,-503.43"/>
<polyline fill="none" stroke="black" points="1725.02,-508.51 1720.05,-508.01"/>
<polygon fill="black" stroke="black" points="1719.55,-502.94 1718.56,-512.89 1716.57,-512.69 1717.56,-502.74 1719.55,-502.94"/>
<polyline fill="none" stroke="black" points="1720.05,-508.01 1715.07,-507.52"/>
</g>
<!-- eya_def_tools.data_models.reference_wind_farm.ReferenceWindFarmDataset&#45;&gt;eya_def_tools.data_models.general.TimeResolution -->
<g id="edge6" class="edge">
<title>eya_def_tools.data_models.reference_wind_farm.ReferenceWindFarmDataset:e&#45;&gt;eya_def_tools.data_models.general.TimeResolution:w</title>
<path fill="none" stroke="black" d="M1604,-347C1680.15,-347 1645.16,-250.47 1712,-214 1810.42,-160.3 1853.12,-182.82 1959.3,-184.86"/>
<polyline fill="none" stroke="black" points="1974,-185 1969,-184.95"/>
<polygon fill="black" stroke="black" points="1968.05,-179.94 1967.95,-189.94 1965.95,-189.92 1966.05,-179.92 1968.05,-179.94"/>
<polyline fill="none" stroke="black" points="1969,-184.95 1964,-184.9"/>
<polygon fill="black" stroke="black" points="1963.05,-179.89 1962.95,-189.89 1960.95,-189.87 1961.05,-179.88 1963.05,-179.89"/>
<polyline fill="none" stroke="black" points="1964,-184.9 1959,-184.86"/>
</g>
<!-- eya_def_tools.data_models.reference_wind_farm.ReferenceWindFarmDataVariable -->
<g id="node8" class="node">
<title>eya_def_tools.data_models.reference_wind_farm.ReferenceWindFarmDataVariable</title>
<g id="a_node8"><a xlink:title="eya_def_tools.data_models.reference_wind_farm.ReferenceWindFarmDataVariable&#10;&#10;Reference wind farm operational data variable.&#10;&#10;Attributes:&#10; &#160;&#160;&#160;label (str): Label of the data variable. This is currently free text but should be replaced by a list of enum options.&#10; &#160;&#160;&#160;description (Optional[Annotated[str, FieldInfo(annotation=NoneType, required=True, metadata=[MinLen(min_length=1)])]]): Optional description of the data variable, which should not be empty if the field is included. This may include clarification of the point of measurement, where relevant. Default is None.&#10; &#160;&#160;&#160;comments (Optional[Annotated[str, FieldInfo(annotation=NoneType, required=True, metadata=[MinLen(min_length=1)])]]): Optional comments on the data variable, which should not be empty if the field is included. Default is None.&#10; &#160;&#160;&#160;data_level (OperationalDataLevel(StrEnum)): Whether the operational data variable is provided for each individual wind turbine (&#39;turbine_level&#39;), is aggregated at the wind farm level (&#39;wind_farm_level&#39;) or corresponds to a different (&#39;other&#39;) unit such as an environmental measurement station.&#10; &#160;&#160;&#160;statistic_types (Optional[list[BasicStatisticType(StrEnum)]]): Optional list of the types of statistics included for the data variable.&#10; &#160;&#160;&#160;raw_data_availability (Optional[list[Dataset]]): Dimensionless raw data availability (also known as data recovery rate) for the variable. More than one dataset may be included if reporting data availability at different time resolutions or at both wind farm and turbine level. Default is None.&#10;">
<polygon fill="none" stroke="black" points="1712,-357 1712,-378 2462,-378 2462,-357 1712,-357"/>
<text text-anchor="start" x="1981" y="-364.8" font-family="Times New Roman,serif" font-weight="bold" font-size="14.00">ReferenceWindFarmDataVariable</text>
<polygon fill="none" stroke="black" points="1712,-336 1712,-357 1835,-357 1835,-336 1712,-336"/>
<text text-anchor="start" x="1760.5" y="-342.8" font-family="Times New Roman,serif" font-size="14.00">label</text>
<polygon fill="none" stroke="black" points="1835,-336 1835,-357 2462,-357 2462,-336 1835,-336"/>
<text text-anchor="start" x="2141" y="-342.8" font-family="Times New Roman,serif" font-size="14.00">str</text>
<polygon fill="none" stroke="black" points="1712,-315 1712,-336 1835,-336 1835,-315 1712,-315"/>
<text text-anchor="start" x="1742" y="-321.8" font-family="Times New Roman,serif" font-size="14.00">description</text>
<polygon fill="none" stroke="black" points="1835,-315 1835,-336 2462,-336 2462,-315 1835,-315"/>
<text text-anchor="start" x="1838" y="-321.8" font-family="Times New Roman,serif" font-size="14.00">Optional[Annotated[str, FieldInfo(annotation=NoneType, required=True, metadata=[MinLen(min_length=1)])]]</text>
<polygon fill="none" stroke="black" points="1712,-294 1712,-315 1835,-315 1835,-294 1712,-294"/>
<text text-anchor="start" x="1744.5" y="-300.8" font-family="Times New Roman,serif" font-size="14.00">comments</text>
<polygon fill="none" stroke="black" points="1835,-294 1835,-315 2462,-315 2462,-294 1835,-294"/>
<text text-anchor="start" x="1838" y="-300.8" font-family="Times New Roman,serif" font-size="14.00">Optional[Annotated[str, FieldInfo(annotation=NoneType, required=True, metadata=[MinLen(min_length=1)])]]</text>
<polygon fill="none" stroke="black" points="1712,-273 1712,-294 1835,-294 1835,-273 1712,-273"/>
<text text-anchor="start" x="1745.5" y="-279.8" font-family="Times New Roman,serif" font-size="14.00">data_level</text>
<polygon fill="none" stroke="black" points="1835,-273 1835,-294 2462,-294 2462,-273 1835,-273"/>
<text text-anchor="start" x="2059.5" y="-279.8" font-family="Times New Roman,serif" font-size="14.00">OperationalDataLevel(StrEnum)</text>
<polygon fill="none" stroke="black" points="1712,-252 1712,-273 1835,-273 1835,-252 1712,-252"/>
<text text-anchor="start" x="1733.5" y="-258.8" font-family="Times New Roman,serif" font-size="14.00">statistic_types</text>
<polygon fill="none" stroke="black" points="1835,-252 1835,-273 2462,-273 2462,-252 1835,-252"/>
<text text-anchor="start" x="2026.5" y="-258.8" font-family="Times New Roman,serif" font-size="14.00">Optional[list[BasicStatisticType(StrEnum)]]</text>
<polygon fill="none" stroke="black" points="1712,-231 1712,-252 1835,-252 1835,-231 1712,-231"/>
<text text-anchor="start" x="1715" y="-237.8" font-family="Times New Roman,serif" font-size="14.00">raw_data_availability</text>
<polygon fill="none" stroke="black" points="1835,-231 1835,-252 2462,-252 2462,-231 1835,-231"/>
<text text-anchor="start" x="2086.5" y="-237.8" font-family="Times New Roman,serif" font-size="14.00">Optional[list[Dataset]]</text>
</a>
</g>
</g>
<!-- eya_def_tools.data_models.reference_wind_farm.ReferenceWindFarmDataset&#45;&gt;eya_def_tools.data_models.reference_wind_farm.ReferenceWindFarmDataVariable -->
<g id="edge7" class="edge">
<title>eya_def_tools.data_models.reference_wind_farm.ReferenceWindFarmDataset:e&#45;&gt;eya_def_tools.data_models.reference_wind_farm.ReferenceWindFarmDataVariable:w</title>
<path fill="none" stroke="black" d="M1604,-368C1645.06,-368 1659.78,-368 1693.23,-368"/>
<polygon fill="black" stroke="black" points="1702,-368 1712,-372.5 1707,-368 1712,-368 1712,-368 1712,-368 1707,-368 1712,-363.5 1702,-368 1702,-368"/>
<ellipse fill="none" stroke="black" cx="1697.5" cy="-368" rx="4" ry="4"/>
</g>
<!-- eya_def_tools.data_models.reference_wind_farm.ReferenceWindFarmDataVariable&#45;&gt;eya_def_tools.data_models.dataset.Dataset -->
<g id="edge4" class="edge">
<title>eya_def_tools.data_models.reference_wind_farm.ReferenceWindFarmDataVariable:e&#45;&gt;eya_def_tools.data_models.dataset.Dataset:w</title>
<path fill="none" stroke="black" d="M2462,-241C2503.06,-241 2517.78,-241 2551.23,-241"/>
<polyline fill="none" stroke="black" points="2570,-241 2565,-241"/>
<polygon fill="black" stroke="black" points="2564,-236 2564,-246 2562,-246 2562,-236 2564,-236"/>
<polyline fill="none" stroke="black" points="2565,-241 2560,-241"/>
<ellipse fill="none" stroke="black" cx="2555.5" cy="-241" rx="4" ry="4"/>
</g>
</g>
</svg>
