<?xml version="1.0" encoding="UTF-8" standalone="no"?>
<!DOCTYPE svg PUBLIC "-//W3C//DTD SVG 1.1//EN"
 "http://www.w3.org/Graphics/SVG/1.1/DTD/svg11.dtd">
<!-- Generated by graphviz version 7.0.4 (20221203.1631)
 -->
<!-- Title: Entity Relationship Diagram Pages: 1 -->
<svg width="2626pt" height="640pt"
 viewBox="0.00 0.00 2626.00 640.00" xmlns="http://www.w3.org/2000/svg" xmlns:xlink="http://www.w3.org/1999/xlink">
<g id="graph0" class="graph" transform="scale(1 1) rotate(0) translate(4 636)">
<title>Entity Relationship Diagram</title>
<polygon fill="white" stroke="none" points="-4,4 -4,-636 2622,-636 2622,4 -4,4"/>
<text text-anchor="middle" x="1309" y="-6.8" font-family="Times New Roman,serif" font-size="9.00" fill="#a8a8a8">Created by erdantic v0.6.0 &lt;https://github.com/drivendataorg/erdantic&gt;</text>
<!-- eya_def_tools.data_models.dataset.Dataset -->
<g id="node1" class="node">
<title>eya_def_tools.data_models.dataset.Dataset</title>
<g id="a_node1"><a xlink:title="eya_def_tools.data_models.dataset.Dataset&#10;&#10;Collection of labelled data for one specific quantity.&#10;&#10;The data is labelled by specifying dimensions and including&#10;coordinates along the dimensions for each data value.&#10;&#10;Attributes:&#10; &#160;&#160;&#160;label (Optional[str]): Optional label of the dataset, which should not be empty if the field is included. Default is None.&#10; &#160;&#160;&#160;description (Optional[str]): Optional description of the dataset, which should not be empty if the field is included. Default is None.&#10; &#160;&#160;&#160;comments (Optional[str]): Optional comments on the dataset, which should not be empty if the field is included. Default is None.&#10; &#160;&#160;&#160;assessment_period (Optional[AssessmentPeriod(StrEnum)]): Optional period of or in time that has been assessed and for which the dataset is applicable. This field is to be included only when relevant. Default is None.&#10; &#160;&#160;&#160;dimensions (Optional[list[DatasetDimension(StrEnum)]]): Dimensions along which the dataset is binned. All statistics within the same dataset object must have the same dimensions. The dimensions must correspond to and be listed in the same order as the coordinates for the values of all statistics. A dataset without dimensions can only have a single value for each statistic. Default is None.&#10; &#160;&#160;&#160;statistics (list[DatasetStatistic]): List of dataset statistic objects that each include data values for a specific statistic type. For example, there may be two statistics, one for mean values and one for standard deviation values.&#10;">
<polygon fill="none" stroke="black" points="1351,-230 1351,-251 1711,-251 1711,-230 1351,-230"/>
<text text-anchor="start" x="1507" y="-237.8" font-family="Times New Roman,serif" font-weight="bold" font-size="14.00">Dataset</text>
<polygon fill="none" stroke="black" points="1351,-209 1351,-230 1464,-230 1464,-209 1351,-209"/>
<text text-anchor="start" x="1394.5" y="-215.8" font-family="Times New Roman,serif" font-size="14.00">label</text>
<polygon fill="none" stroke="black" points="1464,-209 1464,-230 1711,-230 1711,-209 1464,-209"/>
<text text-anchor="start" x="1551.5" y="-215.8" font-family="Times New Roman,serif" font-size="14.00">Optional[str]</text>
<polygon fill="none" stroke="black" points="1351,-188 1351,-209 1464,-209 1464,-188 1351,-188"/>
<text text-anchor="start" x="1376" y="-194.8" font-family="Times New Roman,serif" font-size="14.00">description</text>
<polygon fill="none" stroke="black" points="1464,-188 1464,-209 1711,-209 1711,-188 1464,-188"/>
<text text-anchor="start" x="1551.5" y="-194.8" font-family="Times New Roman,serif" font-size="14.00">Optional[str]</text>
<polygon fill="none" stroke="black" points="1351,-167 1351,-188 1464,-188 1464,-167 1351,-167"/>
<text text-anchor="start" x="1378.5" y="-173.8" font-family="Times New Roman,serif" font-size="14.00">comments</text>
<polygon fill="none" stroke="black" points="1464,-167 1464,-188 1711,-188 1711,-167 1464,-167"/>
<text text-anchor="start" x="1551.5" y="-173.8" font-family="Times New Roman,serif" font-size="14.00">Optional[str]</text>
<polygon fill="none" stroke="black" points="1351,-146 1351,-167 1464,-167 1464,-146 1351,-146"/>
<text text-anchor="start" x="1354" y="-152.8" font-family="Times New Roman,serif" font-size="14.00">assessment_period</text>
<polygon fill="none" stroke="black" points="1464,-146 1464,-167 1711,-167 1711,-146 1464,-146"/>
<text text-anchor="start" x="1478" y="-152.8" font-family="Times New Roman,serif" font-size="14.00">Optional[AssessmentPeriod(StrEnum)]</text>
<polygon fill="none" stroke="black" points="1351,-125 1351,-146 1464,-146 1464,-125 1351,-125"/>
<text text-anchor="start" x="1375.5" y="-131.8" font-family="Times New Roman,serif" font-size="14.00">dimensions</text>
<polygon fill="none" stroke="black" points="1464,-125 1464,-146 1711,-146 1711,-125 1464,-125"/>
<text text-anchor="start" x="1467" y="-131.8" font-family="Times New Roman,serif" font-size="14.00">Optional[list[DatasetDimension(StrEnum)]]</text>
<polygon fill="none" stroke="black" points="1351,-104 1351,-125 1464,-125 1464,-104 1351,-104"/>
<text text-anchor="start" x="1383" y="-110.8" font-family="Times New Roman,serif" font-size="14.00">statistics</text>
<polygon fill="none" stroke="black" points="1464,-104 1464,-125 1711,-125 1711,-104 1464,-104"/>
<text text-anchor="start" x="1532" y="-110.8" font-family="Times New Roman,serif" font-size="14.00">list[DatasetStatistic]</text>
</a>
</g>
</g>
<!-- eya_def_tools.data_models.dataset.DatasetStatistic -->
<g id="node2" class="node">
<title>eya_def_tools.data_models.dataset.DatasetStatistic</title>
<g id="a_node2"><a xlink:title="eya_def_tools.data_models.dataset.DatasetStatistic&#10;&#10;Dataset values for one specific statistic type.&#10;&#10;Attributes:&#10; &#160;&#160;&#160;description (Optional[str]): Optional description of the dataset statistic, which should not be empty if the field is included. Default is None.&#10; &#160;&#160;&#160;comments (Optional[str]): Optional comments on the dataset statistic, which should not be empty if the field is included. Default is None.&#10; &#160;&#160;&#160;statistic_type (UnionType[BasicStatisticType(StrEnum), ExceedanceLevelStatisticType]): Type of statistic that the component of the dataset contains. All values must correspond to this statistic.&#10; &#160;&#160;&#160;values (Union[float, list[tuple[list[Union[int, float, str]], float]]]): Dataset value(s) as a single number or one or more values at coordinates. If more than one value is included the values must be represented together with coordinates. A single value can be included either with or without coordinates. The coordinates must correspond to and be listed the same order as the dimensions specified for the dataset.&#10;">
<polygon fill="none" stroke="black" points="1819,-103 1819,-124 2317,-124 2317,-103 1819,-103"/>
<text text-anchor="start" x="2019.5" y="-110.8" font-family="Times New Roman,serif" font-weight="bold" font-size="14.00">DatasetStatistic</text>
<polygon fill="none" stroke="black" points="1819,-82 1819,-103 1899,-103 1899,-82 1819,-82"/>
<text text-anchor="start" x="1827.5" y="-88.8" font-family="Times New Roman,serif" font-size="14.00">description</text>
<polygon fill="none" stroke="black" points="1899,-82 1899,-103 2317,-103 2317,-82 1899,-82"/>
<text text-anchor="start" x="2072" y="-88.8" font-family="Times New Roman,serif" font-size="14.00">Optional[str]</text>
<polygon fill="none" stroke="black" points="1819,-61 1819,-82 1899,-82 1899,-61 1819,-61"/>
<text text-anchor="start" x="1830" y="-67.8" font-family="Times New Roman,serif" font-size="14.00">comments</text>
<polygon fill="none" stroke="black" points="1899,-61 1899,-82 2317,-82 2317,-61 1899,-61"/>
<text text-anchor="start" x="2072" y="-67.8" font-family="Times New Roman,serif" font-size="14.00">Optional[str]</text>
<polygon fill="none" stroke="black" points="1819,-40 1819,-61 1899,-61 1899,-40 1819,-40"/>
<text text-anchor="start" x="1822" y="-46.8" font-family="Times New Roman,serif" font-size="14.00">statistic_type</text>
<polygon fill="none" stroke="black" points="1899,-40 1899,-61 2317,-61 2317,-40 1899,-40"/>
<text text-anchor="start" x="1902" y="-46.8" font-family="Times New Roman,serif" font-size="14.00">UnionType[BasicStatisticType(StrEnum), ExceedanceLevelStatisticType]</text>
<polygon fill="none" stroke="black" points="1819,-19 1819,-40 1899,-40 1899,-19 1819,-19"/>
<text text-anchor="start" x="1841.5" y="-25.8" font-family="Times New Roman,serif" font-size="14.00">values</text>
<polygon fill="none" stroke="black" points="1899,-19 1899,-40 2317,-40 2317,-19 1899,-19"/>
<text text-anchor="start" x="1956" y="-25.8" font-family="Times New Roman,serif" font-size="14.00">Union[float, list[tuple[list[Union[int, float, str]], float]]]</text>
</a>
</g>
</g>
<!-- eya_def_tools.data_models.dataset.Dataset&#45;&gt;eya_def_tools.data_models.dataset.DatasetStatistic -->
<g id="edge1" class="edge">
<title>eya_def_tools.data_models.dataset.Dataset:e&#45;&gt;eya_def_tools.data_models.dataset.DatasetStatistic:w</title>
<path fill="none" stroke="black" d="M1711,-114C1752.06,-114 1766.78,-114 1800.23,-114"/>
<polygon fill="black" stroke="black" points="1809,-114 1819,-118.5 1814,-114 1819,-114 1819,-114 1819,-114 1814,-114 1819,-109.5 1809,-114 1809,-114"/>
<ellipse fill="none" stroke="black" cx="1804.5" cy="-114" rx="4" ry="4"/>
</g>
<!-- eya_def_tools.data_models.dataset.ExceedanceLevelStatisticType -->
<g id="node3" class="node">
<title>eya_def_tools.data_models.dataset.ExceedanceLevelStatisticType</title>
<g id="a_node3"><a xlink:title="eya_def_tools.data_models.dataset.ExceedanceLevelStatisticType&#10;&#10;Probability of exceedance level statistic type.&#10;&#10;Attributes:&#10; &#160;&#160;&#160;exceedance_level (float): The dimensionless probability of exceedance level (i.e. probability value between 0.0 and 1.0) of the statistic.&#10;">
<polygon fill="none" stroke="black" points="2425.5,-39 2425.5,-60 2618.5,-60 2618.5,-39 2425.5,-39"/>
<text text-anchor="start" x="2428.5" y="-46.8" font-family="Times New Roman,serif" font-weight="bold" font-size="14.00">ExceedanceLevelStatisticType</text>
<polygon fill="none" stroke="black" points="2425.5,-18 2425.5,-39 2557.5,-39 2557.5,-18 2425.5,-18"/>
<text text-anchor="start" x="2443" y="-24.8" font-family="Times New Roman,serif" font-size="14.00">exceedance_level</text>
<polygon fill="none" stroke="black" points="2557.5,-18 2557.5,-39 2618.5,-39 2618.5,-18 2557.5,-18"/>
<text text-anchor="start" x="2575.5" y="-24.8" font-family="Times New Roman,serif" font-size="14.00">float</text>
</a>
</g>
</g>
<!-- eya_def_tools.data_models.dataset.DatasetStatistic&#45;&gt;eya_def_tools.data_models.dataset.ExceedanceLevelStatisticType -->
<g id="edge2" class="edge">
<title>eya_def_tools.data_models.dataset.DatasetStatistic:e&#45;&gt;eya_def_tools.data_models.dataset.ExceedanceLevelStatisticType:w</title>
<path fill="none" stroke="black" d="M2317,-50C2359.75,-50 2373.94,-50 2410.45,-50"/>
<polyline fill="none" stroke="black" points="2425,-50 2420,-50"/>
<polygon fill="black" stroke="black" points="2419,-45 2419,-55 2417,-55 2417,-45 2419,-45"/>
<polyline fill="none" stroke="black" points="2420,-50 2415,-50"/>
<polygon fill="black" stroke="black" points="2414,-45 2414,-55 2412,-55 2412,-45 2414,-45"/>
<polyline fill="none" stroke="black" points="2415,-50 2410,-50"/>
</g>
<!-- eya_def_tools.data_models.general.Organisation -->
<g id="node4" class="node">
<title>eya_def_tools.data_models.general.Organisation</title>
<g id="a_node4"><a xlink:title="eya_def_tools.data_models.general.Organisation&#10;&#10;Basic metadata to describe an organisation.&#10;&#10;This model is for example used for issuing and receiving&#10;organisations of an energy yield assessment.&#10;&#10;Attributes:&#10; &#160;&#160;&#160;name (str): Entity name of the organisation.&#10; &#160;&#160;&#160;abbreviation (Optional[str]): Abbreviated name of the organisation. Default is None.&#10; &#160;&#160;&#160;address (Optional[str]): Address of the organisation. Default is None.&#10; &#160;&#160;&#160;contact_name (Optional[str]): Name(s) of contact person(s) in the organisation. Default is None.&#10;">
<polygon fill="none" stroke="black" points="975.5,-498 975.5,-519 1138.5,-519 1138.5,-498 975.5,-498"/>
<text text-anchor="start" x="1016.5" y="-505.8" font-family="Times New Roman,serif" font-weight="bold" font-size="14.00">Organisation</text>
<polygon fill="none" stroke="black" points="975.5,-477 975.5,-498 1060.5,-498 1060.5,-477 975.5,-477"/>
<text text-anchor="start" x="1003" y="-483.8" font-family="Times New Roman,serif" font-size="14.00">name</text>
<polygon fill="none" stroke="black" points="1060.5,-477 1060.5,-498 1138.5,-498 1138.5,-477 1060.5,-477"/>
<text text-anchor="start" x="1092" y="-483.8" font-family="Times New Roman,serif" font-size="14.00">str</text>
<polygon fill="none" stroke="black" points="975.5,-456 975.5,-477 1060.5,-477 1060.5,-456 975.5,-456"/>
<text text-anchor="start" x="983.5" y="-462.8" font-family="Times New Roman,serif" font-size="14.00">abbreviation</text>
<polygon fill="none" stroke="black" points="1060.5,-456 1060.5,-477 1138.5,-477 1138.5,-456 1060.5,-456"/>
<text text-anchor="start" x="1063.5" y="-462.8" font-family="Times New Roman,serif" font-size="14.00">Optional[str]</text>
<polygon fill="none" stroke="black" points="975.5,-435 975.5,-456 1060.5,-456 1060.5,-435 975.5,-435"/>
<text text-anchor="start" x="996" y="-441.8" font-family="Times New Roman,serif" font-size="14.00">address</text>
<polygon fill="none" stroke="black" points="1060.5,-435 1060.5,-456 1138.5,-456 1138.5,-435 1060.5,-435"/>
<text text-anchor="start" x="1063.5" y="-441.8" font-family="Times New Roman,serif" font-size="14.00">Optional[str]</text>
<polygon fill="none" stroke="black" points="975.5,-414 975.5,-435 1060.5,-435 1060.5,-414 975.5,-414"/>
<text text-anchor="start" x="978.5" y="-420.8" font-family="Times New Roman,serif" font-size="14.00">contact_name</text>
<polygon fill="none" stroke="black" points="1060.5,-414 1060.5,-435 1138.5,-435 1138.5,-414 1060.5,-414"/>
<text text-anchor="start" x="1063.5" y="-420.8" font-family="Times New Roman,serif" font-size="14.00">Optional[str]</text>
</a>
</g>
</g>
<!-- eya_def_tools.data_models.general.TimeResolution -->
<g id="node5" class="node">
<title>eya_def_tools.data_models.general.TimeResolution</title>
<g id="a_node5"><a xlink:title="eya_def_tools.data_models.general.TimeResolution&#10;&#10;Resolution of time series data.&#10;&#10;Attributes:&#10; &#160;&#160;&#160;value (float): The value of the time resolution in the specified unit. For example, for 10&#45;minute resolution, the value is &#39;10.0&#39; and the unit is &#39;minute&#39;&#10; &#160;&#160;&#160;unit (TimeMeasurementUnit(StrEnum)): The measurement unit of time in which the time resolution is specified.&#10;">
<polygon fill="none" stroke="black" points="944.5,-174 944.5,-195 1169.5,-195 1169.5,-174 944.5,-174"/>
<text text-anchor="start" x="1008.5" y="-181.8" font-family="Times New Roman,serif" font-weight="bold" font-size="14.00">TimeResolution</text>
<polygon fill="none" stroke="black" points="944.5,-153 944.5,-174 979.5,-174 979.5,-153 944.5,-153"/>
<text text-anchor="start" x="947.5" y="-159.8" font-family="Times New Roman,serif" font-size="14.00">value</text>
<polygon fill="none" stroke="black" points="979.5,-153 979.5,-174 1169.5,-174 1169.5,-153 979.5,-153"/>
<text text-anchor="start" x="1062" y="-159.8" font-family="Times New Roman,serif" font-size="14.00">float</text>
<polygon fill="none" stroke="black" points="944.5,-132 944.5,-153 979.5,-153 979.5,-132 944.5,-132"/>
<text text-anchor="start" x="951.5" y="-138.8" font-family="Times New Roman,serif" font-size="14.00">unit</text>
<polygon fill="none" stroke="black" points="979.5,-132 979.5,-153 1169.5,-153 1169.5,-132 979.5,-132"/>
<text text-anchor="start" x="982.5" y="-138.8" font-family="Times New Roman,serif" font-size="14.00">TimeMeasurementUnit(StrEnum)</text>
</a>
</g>
</g>
<!-- eya_def_tools.data_models.reference_wind_farm.ReferenceWindFarm -->
<g id="node6" class="node">
<title>eya_def_tools.data_models.reference_wind_farm.ReferenceWindFarm</title>
<g id="a_node6"><a xlink:title="eya_def_tools.data_models.reference_wind_farm.ReferenceWindFarm&#10;&#10;Reference wind farm.&#10;&#10;Attributes:&#10; &#160;&#160;&#160;id (str): Unique ID for the reference wind farm within the EYA DEF document.&#10; &#160;&#160;&#160;description (Optional[str]): Optional description of the reference wind farm, which should not be empty if the field is included. Default is None.&#10; &#160;&#160;&#160;comments (Optional[str]): Optional comments on the reference wind farm, which should not be empty if the field is included. Default is None.&#10; &#160;&#160;&#160;wind_farm_id (str): The ID of the wind farm in the &#39;wind_farms&#39; section of the top&#45;level of the EYA DEF document, containing the configuration data for the reference wind farm.&#10; &#160;&#160;&#160;datasets (list[ReferenceWindFarmDataset]): List of metadata documents describing the operational datasets from the reference wind farm that were used in the EYA.&#10;">
<polygon fill="none" stroke="black" points="0,-611 0,-632 274,-632 274,-611 0,-611"/>
<text text-anchor="start" x="72" y="-618.8" font-family="Times New Roman,serif" font-weight="bold" font-size="14.00">ReferenceWindFarm</text>
<polygon fill="none" stroke="black" points="0,-590 0,-611 85,-611 85,-590 0,-590"/>
<text text-anchor="start" x="37" y="-596.8" font-family="Times New Roman,serif" font-size="14.00">id</text>
<polygon fill="none" stroke="black" points="85,-590 85,-611 274,-611 274,-590 85,-590"/>
<text text-anchor="start" x="172" y="-596.8" font-family="Times New Roman,serif" font-size="14.00">str</text>
<polygon fill="none" stroke="black" points="0,-569 0,-590 85,-590 85,-569 0,-569"/>
<text text-anchor="start" x="11" y="-575.8" font-family="Times New Roman,serif" font-size="14.00">description</text>
<polygon fill="none" stroke="black" points="85,-569 85,-590 274,-590 274,-569 85,-569"/>
<text text-anchor="start" x="143.5" y="-575.8" font-family="Times New Roman,serif" font-size="14.00">Optional[str]</text>
<polygon fill="none" stroke="black" points="0,-548 0,-569 85,-569 85,-548 0,-548"/>
<text text-anchor="start" x="13.5" y="-554.8" font-family="Times New Roman,serif" font-size="14.00">comments</text>
<polygon fill="none" stroke="black" points="85,-548 85,-569 274,-569 274,-548 85,-548"/>
<text text-anchor="start" x="143.5" y="-554.8" font-family="Times New Roman,serif" font-size="14.00">Optional[str]</text>
<polygon fill="none" stroke="black" points="0,-527 0,-548 85,-548 85,-527 0,-527"/>
<text text-anchor="start" x="3" y="-533.8" font-family="Times New Roman,serif" font-size="14.00">wind_farm_id</text>
<polygon fill="none" stroke="black" points="85,-527 85,-548 274,-548 274,-527 85,-527"/>
<text text-anchor="start" x="172" y="-533.8" font-family="Times New Roman,serif" font-size="14.00">str</text>
<polygon fill="none" stroke="black" points="0,-506 0,-527 85,-527 85,-506 0,-506"/>
<text text-anchor="start" x="19.5" y="-512.8" font-family="Times New Roman,serif" font-size="14.00">datasets</text>
<polygon fill="none" stroke="black" points="85,-506 85,-527 274,-527 274,-506 85,-506"/>
<text text-anchor="start" x="88" y="-512.8" font-family="Times New Roman,serif" font-size="14.00">list[ReferenceWindFarmDataset]</text>
</a>
</g>
</g>
<!-- eya_def_tools.data_models.reference_wind_farm.ReferenceWindFarmDataset -->
<g id="node7" class="node">
<title>eya_def_tools.data_models.reference_wind_farm.ReferenceWindFarmDataset</title>
<g id="a_node7"><a xlink:title="eya_def_tools.data_models.reference_wind_farm.ReferenceWindFarmDataset&#10;&#10;Reference wind farm operational dataset.&#10;&#10;Attributes:&#10; &#160;&#160;&#160;label (Optional[str]): Optional label of the reference wind farm dataset, which should not be empty if the field is included.&#10; &#160;&#160;&#160;description (Optional[str]): Optional description of the dataset, which should not be empty if the field is included. Default is None.&#10; &#160;&#160;&#160;comments (Optional[str]): Optional comments on the dataset, which should not be empty if the field is included. Default is None.&#10; &#160;&#160;&#160;data_supplier_organisation (Organisation): The organisation that supplied the data.&#10; &#160;&#160;&#160;data_type (OperationalDataType(StrEnum)): The type of data in the operational data, categorised as &#39;scada&#39; for data from a Supervisory Control and Data Acquisition (SCADA) system, &#39;metered&#39; for data from a production meter, &#39;environmental_measurement&#39; for data from an (on&#45;site) environmental measurement station such as a meteorological mast or a remote sensing device (RSD) and &#39;other&#39; for any other type of unit.&#10; &#160;&#160;&#160;data_source_type (OperationalDataSourceType(StrEnum)): The type of the operational data source. Primary data, such as primary SCADA data, comes directly from the source without processing. Report data refers to data extracted from report document, such as monthly operational reports. Other secondary data comprises all other data source categories, such as secondary SCADA data provided in processed (harmonised) form by a data management service provider.&#10; &#160;&#160;&#160;used_data_variables (list[ReferenceWindFarmDataVariable]): A list of the types of data variables included in this dataset and used in the assessment. For a large dataset (such as a full wind turbine SCADA dataset) this field should not include all the variables but only the ones that were used in the analysis.&#10; &#160;&#160;&#160;time_resolution (TimeResolution): Time resolution of the operational data.&#10; &#160;&#160;&#160;data_period_start_date (date): Start of the data period in the ISO 8601 standard format for a calendar date, i.e. YYYY&#45;MM&#45;DD.&#10; &#160;&#160;&#160;data_period_end_date (date): End of the data period in the ISO 8601 standard format for a calendar date, i.e. YYYY&#45;MM&#45;DD.&#10;">
<polygon fill="none" stroke="black" points="382,-505 382,-526 762,-526 762,-505 382,-505"/>
<text text-anchor="start" x="483.5" y="-512.8" font-family="Times New Roman,serif" font-weight="bold" font-size="14.00">ReferenceWindFarmDataset</text>
<polygon fill="none" stroke="black" points="382,-484 382,-505 539,-505 539,-484 382,-484"/>
<text text-anchor="start" x="447.5" y="-490.8" font-family="Times New Roman,serif" font-size="14.00">label</text>
<polygon fill="none" stroke="black" points="539,-484 539,-505 762,-505 762,-484 539,-484"/>
<text text-anchor="start" x="614.5" y="-490.8" font-family="Times New Roman,serif" font-size="14.00">Optional[str]</text>
<polygon fill="none" stroke="black" points="382,-463 382,-484 539,-484 539,-463 382,-463"/>
<text text-anchor="start" x="429" y="-469.8" font-family="Times New Roman,serif" font-size="14.00">description</text>
<polygon fill="none" stroke="black" points="539,-463 539,-484 762,-484 762,-463 539,-463"/>
<text text-anchor="start" x="614.5" y="-469.8" font-family="Times New Roman,serif" font-size="14.00">Optional[str]</text>
<polygon fill="none" stroke="black" points="382,-442 382,-463 539,-463 539,-442 382,-442"/>
<text text-anchor="start" x="431.5" y="-448.8" font-family="Times New Roman,serif" font-size="14.00">comments</text>
<polygon fill="none" stroke="black" points="539,-442 539,-463 762,-463 762,-442 539,-442"/>
<text text-anchor="start" x="614.5" y="-448.8" font-family="Times New Roman,serif" font-size="14.00">Optional[str]</text>
<polygon fill="none" stroke="black" points="382,-421 382,-442 539,-442 539,-421 382,-421"/>
<text text-anchor="start" x="385" y="-427.8" font-family="Times New Roman,serif" font-size="14.00">data_supplier_organisation</text>
<polygon fill="none" stroke="black" points="539,-421 539,-442 762,-442 762,-421 539,-421"/>
<text text-anchor="start" x="615" y="-427.8" font-family="Times New Roman,serif" font-size="14.00">Organisation</text>
<polygon fill="none" stroke="black" points="382,-400 382,-421 539,-421 539,-400 382,-400"/>
<text text-anchor="start" x="433" y="-406.8" font-family="Times New Roman,serif" font-size="14.00">data_type</text>
<polygon fill="none" stroke="black" points="539,-400 539,-421 762,-421 762,-400 539,-400"/>
<text text-anchor="start" x="561.5" y="-406.8" font-family="Times New Roman,serif" font-size="14.00">OperationalDataType(StrEnum)</text>
<polygon fill="none" stroke="black" points="382,-379 382,-400 539,-400 539,-379 382,-379"/>
<text text-anchor="start" x="410.5" y="-385.8" font-family="Times New Roman,serif" font-size="14.00">data_source_type</text>
<polygon fill="none" stroke="black" points="539,-379 539,-400 762,-400 762,-379 539,-379"/>
<text text-anchor="start" x="542" y="-385.8" font-family="Times New Roman,serif" font-size="14.00">OperationalDataSourceType(StrEnum)</text>
<polygon fill="none" stroke="black" points="382,-358 382,-379 539,-379 539,-358 382,-358"/>
<text text-anchor="start" x="403.5" y="-364.8" font-family="Times New Roman,serif" font-size="14.00">used_data_variables</text>
<polygon fill="none" stroke="black" points="539,-358 539,-379 762,-379 762,-358 539,-358"/>
<text text-anchor="start" x="544" y="-364.8" font-family="Times New Roman,serif" font-size="14.00">list[ReferenceWindFarmDataVariable]</text>
<polygon fill="none" stroke="black" points="382,-337 382,-358 539,-358 539,-337 382,-337"/>
<text text-anchor="start" x="417.5" y="-343.8" font-family="Times New Roman,serif" font-size="14.00">time_resolution</text>
<polygon fill="none" stroke="black" points="539,-337 539,-358 762,-358 762,-337 539,-337"/>
<text text-anchor="start" x="606" y="-343.8" font-family="Times New Roman,serif" font-size="14.00">TimeResolution</text>
<polygon fill="none" stroke="black" points="382,-316 382,-337 539,-337 539,-316 382,-316"/>
<text text-anchor="start" x="395.5" y="-322.8" font-family="Times New Roman,serif" font-size="14.00">data_period_start_date</text>
<polygon fill="none" stroke="black" points="539,-316 539,-337 762,-337 762,-316 539,-316"/>
<text text-anchor="start" x="638.5" y="-322.8" font-family="Times New Roman,serif" font-size="14.00">date</text>
<polygon fill="none" stroke="black" points="382,-295 382,-316 539,-316 539,-295 382,-295"/>
<text text-anchor="start" x="397.5" y="-301.8" font-family="Times New Roman,serif" font-size="14.00">data_period_end_date</text>
<polygon fill="none" stroke="black" points="539,-295 539,-316 762,-316 762,-295 539,-295"/>
<text text-anchor="start" x="638.5" y="-301.8" font-family="Times New Roman,serif" font-size="14.00">date</text>
</a>
</g>
</g>
<!-- eya_def_tools.data_models.reference_wind_farm.ReferenceWindFarm&#45;&gt;eya_def_tools.data_models.reference_wind_farm.ReferenceWindFarmDataset -->
<g id="edge3" class="edge">
<title>eya_def_tools.data_models.reference_wind_farm.ReferenceWindFarm:e&#45;&gt;eya_def_tools.data_models.reference_wind_farm.ReferenceWindFarmDataset:w</title>
<path fill="none" stroke="black" d="M274,-516C315.06,-516 329.78,-516 363.23,-516"/>
<polygon fill="black" stroke="black" points="372,-516 382,-520.5 377,-516 382,-516 382,-516 382,-516 377,-516 382,-511.5 372,-516 372,-516"/>
<ellipse fill="none" stroke="black" cx="367.5" cy="-516" rx="4" ry="4"/>
</g>
<!-- eya_def_tools.data_models.reference_wind_farm.ReferenceWindFarmDataset&#45;&gt;eya_def_tools.data_models.general.Organisation -->
<g id="edge5" class="edge">
<title>eya_def_tools.data_models.reference_wind_farm.ReferenceWindFarmDataset:e&#45;&gt;eya_def_tools.data_models.general.Organisation:w</title>
<path fill="none" stroke="black" d="M762,-432C857.25,-432 872.61,-501.24 959.59,-508.4"/>
<polyline fill="none" stroke="black" points="974.5,-509 969.5,-508.8"/>
<polygon fill="black" stroke="black" points="968.71,-503.76 968.3,-513.76 966.31,-513.68 966.71,-503.68 968.71,-503.76"/>
<polyline fill="none" stroke="black" points="969.5,-508.8 964.51,-508.6"/>
<polygon fill="black" stroke="black" points="963.71,-503.56 963.31,-513.56 961.31,-513.48 961.71,-503.48 963.71,-503.56"/>
<polyline fill="none" stroke="black" points="964.51,-508.6 959.51,-508.4"/>
</g>
<!-- eya_def_tools.data_models.reference_wind_farm.ReferenceWindFarmDataset&#45;&gt;eya_def_tools.data_models.general.TimeResolution -->
<g id="edge6" class="edge">
<title>eya_def_tools.data_models.reference_wind_farm.ReferenceWindFarmDataset:e&#45;&gt;eya_def_tools.data_models.general.TimeResolution:w</title>
<path fill="none" stroke="black" d="M762,-347C838.15,-347 808.58,-259 870,-214 893.9,-196.49 904.79,-187.88 928.71,-185.62"/>
<polyline fill="none" stroke="black" points="943.5,-185 938.5,-185.21"/>
<polygon fill="black" stroke="black" points="937.3,-180.26 937.71,-190.25 935.72,-190.33 935.3,-180.34 937.3,-180.26"/>
<polyline fill="none" stroke="black" points="938.5,-185.21 933.51,-185.42"/>
<polygon fill="black" stroke="black" points="932.3,-180.47 932.72,-190.46 930.72,-190.54 930.3,-180.55 932.3,-180.47"/>
<polyline fill="none" stroke="black" points="933.51,-185.42 928.51,-185.63"/>
</g>
<!-- eya_def_tools.data_models.reference_wind_farm.ReferenceWindFarmDataVariable -->
<g id="node8" class="node">
<title>eya_def_tools.data_models.reference_wind_farm.ReferenceWindFarmDataVariable</title>
<g id="a_node8"><a xlink:title="eya_def_tools.data_models.reference_wind_farm.ReferenceWindFarmDataVariable&#10;&#10;Reference wind farm operational data variable.&#10;&#10;Attributes:&#10; &#160;&#160;&#160;label (str): Label of the data variable. This is currently free text but should be replaced by a list of enum options.&#10; &#160;&#160;&#160;description (Optional[str]): Optional description of the data variable, which should not be empty if the field is included. This may include clarification of the point of measurement, where relevant. Default is None.&#10; &#160;&#160;&#160;comments (Optional[str]): Optional comments on the data variable, which should not be empty if the field is included. Default is None.&#10; &#160;&#160;&#160;data_level (OperationalDataLevel(StrEnum)): Whether the operational data variable is provided for each individual wind turbine (&#39;turbine_level&#39;), is aggregated at the wind farm level (&#39;wind_farm_level&#39;) or corresponds to a different (&#39;other&#39;) unit such as an environmental measurement station.&#10; &#160;&#160;&#160;statistic_types (Optional[list[BasicStatisticType(StrEnum)]]): Optional list of the types of statistics included for the data variable.&#10; &#160;&#160;&#160;raw_data_availability (Optional[list[Dataset]]): Dimensionless raw data availability (also known as data recovery rate) for the variable. More than one dataset may be included if reporting data availability at different time resolutions or at both wind farm and turbine level. Default is None.&#10;">
<polygon fill="none" stroke="black" points="870.5,-357 870.5,-378 1243.5,-378 1243.5,-357 870.5,-357"/>
<text text-anchor="start" x="951" y="-364.8" font-family="Times New Roman,serif" font-weight="bold" font-size="14.00">ReferenceWindFarmDataVariable</text>
<polygon fill="none" stroke="black" points="870.5,-336 870.5,-357 993.5,-357 993.5,-336 870.5,-336"/>
<text text-anchor="start" x="919" y="-342.8" font-family="Times New Roman,serif" font-size="14.00">label</text>
<polygon fill="none" stroke="black" points="993.5,-336 993.5,-357 1243.5,-357 1243.5,-336 993.5,-336"/>
<text text-anchor="start" x="1111" y="-342.8" font-family="Times New Roman,serif" font-size="14.00">str</text>
<polygon fill="none" stroke="black" points="870.5,-315 870.5,-336 993.5,-336 993.5,-315 870.5,-315"/>
<text text-anchor="start" x="900.5" y="-321.8" font-family="Times New Roman,serif" font-size="14.00">description</text>
<polygon fill="none" stroke="black" points="993.5,-315 993.5,-336 1243.5,-336 1243.5,-315 993.5,-315"/>
<text text-anchor="start" x="1082.5" y="-321.8" font-family="Times New Roman,serif" font-size="14.00">Optional[str]</text>
<polygon fill="none" stroke="black" points="870.5,-294 870.5,-315 993.5,-315 993.5,-294 870.5,-294"/>
<text text-anchor="start" x="903" y="-300.8" font-family="Times New Roman,serif" font-size="14.00">comments</text>
<polygon fill="none" stroke="black" points="993.5,-294 993.5,-315 1243.5,-315 1243.5,-294 993.5,-294"/>
<text text-anchor="start" x="1082.5" y="-300.8" font-family="Times New Roman,serif" font-size="14.00">Optional[str]</text>
<polygon fill="none" stroke="black" points="870.5,-273 870.5,-294 993.5,-294 993.5,-273 870.5,-273"/>
<text text-anchor="start" x="904" y="-279.8" font-family="Times New Roman,serif" font-size="14.00">data_level</text>
<polygon fill="none" stroke="black" points="993.5,-273 993.5,-294 1243.5,-294 1243.5,-273 993.5,-273"/>
<text text-anchor="start" x="1029.5" y="-279.8" font-family="Times New Roman,serif" font-size="14.00">OperationalDataLevel(StrEnum)</text>
<polygon fill="none" stroke="black" points="870.5,-252 870.5,-273 993.5,-273 993.5,-252 870.5,-252"/>
<text text-anchor="start" x="892" y="-258.8" font-family="Times New Roman,serif" font-size="14.00">statistic_types</text>
<polygon fill="none" stroke="black" points="993.5,-252 993.5,-273 1243.5,-273 1243.5,-252 993.5,-252"/>
<text text-anchor="start" x="996.5" y="-258.8" font-family="Times New Roman,serif" font-size="14.00">Optional[list[BasicStatisticType(StrEnum)]]</text>
<polygon fill="none" stroke="black" points="870.5,-231 870.5,-252 993.5,-252 993.5,-231 870.5,-231"/>
<text text-anchor="start" x="873.5" y="-237.8" font-family="Times New Roman,serif" font-size="14.00">raw_data_availability</text>
<polygon fill="none" stroke="black" points="993.5,-231 993.5,-252 1243.5,-252 1243.5,-231 993.5,-231"/>
<text text-anchor="start" x="1056.5" y="-237.8" font-family="Times New Roman,serif" font-size="14.00">Optional[list[Dataset]]</text>
</a>
</g>
</g>
<!-- eya_def_tools.data_models.reference_wind_farm.ReferenceWindFarmDataset&#45;&gt;eya_def_tools.data_models.reference_wind_farm.ReferenceWindFarmDataVariable -->
<g id="edge7" class="edge">
<title>eya_def_tools.data_models.reference_wind_farm.ReferenceWindFarmDataset:e&#45;&gt;eya_def_tools.data_models.reference_wind_farm.ReferenceWindFarmDataVariable:w</title>
<path fill="none" stroke="black" d="M762,-368C803.06,-368 817.78,-368 851.23,-368"/>
<polygon fill="black" stroke="black" points="860,-368 870,-372.5 865,-368 870,-368 870,-368 870,-368 865,-368 870,-363.5 860,-368 860,-368"/>
<ellipse fill="none" stroke="black" cx="855.5" cy="-368" rx="4" ry="4"/>
</g>
<!-- eya_def_tools.data_models.reference_wind_farm.ReferenceWindFarmDataVariable&#45;&gt;eya_def_tools.data_models.dataset.Dataset -->
<g id="edge4" class="edge">
<title>eya_def_tools.data_models.reference_wind_farm.ReferenceWindFarmDataVariable:e&#45;&gt;eya_def_tools.data_models.dataset.Dataset:w</title>
<path fill="none" stroke="black" d="M1243,-241C1284.06,-241 1298.78,-241 1332.23,-241"/>
<polyline fill="none" stroke="black" points="1351,-241 1346,-241"/>
<polygon fill="black" stroke="black" points="1345,-236 1345,-246 1343,-246 1343,-236 1345,-236"/>
<polyline fill="none" stroke="black" points="1346,-241 1341,-241"/>
<ellipse fill="none" stroke="black" cx="1336.5" cy="-241" rx="4" ry="4"/>
</g>
</g>
</svg>
