<?xml version="1.0" encoding="UTF-8" standalone="no"?>
<!DOCTYPE svg PUBLIC "-//W3C//DTD SVG 1.1//EN"
 "http://www.w3.org/Graphics/SVG/1.1/DTD/svg11.dtd">
<!-- Generated by graphviz version 12.2.1 (20241206.2353)
 -->
<!-- Title: Entity Relationship Diagram created by erdantic Pages: 1 -->
<svg width="1933pt" height="653pt"
 viewBox="0.00 0.00 1933.25 652.75" xmlns="http://www.w3.org/2000/svg" xmlns:xlink="http://www.w3.org/1999/xlink">
<g id="graph0" class="graph" transform="scale(1 1) rotate(0) translate(4 648.75)">
<title>Entity Relationship Diagram created by erdantic</title>
<polygon fill="white" stroke="none" points="-4,4 -4,-648.75 1929.25,-648.75 1929.25,4 -4,4"/>
<text text-anchor="middle" x="962.62" y="-5.95" font-family="Times New Roman,Times,Liberation Serif,serif" font-size="9.00" fill="#a8a8a8">Created by erdantic v1.0.4 &lt;https://github.com/drivendataorg/erdantic&gt;</text>
<!-- eya_def_tools.data_models.general.Organisation -->
<g id="node1" class="node">
<title>eya_def_tools.data_models.general.Organisation</title>
<g id="a_node1"><a xlink:title="eya_def_tools.data_models.general.Organisation&#10;&#10;Basic metadata to describe an organisation.&#10;&#10;This model is for example used for issuing and receiving&#10;organisations of an energy yield assessment.&#10;&#10;Fields:&#10; &#160;&#160;&#160;name: Entity name of the organisation.&#10; &#160;&#160;&#160;abbreviation: Abbreviated name of the organisation. Default is None.&#10; &#160;&#160;&#160;address: Address of the organisation. Default is None.&#10; &#160;&#160;&#160;contact_name: Name(s) of contact person(s) in the organisation. Default is None.&#10;">
<polygon fill="none" stroke="black" points="1261.88,-398.25 1261.88,-420.75 1487.62,-420.75 1487.62,-398.25 1261.88,-398.25"/>
<text text-anchor="start" x="1336.5" y="-405.45" font-family="Times New Roman,Times,Liberation Serif,serif" font-weight="bold" font-size="14.00">Organisation</text>
<polygon fill="none" stroke="black" points="1261.88,-375.75 1261.88,-398.25 1343.62,-398.25 1343.62,-375.75 1261.88,-375.75"/>
<text text-anchor="start" x="1287.75" y="-381.95" font-family="Times New Roman,Times,Liberation Serif,serif" font-size="14.00">name</text>
<polygon fill="none" stroke="black" points="1343.62,-375.75 1343.62,-398.25 1419.38,-398.25 1419.38,-375.75 1343.62,-375.75"/>
<text text-anchor="start" x="1374.75" y="-381.95" font-family="Times New Roman,Times,Liberation Serif,serif" font-size="14.00">str</text>
<polygon fill="none" stroke="black" points="1419.38,-375.75 1419.38,-398.25 1487.62,-398.25 1487.62,-375.75 1419.38,-375.75"/>
<text text-anchor="start" x="1438.12" y="-381.95" font-family="Times New Roman,Times,Liberation Serif,serif" font-size="14.00">string</text>
<polygon fill="none" stroke="black" points="1261.88,-353.25 1261.88,-375.75 1343.62,-375.75 1343.62,-353.25 1261.88,-353.25"/>
<text text-anchor="start" x="1269" y="-359.45" font-family="Times New Roman,Times,Liberation Serif,serif" font-size="14.00">abbreviation</text>
<polygon fill="none" stroke="black" points="1343.62,-353.25 1343.62,-375.75 1419.38,-375.75 1419.38,-353.25 1343.62,-353.25"/>
<text text-anchor="start" x="1346.62" y="-359.45" font-family="Times New Roman,Times,Liberation Serif,serif" font-size="14.00">Optional[str]</text>
<polygon fill="none" stroke="black" points="1419.38,-353.25 1419.38,-375.75 1487.62,-375.75 1487.62,-353.25 1419.38,-353.25"/>
<text text-anchor="start" x="1422.38" y="-359.45" font-family="Times New Roman,Times,Liberation Serif,serif" font-size="14.00">string | null</text>
<polygon fill="none" stroke="black" points="1261.88,-330.75 1261.88,-353.25 1343.62,-353.25 1343.62,-330.75 1261.88,-330.75"/>
<text text-anchor="start" x="1282.5" y="-336.95" font-family="Times New Roman,Times,Liberation Serif,serif" font-size="14.00">address</text>
<polygon fill="none" stroke="black" points="1343.62,-330.75 1343.62,-353.25 1419.38,-353.25 1419.38,-330.75 1343.62,-330.75"/>
<text text-anchor="start" x="1346.62" y="-336.95" font-family="Times New Roman,Times,Liberation Serif,serif" font-size="14.00">Optional[str]</text>
<polygon fill="none" stroke="black" points="1419.38,-330.75 1419.38,-353.25 1487.62,-353.25 1487.62,-330.75 1419.38,-330.75"/>
<text text-anchor="start" x="1422.38" y="-336.95" font-family="Times New Roman,Times,Liberation Serif,serif" font-size="14.00">string | null</text>
<polygon fill="none" stroke="black" points="1261.88,-308.25 1261.88,-330.75 1343.62,-330.75 1343.62,-308.25 1261.88,-308.25"/>
<text text-anchor="start" x="1264.88" y="-314.45" font-family="Times New Roman,Times,Liberation Serif,serif" font-size="14.00">contact_name</text>
<polygon fill="none" stroke="black" points="1343.62,-308.25 1343.62,-330.75 1419.38,-330.75 1419.38,-308.25 1343.62,-308.25"/>
<text text-anchor="start" x="1346.62" y="-314.45" font-family="Times New Roman,Times,Liberation Serif,serif" font-size="14.00">Optional[str]</text>
<polygon fill="none" stroke="black" points="1419.38,-308.25 1419.38,-330.75 1487.62,-330.75 1487.62,-308.25 1419.38,-308.25"/>
<text text-anchor="start" x="1422.38" y="-314.45" font-family="Times New Roman,Times,Liberation Serif,serif" font-size="14.00">string | null</text>
</a>
</g>
</g>
<!-- eya_def_tools.data_models.general.TimeResolution -->
<g id="node2" class="node">
<title>eya_def_tools.data_models.general.TimeResolution</title>
<g id="a_node2"><a xlink:title="eya_def_tools.data_models.general.TimeResolution&#10;&#10;Resolution of time series data.&#10;&#10;Fields:&#10; &#160;&#160;&#160;value: The value of the time resolution in the specified unit. For example, for 10&#45;minute resolution, the value is &#39;10.0&#39; and the unit is &#39;minute&#39;&#10; &#160;&#160;&#160;unit: The measurement unit of time in which the time resolution is specified.&#10;">
<polygon fill="none" stroke="black" points="1707.75,-130.75 1707.75,-153.25 1925.25,-153.25 1925.25,-130.75 1707.75,-130.75"/>
<text text-anchor="start" x="1770.38" y="-137.95" font-family="Times New Roman,Times,Liberation Serif,serif" font-weight="bold" font-size="14.00">TimeResolution</text>
<polygon fill="none" stroke="black" points="1707.75,-108.25 1707.75,-130.75 1743,-130.75 1743,-108.25 1707.75,-108.25"/>
<text text-anchor="start" x="1710.75" y="-114.45" font-family="Times New Roman,Times,Liberation Serif,serif" font-size="14.00">value</text>
<polygon fill="none" stroke="black" points="1743,-108.25 1743,-130.75 1877.25,-130.75 1877.25,-108.25 1743,-108.25"/>
<text text-anchor="start" x="1797.75" y="-114.45" font-family="Times New Roman,Times,Liberation Serif,serif" font-size="14.00">float</text>
<polygon fill="none" stroke="black" points="1877.25,-108.25 1877.25,-130.75 1925.25,-130.75 1925.25,-108.25 1877.25,-108.25"/>
<text text-anchor="start" x="1880.25" y="-114.45" font-family="Times New Roman,Times,Liberation Serif,serif" font-size="14.00">number</text>
<polygon fill="none" stroke="black" points="1707.75,-85.75 1707.75,-108.25 1743,-108.25 1743,-85.75 1707.75,-85.75"/>
<text text-anchor="start" x="1714.88" y="-91.95" font-family="Times New Roman,Times,Liberation Serif,serif" font-size="14.00">unit</text>
<polygon fill="none" stroke="black" points="1743,-85.75 1743,-108.25 1877.25,-108.25 1877.25,-85.75 1743,-85.75"/>
<text text-anchor="start" x="1746" y="-91.95" font-family="Times New Roman,Times,Liberation Serif,serif" font-size="14.00">TimeMeasurementUnit</text>
<polygon fill="none" stroke="black" points="1877.25,-85.75 1877.25,-108.25 1925.25,-108.25 1925.25,-85.75 1877.25,-85.75"/>
<text text-anchor="start" x="1885.88" y="-91.95" font-family="Times New Roman,Times,Liberation Serif,serif" font-size="14.00">string</text>
</a>
</g>
</g>
<!-- eya_def_tools.data_models.reference_wind_farm.DerivedDatasetClassification -->
<g id="node3" class="node">
<title>eya_def_tools.data_models.reference_wind_farm.DerivedDatasetClassification</title>
<g id="a_node3"><a xlink:title="eya_def_tools.data_models.reference_wind_farm.DerivedDatasetClassification&#10;&#10;Classification of a derived operational dataset.&#10;&#10;Fields:&#10; &#160;&#160;&#160;data_type: The type of operational data, categorised as &#39;derived&#39; for all derived operational datasets (e.g. operational reports or databases with aggregate data). Details of the data type shall be included in the description of the operational dataset, including the type of derived dataset (e.g. an operational report), who produced it (e.g. the turbine OEM) and any relevant details known about how the data were processed. Default is &#39;derived&#39;.&#10; &#160;&#160;&#160;data_source_type: The data source type, which for derived data is &#39;secondary&#39;. Default is &#39;secondary&#39;.&#10;">
<polygon fill="none" stroke="black" points="1251,-605.75 1251,-628.25 1498.5,-628.25 1498.5,-605.75 1251,-605.75"/>
<text text-anchor="start" x="1291.12" y="-612.95" font-family="Times New Roman,Times,Liberation Serif,serif" font-weight="bold" font-size="14.00">DerivedDatasetClassification</text>
<polygon fill="none" stroke="black" points="1251,-583.25 1251,-605.75 1351.5,-605.75 1351.5,-583.25 1251,-583.25"/>
<text text-anchor="start" x="1275" y="-589.45" font-family="Times New Roman,Times,Liberation Serif,serif" font-size="14.00">data_type</text>
<polygon fill="none" stroke="black" points="1351.5,-583.25 1351.5,-605.75 1461.75,-605.75 1461.75,-583.25 1351.5,-583.25"/>
<text text-anchor="start" x="1361.62" y="-589.45" font-family="Times New Roman,Times,Liberation Serif,serif" font-size="14.00">Literal[&#39;derived&#39;]</text>
<polygon fill="none" stroke="black" points="1461.75,-583.25 1461.75,-605.75 1498.5,-605.75 1498.5,-583.25 1461.75,-583.25"/>
<text text-anchor="start" x="1464.75" y="-589.45" font-family="Times New Roman,Times,Liberation Serif,serif" font-size="14.00">string</text>
<polygon fill="none" stroke="black" points="1251,-560.75 1251,-583.25 1351.5,-583.25 1351.5,-560.75 1251,-560.75"/>
<text text-anchor="start" x="1254" y="-566.95" font-family="Times New Roman,Times,Liberation Serif,serif" font-size="14.00">data_source_type</text>
<polygon fill="none" stroke="black" points="1351.5,-560.75 1351.5,-583.25 1461.75,-583.25 1461.75,-560.75 1351.5,-560.75"/>
<text text-anchor="start" x="1354.5" y="-566.95" font-family="Times New Roman,Times,Liberation Serif,serif" font-size="14.00">Literal[&#39;secondary&#39;]</text>
<polygon fill="none" stroke="black" points="1461.75,-560.75 1461.75,-583.25 1498.5,-583.25 1498.5,-560.75 1461.75,-560.75"/>
<text text-anchor="start" x="1464.75" y="-566.95" font-family="Times New Roman,Times,Liberation Serif,serif" font-size="14.00">string</text>
</a>
</g>
</g>
<!-- eya_def_tools.data_models.reference_wind_farm.OperationalDataVariable -->
<g id="node4" class="node">
<title>eya_def_tools.data_models.reference_wind_farm.OperationalDataVariable</title>
<g id="a_node4"><a xlink:title="eya_def_tools.data_models.reference_wind_farm.OperationalDataVariable&#10;&#10;Reference wind farm operational data variable.&#10;&#10;Fields:&#10; &#160;&#160;&#160;variable_type: The type of operational data variable, selected from the standardised terms based on the ASPECT taxonomy.&#10; &#160;&#160;&#160;label: Optional label of the data variable, which should not be empty if the field is included. This can be used to provide the label assigned to the variable in the dataset (e.g. field of column name), but does not need to. Default is None.&#10; &#160;&#160;&#160;description: Optional description of the data variable, which should not be empty if the field is included. This may include clarification of the point of measurement, where relevant. Default is None.&#10; &#160;&#160;&#160;comments: Optional comments on the data variable, which should not be empty if the field is included. Default is None.&#10; &#160;&#160;&#160;data_level: Whether the operational data variable is provided for each individual wind turbine (&#39;turbine_level&#39;), is corresponding to or aggregated to the wind farm level (&#39;wind_farm_level&#39;) or corresponds to a different (&#39;other&#39;) level such as an environmental measurement station.&#10; &#160;&#160;&#160;statistic_types: Optional list of the types of statistics included for the data variable.&#10; &#160;&#160;&#160;time_resolution: Optional specification of the time resolution for the variable, in case that is different from the dataset main time resolution. Default is None.&#10;">
<polygon fill="none" stroke="black" points="1210.12,-176 1210.12,-198.5 1539.38,-198.5 1539.38,-176 1210.12,-176"/>
<text text-anchor="start" x="1300.88" y="-183.2" font-family="Times New Roman,Times,Liberation Serif,serif" font-weight="bold" font-size="14.00">OperationalDataVariable</text>
<polygon fill="none" stroke="black" points="1210.12,-153.5 1210.12,-176 1301.62,-176 1301.62,-153.5 1210.12,-153.5"/>
<text text-anchor="start" x="1219.12" y="-159.7" font-family="Times New Roman,Times,Liberation Serif,serif" font-size="14.00">variable_type</text>
<polygon fill="none" stroke="black" points="1301.62,-153.5 1301.62,-176 1468.88,-176 1468.88,-153.5 1301.62,-153.5"/>
<text text-anchor="start" x="1304.62" y="-159.7" font-family="Times New Roman,Times,Liberation Serif,serif" font-size="14.00">OperationalDataVariableType</text>
<polygon fill="none" stroke="black" points="1468.88,-153.5 1468.88,-176 1539.38,-176 1539.38,-153.5 1468.88,-153.5"/>
<text text-anchor="start" x="1488.75" y="-159.7" font-family="Times New Roman,Times,Liberation Serif,serif" font-size="14.00">string</text>
<polygon fill="none" stroke="black" points="1210.12,-131 1210.12,-153.5 1301.62,-153.5 1301.62,-131 1210.12,-131"/>
<text text-anchor="start" x="1242.75" y="-137.2" font-family="Times New Roman,Times,Liberation Serif,serif" font-size="14.00">label</text>
<polygon fill="none" stroke="black" points="1301.62,-131 1301.62,-153.5 1468.88,-153.5 1468.88,-131 1301.62,-131"/>
<text text-anchor="start" x="1350.38" y="-137.2" font-family="Times New Roman,Times,Liberation Serif,serif" font-size="14.00">Optional[str]</text>
<polygon fill="none" stroke="black" points="1468.88,-131 1468.88,-153.5 1539.38,-153.5 1539.38,-131 1468.88,-131"/>
<text text-anchor="start" x="1473" y="-137.2" font-family="Times New Roman,Times,Liberation Serif,serif" font-size="14.00">string | null</text>
<polygon fill="none" stroke="black" points="1210.12,-108.5 1210.12,-131 1301.62,-131 1301.62,-108.5 1210.12,-108.5"/>
<text text-anchor="start" x="1225.88" y="-114.7" font-family="Times New Roman,Times,Liberation Serif,serif" font-size="14.00">description</text>
<polygon fill="none" stroke="black" points="1301.62,-108.5 1301.62,-131 1468.88,-131 1468.88,-108.5 1301.62,-108.5"/>
<text text-anchor="start" x="1350.38" y="-114.7" font-family="Times New Roman,Times,Liberation Serif,serif" font-size="14.00">Optional[str]</text>
<polygon fill="none" stroke="black" points="1468.88,-108.5 1468.88,-131 1539.38,-131 1539.38,-108.5 1468.88,-108.5"/>
<text text-anchor="start" x="1473" y="-114.7" font-family="Times New Roman,Times,Liberation Serif,serif" font-size="14.00">string | null</text>
<polygon fill="none" stroke="black" points="1210.12,-86 1210.12,-108.5 1301.62,-108.5 1301.62,-86 1210.12,-86"/>
<text text-anchor="start" x="1227.38" y="-92.2" font-family="Times New Roman,Times,Liberation Serif,serif" font-size="14.00">comments</text>
<polygon fill="none" stroke="black" points="1301.62,-86 1301.62,-108.5 1468.88,-108.5 1468.88,-86 1301.62,-86"/>
<text text-anchor="start" x="1350.38" y="-92.2" font-family="Times New Roman,Times,Liberation Serif,serif" font-size="14.00">Optional[str]</text>
<polygon fill="none" stroke="black" points="1468.88,-86 1468.88,-108.5 1539.38,-108.5 1539.38,-86 1468.88,-86"/>
<text text-anchor="start" x="1473" y="-92.2" font-family="Times New Roman,Times,Liberation Serif,serif" font-size="14.00">string | null</text>
<polygon fill="none" stroke="black" points="1210.12,-63.5 1210.12,-86 1301.62,-86 1301.62,-63.5 1210.12,-63.5"/>
<text text-anchor="start" x="1228.12" y="-69.7" font-family="Times New Roman,Times,Liberation Serif,serif" font-size="14.00">data_level</text>
<polygon fill="none" stroke="black" points="1301.62,-63.5 1301.62,-86 1468.88,-86 1468.88,-63.5 1301.62,-63.5"/>
<text text-anchor="start" x="1325.25" y="-69.7" font-family="Times New Roman,Times,Liberation Serif,serif" font-size="14.00">OperationalDataLevel</text>
<polygon fill="none" stroke="black" points="1468.88,-63.5 1468.88,-86 1539.38,-86 1539.38,-63.5 1468.88,-63.5"/>
<text text-anchor="start" x="1488.75" y="-69.7" font-family="Times New Roman,Times,Liberation Serif,serif" font-size="14.00">string</text>
<polygon fill="none" stroke="black" points="1210.12,-41 1210.12,-63.5 1301.62,-63.5 1301.62,-41 1210.12,-41"/>
<text text-anchor="start" x="1217.62" y="-47.2" font-family="Times New Roman,Times,Liberation Serif,serif" font-size="14.00">statistic_types</text>
<polygon fill="none" stroke="black" points="1301.62,-41 1301.62,-63.5 1468.88,-63.5 1468.88,-41 1301.62,-41"/>
<text text-anchor="start" x="1309.12" y="-47.2" font-family="Times New Roman,Times,Liberation Serif,serif" font-size="14.00">Optional[list[StatisticType]]</text>
<polygon fill="none" stroke="black" points="1468.88,-41 1468.88,-63.5 1539.38,-63.5 1539.38,-41 1468.88,-41"/>
<text text-anchor="start" x="1474.5" y="-47.2" font-family="Times New Roman,Times,Liberation Serif,serif" font-size="14.00">array | null</text>
<polygon fill="none" stroke="black" points="1210.12,-18.5 1210.12,-41 1301.62,-41 1301.62,-18.5 1210.12,-18.5"/>
<text text-anchor="start" x="1213.12" y="-24.7" font-family="Times New Roman,Times,Liberation Serif,serif" font-size="14.00">time_resolution</text>
<polygon fill="none" stroke="black" points="1301.62,-18.5 1301.62,-41 1468.88,-41 1468.88,-18.5 1301.62,-18.5"/>
<text text-anchor="start" x="1313.25" y="-24.7" font-family="Times New Roman,Times,Liberation Serif,serif" font-size="14.00">Optional[TimeResolution]</text>
<polygon fill="none" stroke="black" points="1468.88,-18.5 1468.88,-41 1539.38,-41 1539.38,-18.5 1468.88,-18.5"/>
<text text-anchor="start" x="1471.88" y="-24.7" font-family="Times New Roman,Times,Liberation Serif,serif" font-size="14.00">object | null</text>
</a>
</g>
</g>
<!-- eya_def_tools.data_models.reference_wind_farm.OperationalDataVariable&#45;&gt;eya_def_tools.data_models.general.TimeResolution -->
<g id="edge1" class="edge">
<title>eya_def_tools.data_models.reference_wind_farm.OperationalDataVariable:e&#45;&gt;eya_def_tools.data_models.general.TimeResolution:w</title>
<path fill="none" stroke="black" d="M1549.94,-30.2C1623.02,-37.32 1622.18,-126.33 1689.17,-140.19"/>
<polyline fill="none" stroke="black" points="1540.38,-29.75 1545.37,-29.99"/>
<polyline fill="none" stroke="black" points="1545.37,-29.99 1550.36,-30.22"/>
<polyline fill="none" stroke="black" points="1707.75,-142 1702.77,-141.52"/>
<polygon fill="black" stroke="black" points="1702.26,-136.44 1701.29,-146.39 1699.3,-146.2 1700.27,-136.25 1702.26,-136.44"/>
<polyline fill="none" stroke="black" points="1702.77,-141.52 1697.8,-141.03"/>
<ellipse fill="none" stroke="black" cx="1693.32" cy="-140.59" rx="4" ry="4"/>
</g>
<!-- eya_def_tools.data_models.reference_wind_farm.OperationalDatasetMetadata -->
<g id="node5" class="node">
<title>eya_def_tools.data_models.reference_wind_farm.OperationalDatasetMetadata</title>
<g id="a_node5"><a xlink:title="eya_def_tools.data_models.reference_wind_farm.OperationalDatasetMetadata&#10;&#10;Metadata for a reference wind farm operational dataset.&#10;&#10;Fields:&#10; &#160;&#160;&#160;id: Unique ID of the reference operational wind farm dataset&#10; &#160;&#160;&#160;label: Optional label of the reference wind farm dataset, which should not be empty if the field is included.&#10; &#160;&#160;&#160;description: Optional description of the dataset, which should not be empty if the field is included. Default is None.&#10; &#160;&#160;&#160;comments: Optional comments on the dataset, which should not be empty if the field is included. Default is None.&#10; &#160;&#160;&#160;classification: Classification of the type of data and the type of data source. Separate schemas are available to classify unprocessed datasets from a single source, including classification of the data type and source, and datasets that have been derived (aggregated and/or processed, such as operational reports and national databases), including only a classification of the data type as &#39;derived&#39;. For single source data types (e.g. SCADA) it is meaningful to distinguish between primary and secondary source types, whereas for a derived data type the source type is always secondary.&#10; &#160;&#160;&#160;supplying_organisation: The organisation that supplied the data.&#10; &#160;&#160;&#160;integrity_verification: Optional description of how the integrity of the data has been and/or can be verified. This field should not be empty if it is included. If any measures were undertaken to verify data integrity, they should always be described here. When this field is omitted, it shall be interpreted to mean that data integrity verification was not undertaken and/or not possible. Default is None.&#10; &#160;&#160;&#160;time_resolution: The main time resolution of the operational data, if relevant. For example, a SCADA dataset with all main variables at 10&#45;minute resolution should have the time resolution specified as such, even when some variables (e.g. alarm status) do not have a meaningful time resolution. The time resolution can also be specified at the variable level, in case of deviations from the dataset main resolution. Default is None.&#10; &#160;&#160;&#160;start_date: Start of the data period in the ISO 8601 standard format for a calendar date, i.e. YYYY&#45;MM&#45;DD.&#10; &#160;&#160;&#160;end_date: End of the data period in the ISO 8601 standard format for a calendar date, i.e. YYYY&#45;MM&#45;DD.&#10; &#160;&#160;&#160;data_variables: A list of the data variables included in the dataset and used in the assessment. For a large dataset (such as a full wind turbine SCADA dataset) this field should not include all the variables but only the ones that were used in the analysis.&#10;">
<polygon fill="none" stroke="black" points="479.25,-533 479.25,-555.5 1041.75,-555.5 1041.75,-533 479.25,-533"/>
<text text-anchor="start" x="675.38" y="-540.2" font-family="Times New Roman,Times,Liberation Serif,serif" font-weight="bold" font-size="14.00">OperationalDatasetMetadata</text>
<polygon fill="none" stroke="black" points="479.25,-510.5 479.25,-533 612,-533 612,-510.5 479.25,-510.5"/>
<text text-anchor="start" x="540.38" y="-516.7" font-family="Times New Roman,Times,Liberation Serif,serif" font-size="14.00">id</text>
<polygon fill="none" stroke="black" points="612,-510.5 612,-533 973.5,-533 973.5,-510.5 612,-510.5"/>
<text text-anchor="start" x="786" y="-516.7" font-family="Times New Roman,Times,Liberation Serif,serif" font-size="14.00">str</text>
<polygon fill="none" stroke="black" points="973.5,-510.5 973.5,-533 1041.75,-533 1041.75,-510.5 973.5,-510.5"/>
<text text-anchor="start" x="992.25" y="-516.7" font-family="Times New Roman,Times,Liberation Serif,serif" font-size="14.00">string</text>
<polygon fill="none" stroke="black" points="479.25,-488 479.25,-510.5 612,-510.5 612,-488 479.25,-488"/>
<text text-anchor="start" x="532.5" y="-494.2" font-family="Times New Roman,Times,Liberation Serif,serif" font-size="14.00">label</text>
<polygon fill="none" stroke="black" points="612,-488 612,-510.5 973.5,-510.5 973.5,-488 612,-488"/>
<text text-anchor="start" x="757.88" y="-494.2" font-family="Times New Roman,Times,Liberation Serif,serif" font-size="14.00">Optional[str]</text>
<polygon fill="none" stroke="black" points="973.5,-488 973.5,-510.5 1041.75,-510.5 1041.75,-488 973.5,-488"/>
<text text-anchor="start" x="976.5" y="-494.2" font-family="Times New Roman,Times,Liberation Serif,serif" font-size="14.00">string | null</text>
<polygon fill="none" stroke="black" points="479.25,-465.5 479.25,-488 612,-488 612,-465.5 479.25,-465.5"/>
<text text-anchor="start" x="515.62" y="-471.7" font-family="Times New Roman,Times,Liberation Serif,serif" font-size="14.00">description</text>
<polygon fill="none" stroke="black" points="612,-465.5 612,-488 973.5,-488 973.5,-465.5 612,-465.5"/>
<text text-anchor="start" x="757.88" y="-471.7" font-family="Times New Roman,Times,Liberation Serif,serif" font-size="14.00">Optional[str]</text>
<polygon fill="none" stroke="black" points="973.5,-465.5 973.5,-488 1041.75,-488 1041.75,-465.5 973.5,-465.5"/>
<text text-anchor="start" x="976.5" y="-471.7" font-family="Times New Roman,Times,Liberation Serif,serif" font-size="14.00">string | null</text>
<polygon fill="none" stroke="black" points="479.25,-443 479.25,-465.5 612,-465.5 612,-443 479.25,-443"/>
<text text-anchor="start" x="517.12" y="-449.2" font-family="Times New Roman,Times,Liberation Serif,serif" font-size="14.00">comments</text>
<polygon fill="none" stroke="black" points="612,-443 612,-465.5 973.5,-465.5 973.5,-443 612,-443"/>
<text text-anchor="start" x="757.88" y="-449.2" font-family="Times New Roman,Times,Liberation Serif,serif" font-size="14.00">Optional[str]</text>
<polygon fill="none" stroke="black" points="973.5,-443 973.5,-465.5 1041.75,-465.5 1041.75,-443 973.5,-443"/>
<text text-anchor="start" x="976.5" y="-449.2" font-family="Times New Roman,Times,Liberation Serif,serif" font-size="14.00">string | null</text>
<polygon fill="none" stroke="black" points="479.25,-420.5 479.25,-443 612,-443 612,-420.5 479.25,-420.5"/>
<text text-anchor="start" x="510" y="-426.7" font-family="Times New Roman,Times,Liberation Serif,serif" font-size="14.00">classification</text>
<polygon fill="none" stroke="black" points="612,-420.5 612,-443 973.5,-443 973.5,-420.5 612,-420.5"/>
<text text-anchor="start" x="615" y="-426.7" font-family="Times New Roman,Times,Liberation Serif,serif" font-size="14.00">SingleSourceDatasetClassification | DerivedDatasetClassification</text>
<polygon fill="none" stroke="black" points="973.5,-420.5 973.5,-443 1041.75,-443 1041.75,-420.5 973.5,-420.5"/>
<polygon fill="none" stroke="black" points="479.25,-398 479.25,-420.5 612,-420.5 612,-398 479.25,-398"/>
<text text-anchor="start" x="482.25" y="-404.2" font-family="Times New Roman,Times,Liberation Serif,serif" font-size="14.00">supplying_organisation</text>
<polygon fill="none" stroke="black" points="612,-398 612,-420.5 973.5,-420.5 973.5,-398 612,-398"/>
<text text-anchor="start" x="757.88" y="-404.2" font-family="Times New Roman,Times,Liberation Serif,serif" font-size="14.00">Organisation</text>
<polygon fill="none" stroke="black" points="973.5,-398 973.5,-420.5 1041.75,-420.5 1041.75,-398 973.5,-398"/>
<text text-anchor="start" x="991.12" y="-404.2" font-family="Times New Roman,Times,Liberation Serif,serif" font-size="14.00">object</text>
<polygon fill="none" stroke="black" points="479.25,-375.5 479.25,-398 612,-398 612,-375.5 479.25,-375.5"/>
<text text-anchor="start" x="488.25" y="-381.7" font-family="Times New Roman,Times,Liberation Serif,serif" font-size="14.00">integrity_verification</text>
<polygon fill="none" stroke="black" points="612,-375.5 612,-398 973.5,-398 973.5,-375.5 612,-375.5"/>
<text text-anchor="start" x="757.88" y="-381.7" font-family="Times New Roman,Times,Liberation Serif,serif" font-size="14.00">Optional[str]</text>
<polygon fill="none" stroke="black" points="973.5,-375.5 973.5,-398 1041.75,-398 1041.75,-375.5 973.5,-375.5"/>
<text text-anchor="start" x="976.5" y="-381.7" font-family="Times New Roman,Times,Liberation Serif,serif" font-size="14.00">string | null</text>
<polygon fill="none" stroke="black" points="479.25,-353 479.25,-375.5 612,-375.5 612,-353 479.25,-353"/>
<text text-anchor="start" x="502.88" y="-359.2" font-family="Times New Roman,Times,Liberation Serif,serif" font-size="14.00">time_resolution</text>
<polygon fill="none" stroke="black" points="612,-353 612,-375.5 973.5,-375.5 973.5,-353 612,-353"/>
<text text-anchor="start" x="720.75" y="-359.2" font-family="Times New Roman,Times,Liberation Serif,serif" font-size="14.00">Optional[TimeResolution]</text>
<polygon fill="none" stroke="black" points="973.5,-353 973.5,-375.5 1041.75,-375.5 1041.75,-353 973.5,-353"/>
<text text-anchor="start" x="997.12" y="-359.2" font-family="Times New Roman,Times,Liberation Serif,serif" font-size="14.00">null</text>
<polygon fill="none" stroke="black" points="479.25,-330.5 479.25,-353 612,-353 612,-330.5 479.25,-330.5"/>
<text text-anchor="start" x="519.38" y="-336.7" font-family="Times New Roman,Times,Liberation Serif,serif" font-size="14.00">start_date</text>
<polygon fill="none" stroke="black" points="612,-330.5 612,-353 973.5,-353 973.5,-330.5 612,-330.5"/>
<text text-anchor="start" x="781.5" y="-336.7" font-family="Times New Roman,Times,Liberation Serif,serif" font-size="14.00">date</text>
<polygon fill="none" stroke="black" points="973.5,-330.5 973.5,-353 1041.75,-353 1041.75,-330.5 973.5,-330.5"/>
<text text-anchor="start" x="992.25" y="-336.7" font-family="Times New Roman,Times,Liberation Serif,serif" font-size="14.00">string</text>
<polygon fill="none" stroke="black" points="479.25,-308 479.25,-330.5 612,-330.5 612,-308 479.25,-308"/>
<text text-anchor="start" x="521.25" y="-314.2" font-family="Times New Roman,Times,Liberation Serif,serif" font-size="14.00">end_date</text>
<polygon fill="none" stroke="black" points="612,-308 612,-330.5 973.5,-330.5 973.5,-308 612,-308"/>
<text text-anchor="start" x="781.5" y="-314.2" font-family="Times New Roman,Times,Liberation Serif,serif" font-size="14.00">date</text>
<polygon fill="none" stroke="black" points="973.5,-308 973.5,-330.5 1041.75,-330.5 1041.75,-308 973.5,-308"/>
<text text-anchor="start" x="992.25" y="-314.2" font-family="Times New Roman,Times,Liberation Serif,serif" font-size="14.00">string</text>
<polygon fill="none" stroke="black" points="479.25,-285.5 479.25,-308 612,-308 612,-285.5 479.25,-285.5"/>
<text text-anchor="start" x="506.62" y="-291.7" font-family="Times New Roman,Times,Liberation Serif,serif" font-size="14.00">data_variables</text>
<polygon fill="none" stroke="black" points="612,-285.5 612,-308 973.5,-308 973.5,-285.5 612,-285.5"/>
<text text-anchor="start" x="712.88" y="-291.7" font-family="Times New Roman,Times,Liberation Serif,serif" font-size="14.00">list[OperationalDataVariable]</text>
<polygon fill="none" stroke="black" points="973.5,-285.5 973.5,-308 1041.75,-308 1041.75,-285.5 973.5,-285.5"/>
<text text-anchor="start" x="993.75" y="-291.7" font-family="Times New Roman,Times,Liberation Serif,serif" font-size="14.00">array</text>
</a>
</g>
</g>
<!-- eya_def_tools.data_models.reference_wind_farm.OperationalDatasetMetadata&#45;&gt;eya_def_tools.data_models.general.Organisation -->
<g id="edge2" class="edge">
<title>eya_def_tools.data_models.reference_wind_farm.OperationalDatasetMetadata:e&#45;&gt;eya_def_tools.data_models.general.Organisation:w</title>
<path fill="none" stroke="black" d="M1051.49,-409.25C1136,-409.27 1163.79,-409.48 1246.03,-409.5"/>
<polyline fill="none" stroke="black" points="1041.75,-409.25 1046.75,-409.25"/>
<polyline fill="none" stroke="black" points="1046.75,-409.25 1051.75,-409.25"/>
<polyline fill="none" stroke="black" points="1260.88,-409.5 1255.88,-409.5"/>
<polygon fill="black" stroke="black" points="1254.88,-404.5 1254.87,-414.5 1252.87,-414.5 1252.88,-404.5 1254.88,-404.5"/>
<polyline fill="none" stroke="black" points="1255.88,-409.5 1250.88,-409.5"/>
<polygon fill="black" stroke="black" points="1249.88,-404.5 1249.87,-414.5 1247.87,-414.5 1247.88,-404.5 1249.88,-404.5"/>
<polyline fill="none" stroke="black" points="1250.88,-409.5 1245.88,-409.5"/>
</g>
<!-- eya_def_tools.data_models.reference_wind_farm.OperationalDatasetMetadata&#45;&gt;eya_def_tools.data_models.general.TimeResolution -->
<g id="edge3" class="edge">
<title>eya_def_tools.data_models.reference_wind_farm.OperationalDatasetMetadata:e&#45;&gt;eya_def_tools.data_models.general.TimeResolution:w</title>
<path fill="none" stroke="black" d="M1051.65,-363.69C1099.59,-358.05 1099.06,-310.81 1149.75,-290.5 1337.9,-215.12 1411.78,-292.32 1599.75,-216.5 1647.28,-197.33 1649.64,-154.31 1689.11,-144.17"/>
<polyline fill="none" stroke="black" points="1041.75,-364.25 1046.74,-363.97"/>
<polyline fill="none" stroke="black" points="1046.74,-363.97 1051.73,-363.69"/>
<polyline fill="none" stroke="black" points="1707.75,-142 1702.78,-142.58"/>
<polygon fill="black" stroke="black" points="1701.21,-137.73 1702.37,-147.66 1700.38,-147.89 1699.23,-137.96 1701.21,-137.73"/>
<polyline fill="none" stroke="black" points="1702.78,-142.58 1697.82,-143.16"/>
<ellipse fill="none" stroke="black" cx="1693.35" cy="-143.68" rx="4" ry="4"/>
</g>
<!-- eya_def_tools.data_models.reference_wind_farm.OperationalDatasetMetadata&#45;&gt;eya_def_tools.data_models.reference_wind_farm.DerivedDatasetClassification -->
<g id="edge4" class="edge">
<title>eya_def_tools.data_models.reference_wind_farm.OperationalDatasetMetadata:e&#45;&gt;eya_def_tools.data_models.reference_wind_farm.DerivedDatasetClassification:w</title>
<path fill="none" stroke="black" d="M1051.61,-432.25C1109.4,-438.35 1100.62,-499.54 1149.75,-542.5 1187.46,-575.47 1193.54,-609.6 1235.16,-615.95"/>
<polyline fill="none" stroke="black" points="1041.75,-431.75 1046.74,-432"/>
<polyline fill="none" stroke="black" points="1046.74,-432 1051.74,-432.25"/>
<polyline fill="none" stroke="black" points="1250,-617 1245.01,-616.65"/>
<polygon fill="black" stroke="black" points="1244.37,-611.59 1243.66,-621.56 1241.67,-621.42 1242.37,-611.45 1244.37,-611.59"/>
<polyline fill="none" stroke="black" points="1245.01,-616.65 1240.02,-616.29"/>
<polygon fill="black" stroke="black" points="1239.38,-611.24 1238.67,-621.21 1236.68,-621.07 1237.38,-611.1 1239.38,-611.24"/>
<polyline fill="none" stroke="black" points="1240.02,-616.29 1235.04,-615.94"/>
</g>
<!-- eya_def_tools.data_models.reference_wind_farm.OperationalDatasetMetadata&#45;&gt;eya_def_tools.data_models.reference_wind_farm.OperationalDataVariable -->
<g id="edge5" class="edge">
<title>eya_def_tools.data_models.reference_wind_farm.OperationalDatasetMetadata:e&#45;&gt;eya_def_tools.data_models.reference_wind_farm.OperationalDataVariable:w</title>
<path fill="none" stroke="black" d="M1051.72,-296.26C1125.09,-288.86 1124.16,-199.52 1194.14,-188.39"/>
<polyline fill="none" stroke="black" points="1041.75,-296.75 1046.74,-296.51"/>
<polyline fill="none" stroke="black" points="1046.74,-296.51 1051.74,-296.26"/>
<polygon fill="black" stroke="black" points="1198.82,-188.03 1209.13,-191.76 1204.14,-187.63 1208.46,-187.3 1208.46,-187.3 1208.46,-187.3 1204.14,-187.63 1208.45,-182.79 1198.82,-188.03"/>
<polyline fill="none" stroke="black" points="1197.61,-188.12 1192.62,-188.5"/>
</g>
<!-- eya_def_tools.data_models.reference_wind_farm.SingleSourceDatasetClassification -->
<g id="node6" class="node">
<title>eya_def_tools.data_models.reference_wind_farm.SingleSourceDatasetClassification</title>
<g id="a_node6"><a xlink:title="eya_def_tools.data_models.reference_wind_farm.SingleSourceDatasetClassification&#10;&#10;Classification of an operational dataset from a single source.&#10;&#10;Fields:&#10; &#160;&#160;&#160;data_type: The type of operational data, categorised as &#39;scada&#39; for data from a Supervisory Control and Data Acquisition (SCADA) system, &#39;metered&#39; for data from a production meter and &#39;environmental_measurement&#39; for data from an (on&#45;site) environmental measurement station such as a meteorological mast or a remote sensing device (RSD).&#10; &#160;&#160;&#160;data_source_type: The type of the operational data source. Primary data, such as primary SCADA data, comes directly from the source without any intermediary. Secondary data covers all other types of data sources, where the data does not come directly from the source, such as secondary SCADA data provided in harmonised form by a data management service provider.&#10;">
<polygon fill="none" stroke="black" points="1149.75,-501.75 1149.75,-524.25 1599.75,-524.25 1599.75,-501.75 1149.75,-501.75"/>
<text text-anchor="start" x="1276.5" y="-508.95" font-family="Times New Roman,Times,Liberation Serif,serif" font-weight="bold" font-size="14.00">SingleSourceDatasetClassification</text>
<polygon fill="none" stroke="black" points="1149.75,-479.25 1149.75,-501.75 1250.25,-501.75 1250.25,-479.25 1149.75,-479.25"/>
<text text-anchor="start" x="1173.75" y="-485.45" font-family="Times New Roman,Times,Liberation Serif,serif" font-size="14.00">data_type</text>
<polygon fill="none" stroke="black" points="1250.25,-479.25 1250.25,-501.75 1563,-501.75 1563,-479.25 1250.25,-479.25"/>
<text text-anchor="start" x="1253.25" y="-485.45" font-family="Times New Roman,Times,Liberation Serif,serif" font-size="14.00">Literal[&#39;scada&#39;, &#39;metered&#39;, &#39;environmental_measurement&#39;]</text>
<polygon fill="none" stroke="black" points="1563,-479.25 1563,-501.75 1599.75,-501.75 1599.75,-479.25 1563,-479.25"/>
<text text-anchor="start" x="1566" y="-485.45" font-family="Times New Roman,Times,Liberation Serif,serif" font-size="14.00">string</text>
<polygon fill="none" stroke="black" points="1149.75,-456.75 1149.75,-479.25 1250.25,-479.25 1250.25,-456.75 1149.75,-456.75"/>
<text text-anchor="start" x="1152.75" y="-462.95" font-family="Times New Roman,Times,Liberation Serif,serif" font-size="14.00">data_source_type</text>
<polygon fill="none" stroke="black" points="1250.25,-456.75 1250.25,-479.25 1563,-479.25 1563,-456.75 1250.25,-456.75"/>
<text text-anchor="start" x="1329.75" y="-462.95" font-family="Times New Roman,Times,Liberation Serif,serif" font-size="14.00">OperationalDataSourceType</text>
<polygon fill="none" stroke="black" points="1563,-456.75 1563,-479.25 1599.75,-479.25 1599.75,-456.75 1563,-456.75"/>
<text text-anchor="start" x="1566" y="-462.95" font-family="Times New Roman,Times,Liberation Serif,serif" font-size="14.00">string</text>
</a>
</g>
</g>
<!-- eya_def_tools.data_models.reference_wind_farm.OperationalDatasetMetadata&#45;&gt;eya_def_tools.data_models.reference_wind_farm.SingleSourceDatasetClassification -->
<g id="edge6" class="edge">
<title>eya_def_tools.data_models.reference_wind_farm.OperationalDatasetMetadata:e&#45;&gt;eya_def_tools.data_models.reference_wind_farm.SingleSourceDatasetClassification:w</title>
<path fill="none" stroke="black" d="M1051.59,-432.55C1095.85,-440.17 1094.12,-499.54 1134.9,-511.07"/>
<polyline fill="none" stroke="black" points="1041.75,-431.75 1046.73,-432.16"/>
<polyline fill="none" stroke="black" points="1046.73,-432.16 1051.72,-432.56"/>
<polyline fill="none" stroke="black" points="1149.75,-513 1144.79,-512.35"/>
<polygon fill="black" stroke="black" points="1144.45,-507.27 1143.15,-517.18 1141.17,-516.92 1142.46,-507.01 1144.45,-507.27"/>
<polyline fill="none" stroke="black" points="1144.79,-512.35 1139.83,-511.71"/>
<polygon fill="black" stroke="black" points="1139.49,-506.62 1138.2,-516.54 1136.21,-516.28 1137.5,-506.36 1139.49,-506.62"/>
<polyline fill="none" stroke="black" points="1139.83,-511.71 1134.88,-511.06"/>
</g>
<!-- eya_def_tools.data_models.reference_wind_farm.ReferenceWindFarm -->
<g id="node7" class="node">
<title>eya_def_tools.data_models.reference_wind_farm.ReferenceWindFarm</title>
<g id="a_node7"><a xlink:title="eya_def_tools.data_models.reference_wind_farm.ReferenceWindFarm&#10;&#10;Reference wind farm.&#10;&#10;Fields:&#10; &#160;&#160;&#160;wind_farm_id: The ID of the wind farm that was used as reference, which must match the ID value in the &#39;wind_farms&#39; section of the top&#45;level of the EYA DEF document.&#10; &#160;&#160;&#160;description: Optional description of the reference wind farm, which should not be empty if the field is included. Default is None.&#10; &#160;&#160;&#160;comments: Optional comments on the reference wind farm, which should not be empty if the field is included. Default is None.&#10; &#160;&#160;&#160;operational_datasets: List of metadata documents describing the operational datasets from the reference wind farm that were used.&#10;">
<polygon fill="none" stroke="black" points="0,-622.25 0,-644.75 371.25,-644.75 371.25,-622.25 0,-622.25"/>
<text text-anchor="start" x="124.12" y="-629.45" font-family="Times New Roman,Times,Liberation Serif,serif" font-weight="bold" font-size="14.00">ReferenceWindFarm</text>
<polygon fill="none" stroke="black" points="0,-599.75 0,-622.25 116.25,-622.25 116.25,-599.75 0,-599.75"/>
<text text-anchor="start" x="19.5" y="-605.95" font-family="Times New Roman,Times,Liberation Serif,serif" font-size="14.00">wind_farm_id</text>
<polygon fill="none" stroke="black" points="116.25,-599.75 116.25,-622.25 303,-622.25 303,-599.75 116.25,-599.75"/>
<text text-anchor="start" x="202.88" y="-605.95" font-family="Times New Roman,Times,Liberation Serif,serif" font-size="14.00">str</text>
<polygon fill="none" stroke="black" points="303,-599.75 303,-622.25 371.25,-622.25 371.25,-599.75 303,-599.75"/>
<text text-anchor="start" x="321.75" y="-605.95" font-family="Times New Roman,Times,Liberation Serif,serif" font-size="14.00">string</text>
<polygon fill="none" stroke="black" points="0,-577.25 0,-599.75 116.25,-599.75 116.25,-577.25 0,-577.25"/>
<text text-anchor="start" x="28.12" y="-583.45" font-family="Times New Roman,Times,Liberation Serif,serif" font-size="14.00">description</text>
<polygon fill="none" stroke="black" points="116.25,-577.25 116.25,-599.75 303,-599.75 303,-577.25 116.25,-577.25"/>
<text text-anchor="start" x="174.75" y="-583.45" font-family="Times New Roman,Times,Liberation Serif,serif" font-size="14.00">Optional[str]</text>
<polygon fill="none" stroke="black" points="303,-577.25 303,-599.75 371.25,-599.75 371.25,-577.25 303,-577.25"/>
<text text-anchor="start" x="306" y="-583.45" font-family="Times New Roman,Times,Liberation Serif,serif" font-size="14.00">string | null</text>
<polygon fill="none" stroke="black" points="0,-554.75 0,-577.25 116.25,-577.25 116.25,-554.75 0,-554.75"/>
<text text-anchor="start" x="29.62" y="-560.95" font-family="Times New Roman,Times,Liberation Serif,serif" font-size="14.00">comments</text>
<polygon fill="none" stroke="black" points="116.25,-554.75 116.25,-577.25 303,-577.25 303,-554.75 116.25,-554.75"/>
<text text-anchor="start" x="174.75" y="-560.95" font-family="Times New Roman,Times,Liberation Serif,serif" font-size="14.00">Optional[str]</text>
<polygon fill="none" stroke="black" points="303,-554.75 303,-577.25 371.25,-577.25 371.25,-554.75 303,-554.75"/>
<text text-anchor="start" x="306" y="-560.95" font-family="Times New Roman,Times,Liberation Serif,serif" font-size="14.00">string | null</text>
<polygon fill="none" stroke="black" points="0,-532.25 0,-554.75 116.25,-554.75 116.25,-532.25 0,-532.25"/>
<text text-anchor="start" x="3" y="-538.45" font-family="Times New Roman,Times,Liberation Serif,serif" font-size="14.00">operational_datasets</text>
<polygon fill="none" stroke="black" points="116.25,-532.25 116.25,-554.75 303,-554.75 303,-532.25 116.25,-532.25"/>
<text text-anchor="start" x="119.25" y="-538.45" font-family="Times New Roman,Times,Liberation Serif,serif" font-size="14.00">list[OperationalDatasetMetadata]</text>
<polygon fill="none" stroke="black" points="303,-532.25 303,-554.75 371.25,-554.75 371.25,-532.25 303,-532.25"/>
<text text-anchor="start" x="323.25" y="-538.45" font-family="Times New Roman,Times,Liberation Serif,serif" font-size="14.00">array</text>
</a>
</g>
</g>
<!-- eya_def_tools.data_models.reference_wind_farm.ReferenceWindFarm&#45;&gt;eya_def_tools.data_models.reference_wind_farm.OperationalDatasetMetadata -->
<g id="edge7" class="edge">
<title>eya_def_tools.data_models.reference_wind_farm.ReferenceWindFarm:e&#45;&gt;eya_def_tools.data_models.reference_wind_farm.OperationalDatasetMetadata:w</title>
<path fill="none" stroke="black" d="M381.12,-543.51C416.17,-543.59 430.92,-544.1 463.89,-544.22"/>
<polyline fill="none" stroke="black" points="371.25,-543.5 376.25,-543.51"/>
<polyline fill="none" stroke="black" points="376.25,-543.51 381.25,-543.51"/>
<polygon fill="black" stroke="black" points="468.92,-544.23 478.91,-548.75 474.25,-544.24 478.58,-544.25 478.58,-544.25 478.58,-544.25 474.25,-544.24 478.92,-539.75 468.92,-544.23"/>
<polyline fill="none" stroke="black" points="467.7,-544.23 462.7,-544.22"/>
</g>
</g>
</svg>
