<?xml version="1.0" encoding="UTF-8" standalone="no"?>
<!DOCTYPE svg PUBLIC "-//W3C//DTD SVG 1.1//EN"
 "http://www.w3.org/Graphics/SVG/1.1/DTD/svg11.dtd">
<!-- Generated by graphviz version 7.0.4 (20221203.1631)
 -->
<!-- Title: Entity Relationship Diagram Pages: 1 -->
<svg width="984pt" height="258pt"
 viewBox="0.00 0.00 984.00 258.00" xmlns="http://www.w3.org/2000/svg" xmlns:xlink="http://www.w3.org/1999/xlink">
<g id="graph0" class="graph" transform="scale(1 1) rotate(0) translate(4 254)">
<title>Entity Relationship Diagram</title>
<polygon fill="white" stroke="none" points="-4,4 -4,-254 980,-254 980,4 -4,4"/>
<text text-anchor="middle" x="488" y="-6.8" font-family="Times New Roman,serif" font-size="9.00" fill="#a8a8a8">Created by erdantic v0.5.0 &lt;https://github.com/drivendataorg/erdantic&gt;</text>
<!-- eya_def_tools.data_models.result.Result -->
<g id="node1" class="node">
<title>eya_def_tools.data_models.result.Result</title>
<g id="a_node1"><a xlink:title="eya_def_tools.data_models.result.Result&#10;&#10;Collection of results a quantity along specific dimensions.&#10;&#10;Attributes:&#10; &#160;&#160;&#160;label (Optional[str]): Label of the results. Default is None.&#10; &#160;&#160;&#160;description (Optional[str]): Description of the data object. Default is None.&#10; &#160;&#160;&#160;comments (Optional[str]): Comments on the data object. Default is None.&#10; &#160;&#160;&#160;assessment_period (Optional[AssessmentPeriod(StrEnum)]): Period of or in time that has been assessed and for which the results are applicable. Default is None.&#10; &#160;&#160;&#160;dimensions (Optional[tuple[ResultsDimension(StrEnum), ...]]): Dimensions along which the results are binned (all result values in the same results object must have the same dimensions). Default is None.&#10; &#160;&#160;&#160;statistics (list[ResultStatistic]): List of result statistic objects that each include result values for a specific statistic type.&#10;">
<polygon fill="none" stroke="black" points="0,-228.5 0,-249.5 390,-249.5 390,-228.5 0,-228.5"/>
<text text-anchor="start" x="175" y="-236.3" font-family="Times New Roman,serif" font-weight="bold" font-size="14.00">Result</text>
<polygon fill="none" stroke="black" points="0,-207.5 0,-228.5 113,-228.5 113,-207.5 0,-207.5"/>
<text text-anchor="start" x="43.5" y="-214.3" font-family="Times New Roman,serif" font-size="14.00">label</text>
<polygon fill="none" stroke="black" points="113,-207.5 113,-228.5 390,-228.5 390,-207.5 113,-207.5"/>
<text text-anchor="start" x="215.5" y="-214.3" font-family="Times New Roman,serif" font-size="14.00">Optional[str]</text>
<polygon fill="none" stroke="black" points="0,-186.5 0,-207.5 113,-207.5 113,-186.5 0,-186.5"/>
<text text-anchor="start" x="25" y="-193.3" font-family="Times New Roman,serif" font-size="14.00">description</text>
<polygon fill="none" stroke="black" points="113,-186.5 113,-207.5 390,-207.5 390,-186.5 113,-186.5"/>
<text text-anchor="start" x="215.5" y="-193.3" font-family="Times New Roman,serif" font-size="14.00">Optional[str]</text>
<polygon fill="none" stroke="black" points="0,-165.5 0,-186.5 113,-186.5 113,-165.5 0,-165.5"/>
<text text-anchor="start" x="27.5" y="-172.3" font-family="Times New Roman,serif" font-size="14.00">comments</text>
<polygon fill="none" stroke="black" points="113,-165.5 113,-186.5 390,-186.5 390,-165.5 113,-165.5"/>
<text text-anchor="start" x="215.5" y="-172.3" font-family="Times New Roman,serif" font-size="14.00">Optional[str]</text>
<polygon fill="none" stroke="black" points="0,-144.5 0,-165.5 113,-165.5 113,-144.5 0,-144.5"/>
<text text-anchor="start" x="3" y="-151.3" font-family="Times New Roman,serif" font-size="14.00">assessment_period</text>
<polygon fill="none" stroke="black" points="113,-144.5 113,-165.5 390,-165.5 390,-144.5 113,-144.5"/>
<text text-anchor="start" x="142" y="-151.3" font-family="Times New Roman,serif" font-size="14.00">Optional[AssessmentPeriod(StrEnum)]</text>
<polygon fill="none" stroke="black" points="0,-123.5 0,-144.5 113,-144.5 113,-123.5 0,-123.5"/>
<text text-anchor="start" x="24.5" y="-130.3" font-family="Times New Roman,serif" font-size="14.00">dimensions</text>
<polygon fill="none" stroke="black" points="113,-123.5 113,-144.5 390,-144.5 390,-123.5 113,-123.5"/>
<text text-anchor="start" x="116" y="-130.3" font-family="Times New Roman,serif" font-size="14.00">Optional[tuple[ResultsDimension(StrEnum), ...]]</text>
<polygon fill="none" stroke="black" points="0,-102.5 0,-123.5 113,-123.5 113,-102.5 0,-102.5"/>
<text text-anchor="start" x="32" y="-109.3" font-family="Times New Roman,serif" font-size="14.00">statistics</text>
<polygon fill="none" stroke="black" points="113,-102.5 113,-123.5 390,-123.5 390,-102.5 113,-102.5"/>
<text text-anchor="start" x="199" y="-109.3" font-family="Times New Roman,serif" font-size="14.00">list[ResultStatistic]</text>
</a>
</g>
</g>
<!-- eya_def_tools.data_models.result.ResultStatistic -->
<g id="node2" class="node">
<title>eya_def_tools.data_models.result.ResultStatistic</title>
<g id="a_node2"><a xlink:title="eya_def_tools.data_models.result.ResultStatistic&#10;&#10;Result values for one specific statistic type.&#10;&#10;Attributes:&#10; &#160;&#160;&#160;description (Optional[str]): Description of the data object. Default is None.&#10; &#160;&#160;&#160;comments (Optional[str]): Comments on the data object. Default is None.&#10; &#160;&#160;&#160;statistic_type (StatisticType(StrEnum)): Type of statistic in the results component.&#10; &#160;&#160;&#160;values (UnionType[float, list[tuple[tuple[UnionType[float, int, str], ...], float]]]): Result as a single number or values at coordinates.&#10;">
<polygon fill="none" stroke="black" points="498,-101.5 498,-122.5 976,-122.5 976,-101.5 498,-101.5"/>
<text text-anchor="start" x="692.5" y="-109.3" font-family="Times New Roman,serif" font-weight="bold" font-size="14.00">ResultStatistic</text>
<polygon fill="none" stroke="black" points="498,-80.5 498,-101.5 578,-101.5 578,-80.5 498,-80.5"/>
<text text-anchor="start" x="506.5" y="-87.3" font-family="Times New Roman,serif" font-size="14.00">description</text>
<polygon fill="none" stroke="black" points="578,-80.5 578,-101.5 976,-101.5 976,-80.5 578,-80.5"/>
<text text-anchor="start" x="741" y="-87.3" font-family="Times New Roman,serif" font-size="14.00">Optional[str]</text>
<polygon fill="none" stroke="black" points="498,-59.5 498,-80.5 578,-80.5 578,-59.5 498,-59.5"/>
<text text-anchor="start" x="509" y="-66.3" font-family="Times New Roman,serif" font-size="14.00">comments</text>
<polygon fill="none" stroke="black" points="578,-59.5 578,-80.5 976,-80.5 976,-59.5 578,-59.5"/>
<text text-anchor="start" x="741" y="-66.3" font-family="Times New Roman,serif" font-size="14.00">Optional[str]</text>
<polygon fill="none" stroke="black" points="498,-38.5 498,-59.5 578,-59.5 578,-38.5 498,-38.5"/>
<text text-anchor="start" x="501" y="-45.3" font-family="Times New Roman,serif" font-size="14.00">statistic_type</text>
<polygon fill="none" stroke="black" points="578,-38.5 578,-59.5 976,-59.5 976,-38.5 578,-38.5"/>
<text text-anchor="start" x="711" y="-45.3" font-family="Times New Roman,serif" font-size="14.00">StatisticType(StrEnum)</text>
<polygon fill="none" stroke="black" points="498,-17.5 498,-38.5 578,-38.5 578,-17.5 498,-17.5"/>
<text text-anchor="start" x="520.5" y="-24.3" font-family="Times New Roman,serif" font-size="14.00">values</text>
<polygon fill="none" stroke="black" points="578,-17.5 578,-38.5 976,-38.5 976,-17.5 578,-17.5"/>
<text text-anchor="start" x="581" y="-24.3" font-family="Times New Roman,serif" font-size="14.00">UnionType[float, list[tuple[tuple[UnionType[float, int, str], ...], float]]]</text>
</a>
</g>
</g>
<!-- eya_def_tools.data_models.result.Result&#45;&gt;eya_def_tools.data_models.result.ResultStatistic -->
<g id="edge1" class="edge">
<title>eya_def_tools.data_models.result.Result:e&#45;&gt;eya_def_tools.data_models.result.ResultStatistic:w</title>
<path fill="none" stroke="black" d="M390,-112.5C431.06,-112.5 445.78,-112.5 479.23,-112.5"/>
<polygon fill="black" stroke="black" points="488,-112.5 498,-117 493,-112.5 498,-112.5 498,-112.5 498,-112.5 493,-112.5 498,-108 488,-112.5 488,-112.5"/>
<ellipse fill="none" stroke="black" cx="483.5" cy="-112.5" rx="4" ry="4"/>
</g>
</g>
</svg>
