<?xml version="1.0" encoding="UTF-8" standalone="no"?>
<!DOCTYPE svg PUBLIC "-//W3C//DTD SVG 1.1//EN"
 "http://www.w3.org/Graphics/SVG/1.1/DTD/svg11.dtd">
<!-- Generated by graphviz version 7.0.4 (20221203.1631)
 -->
<!-- Title: Entity Relationship Diagram Pages: 1 -->
<svg width="924pt" height="258pt"
 viewBox="0.00 0.00 924.00 258.00" xmlns="http://www.w3.org/2000/svg" xmlns:xlink="http://www.w3.org/1999/xlink">
<g id="graph0" class="graph" transform="scale(1 1) rotate(0) translate(4 254)">
<title>Entity Relationship Diagram</title>
<polygon fill="white" stroke="none" points="-4,4 -4,-254 920,-254 920,4 -4,4"/>
<text text-anchor="middle" x="458" y="-6.8" font-family="Times New Roman,serif" font-size="9.00" fill="#a8a8a8">Created by erdantic v0.6.0 &lt;https://github.com/drivendataorg/erdantic&gt;</text>
<!-- eya_def_tools.data_models.result.Result -->
<g id="node1" class="node">
<title>eya_def_tools.data_models.result.Result</title>
<g id="a_node1"><a xlink:title="eya_def_tools.data_models.result.Result&#10;&#10;Collection of results a quantity along specific dimensions.&#10;&#10;Attributes:&#10; &#160;&#160;&#160;label (Optional[str]): Label of the results. Default is None.&#10; &#160;&#160;&#160;description (Optional[str]): Optional description of the result. Default is None.&#10; &#160;&#160;&#160;comments (Optional[str]): Optional comments on the result. Default is None.&#10; &#160;&#160;&#160;assessment_period (Optional[AssessmentPeriod(StrEnum)]): Period of or in time that has been assessed and for which the results are applicable. Default is None.&#10; &#160;&#160;&#160;dimensions (Optional[list[ResultsDimension(StrEnum)]]): Dimensions along which the results are binned (all result values in the same results object must have the same dimensions). Default is None.&#10; &#160;&#160;&#160;statistics (list[ResultStatistic]): List of result statistic objects that each include result values for a specific statistic type.&#10;">
<polygon fill="none" stroke="black" points="0,-228.5 0,-249.5 360,-249.5 360,-228.5 0,-228.5"/>
<text text-anchor="start" x="160" y="-236.3" font-family="Times New Roman,serif" font-weight="bold" font-size="14.00">Result</text>
<polygon fill="none" stroke="black" points="0,-207.5 0,-228.5 113,-228.5 113,-207.5 0,-207.5"/>
<text text-anchor="start" x="43.5" y="-214.3" font-family="Times New Roman,serif" font-size="14.00">label</text>
<polygon fill="none" stroke="black" points="113,-207.5 113,-228.5 360,-228.5 360,-207.5 113,-207.5"/>
<text text-anchor="start" x="200.5" y="-214.3" font-family="Times New Roman,serif" font-size="14.00">Optional[str]</text>
<polygon fill="none" stroke="black" points="0,-186.5 0,-207.5 113,-207.5 113,-186.5 0,-186.5"/>
<text text-anchor="start" x="25" y="-193.3" font-family="Times New Roman,serif" font-size="14.00">description</text>
<polygon fill="none" stroke="black" points="113,-186.5 113,-207.5 360,-207.5 360,-186.5 113,-186.5"/>
<text text-anchor="start" x="200.5" y="-193.3" font-family="Times New Roman,serif" font-size="14.00">Optional[str]</text>
<polygon fill="none" stroke="black" points="0,-165.5 0,-186.5 113,-186.5 113,-165.5 0,-165.5"/>
<text text-anchor="start" x="27.5" y="-172.3" font-family="Times New Roman,serif" font-size="14.00">comments</text>
<polygon fill="none" stroke="black" points="113,-165.5 113,-186.5 360,-186.5 360,-165.5 113,-165.5"/>
<text text-anchor="start" x="200.5" y="-172.3" font-family="Times New Roman,serif" font-size="14.00">Optional[str]</text>
<polygon fill="none" stroke="black" points="0,-144.5 0,-165.5 113,-165.5 113,-144.5 0,-144.5"/>
<text text-anchor="start" x="3" y="-151.3" font-family="Times New Roman,serif" font-size="14.00">assessment_period</text>
<polygon fill="none" stroke="black" points="113,-144.5 113,-165.5 360,-165.5 360,-144.5 113,-144.5"/>
<text text-anchor="start" x="127" y="-151.3" font-family="Times New Roman,serif" font-size="14.00">Optional[AssessmentPeriod(StrEnum)]</text>
<polygon fill="none" stroke="black" points="0,-123.5 0,-144.5 113,-144.5 113,-123.5 0,-123.5"/>
<text text-anchor="start" x="24.5" y="-130.3" font-family="Times New Roman,serif" font-size="14.00">dimensions</text>
<polygon fill="none" stroke="black" points="113,-123.5 113,-144.5 360,-144.5 360,-123.5 113,-123.5"/>
<text text-anchor="start" x="116" y="-130.3" font-family="Times New Roman,serif" font-size="14.00">Optional[list[ResultsDimension(StrEnum)]]</text>
<polygon fill="none" stroke="black" points="0,-102.5 0,-123.5 113,-123.5 113,-102.5 0,-102.5"/>
<text text-anchor="start" x="32" y="-109.3" font-family="Times New Roman,serif" font-size="14.00">statistics</text>
<polygon fill="none" stroke="black" points="113,-102.5 113,-123.5 360,-123.5 360,-102.5 113,-102.5"/>
<text text-anchor="start" x="184" y="-109.3" font-family="Times New Roman,serif" font-size="14.00">list[ResultStatistic]</text>
</a>
</g>
</g>
<!-- eya_def_tools.data_models.result.ResultStatistic -->
<g id="node2" class="node">
<title>eya_def_tools.data_models.result.ResultStatistic</title>
<g id="a_node2"><a xlink:title="eya_def_tools.data_models.result.ResultStatistic&#10;&#10;Result values for one specific statistic type.&#10;&#10;Attributes:&#10; &#160;&#160;&#160;description (Optional[str]): Optional description of the result statistic. Default is None.&#10; &#160;&#160;&#160;comments (Optional[str]): Optional comments on the result statistic. Default is None.&#10; &#160;&#160;&#160;statistic_type (StatisticType(StrEnum)): Type of statistic in the results component.&#10; &#160;&#160;&#160;values (UnionType[float, list[tuple[list[UnionType[float, int, str]], float]]]): Result as a single number or values at coordinates.&#10;">
<polygon fill="none" stroke="black" points="468,-101.5 468,-122.5 916,-122.5 916,-101.5 468,-101.5"/>
<text text-anchor="start" x="647.5" y="-109.3" font-family="Times New Roman,serif" font-weight="bold" font-size="14.00">ResultStatistic</text>
<polygon fill="none" stroke="black" points="468,-80.5 468,-101.5 548,-101.5 548,-80.5 468,-80.5"/>
<text text-anchor="start" x="476.5" y="-87.3" font-family="Times New Roman,serif" font-size="14.00">description</text>
<polygon fill="none" stroke="black" points="548,-80.5 548,-101.5 916,-101.5 916,-80.5 548,-80.5"/>
<text text-anchor="start" x="696" y="-87.3" font-family="Times New Roman,serif" font-size="14.00">Optional[str]</text>
<polygon fill="none" stroke="black" points="468,-59.5 468,-80.5 548,-80.5 548,-59.5 468,-59.5"/>
<text text-anchor="start" x="479" y="-66.3" font-family="Times New Roman,serif" font-size="14.00">comments</text>
<polygon fill="none" stroke="black" points="548,-59.5 548,-80.5 916,-80.5 916,-59.5 548,-59.5"/>
<text text-anchor="start" x="696" y="-66.3" font-family="Times New Roman,serif" font-size="14.00">Optional[str]</text>
<polygon fill="none" stroke="black" points="468,-38.5 468,-59.5 548,-59.5 548,-38.5 468,-38.5"/>
<text text-anchor="start" x="471" y="-45.3" font-family="Times New Roman,serif" font-size="14.00">statistic_type</text>
<polygon fill="none" stroke="black" points="548,-38.5 548,-59.5 916,-59.5 916,-38.5 548,-38.5"/>
<text text-anchor="start" x="666" y="-45.3" font-family="Times New Roman,serif" font-size="14.00">StatisticType(StrEnum)</text>
<polygon fill="none" stroke="black" points="468,-17.5 468,-38.5 548,-38.5 548,-17.5 468,-17.5"/>
<text text-anchor="start" x="490.5" y="-24.3" font-family="Times New Roman,serif" font-size="14.00">values</text>
<polygon fill="none" stroke="black" points="548,-17.5 548,-38.5 916,-38.5 916,-17.5 548,-17.5"/>
<text text-anchor="start" x="551" y="-24.3" font-family="Times New Roman,serif" font-size="14.00">UnionType[float, list[tuple[list[UnionType[float, int, str]], float]]]</text>
</a>
</g>
</g>
<!-- eya_def_tools.data_models.result.Result&#45;&gt;eya_def_tools.data_models.result.ResultStatistic -->
<g id="edge1" class="edge">
<title>eya_def_tools.data_models.result.Result:e&#45;&gt;eya_def_tools.data_models.result.ResultStatistic:w</title>
<path fill="none" stroke="black" d="M360,-112.5C401.06,-112.5 415.78,-112.5 449.23,-112.5"/>
<polygon fill="black" stroke="black" points="458,-112.5 468,-117 463,-112.5 468,-112.5 468,-112.5 468,-112.5 463,-112.5 468,-108 458,-112.5 458,-112.5"/>
<ellipse fill="none" stroke="black" cx="453.5" cy="-112.5" rx="4" ry="4"/>
</g>
</g>
</svg>
