<?xml version="1.0" encoding="UTF-8" standalone="no"?>
<!DOCTYPE svg PUBLIC "-//W3C//DTD SVG 1.1//EN"
 "http://www.w3.org/Graphics/SVG/1.1/DTD/svg11.dtd">
<!-- Generated by graphviz version 10.0.1 (20240210.2158)
 -->
<!-- Title: Entity Relationship Diagram Pages: 1 -->
<svg width="929pt" height="353pt"
 viewBox="0.00 0.00 929.00 352.75" xmlns="http://www.w3.org/2000/svg" xmlns:xlink="http://www.w3.org/1999/xlink">
<g id="graph0" class="graph" transform="scale(1 1) rotate(0) translate(4 348.75)">
<title>Entity Relationship Diagram</title>
<polygon fill="white" stroke="none" points="-4,4 -4,-348.75 925,-348.75 925,4 -4,4"/>
<text text-anchor="middle" x="460.5" y="-6.7" font-family="Times New Roman,serif" font-size="9.00" fill="#a8a8a8">Created by erdantic v0.7.0 &lt;https://github.com/drivendataorg/erdantic&gt;</text>
<!-- eya_def_tools.data_models.energy_assessment.EnergyAssessment -->
<g id="node1" class="node">
<title>eya_def_tools.data_models.energy_assessment.EnergyAssessment</title>
<g id="a_node1"><a xlink:title="eya_def_tools.data_models.energy_assessment.EnergyAssessment&#10;&#10;Energy assessment details and results.&#10;&#10;Attributes:&#10; &#160;&#160;&#160;gross_energy_assessment (GrossEnergyAssessment): Details and results for the assessment of gross energy yield.&#10; &#160;&#160;&#160;plant_performance_assessment (PlantPerformanceAssessment): Plant performance loss assessment categories including results.&#10; &#160;&#160;&#160;net_energy_assessment (NetEnergyAssessment): Details and results for the assessment of net energy yield.&#10;">
<polygon fill="none" stroke="black" points="540.5,-82.25 540.5,-104.25 892.5,-104.25 892.5,-82.25 540.5,-82.25"/>
<text text-anchor="start" x="659.12" y="-88.95" font-family="Times New Roman,serif" font-weight="bold" font-size="14.00">EnergyAssessment</text>
<polygon fill="none" stroke="black" points="540.5,-61.25 540.5,-82.25 721.5,-82.25 721.5,-61.25 540.5,-61.25"/>
<text text-anchor="start" x="558.25" y="-65.95" font-family="Times New Roman,serif" font-size="14.00">gross_energy_assessment</text>
<polygon fill="none" stroke="black" points="721.5,-61.25 721.5,-82.25 892.5,-82.25 892.5,-61.25 721.5,-61.25"/>
<text text-anchor="start" x="736.88" y="-65.95" font-family="Times New Roman,serif" font-size="14.00">GrossEnergyAssessment</text>
<polygon fill="none" stroke="black" points="540.5,-40.25 540.5,-61.25 721.5,-61.25 721.5,-40.25 540.5,-40.25"/>
<text text-anchor="start" x="543.25" y="-44.95" font-family="Times New Roman,serif" font-size="14.00">plant_performance_assessment</text>
<polygon fill="none" stroke="black" points="721.5,-40.25 721.5,-61.25 892.5,-61.25 892.5,-40.25 721.5,-40.25"/>
<text text-anchor="start" x="724.12" y="-44.95" font-family="Times New Roman,serif" font-size="14.00">PlantPerformanceAssessment</text>
<polygon fill="none" stroke="black" points="540.5,-19.25 540.5,-40.25 721.5,-40.25 721.5,-19.25 540.5,-19.25"/>
<text text-anchor="start" x="565.38" y="-23.95" font-family="Times New Roman,serif" font-size="14.00">net_energy_assessment</text>
<polygon fill="none" stroke="black" points="721.5,-19.25 721.5,-40.25 892.5,-40.25 892.5,-19.25 721.5,-19.25"/>
<text text-anchor="start" x="744.38" y="-23.95" font-family="Times New Roman,serif" font-size="14.00">NetEnergyAssessment</text>
</a>
</g>
</g>
<!-- eya_def_tools.data_models.scenario.Scenario -->
<g id="node2" class="node">
<title>eya_def_tools.data_models.scenario.Scenario</title>
<g id="a_node2"><a xlink:title="eya_def_tools.data_models.scenario.Scenario&#10;&#10;Single unique energy yield assessment scenario.&#10;&#10;Attributes:&#10; &#160;&#160;&#160;id (Optional[str]): Optional unique identifier of the scenario, which should not be empty if the field is included. Default is None.&#10; &#160;&#160;&#160;label (str): Label of the scenario.&#10; &#160;&#160;&#160;description (Optional[str]): Optional description of the scenario, which should not be empty if the field is included. Default is None.&#10; &#160;&#160;&#160;comments (Optional[str]): Optional comments on the scenario, which should not be empty if the field is included. Default is None.&#10; &#160;&#160;&#160;is_main_scenario (Optional[bool]): Optional flag to specify whether or not it is the main scenario in the report. Default is None.&#10; &#160;&#160;&#160;wind_farm_ids (list[str]): List of the IDs for all wind farms included in the scenario. Each ID refers to a wind farm configuration data object within the &#39;wind_farms&#39; section of the top&#45;level of the EYA DEF document. Only wind farms for which turbine interaction effects are modelled shall be included.&#10; &#160;&#160;&#160;turbine_wind_resource_assessment (TurbineWindResourceAssessment): Wind resource assessment at the turbine locations.&#10; &#160;&#160;&#160;energy_assessment (EnergyAssessment): Energy assessment details and results, including gross energy, plant performance, net energy and uncertainties.&#10;">
<polygon fill="none" stroke="black" points="0,-322.75 0,-344.75 404,-344.75 404,-322.75 0,-322.75"/>
<text text-anchor="start" x="175" y="-329.45" font-family="Times New Roman,serif" font-weight="bold" font-size="14.00">Scenario</text>
<polygon fill="none" stroke="black" points="0,-301.75 0,-322.75 204,-322.75 204,-301.75 0,-301.75"/>
<text text-anchor="start" x="96.75" y="-306.45" font-family="Times New Roman,serif" font-size="14.00">id</text>
<polygon fill="none" stroke="black" points="204,-301.75 204,-322.75 404,-322.75 404,-301.75 204,-301.75"/>
<text text-anchor="start" x="268.38" y="-306.45" font-family="Times New Roman,serif" font-size="14.00">Optional[str]</text>
<polygon fill="none" stroke="black" points="0,-280.75 0,-301.75 204,-301.75 204,-280.75 0,-280.75"/>
<text text-anchor="start" x="89.25" y="-285.45" font-family="Times New Roman,serif" font-size="14.00">label</text>
<polygon fill="none" stroke="black" points="204,-280.75 204,-301.75 404,-301.75 404,-280.75 204,-280.75"/>
<text text-anchor="start" x="296.88" y="-285.45" font-family="Times New Roman,serif" font-size="14.00">str</text>
<polygon fill="none" stroke="black" points="0,-259.75 0,-280.75 204,-280.75 204,-259.75 0,-259.75"/>
<text text-anchor="start" x="70.88" y="-264.45" font-family="Times New Roman,serif" font-size="14.00">description</text>
<polygon fill="none" stroke="black" points="204,-259.75 204,-280.75 404,-280.75 404,-259.75 204,-259.75"/>
<text text-anchor="start" x="268.38" y="-264.45" font-family="Times New Roman,serif" font-size="14.00">Optional[str]</text>
<polygon fill="none" stroke="black" points="0,-238.75 0,-259.75 204,-259.75 204,-238.75 0,-238.75"/>
<text text-anchor="start" x="73.12" y="-243.45" font-family="Times New Roman,serif" font-size="14.00">comments</text>
<polygon fill="none" stroke="black" points="204,-238.75 204,-259.75 404,-259.75 404,-238.75 204,-238.75"/>
<text text-anchor="start" x="268.38" y="-243.45" font-family="Times New Roman,serif" font-size="14.00">Optional[str]</text>
<polygon fill="none" stroke="black" points="0,-217.75 0,-238.75 204,-238.75 204,-217.75 0,-217.75"/>
<text text-anchor="start" x="53.62" y="-222.45" font-family="Times New Roman,serif" font-size="14.00">is_main_scenario</text>
<polygon fill="none" stroke="black" points="204,-217.75 204,-238.75 404,-238.75 404,-217.75 204,-217.75"/>
<text text-anchor="start" x="262.75" y="-222.45" font-family="Times New Roman,serif" font-size="14.00">Optional[bool]</text>
<polygon fill="none" stroke="black" points="0,-196.75 0,-217.75 204,-217.75 204,-196.75 0,-196.75"/>
<text text-anchor="start" x="60" y="-201.45" font-family="Times New Roman,serif" font-size="14.00">wind_farm_ids</text>
<polygon fill="none" stroke="black" points="204,-196.75 204,-217.75 404,-217.75 404,-196.75 204,-196.75"/>
<text text-anchor="start" x="284.5" y="-201.45" font-family="Times New Roman,serif" font-size="14.00">list[str]</text>
<polygon fill="none" stroke="black" points="0,-175.75 0,-196.75 204,-196.75 204,-175.75 0,-175.75"/>
<text text-anchor="start" x="2.62" y="-180.45" font-family="Times New Roman,serif" font-size="14.00">turbine_wind_resource_assessment</text>
<polygon fill="none" stroke="black" points="204,-175.75 204,-196.75 404,-196.75 404,-175.75 204,-175.75"/>
<text text-anchor="start" x="206.88" y="-180.45" font-family="Times New Roman,serif" font-size="14.00">TurbineWindResourceAssessment</text>
<polygon fill="none" stroke="black" points="0,-154.75 0,-175.75 204,-175.75 204,-154.75 0,-154.75"/>
<text text-anchor="start" x="48.38" y="-159.45" font-family="Times New Roman,serif" font-size="14.00">energy_assessment</text>
<polygon fill="none" stroke="black" points="204,-154.75 204,-175.75 404,-175.75 404,-154.75 204,-154.75"/>
<text text-anchor="start" x="251.12" y="-159.45" font-family="Times New Roman,serif" font-size="14.00">EnergyAssessment</text>
</a>
</g>
</g>
<!-- eya_def_tools.data_models.scenario.Scenario&#45;&gt;eya_def_tools.data_models.energy_assessment.EnergyAssessment -->
<g id="edge1" class="edge">
<title>eya_def_tools.data_models.scenario.Scenario:e&#45;&gt;eya_def_tools.data_models.energy_assessment.EnergyAssessment:w</title>
<path fill="none" stroke="black" d="M404,-164.75C466.68,-164.75 471.17,-104.41 524.75,-94.98"/>
<polyline fill="none" stroke="black" points="539.5,-93.75 534.52,-94.17"/>
<polygon fill="black" stroke="black" points="533.1,-89.27 533.94,-99.23 531.94,-99.4 531.11,-89.43 533.1,-89.27"/>
<polyline fill="none" stroke="black" points="534.52,-94.17 529.53,-94.58"/>
<polygon fill="black" stroke="black" points="528.12,-89.68 528.95,-99.65 526.96,-99.82 526.13,-89.85 528.12,-89.68"/>
<polyline fill="none" stroke="black" points="529.53,-94.58 524.55,-95"/>
</g>
<!-- eya_def_tools.data_models.wind_resource.TurbineWindResourceAssessment -->
<g id="node3" class="node">
<title>eya_def_tools.data_models.wind_resource.TurbineWindResourceAssessment</title>
<g id="a_node3"><a xlink:title="eya_def_tools.data_models.wind_resource.TurbineWindResourceAssessment&#10;&#10;Wind resource assessment at the turbine locations.&#10;&#10;Attributes:&#10; &#160;&#160;&#160;wind_resource_assessment_id_reference (str): The ID of the wind resource assessment on which the turbine wind resource assessment is based. This must refer to an ID of a wind resource assessment included at the top level of the EYA DEF. The schema requires that a turbine wind resource assessment is based on only one wind resource assessment.&#10; &#160;&#160;&#160;description (Optional[str]): Optional description of the turbine wind resource assessment, which should not be empty if the field is included. Default is None.&#10; &#160;&#160;&#160;comments (Optional[str]): Optional comments on the turbine wind resource assessment, which should not be empty if the field is included. Default is None.&#10; &#160;&#160;&#160;results (TurbineWindResourceResults): Results of the wind resource assessment at the turbine location(s).&#10; &#160;&#160;&#160;wind_uncertainty_assessment (WindUncertaintyAssessment): Wind related uncertainty assessment categories including results.&#10;">
<polygon fill="none" stroke="black" points="512,-245.25 512,-267.25 921,-267.25 921,-245.25 512,-245.25"/>
<text text-anchor="start" x="611.5" y="-251.95" font-family="Times New Roman,serif" font-weight="bold" font-size="14.00">TurbineWindResourceAssessment</text>
<polygon fill="none" stroke="black" points="512,-224.25 512,-245.25 747,-245.25 747,-224.25 512,-224.25"/>
<text text-anchor="start" x="514.75" y="-228.95" font-family="Times New Roman,serif" font-size="14.00">wind_resource_assessment_id_reference</text>
<polygon fill="none" stroke="black" points="747,-224.25 747,-245.25 921,-245.25 921,-224.25 747,-224.25"/>
<text text-anchor="start" x="826.88" y="-228.95" font-family="Times New Roman,serif" font-size="14.00">str</text>
<polygon fill="none" stroke="black" points="512,-203.25 512,-224.25 747,-224.25 747,-203.25 512,-203.25"/>
<text text-anchor="start" x="598.38" y="-207.95" font-family="Times New Roman,serif" font-size="14.00">description</text>
<polygon fill="none" stroke="black" points="747,-203.25 747,-224.25 921,-224.25 921,-203.25 747,-203.25"/>
<text text-anchor="start" x="798.38" y="-207.95" font-family="Times New Roman,serif" font-size="14.00">Optional[str]</text>
<polygon fill="none" stroke="black" points="512,-182.25 512,-203.25 747,-203.25 747,-182.25 512,-182.25"/>
<text text-anchor="start" x="600.62" y="-186.95" font-family="Times New Roman,serif" font-size="14.00">comments</text>
<polygon fill="none" stroke="black" points="747,-182.25 747,-203.25 921,-203.25 921,-182.25 747,-182.25"/>
<text text-anchor="start" x="798.38" y="-186.95" font-family="Times New Roman,serif" font-size="14.00">Optional[str]</text>
<polygon fill="none" stroke="black" points="512,-161.25 512,-182.25 747,-182.25 747,-161.25 512,-161.25"/>
<text text-anchor="start" x="611.5" y="-165.95" font-family="Times New Roman,serif" font-size="14.00">results</text>
<polygon fill="none" stroke="black" points="747,-161.25 747,-182.25 921,-182.25 921,-161.25 747,-161.25"/>
<text text-anchor="start" x="749.62" y="-165.95" font-family="Times New Roman,serif" font-size="14.00">TurbineWindResourceResults</text>
<polygon fill="none" stroke="black" points="512,-140.25 512,-161.25 747,-161.25 747,-140.25 512,-140.25"/>
<text text-anchor="start" x="546.62" y="-144.95" font-family="Times New Roman,serif" font-size="14.00">wind_uncertainty_assessment</text>
<polygon fill="none" stroke="black" points="747,-140.25 747,-161.25 921,-161.25 921,-140.25 747,-140.25"/>
<text text-anchor="start" x="753.38" y="-144.95" font-family="Times New Roman,serif" font-size="14.00">WindUncertaintyAssessment</text>
</a>
</g>
</g>
<!-- eya_def_tools.data_models.scenario.Scenario&#45;&gt;eya_def_tools.data_models.wind_resource.TurbineWindResourceAssessment -->
<g id="edge2" class="edge">
<title>eya_def_tools.data_models.scenario.Scenario:e&#45;&gt;eya_def_tools.data_models.wind_resource.TurbineWindResourceAssessment:w</title>
<path fill="none" stroke="black" d="M404,-185.75C455.95,-185.75 455.29,-243.81 497.16,-254.92"/>
<polyline fill="none" stroke="black" points="512,-256.75 507.04,-256.14"/>
<polygon fill="black" stroke="black" points="506.66,-251.05 505.43,-260.98 503.45,-260.74 504.67,-250.81 506.66,-251.05"/>
<polyline fill="none" stroke="black" points="507.04,-256.14 502.07,-255.53"/>
<polygon fill="black" stroke="black" points="501.69,-250.44 500.47,-260.37 498.49,-260.12 499.71,-250.2 501.69,-250.44"/>
<polyline fill="none" stroke="black" points="502.07,-255.53 497.11,-254.92"/>
</g>
</g>
</svg>
