<?xml version="1.0" encoding="UTF-8" standalone="no"?>
<!DOCTYPE svg PUBLIC "-//W3C//DTD SVG 1.1//EN"
 "http://www.w3.org/Graphics/SVG/1.1/DTD/svg11.dtd">
<!-- Generated by graphviz version 11.0.0 (20240428.1522)
 -->
<!-- Title: Entity Relationship Diagram created by erdantic Pages: 1 -->
<svg width="1149pt" height="372pt"
 viewBox="0.00 0.00 1149.00 372.25" xmlns="http://www.w3.org/2000/svg" xmlns:xlink="http://www.w3.org/1999/xlink">
<g id="graph0" class="graph" transform="scale(1 1) rotate(0) translate(4 368.25)">
<title>Entity Relationship Diagram created by erdantic</title>
<polygon fill="white" stroke="none" points="-4,4 -4,-368.25 1145,-368.25 1145,4 -4,4"/>
<text text-anchor="middle" x="570.5" y="-6.7" font-family="Times New Roman,Times,Liberation Serif,serif" font-size="9.00" fill="#a8a8a8">Created by erdantic v1.0.3 &lt;https://github.com/drivendataorg/erdantic&gt;</text>
<!-- eya_def_tools.data_models.energy_assessment.EnergyAssessment -->
<g id="node1" class="node">
<title>eya_def_tools.data_models.energy_assessment.EnergyAssessment</title>
<g id="a_node1"><a xlink:title="eya_def_tools.data_models.energy_assessment.EnergyAssessment&#10;&#10;Energy assessment details and results.&#10;&#10;Fields:&#10; &#160;&#160;&#160;gross_energy_assessment: Details and results for the assessment of gross energy yield.&#10; &#160;&#160;&#160;wind_uncertainty_assessment: Details of the wind related uncertainty assessment.&#10; &#160;&#160;&#160;plant_performance_assessment: Plant performance loss assessment categories including results.&#10; &#160;&#160;&#160;net_energy_assessment: Details and results for the assessment of net energy yield.&#10;">
<polygon fill="none" stroke="black" points="670,-103.25 670,-125.25 1062,-125.25 1062,-103.25 670,-103.25"/>
<text text-anchor="start" x="808.62" y="-109.95" font-family="Times New Roman,Times,Liberation Serif,serif" font-weight="bold" font-size="14.00">EnergyAssessment</text>
<polygon fill="none" stroke="black" points="670,-82.25 670,-103.25 851,-103.25 851,-82.25 670,-82.25"/>
<text text-anchor="start" x="687.75" y="-86.95" font-family="Times New Roman,Times,Liberation Serif,serif" font-size="14.00">gross_energy_assessment</text>
<polygon fill="none" stroke="black" points="851,-82.25 851,-103.25 1022,-103.25 1022,-82.25 851,-82.25"/>
<text text-anchor="start" x="866.38" y="-86.95" font-family="Times New Roman,Times,Liberation Serif,serif" font-size="14.00">GrossEnergyAssessment</text>
<polygon fill="none" stroke="black" points="1022,-82.25 1022,-103.25 1062,-103.25 1062,-82.25 1022,-82.25"/>
<text text-anchor="start" x="1024.75" y="-86.95" font-family="Times New Roman,Times,Liberation Serif,serif" font-size="14.00">object</text>
<polygon fill="none" stroke="black" points="670,-61.25 670,-82.25 851,-82.25 851,-61.25 670,-61.25"/>
<text text-anchor="start" x="677.62" y="-65.95" font-family="Times New Roman,Times,Liberation Serif,serif" font-size="14.00">wind_uncertainty_assessment</text>
<polygon fill="none" stroke="black" points="851,-61.25 851,-82.25 1022,-82.25 1022,-61.25 851,-61.25"/>
<text text-anchor="start" x="855.88" y="-65.95" font-family="Times New Roman,Times,Liberation Serif,serif" font-size="14.00">WindUncertaintyAssessment</text>
<polygon fill="none" stroke="black" points="1022,-61.25 1022,-82.25 1062,-82.25 1062,-61.25 1022,-61.25"/>
<text text-anchor="start" x="1024.75" y="-65.95" font-family="Times New Roman,Times,Liberation Serif,serif" font-size="14.00">object</text>
<polygon fill="none" stroke="black" points="670,-40.25 670,-61.25 851,-61.25 851,-40.25 670,-40.25"/>
<text text-anchor="start" x="672.75" y="-44.95" font-family="Times New Roman,Times,Liberation Serif,serif" font-size="14.00">plant_performance_assessment</text>
<polygon fill="none" stroke="black" points="851,-40.25 851,-61.25 1022,-61.25 1022,-40.25 851,-40.25"/>
<text text-anchor="start" x="853.62" y="-44.95" font-family="Times New Roman,Times,Liberation Serif,serif" font-size="14.00">PlantPerformanceAssessment</text>
<polygon fill="none" stroke="black" points="1022,-40.25 1022,-61.25 1062,-61.25 1062,-40.25 1022,-40.25"/>
<text text-anchor="start" x="1024.75" y="-44.95" font-family="Times New Roman,Times,Liberation Serif,serif" font-size="14.00">object</text>
<polygon fill="none" stroke="black" points="670,-19.25 670,-40.25 851,-40.25 851,-19.25 670,-19.25"/>
<text text-anchor="start" x="694.88" y="-23.95" font-family="Times New Roman,Times,Liberation Serif,serif" font-size="14.00">net_energy_assessment</text>
<polygon fill="none" stroke="black" points="851,-19.25 851,-40.25 1022,-40.25 1022,-19.25 851,-19.25"/>
<text text-anchor="start" x="873.88" y="-23.95" font-family="Times New Roman,Times,Liberation Serif,serif" font-size="14.00">NetEnergyAssessment</text>
<polygon fill="none" stroke="black" points="1022,-19.25 1022,-40.25 1062,-40.25 1062,-19.25 1022,-19.25"/>
<text text-anchor="start" x="1024.75" y="-23.95" font-family="Times New Roman,Times,Liberation Serif,serif" font-size="14.00">object</text>
</a>
</g>
</g>
<!-- eya_def_tools.data_models.scenario.Scenario -->
<g id="node2" class="node">
<title>eya_def_tools.data_models.scenario.Scenario</title>
<g id="a_node2"><a xlink:title="eya_def_tools.data_models.scenario.Scenario&#10;&#10;Single unique energy yield assessment scenario.&#10;&#10;Fields:&#10; &#160;&#160;&#160;id: Optional unique identifier of the scenario, which should not be empty if the field is included. Default is None.&#10; &#160;&#160;&#160;label: Label of the scenario.&#10; &#160;&#160;&#160;description: Optional description of the scenario, which should not be empty if the field is included. Default is None.&#10; &#160;&#160;&#160;comments: Optional comments on the scenario, which should not be empty if the field is included. Default is None.&#10; &#160;&#160;&#160;is_main_scenario: Optional flag to specify whether or not it is the main scenario in the report. Default is None.&#10; &#160;&#160;&#160;wind_farm_ids: List of the IDs for all wind farms included in the scenario. Each ID refers to a wind farm configuration data object within the &#39;wind_farms&#39; section of the top&#45;level of the EYA DEF document. Only wind farms for which turbine interaction effects are modelled shall be included.&#10; &#160;&#160;&#160;turbine_wind_resource_assessment: Wind resource assessment at the turbine locations.&#10; &#160;&#160;&#160;energy_assessment: Energy assessment details and results, including gross energy, plant performance, net energy and uncertainties.&#10;">
<polygon fill="none" stroke="black" points="0,-342.25 0,-364.25 483,-364.25 483,-342.25 0,-342.25"/>
<text text-anchor="start" x="214.5" y="-348.95" font-family="Times New Roman,Times,Liberation Serif,serif" font-weight="bold" font-size="14.00">Scenario</text>
<polygon fill="none" stroke="black" points="0,-321.25 0,-342.25 204,-342.25 204,-321.25 0,-321.25"/>
<text text-anchor="start" x="96.75" y="-325.95" font-family="Times New Roman,Times,Liberation Serif,serif" font-size="14.00">id</text>
<polygon fill="none" stroke="black" points="204,-321.25 204,-342.25 404,-342.25 404,-321.25 204,-321.25"/>
<text text-anchor="start" x="268.38" y="-325.95" font-family="Times New Roman,Times,Liberation Serif,serif" font-size="14.00">Optional[str]</text>
<polygon fill="none" stroke="black" points="404,-321.25 404,-342.25 483,-342.25 483,-321.25 404,-321.25"/>
<text text-anchor="start" x="413.5" y="-325.95" font-family="Times New Roman,Times,Liberation Serif,serif" font-size="14.00">string | null</text>
<polygon fill="none" stroke="black" points="0,-300.25 0,-321.25 204,-321.25 204,-300.25 0,-300.25"/>
<text text-anchor="start" x="89.25" y="-304.95" font-family="Times New Roman,Times,Liberation Serif,serif" font-size="14.00">label</text>
<polygon fill="none" stroke="black" points="204,-300.25 204,-321.25 404,-321.25 404,-300.25 204,-300.25"/>
<text text-anchor="start" x="296.88" y="-304.95" font-family="Times New Roman,Times,Liberation Serif,serif" font-size="14.00">str</text>
<polygon fill="none" stroke="black" points="404,-300.25 404,-321.25 483,-321.25 483,-300.25 404,-300.25"/>
<text text-anchor="start" x="428.12" y="-304.95" font-family="Times New Roman,Times,Liberation Serif,serif" font-size="14.00">string</text>
<polygon fill="none" stroke="black" points="0,-279.25 0,-300.25 204,-300.25 204,-279.25 0,-279.25"/>
<text text-anchor="start" x="70.88" y="-283.95" font-family="Times New Roman,Times,Liberation Serif,serif" font-size="14.00">description</text>
<polygon fill="none" stroke="black" points="204,-279.25 204,-300.25 404,-300.25 404,-279.25 204,-279.25"/>
<text text-anchor="start" x="268.38" y="-283.95" font-family="Times New Roman,Times,Liberation Serif,serif" font-size="14.00">Optional[str]</text>
<polygon fill="none" stroke="black" points="404,-279.25 404,-300.25 483,-300.25 483,-279.25 404,-279.25"/>
<text text-anchor="start" x="413.5" y="-283.95" font-family="Times New Roman,Times,Liberation Serif,serif" font-size="14.00">string | null</text>
<polygon fill="none" stroke="black" points="0,-258.25 0,-279.25 204,-279.25 204,-258.25 0,-258.25"/>
<text text-anchor="start" x="73.12" y="-262.95" font-family="Times New Roman,Times,Liberation Serif,serif" font-size="14.00">comments</text>
<polygon fill="none" stroke="black" points="204,-258.25 204,-279.25 404,-279.25 404,-258.25 204,-258.25"/>
<text text-anchor="start" x="268.38" y="-262.95" font-family="Times New Roman,Times,Liberation Serif,serif" font-size="14.00">Optional[str]</text>
<polygon fill="none" stroke="black" points="404,-258.25 404,-279.25 483,-279.25 483,-258.25 404,-258.25"/>
<text text-anchor="start" x="413.5" y="-262.95" font-family="Times New Roman,Times,Liberation Serif,serif" font-size="14.00">string | null</text>
<polygon fill="none" stroke="black" points="0,-237.25 0,-258.25 204,-258.25 204,-237.25 0,-237.25"/>
<text text-anchor="start" x="53.62" y="-241.95" font-family="Times New Roman,Times,Liberation Serif,serif" font-size="14.00">is_main_scenario</text>
<polygon fill="none" stroke="black" points="204,-237.25 204,-258.25 404,-258.25 404,-237.25 204,-237.25"/>
<text text-anchor="start" x="262.75" y="-241.95" font-family="Times New Roman,Times,Liberation Serif,serif" font-size="14.00">Optional[bool]</text>
<polygon fill="none" stroke="black" points="404,-237.25 404,-258.25 483,-258.25 483,-237.25 404,-237.25"/>
<text text-anchor="start" x="406.75" y="-241.95" font-family="Times New Roman,Times,Liberation Serif,serif" font-size="14.00">boolean | null</text>
<polygon fill="none" stroke="black" points="0,-216.25 0,-237.25 204,-237.25 204,-216.25 0,-216.25"/>
<text text-anchor="start" x="60" y="-220.95" font-family="Times New Roman,Times,Liberation Serif,serif" font-size="14.00">wind_farm_ids</text>
<polygon fill="none" stroke="black" points="204,-216.25 204,-237.25 404,-237.25 404,-216.25 204,-216.25"/>
<text text-anchor="start" x="284.5" y="-220.95" font-family="Times New Roman,Times,Liberation Serif,serif" font-size="14.00">list[str]</text>
<polygon fill="none" stroke="black" points="404,-216.25 404,-237.25 483,-237.25 483,-216.25 404,-216.25"/>
<text text-anchor="start" x="429.62" y="-220.95" font-family="Times New Roman,Times,Liberation Serif,serif" font-size="14.00">array</text>
<polygon fill="none" stroke="black" points="0,-195.25 0,-216.25 204,-216.25 204,-195.25 0,-195.25"/>
<text text-anchor="start" x="2.62" y="-199.95" font-family="Times New Roman,Times,Liberation Serif,serif" font-size="14.00">turbine_wind_resource_assessment</text>
<polygon fill="none" stroke="black" points="204,-195.25 204,-216.25 404,-216.25 404,-195.25 204,-195.25"/>
<text text-anchor="start" x="206.88" y="-199.95" font-family="Times New Roman,Times,Liberation Serif,serif" font-size="14.00">TurbineWindResourceAssessment</text>
<polygon fill="none" stroke="black" points="404,-195.25 404,-216.25 483,-216.25 483,-195.25 404,-195.25"/>
<text text-anchor="start" x="426.25" y="-199.95" font-family="Times New Roman,Times,Liberation Serif,serif" font-size="14.00">object</text>
<polygon fill="none" stroke="black" points="0,-174.25 0,-195.25 204,-195.25 204,-174.25 0,-174.25"/>
<text text-anchor="start" x="48.38" y="-178.95" font-family="Times New Roman,Times,Liberation Serif,serif" font-size="14.00">energy_assessment</text>
<polygon fill="none" stroke="black" points="204,-174.25 204,-195.25 404,-195.25 404,-174.25 204,-174.25"/>
<text text-anchor="start" x="251.12" y="-178.95" font-family="Times New Roman,Times,Liberation Serif,serif" font-size="14.00">EnergyAssessment</text>
<polygon fill="none" stroke="black" points="404,-174.25 404,-195.25 483,-195.25 483,-174.25 404,-174.25"/>
<text text-anchor="start" x="426.25" y="-178.95" font-family="Times New Roman,Times,Liberation Serif,serif" font-size="14.00">object</text>
</a>
</g>
</g>
<!-- eya_def_tools.data_models.scenario.Scenario&#45;&gt;eya_def_tools.data_models.energy_assessment.EnergyAssessment -->
<g id="edge1" class="edge">
<title>eya_def_tools.data_models.scenario.Scenario:e&#45;&gt;eya_def_tools.data_models.energy_assessment.EnergyAssessment:w</title>
<path fill="none" stroke="black" d="M492.52,-184.47C567.37,-179.91 582.21,-121.94 654.31,-114.94"/>
<polyline fill="none" stroke="black" points="483,-184.75 488,-184.6"/>
<polyline fill="none" stroke="black" points="488,-184.6 493,-184.45"/>
<polyline fill="none" stroke="black" points="669,-114.25 664.01,-114.49"/>
<polygon fill="black" stroke="black" points="662.77,-109.54 663.24,-119.53 661.24,-119.62 660.77,-109.63 662.77,-109.54"/>
<polyline fill="none" stroke="black" points="664.01,-114.49 659.01,-114.72"/>
<polygon fill="black" stroke="black" points="657.78,-109.77 658.25,-119.76 656.25,-119.86 655.78,-109.87 657.78,-109.77"/>
<polyline fill="none" stroke="black" points="659.01,-114.72 654.02,-114.96"/>
</g>
<!-- eya_def_tools.data_models.wind_resource.TurbineWindResourceAssessment -->
<g id="node3" class="node">
<title>eya_def_tools.data_models.wind_resource.TurbineWindResourceAssessment</title>
<g id="a_node3"><a xlink:title="eya_def_tools.data_models.wind_resource.TurbineWindResourceAssessment&#10;&#10;Wind resource assessment at the turbine locations.&#10;&#10;Fields:&#10; &#160;&#160;&#160;wind_resource_assessment_id_reference: The ID of the wind resource assessment on which the turbine wind resource assessment is based. This must refer to an ID of a wind resource assessment included at the top level of the EYA DEF. The schema requires that a turbine wind resource assessment is based on only one wind resource assessment.&#10; &#160;&#160;&#160;description: Optional description of the turbine wind resource assessment, which should not be empty if the field is included. Default is None.&#10; &#160;&#160;&#160;comments: Optional comments on the turbine wind resource assessment, which should not be empty if the field is included. Default is None.&#10; &#160;&#160;&#160;weighting: Optional specification of the weighting applied to estimate the wind resource at the turbine location(s),relevant for example when predictions from different measurement stations were weighted individually at each turbine based on representativeness. Default is None.&#10; &#160;&#160;&#160;results: Results of the wind resource assessment at the turbine location(s).&#10;">
<polygon fill="none" stroke="black" points="591,-266.75 591,-288.75 1141,-288.75 1141,-266.75 591,-266.75"/>
<text text-anchor="start" x="761" y="-273.45" font-family="Times New Roman,Times,Liberation Serif,serif" font-weight="bold" font-size="14.00">TurbineWindResourceAssessment</text>
<polygon fill="none" stroke="black" points="591,-245.75 591,-266.75 826,-266.75 826,-245.75 591,-245.75"/>
<text text-anchor="start" x="593.75" y="-250.45" font-family="Times New Roman,Times,Liberation Serif,serif" font-size="14.00">wind_resource_assessment_id_reference</text>
<polygon fill="none" stroke="black" points="826,-245.75 826,-266.75 1072,-266.75 1072,-245.75 826,-245.75"/>
<text text-anchor="start" x="941.88" y="-250.45" font-family="Times New Roman,Times,Liberation Serif,serif" font-size="14.00">str</text>
<polygon fill="none" stroke="black" points="1072,-245.75 1072,-266.75 1141,-266.75 1141,-245.75 1072,-245.75"/>
<text text-anchor="start" x="1091.12" y="-250.45" font-family="Times New Roman,Times,Liberation Serif,serif" font-size="14.00">string</text>
<polygon fill="none" stroke="black" points="591,-224.75 591,-245.75 826,-245.75 826,-224.75 591,-224.75"/>
<text text-anchor="start" x="677.38" y="-229.45" font-family="Times New Roman,Times,Liberation Serif,serif" font-size="14.00">description</text>
<polygon fill="none" stroke="black" points="826,-224.75 826,-245.75 1072,-245.75 1072,-224.75 826,-224.75"/>
<text text-anchor="start" x="913.38" y="-229.45" font-family="Times New Roman,Times,Liberation Serif,serif" font-size="14.00">Optional[str]</text>
<polygon fill="none" stroke="black" points="1072,-224.75 1072,-245.75 1141,-245.75 1141,-224.75 1072,-224.75"/>
<text text-anchor="start" x="1076.5" y="-229.45" font-family="Times New Roman,Times,Liberation Serif,serif" font-size="14.00">string | null</text>
<polygon fill="none" stroke="black" points="591,-203.75 591,-224.75 826,-224.75 826,-203.75 591,-203.75"/>
<text text-anchor="start" x="679.62" y="-208.45" font-family="Times New Roman,Times,Liberation Serif,serif" font-size="14.00">comments</text>
<polygon fill="none" stroke="black" points="826,-203.75 826,-224.75 1072,-224.75 1072,-203.75 826,-203.75"/>
<text text-anchor="start" x="913.38" y="-208.45" font-family="Times New Roman,Times,Liberation Serif,serif" font-size="14.00">Optional[str]</text>
<polygon fill="none" stroke="black" points="1072,-203.75 1072,-224.75 1141,-224.75 1141,-203.75 1072,-203.75"/>
<text text-anchor="start" x="1076.5" y="-208.45" font-family="Times New Roman,Times,Liberation Serif,serif" font-size="14.00">string | null</text>
<polygon fill="none" stroke="black" points="591,-182.75 591,-203.75 826,-203.75 826,-182.75 591,-182.75"/>
<text text-anchor="start" x="682.25" y="-187.45" font-family="Times New Roman,Times,Liberation Serif,serif" font-size="14.00">weighting</text>
<polygon fill="none" stroke="black" points="826,-182.75 826,-203.75 1072,-203.75 1072,-182.75 826,-182.75"/>
<text text-anchor="start" x="828.62" y="-187.45" font-family="Times New Roman,Times,Liberation Serif,serif" font-size="14.00">Optional[TurbineWindResourceWeighting]</text>
<polygon fill="none" stroke="black" points="1072,-182.75 1072,-203.75 1141,-203.75 1141,-182.75 1072,-182.75"/>
<text text-anchor="start" x="1074.62" y="-187.45" font-family="Times New Roman,Times,Liberation Serif,serif" font-size="14.00">object | null</text>
<polygon fill="none" stroke="black" points="591,-161.75 591,-182.75 826,-182.75 826,-161.75 591,-161.75"/>
<text text-anchor="start" x="690.5" y="-166.45" font-family="Times New Roman,Times,Liberation Serif,serif" font-size="14.00">results</text>
<polygon fill="none" stroke="black" points="826,-161.75 826,-182.75 1072,-182.75 1072,-161.75 826,-161.75"/>
<text text-anchor="start" x="864.62" y="-166.45" font-family="Times New Roman,Times,Liberation Serif,serif" font-size="14.00">TurbineWindResourceResults</text>
<polygon fill="none" stroke="black" points="1072,-161.75 1072,-182.75 1141,-182.75 1141,-161.75 1072,-161.75"/>
<text text-anchor="start" x="1089.25" y="-166.45" font-family="Times New Roman,Times,Liberation Serif,serif" font-size="14.00">object</text>
</a>
</g>
</g>
<!-- eya_def_tools.data_models.scenario.Scenario&#45;&gt;eya_def_tools.data_models.wind_resource.TurbineWindResourceAssessment -->
<g id="edge2" class="edge">
<title>eya_def_tools.data_models.scenario.Scenario:e&#45;&gt;eya_def_tools.data_models.wind_resource.TurbineWindResourceAssessment:w</title>
<path fill="none" stroke="black" d="M492.79,-206.51C535.24,-213.42 536.94,-265.42 576.15,-275.91"/>
<polyline fill="none" stroke="black" points="483,-205.75 487.99,-206.14"/>
<polyline fill="none" stroke="black" points="487.99,-206.14 492.97,-206.52"/>
<polyline fill="none" stroke="black" points="591,-277.75 586.04,-277.13"/>
<polygon fill="black" stroke="black" points="585.66,-272.05 584.43,-281.97 582.45,-281.73 583.68,-271.8 585.66,-272.05"/>
<polyline fill="none" stroke="black" points="586.04,-277.13 581.08,-276.52"/>
<polygon fill="black" stroke="black" points="580.7,-271.43 579.47,-281.36 577.48,-281.11 578.71,-271.19 580.7,-271.43"/>
<polyline fill="none" stroke="black" points="581.08,-276.52 576.11,-275.9"/>
</g>
</g>
</svg>
