<?xml version="1.0" encoding="UTF-8" standalone="no"?>
<!DOCTYPE svg PUBLIC "-//W3C//DTD SVG 1.1//EN"
 "http://www.w3.org/Graphics/SVG/1.1/DTD/svg11.dtd">
<!-- Generated by graphviz version 7.0.4 (20221203.1631)
 -->
<!-- Title: Entity Relationship Diagram Pages: 1 -->
<svg width="1000pt" height="582pt"
 viewBox="0.00 0.00 1000.00 582.00" xmlns="http://www.w3.org/2000/svg" xmlns:xlink="http://www.w3.org/1999/xlink">
<g id="graph0" class="graph" transform="scale(1 1) rotate(0) translate(4 578)">
<title>Entity Relationship Diagram</title>
<polygon fill="white" stroke="none" points="-4,4 -4,-578 996,-578 996,4 -4,4"/>
<text text-anchor="middle" x="496" y="-6.8" font-family="Times New Roman,serif" font-size="9.00" fill="#a8a8a8">Created by erdantic v0.5.0 &lt;https://github.com/drivendataorg/erdantic&gt;</text>
<!-- eya_def_tools.data_models.energy_assessment.EnergyAssessment -->
<g id="node1" class="node">
<title>eya_def_tools.data_models.energy_assessment.EnergyAssessment</title>
<g id="a_node1"><a xlink:title="eya_def_tools.data_models.energy_assessment.EnergyAssessment&#10;&#10;Energy assessment details and results.&#10;&#10;Attributes:&#10; &#160;&#160;&#160;gross_eya_process (AssessmentProcessDescription): Specification of the model used to calculate the gross EYA estimates.&#10; &#160;&#160;&#160;gross_eya_results (list[Result]): Gross energy production predictions in GWh.&#10; &#160;&#160;&#160;plant_performance_loss_categories (list[PlantPerformanceCategory]): Plant performance loss assessment categories including results.&#10; &#160;&#160;&#160;energy_uncertainty_categories (list[EnergyUncertaintyCategory]): Energy related uncertainty assessment categories including results.&#10; &#160;&#160;&#160;net_eya_results (list[Result]): Net energy production predictions in GWh, including overall uncertainties and results at different confidence levels.&#10;">
<polygon fill="none" stroke="black" points="558,-123 558,-144 948,-144 948,-123 558,-123"/>
<text text-anchor="start" x="695.5" y="-130.8" font-family="Times New Roman,serif" font-weight="bold" font-size="14.00">EnergyAssessment</text>
<polygon fill="none" stroke="black" points="558,-102 558,-123 763,-123 763,-102 558,-102"/>
<text text-anchor="start" x="606" y="-108.8" font-family="Times New Roman,serif" font-size="14.00">gross_eya_process</text>
<polygon fill="none" stroke="black" points="763,-102 763,-123 948,-123 948,-102 763,-102"/>
<text text-anchor="start" x="767" y="-108.8" font-family="Times New Roman,serif" font-size="14.00">AssessmentProcessDescription</text>
<polygon fill="none" stroke="black" points="558,-81 558,-102 763,-102 763,-81 558,-81"/>
<text text-anchor="start" x="610" y="-87.8" font-family="Times New Roman,serif" font-size="14.00">gross_eya_results</text>
<polygon fill="none" stroke="black" points="763,-81 763,-102 948,-102 948,-81 763,-81"/>
<text text-anchor="start" x="825" y="-87.8" font-family="Times New Roman,serif" font-size="14.00">list[Result]</text>
<polygon fill="none" stroke="black" points="558,-60 558,-81 763,-81 763,-60 558,-60"/>
<text text-anchor="start" x="561" y="-66.8" font-family="Times New Roman,serif" font-size="14.00">plant_performance_loss_categories</text>
<polygon fill="none" stroke="black" points="763,-60 763,-81 948,-81 948,-60 763,-60"/>
<text text-anchor="start" x="768" y="-66.8" font-family="Times New Roman,serif" font-size="14.00">list[PlantPerformanceCategory]</text>
<polygon fill="none" stroke="black" points="558,-39 558,-60 763,-60 763,-39 558,-39"/>
<text text-anchor="start" x="576" y="-45.8" font-family="Times New Roman,serif" font-size="14.00">energy_uncertainty_categories</text>
<polygon fill="none" stroke="black" points="763,-39 763,-60 948,-60 948,-39 763,-39"/>
<text text-anchor="start" x="766" y="-45.8" font-family="Times New Roman,serif" font-size="14.00">list[EnergyUncertaintyCategory]</text>
<polygon fill="none" stroke="black" points="558,-18 558,-39 763,-39 763,-18 558,-18"/>
<text text-anchor="start" x="617" y="-24.8" font-family="Times New Roman,serif" font-size="14.00">net_eya_results</text>
<polygon fill="none" stroke="black" points="763,-18 763,-39 948,-39 948,-18 763,-18"/>
<text text-anchor="start" x="825" y="-24.8" font-family="Times New Roman,serif" font-size="14.00">list[Result]</text>
</a>
</g>
</g>
<!-- eya_def_tools.data_models.scenario.Scenario -->
<g id="node2" class="node">
<title>eya_def_tools.data_models.scenario.Scenario</title>
<g id="a_node2"><a xlink:title="eya_def_tools.data_models.scenario.Scenario&#10;&#10;Single unique energy yield assessment scenario.&#10;&#10;Attributes:&#10; &#160;&#160;&#160;scenario_id (Optional[str]): Unique identifier of the scenario. Default is None.&#10; &#160;&#160;&#160;label (str): Label of the scenario.&#10; &#160;&#160;&#160;description (Optional[str]): Description of the data object. Default is None.&#10; &#160;&#160;&#160;comments (Optional[str]): Comments on the data object. Default is None.&#10; &#160;&#160;&#160;is_main_scenario (Optional[bool]): Whether or not this is the main scenario in the report. Default is None.&#10; &#160;&#160;&#160;operational_lifetime_length_years (ConstrainedFloatValue): Number of years of project operational lifetime.&#10; &#160;&#160;&#160;wind_farms (list[WindFarmConfiguration]): List of all wind farms included in the scenario.&#10; &#160;&#160;&#160;turbine_wind_resource_assessment (TurbineWindResourceAssessment): Wind resource assessment at the turbine locations.&#10; &#160;&#160;&#160;energy_assessment (EnergyAssessment): Energy assessment details and results, including gross energy, plant performance, net energy and uncertainties.&#10;">
<polygon fill="none" stroke="black" points="0,-475 0,-496 406,-496 406,-475 0,-475"/>
<text text-anchor="start" x="175.5" y="-482.8" font-family="Times New Roman,serif" font-weight="bold" font-size="14.00">Scenario</text>
<polygon fill="none" stroke="black" points="0,-454 0,-475 205,-475 205,-454 0,-454"/>
<text text-anchor="start" x="70" y="-460.8" font-family="Times New Roman,serif" font-size="14.00">scenario_id</text>
<polygon fill="none" stroke="black" points="205,-454 205,-475 406,-475 406,-454 205,-454"/>
<text text-anchor="start" x="269.5" y="-460.8" font-family="Times New Roman,serif" font-size="14.00">Optional[str]</text>
<polygon fill="none" stroke="black" points="0,-433 0,-454 205,-454 205,-433 0,-433"/>
<text text-anchor="start" x="89.5" y="-439.8" font-family="Times New Roman,serif" font-size="14.00">label</text>
<polygon fill="none" stroke="black" points="205,-433 205,-454 406,-454 406,-433 205,-433"/>
<text text-anchor="start" x="298" y="-439.8" font-family="Times New Roman,serif" font-size="14.00">str</text>
<polygon fill="none" stroke="black" points="0,-412 0,-433 205,-433 205,-412 0,-412"/>
<text text-anchor="start" x="71" y="-418.8" font-family="Times New Roman,serif" font-size="14.00">description</text>
<polygon fill="none" stroke="black" points="205,-412 205,-433 406,-433 406,-412 205,-412"/>
<text text-anchor="start" x="269.5" y="-418.8" font-family="Times New Roman,serif" font-size="14.00">Optional[str]</text>
<polygon fill="none" stroke="black" points="0,-391 0,-412 205,-412 205,-391 0,-391"/>
<text text-anchor="start" x="73.5" y="-397.8" font-family="Times New Roman,serif" font-size="14.00">comments</text>
<polygon fill="none" stroke="black" points="205,-391 205,-412 406,-412 406,-391 205,-391"/>
<text text-anchor="start" x="269.5" y="-397.8" font-family="Times New Roman,serif" font-size="14.00">Optional[str]</text>
<polygon fill="none" stroke="black" points="0,-370 0,-391 205,-391 205,-370 0,-370"/>
<text text-anchor="start" x="54" y="-376.8" font-family="Times New Roman,serif" font-size="14.00">is_main_scenario</text>
<polygon fill="none" stroke="black" points="205,-370 205,-391 406,-391 406,-370 205,-370"/>
<text text-anchor="start" x="264" y="-376.8" font-family="Times New Roman,serif" font-size="14.00">Optional[bool]</text>
<polygon fill="none" stroke="black" points="0,-349 0,-370 205,-370 205,-349 0,-349"/>
<text text-anchor="start" x="9" y="-355.8" font-family="Times New Roman,serif" font-size="14.00">operational_lifetime_length_years</text>
<polygon fill="none" stroke="black" points="205,-349 205,-370 406,-370 406,-349 205,-349"/>
<text text-anchor="start" x="241.5" y="-355.8" font-family="Times New Roman,serif" font-size="14.00">ConstrainedFloatValue</text>
<polygon fill="none" stroke="black" points="0,-328 0,-349 205,-349 205,-328 0,-328"/>
<text text-anchor="start" x="69" y="-334.8" font-family="Times New Roman,serif" font-size="14.00">wind_farms</text>
<polygon fill="none" stroke="black" points="205,-328 205,-349 406,-349 406,-328 205,-328"/>
<text text-anchor="start" x="224.5" y="-334.8" font-family="Times New Roman,serif" font-size="14.00">list[WindFarmConfiguration]</text>
<polygon fill="none" stroke="black" points="0,-307 0,-328 205,-328 205,-307 0,-307"/>
<text text-anchor="start" x="3" y="-313.8" font-family="Times New Roman,serif" font-size="14.00">turbine_wind_resource_assessment</text>
<polygon fill="none" stroke="black" points="205,-307 205,-328 406,-328 406,-307 205,-307"/>
<text text-anchor="start" x="208" y="-313.8" font-family="Times New Roman,serif" font-size="14.00">TurbineWindResourceAssessment</text>
<polygon fill="none" stroke="black" points="0,-286 0,-307 205,-307 205,-286 0,-286"/>
<text text-anchor="start" x="48.5" y="-292.8" font-family="Times New Roman,serif" font-size="14.00">energy_assessment</text>
<polygon fill="none" stroke="black" points="205,-286 205,-307 406,-307 406,-286 205,-286"/>
<text text-anchor="start" x="252.5" y="-292.8" font-family="Times New Roman,serif" font-size="14.00">EnergyAssessment</text>
</a>
</g>
</g>
<!-- eya_def_tools.data_models.scenario.Scenario&#45;&gt;eya_def_tools.data_models.energy_assessment.EnergyAssessment -->
<g id="edge1" class="edge">
<title>eya_def_tools.data_models.scenario.Scenario:e&#45;&gt;eya_def_tools.data_models.energy_assessment.EnergyAssessment:w</title>
<path fill="none" stroke="black" d="M406,-296C499.04,-296 463.16,-151.23 542.1,-135.4"/>
<polyline fill="none" stroke="black" points="557,-134 552.02,-134.47"/>
<polygon fill="black" stroke="black" points="550.56,-129.58 551.49,-139.54 549.5,-139.73 548.57,-129.77 550.56,-129.58"/>
<polyline fill="none" stroke="black" points="552.02,-134.47 547.04,-134.94"/>
<polygon fill="black" stroke="black" points="545.58,-130.05 546.52,-140.01 544.52,-140.19 543.59,-130.24 545.58,-130.05"/>
<polyline fill="none" stroke="black" points="547.04,-134.94 542.07,-135.4"/>
</g>
<!-- eya_def_tools.data_models.wind_farm.WindFarmConfiguration -->
<g id="node3" class="node">
<title>eya_def_tools.data_models.wind_farm.WindFarmConfiguration</title>
<g id="a_node3"><a xlink:title="eya_def_tools.data_models.wind_farm.WindFarmConfiguration&#10;&#10;A collection of wind turbines considered as one unit (plant).&#10;&#10;Attributes:&#10; &#160;&#160;&#160;name (str): Name of the wind farm.&#10; &#160;&#160;&#160;label (Optional[str]): Abbreviated label of the wind farm. Default is None.&#10; &#160;&#160;&#160;description (Optional[str]): Description of the data object. Default is None.&#10; &#160;&#160;&#160;comments (Optional[str]): Comments on the data object. Default is None.&#10; &#160;&#160;&#160;turbines (list[TurbineConfiguration]): List of specifications for constituent turbines.&#10; &#160;&#160;&#160;relevance (WindFarmRelevance(StrEnum)): The relevance of the wind farm for the assessment.&#10; &#160;&#160;&#160;operational_lifetime_start_date (Optional[date]): Operational lifetime start date (format YYYY&#45;MM&#45;DD). Default is None.&#10; &#160;&#160;&#160;operational_lifetime_end_date (Optional[date]): Operational lifetime end date (format YYYY&#45;MM&#45;DD). Default is None.&#10; &#160;&#160;&#160;wind_farm_restrictions (Optional[list[OperationalRestriction]]): List of operational restrictions at the wind farm level. Default is None.&#10;">
<polygon fill="none" stroke="black" points="557,-553 557,-574 949,-574 949,-553 557,-553"/>
<text text-anchor="start" x="676.5" y="-560.8" font-family="Times New Roman,serif" font-weight="bold" font-size="14.00">WindFarmConfiguration</text>
<polygon fill="none" stroke="black" points="557,-532 557,-553 735,-553 735,-532 557,-532"/>
<text text-anchor="start" x="631" y="-538.8" font-family="Times New Roman,serif" font-size="14.00">name</text>
<polygon fill="none" stroke="black" points="735,-532 735,-553 949,-553 949,-532 735,-532"/>
<text text-anchor="start" x="834.5" y="-538.8" font-family="Times New Roman,serif" font-size="14.00">str</text>
<polygon fill="none" stroke="black" points="557,-511 557,-532 735,-532 735,-511 557,-511"/>
<text text-anchor="start" x="633" y="-517.8" font-family="Times New Roman,serif" font-size="14.00">label</text>
<polygon fill="none" stroke="black" points="735,-511 735,-532 949,-532 949,-511 735,-511"/>
<text text-anchor="start" x="806" y="-517.8" font-family="Times New Roman,serif" font-size="14.00">Optional[str]</text>
<polygon fill="none" stroke="black" points="557,-490 557,-511 735,-511 735,-490 557,-490"/>
<text text-anchor="start" x="614.5" y="-496.8" font-family="Times New Roman,serif" font-size="14.00">description</text>
<polygon fill="none" stroke="black" points="735,-490 735,-511 949,-511 949,-490 735,-490"/>
<text text-anchor="start" x="806" y="-496.8" font-family="Times New Roman,serif" font-size="14.00">Optional[str]</text>
<polygon fill="none" stroke="black" points="557,-469 557,-490 735,-490 735,-469 557,-469"/>
<text text-anchor="start" x="617" y="-475.8" font-family="Times New Roman,serif" font-size="14.00">comments</text>
<polygon fill="none" stroke="black" points="735,-469 735,-490 949,-490 949,-469 735,-469"/>
<text text-anchor="start" x="806" y="-475.8" font-family="Times New Roman,serif" font-size="14.00">Optional[str]</text>
<polygon fill="none" stroke="black" points="557,-448 557,-469 735,-469 735,-448 557,-448"/>
<text text-anchor="start" x="623.5" y="-454.8" font-family="Times New Roman,serif" font-size="14.00">turbines</text>
<polygon fill="none" stroke="black" points="735,-448 735,-469 949,-469 949,-448 735,-448"/>
<text text-anchor="start" x="769.5" y="-454.8" font-family="Times New Roman,serif" font-size="14.00">list[TurbineConfiguration]</text>
<polygon fill="none" stroke="black" points="557,-427 557,-448 735,-448 735,-427 557,-427"/>
<text text-anchor="start" x="620" y="-433.8" font-family="Times New Roman,serif" font-size="14.00">relevance</text>
<polygon fill="none" stroke="black" points="735,-427 735,-448 949,-448 949,-427 735,-427"/>
<text text-anchor="start" x="754.5" y="-433.8" font-family="Times New Roman,serif" font-size="14.00">WindFarmRelevance(StrEnum)</text>
<polygon fill="none" stroke="black" points="557,-406 557,-427 735,-427 735,-406 557,-406"/>
<text text-anchor="start" x="560" y="-412.8" font-family="Times New Roman,serif" font-size="14.00">operational_lifetime_start_date</text>
<polygon fill="none" stroke="black" points="735,-406 735,-427 949,-427 949,-406 735,-406"/>
<text text-anchor="start" x="801.5" y="-412.8" font-family="Times New Roman,serif" font-size="14.00">Optional[date]</text>
<polygon fill="none" stroke="black" points="557,-385 557,-406 735,-406 735,-385 557,-385"/>
<text text-anchor="start" x="562" y="-391.8" font-family="Times New Roman,serif" font-size="14.00">operational_lifetime_end_date</text>
<polygon fill="none" stroke="black" points="735,-385 735,-406 949,-406 949,-385 735,-385"/>
<text text-anchor="start" x="801.5" y="-391.8" font-family="Times New Roman,serif" font-size="14.00">Optional[date]</text>
<polygon fill="none" stroke="black" points="557,-364 557,-385 735,-385 735,-364 557,-364"/>
<text text-anchor="start" x="581" y="-370.8" font-family="Times New Roman,serif" font-size="14.00">wind_farm_restrictions</text>
<polygon fill="none" stroke="black" points="735,-364 735,-385 949,-385 949,-364 735,-364"/>
<text text-anchor="start" x="738" y="-370.8" font-family="Times New Roman,serif" font-size="14.00">Optional[list[OperationalRestriction]]</text>
</a>
</g>
</g>
<!-- eya_def_tools.data_models.scenario.Scenario&#45;&gt;eya_def_tools.data_models.wind_farm.WindFarmConfiguration -->
<g id="edge2" class="edge">
<title>eya_def_tools.data_models.scenario.Scenario:e&#45;&gt;eya_def_tools.data_models.wind_farm.WindFarmConfiguration:w</title>
<path fill="none" stroke="black" d="M406,-338C519.61,-338 445.24,-538.71 537.19,-561.84"/>
<polygon fill="black" stroke="black" points="546.07,-562.86 555.49,-568.47 551.03,-563.43 556,-564 556,-564 556,-564 551.03,-563.43 556.51,-559.53 546.07,-562.86 546.07,-562.86"/>
<ellipse fill="none" stroke="black" cx="541.6" cy="-562.34" rx="4" ry="4"/>
</g>
<!-- eya_def_tools.data_models.wind_resource.TurbineWindResourceAssessment -->
<g id="node4" class="node">
<title>eya_def_tools.data_models.wind_resource.TurbineWindResourceAssessment</title>
<g id="a_node4"><a xlink:title="eya_def_tools.data_models.wind_resource.TurbineWindResourceAssessment&#10;&#10;Wind resource assessment at the turbine locations.&#10;&#10;Attributes:&#10; &#160;&#160;&#160;wind_resource_assessment_id_reference (str): The ID of the wind resource assessment on which the turbine wind resource assessment is based. This must refer to an ID of a wind resource assessment included at the top level of the EYA DEF. The schema requires that a turbine wind resource assessment is based on only one wind resource assessment.&#10; &#160;&#160;&#160;description (Optional[str]): Description of the data object. Default is None.&#10; &#160;&#160;&#160;comments (Optional[str]): Comments on the data object. Default is None.&#10; &#160;&#160;&#160;wind_spatial_modelling_processes (list[AssessmentProcessDescription]): Wind spatial modelling processes used in the assessment.&#10; &#160;&#160;&#160;results (TurbineWindResourceAssessmentResults): Results of the wind resource assessment at the turbine location(s).&#10; &#160;&#160;&#160;wind_uncertainty_categories (list[WindUncertaintyCategory]): Wind related uncertainty assessment categories including results.&#10;">
<polygon fill="none" stroke="black" points="514,-306 514,-327 992,-327 992,-306 514,-306"/>
<text text-anchor="start" x="647.5" y="-313.8" font-family="Times New Roman,serif" font-weight="bold" font-size="14.00">TurbineWindResourceAssessment</text>
<polygon fill="none" stroke="black" points="514,-285 514,-306 750,-306 750,-285 514,-285"/>
<text text-anchor="start" x="517" y="-291.8" font-family="Times New Roman,serif" font-size="14.00">wind_resource_assessment_id_reference</text>
<polygon fill="none" stroke="black" points="750,-285 750,-306 992,-306 992,-285 750,-285"/>
<text text-anchor="start" x="863.5" y="-291.8" font-family="Times New Roman,serif" font-size="14.00">str</text>
<polygon fill="none" stroke="black" points="514,-264 514,-285 750,-285 750,-264 514,-264"/>
<text text-anchor="start" x="600.5" y="-270.8" font-family="Times New Roman,serif" font-size="14.00">description</text>
<polygon fill="none" stroke="black" points="750,-264 750,-285 992,-285 992,-264 750,-264"/>
<text text-anchor="start" x="835" y="-270.8" font-family="Times New Roman,serif" font-size="14.00">Optional[str]</text>
<polygon fill="none" stroke="black" points="514,-243 514,-264 750,-264 750,-243 514,-243"/>
<text text-anchor="start" x="603" y="-249.8" font-family="Times New Roman,serif" font-size="14.00">comments</text>
<polygon fill="none" stroke="black" points="750,-243 750,-264 992,-264 992,-243 750,-243"/>
<text text-anchor="start" x="835" y="-249.8" font-family="Times New Roman,serif" font-size="14.00">Optional[str]</text>
<polygon fill="none" stroke="black" points="514,-222 514,-243 750,-243 750,-222 514,-222"/>
<text text-anchor="start" x="534" y="-228.8" font-family="Times New Roman,serif" font-size="14.00">wind_spatial_modelling_processes</text>
<polygon fill="none" stroke="black" points="750,-222 750,-243 992,-243 992,-222 750,-222"/>
<text text-anchor="start" x="770" y="-228.8" font-family="Times New Roman,serif" font-size="14.00">list[AssessmentProcessDescription]</text>
<polygon fill="none" stroke="black" points="514,-201 514,-222 750,-222 750,-201 514,-201"/>
<text text-anchor="start" x="613.5" y="-207.8" font-family="Times New Roman,serif" font-size="14.00">results</text>
<polygon fill="none" stroke="black" points="750,-201 750,-222 992,-222 992,-201 750,-201"/>
<text text-anchor="start" x="753" y="-207.8" font-family="Times New Roman,serif" font-size="14.00">TurbineWindResourceAssessmentResults</text>
<polygon fill="none" stroke="black" points="514,-180 514,-201 750,-201 750,-180 514,-180"/>
<text text-anchor="start" x="552" y="-186.8" font-family="Times New Roman,serif" font-size="14.00">wind_uncertainty_categories</text>
<polygon fill="none" stroke="black" points="750,-180 750,-201 992,-201 992,-180 750,-180"/>
<text text-anchor="start" x="785.5" y="-186.8" font-family="Times New Roman,serif" font-size="14.00">list[WindUncertaintyCategory]</text>
</a>
</g>
</g>
<!-- eya_def_tools.data_models.scenario.Scenario&#45;&gt;eya_def_tools.data_models.wind_resource.TurbineWindResourceAssessment -->
<g id="edge3" class="edge">
<title>eya_def_tools.data_models.scenario.Scenario:e&#45;&gt;eya_def_tools.data_models.wind_resource.TurbineWindResourceAssessment:w</title>
<path fill="none" stroke="black" d="M406,-317C448.75,-317 462.94,-317 499.45,-317"/>
<polyline fill="none" stroke="black" points="514,-317 509,-317"/>
<polygon fill="black" stroke="black" points="508,-312 508,-322 506,-322 506,-312 508,-312"/>
<polyline fill="none" stroke="black" points="509,-317 504,-317"/>
<polygon fill="black" stroke="black" points="503,-312 503,-322 501,-322 501,-312 503,-312"/>
<polyline fill="none" stroke="black" points="504,-317 499,-317"/>
</g>
</g>
</svg>
