<?xml version="1.0" encoding="UTF-8" standalone="no"?>
<!DOCTYPE svg PUBLIC "-//W3C//DTD SVG 1.1//EN"
 "http://www.w3.org/Graphics/SVG/1.1/DTD/svg11.dtd">
<!-- Generated by graphviz version 7.0.4 (20221203.1631)
 -->
<!-- Title: Entity Relationship Diagram Pages: 1 -->
<svg width="1811pt" height="381pt"
 viewBox="0.00 0.00 1811.00 381.00" xmlns="http://www.w3.org/2000/svg" xmlns:xlink="http://www.w3.org/1999/xlink">
<g id="graph0" class="graph" transform="scale(1 1) rotate(0) translate(4 377)">
<title>Entity Relationship Diagram</title>
<polygon fill="white" stroke="none" points="-4,4 -4,-377 1807,-377 1807,4 -4,4"/>
<text text-anchor="middle" x="901.5" y="-6.8" font-family="Times New Roman,serif" font-size="9.00" fill="#a8a8a8">Created by erdantic v0.6.0 &lt;https://github.com/drivendataorg/erdantic&gt;</text>
<!-- eya_def_tools.data_models.energy_assessment.EnergyAssessment -->
<g id="node1" class="node">
<title>eya_def_tools.data_models.energy_assessment.EnergyAssessment</title>
<g id="a_node1"><a xlink:title="eya_def_tools.data_models.energy_assessment.EnergyAssessment&#10;&#10;Energy assessment details and results.&#10;&#10;Attributes:&#10; &#160;&#160;&#160;gross_energy_assessment (GrossEnergyAssessment): Details and results for the assessment of gross energy yield.&#10; &#160;&#160;&#160;plant_performance_assessment (PlantPerformanceAssessment): Plant performance loss assessment categories including results.&#10; &#160;&#160;&#160;net_energy_assessment (NetEnergyAssessment): Details and results for the assessment of net energy yield.&#10;">
<polygon fill="none" stroke="black" points="1194.5,-81 1194.5,-102 1548.5,-102 1548.5,-81 1194.5,-81"/>
<text text-anchor="start" x="1314" y="-88.8" font-family="Times New Roman,serif" font-weight="bold" font-size="14.00">EnergyAssessment</text>
<polygon fill="none" stroke="black" points="1194.5,-60 1194.5,-81 1376.5,-81 1376.5,-60 1194.5,-60"/>
<text text-anchor="start" x="1212.5" y="-66.8" font-family="Times New Roman,serif" font-size="14.00">gross_energy_assessment</text>
<polygon fill="none" stroke="black" points="1376.5,-60 1376.5,-81 1548.5,-81 1548.5,-60 1376.5,-60"/>
<text text-anchor="start" x="1392" y="-66.8" font-family="Times New Roman,serif" font-size="14.00">GrossEnergyAssessment</text>
<polygon fill="none" stroke="black" points="1194.5,-39 1194.5,-60 1376.5,-60 1376.5,-39 1194.5,-39"/>
<text text-anchor="start" x="1197.5" y="-45.8" font-family="Times New Roman,serif" font-size="14.00">plant_performance_assessment</text>
<polygon fill="none" stroke="black" points="1376.5,-39 1376.5,-60 1548.5,-60 1548.5,-39 1376.5,-39"/>
<text text-anchor="start" x="1379.5" y="-45.8" font-family="Times New Roman,serif" font-size="14.00">PlantPerformanceAssessment</text>
<polygon fill="none" stroke="black" points="1194.5,-18 1194.5,-39 1376.5,-39 1376.5,-18 1194.5,-18"/>
<text text-anchor="start" x="1219.5" y="-24.8" font-family="Times New Roman,serif" font-size="14.00">net_energy_assessment</text>
<polygon fill="none" stroke="black" points="1376.5,-18 1376.5,-39 1548.5,-39 1548.5,-18 1376.5,-18"/>
<text text-anchor="start" x="1399.5" y="-24.8" font-family="Times New Roman,serif" font-size="14.00">NetEnergyAssessment</text>
</a>
</g>
</g>
<!-- eya_def_tools.data_models.scenario.Scenario -->
<g id="node2" class="node">
<title>eya_def_tools.data_models.scenario.Scenario</title>
<g id="a_node2"><a xlink:title="eya_def_tools.data_models.scenario.Scenario&#10;&#10;Single unique energy yield assessment scenario.&#10;&#10;Attributes:&#10; &#160;&#160;&#160;id (Optional[Annotated[str, FieldInfo(annotation=NoneType, required=True, metadata=[MinLen(min_length=1)])]]): Optional unique identifier of the scenario, which should not be empty if the field is included. Default is None.&#10; &#160;&#160;&#160;label (str): Label of the scenario.&#10; &#160;&#160;&#160;description (Optional[Annotated[str, FieldInfo(annotation=NoneType, required=True, metadata=[MinLen(min_length=1)])]]): Optional description of the scenario, which should not be empty if the field is included. Default is None.&#10; &#160;&#160;&#160;comments (Optional[Annotated[str, FieldInfo(annotation=NoneType, required=True, metadata=[MinLen(min_length=1)])]]): Optional comments on the scenario, which should not be empty if the field is included. Default is None.&#10; &#160;&#160;&#160;is_main_scenario (Optional[bool]): Optional flag to specify whether or not it is the main scenario in the report. Default is None.&#10; &#160;&#160;&#160;operational_lifetime_length_years (float): Number of years of project operational lifetime.&#10; &#160;&#160;&#160;wind_farm_ids (list[Annotated[str, FieldInfo(annotation=NoneType, required=True, metadata=[MinLen(min_length=1)])]]): List of the IDs for all wind farms included in the scenario. Each ID refers to a wind farm configuration data object within the &#39;wind_farms&#39; section of the top&#45;level of the EYA DEF document. Only wind farms for which turbine interaction effects are modelled shall be included.&#10; &#160;&#160;&#160;turbine_wind_resource_assessment (TurbineWindResourceAssessment): Wind resource assessment at the turbine locations.&#10; &#160;&#160;&#160;energy_assessment (EnergyAssessment): Energy assessment details and results, including gross energy, plant performance, net energy and uncertainties.&#10;">
<polygon fill="none" stroke="black" points="0,-352 0,-373 832,-373 832,-352 0,-352"/>
<text text-anchor="start" x="388.5" y="-359.8" font-family="Times New Roman,serif" font-weight="bold" font-size="14.00">Scenario</text>
<polygon fill="none" stroke="black" points="0,-331 0,-352 205,-352 205,-331 0,-331"/>
<text text-anchor="start" x="97" y="-337.8" font-family="Times New Roman,serif" font-size="14.00">id</text>
<polygon fill="none" stroke="black" points="205,-331 205,-352 832,-352 832,-331 205,-331"/>
<text text-anchor="start" x="208" y="-337.8" font-family="Times New Roman,serif" font-size="14.00">Optional[Annotated[str, FieldInfo(annotation=NoneType, required=True, metadata=[MinLen(min_length=1)])]]</text>
<polygon fill="none" stroke="black" points="0,-310 0,-331 205,-331 205,-310 0,-310"/>
<text text-anchor="start" x="89.5" y="-316.8" font-family="Times New Roman,serif" font-size="14.00">label</text>
<polygon fill="none" stroke="black" points="205,-310 205,-331 832,-331 832,-310 205,-310"/>
<text text-anchor="start" x="511" y="-316.8" font-family="Times New Roman,serif" font-size="14.00">str</text>
<polygon fill="none" stroke="black" points="0,-289 0,-310 205,-310 205,-289 0,-289"/>
<text text-anchor="start" x="71" y="-295.8" font-family="Times New Roman,serif" font-size="14.00">description</text>
<polygon fill="none" stroke="black" points="205,-289 205,-310 832,-310 832,-289 205,-289"/>
<text text-anchor="start" x="208" y="-295.8" font-family="Times New Roman,serif" font-size="14.00">Optional[Annotated[str, FieldInfo(annotation=NoneType, required=True, metadata=[MinLen(min_length=1)])]]</text>
<polygon fill="none" stroke="black" points="0,-268 0,-289 205,-289 205,-268 0,-268"/>
<text text-anchor="start" x="73.5" y="-274.8" font-family="Times New Roman,serif" font-size="14.00">comments</text>
<polygon fill="none" stroke="black" points="205,-268 205,-289 832,-289 832,-268 205,-268"/>
<text text-anchor="start" x="208" y="-274.8" font-family="Times New Roman,serif" font-size="14.00">Optional[Annotated[str, FieldInfo(annotation=NoneType, required=True, metadata=[MinLen(min_length=1)])]]</text>
<polygon fill="none" stroke="black" points="0,-247 0,-268 205,-268 205,-247 0,-247"/>
<text text-anchor="start" x="54" y="-253.8" font-family="Times New Roman,serif" font-size="14.00">is_main_scenario</text>
<polygon fill="none" stroke="black" points="205,-247 205,-268 832,-268 832,-247 205,-247"/>
<text text-anchor="start" x="477" y="-253.8" font-family="Times New Roman,serif" font-size="14.00">Optional[bool]</text>
<polygon fill="none" stroke="black" points="0,-226 0,-247 205,-247 205,-226 0,-226"/>
<text text-anchor="start" x="9" y="-232.8" font-family="Times New Roman,serif" font-size="14.00">operational_lifetime_length_years</text>
<polygon fill="none" stroke="black" points="205,-226 205,-247 832,-247 832,-226 205,-226"/>
<text text-anchor="start" x="506" y="-232.8" font-family="Times New Roman,serif" font-size="14.00">float</text>
<polygon fill="none" stroke="black" points="0,-205 0,-226 205,-226 205,-205 0,-205"/>
<text text-anchor="start" x="60" y="-211.8" font-family="Times New Roman,serif" font-size="14.00">wind_farm_ids</text>
<polygon fill="none" stroke="black" points="205,-205 205,-226 832,-226 832,-205 205,-205"/>
<text text-anchor="start" x="224" y="-211.8" font-family="Times New Roman,serif" font-size="14.00">list[Annotated[str, FieldInfo(annotation=NoneType, required=True, metadata=[MinLen(min_length=1)])]]</text>
<polygon fill="none" stroke="black" points="0,-184 0,-205 205,-205 205,-184 0,-184"/>
<text text-anchor="start" x="3" y="-190.8" font-family="Times New Roman,serif" font-size="14.00">turbine_wind_resource_assessment</text>
<polygon fill="none" stroke="black" points="205,-184 205,-205 832,-205 832,-184 205,-184"/>
<text text-anchor="start" x="421" y="-190.8" font-family="Times New Roman,serif" font-size="14.00">TurbineWindResourceAssessment</text>
<polygon fill="none" stroke="black" points="0,-163 0,-184 205,-184 205,-163 0,-163"/>
<text text-anchor="start" x="48.5" y="-169.8" font-family="Times New Roman,serif" font-size="14.00">energy_assessment</text>
<polygon fill="none" stroke="black" points="205,-163 205,-184 832,-184 832,-163 205,-163"/>
<text text-anchor="start" x="465.5" y="-169.8" font-family="Times New Roman,serif" font-size="14.00">EnergyAssessment</text>
</a>
</g>
</g>
<!-- eya_def_tools.data_models.scenario.Scenario&#45;&gt;eya_def_tools.data_models.energy_assessment.EnergyAssessment -->
<g id="edge1" class="edge">
<title>eya_def_tools.data_models.scenario.Scenario:e&#45;&gt;eya_def_tools.data_models.energy_assessment.EnergyAssessment:w</title>
<path fill="none" stroke="black" d="M832,-173C885.47,-173 888.66,-134.94 940,-120 1043.95,-89.76 1077.18,-91.74 1178.71,-91.98"/>
<polyline fill="none" stroke="black" points="1193.5,-92 1188.5,-91.99"/>
<polygon fill="black" stroke="black" points="1187.51,-86.99 1187.49,-96.99 1185.49,-96.99 1185.51,-86.99 1187.51,-86.99"/>
<polyline fill="none" stroke="black" points="1188.5,-91.99 1183.5,-91.99"/>
<polygon fill="black" stroke="black" points="1182.51,-86.99 1182.49,-96.99 1180.49,-96.98 1180.51,-86.98 1182.51,-86.99"/>
<polyline fill="none" stroke="black" points="1183.5,-91.99 1178.5,-91.98"/>
</g>
<!-- eya_def_tools.data_models.wind_resource.TurbineWindResourceAssessment -->
<g id="node3" class="node">
<title>eya_def_tools.data_models.wind_resource.TurbineWindResourceAssessment</title>
<g id="a_node3"><a xlink:title="eya_def_tools.data_models.wind_resource.TurbineWindResourceAssessment&#10;&#10;Wind resource assessment at the turbine locations.&#10;&#10;Attributes:&#10; &#160;&#160;&#160;wind_resource_assessment_id_reference (str): The ID of the wind resource assessment on which the turbine wind resource assessment is based. This must refer to an ID of a wind resource assessment included at the top level of the EYA DEF. The schema requires that a turbine wind resource assessment is based on only one wind resource assessment.&#10; &#160;&#160;&#160;description (Optional[Annotated[str, FieldInfo(annotation=NoneType, required=True, metadata=[MinLen(min_length=1)])]]): Optional description of the turbine wind resource assessment, which should not be empty if the field is included. Default is None.&#10; &#160;&#160;&#160;comments (Optional[Annotated[str, FieldInfo(annotation=NoneType, required=True, metadata=[MinLen(min_length=1)])]]): Optional comments on the turbine wind resource assessment, which should not be empty if the field is included. Default is None.&#10; &#160;&#160;&#160;wind_spatial_modelling_processes (list[AssessmentProcessDescription]): Wind spatial modelling processes used in the assessment.&#10; &#160;&#160;&#160;results (TurbineWindResourceResults): Results of the wind resource assessment at the turbine location(s).&#10; &#160;&#160;&#160;wind_uncertainty_assessment (WindUncertaintyAssessment): Wind related uncertainty assessment categories including results.&#10;">
<polygon fill="none" stroke="black" points="940.5,-264 940.5,-285 1803.5,-285 1803.5,-264 940.5,-264"/>
<text text-anchor="start" x="1266.5" y="-271.8" font-family="Times New Roman,serif" font-weight="bold" font-size="14.00">TurbineWindResourceAssessment</text>
<polygon fill="none" stroke="black" points="940.5,-243 940.5,-264 1176.5,-264 1176.5,-243 940.5,-243"/>
<text text-anchor="start" x="943.5" y="-249.8" font-family="Times New Roman,serif" font-size="14.00">wind_resource_assessment_id_reference</text>
<polygon fill="none" stroke="black" points="1176.5,-243 1176.5,-264 1803.5,-264 1803.5,-243 1176.5,-243"/>
<text text-anchor="start" x="1482.5" y="-249.8" font-family="Times New Roman,serif" font-size="14.00">str</text>
<polygon fill="none" stroke="black" points="940.5,-222 940.5,-243 1176.5,-243 1176.5,-222 940.5,-222"/>
<text text-anchor="start" x="1027" y="-228.8" font-family="Times New Roman,serif" font-size="14.00">description</text>
<polygon fill="none" stroke="black" points="1176.5,-222 1176.5,-243 1803.5,-243 1803.5,-222 1176.5,-222"/>
<text text-anchor="start" x="1179.5" y="-228.8" font-family="Times New Roman,serif" font-size="14.00">Optional[Annotated[str, FieldInfo(annotation=NoneType, required=True, metadata=[MinLen(min_length=1)])]]</text>
<polygon fill="none" stroke="black" points="940.5,-201 940.5,-222 1176.5,-222 1176.5,-201 940.5,-201"/>
<text text-anchor="start" x="1029.5" y="-207.8" font-family="Times New Roman,serif" font-size="14.00">comments</text>
<polygon fill="none" stroke="black" points="1176.5,-201 1176.5,-222 1803.5,-222 1803.5,-201 1176.5,-201"/>
<text text-anchor="start" x="1179.5" y="-207.8" font-family="Times New Roman,serif" font-size="14.00">Optional[Annotated[str, FieldInfo(annotation=NoneType, required=True, metadata=[MinLen(min_length=1)])]]</text>
<polygon fill="none" stroke="black" points="940.5,-180 940.5,-201 1176.5,-201 1176.5,-180 940.5,-180"/>
<text text-anchor="start" x="960.5" y="-186.8" font-family="Times New Roman,serif" font-size="14.00">wind_spatial_modelling_processes</text>
<polygon fill="none" stroke="black" points="1176.5,-180 1176.5,-201 1803.5,-201 1803.5,-180 1176.5,-180"/>
<text text-anchor="start" x="1389" y="-186.8" font-family="Times New Roman,serif" font-size="14.00">list[AssessmentProcessDescription]</text>
<polygon fill="none" stroke="black" points="940.5,-159 940.5,-180 1176.5,-180 1176.5,-159 940.5,-159"/>
<text text-anchor="start" x="1040" y="-165.8" font-family="Times New Roman,serif" font-size="14.00">results</text>
<polygon fill="none" stroke="black" points="1176.5,-159 1176.5,-180 1803.5,-180 1803.5,-159 1176.5,-159"/>
<text text-anchor="start" x="1405.5" y="-165.8" font-family="Times New Roman,serif" font-size="14.00">TurbineWindResourceResults</text>
<polygon fill="none" stroke="black" points="940.5,-138 940.5,-159 1176.5,-159 1176.5,-138 940.5,-138"/>
<text text-anchor="start" x="975.5" y="-144.8" font-family="Times New Roman,serif" font-size="14.00">wind_uncertainty_assessment</text>
<polygon fill="none" stroke="black" points="1176.5,-138 1176.5,-159 1803.5,-159 1803.5,-138 1176.5,-138"/>
<text text-anchor="start" x="1409" y="-144.8" font-family="Times New Roman,serif" font-size="14.00">WindUncertaintyAssessment</text>
</a>
</g>
</g>
<!-- eya_def_tools.data_models.scenario.Scenario&#45;&gt;eya_def_tools.data_models.wind_resource.TurbineWindResourceAssessment -->
<g id="edge2" class="edge">
<title>eya_def_tools.data_models.scenario.Scenario:e&#45;&gt;eya_def_tools.data_models.wind_resource.TurbineWindResourceAssessment:w</title>
<path fill="none" stroke="black" d="M832,-194C886.49,-194 881.6,-260.81 925.19,-273.08"/>
<polyline fill="none" stroke="black" points="940,-275 935.04,-274.36"/>
<polygon fill="black" stroke="black" points="934.69,-269.27 933.41,-279.19 931.42,-278.93 932.71,-269.01 934.69,-269.27"/>
<polyline fill="none" stroke="black" points="935.04,-274.36 930.08,-273.71"/>
<polygon fill="black" stroke="black" points="929.73,-268.63 928.45,-278.54 926.46,-278.29 927.75,-268.37 929.73,-268.63"/>
<polyline fill="none" stroke="black" points="930.08,-273.71 925.12,-273.07"/>
</g>
</g>
</svg>
