<?xml version="1.0" encoding="UTF-8" standalone="no"?>
<!DOCTYPE svg PUBLIC "-//W3C//DTD SVG 1.1//EN"
 "http://www.w3.org/Graphics/SVG/1.1/DTD/svg11.dtd">
<!-- Generated by graphviz version 7.0.4 (20221203.1631)
 -->
<!-- Title: Entity Relationship Diagram Pages: 1 -->
<svg width="966pt" height="582pt"
 viewBox="0.00 0.00 966.00 582.00" xmlns="http://www.w3.org/2000/svg" xmlns:xlink="http://www.w3.org/1999/xlink">
<g id="graph0" class="graph" transform="scale(1 1) rotate(0) translate(4 578)">
<title>Entity Relationship Diagram</title>
<polygon fill="white" stroke="none" points="-4,4 -4,-578 962,-578 962,4 -4,4"/>
<text text-anchor="middle" x="479" y="-6.8" font-family="Times New Roman,serif" font-size="9.00" fill="#a8a8a8">Created by erdantic v0.6.0 &lt;https://github.com/drivendataorg/erdantic&gt;</text>
<!-- eya_def_tools.data_models.energy_assessment.EnergyAssessment -->
<g id="node1" class="node">
<title>eya_def_tools.data_models.energy_assessment.EnergyAssessment</title>
<g id="a_node1"><a xlink:title="eya_def_tools.data_models.energy_assessment.EnergyAssessment&#10;&#10;Energy assessment details and results.&#10;&#10;Attributes:&#10; &#160;&#160;&#160;gross_energy_assessment (GrossEnergyAssessment): Details and results for the assessment of gross energy yield.&#10; &#160;&#160;&#160;plant_performance_assessment (PlantPerformanceAssessment): Plant performance loss assessment categories including results.&#10; &#160;&#160;&#160;net_energy_assessment (NetEnergyAssessment): Details and results for the assessment of net energy yield.&#10;">
<polygon fill="none" stroke="black" points="559,-81 559,-102 913,-102 913,-81 559,-81"/>
<text text-anchor="start" x="678.5" y="-88.8" font-family="Times New Roman,serif" font-weight="bold" font-size="14.00">EnergyAssessment</text>
<polygon fill="none" stroke="black" points="559,-60 559,-81 741,-81 741,-60 559,-60"/>
<text text-anchor="start" x="577" y="-66.8" font-family="Times New Roman,serif" font-size="14.00">gross_energy_assessment</text>
<polygon fill="none" stroke="black" points="741,-60 741,-81 913,-81 913,-60 741,-60"/>
<text text-anchor="start" x="756.5" y="-66.8" font-family="Times New Roman,serif" font-size="14.00">GrossEnergyAssessment</text>
<polygon fill="none" stroke="black" points="559,-39 559,-60 741,-60 741,-39 559,-39"/>
<text text-anchor="start" x="562" y="-45.8" font-family="Times New Roman,serif" font-size="14.00">plant_performance_assessment</text>
<polygon fill="none" stroke="black" points="741,-39 741,-60 913,-60 913,-39 741,-39"/>
<text text-anchor="start" x="744" y="-45.8" font-family="Times New Roman,serif" font-size="14.00">PlantPerformanceAssessment</text>
<polygon fill="none" stroke="black" points="559,-18 559,-39 741,-39 741,-18 559,-18"/>
<text text-anchor="start" x="584" y="-24.8" font-family="Times New Roman,serif" font-size="14.00">net_energy_assessment</text>
<polygon fill="none" stroke="black" points="741,-18 741,-39 913,-39 913,-18 741,-18"/>
<text text-anchor="start" x="764" y="-24.8" font-family="Times New Roman,serif" font-size="14.00">NetEnergyAssessment</text>
</a>
</g>
</g>
<!-- eya_def_tools.data_models.scenario.Scenario -->
<g id="node2" class="node">
<title>eya_def_tools.data_models.scenario.Scenario</title>
<g id="a_node2"><a xlink:title="eya_def_tools.data_models.scenario.Scenario&#10;&#10;Single unique energy yield assessment scenario.&#10;&#10;Attributes:&#10; &#160;&#160;&#160;id (Optional[str]): Optional unique identifier of the scenario. Default is None.&#10; &#160;&#160;&#160;label (str): Label of the scenario.&#10; &#160;&#160;&#160;description (Optional[str]): Optional description of the scenario. Default is None.&#10; &#160;&#160;&#160;comments (Optional[str]): Optional comments on the scenario. Default is None.&#10; &#160;&#160;&#160;is_main_scenario (Optional[bool]): Whether or not this is the main scenario in the report. Default is None.&#10; &#160;&#160;&#160;operational_lifetime_length_years (float): Number of years of project operational lifetime.&#10; &#160;&#160;&#160;wind_farms (list[WindFarmConfiguration]): List of all wind farms included in the scenario.&#10; &#160;&#160;&#160;turbine_wind_resource_assessment (TurbineWindResourceAssessment): Wind resource assessment at the turbine locations.&#10; &#160;&#160;&#160;energy_assessment (EnergyAssessment): Energy assessment details and results, including gross energy, plant performance, net energy and uncertainties.&#10;">
<polygon fill="none" stroke="black" points="0,-433 0,-454 406,-454 406,-433 0,-433"/>
<text text-anchor="start" x="175.5" y="-440.8" font-family="Times New Roman,serif" font-weight="bold" font-size="14.00">Scenario</text>
<polygon fill="none" stroke="black" points="0,-412 0,-433 205,-433 205,-412 0,-412"/>
<text text-anchor="start" x="97" y="-418.8" font-family="Times New Roman,serif" font-size="14.00">id</text>
<polygon fill="none" stroke="black" points="205,-412 205,-433 406,-433 406,-412 205,-412"/>
<text text-anchor="start" x="269.5" y="-418.8" font-family="Times New Roman,serif" font-size="14.00">Optional[str]</text>
<polygon fill="none" stroke="black" points="0,-391 0,-412 205,-412 205,-391 0,-391"/>
<text text-anchor="start" x="89.5" y="-397.8" font-family="Times New Roman,serif" font-size="14.00">label</text>
<polygon fill="none" stroke="black" points="205,-391 205,-412 406,-412 406,-391 205,-391"/>
<text text-anchor="start" x="298" y="-397.8" font-family="Times New Roman,serif" font-size="14.00">str</text>
<polygon fill="none" stroke="black" points="0,-370 0,-391 205,-391 205,-370 0,-370"/>
<text text-anchor="start" x="71" y="-376.8" font-family="Times New Roman,serif" font-size="14.00">description</text>
<polygon fill="none" stroke="black" points="205,-370 205,-391 406,-391 406,-370 205,-370"/>
<text text-anchor="start" x="269.5" y="-376.8" font-family="Times New Roman,serif" font-size="14.00">Optional[str]</text>
<polygon fill="none" stroke="black" points="0,-349 0,-370 205,-370 205,-349 0,-349"/>
<text text-anchor="start" x="73.5" y="-355.8" font-family="Times New Roman,serif" font-size="14.00">comments</text>
<polygon fill="none" stroke="black" points="205,-349 205,-370 406,-370 406,-349 205,-349"/>
<text text-anchor="start" x="269.5" y="-355.8" font-family="Times New Roman,serif" font-size="14.00">Optional[str]</text>
<polygon fill="none" stroke="black" points="0,-328 0,-349 205,-349 205,-328 0,-328"/>
<text text-anchor="start" x="54" y="-334.8" font-family="Times New Roman,serif" font-size="14.00">is_main_scenario</text>
<polygon fill="none" stroke="black" points="205,-328 205,-349 406,-349 406,-328 205,-328"/>
<text text-anchor="start" x="264" y="-334.8" font-family="Times New Roman,serif" font-size="14.00">Optional[bool]</text>
<polygon fill="none" stroke="black" points="0,-307 0,-328 205,-328 205,-307 0,-307"/>
<text text-anchor="start" x="9" y="-313.8" font-family="Times New Roman,serif" font-size="14.00">operational_lifetime_length_years</text>
<polygon fill="none" stroke="black" points="205,-307 205,-328 406,-328 406,-307 205,-307"/>
<text text-anchor="start" x="293" y="-313.8" font-family="Times New Roman,serif" font-size="14.00">float</text>
<polygon fill="none" stroke="black" points="0,-286 0,-307 205,-307 205,-286 0,-286"/>
<text text-anchor="start" x="69" y="-292.8" font-family="Times New Roman,serif" font-size="14.00">wind_farms</text>
<polygon fill="none" stroke="black" points="205,-286 205,-307 406,-307 406,-286 205,-286"/>
<text text-anchor="start" x="224.5" y="-292.8" font-family="Times New Roman,serif" font-size="14.00">list[WindFarmConfiguration]</text>
<polygon fill="none" stroke="black" points="0,-265 0,-286 205,-286 205,-265 0,-265"/>
<text text-anchor="start" x="3" y="-271.8" font-family="Times New Roman,serif" font-size="14.00">turbine_wind_resource_assessment</text>
<polygon fill="none" stroke="black" points="205,-265 205,-286 406,-286 406,-265 205,-265"/>
<text text-anchor="start" x="208" y="-271.8" font-family="Times New Roman,serif" font-size="14.00">TurbineWindResourceAssessment</text>
<polygon fill="none" stroke="black" points="0,-244 0,-265 205,-265 205,-244 0,-244"/>
<text text-anchor="start" x="48.5" y="-250.8" font-family="Times New Roman,serif" font-size="14.00">energy_assessment</text>
<polygon fill="none" stroke="black" points="205,-244 205,-265 406,-265 406,-244 205,-244"/>
<text text-anchor="start" x="252.5" y="-250.8" font-family="Times New Roman,serif" font-size="14.00">EnergyAssessment</text>
</a>
</g>
</g>
<!-- eya_def_tools.data_models.scenario.Scenario&#45;&gt;eya_def_tools.data_models.energy_assessment.EnergyAssessment -->
<g id="edge1" class="edge">
<title>eya_def_tools.data_models.scenario.Scenario:e&#45;&gt;eya_def_tools.data_models.energy_assessment.EnergyAssessment:w</title>
<path fill="none" stroke="black" d="M406,-254C499.52,-254 463.66,-108.64 543.54,-93.3"/>
<polyline fill="none" stroke="black" points="558,-92 553.02,-92.45"/>
<polygon fill="black" stroke="black" points="551.58,-87.56 552.47,-97.52 550.48,-97.7 549.58,-87.74 551.58,-87.56"/>
<polyline fill="none" stroke="black" points="553.02,-92.45 548.04,-92.9"/>
<polygon fill="black" stroke="black" points="546.6,-88.01 547.49,-97.97 545.5,-98.15 544.6,-88.19 546.6,-88.01"/>
<polyline fill="none" stroke="black" points="548.04,-92.9 543.06,-93.35"/>
</g>
<!-- eya_def_tools.data_models.wind_farm.WindFarmConfiguration -->
<g id="node3" class="node">
<title>eya_def_tools.data_models.wind_farm.WindFarmConfiguration</title>
<g id="a_node3"><a xlink:title="eya_def_tools.data_models.wind_farm.WindFarmConfiguration&#10;&#10;A collection of wind turbines considered as one unit (plant).&#10;&#10;Attributes:&#10; &#160;&#160;&#160;id (str): Unique identifier of the wind farm.&#10; &#160;&#160;&#160;label (str): Label or name of the wind farm.&#10; &#160;&#160;&#160;abbreviation (Optional[str]): Optional abbreviated label of the wind farm. Default is None.&#10; &#160;&#160;&#160;description (Optional[str]): Optional description of the wind farm. Default is None.&#10; &#160;&#160;&#160;comments (Optional[str]): Optional comments on the wind farm. Default is None.&#10; &#160;&#160;&#160;turbines (list[TurbineConfiguration]): List of specifications for constituent turbines.&#10; &#160;&#160;&#160;relevance (WindFarmRelevance(StrEnum)): The relevance of the wind farm for the assessment (&#39;internal&#39;, &#39;external&#39; or &#39;future&#39;).&#10; &#160;&#160;&#160;operational_lifetime_start_date (date): Operational lifetime start date of the wind farm (format YYYY&#45;MM&#45;DD).&#10; &#160;&#160;&#160;operational_lifetime_end_date (Optional[date]): Operational lifetime end date of the wind farm (format YYYY&#45;MM&#45;DD). Default is None.&#10; &#160;&#160;&#160;capacity (float): The total project capacity (in MW), which is the lesser of the maximum permanently transmittable power at the grid connection and the maximum production under typical conditions.&#10; &#160;&#160;&#160;restrictions (Optional[list[OperationalRestriction]]): List of operational restrictions at the wind farm level. Default is None.&#10;">
<polygon fill="none" stroke="black" points="540,-553 540,-574 932,-574 932,-553 540,-553"/>
<text text-anchor="start" x="659.5" y="-560.8" font-family="Times New Roman,serif" font-weight="bold" font-size="14.00">WindFarmConfiguration</text>
<polygon fill="none" stroke="black" points="540,-532 540,-553 718,-553 718,-532 540,-532"/>
<text text-anchor="start" x="623.5" y="-538.8" font-family="Times New Roman,serif" font-size="14.00">id</text>
<polygon fill="none" stroke="black" points="718,-532 718,-553 932,-553 932,-532 718,-532"/>
<text text-anchor="start" x="817.5" y="-538.8" font-family="Times New Roman,serif" font-size="14.00">str</text>
<polygon fill="none" stroke="black" points="540,-511 540,-532 718,-532 718,-511 540,-511"/>
<text text-anchor="start" x="616" y="-517.8" font-family="Times New Roman,serif" font-size="14.00">label</text>
<polygon fill="none" stroke="black" points="718,-511 718,-532 932,-532 932,-511 718,-511"/>
<text text-anchor="start" x="817.5" y="-517.8" font-family="Times New Roman,serif" font-size="14.00">str</text>
<polygon fill="none" stroke="black" points="540,-490 540,-511 718,-511 718,-490 540,-490"/>
<text text-anchor="start" x="594.5" y="-496.8" font-family="Times New Roman,serif" font-size="14.00">abbreviation</text>
<polygon fill="none" stroke="black" points="718,-490 718,-511 932,-511 932,-490 718,-490"/>
<text text-anchor="start" x="789" y="-496.8" font-family="Times New Roman,serif" font-size="14.00">Optional[str]</text>
<polygon fill="none" stroke="black" points="540,-469 540,-490 718,-490 718,-469 540,-469"/>
<text text-anchor="start" x="597.5" y="-475.8" font-family="Times New Roman,serif" font-size="14.00">description</text>
<polygon fill="none" stroke="black" points="718,-469 718,-490 932,-490 932,-469 718,-469"/>
<text text-anchor="start" x="789" y="-475.8" font-family="Times New Roman,serif" font-size="14.00">Optional[str]</text>
<polygon fill="none" stroke="black" points="540,-448 540,-469 718,-469 718,-448 540,-448"/>
<text text-anchor="start" x="600" y="-454.8" font-family="Times New Roman,serif" font-size="14.00">comments</text>
<polygon fill="none" stroke="black" points="718,-448 718,-469 932,-469 932,-448 718,-448"/>
<text text-anchor="start" x="789" y="-454.8" font-family="Times New Roman,serif" font-size="14.00">Optional[str]</text>
<polygon fill="none" stroke="black" points="540,-427 540,-448 718,-448 718,-427 540,-427"/>
<text text-anchor="start" x="606.5" y="-433.8" font-family="Times New Roman,serif" font-size="14.00">turbines</text>
<polygon fill="none" stroke="black" points="718,-427 718,-448 932,-448 932,-427 718,-427"/>
<text text-anchor="start" x="752.5" y="-433.8" font-family="Times New Roman,serif" font-size="14.00">list[TurbineConfiguration]</text>
<polygon fill="none" stroke="black" points="540,-406 540,-427 718,-427 718,-406 540,-406"/>
<text text-anchor="start" x="603" y="-412.8" font-family="Times New Roman,serif" font-size="14.00">relevance</text>
<polygon fill="none" stroke="black" points="718,-406 718,-427 932,-427 932,-406 718,-406"/>
<text text-anchor="start" x="737.5" y="-412.8" font-family="Times New Roman,serif" font-size="14.00">WindFarmRelevance(StrEnum)</text>
<polygon fill="none" stroke="black" points="540,-385 540,-406 718,-406 718,-385 540,-385"/>
<text text-anchor="start" x="543" y="-391.8" font-family="Times New Roman,serif" font-size="14.00">operational_lifetime_start_date</text>
<polygon fill="none" stroke="black" points="718,-385 718,-406 932,-406 932,-385 718,-385"/>
<text text-anchor="start" x="813" y="-391.8" font-family="Times New Roman,serif" font-size="14.00">date</text>
<polygon fill="none" stroke="black" points="540,-364 540,-385 718,-385 718,-364 540,-364"/>
<text text-anchor="start" x="545" y="-370.8" font-family="Times New Roman,serif" font-size="14.00">operational_lifetime_end_date</text>
<polygon fill="none" stroke="black" points="718,-364 718,-385 932,-385 932,-364 718,-364"/>
<text text-anchor="start" x="784.5" y="-370.8" font-family="Times New Roman,serif" font-size="14.00">Optional[date]</text>
<polygon fill="none" stroke="black" points="540,-343 540,-364 718,-364 718,-343 540,-343"/>
<text text-anchor="start" x="605.5" y="-349.8" font-family="Times New Roman,serif" font-size="14.00">capacity</text>
<polygon fill="none" stroke="black" points="718,-343 718,-364 932,-364 932,-343 718,-343"/>
<text text-anchor="start" x="812.5" y="-349.8" font-family="Times New Roman,serif" font-size="14.00">float</text>
<polygon fill="none" stroke="black" points="540,-322 540,-343 718,-343 718,-322 540,-322"/>
<text text-anchor="start" x="598" y="-328.8" font-family="Times New Roman,serif" font-size="14.00">restrictions</text>
<polygon fill="none" stroke="black" points="718,-322 718,-343 932,-343 932,-322 718,-322"/>
<text text-anchor="start" x="721" y="-328.8" font-family="Times New Roman,serif" font-size="14.00">Optional[list[OperationalRestriction]]</text>
</a>
</g>
</g>
<!-- eya_def_tools.data_models.scenario.Scenario&#45;&gt;eya_def_tools.data_models.wind_farm.WindFarmConfiguration -->
<g id="edge2" class="edge">
<title>eya_def_tools.data_models.scenario.Scenario:e&#45;&gt;eya_def_tools.data_models.wind_farm.WindFarmConfiguration:w</title>
<path fill="none" stroke="black" d="M406,-296C532.09,-296 419.08,-536.98 520.42,-561.92"/>
<polygon fill="black" stroke="black" points="529.06,-562.89 538.5,-568.47 534.03,-563.44 539,-564 539,-564 539,-564 534.03,-563.44 539.5,-559.53 529.06,-562.89 529.06,-562.89"/>
<ellipse fill="none" stroke="black" cx="524.59" cy="-562.39" rx="4" ry="4"/>
</g>
<!-- eya_def_tools.data_models.wind_resource.TurbineWindResourceAssessment -->
<g id="node4" class="node">
<title>eya_def_tools.data_models.wind_resource.TurbineWindResourceAssessment</title>
<g id="a_node4"><a xlink:title="eya_def_tools.data_models.wind_resource.TurbineWindResourceAssessment&#10;&#10;Wind resource assessment at the turbine locations.&#10;&#10;Attributes:&#10; &#160;&#160;&#160;wind_resource_assessment_id_reference (str): The ID of the wind resource assessment on which the turbine wind resource assessment is based. This must refer to an ID of a wind resource assessment included at the top level of the EYA DEF. The schema requires that a turbine wind resource assessment is based on only one wind resource assessment.&#10; &#160;&#160;&#160;description (Optional[str]): Optional description of the turbine wind resource assessment. Default is None.&#10; &#160;&#160;&#160;comments (Optional[str]): Optional comments on the turbine wind resource assessment. Default is None.&#10; &#160;&#160;&#160;wind_spatial_modelling_processes (list[AssessmentProcessDescription]): Wind spatial modelling processes used in the assessment.&#10; &#160;&#160;&#160;results (TurbineWindResourceResults): Results of the wind resource assessment at the turbine location(s).&#10; &#160;&#160;&#160;wind_uncertainty_assessment (WindUncertaintyAssessment): Wind related uncertainty assessment categories including results.&#10;">
<polygon fill="none" stroke="black" points="514,-264 514,-285 958,-285 958,-264 514,-264"/>
<text text-anchor="start" x="630.5" y="-271.8" font-family="Times New Roman,serif" font-weight="bold" font-size="14.00">TurbineWindResourceAssessment</text>
<polygon fill="none" stroke="black" points="514,-243 514,-264 750,-264 750,-243 514,-243"/>
<text text-anchor="start" x="517" y="-249.8" font-family="Times New Roman,serif" font-size="14.00">wind_resource_assessment_id_reference</text>
<polygon fill="none" stroke="black" points="750,-243 750,-264 958,-264 958,-243 750,-243"/>
<text text-anchor="start" x="846.5" y="-249.8" font-family="Times New Roman,serif" font-size="14.00">str</text>
<polygon fill="none" stroke="black" points="514,-222 514,-243 750,-243 750,-222 514,-222"/>
<text text-anchor="start" x="600.5" y="-228.8" font-family="Times New Roman,serif" font-size="14.00">description</text>
<polygon fill="none" stroke="black" points="750,-222 750,-243 958,-243 958,-222 750,-222"/>
<text text-anchor="start" x="818" y="-228.8" font-family="Times New Roman,serif" font-size="14.00">Optional[str]</text>
<polygon fill="none" stroke="black" points="514,-201 514,-222 750,-222 750,-201 514,-201"/>
<text text-anchor="start" x="603" y="-207.8" font-family="Times New Roman,serif" font-size="14.00">comments</text>
<polygon fill="none" stroke="black" points="750,-201 750,-222 958,-222 958,-201 750,-201"/>
<text text-anchor="start" x="818" y="-207.8" font-family="Times New Roman,serif" font-size="14.00">Optional[str]</text>
<polygon fill="none" stroke="black" points="514,-180 514,-201 750,-201 750,-180 514,-180"/>
<text text-anchor="start" x="534" y="-186.8" font-family="Times New Roman,serif" font-size="14.00">wind_spatial_modelling_processes</text>
<polygon fill="none" stroke="black" points="750,-180 750,-201 958,-201 958,-180 750,-180"/>
<text text-anchor="start" x="753" y="-186.8" font-family="Times New Roman,serif" font-size="14.00">list[AssessmentProcessDescription]</text>
<polygon fill="none" stroke="black" points="514,-159 514,-180 750,-180 750,-159 514,-159"/>
<text text-anchor="start" x="613.5" y="-165.8" font-family="Times New Roman,serif" font-size="14.00">results</text>
<polygon fill="none" stroke="black" points="750,-159 750,-180 958,-180 958,-159 750,-159"/>
<text text-anchor="start" x="769.5" y="-165.8" font-family="Times New Roman,serif" font-size="14.00">TurbineWindResourceResults</text>
<polygon fill="none" stroke="black" points="514,-138 514,-159 750,-159 750,-138 514,-138"/>
<text text-anchor="start" x="549" y="-144.8" font-family="Times New Roman,serif" font-size="14.00">wind_uncertainty_assessment</text>
<polygon fill="none" stroke="black" points="750,-138 750,-159 958,-159 958,-138 750,-138"/>
<text text-anchor="start" x="773" y="-144.8" font-family="Times New Roman,serif" font-size="14.00">WindUncertaintyAssessment</text>
</a>
</g>
</g>
<!-- eya_def_tools.data_models.scenario.Scenario&#45;&gt;eya_def_tools.data_models.wind_resource.TurbineWindResourceAssessment -->
<g id="edge3" class="edge">
<title>eya_def_tools.data_models.scenario.Scenario:e&#45;&gt;eya_def_tools.data_models.wind_resource.TurbineWindResourceAssessment:w</title>
<path fill="none" stroke="black" d="M406,-275C448.75,-275 462.94,-275 499.45,-275"/>
<polyline fill="none" stroke="black" points="514,-275 509,-275"/>
<polygon fill="black" stroke="black" points="508,-270 508,-280 506,-280 506,-270 508,-270"/>
<polyline fill="none" stroke="black" points="509,-275 504,-275"/>
<polygon fill="black" stroke="black" points="503,-270 503,-280 501,-280 501,-270 503,-270"/>
<polyline fill="none" stroke="black" points="504,-275 499,-275"/>
</g>
</g>
</svg>
