<?xml version="1.0" encoding="UTF-8" standalone="no"?>
<!DOCTYPE svg PUBLIC "-//W3C//DTD SVG 1.1//EN"
 "http://www.w3.org/Graphics/SVG/1.1/DTD/svg11.dtd">
<!-- Generated by graphviz version 12.2.1 (20241206.2353)
 -->
<!-- Title: Entity Relationship Diagram created by erdantic Pages: 1 -->
<svg width="1127pt" height="393pt"
 viewBox="0.00 0.00 1127.00 393.00" xmlns="http://www.w3.org/2000/svg" xmlns:xlink="http://www.w3.org/1999/xlink">
<g id="graph0" class="graph" transform="scale(1 1) rotate(0) translate(4 389)">
<title>Entity Relationship Diagram created by erdantic</title>
<polygon fill="white" stroke="none" points="-4,4 -4,-389 1123,-389 1123,4 -4,4"/>
<text text-anchor="middle" x="559.5" y="-5.95" font-family="Times New Roman,Times,Liberation Serif,serif" font-size="9.00" fill="#a8a8a8">Created by erdantic v1.0.4 &lt;https://github.com/drivendataorg/erdantic&gt;</text>
<!-- eya_def_tools.data_models.energy_assessment.EnergyAssessment -->
<g id="node1" class="node">
<title>eya_def_tools.data_models.energy_assessment.EnergyAssessment</title>
<g id="a_node1"><a xlink:title="eya_def_tools.data_models.energy_assessment.EnergyAssessment&#10;&#10;Energy assessment details and results.&#10;&#10;Fields:&#10; &#160;&#160;&#160;gross_energy_assessment: Details and results for the assessment of gross energy yield.&#10; &#160;&#160;&#160;wind_uncertainty_assessment: Details of the wind related uncertainty assessment.&#10; &#160;&#160;&#160;plant_performance_assessment: Plant performance loss assessment categories including results.&#10; &#160;&#160;&#160;net_energy_assessment: Details and results for the assessment of net energy yield.&#10;">
<polygon fill="none" stroke="black" points="657.75,-108.5 657.75,-131 1041,-131 1041,-108.5 657.75,-108.5"/>
<text text-anchor="start" x="795" y="-115.7" font-family="Times New Roman,Times,Liberation Serif,serif" font-weight="bold" font-size="14.00">EnergyAssessment</text>
<polygon fill="none" stroke="black" points="657.75,-86 657.75,-108.5 834,-108.5 834,-86 657.75,-86"/>
<text text-anchor="start" x="676.12" y="-92.2" font-family="Times New Roman,Times,Liberation Serif,serif" font-size="14.00">gross_energy_assessment</text>
<polygon fill="none" stroke="black" points="834,-86 834,-108.5 1002,-108.5 1002,-86 834,-86"/>
<text text-anchor="start" x="850.5" y="-92.2" font-family="Times New Roman,Times,Liberation Serif,serif" font-size="14.00">GrossEnergyAssessment</text>
<polygon fill="none" stroke="black" points="1002,-86 1002,-108.5 1041,-108.5 1041,-86 1002,-86"/>
<text text-anchor="start" x="1005" y="-92.2" font-family="Times New Roman,Times,Liberation Serif,serif" font-size="14.00">object</text>
<polygon fill="none" stroke="black" points="657.75,-63.5 657.75,-86 834,-86 834,-63.5 657.75,-63.5"/>
<text text-anchor="start" x="664.88" y="-69.7" font-family="Times New Roman,Times,Liberation Serif,serif" font-size="14.00">wind_uncertainty_assessment</text>
<polygon fill="none" stroke="black" points="834,-63.5 834,-86 1002,-86 1002,-63.5 834,-63.5"/>
<text text-anchor="start" x="838.88" y="-69.7" font-family="Times New Roman,Times,Liberation Serif,serif" font-size="14.00">WindUncertaintyAssessment</text>
<polygon fill="none" stroke="black" points="1002,-63.5 1002,-86 1041,-86 1041,-63.5 1002,-63.5"/>
<text text-anchor="start" x="1005" y="-69.7" font-family="Times New Roman,Times,Liberation Serif,serif" font-size="14.00">object</text>
<polygon fill="none" stroke="black" points="657.75,-41 657.75,-63.5 834,-63.5 834,-41 657.75,-41"/>
<text text-anchor="start" x="660.75" y="-47.2" font-family="Times New Roman,Times,Liberation Serif,serif" font-size="14.00">plant_performance_assessment</text>
<polygon fill="none" stroke="black" points="834,-41 834,-63.5 1002,-63.5 1002,-41 834,-41"/>
<text text-anchor="start" x="837" y="-47.2" font-family="Times New Roman,Times,Liberation Serif,serif" font-size="14.00">PlantPerformanceAssessment</text>
<polygon fill="none" stroke="black" points="1002,-41 1002,-63.5 1041,-63.5 1041,-41 1002,-41"/>
<text text-anchor="start" x="1005" y="-47.2" font-family="Times New Roman,Times,Liberation Serif,serif" font-size="14.00">object</text>
<polygon fill="none" stroke="black" points="657.75,-18.5 657.75,-41 834,-41 834,-18.5 657.75,-18.5"/>
<text text-anchor="start" x="682.12" y="-24.7" font-family="Times New Roman,Times,Liberation Serif,serif" font-size="14.00">net_energy_assessment</text>
<polygon fill="none" stroke="black" points="834,-18.5 834,-41 1002,-41 1002,-18.5 834,-18.5"/>
<text text-anchor="start" x="856.5" y="-24.7" font-family="Times New Roman,Times,Liberation Serif,serif" font-size="14.00">NetEnergyAssessment</text>
<polygon fill="none" stroke="black" points="1002,-18.5 1002,-41 1041,-41 1041,-18.5 1002,-18.5"/>
<text text-anchor="start" x="1005" y="-24.7" font-family="Times New Roman,Times,Liberation Serif,serif" font-size="14.00">object</text>
</a>
</g>
</g>
<!-- eya_def_tools.data_models.scenario.Scenario -->
<g id="node2" class="node">
<title>eya_def_tools.data_models.scenario.Scenario</title>
<g id="a_node2"><a xlink:title="eya_def_tools.data_models.scenario.Scenario&#10;&#10;Single unique energy yield assessment scenario.&#10;&#10;Fields:&#10; &#160;&#160;&#160;id: Optional unique identifier of the scenario, which should not be empty if the field is included. Default is None.&#10; &#160;&#160;&#160;label: Label of the scenario.&#10; &#160;&#160;&#160;description: Optional description of the scenario, which should not be empty if the field is included. Default is None.&#10; &#160;&#160;&#160;comments: Optional comments on the scenario, which should not be empty if the field is included. Default is None.&#10; &#160;&#160;&#160;is_main_scenario: Optional flag to specify whether or not it is the main scenario in the report. Default is None.&#10; &#160;&#160;&#160;wind_farm_ids: List of the IDs for all wind farms included in the scenario. Each ID refers to a wind farm configuration data object within the &#39;wind_farms&#39; section of the top&#45;level of the EYA DEF document. Only wind farms for which turbine interaction effects are modelled shall be included.&#10; &#160;&#160;&#160;turbine_wind_resource_assessment: Wind resource assessment at the turbine locations.&#10; &#160;&#160;&#160;energy_assessment: Energy assessment details and results, including gross energy, plant performance, net energy and uncertainties.&#10;">
<polygon fill="none" stroke="black" points="0,-362.5 0,-385 471.75,-385 471.75,-362.5 0,-362.5"/>
<text text-anchor="start" x="210.75" y="-369.7" font-family="Times New Roman,Times,Liberation Serif,serif" font-weight="bold" font-size="14.00">Scenario</text>
<polygon fill="none" stroke="black" points="0,-340 0,-362.5 198,-362.5 198,-340 0,-340"/>
<text text-anchor="start" x="93.75" y="-346.2" font-family="Times New Roman,Times,Liberation Serif,serif" font-size="14.00">id</text>
<polygon fill="none" stroke="black" points="198,-340 198,-362.5 391.5,-362.5 391.5,-340 198,-340"/>
<text text-anchor="start" x="259.88" y="-346.2" font-family="Times New Roman,Times,Liberation Serif,serif" font-size="14.00">Optional[str]</text>
<polygon fill="none" stroke="black" points="391.5,-340 391.5,-362.5 471.75,-362.5 471.75,-340 391.5,-340"/>
<text text-anchor="start" x="400.5" y="-346.2" font-family="Times New Roman,Times,Liberation Serif,serif" font-size="14.00">string | null</text>
<polygon fill="none" stroke="black" points="0,-317.5 0,-340 198,-340 198,-317.5 0,-317.5"/>
<text text-anchor="start" x="85.88" y="-323.7" font-family="Times New Roman,Times,Liberation Serif,serif" font-size="14.00">label</text>
<polygon fill="none" stroke="black" points="198,-317.5 198,-340 391.5,-340 391.5,-317.5 198,-317.5"/>
<text text-anchor="start" x="288" y="-323.7" font-family="Times New Roman,Times,Liberation Serif,serif" font-size="14.00">str</text>
<polygon fill="none" stroke="black" points="391.5,-317.5 391.5,-340 471.75,-340 471.75,-317.5 391.5,-317.5"/>
<text text-anchor="start" x="416.25" y="-323.7" font-family="Times New Roman,Times,Liberation Serif,serif" font-size="14.00">string</text>
<polygon fill="none" stroke="black" points="0,-295 0,-317.5 198,-317.5 198,-295 0,-295"/>
<text text-anchor="start" x="69" y="-301.2" font-family="Times New Roman,Times,Liberation Serif,serif" font-size="14.00">description</text>
<polygon fill="none" stroke="black" points="198,-295 198,-317.5 391.5,-317.5 391.5,-295 198,-295"/>
<text text-anchor="start" x="259.88" y="-301.2" font-family="Times New Roman,Times,Liberation Serif,serif" font-size="14.00">Optional[str]</text>
<polygon fill="none" stroke="black" points="391.5,-295 391.5,-317.5 471.75,-317.5 471.75,-295 391.5,-295"/>
<text text-anchor="start" x="400.5" y="-301.2" font-family="Times New Roman,Times,Liberation Serif,serif" font-size="14.00">string | null</text>
<polygon fill="none" stroke="black" points="0,-272.5 0,-295 198,-295 198,-272.5 0,-272.5"/>
<text text-anchor="start" x="70.5" y="-278.7" font-family="Times New Roman,Times,Liberation Serif,serif" font-size="14.00">comments</text>
<polygon fill="none" stroke="black" points="198,-272.5 198,-295 391.5,-295 391.5,-272.5 198,-272.5"/>
<text text-anchor="start" x="259.88" y="-278.7" font-family="Times New Roman,Times,Liberation Serif,serif" font-size="14.00">Optional[str]</text>
<polygon fill="none" stroke="black" points="391.5,-272.5 391.5,-295 471.75,-295 471.75,-272.5 391.5,-272.5"/>
<text text-anchor="start" x="400.5" y="-278.7" font-family="Times New Roman,Times,Liberation Serif,serif" font-size="14.00">string | null</text>
<polygon fill="none" stroke="black" points="0,-250 0,-272.5 198,-272.5 198,-250 0,-250"/>
<text text-anchor="start" x="51.38" y="-256.2" font-family="Times New Roman,Times,Liberation Serif,serif" font-size="14.00">is_main_scenario</text>
<polygon fill="none" stroke="black" points="198,-250 198,-272.5 391.5,-272.5 391.5,-250 198,-250"/>
<text text-anchor="start" x="254.62" y="-256.2" font-family="Times New Roman,Times,Liberation Serif,serif" font-size="14.00">Optional[bool]</text>
<polygon fill="none" stroke="black" points="391.5,-250 391.5,-272.5 471.75,-272.5 471.75,-250 391.5,-250"/>
<text text-anchor="start" x="394.5" y="-256.2" font-family="Times New Roman,Times,Liberation Serif,serif" font-size="14.00">boolean | null</text>
<polygon fill="none" stroke="black" points="0,-227.5 0,-250 198,-250 198,-227.5 0,-227.5"/>
<text text-anchor="start" x="57.75" y="-233.7" font-family="Times New Roman,Times,Liberation Serif,serif" font-size="14.00">wind_farm_ids</text>
<polygon fill="none" stroke="black" points="198,-227.5 198,-250 391.5,-250 391.5,-227.5 198,-227.5"/>
<text text-anchor="start" x="275.25" y="-233.7" font-family="Times New Roman,Times,Liberation Serif,serif" font-size="14.00">list[str]</text>
<polygon fill="none" stroke="black" points="391.5,-227.5 391.5,-250 471.75,-250 471.75,-227.5 391.5,-227.5"/>
<text text-anchor="start" x="417.75" y="-233.7" font-family="Times New Roman,Times,Liberation Serif,serif" font-size="14.00">array</text>
<polygon fill="none" stroke="black" points="0,-205 0,-227.5 198,-227.5 198,-205 0,-205"/>
<text text-anchor="start" x="3" y="-211.2" font-family="Times New Roman,Times,Liberation Serif,serif" font-size="14.00">turbine_wind_resource_assessment</text>
<polygon fill="none" stroke="black" points="198,-205 198,-227.5 391.5,-227.5 391.5,-205 198,-205"/>
<text text-anchor="start" x="201" y="-211.2" font-family="Times New Roman,Times,Liberation Serif,serif" font-size="14.00">TurbineWindResourceAssessment</text>
<polygon fill="none" stroke="black" points="391.5,-205 391.5,-227.5 471.75,-227.5 471.75,-205 391.5,-205"/>
<text text-anchor="start" x="415.12" y="-211.2" font-family="Times New Roman,Times,Liberation Serif,serif" font-size="14.00">object</text>
<polygon fill="none" stroke="black" points="0,-182.5 0,-205 198,-205 198,-182.5 0,-182.5"/>
<text text-anchor="start" x="46.88" y="-188.7" font-family="Times New Roman,Times,Liberation Serif,serif" font-size="14.00">energy_assessment</text>
<polygon fill="none" stroke="black" points="198,-182.5 198,-205 391.5,-205 391.5,-182.5 198,-182.5"/>
<text text-anchor="start" x="243" y="-188.7" font-family="Times New Roman,Times,Liberation Serif,serif" font-size="14.00">EnergyAssessment</text>
<polygon fill="none" stroke="black" points="391.5,-182.5 391.5,-205 471.75,-205 471.75,-182.5 391.5,-182.5"/>
<text text-anchor="start" x="415.12" y="-188.7" font-family="Times New Roman,Times,Liberation Serif,serif" font-size="14.00">object</text>
</a>
</g>
</g>
<!-- eya_def_tools.data_models.scenario.Scenario&#45;&gt;eya_def_tools.data_models.energy_assessment.EnergyAssessment -->
<g id="edge1" class="edge">
<title>eya_def_tools.data_models.scenario.Scenario:e&#45;&gt;eya_def_tools.data_models.energy_assessment.EnergyAssessment:w</title>
<path fill="none" stroke="black" d="M481.28,-193.45C556.18,-188.67 569.96,-127.83 642.05,-120.48"/>
<polyline fill="none" stroke="black" points="471.75,-193.75 476.75,-193.59"/>
<polyline fill="none" stroke="black" points="476.75,-193.59 481.75,-193.44"/>
<polyline fill="none" stroke="black" points="656.75,-119.75 651.76,-120"/>
<polygon fill="black" stroke="black" points="650.51,-115.05 651,-125.04 649.01,-125.14 648.51,-115.15 650.51,-115.05"/>
<polyline fill="none" stroke="black" points="651.76,-120 646.76,-120.24"/>
<polygon fill="black" stroke="black" points="645.52,-115.3 646.01,-125.29 644.01,-125.38 643.52,-115.4 645.52,-115.3"/>
<polyline fill="none" stroke="black" points="646.76,-120.24 641.77,-120.49"/>
</g>
<!-- eya_def_tools.data_models.wind_resource.TurbineWindResourceAssessment -->
<g id="node3" class="node">
<title>eya_def_tools.data_models.wind_resource.TurbineWindResourceAssessment</title>
<g id="a_node3"><a xlink:title="eya_def_tools.data_models.wind_resource.TurbineWindResourceAssessment&#10;&#10;Wind resource assessment at the turbine locations.&#10;&#10;Fields:&#10; &#160;&#160;&#160;wind_resource_assessment_id_reference: The ID of the wind resource assessment on which the turbine wind resource assessment is based. This must refer to an ID of a wind resource assessment included at the top level of the EYA DEF. The schema requires that a turbine wind resource assessment is based on only one wind resource assessment.&#10; &#160;&#160;&#160;description: Optional description of the turbine wind resource assessment, which should not be empty if the field is included. Default is None.&#10; &#160;&#160;&#160;comments: Optional comments on the turbine wind resource assessment, which should not be empty if the field is included. Default is None.&#10; &#160;&#160;&#160;weighting: Optional specification of the weighting applied to estimate the wind resource at the turbine location(s),relevant for example when predictions from different measurement stations were weighted individually at each turbine based on representativeness. Default is None.&#10; &#160;&#160;&#160;results: Results of the wind resource assessment at the turbine location(s).&#10;">
<polygon fill="none" stroke="black" points="579.75,-279.75 579.75,-302.25 1119,-302.25 1119,-279.75 579.75,-279.75"/>
<text text-anchor="start" x="750" y="-286.95" font-family="Times New Roman,Times,Liberation Serif,serif" font-weight="bold" font-size="14.00">TurbineWindResourceAssessment</text>
<polygon fill="none" stroke="black" points="579.75,-257.25 579.75,-279.75 807,-279.75 807,-257.25 579.75,-257.25"/>
<text text-anchor="start" x="582.75" y="-263.45" font-family="Times New Roman,Times,Liberation Serif,serif" font-size="14.00">wind_resource_assessment_id_reference</text>
<polygon fill="none" stroke="black" points="807,-257.25 807,-279.75 1048.5,-279.75 1048.5,-257.25 807,-257.25"/>
<text text-anchor="start" x="921" y="-263.45" font-family="Times New Roman,Times,Liberation Serif,serif" font-size="14.00">str</text>
<polygon fill="none" stroke="black" points="1048.5,-257.25 1048.5,-279.75 1119,-279.75 1119,-257.25 1048.5,-257.25"/>
<text text-anchor="start" x="1068.38" y="-263.45" font-family="Times New Roman,Times,Liberation Serif,serif" font-size="14.00">string</text>
<polygon fill="none" stroke="black" points="579.75,-234.75 579.75,-257.25 807,-257.25 807,-234.75 579.75,-234.75"/>
<text text-anchor="start" x="663.38" y="-240.95" font-family="Times New Roman,Times,Liberation Serif,serif" font-size="14.00">description</text>
<polygon fill="none" stroke="black" points="807,-234.75 807,-257.25 1048.5,-257.25 1048.5,-234.75 807,-234.75"/>
<text text-anchor="start" x="892.88" y="-240.95" font-family="Times New Roman,Times,Liberation Serif,serif" font-size="14.00">Optional[str]</text>
<polygon fill="none" stroke="black" points="1048.5,-234.75 1048.5,-257.25 1119,-257.25 1119,-234.75 1048.5,-234.75"/>
<text text-anchor="start" x="1052.62" y="-240.95" font-family="Times New Roman,Times,Liberation Serif,serif" font-size="14.00">string | null</text>
<polygon fill="none" stroke="black" points="579.75,-212.25 579.75,-234.75 807,-234.75 807,-212.25 579.75,-212.25"/>
<text text-anchor="start" x="664.88" y="-218.45" font-family="Times New Roman,Times,Liberation Serif,serif" font-size="14.00">comments</text>
<polygon fill="none" stroke="black" points="807,-212.25 807,-234.75 1048.5,-234.75 1048.5,-212.25 807,-212.25"/>
<text text-anchor="start" x="892.88" y="-218.45" font-family="Times New Roman,Times,Liberation Serif,serif" font-size="14.00">Optional[str]</text>
<polygon fill="none" stroke="black" points="1048.5,-212.25 1048.5,-234.75 1119,-234.75 1119,-212.25 1048.5,-212.25"/>
<text text-anchor="start" x="1052.62" y="-218.45" font-family="Times New Roman,Times,Liberation Serif,serif" font-size="14.00">string | null</text>
<polygon fill="none" stroke="black" points="579.75,-189.75 579.75,-212.25 807,-212.25 807,-189.75 579.75,-189.75"/>
<text text-anchor="start" x="666.38" y="-195.95" font-family="Times New Roman,Times,Liberation Serif,serif" font-size="14.00">weighting</text>
<polygon fill="none" stroke="black" points="807,-189.75 807,-212.25 1048.5,-212.25 1048.5,-189.75 807,-189.75"/>
<text text-anchor="start" x="810" y="-195.95" font-family="Times New Roman,Times,Liberation Serif,serif" font-size="14.00">Optional[TurbineWindResourceWeighting]</text>
<polygon fill="none" stroke="black" points="1048.5,-189.75 1048.5,-212.25 1119,-212.25 1119,-189.75 1048.5,-189.75"/>
<text text-anchor="start" x="1051.5" y="-195.95" font-family="Times New Roman,Times,Liberation Serif,serif" font-size="14.00">object | null</text>
<polygon fill="none" stroke="black" points="579.75,-167.25 579.75,-189.75 807,-189.75 807,-167.25 579.75,-167.25"/>
<text text-anchor="start" x="675.75" y="-173.45" font-family="Times New Roman,Times,Liberation Serif,serif" font-size="14.00">results</text>
<polygon fill="none" stroke="black" points="807,-167.25 807,-189.75 1048.5,-189.75 1048.5,-167.25 807,-167.25"/>
<text text-anchor="start" x="846.38" y="-173.45" font-family="Times New Roman,Times,Liberation Serif,serif" font-size="14.00">TurbineWindResourceResults</text>
<polygon fill="none" stroke="black" points="1048.5,-167.25 1048.5,-189.75 1119,-189.75 1119,-167.25 1048.5,-167.25"/>
<text text-anchor="start" x="1067.25" y="-173.45" font-family="Times New Roman,Times,Liberation Serif,serif" font-size="14.00">object</text>
</a>
</g>
</g>
<!-- eya_def_tools.data_models.scenario.Scenario&#45;&gt;eya_def_tools.data_models.wind_resource.TurbineWindResourceAssessment -->
<g id="edge2" class="edge">
<title>eya_def_tools.data_models.scenario.Scenario:e&#45;&gt;eya_def_tools.data_models.wind_resource.TurbineWindResourceAssessment:w</title>
<path fill="none" stroke="black" d="M481.64,-217.04C524.56,-224.23 525.27,-278.43 565.02,-289.16"/>
<polyline fill="none" stroke="black" points="471.75,-216.25 476.73,-216.65"/>
<polyline fill="none" stroke="black" points="476.73,-216.65 481.72,-217.04"/>
<polyline fill="none" stroke="black" points="579.75,-291 574.79,-290.38"/>
<polygon fill="black" stroke="black" points="574.42,-285.29 573.18,-295.22 571.19,-294.97 572.43,-285.05 574.42,-285.29"/>
<polyline fill="none" stroke="black" points="574.79,-290.38 569.83,-289.76"/>
<polygon fill="black" stroke="black" points="569.45,-284.67 568.21,-294.6 566.23,-294.35 567.47,-284.43 569.45,-284.67"/>
<polyline fill="none" stroke="black" points="569.83,-289.76 564.87,-289.14"/>
</g>
</g>
</svg>
