<?xml version="1.0" encoding="UTF-8" standalone="no"?>
<!DOCTYPE svg PUBLIC "-//W3C//DTD SVG 1.1//EN"
 "http://www.w3.org/Graphics/SVG/1.1/DTD/svg11.dtd">
<!-- Generated by graphviz version 9.0.0 (20230911.1827)
 -->
<!-- Title: Entity Relationship Diagram Pages: 1 -->
<svg width="962pt" height="383pt"
 viewBox="0.00 0.00 962.00 383.25" xmlns="http://www.w3.org/2000/svg" xmlns:xlink="http://www.w3.org/1999/xlink">
<g id="graph0" class="graph" transform="scale(1 1) rotate(0) translate(4 379.25)">
<title>Entity Relationship Diagram</title>
<polygon fill="white" stroke="none" points="-4,4 -4,-379.25 958,-379.25 958,4 -4,4"/>
<text text-anchor="middle" x="477" y="-6.7" font-family="Times New Roman,serif" font-size="9.00" fill="#a8a8a8">Created by erdantic v0.6.0 &lt;https://github.com/drivendataorg/erdantic&gt;</text>
<!-- eya_def_tools.data_models.energy_assessment.EnergyAssessment -->
<g id="node1" class="node">
<title>eya_def_tools.data_models.energy_assessment.EnergyAssessment</title>
<g id="a_node1"><a xlink:title="eya_def_tools.data_models.energy_assessment.EnergyAssessment&#10;&#10;Energy assessment details and results.&#10;&#10;Attributes:&#10; &#160;&#160;&#160;gross_energy_assessment (GrossEnergyAssessment): Details and results for the assessment of gross energy yield.&#10; &#160;&#160;&#160;plant_performance_assessment (PlantPerformanceAssessment): Plant performance loss assessment categories including results.&#10; &#160;&#160;&#160;net_energy_assessment (NetEnergyAssessment): Details and results for the assessment of net energy yield.&#10;">
<polygon fill="none" stroke="black" points="557,-82.25 557,-104.25 909,-104.25 909,-82.25 557,-82.25"/>
<text text-anchor="start" x="675.62" y="-88.95" font-family="Times New Roman,serif" font-weight="bold" font-size="14.00">EnergyAssessment</text>
<polygon fill="none" stroke="black" points="557,-61.25 557,-82.25 738,-82.25 738,-61.25 557,-61.25"/>
<text text-anchor="start" x="574.75" y="-65.95" font-family="Times New Roman,serif" font-size="14.00">gross_energy_assessment</text>
<polygon fill="none" stroke="black" points="738,-61.25 738,-82.25 909,-82.25 909,-61.25 738,-61.25"/>
<text text-anchor="start" x="753.38" y="-65.95" font-family="Times New Roman,serif" font-size="14.00">GrossEnergyAssessment</text>
<polygon fill="none" stroke="black" points="557,-40.25 557,-61.25 738,-61.25 738,-40.25 557,-40.25"/>
<text text-anchor="start" x="559.75" y="-44.95" font-family="Times New Roman,serif" font-size="14.00">plant_performance_assessment</text>
<polygon fill="none" stroke="black" points="738,-40.25 738,-61.25 909,-61.25 909,-40.25 738,-40.25"/>
<text text-anchor="start" x="740.62" y="-44.95" font-family="Times New Roman,serif" font-size="14.00">PlantPerformanceAssessment</text>
<polygon fill="none" stroke="black" points="557,-19.25 557,-40.25 738,-40.25 738,-19.25 557,-19.25"/>
<text text-anchor="start" x="581.88" y="-23.95" font-family="Times New Roman,serif" font-size="14.00">net_energy_assessment</text>
<polygon fill="none" stroke="black" points="738,-19.25 738,-40.25 909,-40.25 909,-19.25 738,-19.25"/>
<text text-anchor="start" x="760.88" y="-23.95" font-family="Times New Roman,serif" font-size="14.00">NetEnergyAssessment</text>
</a>
</g>
</g>
<!-- eya_def_tools.data_models.scenario.Scenario -->
<g id="node2" class="node">
<title>eya_def_tools.data_models.scenario.Scenario</title>
<g id="a_node2"><a xlink:title="eya_def_tools.data_models.scenario.Scenario&#10;&#10;Single unique energy yield assessment scenario.&#10;&#10;Attributes:&#10; &#160;&#160;&#160;id (Optional[str]): Optional unique identifier of the scenario, which should not be empty if the field is included. Default is None.&#10; &#160;&#160;&#160;label (str): Label of the scenario.&#10; &#160;&#160;&#160;description (Optional[str]): Optional description of the scenario, which should not be empty if the field is included. Default is None.&#10; &#160;&#160;&#160;comments (Optional[str]): Optional comments on the scenario, which should not be empty if the field is included. Default is None.&#10; &#160;&#160;&#160;is_main_scenario (Optional[bool]): Optional flag to specify whether or not it is the main scenario in the report. Default is None.&#10; &#160;&#160;&#160;operational_lifetime_length_years (float): Number of years of project operational lifetime.&#10; &#160;&#160;&#160;wind_farm_ids (list[str]): List of the IDs for all wind farms included in the scenario. Each ID refers to a wind farm configuration data object within the &#39;wind_farms&#39; section of the top&#45;level of the EYA DEF document. Only wind farms for which turbine interaction effects are modelled shall be included.&#10; &#160;&#160;&#160;turbine_wind_resource_assessment (TurbineWindResourceAssessment): Wind resource assessment at the turbine locations.&#10; &#160;&#160;&#160;energy_assessment (EnergyAssessment): Energy assessment details and results, including gross energy, plant performance, net energy and uncertainties.&#10;">
<polygon fill="none" stroke="black" points="0,-353.25 0,-375.25 404,-375.25 404,-353.25 0,-353.25"/>
<text text-anchor="start" x="175" y="-359.95" font-family="Times New Roman,serif" font-weight="bold" font-size="14.00">Scenario</text>
<polygon fill="none" stroke="black" points="0,-332.25 0,-353.25 204,-353.25 204,-332.25 0,-332.25"/>
<text text-anchor="start" x="96.75" y="-336.95" font-family="Times New Roman,serif" font-size="14.00">id</text>
<polygon fill="none" stroke="black" points="204,-332.25 204,-353.25 404,-353.25 404,-332.25 204,-332.25"/>
<text text-anchor="start" x="268.38" y="-336.95" font-family="Times New Roman,serif" font-size="14.00">Optional[str]</text>
<polygon fill="none" stroke="black" points="0,-311.25 0,-332.25 204,-332.25 204,-311.25 0,-311.25"/>
<text text-anchor="start" x="89.25" y="-315.95" font-family="Times New Roman,serif" font-size="14.00">label</text>
<polygon fill="none" stroke="black" points="204,-311.25 204,-332.25 404,-332.25 404,-311.25 204,-311.25"/>
<text text-anchor="start" x="296.88" y="-315.95" font-family="Times New Roman,serif" font-size="14.00">str</text>
<polygon fill="none" stroke="black" points="0,-290.25 0,-311.25 204,-311.25 204,-290.25 0,-290.25"/>
<text text-anchor="start" x="70.88" y="-294.95" font-family="Times New Roman,serif" font-size="14.00">description</text>
<polygon fill="none" stroke="black" points="204,-290.25 204,-311.25 404,-311.25 404,-290.25 204,-290.25"/>
<text text-anchor="start" x="268.38" y="-294.95" font-family="Times New Roman,serif" font-size="14.00">Optional[str]</text>
<polygon fill="none" stroke="black" points="0,-269.25 0,-290.25 204,-290.25 204,-269.25 0,-269.25"/>
<text text-anchor="start" x="73.12" y="-273.95" font-family="Times New Roman,serif" font-size="14.00">comments</text>
<polygon fill="none" stroke="black" points="204,-269.25 204,-290.25 404,-290.25 404,-269.25 204,-269.25"/>
<text text-anchor="start" x="268.38" y="-273.95" font-family="Times New Roman,serif" font-size="14.00">Optional[str]</text>
<polygon fill="none" stroke="black" points="0,-248.25 0,-269.25 204,-269.25 204,-248.25 0,-248.25"/>
<text text-anchor="start" x="53.62" y="-252.95" font-family="Times New Roman,serif" font-size="14.00">is_main_scenario</text>
<polygon fill="none" stroke="black" points="204,-248.25 204,-269.25 404,-269.25 404,-248.25 204,-248.25"/>
<text text-anchor="start" x="262.75" y="-252.95" font-family="Times New Roman,serif" font-size="14.00">Optional[bool]</text>
<polygon fill="none" stroke="black" points="0,-227.25 0,-248.25 204,-248.25 204,-227.25 0,-227.25"/>
<text text-anchor="start" x="9" y="-231.95" font-family="Times New Roman,serif" font-size="14.00">operational_lifetime_length_years</text>
<polygon fill="none" stroke="black" points="204,-227.25 204,-248.25 404,-248.25 404,-227.25 204,-227.25"/>
<text text-anchor="start" x="291.62" y="-231.95" font-family="Times New Roman,serif" font-size="14.00">float</text>
<polygon fill="none" stroke="black" points="0,-206.25 0,-227.25 204,-227.25 204,-206.25 0,-206.25"/>
<text text-anchor="start" x="60" y="-210.95" font-family="Times New Roman,serif" font-size="14.00">wind_farm_ids</text>
<polygon fill="none" stroke="black" points="204,-206.25 204,-227.25 404,-227.25 404,-206.25 204,-206.25"/>
<text text-anchor="start" x="284.5" y="-210.95" font-family="Times New Roman,serif" font-size="14.00">list[str]</text>
<polygon fill="none" stroke="black" points="0,-185.25 0,-206.25 204,-206.25 204,-185.25 0,-185.25"/>
<text text-anchor="start" x="2.62" y="-189.95" font-family="Times New Roman,serif" font-size="14.00">turbine_wind_resource_assessment</text>
<polygon fill="none" stroke="black" points="204,-185.25 204,-206.25 404,-206.25 404,-185.25 204,-185.25"/>
<text text-anchor="start" x="206.88" y="-189.95" font-family="Times New Roman,serif" font-size="14.00">TurbineWindResourceAssessment</text>
<polygon fill="none" stroke="black" points="0,-164.25 0,-185.25 204,-185.25 204,-164.25 0,-164.25"/>
<text text-anchor="start" x="48.38" y="-168.95" font-family="Times New Roman,serif" font-size="14.00">energy_assessment</text>
<polygon fill="none" stroke="black" points="204,-164.25 204,-185.25 404,-185.25 404,-164.25 204,-164.25"/>
<text text-anchor="start" x="251.12" y="-168.95" font-family="Times New Roman,serif" font-size="14.00">EnergyAssessment</text>
</a>
</g>
</g>
<!-- eya_def_tools.data_models.scenario.Scenario&#45;&gt;eya_def_tools.data_models.energy_assessment.EnergyAssessment -->
<g id="edge1" class="edge">
<title>eya_def_tools.data_models.scenario.Scenario:e&#45;&gt;eya_def_tools.data_models.energy_assessment.EnergyAssessment:w</title>
<path fill="none" stroke="black" d="M404,-174.75C475.32,-174.75 479.24,-104.45 541.34,-94.83"/>
<polyline fill="none" stroke="black" points="556,-93.75 551.01,-94.12"/>
<polygon fill="black" stroke="black" points="549.65,-89.21 550.39,-99.18 548.39,-99.33 547.65,-89.35 549.65,-89.21"/>
<polyline fill="none" stroke="black" points="551.01,-94.12 546.03,-94.49"/>
<polygon fill="black" stroke="black" points="544.66,-89.57 545.4,-99.55 543.4,-99.69 542.67,-89.72 544.66,-89.57"/>
<polyline fill="none" stroke="black" points="546.03,-94.49 541.04,-94.86"/>
</g>
<!-- eya_def_tools.data_models.wind_resource.TurbineWindResourceAssessment -->
<g id="node3" class="node">
<title>eya_def_tools.data_models.wind_resource.TurbineWindResourceAssessment</title>
<g id="a_node3"><a xlink:title="eya_def_tools.data_models.wind_resource.TurbineWindResourceAssessment&#10;&#10;Wind resource assessment at the turbine locations.&#10;&#10;Attributes:&#10; &#160;&#160;&#160;wind_resource_assessment_id_reference (str): The ID of the wind resource assessment on which the turbine wind resource assessment is based. This must refer to an ID of a wind resource assessment included at the top level of the EYA DEF. The schema requires that a turbine wind resource assessment is based on only one wind resource assessment.&#10; &#160;&#160;&#160;description (Optional[str]): Optional description of the turbine wind resource assessment, which should not be empty if the field is included. Default is None.&#10; &#160;&#160;&#160;comments (Optional[str]): Optional comments on the turbine wind resource assessment, which should not be empty if the field is included. Default is None.&#10; &#160;&#160;&#160;wind_spatial_modelling_processes (list[AssessmentProcessDescription]): Wind spatial modelling processes used in the assessment.&#10; &#160;&#160;&#160;results (TurbineWindResourceResults): Results of the wind resource assessment at the turbine location(s).&#10; &#160;&#160;&#160;wind_uncertainty_assessment (WindUncertaintyAssessment): Wind related uncertainty assessment categories including results.&#10;">
<polygon fill="none" stroke="black" points="512,-266.75 512,-288.75 954,-288.75 954,-266.75 512,-266.75"/>
<text text-anchor="start" x="628" y="-273.45" font-family="Times New Roman,serif" font-weight="bold" font-size="14.00">TurbineWindResourceAssessment</text>
<polygon fill="none" stroke="black" points="512,-245.75 512,-266.75 747,-266.75 747,-245.75 512,-245.75"/>
<text text-anchor="start" x="514.75" y="-250.45" font-family="Times New Roman,serif" font-size="14.00">wind_resource_assessment_id_reference</text>
<polygon fill="none" stroke="black" points="747,-245.75 747,-266.75 954,-266.75 954,-245.75 747,-245.75"/>
<text text-anchor="start" x="843.38" y="-250.45" font-family="Times New Roman,serif" font-size="14.00">str</text>
<polygon fill="none" stroke="black" points="512,-224.75 512,-245.75 747,-245.75 747,-224.75 512,-224.75"/>
<text text-anchor="start" x="598.38" y="-229.45" font-family="Times New Roman,serif" font-size="14.00">description</text>
<polygon fill="none" stroke="black" points="747,-224.75 747,-245.75 954,-245.75 954,-224.75 747,-224.75"/>
<text text-anchor="start" x="814.88" y="-229.45" font-family="Times New Roman,serif" font-size="14.00">Optional[str]</text>
<polygon fill="none" stroke="black" points="512,-203.75 512,-224.75 747,-224.75 747,-203.75 512,-203.75"/>
<text text-anchor="start" x="600.62" y="-208.45" font-family="Times New Roman,serif" font-size="14.00">comments</text>
<polygon fill="none" stroke="black" points="747,-203.75 747,-224.75 954,-224.75 954,-203.75 747,-203.75"/>
<text text-anchor="start" x="814.88" y="-208.45" font-family="Times New Roman,serif" font-size="14.00">Optional[str]</text>
<polygon fill="none" stroke="black" points="512,-182.75 512,-203.75 747,-203.75 747,-182.75 512,-182.75"/>
<text text-anchor="start" x="532" y="-187.45" font-family="Times New Roman,serif" font-size="14.00">wind_spatial_modelling_processes</text>
<polygon fill="none" stroke="black" points="747,-182.75 747,-203.75 954,-203.75 954,-182.75 747,-182.75"/>
<text text-anchor="start" x="750" y="-187.45" font-family="Times New Roman,serif" font-size="14.00">list[AssessmentProcessDescription]</text>
<polygon fill="none" stroke="black" points="512,-161.75 512,-182.75 747,-182.75 747,-161.75 512,-161.75"/>
<text text-anchor="start" x="611.5" y="-166.45" font-family="Times New Roman,serif" font-size="14.00">results</text>
<polygon fill="none" stroke="black" points="747,-161.75 747,-182.75 954,-182.75 954,-161.75 747,-161.75"/>
<text text-anchor="start" x="766.12" y="-166.45" font-family="Times New Roman,serif" font-size="14.00">TurbineWindResourceResults</text>
<polygon fill="none" stroke="black" points="512,-140.75 512,-161.75 747,-161.75 747,-140.75 512,-140.75"/>
<text text-anchor="start" x="546.62" y="-145.45" font-family="Times New Roman,serif" font-size="14.00">wind_uncertainty_assessment</text>
<polygon fill="none" stroke="black" points="747,-140.75 747,-161.75 954,-161.75 954,-140.75 747,-140.75"/>
<text text-anchor="start" x="769.88" y="-145.45" font-family="Times New Roman,serif" font-size="14.00">WindUncertaintyAssessment</text>
</a>
</g>
</g>
<!-- eya_def_tools.data_models.scenario.Scenario&#45;&gt;eya_def_tools.data_models.wind_resource.TurbineWindResourceAssessment -->
<g id="edge2" class="edge">
<title>eya_def_tools.data_models.scenario.Scenario:e&#45;&gt;eya_def_tools.data_models.wind_resource.TurbineWindResourceAssessment:w</title>
<path fill="none" stroke="black" d="M404,-195.75C458.74,-195.75 453.42,-263.39 497.13,-275.8"/>
<polyline fill="none" stroke="black" points="512,-277.75 507.04,-277.1"/>
<polygon fill="black" stroke="black" points="506.7,-272.01 505.4,-281.93 503.42,-281.67 504.72,-271.75 506.7,-272.01"/>
<polyline fill="none" stroke="black" points="507.04,-277.1 502.08,-276.45"/>
<polygon fill="black" stroke="black" points="501.74,-271.36 500.44,-281.28 498.46,-281.02 499.76,-271.11 501.74,-271.36"/>
<polyline fill="none" stroke="black" points="502.08,-276.45 497.13,-275.8"/>
</g>
</g>
</svg>
