<?xml version="1.0" encoding="UTF-8" standalone="no"?>
<!DOCTYPE svg PUBLIC "-//W3C//DTD SVG 1.1//EN"
 "http://www.w3.org/Graphics/SVG/1.1/DTD/svg11.dtd">
<!-- Generated by graphviz version 7.0.4 (20221203.1631)
 -->
<!-- Title: Entity Relationship Diagram Pages: 1 -->
<svg width="966pt" height="381pt"
 viewBox="0.00 0.00 966.00 381.00" xmlns="http://www.w3.org/2000/svg" xmlns:xlink="http://www.w3.org/1999/xlink">
<g id="graph0" class="graph" transform="scale(1 1) rotate(0) translate(4 377)">
<title>Entity Relationship Diagram</title>
<polygon fill="white" stroke="none" points="-4,4 -4,-377 962,-377 962,4 -4,4"/>
<text text-anchor="middle" x="479" y="-6.8" font-family="Times New Roman,serif" font-size="9.00" fill="#a8a8a8">Created by erdantic v0.6.0 &lt;https://github.com/drivendataorg/erdantic&gt;</text>
<!-- eya_def_tools.data_models.energy_assessment.EnergyAssessment -->
<g id="node1" class="node">
<title>eya_def_tools.data_models.energy_assessment.EnergyAssessment</title>
<g id="a_node1"><a xlink:title="eya_def_tools.data_models.energy_assessment.EnergyAssessment&#10;&#10;Energy assessment details and results.&#10;&#10;Attributes:&#10; &#160;&#160;&#160;gross_energy_assessment (GrossEnergyAssessment): Details and results for the assessment of gross energy yield.&#10; &#160;&#160;&#160;plant_performance_assessment (PlantPerformanceAssessment): Plant performance loss assessment categories including results.&#10; &#160;&#160;&#160;net_energy_assessment (NetEnergyAssessment): Details and results for the assessment of net energy yield.&#10;">
<polygon fill="none" stroke="black" points="559,-81 559,-102 913,-102 913,-81 559,-81"/>
<text text-anchor="start" x="678.5" y="-88.8" font-family="Times New Roman,serif" font-weight="bold" font-size="14.00">EnergyAssessment</text>
<polygon fill="none" stroke="black" points="559,-60 559,-81 741,-81 741,-60 559,-60"/>
<text text-anchor="start" x="577" y="-66.8" font-family="Times New Roman,serif" font-size="14.00">gross_energy_assessment</text>
<polygon fill="none" stroke="black" points="741,-60 741,-81 913,-81 913,-60 741,-60"/>
<text text-anchor="start" x="756.5" y="-66.8" font-family="Times New Roman,serif" font-size="14.00">GrossEnergyAssessment</text>
<polygon fill="none" stroke="black" points="559,-39 559,-60 741,-60 741,-39 559,-39"/>
<text text-anchor="start" x="562" y="-45.8" font-family="Times New Roman,serif" font-size="14.00">plant_performance_assessment</text>
<polygon fill="none" stroke="black" points="741,-39 741,-60 913,-60 913,-39 741,-39"/>
<text text-anchor="start" x="744" y="-45.8" font-family="Times New Roman,serif" font-size="14.00">PlantPerformanceAssessment</text>
<polygon fill="none" stroke="black" points="559,-18 559,-39 741,-39 741,-18 559,-18"/>
<text text-anchor="start" x="584" y="-24.8" font-family="Times New Roman,serif" font-size="14.00">net_energy_assessment</text>
<polygon fill="none" stroke="black" points="741,-18 741,-39 913,-39 913,-18 741,-18"/>
<text text-anchor="start" x="764" y="-24.8" font-family="Times New Roman,serif" font-size="14.00">NetEnergyAssessment</text>
</a>
</g>
</g>
<!-- eya_def_tools.data_models.scenario.Scenario -->
<g id="node2" class="node">
<title>eya_def_tools.data_models.scenario.Scenario</title>
<g id="a_node2"><a xlink:title="eya_def_tools.data_models.scenario.Scenario&#10;&#10;Single unique energy yield assessment scenario.&#10;&#10;Attributes:&#10; &#160;&#160;&#160;id (Optional[str]): Optional unique identifier of the scenario. Default is None.&#10; &#160;&#160;&#160;label (str): Label of the scenario.&#10; &#160;&#160;&#160;description (Optional[str]): Optional description of the scenario. Default is None.&#10; &#160;&#160;&#160;comments (Optional[str]): Optional comments on the scenario. Default is None.&#10; &#160;&#160;&#160;is_main_scenario (Optional[bool]): Whether or not this is the main scenario in the report. Default is None.&#10; &#160;&#160;&#160;operational_lifetime_length_years (float): Number of years of project operational lifetime.&#10; &#160;&#160;&#160;wind_farm_ids (list[str]): List of the IDs for all wind farms included in the scenario. Each ID refers to a wind farm configuration data object within the &#39;wind_farms&#39; section of the top&#45;level of the EYA DEF document. Only wind farms for which turbine interaction effects are modelled shall be included.&#10; &#160;&#160;&#160;turbine_wind_resource_assessment (TurbineWindResourceAssessment): Wind resource assessment at the turbine locations.&#10; &#160;&#160;&#160;energy_assessment (EnergyAssessment): Energy assessment details and results, including gross energy, plant performance, net energy and uncertainties.&#10;">
<polygon fill="none" stroke="black" points="0,-352 0,-373 406,-373 406,-352 0,-352"/>
<text text-anchor="start" x="175.5" y="-359.8" font-family="Times New Roman,serif" font-weight="bold" font-size="14.00">Scenario</text>
<polygon fill="none" stroke="black" points="0,-331 0,-352 205,-352 205,-331 0,-331"/>
<text text-anchor="start" x="97" y="-337.8" font-family="Times New Roman,serif" font-size="14.00">id</text>
<polygon fill="none" stroke="black" points="205,-331 205,-352 406,-352 406,-331 205,-331"/>
<text text-anchor="start" x="269.5" y="-337.8" font-family="Times New Roman,serif" font-size="14.00">Optional[str]</text>
<polygon fill="none" stroke="black" points="0,-310 0,-331 205,-331 205,-310 0,-310"/>
<text text-anchor="start" x="89.5" y="-316.8" font-family="Times New Roman,serif" font-size="14.00">label</text>
<polygon fill="none" stroke="black" points="205,-310 205,-331 406,-331 406,-310 205,-310"/>
<text text-anchor="start" x="298" y="-316.8" font-family="Times New Roman,serif" font-size="14.00">str</text>
<polygon fill="none" stroke="black" points="0,-289 0,-310 205,-310 205,-289 0,-289"/>
<text text-anchor="start" x="71" y="-295.8" font-family="Times New Roman,serif" font-size="14.00">description</text>
<polygon fill="none" stroke="black" points="205,-289 205,-310 406,-310 406,-289 205,-289"/>
<text text-anchor="start" x="269.5" y="-295.8" font-family="Times New Roman,serif" font-size="14.00">Optional[str]</text>
<polygon fill="none" stroke="black" points="0,-268 0,-289 205,-289 205,-268 0,-268"/>
<text text-anchor="start" x="73.5" y="-274.8" font-family="Times New Roman,serif" font-size="14.00">comments</text>
<polygon fill="none" stroke="black" points="205,-268 205,-289 406,-289 406,-268 205,-268"/>
<text text-anchor="start" x="269.5" y="-274.8" font-family="Times New Roman,serif" font-size="14.00">Optional[str]</text>
<polygon fill="none" stroke="black" points="0,-247 0,-268 205,-268 205,-247 0,-247"/>
<text text-anchor="start" x="54" y="-253.8" font-family="Times New Roman,serif" font-size="14.00">is_main_scenario</text>
<polygon fill="none" stroke="black" points="205,-247 205,-268 406,-268 406,-247 205,-247"/>
<text text-anchor="start" x="264" y="-253.8" font-family="Times New Roman,serif" font-size="14.00">Optional[bool]</text>
<polygon fill="none" stroke="black" points="0,-226 0,-247 205,-247 205,-226 0,-226"/>
<text text-anchor="start" x="9" y="-232.8" font-family="Times New Roman,serif" font-size="14.00">operational_lifetime_length_years</text>
<polygon fill="none" stroke="black" points="205,-226 205,-247 406,-247 406,-226 205,-226"/>
<text text-anchor="start" x="293" y="-232.8" font-family="Times New Roman,serif" font-size="14.00">float</text>
<polygon fill="none" stroke="black" points="0,-205 0,-226 205,-226 205,-205 0,-205"/>
<text text-anchor="start" x="60" y="-211.8" font-family="Times New Roman,serif" font-size="14.00">wind_farm_ids</text>
<polygon fill="none" stroke="black" points="205,-205 205,-226 406,-226 406,-205 205,-205"/>
<text text-anchor="start" x="285.5" y="-211.8" font-family="Times New Roman,serif" font-size="14.00">list[str]</text>
<polygon fill="none" stroke="black" points="0,-184 0,-205 205,-205 205,-184 0,-184"/>
<text text-anchor="start" x="3" y="-190.8" font-family="Times New Roman,serif" font-size="14.00">turbine_wind_resource_assessment</text>
<polygon fill="none" stroke="black" points="205,-184 205,-205 406,-205 406,-184 205,-184"/>
<text text-anchor="start" x="208" y="-190.8" font-family="Times New Roman,serif" font-size="14.00">TurbineWindResourceAssessment</text>
<polygon fill="none" stroke="black" points="0,-163 0,-184 205,-184 205,-163 0,-163"/>
<text text-anchor="start" x="48.5" y="-169.8" font-family="Times New Roman,serif" font-size="14.00">energy_assessment</text>
<polygon fill="none" stroke="black" points="205,-163 205,-184 406,-184 406,-163 205,-163"/>
<text text-anchor="start" x="252.5" y="-169.8" font-family="Times New Roman,serif" font-size="14.00">EnergyAssessment</text>
</a>
</g>
</g>
<!-- eya_def_tools.data_models.scenario.Scenario&#45;&gt;eya_def_tools.data_models.energy_assessment.EnergyAssessment -->
<g id="edge1" class="edge">
<title>eya_def_tools.data_models.scenario.Scenario:e&#45;&gt;eya_def_tools.data_models.energy_assessment.EnergyAssessment:w</title>
<path fill="none" stroke="black" d="M406,-173C477.32,-173 481.24,-102.7 543.34,-93.08"/>
<polyline fill="none" stroke="black" points="558,-92 553.01,-92.37"/>
<polygon fill="black" stroke="black" points="551.65,-87.46 552.39,-97.43 550.39,-97.58 549.65,-87.6 551.65,-87.46"/>
<polyline fill="none" stroke="black" points="553.01,-92.37 548.03,-92.74"/>
<polygon fill="black" stroke="black" points="546.66,-87.82 547.4,-97.8 545.4,-97.94 544.67,-87.97 546.66,-87.82"/>
<polyline fill="none" stroke="black" points="548.03,-92.74 543.04,-93.11"/>
</g>
<!-- eya_def_tools.data_models.wind_resource.TurbineWindResourceAssessment -->
<g id="node3" class="node">
<title>eya_def_tools.data_models.wind_resource.TurbineWindResourceAssessment</title>
<g id="a_node3"><a xlink:title="eya_def_tools.data_models.wind_resource.TurbineWindResourceAssessment&#10;&#10;Wind resource assessment at the turbine locations.&#10;&#10;Attributes:&#10; &#160;&#160;&#160;wind_resource_assessment_id_reference (str): The ID of the wind resource assessment on which the turbine wind resource assessment is based. This must refer to an ID of a wind resource assessment included at the top level of the EYA DEF. The schema requires that a turbine wind resource assessment is based on only one wind resource assessment.&#10; &#160;&#160;&#160;description (Optional[str]): Optional description of the turbine wind resource assessment. Default is None.&#10; &#160;&#160;&#160;comments (Optional[str]): Optional comments on the turbine wind resource assessment. Default is None.&#10; &#160;&#160;&#160;wind_spatial_modelling_processes (list[AssessmentProcessDescription]): Wind spatial modelling processes used in the assessment.&#10; &#160;&#160;&#160;results (TurbineWindResourceResults): Results of the wind resource assessment at the turbine location(s).&#10; &#160;&#160;&#160;wind_uncertainty_assessment (WindUncertaintyAssessment): Wind related uncertainty assessment categories including results.&#10;">
<polygon fill="none" stroke="black" points="514,-264 514,-285 958,-285 958,-264 514,-264"/>
<text text-anchor="start" x="630.5" y="-271.8" font-family="Times New Roman,serif" font-weight="bold" font-size="14.00">TurbineWindResourceAssessment</text>
<polygon fill="none" stroke="black" points="514,-243 514,-264 750,-264 750,-243 514,-243"/>
<text text-anchor="start" x="517" y="-249.8" font-family="Times New Roman,serif" font-size="14.00">wind_resource_assessment_id_reference</text>
<polygon fill="none" stroke="black" points="750,-243 750,-264 958,-264 958,-243 750,-243"/>
<text text-anchor="start" x="846.5" y="-249.8" font-family="Times New Roman,serif" font-size="14.00">str</text>
<polygon fill="none" stroke="black" points="514,-222 514,-243 750,-243 750,-222 514,-222"/>
<text text-anchor="start" x="600.5" y="-228.8" font-family="Times New Roman,serif" font-size="14.00">description</text>
<polygon fill="none" stroke="black" points="750,-222 750,-243 958,-243 958,-222 750,-222"/>
<text text-anchor="start" x="818" y="-228.8" font-family="Times New Roman,serif" font-size="14.00">Optional[str]</text>
<polygon fill="none" stroke="black" points="514,-201 514,-222 750,-222 750,-201 514,-201"/>
<text text-anchor="start" x="603" y="-207.8" font-family="Times New Roman,serif" font-size="14.00">comments</text>
<polygon fill="none" stroke="black" points="750,-201 750,-222 958,-222 958,-201 750,-201"/>
<text text-anchor="start" x="818" y="-207.8" font-family="Times New Roman,serif" font-size="14.00">Optional[str]</text>
<polygon fill="none" stroke="black" points="514,-180 514,-201 750,-201 750,-180 514,-180"/>
<text text-anchor="start" x="534" y="-186.8" font-family="Times New Roman,serif" font-size="14.00">wind_spatial_modelling_processes</text>
<polygon fill="none" stroke="black" points="750,-180 750,-201 958,-201 958,-180 750,-180"/>
<text text-anchor="start" x="753" y="-186.8" font-family="Times New Roman,serif" font-size="14.00">list[AssessmentProcessDescription]</text>
<polygon fill="none" stroke="black" points="514,-159 514,-180 750,-180 750,-159 514,-159"/>
<text text-anchor="start" x="613.5" y="-165.8" font-family="Times New Roman,serif" font-size="14.00">results</text>
<polygon fill="none" stroke="black" points="750,-159 750,-180 958,-180 958,-159 750,-159"/>
<text text-anchor="start" x="769.5" y="-165.8" font-family="Times New Roman,serif" font-size="14.00">TurbineWindResourceResults</text>
<polygon fill="none" stroke="black" points="514,-138 514,-159 750,-159 750,-138 514,-138"/>
<text text-anchor="start" x="549" y="-144.8" font-family="Times New Roman,serif" font-size="14.00">wind_uncertainty_assessment</text>
<polygon fill="none" stroke="black" points="750,-138 750,-159 958,-159 958,-138 750,-138"/>
<text text-anchor="start" x="773" y="-144.8" font-family="Times New Roman,serif" font-size="14.00">WindUncertaintyAssessment</text>
</a>
</g>
</g>
<!-- eya_def_tools.data_models.scenario.Scenario&#45;&gt;eya_def_tools.data_models.wind_resource.TurbineWindResourceAssessment -->
<g id="edge2" class="edge">
<title>eya_def_tools.data_models.scenario.Scenario:e&#45;&gt;eya_def_tools.data_models.wind_resource.TurbineWindResourceAssessment:w</title>
<path fill="none" stroke="black" d="M406,-194C460.49,-194 455.6,-260.81 499.19,-273.08"/>
<polyline fill="none" stroke="black" points="514,-275 509.04,-274.36"/>
<polygon fill="black" stroke="black" points="508.69,-269.27 507.41,-279.19 505.42,-278.93 506.71,-269.01 508.69,-269.27"/>
<polyline fill="none" stroke="black" points="509.04,-274.36 504.08,-273.71"/>
<polygon fill="black" stroke="black" points="503.73,-268.63 502.45,-278.54 500.46,-278.29 501.75,-268.37 503.73,-268.63"/>
<polyline fill="none" stroke="black" points="504.08,-273.71 499.12,-273.07"/>
</g>
</g>
</svg>
