<?xml version="1.0" encoding="UTF-8" standalone="no"?>
<!DOCTYPE svg PUBLIC "-//W3C//DTD SVG 1.1//EN"
 "http://www.w3.org/Graphics/SVG/1.1/DTD/svg11.dtd">
<!-- Generated by graphviz version 7.0.4 (20221203.1631)
 -->
<!-- Title: Entity Relationship Diagram Pages: 1 -->
<svg width="2911pt" height="606pt"
 viewBox="0.00 0.00 2911.00 605.67" xmlns="http://www.w3.org/2000/svg" xmlns:xlink="http://www.w3.org/1999/xlink">
<g id="graph0" class="graph" transform="scale(1 1) rotate(0) translate(4 601.67)">
<title>Entity Relationship Diagram</title>
<polygon fill="white" stroke="none" points="-4,4 -4,-601.67 2907,-601.67 2907,4 -4,4"/>
<text text-anchor="middle" x="1451.5" y="-6.8" font-family="Times New Roman,serif" font-size="9.00" fill="#a8a8a8">Created by erdantic v0.5.0 &lt;https://github.com/drivendataorg/erdantic&gt;</text>
<!-- eya_def_tools.data_models.process_description.AssessmentProcessDescription -->
<g id="node1" class="node">
<title>eya_def_tools.data_models.process_description.AssessmentProcessDescription</title>
<g id="a_node1"><a xlink:title="eya_def_tools.data_models.process_description.AssessmentProcessDescription&#10;&#10;Description of a process used in an energy yield assessment.&#10;&#10;Attributes:&#10; &#160;&#160;&#160;name (str): Name of the process or model.&#10; &#160;&#160;&#160;description (Optional[str]): Description of the data object. Default is None.&#10; &#160;&#160;&#160;comments (Optional[str]): Comments on the data object. Default is None.&#10;">
<polygon fill="none" stroke="black" points="657.5,-576.67 657.5,-597.67 853.5,-597.67 853.5,-576.67 657.5,-576.67"/>
<text text-anchor="start" x="660.5" y="-584.47" font-family="Times New Roman,serif" font-weight="bold" font-size="14.00">AssessmentProcessDescription</text>
<polygon fill="none" stroke="black" points="657.5,-555.67 657.5,-576.67 750.5,-576.67 750.5,-555.67 657.5,-555.67"/>
<text text-anchor="start" x="689" y="-562.47" font-family="Times New Roman,serif" font-size="14.00">name</text>
<polygon fill="none" stroke="black" points="750.5,-555.67 750.5,-576.67 853.5,-576.67 853.5,-555.67 750.5,-555.67"/>
<text text-anchor="start" x="794.5" y="-562.47" font-family="Times New Roman,serif" font-size="14.00">str</text>
<polygon fill="none" stroke="black" points="657.5,-534.67 657.5,-555.67 750.5,-555.67 750.5,-534.67 657.5,-534.67"/>
<text text-anchor="start" x="672.5" y="-541.47" font-family="Times New Roman,serif" font-size="14.00">description</text>
<polygon fill="none" stroke="black" points="750.5,-534.67 750.5,-555.67 853.5,-555.67 853.5,-534.67 750.5,-534.67"/>
<text text-anchor="start" x="766" y="-541.47" font-family="Times New Roman,serif" font-size="14.00">Optional[str]</text>
<polygon fill="none" stroke="black" points="657.5,-513.67 657.5,-534.67 750.5,-534.67 750.5,-513.67 657.5,-513.67"/>
<text text-anchor="start" x="675" y="-520.47" font-family="Times New Roman,serif" font-size="14.00">comments</text>
<polygon fill="none" stroke="black" points="750.5,-513.67 750.5,-534.67 853.5,-534.67 853.5,-513.67 750.5,-513.67"/>
<text text-anchor="start" x="766" y="-520.47" font-family="Times New Roman,serif" font-size="14.00">Optional[str]</text>
</a>
</g>
</g>
<!-- eya_def_tools.data_models.result.Result -->
<g id="node2" class="node">
<title>eya_def_tools.data_models.result.Result</title>
<g id="a_node2"><a xlink:title="eya_def_tools.data_models.result.Result&#10;&#10;Collection of results a quantity along specific dimensions.&#10;&#10;Attributes:&#10; &#160;&#160;&#160;label (Optional[str]): Label of the results. Default is None.&#10; &#160;&#160;&#160;description (Optional[str]): Description of the data object. Default is None.&#10; &#160;&#160;&#160;comments (Optional[str]): Comments on the data object. Default is None.&#10; &#160;&#160;&#160;assessment_period (Optional[AssessmentPeriod(StrEnum)]): Period of or in time that has been assessed and for which the results are applicable. Default is None.&#10; &#160;&#160;&#160;dimensions (Optional[tuple[ResultsDimension(StrEnum), ...]]): Dimensions along which the results are binned (all result values in the same results object must have the same dimensions). Default is None.&#10; &#160;&#160;&#160;statistics (list[ResultStatistic]): List of result statistic objects that each include result values for a specific statistic type.&#10;">
<polygon fill="none" stroke="black" points="1927,-371.67 1927,-392.67 2317,-392.67 2317,-371.67 1927,-371.67"/>
<text text-anchor="start" x="2102" y="-379.47" font-family="Times New Roman,serif" font-weight="bold" font-size="14.00">Result</text>
<polygon fill="none" stroke="black" points="1927,-350.67 1927,-371.67 2040,-371.67 2040,-350.67 1927,-350.67"/>
<text text-anchor="start" x="1970.5" y="-357.47" font-family="Times New Roman,serif" font-size="14.00">label</text>
<polygon fill="none" stroke="black" points="2040,-350.67 2040,-371.67 2317,-371.67 2317,-350.67 2040,-350.67"/>
<text text-anchor="start" x="2142.5" y="-357.47" font-family="Times New Roman,serif" font-size="14.00">Optional[str]</text>
<polygon fill="none" stroke="black" points="1927,-329.67 1927,-350.67 2040,-350.67 2040,-329.67 1927,-329.67"/>
<text text-anchor="start" x="1952" y="-336.47" font-family="Times New Roman,serif" font-size="14.00">description</text>
<polygon fill="none" stroke="black" points="2040,-329.67 2040,-350.67 2317,-350.67 2317,-329.67 2040,-329.67"/>
<text text-anchor="start" x="2142.5" y="-336.47" font-family="Times New Roman,serif" font-size="14.00">Optional[str]</text>
<polygon fill="none" stroke="black" points="1927,-308.67 1927,-329.67 2040,-329.67 2040,-308.67 1927,-308.67"/>
<text text-anchor="start" x="1954.5" y="-315.47" font-family="Times New Roman,serif" font-size="14.00">comments</text>
<polygon fill="none" stroke="black" points="2040,-308.67 2040,-329.67 2317,-329.67 2317,-308.67 2040,-308.67"/>
<text text-anchor="start" x="2142.5" y="-315.47" font-family="Times New Roman,serif" font-size="14.00">Optional[str]</text>
<polygon fill="none" stroke="black" points="1927,-287.67 1927,-308.67 2040,-308.67 2040,-287.67 1927,-287.67"/>
<text text-anchor="start" x="1930" y="-294.47" font-family="Times New Roman,serif" font-size="14.00">assessment_period</text>
<polygon fill="none" stroke="black" points="2040,-287.67 2040,-308.67 2317,-308.67 2317,-287.67 2040,-287.67"/>
<text text-anchor="start" x="2069" y="-294.47" font-family="Times New Roman,serif" font-size="14.00">Optional[AssessmentPeriod(StrEnum)]</text>
<polygon fill="none" stroke="black" points="1927,-266.67 1927,-287.67 2040,-287.67 2040,-266.67 1927,-266.67"/>
<text text-anchor="start" x="1951.5" y="-273.47" font-family="Times New Roman,serif" font-size="14.00">dimensions</text>
<polygon fill="none" stroke="black" points="2040,-266.67 2040,-287.67 2317,-287.67 2317,-266.67 2040,-266.67"/>
<text text-anchor="start" x="2043" y="-273.47" font-family="Times New Roman,serif" font-size="14.00">Optional[tuple[ResultsDimension(StrEnum), ...]]</text>
<polygon fill="none" stroke="black" points="1927,-245.67 1927,-266.67 2040,-266.67 2040,-245.67 1927,-245.67"/>
<text text-anchor="start" x="1959" y="-252.47" font-family="Times New Roman,serif" font-size="14.00">statistics</text>
<polygon fill="none" stroke="black" points="2040,-245.67 2040,-266.67 2317,-266.67 2317,-245.67 2040,-245.67"/>
<text text-anchor="start" x="2126" y="-252.47" font-family="Times New Roman,serif" font-size="14.00">list[ResultStatistic]</text>
</a>
</g>
</g>
<!-- eya_def_tools.data_models.result.ResultStatistic -->
<g id="node3" class="node">
<title>eya_def_tools.data_models.result.ResultStatistic</title>
<g id="a_node3"><a xlink:title="eya_def_tools.data_models.result.ResultStatistic&#10;&#10;Result values for one specific statistic type.&#10;&#10;Attributes:&#10; &#160;&#160;&#160;description (Optional[str]): Description of the data object. Default is None.&#10; &#160;&#160;&#160;comments (Optional[str]): Comments on the data object. Default is None.&#10; &#160;&#160;&#160;statistic_type (StatisticType(StrEnum)): Type of statistic in the results component.&#10; &#160;&#160;&#160;values (UnionType[float, list[tuple[tuple[UnionType[float, int, str], ...], float]]]): Result as a single number or values at coordinates.&#10;">
<polygon fill="none" stroke="black" points="2425,-244.67 2425,-265.67 2903,-265.67 2903,-244.67 2425,-244.67"/>
<text text-anchor="start" x="2619.5" y="-252.47" font-family="Times New Roman,serif" font-weight="bold" font-size="14.00">ResultStatistic</text>
<polygon fill="none" stroke="black" points="2425,-223.67 2425,-244.67 2505,-244.67 2505,-223.67 2425,-223.67"/>
<text text-anchor="start" x="2433.5" y="-230.47" font-family="Times New Roman,serif" font-size="14.00">description</text>
<polygon fill="none" stroke="black" points="2505,-223.67 2505,-244.67 2903,-244.67 2903,-223.67 2505,-223.67"/>
<text text-anchor="start" x="2668" y="-230.47" font-family="Times New Roman,serif" font-size="14.00">Optional[str]</text>
<polygon fill="none" stroke="black" points="2425,-202.67 2425,-223.67 2505,-223.67 2505,-202.67 2425,-202.67"/>
<text text-anchor="start" x="2436" y="-209.47" font-family="Times New Roman,serif" font-size="14.00">comments</text>
<polygon fill="none" stroke="black" points="2505,-202.67 2505,-223.67 2903,-223.67 2903,-202.67 2505,-202.67"/>
<text text-anchor="start" x="2668" y="-209.47" font-family="Times New Roman,serif" font-size="14.00">Optional[str]</text>
<polygon fill="none" stroke="black" points="2425,-181.67 2425,-202.67 2505,-202.67 2505,-181.67 2425,-181.67"/>
<text text-anchor="start" x="2428" y="-188.47" font-family="Times New Roman,serif" font-size="14.00">statistic_type</text>
<polygon fill="none" stroke="black" points="2505,-181.67 2505,-202.67 2903,-202.67 2903,-181.67 2505,-181.67"/>
<text text-anchor="start" x="2638" y="-188.47" font-family="Times New Roman,serif" font-size="14.00">StatisticType(StrEnum)</text>
<polygon fill="none" stroke="black" points="2425,-160.67 2425,-181.67 2505,-181.67 2505,-160.67 2425,-160.67"/>
<text text-anchor="start" x="2447.5" y="-167.47" font-family="Times New Roman,serif" font-size="14.00">values</text>
<polygon fill="none" stroke="black" points="2505,-160.67 2505,-181.67 2903,-181.67 2903,-160.67 2505,-160.67"/>
<text text-anchor="start" x="2508" y="-167.47" font-family="Times New Roman,serif" font-size="14.00">UnionType[float, list[tuple[tuple[UnionType[float, int, str], ...], float]]]</text>
</a>
</g>
</g>
<!-- eya_def_tools.data_models.result.Result&#45;&gt;eya_def_tools.data_models.result.ResultStatistic -->
<g id="edge1" class="edge">
<title>eya_def_tools.data_models.result.Result:e&#45;&gt;eya_def_tools.data_models.result.ResultStatistic:w</title>
<path fill="none" stroke="black" d="M2317,-255.67C2358.06,-255.67 2372.78,-255.67 2406.23,-255.67"/>
<polygon fill="black" stroke="black" points="2415,-255.67 2425,-260.17 2420,-255.67 2425,-255.67 2425,-255.67 2425,-255.67 2420,-255.67 2425,-251.17 2415,-255.67 2415,-255.67"/>
<ellipse fill="none" stroke="black" cx="2410.5" cy="-255.67" rx="4" ry="4"/>
</g>
<!-- eya_def_tools.data_models.wind_resource.TurbineWindResourceAssessment -->
<g id="node4" class="node">
<title>eya_def_tools.data_models.wind_resource.TurbineWindResourceAssessment</title>
<g id="a_node4"><a xlink:title="eya_def_tools.data_models.wind_resource.TurbineWindResourceAssessment&#10;&#10;Wind resource assessment at the turbine locations.&#10;&#10;Attributes:&#10; &#160;&#160;&#160;wind_resource_assessment_id_reference (str): The ID of the wind resource assessment on which the turbine wind resource assessment is based. This must refer to an ID of a wind resource assessment included at the top level of the EYA DEF. The schema requires that a turbine wind resource assessment is based on only one wind resource assessment.&#10; &#160;&#160;&#160;description (Optional[str]): Description of the data object. Default is None.&#10; &#160;&#160;&#160;comments (Optional[str]): Comments on the data object. Default is None.&#10; &#160;&#160;&#160;wind_spatial_modelling_processes (list[AssessmentProcessDescription]): Wind spatial modelling processes used in the assessment.&#10; &#160;&#160;&#160;results (TurbineWindResourceAssessmentResults): Results of the wind resource assessment at the turbine location(s).&#10; &#160;&#160;&#160;wind_uncertainty_categories (list[WindUncertaintyCategory]): Wind related uncertainty assessment categories including results.&#10;">
<polygon fill="none" stroke="black" points="0,-553.67 0,-574.67 478,-574.67 478,-553.67 0,-553.67"/>
<text text-anchor="start" x="133.5" y="-561.47" font-family="Times New Roman,serif" font-weight="bold" font-size="14.00">TurbineWindResourceAssessment</text>
<polygon fill="none" stroke="black" points="0,-532.67 0,-553.67 236,-553.67 236,-532.67 0,-532.67"/>
<text text-anchor="start" x="3" y="-539.47" font-family="Times New Roman,serif" font-size="14.00">wind_resource_assessment_id_reference</text>
<polygon fill="none" stroke="black" points="236,-532.67 236,-553.67 478,-553.67 478,-532.67 236,-532.67"/>
<text text-anchor="start" x="349.5" y="-539.47" font-family="Times New Roman,serif" font-size="14.00">str</text>
<polygon fill="none" stroke="black" points="0,-511.67 0,-532.67 236,-532.67 236,-511.67 0,-511.67"/>
<text text-anchor="start" x="86.5" y="-518.47" font-family="Times New Roman,serif" font-size="14.00">description</text>
<polygon fill="none" stroke="black" points="236,-511.67 236,-532.67 478,-532.67 478,-511.67 236,-511.67"/>
<text text-anchor="start" x="321" y="-518.47" font-family="Times New Roman,serif" font-size="14.00">Optional[str]</text>
<polygon fill="none" stroke="black" points="0,-490.67 0,-511.67 236,-511.67 236,-490.67 0,-490.67"/>
<text text-anchor="start" x="89" y="-497.47" font-family="Times New Roman,serif" font-size="14.00">comments</text>
<polygon fill="none" stroke="black" points="236,-490.67 236,-511.67 478,-511.67 478,-490.67 236,-490.67"/>
<text text-anchor="start" x="321" y="-497.47" font-family="Times New Roman,serif" font-size="14.00">Optional[str]</text>
<polygon fill="none" stroke="black" points="0,-469.67 0,-490.67 236,-490.67 236,-469.67 0,-469.67"/>
<text text-anchor="start" x="20" y="-476.47" font-family="Times New Roman,serif" font-size="14.00">wind_spatial_modelling_processes</text>
<polygon fill="none" stroke="black" points="236,-469.67 236,-490.67 478,-490.67 478,-469.67 236,-469.67"/>
<text text-anchor="start" x="256" y="-476.47" font-family="Times New Roman,serif" font-size="14.00">list[AssessmentProcessDescription]</text>
<polygon fill="none" stroke="black" points="0,-448.67 0,-469.67 236,-469.67 236,-448.67 0,-448.67"/>
<text text-anchor="start" x="99.5" y="-455.47" font-family="Times New Roman,serif" font-size="14.00">results</text>
<polygon fill="none" stroke="black" points="236,-448.67 236,-469.67 478,-469.67 478,-448.67 236,-448.67"/>
<text text-anchor="start" x="239" y="-455.47" font-family="Times New Roman,serif" font-size="14.00">TurbineWindResourceAssessmentResults</text>
<polygon fill="none" stroke="black" points="0,-427.67 0,-448.67 236,-448.67 236,-427.67 0,-427.67"/>
<text text-anchor="start" x="38" y="-434.47" font-family="Times New Roman,serif" font-size="14.00">wind_uncertainty_categories</text>
<polygon fill="none" stroke="black" points="236,-427.67 236,-448.67 478,-448.67 478,-427.67 236,-427.67"/>
<text text-anchor="start" x="271.5" y="-434.47" font-family="Times New Roman,serif" font-size="14.00">list[WindUncertaintyCategory]</text>
</a>
</g>
</g>
<!-- eya_def_tools.data_models.wind_resource.TurbineWindResourceAssessment&#45;&gt;eya_def_tools.data_models.process_description.AssessmentProcessDescription -->
<g id="edge2" class="edge">
<title>eya_def_tools.data_models.wind_resource.TurbineWindResourceAssessment:e&#45;&gt;eya_def_tools.data_models.process_description.AssessmentProcessDescription:w</title>
<path fill="none" stroke="black" d="M478,-479.67C564.02,-479.67 564.26,-572.63 637.88,-586.06"/>
<polygon fill="black" stroke="black" points="646.54,-586.81 656.11,-592.15 651.52,-587.24 656.5,-587.67 656.5,-587.67 656.5,-587.67 651.52,-587.24 656.89,-583.19 646.54,-586.81 646.54,-586.81"/>
<ellipse fill="none" stroke="black" cx="642.05" cy="-586.42" rx="4" ry="4"/>
</g>
<!-- eya_def_tools.data_models.wind_resource.TurbineWindResourceAssessmentResults -->
<g id="node5" class="node">
<title>eya_def_tools.data_models.wind_resource.TurbineWindResourceAssessmentResults</title>
<g id="a_node5"><a xlink:title="eya_def_tools.data_models.wind_resource.TurbineWindResourceAssessmentResults&#10;&#10;Wind resource assessment results at turbine locations.&#10;&#10;Attributes:&#10; &#160;&#160;&#160;wind_speed (list[Result]): Final long&#45;term wind speed estimates at the turbine location(s).&#10; &#160;&#160;&#160;probability (Optional[list[Result]]): Final long&#45;term probability distribution estimates at the turbine location(s), such as wind speed probability distributions or joint wind speed and direction frequency distributions. Default is None.&#10; &#160;&#160;&#160;wind_shear_exponent (Optional[list[Result]]): Final long&#45;term power law wind shear exponent estimates at the turbine location(s). Default is None.&#10; &#160;&#160;&#160;temperature (Optional[list[Result]]): Final long&#45;term temperature estimates at the turbine location(s). Default is None.&#10; &#160;&#160;&#160;air_density (Optional[list[Result]]): Final long&#45;term air density estimates at the turbine location(s). Default is None.&#10;">
<polygon fill="none" stroke="black" points="1557,-467.67 1557,-488.67 1819,-488.67 1819,-467.67 1557,-467.67"/>
<text text-anchor="start" x="1560" y="-475.47" font-family="Times New Roman,serif" font-weight="bold" font-size="14.00">TurbineWindResourceAssessmentResults</text>
<polygon fill="none" stroke="black" points="1557,-446.67 1557,-467.67 1690,-467.67 1690,-446.67 1557,-446.67"/>
<text text-anchor="start" x="1589.5" y="-453.47" font-family="Times New Roman,serif" font-size="14.00">wind_speed</text>
<polygon fill="none" stroke="black" points="1690,-446.67 1690,-467.67 1819,-467.67 1819,-446.67 1690,-446.67"/>
<text text-anchor="start" x="1724" y="-453.47" font-family="Times New Roman,serif" font-size="14.00">list[Result]</text>
<polygon fill="none" stroke="black" points="1557,-425.67 1557,-446.67 1690,-446.67 1690,-425.67 1557,-425.67"/>
<text text-anchor="start" x="1593" y="-432.47" font-family="Times New Roman,serif" font-size="14.00">probability</text>
<polygon fill="none" stroke="black" points="1690,-425.67 1690,-446.67 1819,-446.67 1819,-425.67 1690,-425.67"/>
<text text-anchor="start" x="1695.5" y="-432.47" font-family="Times New Roman,serif" font-size="14.00">Optional[list[Result]]</text>
<polygon fill="none" stroke="black" points="1557,-404.67 1557,-425.67 1690,-425.67 1690,-404.67 1557,-404.67"/>
<text text-anchor="start" x="1562" y="-411.47" font-family="Times New Roman,serif" font-size="14.00">wind_shear_exponent</text>
<polygon fill="none" stroke="black" points="1690,-404.67 1690,-425.67 1819,-425.67 1819,-404.67 1690,-404.67"/>
<text text-anchor="start" x="1695.5" y="-411.47" font-family="Times New Roman,serif" font-size="14.00">Optional[list[Result]]</text>
<polygon fill="none" stroke="black" points="1557,-383.67 1557,-404.67 1690,-404.67 1690,-383.67 1557,-383.67"/>
<text text-anchor="start" x="1590.5" y="-390.47" font-family="Times New Roman,serif" font-size="14.00">temperature</text>
<polygon fill="none" stroke="black" points="1690,-383.67 1690,-404.67 1819,-404.67 1819,-383.67 1690,-383.67"/>
<text text-anchor="start" x="1695.5" y="-390.47" font-family="Times New Roman,serif" font-size="14.00">Optional[list[Result]]</text>
<polygon fill="none" stroke="black" points="1557,-362.67 1557,-383.67 1690,-383.67 1690,-362.67 1557,-362.67"/>
<text text-anchor="start" x="1593" y="-369.47" font-family="Times New Roman,serif" font-size="14.00">air_density</text>
<polygon fill="none" stroke="black" points="1690,-362.67 1690,-383.67 1819,-383.67 1819,-362.67 1690,-362.67"/>
<text text-anchor="start" x="1695.5" y="-369.47" font-family="Times New Roman,serif" font-size="14.00">Optional[list[Result]]</text>
</a>
</g>
</g>
<!-- eya_def_tools.data_models.wind_resource.TurbineWindResourceAssessment&#45;&gt;eya_def_tools.data_models.wind_resource.TurbineWindResourceAssessmentResults -->
<g id="edge3" class="edge">
<title>eya_def_tools.data_models.wind_resource.TurbineWindResourceAssessment:e&#45;&gt;eya_def_tools.data_models.wind_resource.TurbineWindResourceAssessmentResults:w</title>
<path fill="none" stroke="black" d="M478,-458.67C952.6,-458.67 1074.81,-478.25 1542.01,-478.66"/>
<polyline fill="none" stroke="black" points="1557,-478.67 1552,-478.67"/>
<polygon fill="black" stroke="black" points="1551,-473.67 1551,-483.67 1549,-483.67 1549,-473.67 1551,-473.67"/>
<polyline fill="none" stroke="black" points="1552,-478.67 1547,-478.67"/>
<polygon fill="black" stroke="black" points="1546,-473.67 1546,-483.67 1544,-483.66 1544,-473.66 1546,-473.67"/>
<polyline fill="none" stroke="black" points="1547,-478.67 1542,-478.66"/>
</g>
<!-- eya_def_tools.data_models.wind_uncertainty.WindUncertaintyCategory -->
<g id="node6" class="node">
<title>eya_def_tools.data_models.wind_uncertainty.WindUncertaintyCategory</title>
<g id="a_node6"><a xlink:title="eya_def_tools.data_models.wind_uncertainty.WindUncertaintyCategory&#10;&#10;Category of a wind related uncertainty assessment.&#10;&#10;Attributes:&#10; &#160;&#160;&#160;label (WindUncertaintyCategoryLabel(StrEnum)): Label of the wind related uncertainty assessment category.&#10; &#160;&#160;&#160;description (Optional[str]): Description of the data object. Default is None.&#10; &#160;&#160;&#160;comments (Optional[str]): Comments on the data object. Default is None.&#10; &#160;&#160;&#160;subcategories (list[WindUncertaintySubcategory]): Wind related uncertainty assessment subcategories that fall under the category. The subcategory objects include details and results at the subcategory level.&#10; &#160;&#160;&#160;category_results (list[Result]): Wind related uncertainty assessment category result(s) as dimensionless relative values.&#10;">
<polygon fill="none" stroke="black" points="586.5,-363.67 586.5,-384.67 925.5,-384.67 925.5,-363.67 586.5,-363.67"/>
<text text-anchor="start" x="675" y="-371.47" font-family="Times New Roman,serif" font-weight="bold" font-size="14.00">WindUncertaintyCategory</text>
<polygon fill="none" stroke="black" points="586.5,-342.67 586.5,-363.67 684.5,-363.67 684.5,-342.67 586.5,-342.67"/>
<text text-anchor="start" x="622.5" y="-349.47" font-family="Times New Roman,serif" font-size="14.00">label</text>
<polygon fill="none" stroke="black" points="684.5,-342.67 684.5,-363.67 925.5,-363.67 925.5,-342.67 684.5,-342.67"/>
<text text-anchor="start" x="687.5" y="-349.47" font-family="Times New Roman,serif" font-size="14.00">WindUncertaintyCategoryLabel(StrEnum)</text>
<polygon fill="none" stroke="black" points="586.5,-321.67 586.5,-342.67 684.5,-342.67 684.5,-321.67 586.5,-321.67"/>
<text text-anchor="start" x="604" y="-328.47" font-family="Times New Roman,serif" font-size="14.00">description</text>
<polygon fill="none" stroke="black" points="684.5,-321.67 684.5,-342.67 925.5,-342.67 925.5,-321.67 684.5,-321.67"/>
<text text-anchor="start" x="769" y="-328.47" font-family="Times New Roman,serif" font-size="14.00">Optional[str]</text>
<polygon fill="none" stroke="black" points="586.5,-300.67 586.5,-321.67 684.5,-321.67 684.5,-300.67 586.5,-300.67"/>
<text text-anchor="start" x="606.5" y="-307.47" font-family="Times New Roman,serif" font-size="14.00">comments</text>
<polygon fill="none" stroke="black" points="684.5,-300.67 684.5,-321.67 925.5,-321.67 925.5,-300.67 684.5,-300.67"/>
<text text-anchor="start" x="769" y="-307.47" font-family="Times New Roman,serif" font-size="14.00">Optional[str]</text>
<polygon fill="none" stroke="black" points="586.5,-279.67 586.5,-300.67 684.5,-300.67 684.5,-279.67 586.5,-279.67"/>
<text text-anchor="start" x="597" y="-286.47" font-family="Times New Roman,serif" font-size="14.00">subcategories</text>
<polygon fill="none" stroke="black" points="684.5,-279.67 684.5,-300.67 925.5,-300.67 925.5,-279.67 684.5,-279.67"/>
<text text-anchor="start" x="710" y="-286.47" font-family="Times New Roman,serif" font-size="14.00">list[WindUncertaintySubcategory]</text>
<polygon fill="none" stroke="black" points="586.5,-258.67 586.5,-279.67 684.5,-279.67 684.5,-258.67 586.5,-258.67"/>
<text text-anchor="start" x="589.5" y="-265.47" font-family="Times New Roman,serif" font-size="14.00">category_results</text>
<polygon fill="none" stroke="black" points="684.5,-258.67 684.5,-279.67 925.5,-279.67 925.5,-258.67 684.5,-258.67"/>
<text text-anchor="start" x="774.5" y="-265.47" font-family="Times New Roman,serif" font-size="14.00">list[Result]</text>
</a>
</g>
</g>
<!-- eya_def_tools.data_models.wind_resource.TurbineWindResourceAssessment&#45;&gt;eya_def_tools.data_models.wind_uncertainty.WindUncertaintyCategory -->
<g id="edge4" class="edge">
<title>eya_def_tools.data_models.wind_resource.TurbineWindResourceAssessment:e&#45;&gt;eya_def_tools.data_models.wind_uncertainty.WindUncertaintyCategory:w</title>
<path fill="none" stroke="black" d="M478,-437.67C526.62,-437.67 530.3,-389.44 567.68,-377.38"/>
<polygon fill="black" stroke="black" points="576.11,-376.13 586.66,-379.12 581.05,-375.4 586,-374.67 586,-374.67 586,-374.67 581.05,-375.4 585.34,-370.22 576.11,-376.13 576.11,-376.13"/>
<ellipse fill="none" stroke="black" cx="571.66" cy="-376.79" rx="4" ry="4"/>
</g>
<!-- eya_def_tools.data_models.wind_resource.TurbineWindResourceAssessmentResults&#45;&gt;eya_def_tools.data_models.result.Result -->
<g id="edge5" class="edge">
<title>eya_def_tools.data_models.wind_resource.TurbineWindResourceAssessmentResults:e&#45;&gt;eya_def_tools.data_models.result.Result:w</title>
<path fill="none" stroke="black" d="M1819,-457.67C1870.36,-457.67 1869.72,-399.73 1908.49,-385.7"/>
<polygon fill="black" stroke="black" points="1917.13,-384.29 1927.73,-387.11 1922.07,-383.48 1927,-382.67 1927,-382.67 1927,-382.67 1922.07,-383.48 1926.27,-378.23 1917.13,-384.29 1917.13,-384.29"/>
<ellipse fill="none" stroke="black" cx="1912.69" cy="-385.02" rx="4" ry="4"/>
</g>
<!-- eya_def_tools.data_models.wind_resource.TurbineWindResourceAssessmentResults&#45;&gt;eya_def_tools.data_models.result.Result -->
<g id="edge6" class="edge">
<title>eya_def_tools.data_models.wind_resource.TurbineWindResourceAssessmentResults:e&#45;&gt;eya_def_tools.data_models.result.Result:w</title>
<path fill="none" stroke="black" d="M1819,-436.67C1865.75,-436.67 1872.28,-395.7 1908.66,-385.13"/>
<polygon fill="black" stroke="black" points="1917.09,-384 1927.6,-387.13 1922.04,-383.34 1927,-382.67 1927,-382.67 1927,-382.67 1922.04,-383.34 1926.4,-378.21 1917.09,-384 1917.09,-384"/>
<ellipse fill="none" stroke="black" cx="1912.63" cy="-384.6" rx="4" ry="4"/>
</g>
<!-- eya_def_tools.data_models.wind_resource.TurbineWindResourceAssessmentResults&#45;&gt;eya_def_tools.data_models.result.Result -->
<g id="edge7" class="edge">
<title>eya_def_tools.data_models.wind_resource.TurbineWindResourceAssessmentResults:e&#45;&gt;eya_def_tools.data_models.result.Result:w</title>
<path fill="none" stroke="black" d="M1819,-414.67C1862.02,-414.67 1873.89,-391.04 1908.15,-384.39"/>
<polygon fill="black" stroke="black" points="1917.04,-383.58 1927.41,-387.15 1922.02,-383.12 1927,-382.67 1927,-382.67 1927,-382.67 1922.02,-383.12 1926.59,-378.19 1917.04,-383.58 1917.04,-383.58"/>
<ellipse fill="none" stroke="black" cx="1912.56" cy="-383.99" rx="4" ry="4"/>
</g>
<!-- eya_def_tools.data_models.wind_resource.TurbineWindResourceAssessmentResults&#45;&gt;eya_def_tools.data_models.result.Result -->
<g id="edge8" class="edge">
<title>eya_def_tools.data_models.wind_resource.TurbineWindResourceAssessmentResults:e&#45;&gt;eya_def_tools.data_models.result.Result:w</title>
<path fill="none" stroke="black" d="M1819,-393.67C1860.27,-393.67 1874.66,-385.62 1908.16,-383.29"/>
<polygon fill="black" stroke="black" points="1917.01,-383 1927.15,-387.17 1922,-382.84 1927,-382.67 1927,-382.67 1927,-382.67 1922,-382.84 1926.85,-378.17 1917.01,-383 1917.01,-383"/>
<ellipse fill="none" stroke="black" cx="1912.51" cy="-383.15" rx="4" ry="4"/>
</g>
<!-- eya_def_tools.data_models.wind_resource.TurbineWindResourceAssessmentResults&#45;&gt;eya_def_tools.data_models.result.Result -->
<g id="edge9" class="edge">
<title>eya_def_tools.data_models.wind_resource.TurbineWindResourceAssessmentResults:e&#45;&gt;eya_def_tools.data_models.result.Result:w</title>
<path fill="none" stroke="black" d="M1819,-372.67C1860.24,-372.67 1874.68,-379.99 1908.17,-382.1"/>
<polygon fill="black" stroke="black" points="1917,-382.37 1926.86,-387.17 1922,-382.52 1927,-382.67 1927,-382.67 1927,-382.67 1922,-382.52 1927.14,-378.17 1917,-382.37 1917,-382.37"/>
<ellipse fill="none" stroke="black" cx="1912.51" cy="-382.23" rx="4" ry="4"/>
</g>
<!-- eya_def_tools.data_models.wind_uncertainty.WindUncertaintyCategory&#45;&gt;eya_def_tools.data_models.result.Result -->
<g id="edge10" class="edge">
<title>eya_def_tools.data_models.wind_uncertainty.WindUncertaintyCategory:e&#45;&gt;eya_def_tools.data_models.result.Result:w</title>
<path fill="none" stroke="black" d="M925,-268.67C994.47,-268.67 969.65,-184.19 1033,-155.67 1351.63,-12.2 1526.57,55.63 1819,-135.67 1913.39,-197.42 1819.59,-361.81 1908.24,-380.86"/>
<polygon fill="black" stroke="black" points="1917.05,-381.71 1926.57,-387.15 1922.02,-382.19 1927,-382.67 1927,-382.67 1927,-382.67 1922.02,-382.19 1927.43,-378.19 1917.05,-381.71 1917.05,-381.71"/>
<ellipse fill="none" stroke="black" cx="1912.57" cy="-381.28" rx="4" ry="4"/>
</g>
<!-- eya_def_tools.data_models.wind_uncertainty.WindUncertaintySubcategory -->
<g id="node7" class="node">
<title>eya_def_tools.data_models.wind_uncertainty.WindUncertaintySubcategory</title>
<g id="a_node7"><a xlink:title="eya_def_tools.data_models.wind_uncertainty.WindUncertaintySubcategory&#10;&#10;Subcategory of a wind related uncertainty assessment.&#10;&#10;Attributes:&#10; &#160;&#160;&#160;label (WindUncertaintySubcategoryLabel(StrEnum)): Label of the wind related uncertainty subcategory.&#10; &#160;&#160;&#160;description (Optional[str]): Description of the data object. Default is None.&#10; &#160;&#160;&#160;comments (Optional[str]): Comments on the data object. Default is None.&#10; &#160;&#160;&#160;elements (Optional[list[WindUncertaintySubcategoryElement]]): Wind related uncertainty assessment elements that fall under the subcategory. The element objects include details and results at the element level. A breakdown of wind related uncertainty subcategories into elements is optional and can be included only for a subset of the subcategories, as relevant. Whereas the categories and subcategories are fixed, the user may freely define element labels. Default is None.&#10; &#160;&#160;&#160;subcategory_results (list[Result]): Wind related uncertainty assessment subcategory result(s) as dimensionless relative values.&#10;">
<polygon fill="none" stroke="black" points="1033,-278.67 1033,-299.67 1449,-299.67 1449,-278.67 1033,-278.67"/>
<text text-anchor="start" x="1150.5" y="-286.47" font-family="Times New Roman,serif" font-weight="bold" font-size="14.00">WindUncertaintySubcategory</text>
<polygon fill="none" stroke="black" points="1033,-257.67 1033,-278.67 1151,-278.67 1151,-257.67 1033,-257.67"/>
<text text-anchor="start" x="1079" y="-264.47" font-family="Times New Roman,serif" font-size="14.00">label</text>
<polygon fill="none" stroke="black" points="1151,-257.67 1151,-278.67 1449,-278.67 1449,-257.67 1151,-257.67"/>
<text text-anchor="start" x="1173" y="-264.47" font-family="Times New Roman,serif" font-size="14.00">WindUncertaintySubcategoryLabel(StrEnum)</text>
<polygon fill="none" stroke="black" points="1033,-236.67 1033,-257.67 1151,-257.67 1151,-236.67 1033,-236.67"/>
<text text-anchor="start" x="1060.5" y="-243.47" font-family="Times New Roman,serif" font-size="14.00">description</text>
<polygon fill="none" stroke="black" points="1151,-236.67 1151,-257.67 1449,-257.67 1449,-236.67 1151,-236.67"/>
<text text-anchor="start" x="1264" y="-243.47" font-family="Times New Roman,serif" font-size="14.00">Optional[str]</text>
<polygon fill="none" stroke="black" points="1033,-215.67 1033,-236.67 1151,-236.67 1151,-215.67 1033,-215.67"/>
<text text-anchor="start" x="1063" y="-222.47" font-family="Times New Roman,serif" font-size="14.00">comments</text>
<polygon fill="none" stroke="black" points="1151,-215.67 1151,-236.67 1449,-236.67 1449,-215.67 1151,-215.67"/>
<text text-anchor="start" x="1264" y="-222.47" font-family="Times New Roman,serif" font-size="14.00">Optional[str]</text>
<polygon fill="none" stroke="black" points="1033,-194.67 1033,-215.67 1151,-215.67 1151,-194.67 1033,-194.67"/>
<text text-anchor="start" x="1067.5" y="-201.47" font-family="Times New Roman,serif" font-size="14.00">elements</text>
<polygon fill="none" stroke="black" points="1151,-194.67 1151,-215.67 1449,-215.67 1449,-194.67 1151,-194.67"/>
<text text-anchor="start" x="1154" y="-201.47" font-family="Times New Roman,serif" font-size="14.00">Optional[list[WindUncertaintySubcategoryElement]]</text>
<polygon fill="none" stroke="black" points="1033,-173.67 1033,-194.67 1151,-194.67 1151,-173.67 1033,-173.67"/>
<text text-anchor="start" x="1036" y="-180.47" font-family="Times New Roman,serif" font-size="14.00">subcategory_results</text>
<polygon fill="none" stroke="black" points="1151,-173.67 1151,-194.67 1449,-194.67 1449,-173.67 1151,-173.67"/>
<text text-anchor="start" x="1269.5" y="-180.47" font-family="Times New Roman,serif" font-size="14.00">list[Result]</text>
</a>
</g>
</g>
<!-- eya_def_tools.data_models.wind_uncertainty.WindUncertaintyCategory&#45;&gt;eya_def_tools.data_models.wind_uncertainty.WindUncertaintySubcategory -->
<g id="edge11" class="edge">
<title>eya_def_tools.data_models.wind_uncertainty.WindUncertaintyCategory:e&#45;&gt;eya_def_tools.data_models.wind_uncertainty.WindUncertaintySubcategory:w</title>
<path fill="none" stroke="black" d="M925,-289.67C966.06,-289.67 980.78,-289.67 1014.23,-289.67"/>
<polygon fill="black" stroke="black" points="1023,-289.67 1033,-294.17 1028,-289.67 1033,-289.67 1033,-289.67 1033,-289.67 1028,-289.67 1033,-285.17 1023,-289.67 1023,-289.67"/>
<ellipse fill="none" stroke="black" cx="1018.5" cy="-289.67" rx="4" ry="4"/>
</g>
<!-- eya_def_tools.data_models.wind_uncertainty.WindUncertaintySubcategory&#45;&gt;eya_def_tools.data_models.result.Result -->
<g id="edge12" class="edge">
<title>eya_def_tools.data_models.wind_uncertainty.WindUncertaintySubcategory:e&#45;&gt;eya_def_tools.data_models.result.Result:w</title>
<path fill="none" stroke="black" d="M1449,-183.67C1613.45,-183.67 1677.77,-98.43 1819,-182.67 1899.66,-230.78 1836.37,-362.3 1908.25,-380.56"/>
<polygon fill="black" stroke="black" points="1917.06,-381.55 1926.5,-387.14 1922.03,-382.11 1927,-382.67 1927,-382.67 1927,-382.67 1922.03,-382.11 1927.5,-378.2 1917.06,-381.55 1917.06,-381.55"/>
<ellipse fill="none" stroke="black" cx="1912.59" cy="-381.05" rx="4" ry="4"/>
</g>
<!-- eya_def_tools.data_models.wind_uncertainty.WindUncertaintySubcategoryElement -->
<g id="node8" class="node">
<title>eya_def_tools.data_models.wind_uncertainty.WindUncertaintySubcategoryElement</title>
<g id="a_node8"><a xlink:title="eya_def_tools.data_models.wind_uncertainty.WindUncertaintySubcategoryElement&#10;&#10;Subcategory element of a wind related uncertainty assessment.&#10;&#10;Attributes:&#10; &#160;&#160;&#160;label (str): Label of the wind related uncertainty subcategory element.&#10; &#160;&#160;&#160;description (Optional[str]): Description of the data object. Default is None.&#10; &#160;&#160;&#160;comments (Optional[str]): Comments on the data object. Default is None.&#10; &#160;&#160;&#160;is_independent (bool): Whether the wind related uncertainty subcategory element is independent of all other elements. Default is True.&#10; &#160;&#160;&#160;element_results (list[Result]): Wind related uncertainty assessment subcategory element result(s) as dimensionless relative values.&#10;">
<polygon fill="none" stroke="black" points="1569,-305.67 1569,-326.67 1807,-326.67 1807,-305.67 1569,-305.67"/>
<text text-anchor="start" x="1572" y="-313.47" font-family="Times New Roman,serif" font-weight="bold" font-size="14.00">WindUncertaintySubcategoryElement</text>
<polygon fill="none" stroke="black" points="1569,-284.67 1569,-305.67 1695,-305.67 1695,-284.67 1569,-284.67"/>
<text text-anchor="start" x="1619" y="-291.47" font-family="Times New Roman,serif" font-size="14.00">label</text>
<polygon fill="none" stroke="black" points="1695,-284.67 1695,-305.67 1807,-305.67 1807,-284.67 1695,-284.67"/>
<text text-anchor="start" x="1743.5" y="-291.47" font-family="Times New Roman,serif" font-size="14.00">str</text>
<polygon fill="none" stroke="black" points="1569,-263.67 1569,-284.67 1695,-284.67 1695,-263.67 1569,-263.67"/>
<text text-anchor="start" x="1600.5" y="-270.47" font-family="Times New Roman,serif" font-size="14.00">description</text>
<polygon fill="none" stroke="black" points="1695,-263.67 1695,-284.67 1807,-284.67 1807,-263.67 1695,-263.67"/>
<text text-anchor="start" x="1715" y="-270.47" font-family="Times New Roman,serif" font-size="14.00">Optional[str]</text>
<polygon fill="none" stroke="black" points="1569,-242.67 1569,-263.67 1695,-263.67 1695,-242.67 1569,-242.67"/>
<text text-anchor="start" x="1603" y="-249.47" font-family="Times New Roman,serif" font-size="14.00">comments</text>
<polygon fill="none" stroke="black" points="1695,-242.67 1695,-263.67 1807,-263.67 1807,-242.67 1695,-242.67"/>
<text text-anchor="start" x="1715" y="-249.47" font-family="Times New Roman,serif" font-size="14.00">Optional[str]</text>
<polygon fill="none" stroke="black" points="1569,-221.67 1569,-242.67 1695,-242.67 1695,-221.67 1569,-221.67"/>
<text text-anchor="start" x="1589.5" y="-228.47" font-family="Times New Roman,serif" font-size="14.00">is_independent</text>
<polygon fill="none" stroke="black" points="1695,-221.67 1695,-242.67 1807,-242.67 1807,-221.67 1695,-221.67"/>
<text text-anchor="start" x="1738" y="-228.47" font-family="Times New Roman,serif" font-size="14.00">bool</text>
<polygon fill="none" stroke="black" points="1569,-200.67 1569,-221.67 1695,-221.67 1695,-200.67 1569,-200.67"/>
<text text-anchor="start" x="1589" y="-207.47" font-family="Times New Roman,serif" font-size="14.00">element_results</text>
<polygon fill="none" stroke="black" points="1695,-200.67 1695,-221.67 1807,-221.67 1807,-200.67 1695,-200.67"/>
<text text-anchor="start" x="1720.5" y="-207.47" font-family="Times New Roman,serif" font-size="14.00">list[Result]</text>
</a>
</g>
</g>
<!-- eya_def_tools.data_models.wind_uncertainty.WindUncertaintySubcategory&#45;&gt;eya_def_tools.data_models.wind_uncertainty.WindUncertaintySubcategoryElement -->
<g id="edge13" class="edge">
<title>eya_def_tools.data_models.wind_uncertainty.WindUncertaintySubcategory:e&#45;&gt;eya_def_tools.data_models.wind_uncertainty.WindUncertaintySubcategoryElement:w</title>
<path fill="none" stroke="black" d="M1449,-204.67C1514.54,-204.67 1499.56,-295.86 1549.37,-313.67"/>
<polygon fill="black" stroke="black" points="1558.13,-315.08 1567.29,-321.11 1563.06,-315.88 1568,-316.67 1568,-316.67 1568,-316.67 1563.06,-315.88 1568.71,-312.23 1558.13,-315.08 1558.13,-315.08"/>
<ellipse fill="none" stroke="black" cx="1553.68" cy="-314.37" rx="4" ry="4"/>
</g>
<!-- eya_def_tools.data_models.wind_uncertainty.WindUncertaintySubcategoryElement&#45;&gt;eya_def_tools.data_models.result.Result -->
<g id="edge14" class="edge">
<title>eya_def_tools.data_models.wind_uncertainty.WindUncertaintySubcategoryElement:e&#45;&gt;eya_def_tools.data_models.result.Result:w</title>
<path fill="none" stroke="black" d="M1808,-210.67C1893.88,-210.67 1843.31,-357.47 1908.4,-379.83"/>
<polygon fill="black" stroke="black" points="1917.11,-381.16 1926.32,-387.12 1922.06,-381.92 1927,-382.67 1927,-382.67 1927,-382.67 1922.06,-381.92 1927.68,-378.22 1917.11,-381.16 1917.11,-381.16"/>
<ellipse fill="none" stroke="black" cx="1912.67" cy="-380.48" rx="4" ry="4"/>
</g>
</g>
</svg>
