<?xml version="1.0" encoding="UTF-8" standalone="no"?>
<!DOCTYPE svg PUBLIC "-//W3C//DTD SVG 1.1//EN"
 "http://www.w3.org/Graphics/SVG/1.1/DTD/svg11.dtd">
<!-- Generated by graphviz version 7.0.4 (20221203.1631)
 -->
<!-- Title: Entity Relationship Diagram Pages: 1 -->
<svg width="3498pt" height="516pt"
 viewBox="0.00 0.00 3498.00 515.50" xmlns="http://www.w3.org/2000/svg" xmlns:xlink="http://www.w3.org/1999/xlink">
<g id="graph0" class="graph" transform="scale(1 1) rotate(0) translate(4 511.5)">
<title>Entity Relationship Diagram</title>
<polygon fill="white" stroke="none" points="-4,4 -4,-511.5 3494,-511.5 3494,4 -4,4"/>
<text text-anchor="middle" x="1745" y="-6.8" font-family="Times New Roman,serif" font-size="9.00" fill="#a8a8a8">Created by erdantic v0.6.0 &lt;https://github.com/drivendataorg/erdantic&gt;</text>
<!-- eya_def_tools.data_models.process_description.AssessmentProcessDescription -->
<g id="node1" class="node">
<title>eya_def_tools.data_models.process_description.AssessmentProcessDescription</title>
<g id="a_node1"><a xlink:title="eya_def_tools.data_models.process_description.AssessmentProcessDescription&#10;&#10;Description of a process used in an energy yield assessment.&#10;&#10;Attributes:&#10; &#160;&#160;&#160;label (str): Label or name of the process or model.&#10; &#160;&#160;&#160;description (str): Description of the assessment process or model.&#10; &#160;&#160;&#160;comments (Optional[str]): Optional comments on the plant performance loss subcategory. Default is None.&#10;">
<polygon fill="none" stroke="black" points="574,-486.5 574,-507.5 770,-507.5 770,-486.5 574,-486.5"/>
<text text-anchor="start" x="577" y="-494.3" font-family="Times New Roman,serif" font-weight="bold" font-size="14.00">AssessmentProcessDescription</text>
<polygon fill="none" stroke="black" points="574,-465.5 574,-486.5 667,-486.5 667,-465.5 574,-465.5"/>
<text text-anchor="start" x="607.5" y="-472.3" font-family="Times New Roman,serif" font-size="14.00">label</text>
<polygon fill="none" stroke="black" points="667,-465.5 667,-486.5 770,-486.5 770,-465.5 667,-465.5"/>
<text text-anchor="start" x="711" y="-472.3" font-family="Times New Roman,serif" font-size="14.00">str</text>
<polygon fill="none" stroke="black" points="574,-444.5 574,-465.5 667,-465.5 667,-444.5 574,-444.5"/>
<text text-anchor="start" x="589" y="-451.3" font-family="Times New Roman,serif" font-size="14.00">description</text>
<polygon fill="none" stroke="black" points="667,-444.5 667,-465.5 770,-465.5 770,-444.5 667,-444.5"/>
<text text-anchor="start" x="711" y="-451.3" font-family="Times New Roman,serif" font-size="14.00">str</text>
<polygon fill="none" stroke="black" points="574,-423.5 574,-444.5 667,-444.5 667,-423.5 574,-423.5"/>
<text text-anchor="start" x="591.5" y="-430.3" font-family="Times New Roman,serif" font-size="14.00">comments</text>
<polygon fill="none" stroke="black" points="667,-423.5 667,-444.5 770,-444.5 770,-423.5 667,-423.5"/>
<text text-anchor="start" x="682.5" y="-430.3" font-family="Times New Roman,serif" font-size="14.00">Optional[str]</text>
</a>
</g>
</g>
<!-- eya_def_tools.data_models.result.Result -->
<g id="node2" class="node">
<title>eya_def_tools.data_models.result.Result</title>
<g id="a_node2"><a xlink:title="eya_def_tools.data_models.result.Result&#10;&#10;Collection of results a quantity along specific dimensions.&#10;&#10;Attributes:&#10; &#160;&#160;&#160;label (Optional[str]): Label of the results. Default is None.&#10; &#160;&#160;&#160;description (Optional[str]): Optional description of the result. Default is None.&#10; &#160;&#160;&#160;comments (Optional[str]): Optional comments on the result. Default is None.&#10; &#160;&#160;&#160;assessment_period (Optional[AssessmentPeriod(StrEnum)]): Period of or in time that has been assessed and for which the results are applicable. Default is None.&#10; &#160;&#160;&#160;dimensions (Optional[list[ResultsDimension(StrEnum)]]): Dimensions along which the results are binned (all result values in the same results object must have the same dimensions). Default is None.&#10; &#160;&#160;&#160;statistics (list[ResultStatistic]): List of result statistic objects that each include result values for a specific statistic type.&#10;">
<polygon fill="none" stroke="black" points="2574,-228.5 2574,-249.5 2934,-249.5 2934,-228.5 2574,-228.5"/>
<text text-anchor="start" x="2734" y="-236.3" font-family="Times New Roman,serif" font-weight="bold" font-size="14.00">Result</text>
<polygon fill="none" stroke="black" points="2574,-207.5 2574,-228.5 2687,-228.5 2687,-207.5 2574,-207.5"/>
<text text-anchor="start" x="2617.5" y="-214.3" font-family="Times New Roman,serif" font-size="14.00">label</text>
<polygon fill="none" stroke="black" points="2687,-207.5 2687,-228.5 2934,-228.5 2934,-207.5 2687,-207.5"/>
<text text-anchor="start" x="2774.5" y="-214.3" font-family="Times New Roman,serif" font-size="14.00">Optional[str]</text>
<polygon fill="none" stroke="black" points="2574,-186.5 2574,-207.5 2687,-207.5 2687,-186.5 2574,-186.5"/>
<text text-anchor="start" x="2599" y="-193.3" font-family="Times New Roman,serif" font-size="14.00">description</text>
<polygon fill="none" stroke="black" points="2687,-186.5 2687,-207.5 2934,-207.5 2934,-186.5 2687,-186.5"/>
<text text-anchor="start" x="2774.5" y="-193.3" font-family="Times New Roman,serif" font-size="14.00">Optional[str]</text>
<polygon fill="none" stroke="black" points="2574,-165.5 2574,-186.5 2687,-186.5 2687,-165.5 2574,-165.5"/>
<text text-anchor="start" x="2601.5" y="-172.3" font-family="Times New Roman,serif" font-size="14.00">comments</text>
<polygon fill="none" stroke="black" points="2687,-165.5 2687,-186.5 2934,-186.5 2934,-165.5 2687,-165.5"/>
<text text-anchor="start" x="2774.5" y="-172.3" font-family="Times New Roman,serif" font-size="14.00">Optional[str]</text>
<polygon fill="none" stroke="black" points="2574,-144.5 2574,-165.5 2687,-165.5 2687,-144.5 2574,-144.5"/>
<text text-anchor="start" x="2577" y="-151.3" font-family="Times New Roman,serif" font-size="14.00">assessment_period</text>
<polygon fill="none" stroke="black" points="2687,-144.5 2687,-165.5 2934,-165.5 2934,-144.5 2687,-144.5"/>
<text text-anchor="start" x="2701" y="-151.3" font-family="Times New Roman,serif" font-size="14.00">Optional[AssessmentPeriod(StrEnum)]</text>
<polygon fill="none" stroke="black" points="2574,-123.5 2574,-144.5 2687,-144.5 2687,-123.5 2574,-123.5"/>
<text text-anchor="start" x="2598.5" y="-130.3" font-family="Times New Roman,serif" font-size="14.00">dimensions</text>
<polygon fill="none" stroke="black" points="2687,-123.5 2687,-144.5 2934,-144.5 2934,-123.5 2687,-123.5"/>
<text text-anchor="start" x="2690" y="-130.3" font-family="Times New Roman,serif" font-size="14.00">Optional[list[ResultsDimension(StrEnum)]]</text>
<polygon fill="none" stroke="black" points="2574,-102.5 2574,-123.5 2687,-123.5 2687,-102.5 2574,-102.5"/>
<text text-anchor="start" x="2606" y="-109.3" font-family="Times New Roman,serif" font-size="14.00">statistics</text>
<polygon fill="none" stroke="black" points="2687,-102.5 2687,-123.5 2934,-123.5 2934,-102.5 2687,-102.5"/>
<text text-anchor="start" x="2758" y="-109.3" font-family="Times New Roman,serif" font-size="14.00">list[ResultStatistic]</text>
</a>
</g>
</g>
<!-- eya_def_tools.data_models.result.ResultStatistic -->
<g id="node3" class="node">
<title>eya_def_tools.data_models.result.ResultStatistic</title>
<g id="a_node3"><a xlink:title="eya_def_tools.data_models.result.ResultStatistic&#10;&#10;Result values for one specific statistic type.&#10;&#10;Attributes:&#10; &#160;&#160;&#160;description (Optional[str]): Optional description of the result statistic. Default is None.&#10; &#160;&#160;&#160;comments (Optional[str]): Optional comments on the result statistic. Default is None.&#10; &#160;&#160;&#160;statistic_type (StatisticType(StrEnum)): Type of statistic in the results component.&#10; &#160;&#160;&#160;values (UnionType[float, list[tuple[list[UnionType[float, int, str]], float]]]): Result as a single number or values at coordinates.&#10;">
<polygon fill="none" stroke="black" points="3042,-101.5 3042,-122.5 3490,-122.5 3490,-101.5 3042,-101.5"/>
<text text-anchor="start" x="3221.5" y="-109.3" font-family="Times New Roman,serif" font-weight="bold" font-size="14.00">ResultStatistic</text>
<polygon fill="none" stroke="black" points="3042,-80.5 3042,-101.5 3122,-101.5 3122,-80.5 3042,-80.5"/>
<text text-anchor="start" x="3050.5" y="-87.3" font-family="Times New Roman,serif" font-size="14.00">description</text>
<polygon fill="none" stroke="black" points="3122,-80.5 3122,-101.5 3490,-101.5 3490,-80.5 3122,-80.5"/>
<text text-anchor="start" x="3270" y="-87.3" font-family="Times New Roman,serif" font-size="14.00">Optional[str]</text>
<polygon fill="none" stroke="black" points="3042,-59.5 3042,-80.5 3122,-80.5 3122,-59.5 3042,-59.5"/>
<text text-anchor="start" x="3053" y="-66.3" font-family="Times New Roman,serif" font-size="14.00">comments</text>
<polygon fill="none" stroke="black" points="3122,-59.5 3122,-80.5 3490,-80.5 3490,-59.5 3122,-59.5"/>
<text text-anchor="start" x="3270" y="-66.3" font-family="Times New Roman,serif" font-size="14.00">Optional[str]</text>
<polygon fill="none" stroke="black" points="3042,-38.5 3042,-59.5 3122,-59.5 3122,-38.5 3042,-38.5"/>
<text text-anchor="start" x="3045" y="-45.3" font-family="Times New Roman,serif" font-size="14.00">statistic_type</text>
<polygon fill="none" stroke="black" points="3122,-38.5 3122,-59.5 3490,-59.5 3490,-38.5 3122,-38.5"/>
<text text-anchor="start" x="3240" y="-45.3" font-family="Times New Roman,serif" font-size="14.00">StatisticType(StrEnum)</text>
<polygon fill="none" stroke="black" points="3042,-17.5 3042,-38.5 3122,-38.5 3122,-17.5 3042,-17.5"/>
<text text-anchor="start" x="3064.5" y="-24.3" font-family="Times New Roman,serif" font-size="14.00">values</text>
<polygon fill="none" stroke="black" points="3122,-17.5 3122,-38.5 3490,-38.5 3490,-17.5 3122,-17.5"/>
<text text-anchor="start" x="3125" y="-24.3" font-family="Times New Roman,serif" font-size="14.00">UnionType[float, list[tuple[list[UnionType[float, int, str]], float]]]</text>
</a>
</g>
</g>
<!-- eya_def_tools.data_models.result.Result&#45;&gt;eya_def_tools.data_models.result.ResultStatistic -->
<g id="edge1" class="edge">
<title>eya_def_tools.data_models.result.Result:e&#45;&gt;eya_def_tools.data_models.result.ResultStatistic:w</title>
<path fill="none" stroke="black" d="M2934,-112.5C2975.06,-112.5 2989.78,-112.5 3023.23,-112.5"/>
<polygon fill="black" stroke="black" points="3032,-112.5 3042,-117 3037,-112.5 3042,-112.5 3042,-112.5 3042,-112.5 3037,-112.5 3042,-108 3032,-112.5 3032,-112.5"/>
<ellipse fill="none" stroke="black" cx="3027.5" cy="-112.5" rx="4" ry="4"/>
</g>
<!-- eya_def_tools.data_models.wind_resource.TurbineWindResourceAssessment -->
<g id="node4" class="node">
<title>eya_def_tools.data_models.wind_resource.TurbineWindResourceAssessment</title>
<g id="a_node4"><a xlink:title="eya_def_tools.data_models.wind_resource.TurbineWindResourceAssessment&#10;&#10;Wind resource assessment at the turbine locations.&#10;&#10;Attributes:&#10; &#160;&#160;&#160;wind_resource_assessment_id_reference (str): The ID of the wind resource assessment on which the turbine wind resource assessment is based. This must refer to an ID of a wind resource assessment included at the top level of the EYA DEF. The schema requires that a turbine wind resource assessment is based on only one wind resource assessment.&#10; &#160;&#160;&#160;description (Optional[str]): Optional description of the turbine wind resource assessment. Default is None.&#10; &#160;&#160;&#160;comments (Optional[str]): Optional comments on the turbine wind resource assessment. Default is None.&#10; &#160;&#160;&#160;wind_spatial_modelling_processes (list[AssessmentProcessDescription]): Wind spatial modelling processes used in the assessment.&#10; &#160;&#160;&#160;results (TurbineWindResourceResults): Results of the wind resource assessment at the turbine location(s).&#10; &#160;&#160;&#160;wind_uncertainty_assessment (WindUncertaintyAssessment): Wind related uncertainty assessment categories including results.&#10;">
<polygon fill="none" stroke="black" points="0,-463.5 0,-484.5 444,-484.5 444,-463.5 0,-463.5"/>
<text text-anchor="start" x="116.5" y="-471.3" font-family="Times New Roman,serif" font-weight="bold" font-size="14.00">TurbineWindResourceAssessment</text>
<polygon fill="none" stroke="black" points="0,-442.5 0,-463.5 236,-463.5 236,-442.5 0,-442.5"/>
<text text-anchor="start" x="3" y="-449.3" font-family="Times New Roman,serif" font-size="14.00">wind_resource_assessment_id_reference</text>
<polygon fill="none" stroke="black" points="236,-442.5 236,-463.5 444,-463.5 444,-442.5 236,-442.5"/>
<text text-anchor="start" x="332.5" y="-449.3" font-family="Times New Roman,serif" font-size="14.00">str</text>
<polygon fill="none" stroke="black" points="0,-421.5 0,-442.5 236,-442.5 236,-421.5 0,-421.5"/>
<text text-anchor="start" x="86.5" y="-428.3" font-family="Times New Roman,serif" font-size="14.00">description</text>
<polygon fill="none" stroke="black" points="236,-421.5 236,-442.5 444,-442.5 444,-421.5 236,-421.5"/>
<text text-anchor="start" x="304" y="-428.3" font-family="Times New Roman,serif" font-size="14.00">Optional[str]</text>
<polygon fill="none" stroke="black" points="0,-400.5 0,-421.5 236,-421.5 236,-400.5 0,-400.5"/>
<text text-anchor="start" x="89" y="-407.3" font-family="Times New Roman,serif" font-size="14.00">comments</text>
<polygon fill="none" stroke="black" points="236,-400.5 236,-421.5 444,-421.5 444,-400.5 236,-400.5"/>
<text text-anchor="start" x="304" y="-407.3" font-family="Times New Roman,serif" font-size="14.00">Optional[str]</text>
<polygon fill="none" stroke="black" points="0,-379.5 0,-400.5 236,-400.5 236,-379.5 0,-379.5"/>
<text text-anchor="start" x="20" y="-386.3" font-family="Times New Roman,serif" font-size="14.00">wind_spatial_modelling_processes</text>
<polygon fill="none" stroke="black" points="236,-379.5 236,-400.5 444,-400.5 444,-379.5 236,-379.5"/>
<text text-anchor="start" x="239" y="-386.3" font-family="Times New Roman,serif" font-size="14.00">list[AssessmentProcessDescription]</text>
<polygon fill="none" stroke="black" points="0,-358.5 0,-379.5 236,-379.5 236,-358.5 0,-358.5"/>
<text text-anchor="start" x="99.5" y="-365.3" font-family="Times New Roman,serif" font-size="14.00">results</text>
<polygon fill="none" stroke="black" points="236,-358.5 236,-379.5 444,-379.5 444,-358.5 236,-358.5"/>
<text text-anchor="start" x="255.5" y="-365.3" font-family="Times New Roman,serif" font-size="14.00">TurbineWindResourceResults</text>
<polygon fill="none" stroke="black" points="0,-337.5 0,-358.5 236,-358.5 236,-337.5 0,-337.5"/>
<text text-anchor="start" x="35" y="-344.3" font-family="Times New Roman,serif" font-size="14.00">wind_uncertainty_assessment</text>
<polygon fill="none" stroke="black" points="236,-337.5 236,-358.5 444,-358.5 444,-337.5 236,-337.5"/>
<text text-anchor="start" x="259" y="-344.3" font-family="Times New Roman,serif" font-size="14.00">WindUncertaintyAssessment</text>
</a>
</g>
</g>
<!-- eya_def_tools.data_models.wind_resource.TurbineWindResourceAssessment&#45;&gt;eya_def_tools.data_models.process_description.AssessmentProcessDescription -->
<g id="edge2" class="edge">
<title>eya_def_tools.data_models.wind_resource.TurbineWindResourceAssessment:e&#45;&gt;eya_def_tools.data_models.process_description.AssessmentProcessDescription:w</title>
<path fill="none" stroke="black" d="M444,-389.5C511.76,-389.5 501.24,-478.2 554.33,-494.83"/>
<polygon fill="black" stroke="black" points="563.1,-496.08 572.36,-501.95 568.05,-496.79 573,-497.5 573,-497.5 573,-497.5 568.05,-496.79 573.64,-493.05 563.1,-496.08 563.1,-496.08"/>
<ellipse fill="none" stroke="black" cx="558.65" cy="-495.45" rx="4" ry="4"/>
</g>
<!-- eya_def_tools.data_models.wind_resource.TurbineWindResourceResults -->
<g id="node5" class="node">
<title>eya_def_tools.data_models.wind_resource.TurbineWindResourceResults</title>
<g id="a_node5"><a xlink:title="eya_def_tools.data_models.wind_resource.TurbineWindResourceResults&#10;&#10;Wind resource assessment results at turbine locations.&#10;&#10;Attributes:&#10; &#160;&#160;&#160;wind_speed (list[Result]): Final long&#45;term wind speed estimates at the turbine location(s) in metre per second.&#10; &#160;&#160;&#160;probability (Optional[list[Result]]): Final long&#45;term probability distribution estimates at the turbine location(s), such as wind speed probability distributions or joint wind speed and direction frequency distributions, as dimensionless values. Default is None.&#10; &#160;&#160;&#160;turbulence_intensity (Optional[list[Result]]): Final long&#45;term turbulence intensity estimates at the turbine location(s) as dimensionless values. Default is None.&#10; &#160;&#160;&#160;wind_shear_exponent (Optional[list[Result]]): Final long&#45;term power law wind shear exponent estimates at the turbine location(s). Default is None.&#10; &#160;&#160;&#160;temperature (Optional[list[Result]]): Final long&#45;term temperature estimates at the turbine location(s) in degree C. Default is None.&#10; &#160;&#160;&#160;air_density (Optional[list[Result]]): Final long&#45;term air density estimates at the turbine location(s) in kilogram per cubic metre. Default is None.&#10;">
<polygon fill="none" stroke="black" points="2183.5,-324.5 2183.5,-345.5 2436.5,-345.5 2436.5,-324.5 2183.5,-324.5"/>
<text text-anchor="start" x="2217.5" y="-332.3" font-family="Times New Roman,serif" font-weight="bold" font-size="14.00">TurbineWindResourceResults</text>
<polygon fill="none" stroke="black" points="2183.5,-303.5 2183.5,-324.5 2312.5,-324.5 2312.5,-303.5 2183.5,-303.5"/>
<text text-anchor="start" x="2214" y="-310.3" font-family="Times New Roman,serif" font-size="14.00">wind_speed</text>
<polygon fill="none" stroke="black" points="2312.5,-303.5 2312.5,-324.5 2436.5,-324.5 2436.5,-303.5 2312.5,-303.5"/>
<text text-anchor="start" x="2344" y="-310.3" font-family="Times New Roman,serif" font-size="14.00">list[Result]</text>
<polygon fill="none" stroke="black" points="2183.5,-282.5 2183.5,-303.5 2312.5,-303.5 2312.5,-282.5 2183.5,-282.5"/>
<text text-anchor="start" x="2217.5" y="-289.3" font-family="Times New Roman,serif" font-size="14.00">probability</text>
<polygon fill="none" stroke="black" points="2312.5,-282.5 2312.5,-303.5 2436.5,-303.5 2436.5,-282.5 2312.5,-282.5"/>
<text text-anchor="start" x="2315.5" y="-289.3" font-family="Times New Roman,serif" font-size="14.00">Optional[list[Result]]</text>
<polygon fill="none" stroke="black" points="2183.5,-261.5 2183.5,-282.5 2312.5,-282.5 2312.5,-261.5 2183.5,-261.5"/>
<text text-anchor="start" x="2192" y="-268.3" font-family="Times New Roman,serif" font-size="14.00">turbulence_intensity</text>
<polygon fill="none" stroke="black" points="2312.5,-261.5 2312.5,-282.5 2436.5,-282.5 2436.5,-261.5 2312.5,-261.5"/>
<text text-anchor="start" x="2315.5" y="-268.3" font-family="Times New Roman,serif" font-size="14.00">Optional[list[Result]]</text>
<polygon fill="none" stroke="black" points="2183.5,-240.5 2183.5,-261.5 2312.5,-261.5 2312.5,-240.5 2183.5,-240.5"/>
<text text-anchor="start" x="2186.5" y="-247.3" font-family="Times New Roman,serif" font-size="14.00">wind_shear_exponent</text>
<polygon fill="none" stroke="black" points="2312.5,-240.5 2312.5,-261.5 2436.5,-261.5 2436.5,-240.5 2312.5,-240.5"/>
<text text-anchor="start" x="2315.5" y="-247.3" font-family="Times New Roman,serif" font-size="14.00">Optional[list[Result]]</text>
<polygon fill="none" stroke="black" points="2183.5,-219.5 2183.5,-240.5 2312.5,-240.5 2312.5,-219.5 2183.5,-219.5"/>
<text text-anchor="start" x="2215" y="-226.3" font-family="Times New Roman,serif" font-size="14.00">temperature</text>
<polygon fill="none" stroke="black" points="2312.5,-219.5 2312.5,-240.5 2436.5,-240.5 2436.5,-219.5 2312.5,-219.5"/>
<text text-anchor="start" x="2315.5" y="-226.3" font-family="Times New Roman,serif" font-size="14.00">Optional[list[Result]]</text>
<polygon fill="none" stroke="black" points="2183.5,-198.5 2183.5,-219.5 2312.5,-219.5 2312.5,-198.5 2183.5,-198.5"/>
<text text-anchor="start" x="2217.5" y="-205.3" font-family="Times New Roman,serif" font-size="14.00">air_density</text>
<polygon fill="none" stroke="black" points="2312.5,-198.5 2312.5,-219.5 2436.5,-219.5 2436.5,-198.5 2312.5,-198.5"/>
<text text-anchor="start" x="2315.5" y="-205.3" font-family="Times New Roman,serif" font-size="14.00">Optional[list[Result]]</text>
</a>
</g>
</g>
<!-- eya_def_tools.data_models.wind_resource.TurbineWindResourceAssessment&#45;&gt;eya_def_tools.data_models.wind_resource.TurbineWindResourceResults -->
<g id="edge3" class="edge">
<title>eya_def_tools.data_models.wind_resource.TurbineWindResourceAssessment:e&#45;&gt;eya_def_tools.data_models.wind_resource.TurbineWindResourceResults:w</title>
<path fill="none" stroke="black" d="M444,-368.5C718.22,-368.5 786.78,-368.5 1061,-368.5 1061,-368.5 1061,-368.5 1516.5,-368.5 1807.94,-368.5 1883.64,-336.59 2167.92,-335.53"/>
<polyline fill="none" stroke="black" points="2182.5,-335.5 2177.5,-335.51"/>
<polygon fill="black" stroke="black" points="2176.49,-330.51 2176.51,-340.51 2174.51,-340.51 2174.49,-330.51 2176.49,-330.51"/>
<polyline fill="none" stroke="black" points="2177.5,-335.51 2172.5,-335.52"/>
<polygon fill="black" stroke="black" points="2171.49,-330.52 2171.51,-340.52 2169.51,-340.52 2169.49,-330.52 2171.49,-330.52"/>
<polyline fill="none" stroke="black" points="2172.5,-335.52 2167.5,-335.53"/>
</g>
<!-- eya_def_tools.data_models.wind_uncertainty.WindUncertaintyAssessment -->
<g id="node6" class="node">
<title>eya_def_tools.data_models.wind_uncertainty.WindUncertaintyAssessment</title>
<g id="a_node6"><a xlink:title="eya_def_tools.data_models.wind_uncertainty.WindUncertaintyAssessment&#10;&#10;Wind related uncertainty assessment broken into categories.&#10;&#10;Attributes:&#10; &#160;&#160;&#160;categories (list[WindUncertaintyCategory]): Wind related uncertainty assessment categories including results.&#10; &#160;&#160;&#160;results (UncertaintyResults): Overall wind related uncertainty assessment results.&#10;">
<polygon fill="none" stroke="black" points="552,-243.5 552,-264.5 792,-264.5 792,-243.5 552,-243.5"/>
<text text-anchor="start" x="584.5" y="-251.3" font-family="Times New Roman,serif" font-weight="bold" font-size="14.00">WindUncertaintyAssessment</text>
<polygon fill="none" stroke="black" points="552,-222.5 552,-243.5 615,-243.5 615,-222.5 552,-222.5"/>
<text text-anchor="start" x="555" y="-229.3" font-family="Times New Roman,serif" font-size="14.00">categories</text>
<polygon fill="none" stroke="black" points="615,-222.5 615,-243.5 792,-243.5 792,-222.5 615,-222.5"/>
<text text-anchor="start" x="618" y="-229.3" font-family="Times New Roman,serif" font-size="14.00">list[WindUncertaintyCategory]</text>
<polygon fill="none" stroke="black" points="552,-201.5 552,-222.5 615,-222.5 615,-201.5 552,-201.5"/>
<text text-anchor="start" x="565" y="-208.3" font-family="Times New Roman,serif" font-size="14.00">results</text>
<polygon fill="none" stroke="black" points="615,-201.5 615,-222.5 792,-222.5 792,-201.5 615,-201.5"/>
<text text-anchor="start" x="650.5" y="-208.3" font-family="Times New Roman,serif" font-size="14.00">UncertaintyResults</text>
</a>
</g>
</g>
<!-- eya_def_tools.data_models.wind_resource.TurbineWindResourceAssessment&#45;&gt;eya_def_tools.data_models.wind_uncertainty.WindUncertaintyAssessment -->
<g id="edge4" class="edge">
<title>eya_def_tools.data_models.wind_resource.TurbineWindResourceAssessment:e&#45;&gt;eya_def_tools.data_models.wind_uncertainty.WindUncertaintyAssessment:w</title>
<path fill="none" stroke="black" d="M444,-347.5C501.9,-347.5 491.26,-269.8 537.38,-256.44"/>
<polyline fill="none" stroke="black" points="552,-254.5 547.04,-255.16"/>
<polygon fill="black" stroke="black" points="545.39,-250.33 546.71,-260.25 544.73,-260.51 543.41,-250.6 545.39,-250.33"/>
<polyline fill="none" stroke="black" points="547.04,-255.16 542.09,-255.82"/>
<polygon fill="black" stroke="black" points="540.44,-250.99 541.75,-260.91 539.77,-261.17 538.45,-251.26 540.44,-250.99"/>
<polyline fill="none" stroke="black" points="542.09,-255.82 537.13,-256.48"/>
</g>
<!-- eya_def_tools.data_models.wind_resource.TurbineWindResourceResults&#45;&gt;eya_def_tools.data_models.result.Result -->
<g id="edge5" class="edge">
<title>eya_def_tools.data_models.wind_resource.TurbineWindResourceResults:e&#45;&gt;eya_def_tools.data_models.result.Result:w</title>
<path fill="none" stroke="black" d="M2437.5,-314.5C2499.83,-314.5 2504.46,-253.7 2555.29,-241.58"/>
<polygon fill="black" stroke="black" points="2564.06,-240.61 2574.5,-243.97 2569.03,-240.05 2574,-239.5 2574,-239.5 2574,-239.5 2569.03,-240.05 2573.5,-235.03 2564.06,-240.61 2564.06,-240.61"/>
<ellipse fill="none" stroke="black" cx="2559.59" cy="-241.11" rx="4" ry="4"/>
</g>
<!-- eya_def_tools.data_models.wind_resource.TurbineWindResourceResults&#45;&gt;eya_def_tools.data_models.result.Result -->
<g id="edge6" class="edge">
<title>eya_def_tools.data_models.wind_resource.TurbineWindResourceResults:e&#45;&gt;eya_def_tools.data_models.result.Result:w</title>
<path fill="none" stroke="black" d="M2437.5,-293.5C2495.86,-293.5 2506.83,-250.29 2555.19,-241.18"/>
<polyline fill="none" stroke="black" points="2574,-239.5 2569.02,-239.94"/>
<polygon fill="black" stroke="black" points="2567.58,-235.05 2568.47,-245.01 2566.48,-245.19 2565.59,-235.23 2567.58,-235.05"/>
<polyline fill="none" stroke="black" points="2569.02,-239.94 2564.04,-240.39"/>
<ellipse fill="none" stroke="black" cx="2559.56" cy="-240.79" rx="4" ry="4"/>
</g>
<!-- eya_def_tools.data_models.wind_resource.TurbineWindResourceResults&#45;&gt;eya_def_tools.data_models.result.Result -->
<g id="edge7" class="edge">
<title>eya_def_tools.data_models.wind_resource.TurbineWindResourceResults:e&#45;&gt;eya_def_tools.data_models.result.Result:w</title>
<path fill="none" stroke="black" d="M2437.5,-271.5C2493,-271.5 2508.49,-246.12 2555.23,-240.56"/>
<polyline fill="none" stroke="black" points="2574,-239.5 2569.01,-239.78"/>
<polygon fill="black" stroke="black" points="2567.73,-234.85 2568.29,-244.83 2566.3,-244.95 2565.73,-234.96 2567.73,-234.85"/>
<polyline fill="none" stroke="black" points="2569.01,-239.78 2564.02,-240.07"/>
<ellipse fill="none" stroke="black" cx="2559.52" cy="-240.32" rx="4" ry="4"/>
</g>
<!-- eya_def_tools.data_models.wind_resource.TurbineWindResourceResults&#45;&gt;eya_def_tools.data_models.result.Result -->
<g id="edge8" class="edge">
<title>eya_def_tools.data_models.wind_resource.TurbineWindResourceResults:e&#45;&gt;eya_def_tools.data_models.result.Result:w</title>
<path fill="none" stroke="black" d="M2437.5,-250.5C2491.59,-250.5 2509.28,-241.81 2555.26,-239.88"/>
<polyline fill="none" stroke="black" points="2574,-239.5 2569,-239.6"/>
<polygon fill="black" stroke="black" points="2567.9,-234.62 2568.1,-244.62 2566.1,-244.66 2565.9,-234.66 2567.9,-234.62"/>
<polyline fill="none" stroke="black" points="2569,-239.6 2564,-239.7"/>
<ellipse fill="none" stroke="black" cx="2559.5" cy="-239.79" rx="4" ry="4"/>
</g>
<!-- eya_def_tools.data_models.wind_resource.TurbineWindResourceResults&#45;&gt;eya_def_tools.data_models.result.Result -->
<g id="edge9" class="edge">
<title>eya_def_tools.data_models.wind_resource.TurbineWindResourceResults:e&#45;&gt;eya_def_tools.data_models.result.Result:w</title>
<path fill="none" stroke="black" d="M2437.5,-229.5C2491.56,-229.5 2509.3,-237.4 2555.27,-239.16"/>
<polyline fill="none" stroke="black" points="2574,-239.5 2569,-239.41"/>
<polygon fill="black" stroke="black" points="2568.09,-234.39 2567.91,-244.39 2565.91,-244.35 2566.09,-234.35 2568.09,-234.39"/>
<polyline fill="none" stroke="black" points="2569,-239.41 2564,-239.32"/>
<ellipse fill="none" stroke="black" cx="2559.5" cy="-239.23" rx="4" ry="4"/>
</g>
<!-- eya_def_tools.data_models.wind_resource.TurbineWindResourceResults&#45;&gt;eya_def_tools.data_models.result.Result -->
<g id="edge10" class="edge">
<title>eya_def_tools.data_models.wind_resource.TurbineWindResourceResults:e&#45;&gt;eya_def_tools.data_models.result.Result:w</title>
<path fill="none" stroke="black" d="M2437.5,-208.5C2492.91,-208.5 2508.55,-233.09 2555.25,-238.47"/>
<polyline fill="none" stroke="black" points="2574,-239.5 2569.01,-239.23"/>
<polygon fill="black" stroke="black" points="2568.28,-234.18 2567.73,-244.16 2565.74,-244.05 2566.29,-234.07 2568.28,-234.18"/>
<polyline fill="none" stroke="black" points="2569.01,-239.23 2564.02,-238.95"/>
<ellipse fill="none" stroke="black" cx="2559.52" cy="-238.7" rx="4" ry="4"/>
</g>
<!-- eya_def_tools.data_models.wind_uncertainty.UncertaintyResults -->
<g id="node7" class="node">
<title>eya_def_tools.data_models.wind_uncertainty.UncertaintyResults</title>
<g id="a_node7"><a xlink:title="eya_def_tools.data_models.wind_uncertainty.UncertaintyResults&#10;&#10;Uncertainty assessment results.&#10;&#10;Attributes:&#10; &#160;&#160;&#160;relative_wind_speed_uncertainty (Optional[list[Result]]): Uncertainty assessment results as dimensionless relative values expressed in terms of wind speed and calculated as the standard deviation of the wind speed uncertainty distribution divided by the mean wind speed. Default is None.&#10; &#160;&#160;&#160;relative_energy_uncertainty (Optional[list[Result]]): Uncertainty assessment results as dimensionless relative values expressed in terms of AEP (annual energy production) and calculated as the standard deviation of the energy uncertainty distribution divided by the net P50 (50% probability of exceedance level) AEP. Default is None.&#10;">
<polygon fill="none" stroke="black" points="2153.5,-141.5 2153.5,-162.5 2466.5,-162.5 2466.5,-141.5 2153.5,-141.5"/>
<text text-anchor="start" x="2251.5" y="-149.3" font-family="Times New Roman,serif" font-weight="bold" font-size="14.00">UncertaintyResults</text>
<polygon fill="none" stroke="black" points="2153.5,-120.5 2153.5,-141.5 2342.5,-141.5 2342.5,-120.5 2153.5,-120.5"/>
<text text-anchor="start" x="2156.5" y="-127.3" font-family="Times New Roman,serif" font-size="14.00">relative_wind_speed_uncertainty</text>
<polygon fill="none" stroke="black" points="2342.5,-120.5 2342.5,-141.5 2466.5,-141.5 2466.5,-120.5 2342.5,-120.5"/>
<text text-anchor="start" x="2345.5" y="-127.3" font-family="Times New Roman,serif" font-size="14.00">Optional[list[Result]]</text>
<polygon fill="none" stroke="black" points="2153.5,-99.5 2153.5,-120.5 2342.5,-120.5 2342.5,-99.5 2153.5,-99.5"/>
<text text-anchor="start" x="2172" y="-106.3" font-family="Times New Roman,serif" font-size="14.00">relative_energy_uncertainty</text>
<polygon fill="none" stroke="black" points="2342.5,-99.5 2342.5,-120.5 2466.5,-120.5 2466.5,-99.5 2342.5,-99.5"/>
<text text-anchor="start" x="2345.5" y="-106.3" font-family="Times New Roman,serif" font-size="14.00">Optional[list[Result]]</text>
</a>
</g>
</g>
<!-- eya_def_tools.data_models.wind_uncertainty.WindUncertaintyAssessment&#45;&gt;eya_def_tools.data_models.wind_uncertainty.UncertaintyResults -->
<g id="edge13" class="edge">
<title>eya_def_tools.data_models.wind_uncertainty.WindUncertaintyAssessment:e&#45;&gt;eya_def_tools.data_models.wind_uncertainty.UncertaintyResults:w</title>
<path fill="none" stroke="black" d="M792,-211.5C861.47,-211.5 836.12,-125.81 900,-98.5 1032.41,-41.89 1080.01,-96.66 1224,-98.5 1588.98,-103.17 1684.72,-60.97 2045,-119.5 2089.32,-126.7 2100.61,-147.42 2138.42,-151.72"/>
<polyline fill="none" stroke="black" points="2153,-152.5 2148.01,-152.23"/>
<polygon fill="black" stroke="black" points="2147.28,-147.19 2146.74,-157.17 2144.74,-157.06 2145.28,-147.08 2147.28,-147.19"/>
<polyline fill="none" stroke="black" points="2148.01,-152.23 2143.01,-151.96"/>
<polygon fill="black" stroke="black" points="2142.28,-146.92 2141.75,-156.9 2139.75,-156.8 2140.29,-146.81 2142.28,-146.92"/>
<polyline fill="none" stroke="black" points="2143.01,-151.96 2138.02,-151.69"/>
</g>
<!-- eya_def_tools.data_models.wind_uncertainty.WindUncertaintyCategory -->
<g id="node8" class="node">
<title>eya_def_tools.data_models.wind_uncertainty.WindUncertaintyCategory</title>
<g id="a_node8"><a xlink:title="eya_def_tools.data_models.wind_uncertainty.WindUncertaintyCategory&#10;&#10;Category of a wind related uncertainty assessment.&#10;&#10;Attributes:&#10; &#160;&#160;&#160;label (WindUncertaintyCategoryLabel(StrEnum)): Label of the wind related uncertainty assessment category.&#10; &#160;&#160;&#160;description (Optional[str]): Optional description of the wind related uncertainty category. Default is None.&#10; &#160;&#160;&#160;comments (Optional[str]): Optional comments on the wind related uncertainty category. Default is None.&#10; &#160;&#160;&#160;subcategories (list[WindUncertaintySubcategory]): Wind related uncertainty assessment subcategories that fall under the category. The subcategory objects include details and results at the subcategory level.&#10; &#160;&#160;&#160;results (UncertaintyResults): Wind related uncertainty assessment category results.&#10;">
<polygon fill="none" stroke="black" points="900,-221.5 900,-242.5 1224,-242.5 1224,-221.5 900,-221.5"/>
<text text-anchor="start" x="981" y="-229.3" font-family="Times New Roman,serif" font-weight="bold" font-size="14.00">WindUncertaintyCategory</text>
<polygon fill="none" stroke="black" points="900,-200.5 900,-221.5 983,-221.5 983,-200.5 900,-200.5"/>
<text text-anchor="start" x="928.5" y="-207.3" font-family="Times New Roman,serif" font-size="14.00">label</text>
<polygon fill="none" stroke="black" points="983,-200.5 983,-221.5 1224,-221.5 1224,-200.5 983,-200.5"/>
<text text-anchor="start" x="986" y="-207.3" font-family="Times New Roman,serif" font-size="14.00">WindUncertaintyCategoryLabel(StrEnum)</text>
<polygon fill="none" stroke="black" points="900,-179.5 900,-200.5 983,-200.5 983,-179.5 900,-179.5"/>
<text text-anchor="start" x="910" y="-186.3" font-family="Times New Roman,serif" font-size="14.00">description</text>
<polygon fill="none" stroke="black" points="983,-179.5 983,-200.5 1224,-200.5 1224,-179.5 983,-179.5"/>
<text text-anchor="start" x="1067.5" y="-186.3" font-family="Times New Roman,serif" font-size="14.00">Optional[str]</text>
<polygon fill="none" stroke="black" points="900,-158.5 900,-179.5 983,-179.5 983,-158.5 900,-158.5"/>
<text text-anchor="start" x="912.5" y="-165.3" font-family="Times New Roman,serif" font-size="14.00">comments</text>
<polygon fill="none" stroke="black" points="983,-158.5 983,-179.5 1224,-179.5 1224,-158.5 983,-158.5"/>
<text text-anchor="start" x="1067.5" y="-165.3" font-family="Times New Roman,serif" font-size="14.00">Optional[str]</text>
<polygon fill="none" stroke="black" points="900,-137.5 900,-158.5 983,-158.5 983,-137.5 900,-137.5"/>
<text text-anchor="start" x="903" y="-144.3" font-family="Times New Roman,serif" font-size="14.00">subcategories</text>
<polygon fill="none" stroke="black" points="983,-137.5 983,-158.5 1224,-158.5 1224,-137.5 983,-137.5"/>
<text text-anchor="start" x="1008.5" y="-144.3" font-family="Times New Roman,serif" font-size="14.00">list[WindUncertaintySubcategory]</text>
<polygon fill="none" stroke="black" points="900,-116.5 900,-137.5 983,-137.5 983,-116.5 900,-116.5"/>
<text text-anchor="start" x="923" y="-123.3" font-family="Times New Roman,serif" font-size="14.00">results</text>
<polygon fill="none" stroke="black" points="983,-116.5 983,-137.5 1224,-137.5 1224,-116.5 983,-116.5"/>
<text text-anchor="start" x="1050.5" y="-123.3" font-family="Times New Roman,serif" font-size="14.00">UncertaintyResults</text>
</a>
</g>
</g>
<!-- eya_def_tools.data_models.wind_uncertainty.WindUncertaintyAssessment&#45;&gt;eya_def_tools.data_models.wind_uncertainty.WindUncertaintyCategory -->
<g id="edge14" class="edge">
<title>eya_def_tools.data_models.wind_uncertainty.WindUncertaintyAssessment:e&#45;&gt;eya_def_tools.data_models.wind_uncertainty.WindUncertaintyCategory:w</title>
<path fill="none" stroke="black" d="M792,-232.5C833.06,-232.5 847.78,-232.5 881.23,-232.5"/>
<polygon fill="black" stroke="black" points="890,-232.5 900,-237 895,-232.5 900,-232.5 900,-232.5 900,-232.5 895,-232.5 900,-228 890,-232.5 890,-232.5"/>
<ellipse fill="none" stroke="black" cx="885.5" cy="-232.5" rx="4" ry="4"/>
</g>
<!-- eya_def_tools.data_models.wind_uncertainty.UncertaintyResults&#45;&gt;eya_def_tools.data_models.result.Result -->
<g id="edge11" class="edge">
<title>eya_def_tools.data_models.wind_uncertainty.UncertaintyResults:e&#45;&gt;eya_def_tools.data_models.result.Result:w</title>
<path fill="none" stroke="black" d="M2466,-130.5C2527,-130.5 2510.72,-217.72 2555.42,-236.12"/>
<polyline fill="none" stroke="black" points="2574,-239.5 2569.08,-238.6"/>
<polygon fill="black" stroke="black" points="2568.99,-233.51 2567.2,-243.34 2565.23,-242.99 2567.02,-233.15 2568.99,-233.51"/>
<polyline fill="none" stroke="black" points="2569.08,-238.6 2564.16,-237.71"/>
<ellipse fill="none" stroke="black" cx="2559.73" cy="-236.9" rx="4" ry="4"/>
</g>
<!-- eya_def_tools.data_models.wind_uncertainty.UncertaintyResults&#45;&gt;eya_def_tools.data_models.result.Result -->
<g id="edge12" class="edge">
<title>eya_def_tools.data_models.wind_uncertainty.UncertaintyResults:e&#45;&gt;eya_def_tools.data_models.result.Result:w</title>
<path fill="none" stroke="black" d="M2466,-109.5C2533.93,-109.5 2505.89,-215.81 2555.45,-236.16"/>
<polyline fill="none" stroke="black" points="2574,-239.5 2569.08,-238.61"/>
<polygon fill="black" stroke="black" points="2568.98,-233.51 2567.21,-243.36 2565.24,-243 2567.01,-233.16 2568.98,-233.51"/>
<polyline fill="none" stroke="black" points="2569.08,-238.61 2564.16,-237.73"/>
<ellipse fill="none" stroke="black" cx="2559.73" cy="-236.93" rx="4" ry="4"/>
</g>
<!-- eya_def_tools.data_models.wind_uncertainty.WindUncertaintyCategory&#45;&gt;eya_def_tools.data_models.wind_uncertainty.UncertaintyResults -->
<g id="edge15" class="edge">
<title>eya_def_tools.data_models.wind_uncertainty.WindUncertaintyCategory:e&#45;&gt;eya_def_tools.data_models.wind_uncertainty.UncertaintyResults:w</title>
<path fill="none" stroke="black" d="M1224,-126.5C1272.01,-126.5 1283.99,-124.94 1332,-124.5 1495.1,-122.99 1535.95,-120.03 1699,-124.5 1852.95,-128.72 1891.36,-132.88 2045,-143.5 2087.8,-146.46 2101.82,-151.29 2138.41,-152.31"/>
<polyline fill="none" stroke="black" points="2153,-152.5 2148,-152.43"/>
<polygon fill="black" stroke="black" points="2147.07,-147.42 2146.93,-157.42 2144.93,-157.39 2145.07,-147.39 2147.07,-147.42"/>
<polyline fill="none" stroke="black" points="2148,-152.43 2143,-152.37"/>
<polygon fill="black" stroke="black" points="2142.07,-147.35 2141.93,-157.35 2139.93,-157.33 2140.07,-147.33 2142.07,-147.35"/>
<polyline fill="none" stroke="black" points="2143,-152.37 2138,-152.3"/>
</g>
<!-- eya_def_tools.data_models.wind_uncertainty.WindUncertaintySubcategory -->
<g id="node9" class="node">
<title>eya_def_tools.data_models.wind_uncertainty.WindUncertaintySubcategory</title>
<g id="a_node9"><a xlink:title="eya_def_tools.data_models.wind_uncertainty.WindUncertaintySubcategory&#10;&#10;Subcategory of a wind related uncertainty assessment.&#10;&#10;Attributes:&#10; &#160;&#160;&#160;label (WindUncertaintySubcategoryLabel(StrEnum)): Label of the wind related uncertainty subcategory.&#10; &#160;&#160;&#160;description (Optional[str]): Optional description of the wind related uncertainty subcategory. Default is None.&#10; &#160;&#160;&#160;comments (Optional[str]): Optional comments on the wind related uncertainty subcategory. Default is None.&#10; &#160;&#160;&#160;elements (Optional[list[WindUncertaintySubcategoryElement]]): Wind related uncertainty assessment elements that fall under the subcategory. The element objects include details and results at the element level. A breakdown of wind related uncertainty subcategories into elements is optional and can be included only for a subset of the subcategories, as relevant. Whereas the categories and subcategories are fixed, the user may freely define element labels. Default is None.&#10; &#160;&#160;&#160;results (UncertaintyResults): Wind related uncertainty assessment subcategory results.&#10;">
<polygon fill="none" stroke="black" points="1332.5,-247.5 1332.5,-268.5 1699.5,-268.5 1699.5,-247.5 1332.5,-247.5"/>
<text text-anchor="start" x="1425.5" y="-255.3" font-family="Times New Roman,serif" font-weight="bold" font-size="14.00">WindUncertaintySubcategory</text>
<polygon fill="none" stroke="black" points="1332.5,-226.5 1332.5,-247.5 1401.5,-247.5 1401.5,-226.5 1332.5,-226.5"/>
<text text-anchor="start" x="1354" y="-233.3" font-family="Times New Roman,serif" font-size="14.00">label</text>
<polygon fill="none" stroke="black" points="1401.5,-226.5 1401.5,-247.5 1699.5,-247.5 1699.5,-226.5 1401.5,-226.5"/>
<text text-anchor="start" x="1423.5" y="-233.3" font-family="Times New Roman,serif" font-size="14.00">WindUncertaintySubcategoryLabel(StrEnum)</text>
<polygon fill="none" stroke="black" points="1332.5,-205.5 1332.5,-226.5 1401.5,-226.5 1401.5,-205.5 1332.5,-205.5"/>
<text text-anchor="start" x="1335.5" y="-212.3" font-family="Times New Roman,serif" font-size="14.00">description</text>
<polygon fill="none" stroke="black" points="1401.5,-205.5 1401.5,-226.5 1699.5,-226.5 1699.5,-205.5 1401.5,-205.5"/>
<text text-anchor="start" x="1514.5" y="-212.3" font-family="Times New Roman,serif" font-size="14.00">Optional[str]</text>
<polygon fill="none" stroke="black" points="1332.5,-184.5 1332.5,-205.5 1401.5,-205.5 1401.5,-184.5 1332.5,-184.5"/>
<text text-anchor="start" x="1338" y="-191.3" font-family="Times New Roman,serif" font-size="14.00">comments</text>
<polygon fill="none" stroke="black" points="1401.5,-184.5 1401.5,-205.5 1699.5,-205.5 1699.5,-184.5 1401.5,-184.5"/>
<text text-anchor="start" x="1514.5" y="-191.3" font-family="Times New Roman,serif" font-size="14.00">Optional[str]</text>
<polygon fill="none" stroke="black" points="1332.5,-163.5 1332.5,-184.5 1401.5,-184.5 1401.5,-163.5 1332.5,-163.5"/>
<text text-anchor="start" x="1342.5" y="-170.3" font-family="Times New Roman,serif" font-size="14.00">elements</text>
<polygon fill="none" stroke="black" points="1401.5,-163.5 1401.5,-184.5 1699.5,-184.5 1699.5,-163.5 1401.5,-163.5"/>
<text text-anchor="start" x="1404.5" y="-170.3" font-family="Times New Roman,serif" font-size="14.00">Optional[list[WindUncertaintySubcategoryElement]]</text>
<polygon fill="none" stroke="black" points="1332.5,-142.5 1332.5,-163.5 1401.5,-163.5 1401.5,-142.5 1332.5,-142.5"/>
<text text-anchor="start" x="1348.5" y="-149.3" font-family="Times New Roman,serif" font-size="14.00">results</text>
<polygon fill="none" stroke="black" points="1401.5,-142.5 1401.5,-163.5 1699.5,-163.5 1699.5,-142.5 1401.5,-142.5"/>
<text text-anchor="start" x="1497.5" y="-149.3" font-family="Times New Roman,serif" font-size="14.00">UncertaintyResults</text>
</a>
</g>
</g>
<!-- eya_def_tools.data_models.wind_uncertainty.WindUncertaintyCategory&#45;&gt;eya_def_tools.data_models.wind_uncertainty.WindUncertaintySubcategory -->
<g id="edge16" class="edge">
<title>eya_def_tools.data_models.wind_uncertainty.WindUncertaintyCategory:e&#45;&gt;eya_def_tools.data_models.wind_uncertainty.WindUncertaintySubcategory:w</title>
<path fill="none" stroke="black" d="M1224,-147.5C1285.71,-147.5 1268.25,-236.71 1313.57,-255.18"/>
<polygon fill="black" stroke="black" points="1322.16,-256.73 1331.2,-262.93 1327.08,-257.61 1332,-258.5 1332,-258.5 1332,-258.5 1327.08,-257.61 1332.8,-254.07 1322.16,-256.73 1322.16,-256.73"/>
<ellipse fill="none" stroke="black" cx="1317.73" cy="-255.93" rx="4" ry="4"/>
</g>
<!-- eya_def_tools.data_models.wind_uncertainty.WindUncertaintySubcategory&#45;&gt;eya_def_tools.data_models.wind_uncertainty.UncertaintyResults -->
<g id="edge17" class="edge">
<title>eya_def_tools.data_models.wind_uncertainty.WindUncertaintySubcategory:e&#45;&gt;eya_def_tools.data_models.wind_uncertainty.UncertaintyResults:w</title>
<path fill="none" stroke="black" d="M1699,-152.5C1895.75,-152.5 1948.62,-152.5 2138.2,-152.5"/>
<polyline fill="none" stroke="black" points="2153,-152.5 2148,-152.5"/>
<polygon fill="black" stroke="black" points="2147,-147.5 2147,-157.5 2145,-157.5 2145,-147.5 2147,-147.5"/>
<polyline fill="none" stroke="black" points="2148,-152.5 2143,-152.5"/>
<polygon fill="black" stroke="black" points="2142,-147.5 2142,-157.5 2140,-157.5 2140,-147.5 2142,-147.5"/>
<polyline fill="none" stroke="black" points="2143,-152.5 2138,-152.5"/>
</g>
<!-- eya_def_tools.data_models.wind_uncertainty.WindUncertaintySubcategoryElement -->
<g id="node10" class="node">
<title>eya_def_tools.data_models.wind_uncertainty.WindUncertaintySubcategoryElement</title>
<g id="a_node10"><a xlink:title="eya_def_tools.data_models.wind_uncertainty.WindUncertaintySubcategoryElement&#10;&#10;Subcategory element of a wind related uncertainty assessment.&#10;&#10;Attributes:&#10; &#160;&#160;&#160;label (str): Label of the wind related uncertainty subcategory element.&#10; &#160;&#160;&#160;description (Optional[str]): Optional description of the wind related uncertainty subcategory element. Default is None.&#10; &#160;&#160;&#160;comments (Optional[str]): Optional comments on the wind related uncertainty subcategory element. Default is None.&#10; &#160;&#160;&#160;results (UncertaintyResults): Wind related uncertainty assessment subcategory element results.&#10;">
<polygon fill="none" stroke="black" points="1807,-291.5 1807,-312.5 2045,-312.5 2045,-291.5 1807,-291.5"/>
<text text-anchor="start" x="1810" y="-299.3" font-family="Times New Roman,serif" font-weight="bold" font-size="14.00">WindUncertaintySubcategoryElement</text>
<polygon fill="none" stroke="black" points="1807,-270.5 1807,-291.5 1904,-291.5 1904,-270.5 1807,-270.5"/>
<text text-anchor="start" x="1842.5" y="-277.3" font-family="Times New Roman,serif" font-size="14.00">label</text>
<polygon fill="none" stroke="black" points="1904,-270.5 1904,-291.5 2045,-291.5 2045,-270.5 1904,-270.5"/>
<text text-anchor="start" x="1967" y="-277.3" font-family="Times New Roman,serif" font-size="14.00">str</text>
<polygon fill="none" stroke="black" points="1807,-249.5 1807,-270.5 1904,-270.5 1904,-249.5 1807,-249.5"/>
<text text-anchor="start" x="1824" y="-256.3" font-family="Times New Roman,serif" font-size="14.00">description</text>
<polygon fill="none" stroke="black" points="1904,-249.5 1904,-270.5 2045,-270.5 2045,-249.5 1904,-249.5"/>
<text text-anchor="start" x="1938.5" y="-256.3" font-family="Times New Roman,serif" font-size="14.00">Optional[str]</text>
<polygon fill="none" stroke="black" points="1807,-228.5 1807,-249.5 1904,-249.5 1904,-228.5 1807,-228.5"/>
<text text-anchor="start" x="1826.5" y="-235.3" font-family="Times New Roman,serif" font-size="14.00">comments</text>
<polygon fill="none" stroke="black" points="1904,-228.5 1904,-249.5 2045,-249.5 2045,-228.5 1904,-228.5"/>
<text text-anchor="start" x="1938.5" y="-235.3" font-family="Times New Roman,serif" font-size="14.00">Optional[str]</text>
<polygon fill="none" stroke="black" points="1807,-207.5 1807,-228.5 1904,-228.5 1904,-207.5 1807,-207.5"/>
<text text-anchor="start" x="1837" y="-214.3" font-family="Times New Roman,serif" font-size="14.00">results</text>
<polygon fill="none" stroke="black" points="1904,-207.5 1904,-228.5 2045,-228.5 2045,-207.5 1904,-207.5"/>
<text text-anchor="start" x="1921.5" y="-214.3" font-family="Times New Roman,serif" font-size="14.00">UncertaintyResults</text>
</a>
</g>
</g>
<!-- eya_def_tools.data_models.wind_uncertainty.WindUncertaintySubcategory&#45;&gt;eya_def_tools.data_models.wind_uncertainty.WindUncertaintySubcategoryElement -->
<g id="edge18" class="edge">
<title>eya_def_tools.data_models.wind_uncertainty.WindUncertaintySubcategory:e&#45;&gt;eya_def_tools.data_models.wind_uncertainty.WindUncertaintySubcategoryElement:w</title>
<path fill="none" stroke="black" d="M1699,-173.5C1766.62,-173.5 1739.11,-278.99 1788.52,-299.18"/>
<polyline fill="none" stroke="black" points="1807,-302.5 1802.08,-301.62"/>
<polygon fill="black" stroke="black" points="1801.98,-296.52 1800.21,-306.36 1798.24,-306.01 1800.01,-296.16 1801.98,-296.52"/>
<polyline fill="none" stroke="black" points="1802.08,-301.62 1797.16,-300.73"/>
<ellipse fill="none" stroke="black" cx="1792.73" cy="-299.94" rx="4" ry="4"/>
</g>
<!-- eya_def_tools.data_models.wind_uncertainty.WindUncertaintySubcategoryElement&#45;&gt;eya_def_tools.data_models.wind_uncertainty.UncertaintyResults -->
<g id="edge19" class="edge">
<title>eya_def_tools.data_models.wind_uncertainty.WindUncertaintySubcategoryElement:e&#45;&gt;eya_def_tools.data_models.wind_uncertainty.UncertaintyResults:w</title>
<path fill="none" stroke="black" d="M2045,-217.5C2095.55,-217.5 2097.19,-164.58 2138.19,-154.24"/>
<polyline fill="none" stroke="black" points="2153,-152.5 2148.03,-153.08"/>
<polygon fill="black" stroke="black" points="2146.46,-148.23 2147.62,-158.17 2145.64,-158.4 2144.47,-148.47 2146.46,-148.23"/>
<polyline fill="none" stroke="black" points="2148.03,-153.08 2143.07,-153.67"/>
<polygon fill="black" stroke="black" points="2141.49,-148.82 2142.66,-158.75 2140.67,-158.98 2139.51,-149.05 2141.49,-148.82"/>
<polyline fill="none" stroke="black" points="2143.07,-153.67 2138.1,-154.25"/>
</g>
</g>
</svg>
