<?xml version="1.0" encoding="UTF-8" standalone="no"?>
<!DOCTYPE svg PUBLIC "-//W3C//DTD SVG 1.1//EN"
 "http://www.w3.org/Graphics/SVG/1.1/DTD/svg11.dtd">
<!-- Generated by graphviz version 11.0.0 (20240428.1522)
 -->
<!-- Title: Entity Relationship Diagram created by erdantic Pages: 1 -->
<svg width="2381pt" height="467pt"
 viewBox="0.00 0.00 2381.00 467.25" xmlns="http://www.w3.org/2000/svg" xmlns:xlink="http://www.w3.org/1999/xlink">
<g id="graph0" class="graph" transform="scale(1 1) rotate(0) translate(4 463.25)">
<title>Entity Relationship Diagram created by erdantic</title>
<polygon fill="white" stroke="none" points="-4,4 -4,-463.25 2377,-463.25 2377,4 -4,4"/>
<text text-anchor="middle" x="1186.5" y="-6.7" font-family="Times New Roman,Times,Liberation Serif,serif" font-size="9.00" fill="#a8a8a8">Created by erdantic v1.0.3 &lt;https://github.com/drivendataorg/erdantic&gt;</text>
<!-- eya_def_tools.data_models.dataset.Dataset -->
<g id="node1" class="node">
<title>eya_def_tools.data_models.dataset.Dataset</title>
<g id="a_node1"><a xlink:title="eya_def_tools.data_models.dataset.Dataset&#10;&#10;Collection of labelled data for one specific quantity.&#10;&#10;The data is labelled by specifying dimensions and including&#10;coordinates along the dimensions for each data value.&#10;&#10;Fields:&#10; &#160;&#160;&#160;label: Optional label of the dataset, which should not be empty if the field is included. Default is None.&#10; &#160;&#160;&#160;description: Optional description of the dataset, which should not be empty if the field is included. Default is None.&#10; &#160;&#160;&#160;comments: Optional comments on the dataset, which should not be empty if the field is included. Default is None.&#10; &#160;&#160;&#160;assessment_period: Optional period of or in time that has been assessed and for which the dataset is applicable. This field is to be included only when relevant. Default is None.&#10; &#160;&#160;&#160;dimensions: Dimensions along which the dataset is binned. All statistics within the same dataset object must have the same dimensions. The dimensions must correspond to and be listed in the same order as the coordinates for the values of all statistics. A dataset without dimensions can only have a single value for each statistic. Default is None.&#10; &#160;&#160;&#160;statistics: List of dataset statistic objects that each include data values for a specific statistic type. For example, there may be two statistics, one for mean values and one for standard deviation values.&#10;">
<polygon fill="none" stroke="black" points="1126,-229.75 1126,-251.75 1492,-251.75 1492,-229.75 1126,-229.75"/>
<text text-anchor="start" x="1285.38" y="-236.45" font-family="Times New Roman,Times,Liberation Serif,serif" font-weight="bold" font-size="14.00">Dataset</text>
<polygon fill="none" stroke="black" points="1126,-208.75 1126,-229.75 1238,-229.75 1238,-208.75 1126,-208.75"/>
<text text-anchor="start" x="1169.25" y="-213.45" font-family="Times New Roman,Times,Liberation Serif,serif" font-size="14.00">label</text>
<polygon fill="none" stroke="black" points="1238,-208.75 1238,-229.75 1426,-229.75 1426,-208.75 1238,-208.75"/>
<text text-anchor="start" x="1296.38" y="-213.45" font-family="Times New Roman,Times,Liberation Serif,serif" font-size="14.00">Optional[str]</text>
<polygon fill="none" stroke="black" points="1426,-208.75 1426,-229.75 1492,-229.75 1492,-208.75 1426,-208.75"/>
<text text-anchor="start" x="1429" y="-213.45" font-family="Times New Roman,Times,Liberation Serif,serif" font-size="14.00">string | null</text>
<polygon fill="none" stroke="black" points="1126,-187.75 1126,-208.75 1238,-208.75 1238,-187.75 1126,-187.75"/>
<text text-anchor="start" x="1150.88" y="-192.45" font-family="Times New Roman,Times,Liberation Serif,serif" font-size="14.00">description</text>
<polygon fill="none" stroke="black" points="1238,-187.75 1238,-208.75 1426,-208.75 1426,-187.75 1238,-187.75"/>
<text text-anchor="start" x="1296.38" y="-192.45" font-family="Times New Roman,Times,Liberation Serif,serif" font-size="14.00">Optional[str]</text>
<polygon fill="none" stroke="black" points="1426,-187.75 1426,-208.75 1492,-208.75 1492,-187.75 1426,-187.75"/>
<text text-anchor="start" x="1429" y="-192.45" font-family="Times New Roman,Times,Liberation Serif,serif" font-size="14.00">string | null</text>
<polygon fill="none" stroke="black" points="1126,-166.75 1126,-187.75 1238,-187.75 1238,-166.75 1126,-166.75"/>
<text text-anchor="start" x="1153.12" y="-171.45" font-family="Times New Roman,Times,Liberation Serif,serif" font-size="14.00">comments</text>
<polygon fill="none" stroke="black" points="1238,-166.75 1238,-187.75 1426,-187.75 1426,-166.75 1238,-166.75"/>
<text text-anchor="start" x="1296.38" y="-171.45" font-family="Times New Roman,Times,Liberation Serif,serif" font-size="14.00">Optional[str]</text>
<polygon fill="none" stroke="black" points="1426,-166.75 1426,-187.75 1492,-187.75 1492,-166.75 1426,-166.75"/>
<text text-anchor="start" x="1429" y="-171.45" font-family="Times New Roman,Times,Liberation Serif,serif" font-size="14.00">string | null</text>
<polygon fill="none" stroke="black" points="1126,-145.75 1126,-166.75 1238,-166.75 1238,-145.75 1126,-145.75"/>
<text text-anchor="start" x="1128.75" y="-150.45" font-family="Times New Roman,Times,Liberation Serif,serif" font-size="14.00">assessment_period</text>
<polygon fill="none" stroke="black" points="1238,-145.75 1238,-166.75 1426,-166.75 1426,-145.75 1238,-145.75"/>
<text text-anchor="start" x="1251.75" y="-150.45" font-family="Times New Roman,Times,Liberation Serif,serif" font-size="14.00">Optional[AssessmentPeriod]</text>
<polygon fill="none" stroke="black" points="1426,-145.75 1426,-166.75 1492,-166.75 1492,-145.75 1426,-145.75"/>
<text text-anchor="start" x="1429" y="-150.45" font-family="Times New Roman,Times,Liberation Serif,serif" font-size="14.00">string | null</text>
<polygon fill="none" stroke="black" points="1126,-124.75 1126,-145.75 1238,-145.75 1238,-124.75 1126,-124.75"/>
<text text-anchor="start" x="1150.5" y="-129.45" font-family="Times New Roman,Times,Liberation Serif,serif" font-size="14.00">dimensions</text>
<polygon fill="none" stroke="black" points="1238,-124.75 1238,-145.75 1426,-145.75 1426,-124.75 1238,-124.75"/>
<text text-anchor="start" x="1240.88" y="-129.45" font-family="Times New Roman,Times,Liberation Serif,serif" font-size="14.00">Optional[list[DatasetDimension]]</text>
<polygon fill="none" stroke="black" points="1426,-124.75 1426,-145.75 1492,-145.75 1492,-124.75 1426,-124.75"/>
<text text-anchor="start" x="1430.5" y="-129.45" font-family="Times New Roman,Times,Liberation Serif,serif" font-size="14.00">array | null</text>
<polygon fill="none" stroke="black" points="1126,-103.75 1126,-124.75 1238,-124.75 1238,-103.75 1126,-103.75"/>
<text text-anchor="start" x="1158" y="-108.45" font-family="Times New Roman,Times,Liberation Serif,serif" font-size="14.00">statistics</text>
<polygon fill="none" stroke="black" points="1238,-103.75 1238,-124.75 1426,-124.75 1426,-103.75 1238,-103.75"/>
<text text-anchor="start" x="1276.88" y="-108.45" font-family="Times New Roman,Times,Liberation Serif,serif" font-size="14.00">list[DatasetStatistic]</text>
<polygon fill="none" stroke="black" points="1426,-103.75 1426,-124.75 1492,-124.75 1492,-103.75 1426,-103.75"/>
<text text-anchor="start" x="1445.12" y="-108.45" font-family="Times New Roman,Times,Liberation Serif,serif" font-size="14.00">array</text>
</a>
</g>
</g>
<!-- eya_def_tools.data_models.dataset.DatasetStatistic -->
<g id="node2" class="node">
<title>eya_def_tools.data_models.dataset.DatasetStatistic</title>
<g id="a_node2"><a xlink:title="eya_def_tools.data_models.dataset.DatasetStatistic&#10;&#10;Dataset values for one specific statistic type.&#10;&#10;Fields:&#10; &#160;&#160;&#160;description: Optional description of the dataset statistic, which should not be empty if the field is included. Default is None.&#10; &#160;&#160;&#160;comments: Optional comments on the dataset statistic, which should not be empty if the field is included. Default is None.&#10; &#160;&#160;&#160;statistic_type: Type of statistic that the component of the dataset contains. All values must correspond to this statistic. It can be either the string identifier of a basic statistic type (e.g. &#39;mean&#39;) or a specification of a probability of exceedance level.&#10; &#160;&#160;&#160;values: Dataset value(s) as a single number or one or more values at coordinates. If more than one value is included the values must be represented together with coordinates. A single value can be included either with or without coordinates. The coordinates must correspond to and be listed the same order as the dimensions specified for the dataset.&#10;">
<polygon fill="none" stroke="black" points="1600,-103.75 1600,-125.75 2073,-125.75 2073,-103.75 1600,-103.75"/>
<text text-anchor="start" x="1788.12" y="-110.45" font-family="Times New Roman,Times,Liberation Serif,serif" font-weight="bold" font-size="14.00">DatasetStatistic</text>
<polygon fill="none" stroke="black" points="1600,-82.75 1600,-103.75 1679,-103.75 1679,-82.75 1600,-82.75"/>
<text text-anchor="start" x="1608.38" y="-87.45" font-family="Times New Roman,Times,Liberation Serif,serif" font-size="14.00">description</text>
<polygon fill="none" stroke="black" points="1679,-82.75 1679,-103.75 1988,-103.75 1988,-82.75 1679,-82.75"/>
<text text-anchor="start" x="1797.88" y="-87.45" font-family="Times New Roman,Times,Liberation Serif,serif" font-size="14.00">Optional[str]</text>
<polygon fill="none" stroke="black" points="1988,-82.75 1988,-103.75 2073,-103.75 2073,-82.75 1988,-82.75"/>
<text text-anchor="start" x="2000.5" y="-87.45" font-family="Times New Roman,Times,Liberation Serif,serif" font-size="14.00">string | null</text>
<polygon fill="none" stroke="black" points="1600,-61.75 1600,-82.75 1679,-82.75 1679,-61.75 1600,-61.75"/>
<text text-anchor="start" x="1610.62" y="-66.45" font-family="Times New Roman,Times,Liberation Serif,serif" font-size="14.00">comments</text>
<polygon fill="none" stroke="black" points="1679,-61.75 1679,-82.75 1988,-82.75 1988,-61.75 1679,-61.75"/>
<text text-anchor="start" x="1797.88" y="-66.45" font-family="Times New Roman,Times,Liberation Serif,serif" font-size="14.00">Optional[str]</text>
<polygon fill="none" stroke="black" points="1988,-61.75 1988,-82.75 2073,-82.75 2073,-61.75 1988,-61.75"/>
<text text-anchor="start" x="2000.5" y="-66.45" font-family="Times New Roman,Times,Liberation Serif,serif" font-size="14.00">string | null</text>
<polygon fill="none" stroke="black" points="1600,-40.75 1600,-61.75 1679,-61.75 1679,-40.75 1600,-40.75"/>
<text text-anchor="start" x="1602.75" y="-45.45" font-family="Times New Roman,Times,Liberation Serif,serif" font-size="14.00">statistic_type</text>
<polygon fill="none" stroke="black" points="1679,-40.75 1679,-61.75 1988,-61.75 1988,-40.75 1679,-40.75"/>
<text text-anchor="start" x="1691.38" y="-45.45" font-family="Times New Roman,Times,Liberation Serif,serif" font-size="14.00">BasicStatisticType | ExceedanceLevelStatisticType</text>
<polygon fill="none" stroke="black" points="1988,-40.75 1988,-61.75 2073,-61.75 2073,-40.75 1988,-40.75"/>
<text text-anchor="start" x="1993" y="-45.45" font-family="Times New Roman,Times,Liberation Serif,serif" font-size="14.00">string | object</text>
<polygon fill="none" stroke="black" points="1600,-19.75 1600,-40.75 1679,-40.75 1679,-19.75 1600,-19.75"/>
<text text-anchor="start" x="1622.25" y="-24.45" font-family="Times New Roman,Times,Liberation Serif,serif" font-size="14.00">values</text>
<polygon fill="none" stroke="black" points="1679,-19.75 1679,-40.75 1988,-40.75 1988,-19.75 1679,-19.75"/>
<text text-anchor="start" x="1682" y="-24.45" font-family="Times New Roman,Times,Liberation Serif,serif" font-size="14.00">Union[float, list[tuple[list[Union[int, float, str]], float]]]</text>
<polygon fill="none" stroke="black" points="1988,-19.75 1988,-40.75 2073,-40.75 2073,-19.75 1988,-19.75"/>
<text text-anchor="start" x="1990.75" y="-24.45" font-family="Times New Roman,Times,Liberation Serif,serif" font-size="14.00">number | array</text>
</a>
</g>
</g>
<!-- eya_def_tools.data_models.dataset.Dataset&#45;&gt;eya_def_tools.data_models.dataset.DatasetStatistic -->
<g id="edge1" class="edge">
<title>eya_def_tools.data_models.dataset.Dataset:e&#45;&gt;eya_def_tools.data_models.dataset.DatasetStatistic:w</title>
<path fill="none" stroke="black" d="M1501.87,-114.26C1536.92,-114.31 1551.67,-114.65 1584.64,-114.73"/>
<polyline fill="none" stroke="black" points="1492,-114.25 1497,-114.25"/>
<polyline fill="none" stroke="black" points="1497,-114.25 1502,-114.26"/>
<polygon fill="black" stroke="black" points="1589.67,-114.74 1599.66,-119.25 1595,-114.74 1599.33,-114.75 1599.33,-114.75 1599.33,-114.75 1595,-114.74 1599.67,-110.25 1589.67,-114.74"/>
<polyline fill="none" stroke="black" points="1588.45,-114.74 1583.45,-114.73"/>
</g>
<!-- eya_def_tools.data_models.dataset.ExceedanceLevelStatisticType -->
<g id="node3" class="node">
<title>eya_def_tools.data_models.dataset.ExceedanceLevelStatisticType</title>
<g id="a_node3"><a xlink:title="eya_def_tools.data_models.dataset.ExceedanceLevelStatisticType&#10;&#10;Probability of exceedance level statistic type.&#10;&#10;Fields:&#10; &#160;&#160;&#160;exceedance_level: The dimensionless probability of exceedance level (i.e. probability value between 0.0 and 1.0) of the statistic.&#10;">
<polygon fill="none" stroke="black" points="2181,-40.25 2181,-62.25 2373,-62.25 2373,-40.25 2181,-40.25"/>
<text text-anchor="start" x="2184" y="-46.95" font-family="Times New Roman,Times,Liberation Serif,serif" font-weight="bold" font-size="14.00">ExceedanceLevelStatisticType</text>
<polygon fill="none" stroke="black" points="2181,-19.25 2181,-40.25 2289,-40.25 2289,-19.25 2181,-19.25"/>
<text text-anchor="start" x="2186.62" y="-23.95" font-family="Times New Roman,Times,Liberation Serif,serif" font-size="14.00">exceedance_level</text>
<polygon fill="none" stroke="black" points="2289,-19.25 2289,-40.25 2322,-40.25 2322,-19.25 2289,-19.25"/>
<text text-anchor="start" x="2293.12" y="-23.95" font-family="Times New Roman,Times,Liberation Serif,serif" font-size="14.00">float</text>
<polygon fill="none" stroke="black" points="2322,-19.25 2322,-40.25 2373,-40.25 2373,-19.25 2322,-19.25"/>
<text text-anchor="start" x="2326.5" y="-23.95" font-family="Times New Roman,Times,Liberation Serif,serif" font-size="14.00">number</text>
</a>
</g>
</g>
<!-- eya_def_tools.data_models.dataset.DatasetStatistic&#45;&gt;eya_def_tools.data_models.dataset.ExceedanceLevelStatisticType -->
<g id="edge2" class="edge">
<title>eya_def_tools.data_models.dataset.DatasetStatistic:e&#45;&gt;eya_def_tools.data_models.dataset.ExceedanceLevelStatisticType:w</title>
<path fill="none" stroke="black" d="M2082.87,-51.25C2118.07,-51.25 2132.8,-51.25 2166.08,-51.25"/>
<polyline fill="none" stroke="black" points="2073,-51.25 2078,-51.25"/>
<polyline fill="none" stroke="black" points="2078,-51.25 2083,-51.25"/>
<polyline fill="none" stroke="black" points="2181,-51.25 2176,-51.25"/>
<polygon fill="black" stroke="black" points="2175,-46.25 2175,-56.25 2173,-56.25 2173,-46.25 2175,-46.25"/>
<polyline fill="none" stroke="black" points="2176,-51.25 2171,-51.25"/>
<polygon fill="black" stroke="black" points="2170,-46.25 2170,-56.25 2168,-56.25 2168,-46.25 2170,-46.25"/>
<polyline fill="none" stroke="black" points="2171,-51.25 2166,-51.25"/>
</g>
<!-- eya_def_tools.data_models.wind_resource.TurbineWindResourceAssessment -->
<g id="node4" class="node">
<title>eya_def_tools.data_models.wind_resource.TurbineWindResourceAssessment</title>
<g id="a_node4"><a xlink:title="eya_def_tools.data_models.wind_resource.TurbineWindResourceAssessment&#10;&#10;Wind resource assessment at the turbine locations.&#10;&#10;Fields:&#10; &#160;&#160;&#160;wind_resource_assessment_id_reference: The ID of the wind resource assessment on which the turbine wind resource assessment is based. This must refer to an ID of a wind resource assessment included at the top level of the EYA DEF. The schema requires that a turbine wind resource assessment is based on only one wind resource assessment.&#10; &#160;&#160;&#160;description: Optional description of the turbine wind resource assessment, which should not be empty if the field is included. Default is None.&#10; &#160;&#160;&#160;comments: Optional comments on the turbine wind resource assessment, which should not be empty if the field is included. Default is None.&#10; &#160;&#160;&#160;weighting: Optional specification of the weighting applied to estimate the wind resource at the turbine location(s),relevant for example when predictions from different measurement stations were weighted individually at each turbine based on representativeness. Default is None.&#10; &#160;&#160;&#160;results: Results of the wind resource assessment at the turbine location(s).&#10;">
<polygon fill="none" stroke="black" points="0,-437.25 0,-459.25 550,-459.25 550,-437.25 0,-437.25"/>
<text text-anchor="start" x="170" y="-443.95" font-family="Times New Roman,Times,Liberation Serif,serif" font-weight="bold" font-size="14.00">TurbineWindResourceAssessment</text>
<polygon fill="none" stroke="black" points="0,-416.25 0,-437.25 235,-437.25 235,-416.25 0,-416.25"/>
<text text-anchor="start" x="2.75" y="-420.95" font-family="Times New Roman,Times,Liberation Serif,serif" font-size="14.00">wind_resource_assessment_id_reference</text>
<polygon fill="none" stroke="black" points="235,-416.25 235,-437.25 481,-437.25 481,-416.25 235,-416.25"/>
<text text-anchor="start" x="350.88" y="-420.95" font-family="Times New Roman,Times,Liberation Serif,serif" font-size="14.00">str</text>
<polygon fill="none" stroke="black" points="481,-416.25 481,-437.25 550,-437.25 550,-416.25 481,-416.25"/>
<text text-anchor="start" x="500.12" y="-420.95" font-family="Times New Roman,Times,Liberation Serif,serif" font-size="14.00">string</text>
<polygon fill="none" stroke="black" points="0,-395.25 0,-416.25 235,-416.25 235,-395.25 0,-395.25"/>
<text text-anchor="start" x="86.38" y="-399.95" font-family="Times New Roman,Times,Liberation Serif,serif" font-size="14.00">description</text>
<polygon fill="none" stroke="black" points="235,-395.25 235,-416.25 481,-416.25 481,-395.25 235,-395.25"/>
<text text-anchor="start" x="322.38" y="-399.95" font-family="Times New Roman,Times,Liberation Serif,serif" font-size="14.00">Optional[str]</text>
<polygon fill="none" stroke="black" points="481,-395.25 481,-416.25 550,-416.25 550,-395.25 481,-395.25"/>
<text text-anchor="start" x="485.5" y="-399.95" font-family="Times New Roman,Times,Liberation Serif,serif" font-size="14.00">string | null</text>
<polygon fill="none" stroke="black" points="0,-374.25 0,-395.25 235,-395.25 235,-374.25 0,-374.25"/>
<text text-anchor="start" x="88.62" y="-378.95" font-family="Times New Roman,Times,Liberation Serif,serif" font-size="14.00">comments</text>
<polygon fill="none" stroke="black" points="235,-374.25 235,-395.25 481,-395.25 481,-374.25 235,-374.25"/>
<text text-anchor="start" x="322.38" y="-378.95" font-family="Times New Roman,Times,Liberation Serif,serif" font-size="14.00">Optional[str]</text>
<polygon fill="none" stroke="black" points="481,-374.25 481,-395.25 550,-395.25 550,-374.25 481,-374.25"/>
<text text-anchor="start" x="485.5" y="-378.95" font-family="Times New Roman,Times,Liberation Serif,serif" font-size="14.00">string | null</text>
<polygon fill="none" stroke="black" points="0,-353.25 0,-374.25 235,-374.25 235,-353.25 0,-353.25"/>
<text text-anchor="start" x="91.25" y="-357.95" font-family="Times New Roman,Times,Liberation Serif,serif" font-size="14.00">weighting</text>
<polygon fill="none" stroke="black" points="235,-353.25 235,-374.25 481,-374.25 481,-353.25 235,-353.25"/>
<text text-anchor="start" x="237.62" y="-357.95" font-family="Times New Roman,Times,Liberation Serif,serif" font-size="14.00">Optional[TurbineWindResourceWeighting]</text>
<polygon fill="none" stroke="black" points="481,-353.25 481,-374.25 550,-374.25 550,-353.25 481,-353.25"/>
<text text-anchor="start" x="483.62" y="-357.95" font-family="Times New Roman,Times,Liberation Serif,serif" font-size="14.00">object | null</text>
<polygon fill="none" stroke="black" points="0,-332.25 0,-353.25 235,-353.25 235,-332.25 0,-332.25"/>
<text text-anchor="start" x="99.5" y="-336.95" font-family="Times New Roman,Times,Liberation Serif,serif" font-size="14.00">results</text>
<polygon fill="none" stroke="black" points="235,-332.25 235,-353.25 481,-353.25 481,-332.25 235,-332.25"/>
<text text-anchor="start" x="273.62" y="-336.95" font-family="Times New Roman,Times,Liberation Serif,serif" font-size="14.00">TurbineWindResourceResults</text>
<polygon fill="none" stroke="black" points="481,-332.25 481,-353.25 550,-353.25 550,-332.25 481,-332.25"/>
<text text-anchor="start" x="498.25" y="-336.95" font-family="Times New Roman,Times,Liberation Serif,serif" font-size="14.00">object</text>
</a>
</g>
</g>
<!-- eya_def_tools.data_models.wind_resource.TurbineWindResourceResults -->
<g id="node5" class="node">
<title>eya_def_tools.data_models.wind_resource.TurbineWindResourceResults</title>
<g id="a_node5"><a xlink:title="eya_def_tools.data_models.wind_resource.TurbineWindResourceResults&#10;&#10;Wind resource assessment results at turbine locations.&#10;&#10;Fields:&#10; &#160;&#160;&#160;wind_speed: Final long&#45;term wind speed estimates at the turbine location(s) at hub height in metre per second (m s&#45;1). The dimension of the first standard result dataset should be &#39;turbine_id&#39;. Further results with other dimensions may be included optionally.&#10; &#160;&#160;&#160;probability: Final long&#45;term probability distribution estimates at the turbine location(s) at hub height, as dimensionless values. The first standard result dataset should comprise the joint wind speed and direction probability distributions, with dimensions &#39;turbine_id&#39;, &#39;wind_speed&#39; and &#39;wind_from_direction&#39; (in that order). The wind speed coordinates should be 1.0 metre per second bins centered on whole numbers, with the first bin half the width (i.e. 0.25, 1.0, 2.0, 3.0, ...). The wind direction coordinates should be twelve 30.0 degree bins, with the the first bin centered at 0.0. Further results with other dimensions may also be included. Default is None.&#10; &#160;&#160;&#160;ambient_turbulence_intensity: Final ambient turbulence intensity estimates at the turbine location(s) at hub height, as dimensionless values. The first standard result dataset should comprise the ambient turbulence intensity as a function of wind speed, with the dimensions &#39;turbine_id&#39; and &#39;wind_speed&#39; (in that order). The wind speed coordinates should be 1.0 metre per second bins centered on whole numbers, with the first bin half the width (i.e. 0.25, 1.0, 2.0, 3.0, ...). Further results with other dimensions may also be included. Default is None.&#10; &#160;&#160;&#160;wind_shear_exponent: Final power law wind shear exponent estimates at the turbine location(s). The dimension of the first standard result dataset should be &#39;turbine_id&#39;. Further results with other dimensions may also be included. Default is None.&#10; &#160;&#160;&#160;temperature: Final long&#45;term temperature estimates at the turbine location(s) at hub height in degree C. The dimension of the first standard result dataset should be &#39;turbine_id&#39;. Further results with other dimensions may also be included. Default is None.&#10; &#160;&#160;&#160;air_density: Final long&#45;term air density estimates at the turbine location(s) at hub height in kilogram per cubic metre (kg m&#45;3). The dimension of the first standard result dataset should be &#39;turbine_id&#39;. Further results with other dimensions may also be included. Default is None.&#10; &#160;&#160;&#160;displacement_height: Estimated effective displacement of the boundary layer at the turbine location(s) due to vegetation (forestry) in metre. The displacement height is measured as positive upwards from the ground level. This field is optional as it is only relevant at forested sites. The dimension of the first standard result dataset should be &#39;turbine_id&#39;. Further results with other dimensions, such as displacement height binned by wind direction, may also be included. Default is None.&#10;">
<polygon fill="none" stroke="black" points="658,-303.25 658,-325.25 1018,-325.25 1018,-303.25 658,-303.25"/>
<text text-anchor="start" x="745.75" y="-309.95" font-family="Times New Roman,Times,Liberation Serif,serif" font-weight="bold" font-size="14.00">TurbineWindResourceResults</text>
<polygon fill="none" stroke="black" points="658,-282.25 658,-303.25 826,-303.25 826,-282.25 658,-282.25"/>
<text text-anchor="start" x="708.25" y="-286.95" font-family="Times New Roman,Times,Liberation Serif,serif" font-size="14.00">wind_speed</text>
<polygon fill="none" stroke="black" points="826,-282.25 826,-303.25 955,-303.25 955,-282.25 826,-282.25"/>
<text text-anchor="start" x="857.5" y="-286.95" font-family="Times New Roman,Times,Liberation Serif,serif" font-size="14.00">list[Dataset]</text>
<polygon fill="none" stroke="black" points="955,-282.25 955,-303.25 1018,-303.25 1018,-282.25 955,-282.25"/>
<text text-anchor="start" x="972.62" y="-286.95" font-family="Times New Roman,Times,Liberation Serif,serif" font-size="14.00">array</text>
<polygon fill="none" stroke="black" points="658,-261.25 658,-282.25 826,-282.25 826,-261.25 658,-261.25"/>
<text text-anchor="start" x="712" y="-265.95" font-family="Times New Roman,Times,Liberation Serif,serif" font-size="14.00">probability</text>
<polygon fill="none" stroke="black" points="826,-261.25 826,-282.25 955,-282.25 955,-261.25 826,-261.25"/>
<text text-anchor="start" x="829" y="-265.95" font-family="Times New Roman,Times,Liberation Serif,serif" font-size="14.00">Optional[list[Dataset]]</text>
<polygon fill="none" stroke="black" points="955,-261.25 955,-282.25 1018,-282.25 1018,-261.25 955,-261.25"/>
<text text-anchor="start" x="958" y="-265.95" font-family="Times New Roman,Times,Liberation Serif,serif" font-size="14.00">array | null</text>
<polygon fill="none" stroke="black" points="658,-240.25 658,-261.25 826,-261.25 826,-240.25 658,-240.25"/>
<text text-anchor="start" x="661" y="-244.95" font-family="Times New Roman,Times,Liberation Serif,serif" font-size="14.00">ambient_turbulence_intensity</text>
<polygon fill="none" stroke="black" points="826,-240.25 826,-261.25 955,-261.25 955,-240.25 826,-240.25"/>
<text text-anchor="start" x="829" y="-244.95" font-family="Times New Roman,Times,Liberation Serif,serif" font-size="14.00">Optional[list[Dataset]]</text>
<polygon fill="none" stroke="black" points="955,-240.25 955,-261.25 1018,-261.25 1018,-240.25 955,-240.25"/>
<text text-anchor="start" x="958" y="-244.95" font-family="Times New Roman,Times,Liberation Serif,serif" font-size="14.00">array | null</text>
<polygon fill="none" stroke="black" points="658,-219.25 658,-240.25 826,-240.25 826,-219.25 658,-219.25"/>
<text text-anchor="start" x="680.88" y="-223.95" font-family="Times New Roman,Times,Liberation Serif,serif" font-size="14.00">wind_shear_exponent</text>
<polygon fill="none" stroke="black" points="826,-219.25 826,-240.25 955,-240.25 955,-219.25 826,-219.25"/>
<text text-anchor="start" x="829" y="-223.95" font-family="Times New Roman,Times,Liberation Serif,serif" font-size="14.00">Optional[list[Dataset]]</text>
<polygon fill="none" stroke="black" points="955,-219.25 955,-240.25 1018,-240.25 1018,-219.25 955,-219.25"/>
<text text-anchor="start" x="958" y="-223.95" font-family="Times New Roman,Times,Liberation Serif,serif" font-size="14.00">array | null</text>
<polygon fill="none" stroke="black" points="658,-198.25 658,-219.25 826,-219.25 826,-198.25 658,-198.25"/>
<text text-anchor="start" x="709.38" y="-202.95" font-family="Times New Roman,Times,Liberation Serif,serif" font-size="14.00">temperature</text>
<polygon fill="none" stroke="black" points="826,-198.25 826,-219.25 955,-219.25 955,-198.25 826,-198.25"/>
<text text-anchor="start" x="829" y="-202.95" font-family="Times New Roman,Times,Liberation Serif,serif" font-size="14.00">Optional[list[Dataset]]</text>
<polygon fill="none" stroke="black" points="955,-198.25 955,-219.25 1018,-219.25 1018,-198.25 955,-198.25"/>
<text text-anchor="start" x="958" y="-202.95" font-family="Times New Roman,Times,Liberation Serif,serif" font-size="14.00">array | null</text>
<polygon fill="none" stroke="black" points="658,-177.25 658,-198.25 826,-198.25 826,-177.25 658,-177.25"/>
<text text-anchor="start" x="711.62" y="-181.95" font-family="Times New Roman,Times,Liberation Serif,serif" font-size="14.00">air_density</text>
<polygon fill="none" stroke="black" points="826,-177.25 826,-198.25 955,-198.25 955,-177.25 826,-177.25"/>
<text text-anchor="start" x="829" y="-181.95" font-family="Times New Roman,Times,Liberation Serif,serif" font-size="14.00">Optional[list[Dataset]]</text>
<polygon fill="none" stroke="black" points="955,-177.25 955,-198.25 1018,-198.25 1018,-177.25 955,-177.25"/>
<text text-anchor="start" x="958" y="-181.95" font-family="Times New Roman,Times,Liberation Serif,serif" font-size="14.00">array | null</text>
<polygon fill="none" stroke="black" points="658,-156.25 658,-177.25 826,-177.25 826,-156.25 658,-156.25"/>
<text text-anchor="start" x="685.38" y="-160.95" font-family="Times New Roman,Times,Liberation Serif,serif" font-size="14.00">displacement_height</text>
<polygon fill="none" stroke="black" points="826,-156.25 826,-177.25 955,-177.25 955,-156.25 826,-156.25"/>
<text text-anchor="start" x="829" y="-160.95" font-family="Times New Roman,Times,Liberation Serif,serif" font-size="14.00">Optional[list[Dataset]]</text>
<polygon fill="none" stroke="black" points="955,-156.25 955,-177.25 1018,-177.25 1018,-156.25 955,-156.25"/>
<text text-anchor="start" x="958" y="-160.95" font-family="Times New Roman,Times,Liberation Serif,serif" font-size="14.00">array | null</text>
</a>
</g>
</g>
<!-- eya_def_tools.data_models.wind_resource.TurbineWindResourceAssessment&#45;&gt;eya_def_tools.data_models.wind_resource.TurbineWindResourceResults -->
<g id="edge3" class="edge">
<title>eya_def_tools.data_models.wind_resource.TurbineWindResourceAssessment:e&#45;&gt;eya_def_tools.data_models.wind_resource.TurbineWindResourceResults:w</title>
<path fill="none" stroke="black" d="M559.89,-342.35C596.25,-339.29 608.9,-319.73 643.13,-315.19"/>
<polyline fill="none" stroke="black" points="550,-342.75 555,-342.55"/>
<polyline fill="none" stroke="black" points="555,-342.55 559.99,-342.34"/>
<polyline fill="none" stroke="black" points="658,-314.25 653.01,-314.57"/>
<polygon fill="black" stroke="black" points="651.7,-309.64 652.33,-319.62 650.33,-319.75 649.7,-309.77 651.7,-309.64"/>
<polyline fill="none" stroke="black" points="653.01,-314.57 648.02,-314.88"/>
<polygon fill="black" stroke="black" points="646.71,-309.95 647.34,-319.93 645.34,-320.06 644.71,-310.08 646.71,-309.95"/>
<polyline fill="none" stroke="black" points="648.02,-314.88 643.03,-315.2"/>
</g>
<!-- eya_def_tools.data_models.wind_resource.TurbineWindResourceWeighting -->
<g id="node6" class="node">
<title>eya_def_tools.data_models.wind_resource.TurbineWindResourceWeighting</title>
<g id="a_node6"><a xlink:title="eya_def_tools.data_models.wind_resource.TurbineWindResourceWeighting&#10;&#10;Details of weighting applied to estimate turbine wind resource.&#10;&#10;Fields:&#10; &#160;&#160;&#160;source_wind_data: Optional specification of the weight applied to the prediction based on each source of wind data when making the final wind resource estimate at each target turbine location. The dimensions of the first standard weighting specification dataset should be &#39;turbine_id&#39; (the target turbine of the estimate for which the weight is applied), &#39;wind_dataset_id&#39; (the source wind dataset whose prediction the weight is applied to), and &#39;variable_id&#39; (if different weights were applied to different variables, such as wind speed and wind direction weighted differently, otherwise omitted). Further results with additional dimensions may optionally be included, in which case the initial set of dimensions must be the same as those for the first standard dataset. For example, if weights are applied by wind direction bin, an additional dataset with dimensions &#39;turbine_id&#39;, &#39;wind_dataset_id&#39;, &#39;variable_id&#39; and &#39;wind_from_direction&#39; (i.e. wind direction bin) may be included. Default is None.&#10;">
<polygon fill="none" stroke="black" points="688,-382.25 688,-404.25 988,-404.25 988,-382.25 688,-382.25"/>
<text text-anchor="start" x="736.75" y="-388.95" font-family="Times New Roman,Times,Liberation Serif,serif" font-weight="bold" font-size="14.00">TurbineWindResourceWeighting</text>
<polygon fill="none" stroke="black" points="688,-361.25 688,-382.25 796,-382.25 796,-361.25 688,-361.25"/>
<text text-anchor="start" x="690.62" y="-365.95" font-family="Times New Roman,Times,Liberation Serif,serif" font-size="14.00">source_wind_data</text>
<polygon fill="none" stroke="black" points="796,-361.25 796,-382.25 925,-382.25 925,-361.25 796,-361.25"/>
<text text-anchor="start" x="799" y="-365.95" font-family="Times New Roman,Times,Liberation Serif,serif" font-size="14.00">Optional[list[Dataset]]</text>
<polygon fill="none" stroke="black" points="925,-361.25 925,-382.25 988,-382.25 988,-361.25 925,-361.25"/>
<text text-anchor="start" x="928" y="-365.95" font-family="Times New Roman,Times,Liberation Serif,serif" font-size="14.00">array | null</text>
</a>
</g>
</g>
<!-- eya_def_tools.data_models.wind_resource.TurbineWindResourceAssessment&#45;&gt;eya_def_tools.data_models.wind_resource.TurbineWindResourceWeighting -->
<g id="edge4" class="edge">
<title>eya_def_tools.data_models.wind_resource.TurbineWindResourceAssessment:e&#45;&gt;eya_def_tools.data_models.wind_resource.TurbineWindResourceWeighting:w</title>
<path fill="none" stroke="black" d="M559.79,-364.01C607.57,-366.56 624.29,-387.49 668.29,-392.28"/>
<polyline fill="none" stroke="black" points="550,-363.75 555,-363.88"/>
<polyline fill="none" stroke="black" points="555,-363.88 560,-364.01"/>
<polyline fill="none" stroke="black" points="687,-393.25 682.01,-392.99"/>
<polygon fill="black" stroke="black" points="681.27,-387.94 680.75,-397.93 678.75,-397.83 679.27,-387.84 681.27,-387.94"/>
<polyline fill="none" stroke="black" points="682.01,-392.99 677.01,-392.73"/>
<ellipse fill="none" stroke="black" cx="672.52" cy="-392.5" rx="4" ry="4"/>
</g>
<!-- eya_def_tools.data_models.wind_resource.TurbineWindResourceResults&#45;&gt;eya_def_tools.data_models.dataset.Dataset -->
<g id="edge5" class="edge">
<title>eya_def_tools.data_models.wind_resource.TurbineWindResourceResults:e&#45;&gt;eya_def_tools.data_models.dataset.Dataset:w</title>
<path fill="none" stroke="black" d="M1027.71,-188.38C1065.45,-193.5 1073.94,-228.19 1106.93,-238.11"/>
<polyline fill="none" stroke="black" points="1018,-187.75 1022.99,-188.07"/>
<polyline fill="none" stroke="black" points="1022.99,-188.07 1027.98,-188.4"/>
<polygon fill="black" stroke="black" points="1115.76,-239.33 1125.05,-245.16 1121.05,-240.06 1125.34,-240.66 1125.34,-240.66 1125.34,-240.66 1121.05,-240.06 1126.29,-236.25 1115.76,-239.33"/>
<ellipse fill="none" stroke="black" cx="1110.1" cy="-238.54" rx="4" ry="4"/>
</g>
<!-- eya_def_tools.data_models.wind_resource.TurbineWindResourceResults&#45;&gt;eya_def_tools.data_models.dataset.Dataset -->
<g id="edge6" class="edge">
<title>eya_def_tools.data_models.wind_resource.TurbineWindResourceResults:e&#45;&gt;eya_def_tools.data_models.dataset.Dataset:w</title>
<path fill="none" stroke="black" d="M1027.9,-250.6C1061.64,-249.56 1076.36,-243.32 1106.7,-241.35"/>
<polyline fill="none" stroke="black" points="1018,-250.75 1023,-250.67"/>
<polyline fill="none" stroke="black" points="1023,-250.67 1028,-250.6"/>
<polygon fill="black" stroke="black" points="1115.67,-241.07 1125.8,-245.26 1121,-240.9 1125.33,-240.77 1125.33,-240.77 1125.33,-240.77 1121,-240.9 1125.53,-236.26 1115.67,-241.07"/>
<ellipse fill="none" stroke="black" cx="1109.95" cy="-241.25" rx="4" ry="4"/>
</g>
<!-- eya_def_tools.data_models.wind_resource.TurbineWindResourceResults&#45;&gt;eya_def_tools.data_models.dataset.Dataset -->
<g id="edge7" class="edge">
<title>eya_def_tools.data_models.wind_resource.TurbineWindResourceResults:e&#45;&gt;eya_def_tools.data_models.dataset.Dataset:w</title>
<path fill="none" stroke="black" d="M1027.87,-167.53C1069.1,-174.39 1071.51,-224.41 1107.07,-237.58"/>
<polyline fill="none" stroke="black" points="1018,-166.75 1022.98,-167.14"/>
<polyline fill="none" stroke="black" points="1022.98,-167.14 1027.97,-167.54"/>
<polygon fill="black" stroke="black" points="1115.81,-239.04 1124.93,-245.13 1121.07,-239.92 1125.34,-240.64 1125.34,-240.64 1125.34,-240.64 1121.07,-239.92 1126.41,-236.26 1115.81,-239.04"/>
<ellipse fill="none" stroke="black" cx="1110.17" cy="-238.1" rx="4" ry="4"/>
</g>
<!-- eya_def_tools.data_models.wind_resource.TurbineWindResourceResults&#45;&gt;eya_def_tools.data_models.dataset.Dataset -->
<g id="edge8" class="edge">
<title>eya_def_tools.data_models.wind_resource.TurbineWindResourceResults:e&#45;&gt;eya_def_tools.data_models.dataset.Dataset:w</title>
<path fill="none" stroke="black" d="M1027.94,-271.31C1062.83,-268.13 1075.6,-248.56 1106.63,-242.52"/>
<polyline fill="none" stroke="black" points="1018,-271.75 1023,-271.53"/>
<polyline fill="none" stroke="black" points="1023,-271.53 1027.99,-271.31"/>
<polygon fill="black" stroke="black" points="1115.71,-241.69 1126.08,-245.26 1121.02,-241.21 1125.33,-240.81 1125.33,-240.81 1125.33,-240.81 1121.02,-241.21 1125.26,-236.3 1115.71,-241.69"/>
<ellipse fill="none" stroke="black" cx="1110.01" cy="-242.21" rx="4" ry="4"/>
</g>
<!-- eya_def_tools.data_models.wind_resource.TurbineWindResourceResults&#45;&gt;eya_def_tools.data_models.dataset.Dataset -->
<g id="edge9" class="edge">
<title>eya_def_tools.data_models.wind_resource.TurbineWindResourceResults:e&#45;&gt;eya_def_tools.data_models.dataset.Dataset:w</title>
<path fill="none" stroke="black" d="M1027.96,-209.2C1062.91,-212.48 1075.54,-232.69 1106.6,-238.92"/>
<polyline fill="none" stroke="black" points="1018,-208.75 1022.99,-208.98"/>
<polyline fill="none" stroke="black" points="1022.99,-208.98 1027.99,-209.2"/>
<polygon fill="black" stroke="black" points="1115.71,-239.78 1125.24,-245.2 1121.02,-240.28 1125.33,-240.69 1125.33,-240.69 1125.33,-240.69 1121.02,-240.28 1126.09,-236.24 1115.71,-239.78"/>
<ellipse fill="none" stroke="black" cx="1110.02" cy="-239.24" rx="4" ry="4"/>
</g>
<!-- eya_def_tools.data_models.wind_resource.TurbineWindResourceResults&#45;&gt;eya_def_tools.data_models.dataset.Dataset -->
<g id="edge10" class="edge">
<title>eya_def_tools.data_models.wind_resource.TurbineWindResourceResults:e&#45;&gt;eya_def_tools.data_models.dataset.Dataset:w</title>
<path fill="none" stroke="black" d="M1027.91,-229.91C1061.67,-231.06 1076.34,-237.93 1106.69,-240.09"/>
<polyline fill="none" stroke="black" points="1018,-229.75 1023,-229.83"/>
<polyline fill="none" stroke="black" points="1023,-229.83 1028,-229.92"/>
<polygon fill="black" stroke="black" points="1115.67,-240.4 1125.51,-245.24 1121,-240.58 1125.33,-240.73 1125.33,-240.73 1125.33,-240.73 1121,-240.58 1125.82,-236.24 1115.67,-240.4"/>
<ellipse fill="none" stroke="black" cx="1109.96" cy="-240.2" rx="4" ry="4"/>
</g>
<!-- eya_def_tools.data_models.wind_resource.TurbineWindResourceResults&#45;&gt;eya_def_tools.data_models.dataset.Dataset -->
<g id="edge11" class="edge">
<title>eya_def_tools.data_models.wind_resource.TurbineWindResourceResults:e&#45;&gt;eya_def_tools.data_models.dataset.Dataset:w</title>
<path fill="none" stroke="black" d="M1027.96,-292.09C1066.74,-286.75 1074.73,-250.51 1110.71,-242.37"/>
<polyline fill="none" stroke="black" points="1018,-292.75 1022.99,-292.42"/>
<polyline fill="none" stroke="black" points="1022.99,-292.42 1027.98,-292.09"/>
<polygon fill="black" stroke="black" points="1115.72,-241.84 1126.14,-245.26 1121.03,-241.28 1125.33,-240.82 1125.33,-240.82 1125.33,-240.82 1121.03,-241.28 1125.19,-236.31 1115.72,-241.84"/>
<polyline fill="none" stroke="black" points="1114.51,-241.97 1109.54,-242.5"/>
</g>
<!-- eya_def_tools.data_models.wind_resource.TurbineWindResourceWeighting&#45;&gt;eya_def_tools.data_models.dataset.Dataset -->
<g id="edge12" class="edge">
<title>eya_def_tools.data_models.wind_resource.TurbineWindResourceWeighting:e&#45;&gt;eya_def_tools.data_models.dataset.Dataset:w</title>
<path fill="none" stroke="black" d="M998.8,-371.11C1064.38,-362.11 1049.03,-261.51 1106.65,-243.5"/>
<polyline fill="none" stroke="black" points="989,-371.75 993.99,-371.42"/>
<polyline fill="none" stroke="black" points="993.99,-371.42 998.98,-371.09"/>
<polygon fill="black" stroke="black" points="1115.77,-242.2 1126.3,-245.25 1121.05,-241.45 1125.34,-240.84 1125.34,-240.84 1125.34,-240.84 1121.05,-241.45 1125.04,-236.34 1115.77,-242.2"/>
<ellipse fill="none" stroke="black" cx="1110.11" cy="-243.01" rx="4" ry="4"/>
</g>
</g>
</svg>
