<?xml version="1.0" encoding="UTF-8" standalone="no"?>
<!DOCTYPE svg PUBLIC "-//W3C//DTD SVG 1.1//EN"
 "http://www.w3.org/Graphics/SVG/1.1/DTD/svg11.dtd">
<!-- Generated by graphviz version 7.0.4 (20221203.1631)
 -->
<!-- Title: Entity Relationship Diagram Pages: 1 -->
<svg width="2853pt" height="612pt"
 viewBox="0.00 0.00 2853.00 611.50" xmlns="http://www.w3.org/2000/svg" xmlns:xlink="http://www.w3.org/1999/xlink">
<g id="graph0" class="graph" transform="scale(1 1) rotate(0) translate(4 607.5)">
<title>Entity Relationship Diagram</title>
<polygon fill="white" stroke="none" points="-4,4 -4,-607.5 2849,-607.5 2849,4 -4,4"/>
<text text-anchor="middle" x="1422.5" y="-6.8" font-family="Times New Roman,serif" font-size="9.00" fill="#a8a8a8">Created by erdantic v0.5.0 &lt;https://github.com/drivendataorg/erdantic&gt;</text>
<!-- eya_def_tools.data_models.process_description.AssessmentProcessDescription -->
<g id="node1" class="node">
<title>eya_def_tools.data_models.process_description.AssessmentProcessDescription</title>
<g id="a_node1"><a xlink:title="eya_def_tools.data_models.process_description.AssessmentProcessDescription&#10;&#10;Description of a process used in an energy yield assessment.&#10;&#10;Attributes:&#10; &#160;&#160;&#160;name (str): Name of the process or model.&#10; &#160;&#160;&#160;description (Optional[str]): Description of the data object. Default is None.&#10; &#160;&#160;&#160;comments (Optional[str]): Comments on the data object. Default is None.&#10;">
<polygon fill="none" stroke="black" points="623.5,-582.5 623.5,-603.5 819.5,-603.5 819.5,-582.5 623.5,-582.5"/>
<text text-anchor="start" x="626.5" y="-590.3" font-family="Times New Roman,serif" font-weight="bold" font-size="14.00">AssessmentProcessDescription</text>
<polygon fill="none" stroke="black" points="623.5,-561.5 623.5,-582.5 716.5,-582.5 716.5,-561.5 623.5,-561.5"/>
<text text-anchor="start" x="655" y="-568.3" font-family="Times New Roman,serif" font-size="14.00">name</text>
<polygon fill="none" stroke="black" points="716.5,-561.5 716.5,-582.5 819.5,-582.5 819.5,-561.5 716.5,-561.5"/>
<text text-anchor="start" x="760.5" y="-568.3" font-family="Times New Roman,serif" font-size="14.00">str</text>
<polygon fill="none" stroke="black" points="623.5,-540.5 623.5,-561.5 716.5,-561.5 716.5,-540.5 623.5,-540.5"/>
<text text-anchor="start" x="638.5" y="-547.3" font-family="Times New Roman,serif" font-size="14.00">description</text>
<polygon fill="none" stroke="black" points="716.5,-540.5 716.5,-561.5 819.5,-561.5 819.5,-540.5 716.5,-540.5"/>
<text text-anchor="start" x="732" y="-547.3" font-family="Times New Roman,serif" font-size="14.00">Optional[str]</text>
<polygon fill="none" stroke="black" points="623.5,-519.5 623.5,-540.5 716.5,-540.5 716.5,-519.5 623.5,-519.5"/>
<text text-anchor="start" x="641" y="-526.3" font-family="Times New Roman,serif" font-size="14.00">comments</text>
<polygon fill="none" stroke="black" points="716.5,-519.5 716.5,-540.5 819.5,-540.5 819.5,-519.5 716.5,-519.5"/>
<text text-anchor="start" x="732" y="-526.3" font-family="Times New Roman,serif" font-size="14.00">Optional[str]</text>
</a>
</g>
</g>
<!-- eya_def_tools.data_models.result.Result -->
<g id="node2" class="node">
<title>eya_def_tools.data_models.result.Result</title>
<g id="a_node2"><a xlink:title="eya_def_tools.data_models.result.Result&#10;&#10;Set of results for an element of an energy assessment.&#10;&#10;Attributes:&#10; &#160;&#160;&#160;quantity (Optional[MeasurementQuantity(StrEnum)]): The quantity that the set of results describe, where this is not obvious from the context. Default is None.&#10; &#160;&#160;&#160;label (Optional[str]): Label of the results. Default is None.&#10; &#160;&#160;&#160;description (Optional[str]): Description of the data object. Default is None.&#10; &#160;&#160;&#160;comments (Optional[str]): Comments on the data object. Default is None.&#10; &#160;&#160;&#160;assessment_period (Optional[AssessmentPeriod(StrEnum)]): Period of or in time that has been assessed and for which the results are applicable. Default is None.&#10; &#160;&#160;&#160;dimensions (Optional[tuple[ResultsDimension(StrEnum), ...]]): Dimensions along which the results are binned (all result values in the same results object must have the same dimensions). Default is None.&#10; &#160;&#160;&#160;statistics (list[ResultStatistic]): List of result statistic objects that each include result values for a specific statistic type.&#10;">
<polygon fill="none" stroke="black" points="1869,-249.5 1869,-270.5 2259,-270.5 2259,-249.5 1869,-249.5"/>
<text text-anchor="start" x="2044" y="-257.3" font-family="Times New Roman,serif" font-weight="bold" font-size="14.00">Result</text>
<polygon fill="none" stroke="black" points="1869,-228.5 1869,-249.5 1982,-249.5 1982,-228.5 1869,-228.5"/>
<text text-anchor="start" x="1903" y="-235.3" font-family="Times New Roman,serif" font-size="14.00">quantity</text>
<polygon fill="none" stroke="black" points="1982,-228.5 1982,-249.5 2259,-249.5 2259,-228.5 1982,-228.5"/>
<text text-anchor="start" x="2002" y="-235.3" font-family="Times New Roman,serif" font-size="14.00">Optional[MeasurementQuantity(StrEnum)]</text>
<polygon fill="none" stroke="black" points="1869,-207.5 1869,-228.5 1982,-228.5 1982,-207.5 1869,-207.5"/>
<text text-anchor="start" x="1912.5" y="-214.3" font-family="Times New Roman,serif" font-size="14.00">label</text>
<polygon fill="none" stroke="black" points="1982,-207.5 1982,-228.5 2259,-228.5 2259,-207.5 1982,-207.5"/>
<text text-anchor="start" x="2084.5" y="-214.3" font-family="Times New Roman,serif" font-size="14.00">Optional[str]</text>
<polygon fill="none" stroke="black" points="1869,-186.5 1869,-207.5 1982,-207.5 1982,-186.5 1869,-186.5"/>
<text text-anchor="start" x="1894" y="-193.3" font-family="Times New Roman,serif" font-size="14.00">description</text>
<polygon fill="none" stroke="black" points="1982,-186.5 1982,-207.5 2259,-207.5 2259,-186.5 1982,-186.5"/>
<text text-anchor="start" x="2084.5" y="-193.3" font-family="Times New Roman,serif" font-size="14.00">Optional[str]</text>
<polygon fill="none" stroke="black" points="1869,-165.5 1869,-186.5 1982,-186.5 1982,-165.5 1869,-165.5"/>
<text text-anchor="start" x="1896.5" y="-172.3" font-family="Times New Roman,serif" font-size="14.00">comments</text>
<polygon fill="none" stroke="black" points="1982,-165.5 1982,-186.5 2259,-186.5 2259,-165.5 1982,-165.5"/>
<text text-anchor="start" x="2084.5" y="-172.3" font-family="Times New Roman,serif" font-size="14.00">Optional[str]</text>
<polygon fill="none" stroke="black" points="1869,-144.5 1869,-165.5 1982,-165.5 1982,-144.5 1869,-144.5"/>
<text text-anchor="start" x="1872" y="-151.3" font-family="Times New Roman,serif" font-size="14.00">assessment_period</text>
<polygon fill="none" stroke="black" points="1982,-144.5 1982,-165.5 2259,-165.5 2259,-144.5 1982,-144.5"/>
<text text-anchor="start" x="2011" y="-151.3" font-family="Times New Roman,serif" font-size="14.00">Optional[AssessmentPeriod(StrEnum)]</text>
<polygon fill="none" stroke="black" points="1869,-123.5 1869,-144.5 1982,-144.5 1982,-123.5 1869,-123.5"/>
<text text-anchor="start" x="1893.5" y="-130.3" font-family="Times New Roman,serif" font-size="14.00">dimensions</text>
<polygon fill="none" stroke="black" points="1982,-123.5 1982,-144.5 2259,-144.5 2259,-123.5 1982,-123.5"/>
<text text-anchor="start" x="1985" y="-130.3" font-family="Times New Roman,serif" font-size="14.00">Optional[tuple[ResultsDimension(StrEnum), ...]]</text>
<polygon fill="none" stroke="black" points="1869,-102.5 1869,-123.5 1982,-123.5 1982,-102.5 1869,-102.5"/>
<text text-anchor="start" x="1901" y="-109.3" font-family="Times New Roman,serif" font-size="14.00">statistics</text>
<polygon fill="none" stroke="black" points="1982,-102.5 1982,-123.5 2259,-123.5 2259,-102.5 1982,-102.5"/>
<text text-anchor="start" x="2068" y="-109.3" font-family="Times New Roman,serif" font-size="14.00">list[ResultStatistic]</text>
</a>
</g>
</g>
<!-- eya_def_tools.data_models.result.ResultStatistic -->
<g id="node3" class="node">
<title>eya_def_tools.data_models.result.ResultStatistic</title>
<g id="a_node3"><a xlink:title="eya_def_tools.data_models.result.ResultStatistic&#10;&#10;Result values for one specific statistic type.&#10;&#10;Attributes:&#10; &#160;&#160;&#160;description (Optional[str]): Description of the data object. Default is None.&#10; &#160;&#160;&#160;comments (Optional[str]): Comments on the data object. Default is None.&#10; &#160;&#160;&#160;statistic_type (StatisticType(StrEnum)): Type of statistic in the results component.&#10; &#160;&#160;&#160;values (UnionType[float, list[tuple[tuple[UnionType[float, int, str], ...], float]]]): Result as a single number or values at coordinates.&#10;">
<polygon fill="none" stroke="black" points="2367,-101.5 2367,-122.5 2845,-122.5 2845,-101.5 2367,-101.5"/>
<text text-anchor="start" x="2561.5" y="-109.3" font-family="Times New Roman,serif" font-weight="bold" font-size="14.00">ResultStatistic</text>
<polygon fill="none" stroke="black" points="2367,-80.5 2367,-101.5 2447,-101.5 2447,-80.5 2367,-80.5"/>
<text text-anchor="start" x="2375.5" y="-87.3" font-family="Times New Roman,serif" font-size="14.00">description</text>
<polygon fill="none" stroke="black" points="2447,-80.5 2447,-101.5 2845,-101.5 2845,-80.5 2447,-80.5"/>
<text text-anchor="start" x="2610" y="-87.3" font-family="Times New Roman,serif" font-size="14.00">Optional[str]</text>
<polygon fill="none" stroke="black" points="2367,-59.5 2367,-80.5 2447,-80.5 2447,-59.5 2367,-59.5"/>
<text text-anchor="start" x="2378" y="-66.3" font-family="Times New Roman,serif" font-size="14.00">comments</text>
<polygon fill="none" stroke="black" points="2447,-59.5 2447,-80.5 2845,-80.5 2845,-59.5 2447,-59.5"/>
<text text-anchor="start" x="2610" y="-66.3" font-family="Times New Roman,serif" font-size="14.00">Optional[str]</text>
<polygon fill="none" stroke="black" points="2367,-38.5 2367,-59.5 2447,-59.5 2447,-38.5 2367,-38.5"/>
<text text-anchor="start" x="2370" y="-45.3" font-family="Times New Roman,serif" font-size="14.00">statistic_type</text>
<polygon fill="none" stroke="black" points="2447,-38.5 2447,-59.5 2845,-59.5 2845,-38.5 2447,-38.5"/>
<text text-anchor="start" x="2580" y="-45.3" font-family="Times New Roman,serif" font-size="14.00">StatisticType(StrEnum)</text>
<polygon fill="none" stroke="black" points="2367,-17.5 2367,-38.5 2447,-38.5 2447,-17.5 2367,-17.5"/>
<text text-anchor="start" x="2389.5" y="-24.3" font-family="Times New Roman,serif" font-size="14.00">values</text>
<polygon fill="none" stroke="black" points="2447,-17.5 2447,-38.5 2845,-38.5 2845,-17.5 2447,-17.5"/>
<text text-anchor="start" x="2450" y="-24.3" font-family="Times New Roman,serif" font-size="14.00">UnionType[float, list[tuple[tuple[UnionType[float, int, str], ...], float]]]</text>
</a>
</g>
</g>
<!-- eya_def_tools.data_models.result.Result&#45;&gt;eya_def_tools.data_models.result.ResultStatistic -->
<g id="edge1" class="edge">
<title>eya_def_tools.data_models.result.Result:e&#45;&gt;eya_def_tools.data_models.result.ResultStatistic:w</title>
<path fill="none" stroke="black" d="M2259,-112.5C2300.06,-112.5 2314.78,-112.5 2348.23,-112.5"/>
<polygon fill="black" stroke="black" points="2357,-112.5 2367,-117 2362,-112.5 2367,-112.5 2367,-112.5 2367,-112.5 2362,-112.5 2367,-108 2357,-112.5 2357,-112.5"/>
<ellipse fill="none" stroke="black" cx="2352.5" cy="-112.5" rx="4" ry="4"/>
</g>
<!-- eya_def_tools.data_models.wind_resource.TurbineWindResourceAssessment -->
<g id="node4" class="node">
<title>eya_def_tools.data_models.wind_resource.TurbineWindResourceAssessment</title>
<g id="a_node4"><a xlink:title="eya_def_tools.data_models.wind_resource.TurbineWindResourceAssessment&#10;&#10;Wind resource assessment at the turbine locations.&#10;&#10;Attributes:&#10; &#160;&#160;&#160;wind_resource_assessment_id_reference (str): The ID of the wind resource assessment on which the turbine wind resource assessment is based. This must refer to an ID of a wind resource assessment included at the top level of the EYA DEF. The schema requires that a turbine wind resource assessment is based on only one wind resource assessment.&#10; &#160;&#160;&#160;description (Optional[str]): Description of the data object. Default is None.&#10; &#160;&#160;&#160;comments (Optional[str]): Comments on the data object. Default is None.&#10; &#160;&#160;&#160;wind_spatial_modelling_processes (list[AssessmentProcessDescription]): Wind spatial modelling processes used in the assessment.&#10; &#160;&#160;&#160;wind_speed_results (list[Result]): Final long&#45;term wind speed estimates at the turbine location(s).&#10; &#160;&#160;&#160;wind_uncertainty_categories (list[WindUncertaintyCategory]): Wind related uncertainty assessment categories including results.&#10;">
<polygon fill="none" stroke="black" points="0,-559.5 0,-580.5 444,-580.5 444,-559.5 0,-559.5"/>
<text text-anchor="start" x="116.5" y="-567.3" font-family="Times New Roman,serif" font-weight="bold" font-size="14.00">TurbineWindResourceAssessment</text>
<polygon fill="none" stroke="black" points="0,-538.5 0,-559.5 236,-559.5 236,-538.5 0,-538.5"/>
<text text-anchor="start" x="3" y="-545.3" font-family="Times New Roman,serif" font-size="14.00">wind_resource_assessment_id_reference</text>
<polygon fill="none" stroke="black" points="236,-538.5 236,-559.5 444,-559.5 444,-538.5 236,-538.5"/>
<text text-anchor="start" x="332.5" y="-545.3" font-family="Times New Roman,serif" font-size="14.00">str</text>
<polygon fill="none" stroke="black" points="0,-517.5 0,-538.5 236,-538.5 236,-517.5 0,-517.5"/>
<text text-anchor="start" x="86.5" y="-524.3" font-family="Times New Roman,serif" font-size="14.00">description</text>
<polygon fill="none" stroke="black" points="236,-517.5 236,-538.5 444,-538.5 444,-517.5 236,-517.5"/>
<text text-anchor="start" x="304" y="-524.3" font-family="Times New Roman,serif" font-size="14.00">Optional[str]</text>
<polygon fill="none" stroke="black" points="0,-496.5 0,-517.5 236,-517.5 236,-496.5 0,-496.5"/>
<text text-anchor="start" x="89" y="-503.3" font-family="Times New Roman,serif" font-size="14.00">comments</text>
<polygon fill="none" stroke="black" points="236,-496.5 236,-517.5 444,-517.5 444,-496.5 236,-496.5"/>
<text text-anchor="start" x="304" y="-503.3" font-family="Times New Roman,serif" font-size="14.00">Optional[str]</text>
<polygon fill="none" stroke="black" points="0,-475.5 0,-496.5 236,-496.5 236,-475.5 0,-475.5"/>
<text text-anchor="start" x="20" y="-482.3" font-family="Times New Roman,serif" font-size="14.00">wind_spatial_modelling_processes</text>
<polygon fill="none" stroke="black" points="236,-475.5 236,-496.5 444,-496.5 444,-475.5 236,-475.5"/>
<text text-anchor="start" x="239" y="-482.3" font-family="Times New Roman,serif" font-size="14.00">list[AssessmentProcessDescription]</text>
<polygon fill="none" stroke="black" points="0,-454.5 0,-475.5 236,-475.5 236,-454.5 0,-454.5"/>
<text text-anchor="start" x="62" y="-461.3" font-family="Times New Roman,serif" font-size="14.00">wind_speed_results</text>
<polygon fill="none" stroke="black" points="236,-454.5 236,-475.5 444,-475.5 444,-454.5 236,-454.5"/>
<text text-anchor="start" x="309.5" y="-461.3" font-family="Times New Roman,serif" font-size="14.00">list[Result]</text>
<polygon fill="none" stroke="black" points="0,-433.5 0,-454.5 236,-454.5 236,-433.5 0,-433.5"/>
<text text-anchor="start" x="38" y="-440.3" font-family="Times New Roman,serif" font-size="14.00">wind_uncertainty_categories</text>
<polygon fill="none" stroke="black" points="236,-433.5 236,-454.5 444,-454.5 444,-433.5 236,-433.5"/>
<text text-anchor="start" x="254.5" y="-440.3" font-family="Times New Roman,serif" font-size="14.00">list[WindUncertaintyCategory]</text>
</a>
</g>
</g>
<!-- eya_def_tools.data_models.wind_resource.TurbineWindResourceAssessment&#45;&gt;eya_def_tools.data_models.process_description.AssessmentProcessDescription -->
<g id="edge2" class="edge">
<title>eya_def_tools.data_models.wind_resource.TurbineWindResourceAssessment:e&#45;&gt;eya_def_tools.data_models.process_description.AssessmentProcessDescription:w</title>
<path fill="none" stroke="black" d="M444,-485.5C530.02,-485.5 530.26,-578.45 603.88,-591.89"/>
<polygon fill="black" stroke="black" points="612.54,-592.64 622.11,-597.98 617.52,-593.07 622.5,-593.5 622.5,-593.5 622.5,-593.5 617.52,-593.07 622.89,-589.02 612.54,-592.64 612.54,-592.64"/>
<ellipse fill="none" stroke="black" cx="608.05" cy="-592.25" rx="4" ry="4"/>
</g>
<!-- eya_def_tools.data_models.wind_resource.TurbineWindResourceAssessment&#45;&gt;eya_def_tools.data_models.result.Result -->
<g id="edge3" class="edge">
<title>eya_def_tools.data_models.wind_resource.TurbineWindResourceAssessment:e&#45;&gt;eya_def_tools.data_models.result.Result:w</title>
<path fill="none" stroke="black" d="M444,-464.5C736.78,-464.5 1505.82,-571.05 1761,-427.5 1831.87,-387.63 1788.94,-279.79 1850.43,-262.77"/>
<polygon fill="black" stroke="black" points="1859.07,-261.72 1869.55,-264.97 1864.04,-261.11 1869,-260.5 1869,-260.5 1869,-260.5 1864.04,-261.11 1868.45,-256.03 1859.07,-261.72 1859.07,-261.72"/>
<ellipse fill="none" stroke="black" cx="1854.61" cy="-262.26" rx="4" ry="4"/>
</g>
<!-- eya_def_tools.data_models.wind_uncertainty.WindUncertaintyCategory -->
<g id="node5" class="node">
<title>eya_def_tools.data_models.wind_uncertainty.WindUncertaintyCategory</title>
<g id="a_node5"><a xlink:title="eya_def_tools.data_models.wind_uncertainty.WindUncertaintyCategory&#10;&#10;Category of a wind related uncertainty assessment.&#10;&#10;Attributes:&#10; &#160;&#160;&#160;label (WindUncertaintyCategoryLabel(StrEnum)): Label of the wind related uncertainty assessment category.&#10; &#160;&#160;&#160;description (Optional[str]): Description of the data object. Default is None.&#10; &#160;&#160;&#160;comments (Optional[str]): Comments on the data object. Default is None.&#10; &#160;&#160;&#160;subcategories (list[WindUncertaintySubcategory]): Wind related uncertainty assessment subcategories that fall under the category. The subcategory objects include details and results at the subcategory level.&#10; &#160;&#160;&#160;category_results (list[Result]): Wind related uncertainty assessment category result(s) as dimensionless relative values.&#10;">
<polygon fill="none" stroke="black" points="552.5,-388.5 552.5,-409.5 891.5,-409.5 891.5,-388.5 552.5,-388.5"/>
<text text-anchor="start" x="641" y="-396.3" font-family="Times New Roman,serif" font-weight="bold" font-size="14.00">WindUncertaintyCategory</text>
<polygon fill="none" stroke="black" points="552.5,-367.5 552.5,-388.5 650.5,-388.5 650.5,-367.5 552.5,-367.5"/>
<text text-anchor="start" x="588.5" y="-374.3" font-family="Times New Roman,serif" font-size="14.00">label</text>
<polygon fill="none" stroke="black" points="650.5,-367.5 650.5,-388.5 891.5,-388.5 891.5,-367.5 650.5,-367.5"/>
<text text-anchor="start" x="653.5" y="-374.3" font-family="Times New Roman,serif" font-size="14.00">WindUncertaintyCategoryLabel(StrEnum)</text>
<polygon fill="none" stroke="black" points="552.5,-346.5 552.5,-367.5 650.5,-367.5 650.5,-346.5 552.5,-346.5"/>
<text text-anchor="start" x="570" y="-353.3" font-family="Times New Roman,serif" font-size="14.00">description</text>
<polygon fill="none" stroke="black" points="650.5,-346.5 650.5,-367.5 891.5,-367.5 891.5,-346.5 650.5,-346.5"/>
<text text-anchor="start" x="735" y="-353.3" font-family="Times New Roman,serif" font-size="14.00">Optional[str]</text>
<polygon fill="none" stroke="black" points="552.5,-325.5 552.5,-346.5 650.5,-346.5 650.5,-325.5 552.5,-325.5"/>
<text text-anchor="start" x="572.5" y="-332.3" font-family="Times New Roman,serif" font-size="14.00">comments</text>
<polygon fill="none" stroke="black" points="650.5,-325.5 650.5,-346.5 891.5,-346.5 891.5,-325.5 650.5,-325.5"/>
<text text-anchor="start" x="735" y="-332.3" font-family="Times New Roman,serif" font-size="14.00">Optional[str]</text>
<polygon fill="none" stroke="black" points="552.5,-304.5 552.5,-325.5 650.5,-325.5 650.5,-304.5 552.5,-304.5"/>
<text text-anchor="start" x="563" y="-311.3" font-family="Times New Roman,serif" font-size="14.00">subcategories</text>
<polygon fill="none" stroke="black" points="650.5,-304.5 650.5,-325.5 891.5,-325.5 891.5,-304.5 650.5,-304.5"/>
<text text-anchor="start" x="676" y="-311.3" font-family="Times New Roman,serif" font-size="14.00">list[WindUncertaintySubcategory]</text>
<polygon fill="none" stroke="black" points="552.5,-283.5 552.5,-304.5 650.5,-304.5 650.5,-283.5 552.5,-283.5"/>
<text text-anchor="start" x="555.5" y="-290.3" font-family="Times New Roman,serif" font-size="14.00">category_results</text>
<polygon fill="none" stroke="black" points="650.5,-283.5 650.5,-304.5 891.5,-304.5 891.5,-283.5 650.5,-283.5"/>
<text text-anchor="start" x="740.5" y="-290.3" font-family="Times New Roman,serif" font-size="14.00">list[Result]</text>
</a>
</g>
</g>
<!-- eya_def_tools.data_models.wind_resource.TurbineWindResourceAssessment&#45;&gt;eya_def_tools.data_models.wind_uncertainty.WindUncertaintyCategory -->
<g id="edge4" class="edge">
<title>eya_def_tools.data_models.wind_resource.TurbineWindResourceAssessment:e&#45;&gt;eya_def_tools.data_models.wind_uncertainty.WindUncertaintyCategory:w</title>
<path fill="none" stroke="black" d="M444,-443.5C488.74,-443.5 498.1,-410.71 533.16,-401.74"/>
<polygon fill="black" stroke="black" points="542.07,-400.68 552.53,-403.97 547.04,-400.09 552,-399.5 552,-399.5 552,-399.5 547.04,-400.09 551.47,-395.03 542.07,-400.68 542.07,-400.68"/>
<ellipse fill="none" stroke="black" cx="537.6" cy="-401.21" rx="4" ry="4"/>
</g>
<!-- eya_def_tools.data_models.wind_uncertainty.WindUncertaintyCategory&#45;&gt;eya_def_tools.data_models.result.Result -->
<g id="edge5" class="edge">
<title>eya_def_tools.data_models.wind_uncertainty.WindUncertaintyCategory:e&#45;&gt;eya_def_tools.data_models.result.Result:w</title>
<path fill="none" stroke="black" d="M891,-293.5C954.34,-293.5 939.62,-222.54 999,-200.5 1316.64,-82.58 1428.81,-156.78 1761,-223.5 1803.94,-232.13 1815.42,-253.43 1850.39,-259.1"/>
<polygon fill="black" stroke="black" points="1859.03,-259.75 1868.66,-264.99 1864.01,-260.12 1869,-260.5 1869,-260.5 1869,-260.5 1864.01,-260.12 1869.34,-256.01 1859.03,-259.75 1859.03,-259.75"/>
<ellipse fill="none" stroke="black" cx="1854.54" cy="-259.41" rx="4" ry="4"/>
</g>
<!-- eya_def_tools.data_models.wind_uncertainty.WindUncertaintySubcategory -->
<g id="node6" class="node">
<title>eya_def_tools.data_models.wind_uncertainty.WindUncertaintySubcategory</title>
<g id="a_node6"><a xlink:title="eya_def_tools.data_models.wind_uncertainty.WindUncertaintySubcategory&#10;&#10;Subcategory of a wind related uncertainty assessment.&#10;&#10;Attributes:&#10; &#160;&#160;&#160;label (WindUncertaintySubcategoryLabel(StrEnum)): Label of the wind related uncertainty subcategory.&#10; &#160;&#160;&#160;description (Optional[str]): Description of the data object. Default is None.&#10; &#160;&#160;&#160;comments (Optional[str]): Comments on the data object. Default is None.&#10; &#160;&#160;&#160;elements (Optional[list[WindUncertaintySubcategoryElement]]): Wind related uncertainty assessment elements that fall under the subcategory. The element objects include details and results at the element level. A breakdown of wind related uncertainty subcategories into elements is optional and can be included only for a subset of the subcategories, as relevant. Whereas the categories and subcategories are fixed, the user may freely define element labels. Default is None.&#10; &#160;&#160;&#160;subcategory_results (list[Result]): Wind related uncertainty assessment subcategory result(s) as dimensionless relative values.&#10;">
<polygon fill="none" stroke="black" points="999,-323.5 999,-344.5 1415,-344.5 1415,-323.5 999,-323.5"/>
<text text-anchor="start" x="1116.5" y="-331.3" font-family="Times New Roman,serif" font-weight="bold" font-size="14.00">WindUncertaintySubcategory</text>
<polygon fill="none" stroke="black" points="999,-302.5 999,-323.5 1117,-323.5 1117,-302.5 999,-302.5"/>
<text text-anchor="start" x="1045" y="-309.3" font-family="Times New Roman,serif" font-size="14.00">label</text>
<polygon fill="none" stroke="black" points="1117,-302.5 1117,-323.5 1415,-323.5 1415,-302.5 1117,-302.5"/>
<text text-anchor="start" x="1139" y="-309.3" font-family="Times New Roman,serif" font-size="14.00">WindUncertaintySubcategoryLabel(StrEnum)</text>
<polygon fill="none" stroke="black" points="999,-281.5 999,-302.5 1117,-302.5 1117,-281.5 999,-281.5"/>
<text text-anchor="start" x="1026.5" y="-288.3" font-family="Times New Roman,serif" font-size="14.00">description</text>
<polygon fill="none" stroke="black" points="1117,-281.5 1117,-302.5 1415,-302.5 1415,-281.5 1117,-281.5"/>
<text text-anchor="start" x="1230" y="-288.3" font-family="Times New Roman,serif" font-size="14.00">Optional[str]</text>
<polygon fill="none" stroke="black" points="999,-260.5 999,-281.5 1117,-281.5 1117,-260.5 999,-260.5"/>
<text text-anchor="start" x="1029" y="-267.3" font-family="Times New Roman,serif" font-size="14.00">comments</text>
<polygon fill="none" stroke="black" points="1117,-260.5 1117,-281.5 1415,-281.5 1415,-260.5 1117,-260.5"/>
<text text-anchor="start" x="1230" y="-267.3" font-family="Times New Roman,serif" font-size="14.00">Optional[str]</text>
<polygon fill="none" stroke="black" points="999,-239.5 999,-260.5 1117,-260.5 1117,-239.5 999,-239.5"/>
<text text-anchor="start" x="1033.5" y="-246.3" font-family="Times New Roman,serif" font-size="14.00">elements</text>
<polygon fill="none" stroke="black" points="1117,-239.5 1117,-260.5 1415,-260.5 1415,-239.5 1117,-239.5"/>
<text text-anchor="start" x="1120" y="-246.3" font-family="Times New Roman,serif" font-size="14.00">Optional[list[WindUncertaintySubcategoryElement]]</text>
<polygon fill="none" stroke="black" points="999,-218.5 999,-239.5 1117,-239.5 1117,-218.5 999,-218.5"/>
<text text-anchor="start" x="1002" y="-225.3" font-family="Times New Roman,serif" font-size="14.00">subcategory_results</text>
<polygon fill="none" stroke="black" points="1117,-218.5 1117,-239.5 1415,-239.5 1415,-218.5 1117,-218.5"/>
<text text-anchor="start" x="1235.5" y="-225.3" font-family="Times New Roman,serif" font-size="14.00">list[Result]</text>
</a>
</g>
</g>
<!-- eya_def_tools.data_models.wind_uncertainty.WindUncertaintyCategory&#45;&gt;eya_def_tools.data_models.wind_uncertainty.WindUncertaintySubcategory -->
<g id="edge6" class="edge">
<title>eya_def_tools.data_models.wind_uncertainty.WindUncertaintyCategory:e&#45;&gt;eya_def_tools.data_models.wind_uncertainty.WindUncertaintySubcategory:w</title>
<path fill="none" stroke="black" d="M891,-314.5C932.95,-314.5 946.51,-329.27 980.47,-333.42"/>
<polygon fill="black" stroke="black" points="989.02,-333.92 998.74,-338.99 994.01,-334.21 999,-334.5 999,-334.5 999,-334.5 994.01,-334.21 999.26,-330.01 989.02,-333.92 989.02,-333.92"/>
<ellipse fill="none" stroke="black" cx="984.52" cy="-333.66" rx="4" ry="4"/>
</g>
<!-- eya_def_tools.data_models.wind_uncertainty.WindUncertaintySubcategory&#45;&gt;eya_def_tools.data_models.result.Result -->
<g id="edge7" class="edge">
<title>eya_def_tools.data_models.wind_uncertainty.WindUncertaintySubcategory:e&#45;&gt;eya_def_tools.data_models.result.Result:w</title>
<path fill="none" stroke="black" d="M1415,-228.5C1610.86,-228.5 1663.43,-258.5 1850.19,-260.41"/>
<polygon fill="black" stroke="black" points="1859,-260.45 1868.98,-265 1864,-260.47 1869,-260.5 1869,-260.5 1869,-260.5 1864,-260.47 1869.02,-256 1859,-260.45 1859,-260.45"/>
<ellipse fill="none" stroke="black" cx="1854.5" cy="-260.43" rx="4" ry="4"/>
</g>
<!-- eya_def_tools.data_models.wind_uncertainty.WindUncertaintySubcategoryElement -->
<g id="node7" class="node">
<title>eya_def_tools.data_models.wind_uncertainty.WindUncertaintySubcategoryElement</title>
<g id="a_node7"><a xlink:title="eya_def_tools.data_models.wind_uncertainty.WindUncertaintySubcategoryElement&#10;&#10;Subcategory element of a wind related uncertainty assessment.&#10;&#10;Attributes:&#10; &#160;&#160;&#160;label (str): Label of the wind related uncertainty subcategory element.&#10; &#160;&#160;&#160;description (Optional[str]): Description of the data object. Default is None.&#10; &#160;&#160;&#160;comments (Optional[str]): Comments on the data object. Default is None.&#10; &#160;&#160;&#160;is_independent (bool): Whether the wind related uncertainty subcategory element is independent of all other elements. Default is True.&#10; &#160;&#160;&#160;element_results (list[Result]): Wind related uncertainty assessment subcategory element result(s) as dimensionless relative values.&#10;">
<polygon fill="none" stroke="black" points="1523,-388.5 1523,-409.5 1761,-409.5 1761,-388.5 1523,-388.5"/>
<text text-anchor="start" x="1526" y="-396.3" font-family="Times New Roman,serif" font-weight="bold" font-size="14.00">WindUncertaintySubcategoryElement</text>
<polygon fill="none" stroke="black" points="1523,-367.5 1523,-388.5 1649,-388.5 1649,-367.5 1523,-367.5"/>
<text text-anchor="start" x="1573" y="-374.3" font-family="Times New Roman,serif" font-size="14.00">label</text>
<polygon fill="none" stroke="black" points="1649,-367.5 1649,-388.5 1761,-388.5 1761,-367.5 1649,-367.5"/>
<text text-anchor="start" x="1697.5" y="-374.3" font-family="Times New Roman,serif" font-size="14.00">str</text>
<polygon fill="none" stroke="black" points="1523,-346.5 1523,-367.5 1649,-367.5 1649,-346.5 1523,-346.5"/>
<text text-anchor="start" x="1554.5" y="-353.3" font-family="Times New Roman,serif" font-size="14.00">description</text>
<polygon fill="none" stroke="black" points="1649,-346.5 1649,-367.5 1761,-367.5 1761,-346.5 1649,-346.5"/>
<text text-anchor="start" x="1669" y="-353.3" font-family="Times New Roman,serif" font-size="14.00">Optional[str]</text>
<polygon fill="none" stroke="black" points="1523,-325.5 1523,-346.5 1649,-346.5 1649,-325.5 1523,-325.5"/>
<text text-anchor="start" x="1557" y="-332.3" font-family="Times New Roman,serif" font-size="14.00">comments</text>
<polygon fill="none" stroke="black" points="1649,-325.5 1649,-346.5 1761,-346.5 1761,-325.5 1649,-325.5"/>
<text text-anchor="start" x="1669" y="-332.3" font-family="Times New Roman,serif" font-size="14.00">Optional[str]</text>
<polygon fill="none" stroke="black" points="1523,-304.5 1523,-325.5 1649,-325.5 1649,-304.5 1523,-304.5"/>
<text text-anchor="start" x="1543.5" y="-311.3" font-family="Times New Roman,serif" font-size="14.00">is_independent</text>
<polygon fill="none" stroke="black" points="1649,-304.5 1649,-325.5 1761,-325.5 1761,-304.5 1649,-304.5"/>
<text text-anchor="start" x="1692" y="-311.3" font-family="Times New Roman,serif" font-size="14.00">bool</text>
<polygon fill="none" stroke="black" points="1523,-283.5 1523,-304.5 1649,-304.5 1649,-283.5 1523,-283.5"/>
<text text-anchor="start" x="1543" y="-290.3" font-family="Times New Roman,serif" font-size="14.00">element_results</text>
<polygon fill="none" stroke="black" points="1649,-283.5 1649,-304.5 1761,-304.5 1761,-283.5 1649,-283.5"/>
<text text-anchor="start" x="1674.5" y="-290.3" font-family="Times New Roman,serif" font-size="14.00">list[Result]</text>
</a>
</g>
</g>
<!-- eya_def_tools.data_models.wind_uncertainty.WindUncertaintySubcategory&#45;&gt;eya_def_tools.data_models.wind_uncertainty.WindUncertaintySubcategoryElement -->
<g id="edge8" class="edge">
<title>eya_def_tools.data_models.wind_uncertainty.WindUncertaintySubcategory:e&#45;&gt;eya_def_tools.data_models.wind_uncertainty.WindUncertaintySubcategoryElement:w</title>
<path fill="none" stroke="black" d="M1415,-249.5C1489.93,-249.5 1449.68,-374.29 1504.36,-396.23"/>
<polygon fill="black" stroke="black" points="1513.15,-397.77 1522.22,-403.93 1518.08,-398.64 1523,-399.5 1523,-399.5 1523,-399.5 1518.08,-398.64 1523.78,-395.07 1513.15,-397.77 1513.15,-397.77"/>
<ellipse fill="none" stroke="black" cx="1508.72" cy="-396.99" rx="4" ry="4"/>
</g>
<!-- eya_def_tools.data_models.wind_uncertainty.WindUncertaintySubcategoryElement&#45;&gt;eya_def_tools.data_models.result.Result -->
<g id="edge9" class="edge">
<title>eya_def_tools.data_models.wind_uncertainty.WindUncertaintySubcategoryElement:e&#45;&gt;eya_def_tools.data_models.result.Result:w</title>
<path fill="none" stroke="black" d="M1761,-293.5C1804.13,-293.5 1815.82,-269.13 1850.11,-262.27"/>
<polygon fill="black" stroke="black" points="1859.04,-261.44 1869.42,-264.98 1864.02,-260.97 1869,-260.5 1869,-260.5 1869,-260.5 1864.02,-260.97 1868.58,-256.02 1859.04,-261.44 1859.04,-261.44"/>
<ellipse fill="none" stroke="black" cx="1854.56" cy="-261.86" rx="4" ry="4"/>
</g>
</g>
</svg>
