<?xml version="1.0" encoding="UTF-8" standalone="no"?>
<!DOCTYPE svg PUBLIC "-//W3C//DTD SVG 1.1//EN"
 "http://www.w3.org/Graphics/SVG/1.1/DTD/svg11.dtd">
<!-- Generated by graphviz version 12.2.1 (20241206.2353)
 -->
<!-- Title: Entity Relationship Diagram created by erdantic Pages: 1 -->
<svg width="1339pt" height="498pt"
 viewBox="0.00 0.00 1339.25 498.25" xmlns="http://www.w3.org/2000/svg" xmlns:xlink="http://www.w3.org/1999/xlink">
<g id="graph0" class="graph" transform="scale(1 1) rotate(0) translate(4 494.25)">
<title>Entity Relationship Diagram created by erdantic</title>
<polygon fill="white" stroke="none" points="-4,4 -4,-494.25 1335.25,-494.25 1335.25,4 -4,4"/>
<text text-anchor="middle" x="665.62" y="-5.95" font-family="Times New Roman,Times,Liberation Serif,serif" font-size="9.00" fill="#a8a8a8">Created by erdantic v1.0.5 &lt;https://github.com/drivendataorg/erdantic&gt;</text>
<!-- eya_def_tools.data_models.spatial.Location -->
<g id="node1" class="node">
<title>eya_def_tools.data_models.spatial.Location</title>
<g id="a_node1"><a xlink:title="eya_def_tools.data_models.spatial.Location&#10;&#10;Specification of a horizontal location in space.&#10;&#10;Fields:&#10; &#160;&#160;&#160;x: Location x&#45;coordinate (typically easting).&#10; &#160;&#160;&#160;y: Location y&#45;coordinate (typically northing).&#10;">
<polygon fill="none" stroke="black" points="1163.25,-321.25 1163.25,-343.75 1254.75,-343.75 1254.75,-321.25 1163.25,-321.25"/>
<text text-anchor="start" x="1183.5" y="-328.45" font-family="Times New Roman,Times,Liberation Serif,serif" font-weight="bold" font-size="14.00">Location</text>
<polygon fill="none" stroke="black" points="1163.25,-298.75 1163.25,-321.25 1176,-321.25 1176,-298.75 1163.25,-298.75"/>
<text text-anchor="start" x="1166.25" y="-304.95" font-family="Times New Roman,Times,Liberation Serif,serif" font-size="14.00">x</text>
<polygon fill="none" stroke="black" points="1176,-298.75 1176,-321.25 1206.75,-321.25 1206.75,-298.75 1176,-298.75"/>
<text text-anchor="start" x="1179" y="-304.95" font-family="Times New Roman,Times,Liberation Serif,serif" font-size="14.00">float</text>
<polygon fill="none" stroke="black" points="1206.75,-298.75 1206.75,-321.25 1254.75,-321.25 1254.75,-298.75 1206.75,-298.75"/>
<text text-anchor="start" x="1209.75" y="-304.95" font-family="Times New Roman,Times,Liberation Serif,serif" font-size="14.00">number</text>
<polygon fill="none" stroke="black" points="1163.25,-276.25 1163.25,-298.75 1176,-298.75 1176,-276.25 1163.25,-276.25"/>
<text text-anchor="start" x="1166.25" y="-282.45" font-family="Times New Roman,Times,Liberation Serif,serif" font-size="14.00">y</text>
<polygon fill="none" stroke="black" points="1176,-276.25 1176,-298.75 1206.75,-298.75 1206.75,-276.25 1176,-276.25"/>
<text text-anchor="start" x="1179" y="-282.45" font-family="Times New Roman,Times,Liberation Serif,serif" font-size="14.00">float</text>
<polygon fill="none" stroke="black" points="1206.75,-276.25 1206.75,-298.75 1254.75,-298.75 1254.75,-276.25 1206.75,-276.25"/>
<text text-anchor="start" x="1209.75" y="-282.45" font-family="Times New Roman,Times,Liberation Serif,serif" font-size="14.00">number</text>
</a>
</g>
</g>
<!-- eya_def_tools.data_models.wind_farm.OperationalRestriction -->
<g id="node2" class="node">
<title>eya_def_tools.data_models.wind_farm.OperationalRestriction</title>
<g id="a_node2"><a xlink:title="eya_def_tools.data_models.wind_farm.OperationalRestriction&#10;&#10;Specifications of a restriction that limits power output.&#10;&#10;In the current draft of the schema, &#39;label&#39;, &#39;description&#39; and&#10;&#39;comments&#39; fields are available to describe the restriction with&#10;free text. This is intended to be expanded into a more comprehensive&#10;data model.&#10;&#10;Fields:&#10; &#160;&#160;&#160;label: Short label to indicate the type of operational restriction.&#10; &#160;&#160;&#160;description: Description of the operational restriction.&#10; &#160;&#160;&#160;comments: Optional comments on the operational restriction, which should not be empty if the field is included. Default is None.&#10; &#160;&#160;&#160;start_datetime: Optional operational restriction start datetime in the ISO 8601 standard format with the &#39;T&#39; required between the calendar date and time, i.e. YYYY&#45;MM&#45;DDThh:mm:ss. In cases where the time is not relevant (i.e. only the date is relevant), hours, minutes and seconds shall all be set to zero. If using the time part, the timezone of the data must be consistent with the UTC offset specified for the EYA DEF document. Default is None.&#10; &#160;&#160;&#160;end_datetime: Optional operational restriction end datetime in the ISO 8601 standard format with the &#39;T&#39; required between the calendar date and time, i.e. YYYY&#45;MM&#45;DDThh:mm:ss. In cases where the time is not relevant (i.e. only the date is relevant), hours, minutes and seconds shall all be set to zero. If using the time part, the timezone of the data must be consistent with the UTC offset specified for the EYA DEF document. Default is None.&#10;">
<polygon fill="none" stroke="black" points="1086.75,-131 1086.75,-153.5 1331.25,-153.5 1331.25,-131 1086.75,-131"/>
<text text-anchor="start" x="1141.88" y="-138.2" font-family="Times New Roman,Times,Liberation Serif,serif" font-weight="bold" font-size="14.00">OperationalRestriction</text>
<polygon fill="none" stroke="black" points="1086.75,-108.5 1086.75,-131 1170,-131 1170,-108.5 1086.75,-108.5"/>
<text text-anchor="start" x="1115.25" y="-114.7" font-family="Times New Roman,Times,Liberation Serif,serif" font-size="14.00">label</text>
<polygon fill="none" stroke="black" points="1170,-108.5 1170,-131 1263,-131 1263,-108.5 1170,-108.5"/>
<text text-anchor="start" x="1209.75" y="-114.7" font-family="Times New Roman,Times,Liberation Serif,serif" font-size="14.00">str</text>
<polygon fill="none" stroke="black" points="1263,-108.5 1263,-131 1331.25,-131 1331.25,-108.5 1263,-108.5"/>
<text text-anchor="start" x="1281.75" y="-114.7" font-family="Times New Roman,Times,Liberation Serif,serif" font-size="14.00">string</text>
<polygon fill="none" stroke="black" points="1086.75,-86 1086.75,-108.5 1170,-108.5 1170,-86 1086.75,-86"/>
<text text-anchor="start" x="1098.38" y="-92.2" font-family="Times New Roman,Times,Liberation Serif,serif" font-size="14.00">description</text>
<polygon fill="none" stroke="black" points="1170,-86 1170,-108.5 1263,-108.5 1263,-86 1170,-86"/>
<text text-anchor="start" x="1209.75" y="-92.2" font-family="Times New Roman,Times,Liberation Serif,serif" font-size="14.00">str</text>
<polygon fill="none" stroke="black" points="1263,-86 1263,-108.5 1331.25,-108.5 1331.25,-86 1263,-86"/>
<text text-anchor="start" x="1281.75" y="-92.2" font-family="Times New Roman,Times,Liberation Serif,serif" font-size="14.00">string</text>
<polygon fill="none" stroke="black" points="1086.75,-63.5 1086.75,-86 1170,-86 1170,-63.5 1086.75,-63.5"/>
<text text-anchor="start" x="1099.88" y="-69.7" font-family="Times New Roman,Times,Liberation Serif,serif" font-size="14.00">comments</text>
<polygon fill="none" stroke="black" points="1170,-63.5 1170,-86 1263,-86 1263,-63.5 1170,-63.5"/>
<text text-anchor="start" x="1189.88" y="-69.7" font-family="Times New Roman,Times,Liberation Serif,serif" font-size="14.00">str | None</text>
<polygon fill="none" stroke="black" points="1263,-63.5 1263,-86 1331.25,-86 1331.25,-63.5 1263,-63.5"/>
<text text-anchor="start" x="1266" y="-69.7" font-family="Times New Roman,Times,Liberation Serif,serif" font-size="14.00">string | null</text>
<polygon fill="none" stroke="black" points="1086.75,-41 1086.75,-63.5 1170,-63.5 1170,-41 1086.75,-41"/>
<text text-anchor="start" x="1089.75" y="-47.2" font-family="Times New Roman,Times,Liberation Serif,serif" font-size="14.00">start_datetime</text>
<polygon fill="none" stroke="black" points="1170,-41 1170,-63.5 1263,-63.5 1263,-41 1170,-41"/>
<text text-anchor="start" x="1173" y="-47.2" font-family="Times New Roman,Times,Liberation Serif,serif" font-size="14.00">datetime | None</text>
<polygon fill="none" stroke="black" points="1263,-41 1263,-63.5 1331.25,-63.5 1331.25,-41 1263,-41"/>
<text text-anchor="start" x="1266" y="-47.2" font-family="Times New Roman,Times,Liberation Serif,serif" font-size="14.00">string | null</text>
<polygon fill="none" stroke="black" points="1086.75,-18.5 1086.75,-41 1170,-41 1170,-18.5 1086.75,-18.5"/>
<text text-anchor="start" x="1091.62" y="-24.7" font-family="Times New Roman,Times,Liberation Serif,serif" font-size="14.00">end_datetime</text>
<polygon fill="none" stroke="black" points="1170,-18.5 1170,-41 1263,-41 1263,-18.5 1170,-18.5"/>
<text text-anchor="start" x="1173" y="-24.7" font-family="Times New Roman,Times,Liberation Serif,serif" font-size="14.00">datetime | None</text>
<polygon fill="none" stroke="black" points="1263,-18.5 1263,-41 1331.25,-41 1331.25,-18.5 1263,-18.5"/>
<text text-anchor="start" x="1266" y="-24.7" font-family="Times New Roman,Times,Liberation Serif,serif" font-size="14.00">string | null</text>
</a>
</g>
</g>
<!-- eya_def_tools.data_models.wind_farm.TurbineConfiguration -->
<g id="node3" class="node">
<title>eya_def_tools.data_models.wind_farm.TurbineConfiguration</title>
<g id="a_node3"><a xlink:title="eya_def_tools.data_models.wind_farm.TurbineConfiguration&#10;&#10;Specification of all details for a turbine configuration.&#10;&#10;Fields:&#10; &#160;&#160;&#160;id: Unique identifier of the turbine.&#10; &#160;&#160;&#160;label: Label of the turbine, if different from the &#39;id&#39;. Default is None.&#10; &#160;&#160;&#160;description: Optional description of the turbine, which should not be empty if the field is included. Default is None.&#10; &#160;&#160;&#160;comments: Optional comments on the turbine, which should not be empty if the field is included. Default is None.&#10; &#160;&#160;&#160;location: The horizontal spatial location of the turbine.&#10; &#160;&#160;&#160;ground_level_altitude: The ground level altitude (base elevation) of the turbine (in m).&#10; &#160;&#160;&#160;hub_height: The hub height of the turbine above ground level (in m).&#10; &#160;&#160;&#160;turbine_model: The unique identifier for the model of the turbine, which should correspond to the value of the field &#39;model_name&#39; under &#39;turbine&#39; in the IEC 61400&#45;16 Power Curve Schema.&#10; &#160;&#160;&#160;baseline_operating_mode: The unique identifier for the baseline operating mode of the turbine (the operating mode used in the calculation of gross energy yield), which should correspond to the value of the field &#39;label&#39; under &#39;power_curves&#39; and &#39;operating_modes&#39; in the IEC 61400&#45;16 Power Curve Schema.&#10; &#160;&#160;&#160;assessment_period_start_date: Optional assessment period start date of the individual turbine in the ISO 8601 standard format for a calendar date, i.e. YYYY&#45;MM&#45;DD. Default is None.&#10; &#160;&#160;&#160;assessment_period_end_date: Optional assessment period end date of the individual turbine in the ISO 8601 standard format for a calendar date, i.e. YYYY&#45;MM&#45;DD. Default is None.&#10; &#160;&#160;&#160;restrictions: List of operational restrictions at the turbine level. Default is None.&#10;">
<polygon fill="none" stroke="black" points="549,-433.75 549,-456.25 978.75,-456.25 978.75,-433.75 549,-433.75"/>
<text text-anchor="start" x="699.75" y="-440.95" font-family="Times New Roman,Times,Liberation Serif,serif" font-weight="bold" font-size="14.00">TurbineConfiguration</text>
<polygon fill="none" stroke="black" points="549,-411.25 549,-433.75 716.25,-433.75 716.25,-411.25 549,-411.25"/>
<text text-anchor="start" x="627.38" y="-417.45" font-family="Times New Roman,Times,Liberation Serif,serif" font-size="14.00">id</text>
<polygon fill="none" stroke="black" points="716.25,-411.25 716.25,-433.75 910.5,-433.75 910.5,-411.25 716.25,-411.25"/>
<text text-anchor="start" x="806.62" y="-417.45" font-family="Times New Roman,Times,Liberation Serif,serif" font-size="14.00">str</text>
<polygon fill="none" stroke="black" points="910.5,-411.25 910.5,-433.75 978.75,-433.75 978.75,-411.25 910.5,-411.25"/>
<text text-anchor="start" x="929.25" y="-417.45" font-family="Times New Roman,Times,Liberation Serif,serif" font-size="14.00">string</text>
<polygon fill="none" stroke="black" points="549,-388.75 549,-411.25 716.25,-411.25 716.25,-388.75 549,-388.75"/>
<text text-anchor="start" x="619.5" y="-394.95" font-family="Times New Roman,Times,Liberation Serif,serif" font-size="14.00">label</text>
<polygon fill="none" stroke="black" points="716.25,-388.75 716.25,-411.25 910.5,-411.25 910.5,-388.75 716.25,-388.75"/>
<text text-anchor="start" x="786.75" y="-394.95" font-family="Times New Roman,Times,Liberation Serif,serif" font-size="14.00">str | None</text>
<polygon fill="none" stroke="black" points="910.5,-388.75 910.5,-411.25 978.75,-411.25 978.75,-388.75 910.5,-388.75"/>
<text text-anchor="start" x="913.5" y="-394.95" font-family="Times New Roman,Times,Liberation Serif,serif" font-size="14.00">string | null</text>
<polygon fill="none" stroke="black" points="549,-366.25 549,-388.75 716.25,-388.75 716.25,-366.25 549,-366.25"/>
<text text-anchor="start" x="602.62" y="-372.45" font-family="Times New Roman,Times,Liberation Serif,serif" font-size="14.00">description</text>
<polygon fill="none" stroke="black" points="716.25,-366.25 716.25,-388.75 910.5,-388.75 910.5,-366.25 716.25,-366.25"/>
<text text-anchor="start" x="786.75" y="-372.45" font-family="Times New Roman,Times,Liberation Serif,serif" font-size="14.00">str | None</text>
<polygon fill="none" stroke="black" points="910.5,-366.25 910.5,-388.75 978.75,-388.75 978.75,-366.25 910.5,-366.25"/>
<text text-anchor="start" x="913.5" y="-372.45" font-family="Times New Roman,Times,Liberation Serif,serif" font-size="14.00">string | null</text>
<polygon fill="none" stroke="black" points="549,-343.75 549,-366.25 716.25,-366.25 716.25,-343.75 549,-343.75"/>
<text text-anchor="start" x="604.12" y="-349.95" font-family="Times New Roman,Times,Liberation Serif,serif" font-size="14.00">comments</text>
<polygon fill="none" stroke="black" points="716.25,-343.75 716.25,-366.25 910.5,-366.25 910.5,-343.75 716.25,-343.75"/>
<text text-anchor="start" x="786.75" y="-349.95" font-family="Times New Roman,Times,Liberation Serif,serif" font-size="14.00">str | None</text>
<polygon fill="none" stroke="black" points="910.5,-343.75 910.5,-366.25 978.75,-366.25 978.75,-343.75 910.5,-343.75"/>
<text text-anchor="start" x="913.5" y="-349.95" font-family="Times New Roman,Times,Liberation Serif,serif" font-size="14.00">string | null</text>
<polygon fill="none" stroke="black" points="549,-321.25 549,-343.75 716.25,-343.75 716.25,-321.25 549,-321.25"/>
<text text-anchor="start" x="610.88" y="-327.45" font-family="Times New Roman,Times,Liberation Serif,serif" font-size="14.00">location</text>
<polygon fill="none" stroke="black" points="716.25,-321.25 716.25,-343.75 910.5,-343.75 910.5,-321.25 716.25,-321.25"/>
<text text-anchor="start" x="789.38" y="-327.45" font-family="Times New Roman,Times,Liberation Serif,serif" font-size="14.00">Location</text>
<polygon fill="none" stroke="black" points="910.5,-321.25 910.5,-343.75 978.75,-343.75 978.75,-321.25 910.5,-321.25"/>
<text text-anchor="start" x="928.12" y="-327.45" font-family="Times New Roman,Times,Liberation Serif,serif" font-size="14.00">object</text>
<polygon fill="none" stroke="black" points="549,-298.75 549,-321.25 716.25,-321.25 716.25,-298.75 549,-298.75"/>
<text text-anchor="start" x="573.38" y="-304.95" font-family="Times New Roman,Times,Liberation Serif,serif" font-size="14.00">ground_level_altitude</text>
<polygon fill="none" stroke="black" points="716.25,-298.75 716.25,-321.25 910.5,-321.25 910.5,-298.75 716.25,-298.75"/>
<text text-anchor="start" x="801" y="-304.95" font-family="Times New Roman,Times,Liberation Serif,serif" font-size="14.00">float</text>
<polygon fill="none" stroke="black" points="910.5,-298.75 910.5,-321.25 978.75,-321.25 978.75,-298.75 910.5,-298.75"/>
<text text-anchor="start" x="923.62" y="-304.95" font-family="Times New Roman,Times,Liberation Serif,serif" font-size="14.00">number</text>
<polygon fill="none" stroke="black" points="549,-276.25 549,-298.75 716.25,-298.75 716.25,-276.25 549,-276.25"/>
<text text-anchor="start" x="602.25" y="-282.45" font-family="Times New Roman,Times,Liberation Serif,serif" font-size="14.00">hub_height</text>
<polygon fill="none" stroke="black" points="716.25,-276.25 716.25,-298.75 910.5,-298.75 910.5,-276.25 716.25,-276.25"/>
<text text-anchor="start" x="801" y="-282.45" font-family="Times New Roman,Times,Liberation Serif,serif" font-size="14.00">float</text>
<polygon fill="none" stroke="black" points="910.5,-276.25 910.5,-298.75 978.75,-298.75 978.75,-276.25 910.5,-276.25"/>
<text text-anchor="start" x="923.62" y="-282.45" font-family="Times New Roman,Times,Liberation Serif,serif" font-size="14.00">number</text>
<polygon fill="none" stroke="black" points="549,-253.75 549,-276.25 716.25,-276.25 716.25,-253.75 549,-253.75"/>
<text text-anchor="start" x="592.88" y="-259.95" font-family="Times New Roman,Times,Liberation Serif,serif" font-size="14.00">turbine_model</text>
<polygon fill="none" stroke="black" points="716.25,-253.75 716.25,-276.25 910.5,-276.25 910.5,-253.75 716.25,-253.75"/>
<text text-anchor="start" x="806.62" y="-259.95" font-family="Times New Roman,Times,Liberation Serif,serif" font-size="14.00">str</text>
<polygon fill="none" stroke="black" points="910.5,-253.75 910.5,-276.25 978.75,-276.25 978.75,-253.75 910.5,-253.75"/>
<text text-anchor="start" x="929.25" y="-259.95" font-family="Times New Roman,Times,Liberation Serif,serif" font-size="14.00">string</text>
<polygon fill="none" stroke="black" points="549,-231.25 549,-253.75 716.25,-253.75 716.25,-231.25 549,-231.25"/>
<text text-anchor="start" x="562.88" y="-237.45" font-family="Times New Roman,Times,Liberation Serif,serif" font-size="14.00">baseline_operating_mode</text>
<polygon fill="none" stroke="black" points="716.25,-231.25 716.25,-253.75 910.5,-253.75 910.5,-231.25 716.25,-231.25"/>
<text text-anchor="start" x="806.62" y="-237.45" font-family="Times New Roman,Times,Liberation Serif,serif" font-size="14.00">str</text>
<polygon fill="none" stroke="black" points="910.5,-231.25 910.5,-253.75 978.75,-253.75 978.75,-231.25 910.5,-231.25"/>
<text text-anchor="start" x="929.25" y="-237.45" font-family="Times New Roman,Times,Liberation Serif,serif" font-size="14.00">string</text>
<polygon fill="none" stroke="black" points="549,-208.75 549,-231.25 716.25,-231.25 716.25,-208.75 549,-208.75"/>
<text text-anchor="start" x="552" y="-214.95" font-family="Times New Roman,Times,Liberation Serif,serif" font-size="14.00">assessment_period_start_date</text>
<polygon fill="none" stroke="black" points="716.25,-208.75 716.25,-231.25 910.5,-231.25 910.5,-208.75 716.25,-208.75"/>
<text text-anchor="start" x="782.25" y="-214.95" font-family="Times New Roman,Times,Liberation Serif,serif" font-size="14.00">date | None</text>
<polygon fill="none" stroke="black" points="910.5,-208.75 910.5,-231.25 978.75,-231.25 978.75,-208.75 910.5,-208.75"/>
<text text-anchor="start" x="913.5" y="-214.95" font-family="Times New Roman,Times,Liberation Serif,serif" font-size="14.00">string | null</text>
<polygon fill="none" stroke="black" points="549,-186.25 549,-208.75 716.25,-208.75 716.25,-186.25 549,-186.25"/>
<text text-anchor="start" x="553.88" y="-192.45" font-family="Times New Roman,Times,Liberation Serif,serif" font-size="14.00">assessment_period_end_date</text>
<polygon fill="none" stroke="black" points="716.25,-186.25 716.25,-208.75 910.5,-208.75 910.5,-186.25 716.25,-186.25"/>
<text text-anchor="start" x="782.25" y="-192.45" font-family="Times New Roman,Times,Liberation Serif,serif" font-size="14.00">date | None</text>
<polygon fill="none" stroke="black" points="910.5,-186.25 910.5,-208.75 978.75,-208.75 978.75,-186.25 910.5,-186.25"/>
<text text-anchor="start" x="913.5" y="-192.45" font-family="Times New Roman,Times,Liberation Serif,serif" font-size="14.00">string | null</text>
<polygon fill="none" stroke="black" points="549,-163.75 549,-186.25 716.25,-186.25 716.25,-163.75 549,-163.75"/>
<text text-anchor="start" x="602.62" y="-169.95" font-family="Times New Roman,Times,Liberation Serif,serif" font-size="14.00">restrictions</text>
<polygon fill="none" stroke="black" points="716.25,-163.75 716.25,-186.25 910.5,-186.25 910.5,-163.75 716.25,-163.75"/>
<text text-anchor="start" x="719.25" y="-169.95" font-family="Times New Roman,Times,Liberation Serif,serif" font-size="14.00">list[OperationalRestriction] | None</text>
<polygon fill="none" stroke="black" points="910.5,-163.75 910.5,-186.25 978.75,-186.25 978.75,-163.75 910.5,-163.75"/>
<text text-anchor="start" x="915" y="-169.95" font-family="Times New Roman,Times,Liberation Serif,serif" font-size="14.00">array | null</text>
</a>
</g>
</g>
<!-- eya_def_tools.data_models.wind_farm.TurbineConfiguration&#45;&gt;eya_def_tools.data_models.spatial.Location -->
<g id="edge1" class="edge">
<title>eya_def_tools.data_models.wind_farm.TurbineConfiguration:e&#45;&gt;eya_def_tools.data_models.spatial.Location:w</title>
<path fill="none" stroke="black" d="M988.48,-332.5C1057.19,-332.5 1080.9,-332.5 1147.38,-332.5"/>
<polyline fill="none" stroke="black" points="978.75,-332.5 983.75,-332.5"/>
<polyline fill="none" stroke="black" points="983.75,-332.5 988.75,-332.5"/>
<polyline fill="none" stroke="black" points="1162.25,-332.5 1157.25,-332.5"/>
<polygon fill="black" stroke="black" points="1156.25,-327.5 1156.25,-337.5 1154.25,-337.5 1154.25,-327.5 1156.25,-327.5"/>
<polyline fill="none" stroke="black" points="1157.25,-332.5 1152.25,-332.5"/>
<polygon fill="black" stroke="black" points="1151.25,-327.5 1151.25,-337.5 1149.25,-337.5 1149.25,-327.5 1151.25,-327.5"/>
<polyline fill="none" stroke="black" points="1152.25,-332.5 1147.25,-332.5"/>
</g>
<!-- eya_def_tools.data_models.wind_farm.TurbineConfiguration&#45;&gt;eya_def_tools.data_models.wind_farm.OperationalRestriction -->
<g id="edge2" class="edge">
<title>eya_def_tools.data_models.wind_farm.TurbineConfiguration:e&#45;&gt;eya_def_tools.data_models.wind_farm.OperationalRestriction:w</title>
<path fill="none" stroke="black" d="M988.73,-174.54C1025.5,-171.01 1037.47,-148.35 1072.22,-143.26"/>
<polyline fill="none" stroke="black" points="978.75,-175 983.74,-174.77"/>
<polyline fill="none" stroke="black" points="983.74,-174.77 988.74,-174.54"/>
<polyline fill="none" stroke="black" points="1086.75,-142.25 1081.76,-142.6"/>
<polygon fill="black" stroke="black" points="1080.42,-137.68 1081.11,-147.66 1079.12,-147.79 1078.42,-137.82 1080.42,-137.68"/>
<polyline fill="none" stroke="black" points="1081.76,-142.6 1076.77,-142.95"/>
<polygon fill="black" stroke="black" points="1075.43,-138.03 1076.12,-148 1074.13,-148.14 1073.43,-138.17 1075.43,-138.03"/>
<polyline fill="none" stroke="black" points="1076.77,-142.95 1071.79,-143.29"/>
</g>
<!-- eya_def_tools.data_models.wind_farm.WindFarmConfiguration -->
<g id="node4" class="node">
<title>eya_def_tools.data_models.wind_farm.WindFarmConfiguration</title>
<g id="a_node4"><a xlink:title="eya_def_tools.data_models.wind_farm.WindFarmConfiguration&#10;&#10;A collection of wind turbines considered as one unit (plant).&#10;&#10;Fields:&#10; &#160;&#160;&#160;id: Unique identifier of the wind farm.&#10; &#160;&#160;&#160;label: Label or name of the wind farm.&#10; &#160;&#160;&#160;abbreviation: Optional abbreviated label of the wind farm. Default is None.&#10; &#160;&#160;&#160;description: Optional description of the wind farm, which should not be empty if the field is included. Default is None.&#10; &#160;&#160;&#160;comments: Optional comments on the wind farm, which should not be empty if the field is included. Default is None.&#10; &#160;&#160;&#160;turbines: List of specifications for constituent turbines.&#10; &#160;&#160;&#160;relevance: The relevance of the wind farm for the assessment (&#39;internal&#39;, &#39;external&#39; or &#39;future&#39;).&#10; &#160;&#160;&#160;assessment_period_start_date: The assessment period start date of the wind farm in the ISO 8601 standard format for a calendar date, i.e. YYYY&#45;MM&#45;DD.&#10; &#160;&#160;&#160;assessment_period_end_date: The assessment period end date of the wind farm in the ISO 8601 standard format for a calendar date, i.e. YYYY&#45;MM&#45;DD.&#10; &#160;&#160;&#160;installed_capacity: The maximum production (in W) of the wind farm under typical conditions. If there are features in place to increase power output beyond the stated nameplate power of the turbines (e.g. so&#45;called power boost solutions), the wind farm installed capacity should correspond to that increased power, insofar as it is reached under typical conditions and not only in rare exceptions.&#10; &#160;&#160;&#160;export_capacity: Optional specification of the maximum permanently transmittable power (in W) from the wind farm at the grid connection, or equivalent, if known. If not included it shall be assumed that the wind farm can transmit the full produced output. Default is None.&#10; &#160;&#160;&#160;restrictions: List of operational restrictions at the wind farm level. Default is None.&#10;">
<polygon fill="none" stroke="black" points="0,-467.75 0,-490.25 441,-490.25 441,-467.75 0,-467.75"/>
<text text-anchor="start" x="147" y="-474.95" font-family="Times New Roman,Times,Liberation Serif,serif" font-weight="bold" font-size="14.00">WindFarmConfiguration</text>
<polygon fill="none" stroke="black" points="0,-445.25 0,-467.75 167.25,-467.75 167.25,-445.25 0,-445.25"/>
<text text-anchor="start" x="78.38" y="-451.45" font-family="Times New Roman,Times,Liberation Serif,serif" font-size="14.00">id</text>
<polygon fill="none" stroke="black" points="167.25,-445.25 167.25,-467.75 361.5,-467.75 361.5,-445.25 167.25,-445.25"/>
<text text-anchor="start" x="257.62" y="-451.45" font-family="Times New Roman,Times,Liberation Serif,serif" font-size="14.00">str</text>
<polygon fill="none" stroke="black" points="361.5,-445.25 361.5,-467.75 441,-467.75 441,-445.25 361.5,-445.25"/>
<text text-anchor="start" x="385.88" y="-451.45" font-family="Times New Roman,Times,Liberation Serif,serif" font-size="14.00">string</text>
<polygon fill="none" stroke="black" points="0,-422.75 0,-445.25 167.25,-445.25 167.25,-422.75 0,-422.75"/>
<text text-anchor="start" x="70.5" y="-428.95" font-family="Times New Roman,Times,Liberation Serif,serif" font-size="14.00">label</text>
<polygon fill="none" stroke="black" points="167.25,-422.75 167.25,-445.25 361.5,-445.25 361.5,-422.75 167.25,-422.75"/>
<text text-anchor="start" x="257.62" y="-428.95" font-family="Times New Roman,Times,Liberation Serif,serif" font-size="14.00">str</text>
<polygon fill="none" stroke="black" points="361.5,-422.75 361.5,-445.25 441,-445.25 441,-422.75 361.5,-422.75"/>
<text text-anchor="start" x="385.88" y="-428.95" font-family="Times New Roman,Times,Liberation Serif,serif" font-size="14.00">string</text>
<polygon fill="none" stroke="black" points="0,-400.25 0,-422.75 167.25,-422.75 167.25,-400.25 0,-400.25"/>
<text text-anchor="start" x="49.88" y="-406.45" font-family="Times New Roman,Times,Liberation Serif,serif" font-size="14.00">abbreviation</text>
<polygon fill="none" stroke="black" points="167.25,-400.25 167.25,-422.75 361.5,-422.75 361.5,-400.25 167.25,-400.25"/>
<text text-anchor="start" x="237.75" y="-406.45" font-family="Times New Roman,Times,Liberation Serif,serif" font-size="14.00">str | None</text>
<polygon fill="none" stroke="black" points="361.5,-400.25 361.5,-422.75 441,-422.75 441,-400.25 361.5,-400.25"/>
<text text-anchor="start" x="370.12" y="-406.45" font-family="Times New Roman,Times,Liberation Serif,serif" font-size="14.00">string | null</text>
<polygon fill="none" stroke="black" points="0,-377.75 0,-400.25 167.25,-400.25 167.25,-377.75 0,-377.75"/>
<text text-anchor="start" x="53.62" y="-383.95" font-family="Times New Roman,Times,Liberation Serif,serif" font-size="14.00">description</text>
<polygon fill="none" stroke="black" points="167.25,-377.75 167.25,-400.25 361.5,-400.25 361.5,-377.75 167.25,-377.75"/>
<text text-anchor="start" x="237.75" y="-383.95" font-family="Times New Roman,Times,Liberation Serif,serif" font-size="14.00">str | None</text>
<polygon fill="none" stroke="black" points="361.5,-377.75 361.5,-400.25 441,-400.25 441,-377.75 361.5,-377.75"/>
<text text-anchor="start" x="370.12" y="-383.95" font-family="Times New Roman,Times,Liberation Serif,serif" font-size="14.00">string | null</text>
<polygon fill="none" stroke="black" points="0,-355.25 0,-377.75 167.25,-377.75 167.25,-355.25 0,-355.25"/>
<text text-anchor="start" x="55.12" y="-361.45" font-family="Times New Roman,Times,Liberation Serif,serif" font-size="14.00">comments</text>
<polygon fill="none" stroke="black" points="167.25,-355.25 167.25,-377.75 361.5,-377.75 361.5,-355.25 167.25,-355.25"/>
<text text-anchor="start" x="237.75" y="-361.45" font-family="Times New Roman,Times,Liberation Serif,serif" font-size="14.00">str | None</text>
<polygon fill="none" stroke="black" points="361.5,-355.25 361.5,-377.75 441,-377.75 441,-355.25 361.5,-355.25"/>
<text text-anchor="start" x="370.12" y="-361.45" font-family="Times New Roman,Times,Liberation Serif,serif" font-size="14.00">string | null</text>
<polygon fill="none" stroke="black" points="0,-332.75 0,-355.25 167.25,-355.25 167.25,-332.75 0,-332.75"/>
<text text-anchor="start" x="61.88" y="-338.95" font-family="Times New Roman,Times,Liberation Serif,serif" font-size="14.00">turbines</text>
<polygon fill="none" stroke="black" points="167.25,-332.75 167.25,-355.25 361.5,-355.25 361.5,-332.75 167.25,-332.75"/>
<text text-anchor="start" x="192.38" y="-338.95" font-family="Times New Roman,Times,Liberation Serif,serif" font-size="14.00">list[TurbineConfiguration]</text>
<polygon fill="none" stroke="black" points="361.5,-332.75 361.5,-355.25 441,-355.25 441,-332.75 361.5,-332.75"/>
<text text-anchor="start" x="387.38" y="-338.95" font-family="Times New Roman,Times,Liberation Serif,serif" font-size="14.00">array</text>
<polygon fill="none" stroke="black" points="0,-310.25 0,-332.75 167.25,-332.75 167.25,-310.25 0,-310.25"/>
<text text-anchor="start" x="57.75" y="-316.45" font-family="Times New Roman,Times,Liberation Serif,serif" font-size="14.00">relevance</text>
<polygon fill="none" stroke="black" points="167.25,-310.25 167.25,-332.75 361.5,-332.75 361.5,-310.25 167.25,-310.25"/>
<text text-anchor="start" x="206.62" y="-316.45" font-family="Times New Roman,Times,Liberation Serif,serif" font-size="14.00">WindFarmRelevance</text>
<polygon fill="none" stroke="black" points="361.5,-310.25 361.5,-332.75 441,-332.75 441,-310.25 361.5,-310.25"/>
<text text-anchor="start" x="385.88" y="-316.45" font-family="Times New Roman,Times,Liberation Serif,serif" font-size="14.00">string</text>
<polygon fill="none" stroke="black" points="0,-287.75 0,-310.25 167.25,-310.25 167.25,-287.75 0,-287.75"/>
<text text-anchor="start" x="3" y="-293.95" font-family="Times New Roman,Times,Liberation Serif,serif" font-size="14.00">assessment_period_start_date</text>
<polygon fill="none" stroke="black" points="167.25,-287.75 167.25,-310.25 361.5,-310.25 361.5,-287.75 167.25,-287.75"/>
<text text-anchor="start" x="253.12" y="-293.95" font-family="Times New Roman,Times,Liberation Serif,serif" font-size="14.00">date</text>
<polygon fill="none" stroke="black" points="361.5,-287.75 361.5,-310.25 441,-310.25 441,-287.75 361.5,-287.75"/>
<text text-anchor="start" x="385.88" y="-293.95" font-family="Times New Roman,Times,Liberation Serif,serif" font-size="14.00">string</text>
<polygon fill="none" stroke="black" points="0,-265.25 0,-287.75 167.25,-287.75 167.25,-265.25 0,-265.25"/>
<text text-anchor="start" x="4.88" y="-271.45" font-family="Times New Roman,Times,Liberation Serif,serif" font-size="14.00">assessment_period_end_date</text>
<polygon fill="none" stroke="black" points="167.25,-265.25 167.25,-287.75 361.5,-287.75 361.5,-265.25 167.25,-265.25"/>
<text text-anchor="start" x="253.12" y="-271.45" font-family="Times New Roman,Times,Liberation Serif,serif" font-size="14.00">date</text>
<polygon fill="none" stroke="black" points="361.5,-265.25 361.5,-287.75 441,-287.75 441,-265.25 361.5,-265.25"/>
<text text-anchor="start" x="385.88" y="-271.45" font-family="Times New Roman,Times,Liberation Serif,serif" font-size="14.00">string</text>
<polygon fill="none" stroke="black" points="0,-242.75 0,-265.25 167.25,-265.25 167.25,-242.75 0,-242.75"/>
<text text-anchor="start" x="34.88" y="-248.95" font-family="Times New Roman,Times,Liberation Serif,serif" font-size="14.00">installed_capacity</text>
<polygon fill="none" stroke="black" points="167.25,-242.75 167.25,-265.25 361.5,-265.25 361.5,-242.75 167.25,-242.75"/>
<text text-anchor="start" x="252" y="-248.95" font-family="Times New Roman,Times,Liberation Serif,serif" font-size="14.00">float</text>
<polygon fill="none" stroke="black" points="361.5,-242.75 361.5,-265.25 441,-265.25 441,-242.75 361.5,-242.75"/>
<text text-anchor="start" x="380.25" y="-248.95" font-family="Times New Roman,Times,Liberation Serif,serif" font-size="14.00">number</text>
<polygon fill="none" stroke="black" points="0,-220.25 0,-242.75 167.25,-242.75 167.25,-220.25 0,-220.25"/>
<text text-anchor="start" x="40.5" y="-226.45" font-family="Times New Roman,Times,Liberation Serif,serif" font-size="14.00">export_capacity</text>
<polygon fill="none" stroke="black" points="167.25,-220.25 167.25,-242.75 361.5,-242.75 361.5,-220.25 167.25,-220.25"/>
<text text-anchor="start" x="223.88" y="-226.45" font-family="Times New Roman,Times,Liberation Serif,serif" font-size="14.00">Optional[float]</text>
<polygon fill="none" stroke="black" points="361.5,-220.25 361.5,-242.75 441,-242.75 441,-220.25 361.5,-220.25"/>
<text text-anchor="start" x="364.5" y="-226.45" font-family="Times New Roman,Times,Liberation Serif,serif" font-size="14.00">number | null</text>
<polygon fill="none" stroke="black" points="0,-197.75 0,-220.25 167.25,-220.25 167.25,-197.75 0,-197.75"/>
<text text-anchor="start" x="53.62" y="-203.95" font-family="Times New Roman,Times,Liberation Serif,serif" font-size="14.00">restrictions</text>
<polygon fill="none" stroke="black" points="167.25,-197.75 167.25,-220.25 361.5,-220.25 361.5,-197.75 167.25,-197.75"/>
<text text-anchor="start" x="170.25" y="-203.95" font-family="Times New Roman,Times,Liberation Serif,serif" font-size="14.00">list[OperationalRestriction] | None</text>
<polygon fill="none" stroke="black" points="361.5,-197.75 361.5,-220.25 441,-220.25 441,-197.75 361.5,-197.75"/>
<text text-anchor="start" x="371.62" y="-203.95" font-family="Times New Roman,Times,Liberation Serif,serif" font-size="14.00">array | null</text>
</a>
</g>
</g>
<!-- eya_def_tools.data_models.wind_farm.WindFarmConfiguration&#45;&gt;eya_def_tools.data_models.wind_farm.OperationalRestriction -->
<g id="edge3" class="edge">
<title>eya_def_tools.data_models.wind_farm.WindFarmConfiguration:e&#45;&gt;eya_def_tools.data_models.wind_farm.OperationalRestriction:w</title>
<path fill="none" stroke="black" d="M450.78,-208.45C496.64,-203.09 498.76,-159.77 549,-146 774.66,-84.15 844.81,-139.81 1071.92,-142.17"/>
<polyline fill="none" stroke="black" points="441,-209 445.99,-208.72"/>
<polyline fill="none" stroke="black" points="445.99,-208.72 450.98,-208.44"/>
<polyline fill="none" stroke="black" points="1086.75,-142.25 1081.75,-142.22"/>
<polygon fill="black" stroke="black" points="1080.78,-137.22 1080.72,-147.22 1078.72,-147.21 1078.78,-137.21 1080.78,-137.22"/>
<polyline fill="none" stroke="black" points="1081.75,-142.22 1076.75,-142.2"/>
<polygon fill="black" stroke="black" points="1075.78,-137.19 1075.72,-147.19 1073.72,-147.18 1073.78,-137.18 1075.78,-137.19"/>
<polyline fill="none" stroke="black" points="1076.75,-142.2 1071.75,-142.17"/>
</g>
<!-- eya_def_tools.data_models.wind_farm.WindFarmConfiguration&#45;&gt;eya_def_tools.data_models.wind_farm.TurbineConfiguration -->
<g id="edge4" class="edge">
<title>eya_def_tools.data_models.wind_farm.WindFarmConfiguration:e&#45;&gt;eya_def_tools.data_models.wind_farm.TurbineConfiguration:w</title>
<path fill="none" stroke="black" d="M450.68,-344.81C499.55,-353.49 489.4,-429.04 533.76,-442.84"/>
<polyline fill="none" stroke="black" points="441,-344 445.98,-344.42"/>
<polyline fill="none" stroke="black" points="445.98,-344.42 450.96,-344.84"/>
<polygon fill="black" stroke="black" points="538.77,-443.55 548.04,-449.41 544.05,-444.3 548.34,-444.91 548.34,-444.91 548.34,-444.91 544.05,-444.3 549.3,-440.5 538.77,-443.55"/>
<polyline fill="none" stroke="black" points="537.56,-443.38 532.61,-442.68"/>
</g>
</g>
</svg>
