<?xml version="1.0" encoding="UTF-8" standalone="no"?>
<!DOCTYPE svg PUBLIC "-//W3C//DTD SVG 1.1//EN"
 "http://www.w3.org/Graphics/SVG/1.1/DTD/svg11.dtd">
<!-- Generated by graphviz version 7.0.4 (20221203.1631)
 -->
<!-- Title: Entity Relationship Diagram Pages: 1 -->
<svg width="1763pt" height="417pt"
 viewBox="0.00 0.00 1763.00 417.00" xmlns="http://www.w3.org/2000/svg" xmlns:xlink="http://www.w3.org/1999/xlink">
<g id="graph0" class="graph" transform="scale(1 1) rotate(0) translate(4 413)">
<title>Entity Relationship Diagram</title>
<polygon fill="white" stroke="none" points="-4,4 -4,-413 1759,-413 1759,4 -4,4"/>
<text text-anchor="middle" x="877.5" y="-6.8" font-family="Times New Roman,serif" font-size="9.00" fill="#a8a8a8">Created by erdantic v0.5.0 &lt;https://github.com/drivendataorg/erdantic&gt;</text>
<!-- eya_def_tools.data_models.result.Result -->
<g id="node1" class="node">
<title>eya_def_tools.data_models.result.Result</title>
<g id="a_node1"><a xlink:title="eya_def_tools.data_models.result.Result&#10;&#10;Collection of results a quantity along specific dimensions.&#10;&#10;Attributes:&#10; &#160;&#160;&#160;label (Optional[str]): Label of the results. Default is None.&#10; &#160;&#160;&#160;description (Optional[str]): Description of the data object. Default is None.&#10; &#160;&#160;&#160;comments (Optional[str]): Comments on the data object. Default is None.&#10; &#160;&#160;&#160;assessment_period (Optional[AssessmentPeriod(StrEnum)]): Period of or in time that has been assessed and for which the results are applicable. Default is None.&#10; &#160;&#160;&#160;dimensions (Optional[tuple[ResultsDimension(StrEnum), ...]]): Dimensions along which the results are binned (all result values in the same results object must have the same dimensions). Default is None.&#10; &#160;&#160;&#160;statistics (list[ResultStatistic]): List of result statistic objects that each include result values for a specific statistic type.&#10;">
<polygon fill="none" stroke="black" points="779,-228.5 779,-249.5 1169,-249.5 1169,-228.5 779,-228.5"/>
<text text-anchor="start" x="954" y="-236.3" font-family="Times New Roman,serif" font-weight="bold" font-size="14.00">Result</text>
<polygon fill="none" stroke="black" points="779,-207.5 779,-228.5 892,-228.5 892,-207.5 779,-207.5"/>
<text text-anchor="start" x="822.5" y="-214.3" font-family="Times New Roman,serif" font-size="14.00">label</text>
<polygon fill="none" stroke="black" points="892,-207.5 892,-228.5 1169,-228.5 1169,-207.5 892,-207.5"/>
<text text-anchor="start" x="994.5" y="-214.3" font-family="Times New Roman,serif" font-size="14.00">Optional[str]</text>
<polygon fill="none" stroke="black" points="779,-186.5 779,-207.5 892,-207.5 892,-186.5 779,-186.5"/>
<text text-anchor="start" x="804" y="-193.3" font-family="Times New Roman,serif" font-size="14.00">description</text>
<polygon fill="none" stroke="black" points="892,-186.5 892,-207.5 1169,-207.5 1169,-186.5 892,-186.5"/>
<text text-anchor="start" x="994.5" y="-193.3" font-family="Times New Roman,serif" font-size="14.00">Optional[str]</text>
<polygon fill="none" stroke="black" points="779,-165.5 779,-186.5 892,-186.5 892,-165.5 779,-165.5"/>
<text text-anchor="start" x="806.5" y="-172.3" font-family="Times New Roman,serif" font-size="14.00">comments</text>
<polygon fill="none" stroke="black" points="892,-165.5 892,-186.5 1169,-186.5 1169,-165.5 892,-165.5"/>
<text text-anchor="start" x="994.5" y="-172.3" font-family="Times New Roman,serif" font-size="14.00">Optional[str]</text>
<polygon fill="none" stroke="black" points="779,-144.5 779,-165.5 892,-165.5 892,-144.5 779,-144.5"/>
<text text-anchor="start" x="782" y="-151.3" font-family="Times New Roman,serif" font-size="14.00">assessment_period</text>
<polygon fill="none" stroke="black" points="892,-144.5 892,-165.5 1169,-165.5 1169,-144.5 892,-144.5"/>
<text text-anchor="start" x="921" y="-151.3" font-family="Times New Roman,serif" font-size="14.00">Optional[AssessmentPeriod(StrEnum)]</text>
<polygon fill="none" stroke="black" points="779,-123.5 779,-144.5 892,-144.5 892,-123.5 779,-123.5"/>
<text text-anchor="start" x="803.5" y="-130.3" font-family="Times New Roman,serif" font-size="14.00">dimensions</text>
<polygon fill="none" stroke="black" points="892,-123.5 892,-144.5 1169,-144.5 1169,-123.5 892,-123.5"/>
<text text-anchor="start" x="895" y="-130.3" font-family="Times New Roman,serif" font-size="14.00">Optional[tuple[ResultsDimension(StrEnum), ...]]</text>
<polygon fill="none" stroke="black" points="779,-102.5 779,-123.5 892,-123.5 892,-102.5 779,-102.5"/>
<text text-anchor="start" x="811" y="-109.3" font-family="Times New Roman,serif" font-size="14.00">statistics</text>
<polygon fill="none" stroke="black" points="892,-102.5 892,-123.5 1169,-123.5 1169,-102.5 892,-102.5"/>
<text text-anchor="start" x="978" y="-109.3" font-family="Times New Roman,serif" font-size="14.00">list[ResultStatistic]</text>
</a>
</g>
</g>
<!-- eya_def_tools.data_models.result.ResultStatistic -->
<g id="node2" class="node">
<title>eya_def_tools.data_models.result.ResultStatistic</title>
<g id="a_node2"><a xlink:title="eya_def_tools.data_models.result.ResultStatistic&#10;&#10;Result values for one specific statistic type.&#10;&#10;Attributes:&#10; &#160;&#160;&#160;description (Optional[str]): Description of the data object. Default is None.&#10; &#160;&#160;&#160;comments (Optional[str]): Comments on the data object. Default is None.&#10; &#160;&#160;&#160;statistic_type (StatisticType(StrEnum)): Type of statistic in the results component.&#10; &#160;&#160;&#160;values (UnionType[float, list[tuple[tuple[UnionType[float, int, str], ...], float]]]): Result as a single number or values at coordinates.&#10;">
<polygon fill="none" stroke="black" points="1277,-101.5 1277,-122.5 1755,-122.5 1755,-101.5 1277,-101.5"/>
<text text-anchor="start" x="1471.5" y="-109.3" font-family="Times New Roman,serif" font-weight="bold" font-size="14.00">ResultStatistic</text>
<polygon fill="none" stroke="black" points="1277,-80.5 1277,-101.5 1357,-101.5 1357,-80.5 1277,-80.5"/>
<text text-anchor="start" x="1285.5" y="-87.3" font-family="Times New Roman,serif" font-size="14.00">description</text>
<polygon fill="none" stroke="black" points="1357,-80.5 1357,-101.5 1755,-101.5 1755,-80.5 1357,-80.5"/>
<text text-anchor="start" x="1520" y="-87.3" font-family="Times New Roman,serif" font-size="14.00">Optional[str]</text>
<polygon fill="none" stroke="black" points="1277,-59.5 1277,-80.5 1357,-80.5 1357,-59.5 1277,-59.5"/>
<text text-anchor="start" x="1288" y="-66.3" font-family="Times New Roman,serif" font-size="14.00">comments</text>
<polygon fill="none" stroke="black" points="1357,-59.5 1357,-80.5 1755,-80.5 1755,-59.5 1357,-59.5"/>
<text text-anchor="start" x="1520" y="-66.3" font-family="Times New Roman,serif" font-size="14.00">Optional[str]</text>
<polygon fill="none" stroke="black" points="1277,-38.5 1277,-59.5 1357,-59.5 1357,-38.5 1277,-38.5"/>
<text text-anchor="start" x="1280" y="-45.3" font-family="Times New Roman,serif" font-size="14.00">statistic_type</text>
<polygon fill="none" stroke="black" points="1357,-38.5 1357,-59.5 1755,-59.5 1755,-38.5 1357,-38.5"/>
<text text-anchor="start" x="1490" y="-45.3" font-family="Times New Roman,serif" font-size="14.00">StatisticType(StrEnum)</text>
<polygon fill="none" stroke="black" points="1277,-17.5 1277,-38.5 1357,-38.5 1357,-17.5 1277,-17.5"/>
<text text-anchor="start" x="1299.5" y="-24.3" font-family="Times New Roman,serif" font-size="14.00">values</text>
<polygon fill="none" stroke="black" points="1357,-17.5 1357,-38.5 1755,-38.5 1755,-17.5 1357,-17.5"/>
<text text-anchor="start" x="1360" y="-24.3" font-family="Times New Roman,serif" font-size="14.00">UnionType[float, list[tuple[tuple[UnionType[float, int, str], ...], float]]]</text>
</a>
</g>
</g>
<!-- eya_def_tools.data_models.result.Result&#45;&gt;eya_def_tools.data_models.result.ResultStatistic -->
<g id="edge1" class="edge">
<title>eya_def_tools.data_models.result.Result:e&#45;&gt;eya_def_tools.data_models.result.ResultStatistic:w</title>
<path fill="none" stroke="black" d="M1169,-112.5C1210.06,-112.5 1224.78,-112.5 1258.23,-112.5"/>
<polygon fill="black" stroke="black" points="1267,-112.5 1277,-117 1272,-112.5 1277,-112.5 1277,-112.5 1277,-112.5 1272,-112.5 1277,-108 1267,-112.5 1267,-112.5"/>
<ellipse fill="none" stroke="black" cx="1262.5" cy="-112.5" rx="4" ry="4"/>
</g>
<!-- eya_def_tools.data_models.wind_resource.WindResourceAssessment -->
<g id="node3" class="node">
<title>eya_def_tools.data_models.wind_resource.WindResourceAssessment</title>
<g id="a_node3"><a xlink:title="eya_def_tools.data_models.wind_resource.WindResourceAssessment&#10;&#10;Wind resource assessment at the measurement location(s).&#10;&#10;Attributes:&#10; &#160;&#160;&#160;wind_resource_assessment_id (str): Unique ID of the wind resource assessment within the EYA DEF document.&#10; &#160;&#160;&#160;description (Optional[str]): Description of the data object. Default is None.&#10; &#160;&#160;&#160;comments (Optional[str]): Comments on the data object. Default is None.&#10; &#160;&#160;&#160;results (WindResourceResults): Results of the wind resource assessment at the measurement location(s).&#10;">
<polygon fill="none" stroke="black" points="0,-387.5 0,-408.5 310,-408.5 310,-387.5 0,-387.5"/>
<text text-anchor="start" x="74" y="-395.3" font-family="Times New Roman,serif" font-weight="bold" font-size="14.00">WindResourceAssessment</text>
<polygon fill="none" stroke="black" points="0,-366.5 0,-387.5 178,-387.5 178,-366.5 0,-366.5"/>
<text text-anchor="start" x="3" y="-373.3" font-family="Times New Roman,serif" font-size="14.00">wind_resource_assessment_id</text>
<polygon fill="none" stroke="black" points="178,-366.5 178,-387.5 310,-387.5 310,-366.5 178,-366.5"/>
<text text-anchor="start" x="236.5" y="-373.3" font-family="Times New Roman,serif" font-size="14.00">str</text>
<polygon fill="none" stroke="black" points="0,-345.5 0,-366.5 178,-366.5 178,-345.5 0,-345.5"/>
<text text-anchor="start" x="57.5" y="-352.3" font-family="Times New Roman,serif" font-size="14.00">description</text>
<polygon fill="none" stroke="black" points="178,-345.5 178,-366.5 310,-366.5 310,-345.5 178,-345.5"/>
<text text-anchor="start" x="208" y="-352.3" font-family="Times New Roman,serif" font-size="14.00">Optional[str]</text>
<polygon fill="none" stroke="black" points="0,-324.5 0,-345.5 178,-345.5 178,-324.5 0,-324.5"/>
<text text-anchor="start" x="60" y="-331.3" font-family="Times New Roman,serif" font-size="14.00">comments</text>
<polygon fill="none" stroke="black" points="178,-324.5 178,-345.5 310,-345.5 310,-324.5 178,-324.5"/>
<text text-anchor="start" x="208" y="-331.3" font-family="Times New Roman,serif" font-size="14.00">Optional[str]</text>
<polygon fill="none" stroke="black" points="0,-303.5 0,-324.5 178,-324.5 178,-303.5 0,-303.5"/>
<text text-anchor="start" x="70.5" y="-310.3" font-family="Times New Roman,serif" font-size="14.00">results</text>
<polygon fill="none" stroke="black" points="178,-303.5 178,-324.5 310,-324.5 310,-303.5 178,-303.5"/>
<text text-anchor="start" x="181" y="-310.3" font-family="Times New Roman,serif" font-size="14.00">WindResourceResults</text>
</a>
</g>
</g>
<!-- eya_def_tools.data_models.wind_resource.WindResourceResults -->
<g id="node4" class="node">
<title>eya_def_tools.data_models.wind_resource.WindResourceResults</title>
<g id="a_node4"><a xlink:title="eya_def_tools.data_models.wind_resource.WindResourceResults&#10;&#10;Wind resource assessment results at measurement locations.&#10;&#10;Attributes:&#10; &#160;&#160;&#160;wind_speed (list[Result]): Final long&#45;term wind speed estimates at the measurement location(s)in metre per second.&#10; &#160;&#160;&#160;probability (Optional[list[Result]]): Final long&#45;term probability distribution estimates at the measurement location(s), such as wind speed probability distributions or joint wind speed and direction frequency distributions, as dimensionless values. Default is None.&#10; &#160;&#160;&#160;turbulence_intensity (Optional[list[Result]]): Final long&#45;term turbulence intensity estimates at the measurement location(s) as dimensionless values. Default is None.&#10; &#160;&#160;&#160;wind_shear_exponent (Optional[list[Result]]): Final long&#45;term power law wind shear exponent estimates at the measurement location(s). Default is None.&#10; &#160;&#160;&#160;temperature (Optional[list[Result]]): Final long&#45;term temperature estimates at the measurement location(s) in degree C. Default is None.&#10; &#160;&#160;&#160;air_density (Optional[list[Result]]): Final long&#45;term air density estimates at the measurement location(s) in kilogram per cubic metre. Default is None.&#10;">
<polygon fill="none" stroke="black" points="418.5,-302.5 418.5,-323.5 671.5,-323.5 671.5,-302.5 418.5,-302.5"/>
<text text-anchor="start" x="477" y="-310.3" font-family="Times New Roman,serif" font-weight="bold" font-size="14.00">WindResourceResults</text>
<polygon fill="none" stroke="black" points="418.5,-281.5 418.5,-302.5 547.5,-302.5 547.5,-281.5 418.5,-281.5"/>
<text text-anchor="start" x="449" y="-288.3" font-family="Times New Roman,serif" font-size="14.00">wind_speed</text>
<polygon fill="none" stroke="black" points="547.5,-281.5 547.5,-302.5 671.5,-302.5 671.5,-281.5 547.5,-281.5"/>
<text text-anchor="start" x="579" y="-288.3" font-family="Times New Roman,serif" font-size="14.00">list[Result]</text>
<polygon fill="none" stroke="black" points="418.5,-260.5 418.5,-281.5 547.5,-281.5 547.5,-260.5 418.5,-260.5"/>
<text text-anchor="start" x="452.5" y="-267.3" font-family="Times New Roman,serif" font-size="14.00">probability</text>
<polygon fill="none" stroke="black" points="547.5,-260.5 547.5,-281.5 671.5,-281.5 671.5,-260.5 547.5,-260.5"/>
<text text-anchor="start" x="550.5" y="-267.3" font-family="Times New Roman,serif" font-size="14.00">Optional[list[Result]]</text>
<polygon fill="none" stroke="black" points="418.5,-239.5 418.5,-260.5 547.5,-260.5 547.5,-239.5 418.5,-239.5"/>
<text text-anchor="start" x="427" y="-246.3" font-family="Times New Roman,serif" font-size="14.00">turbulence_intensity</text>
<polygon fill="none" stroke="black" points="547.5,-239.5 547.5,-260.5 671.5,-260.5 671.5,-239.5 547.5,-239.5"/>
<text text-anchor="start" x="550.5" y="-246.3" font-family="Times New Roman,serif" font-size="14.00">Optional[list[Result]]</text>
<polygon fill="none" stroke="black" points="418.5,-218.5 418.5,-239.5 547.5,-239.5 547.5,-218.5 418.5,-218.5"/>
<text text-anchor="start" x="421.5" y="-225.3" font-family="Times New Roman,serif" font-size="14.00">wind_shear_exponent</text>
<polygon fill="none" stroke="black" points="547.5,-218.5 547.5,-239.5 671.5,-239.5 671.5,-218.5 547.5,-218.5"/>
<text text-anchor="start" x="550.5" y="-225.3" font-family="Times New Roman,serif" font-size="14.00">Optional[list[Result]]</text>
<polygon fill="none" stroke="black" points="418.5,-197.5 418.5,-218.5 547.5,-218.5 547.5,-197.5 418.5,-197.5"/>
<text text-anchor="start" x="450" y="-204.3" font-family="Times New Roman,serif" font-size="14.00">temperature</text>
<polygon fill="none" stroke="black" points="547.5,-197.5 547.5,-218.5 671.5,-218.5 671.5,-197.5 547.5,-197.5"/>
<text text-anchor="start" x="550.5" y="-204.3" font-family="Times New Roman,serif" font-size="14.00">Optional[list[Result]]</text>
<polygon fill="none" stroke="black" points="418.5,-176.5 418.5,-197.5 547.5,-197.5 547.5,-176.5 418.5,-176.5"/>
<text text-anchor="start" x="452.5" y="-183.3" font-family="Times New Roman,serif" font-size="14.00">air_density</text>
<polygon fill="none" stroke="black" points="547.5,-176.5 547.5,-197.5 671.5,-197.5 671.5,-176.5 547.5,-176.5"/>
<text text-anchor="start" x="550.5" y="-183.3" font-family="Times New Roman,serif" font-size="14.00">Optional[list[Result]]</text>
</a>
</g>
</g>
<!-- eya_def_tools.data_models.wind_resource.WindResourceAssessment&#45;&gt;eya_def_tools.data_models.wind_resource.WindResourceResults -->
<g id="edge2" class="edge">
<title>eya_def_tools.data_models.wind_resource.WindResourceAssessment:e&#45;&gt;eya_def_tools.data_models.wind_resource.WindResourceResults:w</title>
<path fill="none" stroke="black" d="M310,-313.5C352.75,-313.5 366.94,-313.5 403.45,-313.5"/>
<polyline fill="none" stroke="black" points="418,-313.5 413,-313.5"/>
<polygon fill="black" stroke="black" points="412,-308.5 412,-318.5 410,-318.5 410,-308.5 412,-308.5"/>
<polyline fill="none" stroke="black" points="413,-313.5 408,-313.5"/>
<polygon fill="black" stroke="black" points="407,-308.5 407,-318.5 405,-318.5 405,-308.5 407,-308.5"/>
<polyline fill="none" stroke="black" points="408,-313.5 403,-313.5"/>
</g>
<!-- eya_def_tools.data_models.wind_resource.WindResourceResults&#45;&gt;eya_def_tools.data_models.result.Result -->
<g id="edge3" class="edge">
<title>eya_def_tools.data_models.wind_resource.WindResourceResults:e&#45;&gt;eya_def_tools.data_models.result.Result:w</title>
<path fill="none" stroke="black" d="M671,-292.5C717.37,-292.5 724.32,-252.64 760.22,-242.06"/>
<polygon fill="black" stroke="black" points="769.09,-240.85 779.61,-243.96 774.05,-240.17 779,-239.5 779,-239.5 779,-239.5 774.05,-240.17 778.39,-235.04 769.09,-240.85 769.09,-240.85"/>
<ellipse fill="none" stroke="black" cx="764.63" cy="-241.46" rx="4" ry="4"/>
</g>
<!-- eya_def_tools.data_models.wind_resource.WindResourceResults&#45;&gt;eya_def_tools.data_models.result.Result -->
<g id="edge4" class="edge">
<title>eya_def_tools.data_models.wind_resource.WindResourceResults:e&#45;&gt;eya_def_tools.data_models.result.Result:w</title>
<path fill="none" stroke="black" d="M671,-271.5C714.02,-271.5 725.89,-247.87 760.15,-241.22"/>
<polygon fill="black" stroke="black" points="769.04,-240.41 779.41,-243.98 774.02,-239.95 779,-239.5 779,-239.5 779,-239.5 774.02,-239.95 778.59,-235.02 769.04,-240.41 769.04,-240.41"/>
<ellipse fill="none" stroke="black" cx="764.56" cy="-240.82" rx="4" ry="4"/>
</g>
<!-- eya_def_tools.data_models.wind_resource.WindResourceResults&#45;&gt;eya_def_tools.data_models.result.Result -->
<g id="edge5" class="edge">
<title>eya_def_tools.data_models.wind_resource.WindResourceResults:e&#45;&gt;eya_def_tools.data_models.result.Result:w</title>
<path fill="none" stroke="black" d="M671,-249.5C712.24,-249.5 726.68,-242.18 760.17,-240.07"/>
<polygon fill="black" stroke="black" points="769,-239.8 779.14,-244 774,-239.65 779,-239.5 779,-239.5 779,-239.5 774,-239.65 778.86,-235 769,-239.8 769,-239.8"/>
<ellipse fill="none" stroke="black" cx="764.51" cy="-239.94" rx="4" ry="4"/>
</g>
<!-- eya_def_tools.data_models.wind_resource.WindResourceResults&#45;&gt;eya_def_tools.data_models.result.Result -->
<g id="edge6" class="edge">
<title>eya_def_tools.data_models.wind_resource.WindResourceResults:e&#45;&gt;eya_def_tools.data_models.result.Result:w</title>
<path fill="none" stroke="black" d="M671,-228.5C712.27,-228.5 726.66,-236.55 760.16,-238.88"/>
<polygon fill="black" stroke="black" points="769.01,-239.17 778.85,-244 774,-239.33 779,-239.5 779,-239.5 779,-239.5 774,-239.33 779.15,-235 769.01,-239.17 769.01,-239.17"/>
<ellipse fill="none" stroke="black" cx="764.51" cy="-239.02" rx="4" ry="4"/>
</g>
<!-- eya_def_tools.data_models.wind_resource.WindResourceResults&#45;&gt;eya_def_tools.data_models.result.Result -->
<g id="edge7" class="edge">
<title>eya_def_tools.data_models.wind_resource.WindResourceResults:e&#45;&gt;eya_def_tools.data_models.result.Result:w</title>
<path fill="none" stroke="black" d="M671,-207.5C714.02,-207.5 725.89,-231.13 760.15,-237.78"/>
<polygon fill="black" stroke="black" points="769.04,-238.59 778.59,-243.98 774.02,-239.05 779,-239.5 779,-239.5 779,-239.5 774.02,-239.05 779.41,-235.02 769.04,-238.59 769.04,-238.59"/>
<ellipse fill="none" stroke="black" cx="764.56" cy="-238.18" rx="4" ry="4"/>
</g>
<!-- eya_def_tools.data_models.wind_resource.WindResourceResults&#45;&gt;eya_def_tools.data_models.result.Result -->
<g id="edge8" class="edge">
<title>eya_def_tools.data_models.wind_resource.WindResourceResults:e&#45;&gt;eya_def_tools.data_models.result.Result:w</title>
<path fill="none" stroke="black" d="M671,-186.5C717.37,-186.5 724.32,-226.36 760.22,-236.94"/>
<polygon fill="black" stroke="black" points="769.09,-238.15 778.39,-243.96 774.05,-238.83 779,-239.5 779,-239.5 779,-239.5 774.05,-238.83 779.61,-235.04 769.09,-238.15 769.09,-238.15"/>
<ellipse fill="none" stroke="black" cx="764.63" cy="-237.54" rx="4" ry="4"/>
</g>
</g>
</svg>
