<?xml version="1.0" encoding="UTF-8" standalone="no"?>
<!DOCTYPE svg PUBLIC "-//W3C//DTD SVG 1.1//EN"
 "http://www.w3.org/Graphics/SVG/1.1/DTD/svg11.dtd">
<!-- Generated by graphviz version 12.2.1 (20241206.2353)
 -->
<!-- Title: Entity Relationship Diagram created by erdantic Pages: 1 -->
<svg width="1389pt" height="487pt"
 viewBox="0.00 0.00 1388.75 487.25" xmlns="http://www.w3.org/2000/svg" xmlns:xlink="http://www.w3.org/1999/xlink">
<g id="graph0" class="graph" transform="scale(1 1) rotate(0) translate(4 483.25)">
<title>Entity Relationship Diagram created by erdantic</title>
<polygon fill="white" stroke="none" points="-4,4 -4,-483.25 1384.75,-483.25 1384.75,4 -4,4"/>
<text text-anchor="middle" x="690.38" y="-5.95" font-family="Times New Roman,Times,Liberation Serif,serif" font-size="9.00" fill="#a8a8a8">Created by erdantic v1.0.5 &lt;https://github.com/drivendataorg/erdantic&gt;</text>
<!-- eya_def_tools.data_models.spatial.Location -->
<g id="node1" class="node">
<title>eya_def_tools.data_models.spatial.Location</title>
<g id="a_node1"><a xlink:title="eya_def_tools.data_models.spatial.Location&#10;&#10;Specification of a horizontal location in space.&#10;&#10;Fields:&#10; &#160;&#160;&#160;x: Location x&#45;coordinate (typically easting).&#10; &#160;&#160;&#160;y: Location y&#45;coordinate (typically northing).&#10;">
<polygon fill="none" stroke="black" points="1204.5,-299.25 1204.5,-321.75 1296,-321.75 1296,-299.25 1204.5,-299.25"/>
<text text-anchor="start" x="1224.75" y="-306.45" font-family="Times New Roman,Times,Liberation Serif,serif" font-weight="bold" font-size="14.00">Location</text>
<polygon fill="none" stroke="black" points="1204.5,-276.75 1204.5,-299.25 1217.25,-299.25 1217.25,-276.75 1204.5,-276.75"/>
<text text-anchor="start" x="1207.5" y="-282.95" font-family="Times New Roman,Times,Liberation Serif,serif" font-size="14.00">x</text>
<polygon fill="none" stroke="black" points="1217.25,-276.75 1217.25,-299.25 1248,-299.25 1248,-276.75 1217.25,-276.75"/>
<text text-anchor="start" x="1220.25" y="-282.95" font-family="Times New Roman,Times,Liberation Serif,serif" font-size="14.00">float</text>
<polygon fill="none" stroke="black" points="1248,-276.75 1248,-299.25 1296,-299.25 1296,-276.75 1248,-276.75"/>
<text text-anchor="start" x="1251" y="-282.95" font-family="Times New Roman,Times,Liberation Serif,serif" font-size="14.00">number</text>
<polygon fill="none" stroke="black" points="1204.5,-254.25 1204.5,-276.75 1217.25,-276.75 1217.25,-254.25 1204.5,-254.25"/>
<text text-anchor="start" x="1207.5" y="-260.45" font-family="Times New Roman,Times,Liberation Serif,serif" font-size="14.00">y</text>
<polygon fill="none" stroke="black" points="1217.25,-254.25 1217.25,-276.75 1248,-276.75 1248,-254.25 1217.25,-254.25"/>
<text text-anchor="start" x="1220.25" y="-260.45" font-family="Times New Roman,Times,Liberation Serif,serif" font-size="14.00">float</text>
<polygon fill="none" stroke="black" points="1248,-254.25 1248,-276.75 1296,-276.75 1296,-254.25 1248,-254.25"/>
<text text-anchor="start" x="1251" y="-260.45" font-family="Times New Roman,Times,Liberation Serif,serif" font-size="14.00">number</text>
</a>
</g>
</g>
<!-- eya_def_tools.data_models.wind_farm.OperationalRestriction -->
<g id="node2" class="node">
<title>eya_def_tools.data_models.wind_farm.OperationalRestriction</title>
<g id="a_node2"><a xlink:title="eya_def_tools.data_models.wind_farm.OperationalRestriction&#10;&#10;Specifications of a restriction that limits power output.&#10;&#10;In the current draft of the schema, &#39;label&#39;, &#39;description&#39; and&#10;&#39;comments&#39; fields are available to describe the restriction with&#10;free text. This is intended to be expanded into a more comprehensive&#10;data model.&#10;&#10;Fields:&#10; &#160;&#160;&#160;label: Short label to indicate the type of operational restriction.&#10; &#160;&#160;&#160;description: Description of the operational restriction.&#10; &#160;&#160;&#160;comments: Optional comments on the operational restriction, which should not be empty if the field is included. Default is None.&#10; &#160;&#160;&#160;start_datetime: Optional operational restriction start datetime in the ISO 8601 standard format with the &#39;T&#39; required between the calendar date and time, i.e. YYYY&#45;MM&#45;DDThh:mm:ss. In cases where the time is not relevant (i.e. only the date is relevant), hours, minutes and seconds shall all be set to zero. If using the time part, the timezone of the data must be consistent with the UTC offset specified for the EYA DEF document. Default is None.&#10; &#160;&#160;&#160;end_datetime: Optional operational restriction end datetime in the ISO 8601 standard format with the &#39;T&#39; required between the calendar date and time, i.e. YYYY&#45;MM&#45;DDThh:mm:ss. In cases where the time is not relevant (i.e. only the date is relevant), hours, minutes and seconds shall all be set to zero. If using the time part, the timezone of the data must be consistent with the UTC offset specified for the EYA DEF document. Default is None.&#10;">
<polygon fill="none" stroke="black" points="1119.75,-131 1119.75,-153.5 1380.75,-153.5 1380.75,-131 1119.75,-131"/>
<text text-anchor="start" x="1183.12" y="-138.2" font-family="Times New Roman,Times,Liberation Serif,serif" font-weight="bold" font-size="14.00">OperationalRestriction</text>
<polygon fill="none" stroke="black" points="1119.75,-108.5 1119.75,-131 1203,-131 1203,-108.5 1119.75,-108.5"/>
<text text-anchor="start" x="1148.25" y="-114.7" font-family="Times New Roman,Times,Liberation Serif,serif" font-size="14.00">label</text>
<polygon fill="none" stroke="black" points="1203,-108.5 1203,-131 1312.5,-131 1312.5,-108.5 1203,-108.5"/>
<text text-anchor="start" x="1251" y="-114.7" font-family="Times New Roman,Times,Liberation Serif,serif" font-size="14.00">str</text>
<polygon fill="none" stroke="black" points="1312.5,-108.5 1312.5,-131 1380.75,-131 1380.75,-108.5 1312.5,-108.5"/>
<text text-anchor="start" x="1331.25" y="-114.7" font-family="Times New Roman,Times,Liberation Serif,serif" font-size="14.00">string</text>
<polygon fill="none" stroke="black" points="1119.75,-86 1119.75,-108.5 1203,-108.5 1203,-86 1119.75,-86"/>
<text text-anchor="start" x="1131.38" y="-92.2" font-family="Times New Roman,Times,Liberation Serif,serif" font-size="14.00">description</text>
<polygon fill="none" stroke="black" points="1203,-86 1203,-108.5 1312.5,-108.5 1312.5,-86 1203,-86"/>
<text text-anchor="start" x="1251" y="-92.2" font-family="Times New Roman,Times,Liberation Serif,serif" font-size="14.00">str</text>
<polygon fill="none" stroke="black" points="1312.5,-86 1312.5,-108.5 1380.75,-108.5 1380.75,-86 1312.5,-86"/>
<text text-anchor="start" x="1331.25" y="-92.2" font-family="Times New Roman,Times,Liberation Serif,serif" font-size="14.00">string</text>
<polygon fill="none" stroke="black" points="1119.75,-63.5 1119.75,-86 1203,-86 1203,-63.5 1119.75,-63.5"/>
<text text-anchor="start" x="1132.88" y="-69.7" font-family="Times New Roman,Times,Liberation Serif,serif" font-size="14.00">comments</text>
<polygon fill="none" stroke="black" points="1203,-63.5 1203,-86 1312.5,-86 1312.5,-63.5 1203,-63.5"/>
<text text-anchor="start" x="1222.88" y="-69.7" font-family="Times New Roman,Times,Liberation Serif,serif" font-size="14.00">Optional[str]</text>
<polygon fill="none" stroke="black" points="1312.5,-63.5 1312.5,-86 1380.75,-86 1380.75,-63.5 1312.5,-63.5"/>
<text text-anchor="start" x="1315.5" y="-69.7" font-family="Times New Roman,Times,Liberation Serif,serif" font-size="14.00">string | null</text>
<polygon fill="none" stroke="black" points="1119.75,-41 1119.75,-63.5 1203,-63.5 1203,-41 1119.75,-41"/>
<text text-anchor="start" x="1122.75" y="-47.2" font-family="Times New Roman,Times,Liberation Serif,serif" font-size="14.00">start_datetime</text>
<polygon fill="none" stroke="black" points="1203,-41 1203,-63.5 1312.5,-63.5 1312.5,-41 1203,-41"/>
<text text-anchor="start" x="1206" y="-47.2" font-family="Times New Roman,Times,Liberation Serif,serif" font-size="14.00">Optional[datetime]</text>
<polygon fill="none" stroke="black" points="1312.5,-41 1312.5,-63.5 1380.75,-63.5 1380.75,-41 1312.5,-41"/>
<text text-anchor="start" x="1315.5" y="-47.2" font-family="Times New Roman,Times,Liberation Serif,serif" font-size="14.00">string | null</text>
<polygon fill="none" stroke="black" points="1119.75,-18.5 1119.75,-41 1203,-41 1203,-18.5 1119.75,-18.5"/>
<text text-anchor="start" x="1124.62" y="-24.7" font-family="Times New Roman,Times,Liberation Serif,serif" font-size="14.00">end_datetime</text>
<polygon fill="none" stroke="black" points="1203,-18.5 1203,-41 1312.5,-41 1312.5,-18.5 1203,-18.5"/>
<text text-anchor="start" x="1206" y="-24.7" font-family="Times New Roman,Times,Liberation Serif,serif" font-size="14.00">Optional[datetime]</text>
<polygon fill="none" stroke="black" points="1312.5,-18.5 1312.5,-41 1380.75,-41 1380.75,-18.5 1312.5,-18.5"/>
<text text-anchor="start" x="1315.5" y="-24.7" font-family="Times New Roman,Times,Liberation Serif,serif" font-size="14.00">string | null</text>
</a>
</g>
</g>
<!-- eya_def_tools.data_models.wind_farm.TurbineConfiguration -->
<g id="node3" class="node">
<title>eya_def_tools.data_models.wind_farm.TurbineConfiguration</title>
<g id="a_node3"><a xlink:title="eya_def_tools.data_models.wind_farm.TurbineConfiguration&#10;&#10;Specification of all details for a turbine configuration.&#10;&#10;Fields:&#10; &#160;&#160;&#160;id: Unique identifier of the turbine.&#10; &#160;&#160;&#160;label: Label of the turbine, if different from the &#39;id&#39;. Default is None.&#10; &#160;&#160;&#160;description: Optional description of the turbine, which should not be empty if the field is included. Default is None.&#10; &#160;&#160;&#160;comments: Optional comments on the turbine, which should not be empty if the field is included. Default is None.&#10; &#160;&#160;&#160;location: The horizontal spatial location of the turbine.&#10; &#160;&#160;&#160;ground_level_altitude: The ground level altitude (base elevation) of the turbine (in m).&#10; &#160;&#160;&#160;hub_height: The hub height of the turbine above ground level (in m).&#10; &#160;&#160;&#160;turbine_model_id: Unique identifier of the turbine model.&#10; &#160;&#160;&#160;assessment_period_start_date: Optional assessment period start date of the individual turbine in the ISO 8601 standard format for a calendar date, i.e. YYYY&#45;MM&#45;DD. Default is None.&#10; &#160;&#160;&#160;assessment_period_end_date: Optional assessment period end date of the individual turbine in the ISO 8601 standard format for a calendar date, i.e. YYYY&#45;MM&#45;DD. Default is None.&#10; &#160;&#160;&#160;restrictions: List of operational restrictions at the turbine level. Default is None.&#10;">
<polygon fill="none" stroke="black" points="565.5,-411.5 565.5,-434 1011.75,-434 1011.75,-411.5 565.5,-411.5"/>
<text text-anchor="start" x="724.5" y="-418.7" font-family="Times New Roman,Times,Liberation Serif,serif" font-weight="bold" font-size="14.00">TurbineConfiguration</text>
<polygon fill="none" stroke="black" points="565.5,-389 565.5,-411.5 732.75,-411.5 732.75,-389 565.5,-389"/>
<text text-anchor="start" x="643.88" y="-395.2" font-family="Times New Roman,Times,Liberation Serif,serif" font-size="14.00">id</text>
<polygon fill="none" stroke="black" points="732.75,-389 732.75,-411.5 943.5,-411.5 943.5,-389 732.75,-389"/>
<text text-anchor="start" x="831.38" y="-395.2" font-family="Times New Roman,Times,Liberation Serif,serif" font-size="14.00">str</text>
<polygon fill="none" stroke="black" points="943.5,-389 943.5,-411.5 1011.75,-411.5 1011.75,-389 943.5,-389"/>
<text text-anchor="start" x="962.25" y="-395.2" font-family="Times New Roman,Times,Liberation Serif,serif" font-size="14.00">string</text>
<polygon fill="none" stroke="black" points="565.5,-366.5 565.5,-389 732.75,-389 732.75,-366.5 565.5,-366.5"/>
<text text-anchor="start" x="636" y="-372.7" font-family="Times New Roman,Times,Liberation Serif,serif" font-size="14.00">label</text>
<polygon fill="none" stroke="black" points="732.75,-366.5 732.75,-389 943.5,-389 943.5,-366.5 732.75,-366.5"/>
<text text-anchor="start" x="803.25" y="-372.7" font-family="Times New Roman,Times,Liberation Serif,serif" font-size="14.00">Optional[str]</text>
<polygon fill="none" stroke="black" points="943.5,-366.5 943.5,-389 1011.75,-389 1011.75,-366.5 943.5,-366.5"/>
<text text-anchor="start" x="946.5" y="-372.7" font-family="Times New Roman,Times,Liberation Serif,serif" font-size="14.00">string | null</text>
<polygon fill="none" stroke="black" points="565.5,-344 565.5,-366.5 732.75,-366.5 732.75,-344 565.5,-344"/>
<text text-anchor="start" x="619.12" y="-350.2" font-family="Times New Roman,Times,Liberation Serif,serif" font-size="14.00">description</text>
<polygon fill="none" stroke="black" points="732.75,-344 732.75,-366.5 943.5,-366.5 943.5,-344 732.75,-344"/>
<text text-anchor="start" x="803.25" y="-350.2" font-family="Times New Roman,Times,Liberation Serif,serif" font-size="14.00">Optional[str]</text>
<polygon fill="none" stroke="black" points="943.5,-344 943.5,-366.5 1011.75,-366.5 1011.75,-344 943.5,-344"/>
<text text-anchor="start" x="946.5" y="-350.2" font-family="Times New Roman,Times,Liberation Serif,serif" font-size="14.00">string | null</text>
<polygon fill="none" stroke="black" points="565.5,-321.5 565.5,-344 732.75,-344 732.75,-321.5 565.5,-321.5"/>
<text text-anchor="start" x="620.62" y="-327.7" font-family="Times New Roman,Times,Liberation Serif,serif" font-size="14.00">comments</text>
<polygon fill="none" stroke="black" points="732.75,-321.5 732.75,-344 943.5,-344 943.5,-321.5 732.75,-321.5"/>
<text text-anchor="start" x="803.25" y="-327.7" font-family="Times New Roman,Times,Liberation Serif,serif" font-size="14.00">Optional[str]</text>
<polygon fill="none" stroke="black" points="943.5,-321.5 943.5,-344 1011.75,-344 1011.75,-321.5 943.5,-321.5"/>
<text text-anchor="start" x="946.5" y="-327.7" font-family="Times New Roman,Times,Liberation Serif,serif" font-size="14.00">string | null</text>
<polygon fill="none" stroke="black" points="565.5,-299 565.5,-321.5 732.75,-321.5 732.75,-299 565.5,-299"/>
<text text-anchor="start" x="627.38" y="-305.2" font-family="Times New Roman,Times,Liberation Serif,serif" font-size="14.00">location</text>
<polygon fill="none" stroke="black" points="732.75,-299 732.75,-321.5 943.5,-321.5 943.5,-299 732.75,-299"/>
<text text-anchor="start" x="814.12" y="-305.2" font-family="Times New Roman,Times,Liberation Serif,serif" font-size="14.00">Location</text>
<polygon fill="none" stroke="black" points="943.5,-299 943.5,-321.5 1011.75,-321.5 1011.75,-299 943.5,-299"/>
<text text-anchor="start" x="961.12" y="-305.2" font-family="Times New Roman,Times,Liberation Serif,serif" font-size="14.00">object</text>
<polygon fill="none" stroke="black" points="565.5,-276.5 565.5,-299 732.75,-299 732.75,-276.5 565.5,-276.5"/>
<text text-anchor="start" x="589.88" y="-282.7" font-family="Times New Roman,Times,Liberation Serif,serif" font-size="14.00">ground_level_altitude</text>
<polygon fill="none" stroke="black" points="732.75,-276.5 732.75,-299 943.5,-299 943.5,-276.5 732.75,-276.5"/>
<text text-anchor="start" x="825.75" y="-282.7" font-family="Times New Roman,Times,Liberation Serif,serif" font-size="14.00">float</text>
<polygon fill="none" stroke="black" points="943.5,-276.5 943.5,-299 1011.75,-299 1011.75,-276.5 943.5,-276.5"/>
<text text-anchor="start" x="956.62" y="-282.7" font-family="Times New Roman,Times,Liberation Serif,serif" font-size="14.00">number</text>
<polygon fill="none" stroke="black" points="565.5,-254 565.5,-276.5 732.75,-276.5 732.75,-254 565.5,-254"/>
<text text-anchor="start" x="618.75" y="-260.2" font-family="Times New Roman,Times,Liberation Serif,serif" font-size="14.00">hub_height</text>
<polygon fill="none" stroke="black" points="732.75,-254 732.75,-276.5 943.5,-276.5 943.5,-254 732.75,-254"/>
<text text-anchor="start" x="825.75" y="-260.2" font-family="Times New Roman,Times,Liberation Serif,serif" font-size="14.00">float</text>
<polygon fill="none" stroke="black" points="943.5,-254 943.5,-276.5 1011.75,-276.5 1011.75,-254 943.5,-254"/>
<text text-anchor="start" x="956.62" y="-260.2" font-family="Times New Roman,Times,Liberation Serif,serif" font-size="14.00">number</text>
<polygon fill="none" stroke="black" points="565.5,-231.5 565.5,-254 732.75,-254 732.75,-231.5 565.5,-231.5"/>
<text text-anchor="start" x="600.75" y="-237.7" font-family="Times New Roman,Times,Liberation Serif,serif" font-size="14.00">turbine_model_id</text>
<polygon fill="none" stroke="black" points="732.75,-231.5 732.75,-254 943.5,-254 943.5,-231.5 732.75,-231.5"/>
<text text-anchor="start" x="831.38" y="-237.7" font-family="Times New Roman,Times,Liberation Serif,serif" font-size="14.00">str</text>
<polygon fill="none" stroke="black" points="943.5,-231.5 943.5,-254 1011.75,-254 1011.75,-231.5 943.5,-231.5"/>
<text text-anchor="start" x="962.25" y="-237.7" font-family="Times New Roman,Times,Liberation Serif,serif" font-size="14.00">string</text>
<polygon fill="none" stroke="black" points="565.5,-209 565.5,-231.5 732.75,-231.5 732.75,-209 565.5,-209"/>
<text text-anchor="start" x="568.5" y="-215.2" font-family="Times New Roman,Times,Liberation Serif,serif" font-size="14.00">assessment_period_start_date</text>
<polygon fill="none" stroke="black" points="732.75,-209 732.75,-231.5 943.5,-231.5 943.5,-209 732.75,-209"/>
<text text-anchor="start" x="798.75" y="-215.2" font-family="Times New Roman,Times,Liberation Serif,serif" font-size="14.00">Optional[date]</text>
<polygon fill="none" stroke="black" points="943.5,-209 943.5,-231.5 1011.75,-231.5 1011.75,-209 943.5,-209"/>
<text text-anchor="start" x="946.5" y="-215.2" font-family="Times New Roman,Times,Liberation Serif,serif" font-size="14.00">string | null</text>
<polygon fill="none" stroke="black" points="565.5,-186.5 565.5,-209 732.75,-209 732.75,-186.5 565.5,-186.5"/>
<text text-anchor="start" x="570.38" y="-192.7" font-family="Times New Roman,Times,Liberation Serif,serif" font-size="14.00">assessment_period_end_date</text>
<polygon fill="none" stroke="black" points="732.75,-186.5 732.75,-209 943.5,-209 943.5,-186.5 732.75,-186.5"/>
<text text-anchor="start" x="798.75" y="-192.7" font-family="Times New Roman,Times,Liberation Serif,serif" font-size="14.00">Optional[date]</text>
<polygon fill="none" stroke="black" points="943.5,-186.5 943.5,-209 1011.75,-209 1011.75,-186.5 943.5,-186.5"/>
<text text-anchor="start" x="946.5" y="-192.7" font-family="Times New Roman,Times,Liberation Serif,serif" font-size="14.00">string | null</text>
<polygon fill="none" stroke="black" points="565.5,-164 565.5,-186.5 732.75,-186.5 732.75,-164 565.5,-164"/>
<text text-anchor="start" x="619.12" y="-170.2" font-family="Times New Roman,Times,Liberation Serif,serif" font-size="14.00">restrictions</text>
<polygon fill="none" stroke="black" points="732.75,-164 732.75,-186.5 943.5,-186.5 943.5,-164 732.75,-164"/>
<text text-anchor="start" x="735.75" y="-170.2" font-family="Times New Roman,Times,Liberation Serif,serif" font-size="14.00">Optional[list[OperationalRestriction]]</text>
<polygon fill="none" stroke="black" points="943.5,-164 943.5,-186.5 1011.75,-186.5 1011.75,-164 943.5,-164"/>
<text text-anchor="start" x="948" y="-170.2" font-family="Times New Roman,Times,Liberation Serif,serif" font-size="14.00">array | null</text>
</a>
</g>
</g>
<!-- eya_def_tools.data_models.wind_farm.TurbineConfiguration&#45;&gt;eya_def_tools.data_models.spatial.Location -->
<g id="edge1" class="edge">
<title>eya_def_tools.data_models.wind_farm.TurbineConfiguration:e&#45;&gt;eya_def_tools.data_models.spatial.Location:w</title>
<path fill="none" stroke="black" d="M1021.45,-310.25C1093.9,-310.27 1118.54,-310.47 1188.81,-310.5"/>
<polyline fill="none" stroke="black" points="1011.75,-310.25 1016.75,-310.25"/>
<polyline fill="none" stroke="black" points="1016.75,-310.25 1021.75,-310.25"/>
<polyline fill="none" stroke="black" points="1203.5,-310.5 1198.5,-310.5"/>
<polygon fill="black" stroke="black" points="1197.5,-305.5 1197.5,-315.5 1195.5,-315.5 1195.5,-305.5 1197.5,-305.5"/>
<polyline fill="none" stroke="black" points="1198.5,-310.5 1193.5,-310.5"/>
<polygon fill="black" stroke="black" points="1192.5,-305.5 1192.5,-315.5 1190.5,-315.5 1190.5,-305.5 1192.5,-305.5"/>
<polyline fill="none" stroke="black" points="1193.5,-310.5 1188.5,-310.5"/>
</g>
<!-- eya_def_tools.data_models.wind_farm.TurbineConfiguration&#45;&gt;eya_def_tools.data_models.wind_farm.OperationalRestriction -->
<g id="edge2" class="edge">
<title>eya_def_tools.data_models.wind_farm.TurbineConfiguration:e&#45;&gt;eya_def_tools.data_models.wind_farm.OperationalRestriction:w</title>
<path fill="none" stroke="black" d="M1021.74,-174.78C1056.9,-171.38 1069.35,-150.37 1100.74,-144.05"/>
<polyline fill="none" stroke="black" points="1011.75,-175.25 1016.74,-175.02"/>
<polyline fill="none" stroke="black" points="1016.74,-175.02 1021.74,-174.78"/>
<polygon fill="black" stroke="black" points="1109.46,-143.22 1119.84,-146.76 1114.77,-142.72 1119.08,-142.31 1119.08,-142.31 1119.08,-142.31 1114.77,-142.72 1118.99,-137.8 1109.46,-143.22"/>
<ellipse fill="none" stroke="black" cx="1103.77" cy="-143.76" rx="4" ry="4"/>
</g>
<!-- eya_def_tools.data_models.wind_farm.WindFarmConfiguration -->
<g id="node4" class="node">
<title>eya_def_tools.data_models.wind_farm.WindFarmConfiguration</title>
<g id="a_node4"><a xlink:title="eya_def_tools.data_models.wind_farm.WindFarmConfiguration&#10;&#10;A collection of wind turbines considered as one unit (plant).&#10;&#10;Fields:&#10; &#160;&#160;&#160;id: Unique identifier of the wind farm.&#10; &#160;&#160;&#160;label: Label or name of the wind farm.&#10; &#160;&#160;&#160;abbreviation: Optional abbreviated label of the wind farm. Default is None.&#10; &#160;&#160;&#160;description: Optional description of the wind farm, which should not be empty if the field is included. Default is None.&#10; &#160;&#160;&#160;comments: Optional comments on the wind farm, which should not be empty if the field is included. Default is None.&#10; &#160;&#160;&#160;turbines: List of specifications for constituent turbines.&#10; &#160;&#160;&#160;relevance: The relevance of the wind farm for the assessment (&#39;internal&#39;, &#39;external&#39; or &#39;future&#39;).&#10; &#160;&#160;&#160;assessment_period_start_date: The assessment period start date of the wind farm in the ISO 8601 standard format for a calendar date, i.e. YYYY&#45;MM&#45;DD.&#10; &#160;&#160;&#160;assessment_period_end_date: The assessment period end date of the wind farm in the ISO 8601 standard format for a calendar date, i.e. YYYY&#45;MM&#45;DD.&#10; &#160;&#160;&#160;installed_capacity: The maximum production (in MW) of the wind farm under typical conditions. If there are features in place to increase power output beyond the stated nameplate power of the turbines (e.g. so&#45;called power boost solutions), the wind farm installed capacity should correspond to that increased power, insofar as it is reached under typical conditions and not only in rare exceptions.&#10; &#160;&#160;&#160;export_capacity: Optional specification of the maximum permanently transmittable power (in MW) from the wind farm at the grid connection, or equivalent, if known. If not included it shall be assumed that the wind farm can transmit the full produced output. Default is None.&#10; &#160;&#160;&#160;restrictions: List of operational restrictions at the wind farm level. Default is None.&#10;">
<polygon fill="none" stroke="black" points="0,-456.75 0,-479.25 457.5,-479.25 457.5,-456.75 0,-456.75"/>
<text text-anchor="start" x="155.25" y="-463.95" font-family="Times New Roman,Times,Liberation Serif,serif" font-weight="bold" font-size="14.00">WindFarmConfiguration</text>
<polygon fill="none" stroke="black" points="0,-434.25 0,-456.75 167.25,-456.75 167.25,-434.25 0,-434.25"/>
<text text-anchor="start" x="78.38" y="-440.45" font-family="Times New Roman,Times,Liberation Serif,serif" font-size="14.00">id</text>
<polygon fill="none" stroke="black" points="167.25,-434.25 167.25,-456.75 378,-456.75 378,-434.25 167.25,-434.25"/>
<text text-anchor="start" x="265.88" y="-440.45" font-family="Times New Roman,Times,Liberation Serif,serif" font-size="14.00">str</text>
<polygon fill="none" stroke="black" points="378,-434.25 378,-456.75 457.5,-456.75 457.5,-434.25 378,-434.25"/>
<text text-anchor="start" x="402.38" y="-440.45" font-family="Times New Roman,Times,Liberation Serif,serif" font-size="14.00">string</text>
<polygon fill="none" stroke="black" points="0,-411.75 0,-434.25 167.25,-434.25 167.25,-411.75 0,-411.75"/>
<text text-anchor="start" x="70.5" y="-417.95" font-family="Times New Roman,Times,Liberation Serif,serif" font-size="14.00">label</text>
<polygon fill="none" stroke="black" points="167.25,-411.75 167.25,-434.25 378,-434.25 378,-411.75 167.25,-411.75"/>
<text text-anchor="start" x="265.88" y="-417.95" font-family="Times New Roman,Times,Liberation Serif,serif" font-size="14.00">str</text>
<polygon fill="none" stroke="black" points="378,-411.75 378,-434.25 457.5,-434.25 457.5,-411.75 378,-411.75"/>
<text text-anchor="start" x="402.38" y="-417.95" font-family="Times New Roman,Times,Liberation Serif,serif" font-size="14.00">string</text>
<polygon fill="none" stroke="black" points="0,-389.25 0,-411.75 167.25,-411.75 167.25,-389.25 0,-389.25"/>
<text text-anchor="start" x="49.88" y="-395.45" font-family="Times New Roman,Times,Liberation Serif,serif" font-size="14.00">abbreviation</text>
<polygon fill="none" stroke="black" points="167.25,-389.25 167.25,-411.75 378,-411.75 378,-389.25 167.25,-389.25"/>
<text text-anchor="start" x="237.75" y="-395.45" font-family="Times New Roman,Times,Liberation Serif,serif" font-size="14.00">Optional[str]</text>
<polygon fill="none" stroke="black" points="378,-389.25 378,-411.75 457.5,-411.75 457.5,-389.25 378,-389.25"/>
<text text-anchor="start" x="386.62" y="-395.45" font-family="Times New Roman,Times,Liberation Serif,serif" font-size="14.00">string | null</text>
<polygon fill="none" stroke="black" points="0,-366.75 0,-389.25 167.25,-389.25 167.25,-366.75 0,-366.75"/>
<text text-anchor="start" x="53.62" y="-372.95" font-family="Times New Roman,Times,Liberation Serif,serif" font-size="14.00">description</text>
<polygon fill="none" stroke="black" points="167.25,-366.75 167.25,-389.25 378,-389.25 378,-366.75 167.25,-366.75"/>
<text text-anchor="start" x="237.75" y="-372.95" font-family="Times New Roman,Times,Liberation Serif,serif" font-size="14.00">Optional[str]</text>
<polygon fill="none" stroke="black" points="378,-366.75 378,-389.25 457.5,-389.25 457.5,-366.75 378,-366.75"/>
<text text-anchor="start" x="386.62" y="-372.95" font-family="Times New Roman,Times,Liberation Serif,serif" font-size="14.00">string | null</text>
<polygon fill="none" stroke="black" points="0,-344.25 0,-366.75 167.25,-366.75 167.25,-344.25 0,-344.25"/>
<text text-anchor="start" x="55.12" y="-350.45" font-family="Times New Roman,Times,Liberation Serif,serif" font-size="14.00">comments</text>
<polygon fill="none" stroke="black" points="167.25,-344.25 167.25,-366.75 378,-366.75 378,-344.25 167.25,-344.25"/>
<text text-anchor="start" x="237.75" y="-350.45" font-family="Times New Roman,Times,Liberation Serif,serif" font-size="14.00">Optional[str]</text>
<polygon fill="none" stroke="black" points="378,-344.25 378,-366.75 457.5,-366.75 457.5,-344.25 378,-344.25"/>
<text text-anchor="start" x="386.62" y="-350.45" font-family="Times New Roman,Times,Liberation Serif,serif" font-size="14.00">string | null</text>
<polygon fill="none" stroke="black" points="0,-321.75 0,-344.25 167.25,-344.25 167.25,-321.75 0,-321.75"/>
<text text-anchor="start" x="61.88" y="-327.95" font-family="Times New Roman,Times,Liberation Serif,serif" font-size="14.00">turbines</text>
<polygon fill="none" stroke="black" points="167.25,-321.75 167.25,-344.25 378,-344.25 378,-321.75 167.25,-321.75"/>
<text text-anchor="start" x="200.62" y="-327.95" font-family="Times New Roman,Times,Liberation Serif,serif" font-size="14.00">list[TurbineConfiguration]</text>
<polygon fill="none" stroke="black" points="378,-321.75 378,-344.25 457.5,-344.25 457.5,-321.75 378,-321.75"/>
<text text-anchor="start" x="403.88" y="-327.95" font-family="Times New Roman,Times,Liberation Serif,serif" font-size="14.00">array</text>
<polygon fill="none" stroke="black" points="0,-299.25 0,-321.75 167.25,-321.75 167.25,-299.25 0,-299.25"/>
<text text-anchor="start" x="57.75" y="-305.45" font-family="Times New Roman,Times,Liberation Serif,serif" font-size="14.00">relevance</text>
<polygon fill="none" stroke="black" points="167.25,-299.25 167.25,-321.75 378,-321.75 378,-299.25 167.25,-299.25"/>
<text text-anchor="start" x="214.88" y="-305.45" font-family="Times New Roman,Times,Liberation Serif,serif" font-size="14.00">WindFarmRelevance</text>
<polygon fill="none" stroke="black" points="378,-299.25 378,-321.75 457.5,-321.75 457.5,-299.25 378,-299.25"/>
<text text-anchor="start" x="402.38" y="-305.45" font-family="Times New Roman,Times,Liberation Serif,serif" font-size="14.00">string</text>
<polygon fill="none" stroke="black" points="0,-276.75 0,-299.25 167.25,-299.25 167.25,-276.75 0,-276.75"/>
<text text-anchor="start" x="3" y="-282.95" font-family="Times New Roman,Times,Liberation Serif,serif" font-size="14.00">assessment_period_start_date</text>
<polygon fill="none" stroke="black" points="167.25,-276.75 167.25,-299.25 378,-299.25 378,-276.75 167.25,-276.75"/>
<text text-anchor="start" x="261.38" y="-282.95" font-family="Times New Roman,Times,Liberation Serif,serif" font-size="14.00">date</text>
<polygon fill="none" stroke="black" points="378,-276.75 378,-299.25 457.5,-299.25 457.5,-276.75 378,-276.75"/>
<text text-anchor="start" x="402.38" y="-282.95" font-family="Times New Roman,Times,Liberation Serif,serif" font-size="14.00">string</text>
<polygon fill="none" stroke="black" points="0,-254.25 0,-276.75 167.25,-276.75 167.25,-254.25 0,-254.25"/>
<text text-anchor="start" x="4.88" y="-260.45" font-family="Times New Roman,Times,Liberation Serif,serif" font-size="14.00">assessment_period_end_date</text>
<polygon fill="none" stroke="black" points="167.25,-254.25 167.25,-276.75 378,-276.75 378,-254.25 167.25,-254.25"/>
<text text-anchor="start" x="261.38" y="-260.45" font-family="Times New Roman,Times,Liberation Serif,serif" font-size="14.00">date</text>
<polygon fill="none" stroke="black" points="378,-254.25 378,-276.75 457.5,-276.75 457.5,-254.25 378,-254.25"/>
<text text-anchor="start" x="402.38" y="-260.45" font-family="Times New Roman,Times,Liberation Serif,serif" font-size="14.00">string</text>
<polygon fill="none" stroke="black" points="0,-231.75 0,-254.25 167.25,-254.25 167.25,-231.75 0,-231.75"/>
<text text-anchor="start" x="34.88" y="-237.95" font-family="Times New Roman,Times,Liberation Serif,serif" font-size="14.00">installed_capacity</text>
<polygon fill="none" stroke="black" points="167.25,-231.75 167.25,-254.25 378,-254.25 378,-231.75 167.25,-231.75"/>
<text text-anchor="start" x="260.25" y="-237.95" font-family="Times New Roman,Times,Liberation Serif,serif" font-size="14.00">float</text>
<polygon fill="none" stroke="black" points="378,-231.75 378,-254.25 457.5,-254.25 457.5,-231.75 378,-231.75"/>
<text text-anchor="start" x="396.75" y="-237.95" font-family="Times New Roman,Times,Liberation Serif,serif" font-size="14.00">number</text>
<polygon fill="none" stroke="black" points="0,-209.25 0,-231.75 167.25,-231.75 167.25,-209.25 0,-209.25"/>
<text text-anchor="start" x="40.5" y="-215.45" font-family="Times New Roman,Times,Liberation Serif,serif" font-size="14.00">export_capacity</text>
<polygon fill="none" stroke="black" points="167.25,-209.25 167.25,-231.75 378,-231.75 378,-209.25 167.25,-209.25"/>
<text text-anchor="start" x="232.12" y="-215.45" font-family="Times New Roman,Times,Liberation Serif,serif" font-size="14.00">Optional[float]</text>
<polygon fill="none" stroke="black" points="378,-209.25 378,-231.75 457.5,-231.75 457.5,-209.25 378,-209.25"/>
<text text-anchor="start" x="381" y="-215.45" font-family="Times New Roman,Times,Liberation Serif,serif" font-size="14.00">number | null</text>
<polygon fill="none" stroke="black" points="0,-186.75 0,-209.25 167.25,-209.25 167.25,-186.75 0,-186.75"/>
<text text-anchor="start" x="53.62" y="-192.95" font-family="Times New Roman,Times,Liberation Serif,serif" font-size="14.00">restrictions</text>
<polygon fill="none" stroke="black" points="167.25,-186.75 167.25,-209.25 378,-209.25 378,-186.75 167.25,-186.75"/>
<text text-anchor="start" x="170.25" y="-192.95" font-family="Times New Roman,Times,Liberation Serif,serif" font-size="14.00">Optional[list[OperationalRestriction]]</text>
<polygon fill="none" stroke="black" points="378,-186.75 378,-209.25 457.5,-209.25 457.5,-186.75 378,-186.75"/>
<text text-anchor="start" x="388.12" y="-192.95" font-family="Times New Roman,Times,Liberation Serif,serif" font-size="14.00">array | null</text>
</a>
</g>
</g>
<!-- eya_def_tools.data_models.wind_farm.WindFarmConfiguration&#45;&gt;eya_def_tools.data_models.wind_farm.OperationalRestriction -->
<g id="edge3" class="edge">
<title>eya_def_tools.data_models.wind_farm.WindFarmConfiguration:e&#45;&gt;eya_def_tools.data_models.wind_farm.OperationalRestriction:w</title>
<path fill="none" stroke="black" d="M467.47,-197.49C511.37,-192.81 517.05,-157.23 565.5,-146 799.15,-91.85 869.71,-139.59 1100.63,-142.14"/>
<polyline fill="none" stroke="black" points="457.5,-198 462.49,-197.75"/>
<polyline fill="none" stroke="black" points="462.49,-197.75 467.49,-197.49"/>
<polygon fill="black" stroke="black" points="1109.42,-142.19 1119.39,-146.75 1114.75,-142.22 1119.08,-142.25 1119.08,-142.25 1119.08,-142.25 1114.75,-142.22 1119.44,-137.75 1109.42,-142.19"/>
<ellipse fill="none" stroke="black" cx="1103.7" cy="-142.16" rx="4" ry="4"/>
</g>
<!-- eya_def_tools.data_models.wind_farm.WindFarmConfiguration&#45;&gt;eya_def_tools.data_models.wind_farm.TurbineConfiguration -->
<g id="edge4" class="edge">
<title>eya_def_tools.data_models.wind_farm.WindFarmConfiguration:e&#45;&gt;eya_def_tools.data_models.wind_farm.TurbineConfiguration:w</title>
<path fill="none" stroke="black" d="M467.37,-333.83C513.39,-342.01 508.28,-408.11 550.42,-420.69"/>
<polyline fill="none" stroke="black" points="457.5,-333 462.48,-333.42"/>
<polyline fill="none" stroke="black" points="462.48,-333.42 467.46,-333.84"/>
<polygon fill="black" stroke="black" points="555.26,-421.35 564.56,-427.16 560.55,-422.07 564.84,-422.66 564.84,-422.66 564.84,-422.66 560.55,-422.07 565.78,-418.25 555.26,-421.35"/>
<polyline fill="none" stroke="black" points="554.05,-421.18 549.1,-420.51"/>
</g>
</g>
</svg>
