<?xml version="1.0" encoding="UTF-8" standalone="no"?>
<!DOCTYPE svg PUBLIC "-//W3C//DTD SVG 1.1//EN"
 "http://www.w3.org/Graphics/SVG/1.1/DTD/svg11.dtd">
<!-- Generated by graphviz version 9.0.0 (20230911.1827)
 -->
<!-- Title: Entity Relationship Diagram Pages: 1 -->
<svg width="1197pt" height="461pt"
 viewBox="0.00 0.00 1197.00 460.75" xmlns="http://www.w3.org/2000/svg" xmlns:xlink="http://www.w3.org/1999/xlink">
<g id="graph0" class="graph" transform="scale(1 1) rotate(0) translate(4 456.75)">
<title>Entity Relationship Diagram</title>
<polygon fill="white" stroke="none" points="-4,4 -4,-456.75 1193,-456.75 1193,4 -4,4"/>
<text text-anchor="middle" x="594.5" y="-6.7" font-family="Times New Roman,serif" font-size="9.00" fill="#a8a8a8">Created by erdantic v0.6.0 &lt;https://github.com/drivendataorg/erdantic&gt;</text>
<!-- eya_def_tools.data_models.spatial.Location -->
<g id="node1" class="node">
<title>eya_def_tools.data_models.spatial.Location</title>
<g id="a_node1"><a xlink:title="eya_def_tools.data_models.spatial.Location&#10;&#10;Specification of a horizontal location in space.&#10;&#10;Attributes:&#10; &#160;&#160;&#160;x (float): Location x&#45;coordinate (typically easting).&#10; &#160;&#160;&#160;y (float): Location y&#45;coordinate (typically northing).&#10;">
<polygon fill="none" stroke="black" points="1062.5,-283.75 1062.5,-305.75 1122.5,-305.75 1122.5,-283.75 1062.5,-283.75"/>
<text text-anchor="start" x="1065.5" y="-290.45" font-family="Times New Roman,serif" font-weight="bold" font-size="14.00">Location</text>
<polygon fill="none" stroke="black" points="1062.5,-262.75 1062.5,-283.75 1083.5,-283.75 1083.5,-262.75 1062.5,-262.75"/>
<text text-anchor="start" x="1069.62" y="-267.45" font-family="Times New Roman,serif" font-size="14.00">x</text>
<polygon fill="none" stroke="black" points="1083.5,-262.75 1083.5,-283.75 1122.5,-283.75 1122.5,-262.75 1083.5,-262.75"/>
<text text-anchor="start" x="1090.62" y="-267.45" font-family="Times New Roman,serif" font-size="14.00">float</text>
<polygon fill="none" stroke="black" points="1062.5,-241.75 1062.5,-262.75 1083.5,-262.75 1083.5,-241.75 1062.5,-241.75"/>
<text text-anchor="start" x="1069.62" y="-246.45" font-family="Times New Roman,serif" font-size="14.00">y</text>
<polygon fill="none" stroke="black" points="1083.5,-241.75 1083.5,-262.75 1122.5,-262.75 1122.5,-241.75 1083.5,-241.75"/>
<text text-anchor="start" x="1090.62" y="-246.45" font-family="Times New Roman,serif" font-size="14.00">float</text>
</a>
</g>
</g>
<!-- eya_def_tools.data_models.wind_farm.OperationalRestriction -->
<g id="node2" class="node">
<title>eya_def_tools.data_models.wind_farm.OperationalRestriction</title>
<g id="a_node2"><a xlink:title="eya_def_tools.data_models.wind_farm.OperationalRestriction&#10;&#10;Specifications of a restriction that limits power output.&#10;&#10;In the current draft of the schema, &#39;label&#39;, &#39;description&#39; and&#10;&#39;comments&#39; fields are available to describe the restriction with&#10;free text. This is intended to be expanded into a more comprehensive&#10;data model.&#10;&#10;Attributes:&#10; &#160;&#160;&#160;label (str): Short label to indicate the type of operational restriction.&#10; &#160;&#160;&#160;description (str): Description of the operational restriction.&#10; &#160;&#160;&#160;comments (Optional[str]): Optional comments on the operational restriction, which should not be empty if the field is included. Default is None.&#10; &#160;&#160;&#160;start_datetime (Optional[datetime]): Optional operational restriction start datetime in the ISO 8601 standard format with the &#39;T&#39; required between the calendar date and time, i.e. YYYY&#45;MM&#45;DDThh:mm:ss. In cases where the time is not relevant (i.e. only the date is relevant), hours, minutes and seconds shall all be set to zero. If using the time part, the timezone of the data must be consistent with the UTC offset specified for the EYA DEF document. Default is None.&#10; &#160;&#160;&#160;end_datetime (Optional[datetime]): Optional operational restriction end datetime in the ISO 8601 standard format with the &#39;T&#39; required between the calendar date and time, i.e. YYYY&#45;MM&#45;DDThh:mm:ss. In cases where the time is not relevant (i.e. only the date is relevant), hours, minutes and seconds shall all be set to zero. If using the time part, the timezone of the data must be consistent with the UTC offset specified for the EYA DEF document. Default is None.&#10;">
<polygon fill="none" stroke="black" points="996,-124.25 996,-146.25 1189,-146.25 1189,-124.25 996,-124.25"/>
<text text-anchor="start" x="1022" y="-130.95" font-family="Times New Roman,serif" font-weight="bold" font-size="14.00">OperationalRestriction</text>
<polygon fill="none" stroke="black" points="996,-103.25 996,-124.25 1080,-124.25 1080,-103.25 996,-103.25"/>
<text text-anchor="start" x="1025.25" y="-107.95" font-family="Times New Roman,serif" font-size="14.00">label</text>
<polygon fill="none" stroke="black" points="1080,-103.25 1080,-124.25 1189,-124.25 1189,-103.25 1080,-103.25"/>
<text text-anchor="start" x="1127.38" y="-107.95" font-family="Times New Roman,serif" font-size="14.00">str</text>
<polygon fill="none" stroke="black" points="996,-82.25 996,-103.25 1080,-103.25 1080,-82.25 996,-82.25"/>
<text text-anchor="start" x="1006.88" y="-86.95" font-family="Times New Roman,serif" font-size="14.00">description</text>
<polygon fill="none" stroke="black" points="1080,-82.25 1080,-103.25 1189,-103.25 1189,-82.25 1080,-82.25"/>
<text text-anchor="start" x="1127.38" y="-86.95" font-family="Times New Roman,serif" font-size="14.00">str</text>
<polygon fill="none" stroke="black" points="996,-61.25 996,-82.25 1080,-82.25 1080,-61.25 996,-61.25"/>
<text text-anchor="start" x="1009.12" y="-65.95" font-family="Times New Roman,serif" font-size="14.00">comments</text>
<polygon fill="none" stroke="black" points="1080,-61.25 1080,-82.25 1189,-82.25 1189,-61.25 1080,-61.25"/>
<text text-anchor="start" x="1098.88" y="-65.95" font-family="Times New Roman,serif" font-size="14.00">Optional[str]</text>
<polygon fill="none" stroke="black" points="996,-40.25 996,-61.25 1080,-61.25 1080,-40.25 996,-40.25"/>
<text text-anchor="start" x="999" y="-44.95" font-family="Times New Roman,serif" font-size="14.00">start_datetime</text>
<polygon fill="none" stroke="black" points="1080,-40.25 1080,-61.25 1189,-61.25 1189,-40.25 1080,-40.25"/>
<text text-anchor="start" x="1082.75" y="-44.95" font-family="Times New Roman,serif" font-size="14.00">Optional[datetime]</text>
<polygon fill="none" stroke="black" points="996,-19.25 996,-40.25 1080,-40.25 1080,-19.25 996,-19.25"/>
<text text-anchor="start" x="1000.88" y="-23.95" font-family="Times New Roman,serif" font-size="14.00">end_datetime</text>
<polygon fill="none" stroke="black" points="1080,-19.25 1080,-40.25 1189,-40.25 1189,-19.25 1080,-19.25"/>
<text text-anchor="start" x="1082.75" y="-23.95" font-family="Times New Roman,serif" font-size="14.00">Optional[datetime]</text>
</a>
</g>
</g>
<!-- eya_def_tools.data_models.wind_farm.TurbineConfiguration -->
<g id="node3" class="node">
<title>eya_def_tools.data_models.wind_farm.TurbineConfiguration</title>
<g id="a_node3"><a xlink:title="eya_def_tools.data_models.wind_farm.TurbineConfiguration&#10;&#10;Specification of all details for a turbine configuration.&#10;&#10;Attributes:&#10; &#160;&#160;&#160;id (str): Unique identifier of the turbine.&#10; &#160;&#160;&#160;label (Optional[str]): Label of the turbine, if different from the &#39;id&#39;. Default is None.&#10; &#160;&#160;&#160;description (Optional[str]): Optional description of the turbine, which should not be empty if the field is included. Default is None.&#10; &#160;&#160;&#160;comments (Optional[str]): Optional comments on the turbine, which should not be empty if the field is included. Default is None.&#10; &#160;&#160;&#160;location (Location): The horizontal spatial location of the turbine.&#10; &#160;&#160;&#160;ground_level_altitude (float): The ground level altitude (base elevation) of the turbine (in m).&#10; &#160;&#160;&#160;hub_height (float): The hub height of the turbine above ground level (in m).&#10; &#160;&#160;&#160;turbine_model_id (str): Unique identifier of the turbine model.&#10; &#160;&#160;&#160;operational_lifetime_start_date (Optional[date]): Optional operational lifetime start date of the individual turbine in the ISO 8601 standard format for a calendar date, i.e. YYYY&#45;MM&#45;DD. Default is None.&#10; &#160;&#160;&#160;operational_lifetime_end_date (Optional[date]): Optional operational lifetime end date of the individual turbine in the ISO 8601 standard format for a calendar date, i.e. YYYY&#45;MM&#45;DD. Default is None.&#10; &#160;&#160;&#160;restrictions (Optional[list[OperationalRestriction]]): List of operational restrictions at the turbine level. Default is None.&#10;">
<polygon fill="none" stroke="black" points="498,-389.25 498,-411.25 888,-411.25 888,-389.25 498,-389.25"/>
<text text-anchor="start" x="625.88" y="-395.95" font-family="Times New Roman,serif" font-weight="bold" font-size="14.00">TurbineConfiguration</text>
<polygon fill="none" stroke="black" points="498,-368.25 498,-389.25 675,-389.25 675,-368.25 498,-368.25"/>
<text text-anchor="start" x="581.25" y="-372.95" font-family="Times New Roman,serif" font-size="14.00">id</text>
<polygon fill="none" stroke="black" points="675,-368.25 675,-389.25 888,-389.25 888,-368.25 675,-368.25"/>
<text text-anchor="start" x="774.38" y="-372.95" font-family="Times New Roman,serif" font-size="14.00">str</text>
<polygon fill="none" stroke="black" points="498,-347.25 498,-368.25 675,-368.25 675,-347.25 498,-347.25"/>
<text text-anchor="start" x="573.75" y="-351.95" font-family="Times New Roman,serif" font-size="14.00">label</text>
<polygon fill="none" stroke="black" points="675,-347.25 675,-368.25 888,-368.25 888,-347.25 675,-347.25"/>
<text text-anchor="start" x="745.88" y="-351.95" font-family="Times New Roman,serif" font-size="14.00">Optional[str]</text>
<polygon fill="none" stroke="black" points="498,-326.25 498,-347.25 675,-347.25 675,-326.25 498,-326.25"/>
<text text-anchor="start" x="555.38" y="-330.95" font-family="Times New Roman,serif" font-size="14.00">description</text>
<polygon fill="none" stroke="black" points="675,-326.25 675,-347.25 888,-347.25 888,-326.25 675,-326.25"/>
<text text-anchor="start" x="745.88" y="-330.95" font-family="Times New Roman,serif" font-size="14.00">Optional[str]</text>
<polygon fill="none" stroke="black" points="498,-305.25 498,-326.25 675,-326.25 675,-305.25 498,-305.25"/>
<text text-anchor="start" x="557.62" y="-309.95" font-family="Times New Roman,serif" font-size="14.00">comments</text>
<polygon fill="none" stroke="black" points="675,-305.25 675,-326.25 888,-326.25 888,-305.25 675,-305.25"/>
<text text-anchor="start" x="745.88" y="-309.95" font-family="Times New Roman,serif" font-size="14.00">Optional[str]</text>
<polygon fill="none" stroke="black" points="498,-284.25 498,-305.25 675,-305.25 675,-284.25 498,-284.25"/>
<text text-anchor="start" x="564.38" y="-288.95" font-family="Times New Roman,serif" font-size="14.00">location</text>
<polygon fill="none" stroke="black" points="675,-284.25 675,-305.25 888,-305.25 888,-284.25 675,-284.25"/>
<text text-anchor="start" x="756.75" y="-288.95" font-family="Times New Roman,serif" font-size="14.00">Location</text>
<polygon fill="none" stroke="black" points="498,-263.25 498,-284.25 675,-284.25 675,-263.25 498,-263.25"/>
<text text-anchor="start" x="526.88" y="-267.95" font-family="Times New Roman,serif" font-size="14.00">ground_level_altitude</text>
<polygon fill="none" stroke="black" points="675,-263.25 675,-284.25 888,-284.25 888,-263.25 675,-263.25"/>
<text text-anchor="start" x="769.12" y="-267.95" font-family="Times New Roman,serif" font-size="14.00">float</text>
<polygon fill="none" stroke="black" points="498,-242.25 498,-263.25 675,-263.25 675,-242.25 498,-242.25"/>
<text text-anchor="start" x="555.75" y="-246.95" font-family="Times New Roman,serif" font-size="14.00">hub_height</text>
<polygon fill="none" stroke="black" points="675,-242.25 675,-263.25 888,-263.25 888,-242.25 675,-242.25"/>
<text text-anchor="start" x="769.12" y="-246.95" font-family="Times New Roman,serif" font-size="14.00">float</text>
<polygon fill="none" stroke="black" points="498,-221.25 498,-242.25 675,-242.25 675,-221.25 498,-221.25"/>
<text text-anchor="start" x="537.38" y="-225.95" font-family="Times New Roman,serif" font-size="14.00">turbine_model_id</text>
<polygon fill="none" stroke="black" points="675,-221.25 675,-242.25 888,-242.25 888,-221.25 675,-221.25"/>
<text text-anchor="start" x="774.38" y="-225.95" font-family="Times New Roman,serif" font-size="14.00">str</text>
<polygon fill="none" stroke="black" points="498,-200.25 498,-221.25 675,-221.25 675,-200.25 498,-200.25"/>
<text text-anchor="start" x="501" y="-204.95" font-family="Times New Roman,serif" font-size="14.00">operational_lifetime_start_date</text>
<polygon fill="none" stroke="black" points="675,-200.25 675,-221.25 888,-221.25 888,-200.25 675,-200.25"/>
<text text-anchor="start" x="741.38" y="-204.95" font-family="Times New Roman,serif" font-size="14.00">Optional[date]</text>
<polygon fill="none" stroke="black" points="498,-179.25 498,-200.25 675,-200.25 675,-179.25 498,-179.25"/>
<text text-anchor="start" x="502.88" y="-183.95" font-family="Times New Roman,serif" font-size="14.00">operational_lifetime_end_date</text>
<polygon fill="none" stroke="black" points="675,-179.25 675,-200.25 888,-200.25 888,-179.25 675,-179.25"/>
<text text-anchor="start" x="741.38" y="-183.95" font-family="Times New Roman,serif" font-size="14.00">Optional[date]</text>
<polygon fill="none" stroke="black" points="498,-158.25 498,-179.25 675,-179.25 675,-158.25 498,-158.25"/>
<text text-anchor="start" x="555.75" y="-162.95" font-family="Times New Roman,serif" font-size="14.00">restrictions</text>
<polygon fill="none" stroke="black" points="675,-158.25 675,-179.25 888,-179.25 888,-158.25 675,-158.25"/>
<text text-anchor="start" x="678" y="-162.95" font-family="Times New Roman,serif" font-size="14.00">Optional[list[OperationalRestriction]]</text>
</a>
</g>
</g>
<!-- eya_def_tools.data_models.wind_farm.TurbineConfiguration&#45;&gt;eya_def_tools.data_models.spatial.Location -->
<g id="edge1" class="edge">
<title>eya_def_tools.data_models.wind_farm.TurbineConfiguration:e&#45;&gt;eya_def_tools.data_models.spatial.Location:w</title>
<path fill="none" stroke="black" d="M888,-294.75C959.99,-294.75 981.57,-294.75 1046.87,-294.75"/>
<polyline fill="none" stroke="black" points="1061.5,-294.75 1056.5,-294.75"/>
<polygon fill="black" stroke="black" points="1055.5,-289.75 1055.5,-299.75 1053.5,-299.75 1053.5,-289.75 1055.5,-289.75"/>
<polyline fill="none" stroke="black" points="1056.5,-294.75 1051.5,-294.75"/>
<polygon fill="black" stroke="black" points="1050.5,-289.75 1050.5,-299.75 1048.5,-299.75 1048.5,-289.75 1050.5,-289.75"/>
<polyline fill="none" stroke="black" points="1051.5,-294.75 1046.5,-294.75"/>
</g>
<!-- eya_def_tools.data_models.wind_farm.TurbineConfiguration&#45;&gt;eya_def_tools.data_models.wind_farm.OperationalRestriction -->
<g id="edge2" class="edge">
<title>eya_def_tools.data_models.wind_farm.TurbineConfiguration:e&#45;&gt;eya_def_tools.data_models.wind_farm.OperationalRestriction:w</title>
<path fill="none" stroke="black" d="M888,-168.75C931.13,-168.75 942.82,-144.38 977.11,-137.52"/>
<polyline fill="none" stroke="black" points="996,-135.75 991.02,-136.22"/>
<polygon fill="black" stroke="black" points="989.56,-131.33 990.49,-141.29 988.5,-141.48 987.57,-131.52 989.56,-131.33"/>
<polyline fill="none" stroke="black" points="991.02,-136.22 986.04,-136.69"/>
<ellipse fill="none" stroke="black" cx="981.56" cy="-137.11" rx="4" ry="4"/>
</g>
<!-- eya_def_tools.data_models.wind_farm.WindFarmConfiguration -->
<g id="node4" class="node">
<title>eya_def_tools.data_models.wind_farm.WindFarmConfiguration</title>
<g id="a_node4"><a xlink:title="eya_def_tools.data_models.wind_farm.WindFarmConfiguration&#10;&#10;A collection of wind turbines considered as one unit (plant).&#10;&#10;Attributes:&#10; &#160;&#160;&#160;id (str): Unique identifier of the wind farm.&#10; &#160;&#160;&#160;label (str): Label or name of the wind farm.&#10; &#160;&#160;&#160;abbreviation (Optional[str]): Optional abbreviated label of the wind farm. Default is None.&#10; &#160;&#160;&#160;description (Optional[str]): Optional description of the wind farm, which should not be empty if the field is included. Default is None.&#10; &#160;&#160;&#160;comments (Optional[str]): Optional comments on the wind farm, which should not be empty if the field is included. Default is None.&#10; &#160;&#160;&#160;turbines (list[TurbineConfiguration]): List of specifications for constituent turbines.&#10; &#160;&#160;&#160;relevance (WindFarmRelevance(StrEnum)): The relevance of the wind farm for the assessment (&#39;internal&#39;, &#39;external&#39; or &#39;future&#39;).&#10; &#160;&#160;&#160;operational_lifetime_start_date (date): Operational lifetime start date of the wind farm in the ISO 8601 standard format for a calendar date, i.e. YYYY&#45;MM&#45;DD.&#10; &#160;&#160;&#160;operational_lifetime_end_date (Optional[date]): Operational lifetime end date of the wind farm in the ISO 8601 standard format for a calendar date, i.e. YYYY&#45;MM&#45;DD. Default is None.&#10; &#160;&#160;&#160;installed_capacity (float): The maximum production (in MW) of the wind farm under typical conditions. If there are features in place to increase power output beyond the stated nameplate power of the turbines (e.g. so&#45;called power boost solutions), the wind farm installed capacity should correspond to that increased power, insofar as it is reached under typical conditions and not only in rare exceptions.&#10; &#160;&#160;&#160;export_capacity (Optional[float]): Optional specification of the maximum permanently transmittable power (in MW) from the wind farm at the grid connection, or equivalent, if known. If not included it shall be assumed that the wind farm can transmit the full produced output. Default is None.&#10; &#160;&#160;&#160;restrictions (Optional[list[OperationalRestriction]]): List of operational restrictions at the wind farm level. Default is None.&#10;">
<polygon fill="none" stroke="black" points="0,-430.75 0,-452.75 390,-452.75 390,-430.75 0,-430.75"/>
<text text-anchor="start" x="118.88" y="-437.45" font-family="Times New Roman,serif" font-weight="bold" font-size="14.00">WindFarmConfiguration</text>
<polygon fill="none" stroke="black" points="0,-409.75 0,-430.75 177,-430.75 177,-409.75 0,-409.75"/>
<text text-anchor="start" x="83.25" y="-414.45" font-family="Times New Roman,serif" font-size="14.00">id</text>
<polygon fill="none" stroke="black" points="177,-409.75 177,-430.75 390,-430.75 390,-409.75 177,-409.75"/>
<text text-anchor="start" x="276.38" y="-414.45" font-family="Times New Roman,serif" font-size="14.00">str</text>
<polygon fill="none" stroke="black" points="0,-388.75 0,-409.75 177,-409.75 177,-388.75 0,-388.75"/>
<text text-anchor="start" x="75.75" y="-393.45" font-family="Times New Roman,serif" font-size="14.00">label</text>
<polygon fill="none" stroke="black" points="177,-388.75 177,-409.75 390,-409.75 390,-388.75 177,-388.75"/>
<text text-anchor="start" x="276.38" y="-393.45" font-family="Times New Roman,serif" font-size="14.00">str</text>
<polygon fill="none" stroke="black" points="0,-367.75 0,-388.75 177,-388.75 177,-367.75 0,-367.75"/>
<text text-anchor="start" x="54.38" y="-372.45" font-family="Times New Roman,serif" font-size="14.00">abbreviation</text>
<polygon fill="none" stroke="black" points="177,-367.75 177,-388.75 390,-388.75 390,-367.75 177,-367.75"/>
<text text-anchor="start" x="247.88" y="-372.45" font-family="Times New Roman,serif" font-size="14.00">Optional[str]</text>
<polygon fill="none" stroke="black" points="0,-346.75 0,-367.75 177,-367.75 177,-346.75 0,-346.75"/>
<text text-anchor="start" x="57.38" y="-351.45" font-family="Times New Roman,serif" font-size="14.00">description</text>
<polygon fill="none" stroke="black" points="177,-346.75 177,-367.75 390,-367.75 390,-346.75 177,-346.75"/>
<text text-anchor="start" x="247.88" y="-351.45" font-family="Times New Roman,serif" font-size="14.00">Optional[str]</text>
<polygon fill="none" stroke="black" points="0,-325.75 0,-346.75 177,-346.75 177,-325.75 0,-325.75"/>
<text text-anchor="start" x="59.62" y="-330.45" font-family="Times New Roman,serif" font-size="14.00">comments</text>
<polygon fill="none" stroke="black" points="177,-325.75 177,-346.75 390,-346.75 390,-325.75 177,-325.75"/>
<text text-anchor="start" x="247.88" y="-330.45" font-family="Times New Roman,serif" font-size="14.00">Optional[str]</text>
<polygon fill="none" stroke="black" points="0,-304.75 0,-325.75 177,-325.75 177,-304.75 0,-304.75"/>
<text text-anchor="start" x="66.38" y="-309.45" font-family="Times New Roman,serif" font-size="14.00">turbines</text>
<polygon fill="none" stroke="black" points="177,-304.75 177,-325.75 390,-325.75 390,-304.75 177,-304.75"/>
<text text-anchor="start" x="211.12" y="-309.45" font-family="Times New Roman,serif" font-size="14.00">list[TurbineConfiguration]</text>
<polygon fill="none" stroke="black" points="0,-283.75 0,-304.75 177,-304.75 177,-283.75 0,-283.75"/>
<text text-anchor="start" x="62.62" y="-288.45" font-family="Times New Roman,serif" font-size="14.00">relevance</text>
<polygon fill="none" stroke="black" points="177,-283.75 177,-304.75 390,-304.75 390,-283.75 177,-283.75"/>
<text text-anchor="start" x="196.12" y="-288.45" font-family="Times New Roman,serif" font-size="14.00">WindFarmRelevance(StrEnum)</text>
<polygon fill="none" stroke="black" points="0,-262.75 0,-283.75 177,-283.75 177,-262.75 0,-262.75"/>
<text text-anchor="start" x="3" y="-267.45" font-family="Times New Roman,serif" font-size="14.00">operational_lifetime_start_date</text>
<polygon fill="none" stroke="black" points="177,-262.75 177,-283.75 390,-283.75 390,-262.75 177,-262.75"/>
<text text-anchor="start" x="271.88" y="-267.45" font-family="Times New Roman,serif" font-size="14.00">date</text>
<polygon fill="none" stroke="black" points="0,-241.75 0,-262.75 177,-262.75 177,-241.75 0,-241.75"/>
<text text-anchor="start" x="4.88" y="-246.45" font-family="Times New Roman,serif" font-size="14.00">operational_lifetime_end_date</text>
<polygon fill="none" stroke="black" points="177,-241.75 177,-262.75 390,-262.75 390,-241.75 177,-241.75"/>
<text text-anchor="start" x="243.38" y="-246.45" font-family="Times New Roman,serif" font-size="14.00">Optional[date]</text>
<polygon fill="none" stroke="black" points="0,-220.75 0,-241.75 177,-241.75 177,-220.75 0,-220.75"/>
<text text-anchor="start" x="39" y="-225.45" font-family="Times New Roman,serif" font-size="14.00">installed_capacity</text>
<polygon fill="none" stroke="black" points="177,-220.75 177,-241.75 390,-241.75 390,-220.75 177,-220.75"/>
<text text-anchor="start" x="271.12" y="-225.45" font-family="Times New Roman,serif" font-size="14.00">float</text>
<polygon fill="none" stroke="black" points="0,-199.75 0,-220.75 177,-220.75 177,-199.75 0,-199.75"/>
<text text-anchor="start" x="43.5" y="-204.45" font-family="Times New Roman,serif" font-size="14.00">export_capacity</text>
<polygon fill="none" stroke="black" points="177,-199.75 177,-220.75 390,-220.75 390,-199.75 177,-199.75"/>
<text text-anchor="start" x="242.62" y="-204.45" font-family="Times New Roman,serif" font-size="14.00">Optional[float]</text>
<polygon fill="none" stroke="black" points="0,-178.75 0,-199.75 177,-199.75 177,-178.75 0,-178.75"/>
<text text-anchor="start" x="57.75" y="-183.45" font-family="Times New Roman,serif" font-size="14.00">restrictions</text>
<polygon fill="none" stroke="black" points="177,-178.75 177,-199.75 390,-199.75 390,-178.75 177,-178.75"/>
<text text-anchor="start" x="180" y="-183.45" font-family="Times New Roman,serif" font-size="14.00">Optional[list[OperationalRestriction]]</text>
</a>
</g>
</g>
<!-- eya_def_tools.data_models.wind_farm.WindFarmConfiguration&#45;&gt;eya_def_tools.data_models.wind_farm.OperationalRestriction -->
<g id="edge3" class="edge">
<title>eya_def_tools.data_models.wind_farm.WindFarmConfiguration:e&#45;&gt;eya_def_tools.data_models.wind_farm.OperationalRestriction:w</title>
<path fill="none" stroke="black" d="M390,-188.75C442.71,-188.75 446.53,-151.1 498,-139.75 707.92,-93.47 771.04,-133.31 977.26,-135.64"/>
<polyline fill="none" stroke="black" points="996,-135.75 991,-135.72"/>
<polygon fill="black" stroke="black" points="990.03,-130.72 989.97,-140.72 987.97,-140.7 988.03,-130.71 990.03,-130.72"/>
<polyline fill="none" stroke="black" points="991,-135.72 986,-135.69"/>
<ellipse fill="none" stroke="black" cx="981.5" cy="-135.67" rx="4" ry="4"/>
</g>
<!-- eya_def_tools.data_models.wind_farm.WindFarmConfiguration&#45;&gt;eya_def_tools.data_models.wind_farm.TurbineConfiguration -->
<g id="edge4" class="edge">
<title>eya_def_tools.data_models.wind_farm.WindFarmConfiguration:e&#45;&gt;eya_def_tools.data_models.wind_farm.TurbineConfiguration:w</title>
<path fill="none" stroke="black" d="M390,-314.75C390.12,-314.75 390.24,-314.75 390.36,-314.75"/>
<polygon fill="black" stroke="black" points="489.93,-394.3 494.93,-404.06 494.09,-397.63 497.48,-400.33 497.48,-400.33 497.48,-400.33 494.09,-397.63 500.55,-397.03 489.93,-394.3"/>
<ellipse fill="none" stroke="black" cx="485.46" cy="-390.73" rx="4" ry="4"/>
</g>
</g>
</svg>
