<?xml version="1.0" encoding="UTF-8" standalone="no"?>
<!DOCTYPE svg PUBLIC "-//W3C//DTD SVG 1.1//EN"
 "http://www.w3.org/Graphics/SVG/1.1/DTD/svg11.dtd">
<!-- Generated by graphviz version 7.0.4 (20221203.1631)
 -->
<!-- Title: Entity Relationship Diagram Pages: 1 -->
<svg width="1951pt" height="419pt"
 viewBox="0.00 0.00 1951.00 418.50" xmlns="http://www.w3.org/2000/svg" xmlns:xlink="http://www.w3.org/1999/xlink">
<g id="graph0" class="graph" transform="scale(1 1) rotate(0) translate(4 414.5)">
<title>Entity Relationship Diagram</title>
<polygon fill="white" stroke="none" points="-4,4 -4,-414.5 1947,-414.5 1947,4 -4,4"/>
<text text-anchor="middle" x="971.5" y="-6.8" font-family="Times New Roman,serif" font-size="9.00" fill="#a8a8a8">Created by erdantic v0.6.0 &lt;https://github.com/drivendataorg/erdantic&gt;</text>
<!-- eya_def_tools.data_models.dataset.Dataset -->
<g id="node1" class="node">
<title>eya_def_tools.data_models.dataset.Dataset</title>
<g id="a_node1"><a xlink:title="eya_def_tools.data_models.dataset.Dataset&#10;&#10;Collection of labelled data for one specific quantity.&#10;&#10;The data is labelled by specifying dimensions and including&#10;coordinates along the dimensions for each data value.&#10;&#10;Attributes:&#10; &#160;&#160;&#160;label (Optional[str]): Optional label of the dataset, which should not be empty if the field is included. Default is None.&#10; &#160;&#160;&#160;description (Optional[str]): Optional description of the dataset, which should not be empty if the field is included. Default is None.&#10; &#160;&#160;&#160;comments (Optional[str]): Optional comments on the dataset, which should not be empty if the field is included. Default is None.&#10; &#160;&#160;&#160;assessment_period (Optional[AssessmentPeriod(StrEnum)]): Optional period of or in time that has been assessed and for which the dataset is applicable. This field is to be included only when relevant. Default is None.&#10; &#160;&#160;&#160;dimensions (Optional[list[DatasetDimension(StrEnum)]]): Dimensions along which the dataset is binned. All statistics within the same dataset object must have the same dimensions. The dimensions must correspond to and be listed in the same order as the coordinates for the values of all statistics. A dataset without dimensions can only have a single value for each statistic. Default is None.&#10; &#160;&#160;&#160;statistics (list[DatasetStatistic]): List of dataset statistic objects that each include data values for a specific statistic type. For example, there may be two statistics, one for mean values and one for standard deviation values.&#10;">
<polygon fill="none" stroke="black" points="676,-230 676,-251 1036,-251 1036,-230 676,-230"/>
<text text-anchor="start" x="832" y="-237.8" font-family="Times New Roman,serif" font-weight="bold" font-size="14.00">Dataset</text>
<polygon fill="none" stroke="black" points="676,-209 676,-230 789,-230 789,-209 676,-209"/>
<text text-anchor="start" x="719.5" y="-215.8" font-family="Times New Roman,serif" font-size="14.00">label</text>
<polygon fill="none" stroke="black" points="789,-209 789,-230 1036,-230 1036,-209 789,-209"/>
<text text-anchor="start" x="876.5" y="-215.8" font-family="Times New Roman,serif" font-size="14.00">Optional[str]</text>
<polygon fill="none" stroke="black" points="676,-188 676,-209 789,-209 789,-188 676,-188"/>
<text text-anchor="start" x="701" y="-194.8" font-family="Times New Roman,serif" font-size="14.00">description</text>
<polygon fill="none" stroke="black" points="789,-188 789,-209 1036,-209 1036,-188 789,-188"/>
<text text-anchor="start" x="876.5" y="-194.8" font-family="Times New Roman,serif" font-size="14.00">Optional[str]</text>
<polygon fill="none" stroke="black" points="676,-167 676,-188 789,-188 789,-167 676,-167"/>
<text text-anchor="start" x="703.5" y="-173.8" font-family="Times New Roman,serif" font-size="14.00">comments</text>
<polygon fill="none" stroke="black" points="789,-167 789,-188 1036,-188 1036,-167 789,-167"/>
<text text-anchor="start" x="876.5" y="-173.8" font-family="Times New Roman,serif" font-size="14.00">Optional[str]</text>
<polygon fill="none" stroke="black" points="676,-146 676,-167 789,-167 789,-146 676,-146"/>
<text text-anchor="start" x="679" y="-152.8" font-family="Times New Roman,serif" font-size="14.00">assessment_period</text>
<polygon fill="none" stroke="black" points="789,-146 789,-167 1036,-167 1036,-146 789,-146"/>
<text text-anchor="start" x="803" y="-152.8" font-family="Times New Roman,serif" font-size="14.00">Optional[AssessmentPeriod(StrEnum)]</text>
<polygon fill="none" stroke="black" points="676,-125 676,-146 789,-146 789,-125 676,-125"/>
<text text-anchor="start" x="700.5" y="-131.8" font-family="Times New Roman,serif" font-size="14.00">dimensions</text>
<polygon fill="none" stroke="black" points="789,-125 789,-146 1036,-146 1036,-125 789,-125"/>
<text text-anchor="start" x="792" y="-131.8" font-family="Times New Roman,serif" font-size="14.00">Optional[list[DatasetDimension(StrEnum)]]</text>
<polygon fill="none" stroke="black" points="676,-104 676,-125 789,-125 789,-104 676,-104"/>
<text text-anchor="start" x="708" y="-110.8" font-family="Times New Roman,serif" font-size="14.00">statistics</text>
<polygon fill="none" stroke="black" points="789,-104 789,-125 1036,-125 1036,-104 789,-104"/>
<text text-anchor="start" x="857" y="-110.8" font-family="Times New Roman,serif" font-size="14.00">list[DatasetStatistic]</text>
</a>
</g>
</g>
<!-- eya_def_tools.data_models.dataset.DatasetStatistic -->
<g id="node2" class="node">
<title>eya_def_tools.data_models.dataset.DatasetStatistic</title>
<g id="a_node2"><a xlink:title="eya_def_tools.data_models.dataset.DatasetStatistic&#10;&#10;Dataset values for one specific statistic type.&#10;&#10;Attributes:&#10; &#160;&#160;&#160;description (Optional[str]): Optional description of the dataset statistic, which should not be empty if the field is included. Default is None.&#10; &#160;&#160;&#160;comments (Optional[str]): Optional comments on the dataset statistic, which should not be empty if the field is included. Default is None.&#10; &#160;&#160;&#160;statistic_type (UnionType[BasicStatisticType(StrEnum), ExceedanceLevelStatisticType]): Type of statistic that the component of the dataset contains. All values must correspond to this statistic.&#10; &#160;&#160;&#160;values (Union[float, list[tuple[list[Union[int, float, str]], float]]]): Dataset value(s) as a single number or one or more values at coordinates. If more than one value is included the values must be represented together with coordinates. A single value can be included either with or without coordinates. The coordinates must correspond to and be listed the same order as the dimensions specified for the dataset.&#10;">
<polygon fill="none" stroke="black" points="1144,-103 1144,-124 1642,-124 1642,-103 1144,-103"/>
<text text-anchor="start" x="1344.5" y="-110.8" font-family="Times New Roman,serif" font-weight="bold" font-size="14.00">DatasetStatistic</text>
<polygon fill="none" stroke="black" points="1144,-82 1144,-103 1224,-103 1224,-82 1144,-82"/>
<text text-anchor="start" x="1152.5" y="-88.8" font-family="Times New Roman,serif" font-size="14.00">description</text>
<polygon fill="none" stroke="black" points="1224,-82 1224,-103 1642,-103 1642,-82 1224,-82"/>
<text text-anchor="start" x="1397" y="-88.8" font-family="Times New Roman,serif" font-size="14.00">Optional[str]</text>
<polygon fill="none" stroke="black" points="1144,-61 1144,-82 1224,-82 1224,-61 1144,-61"/>
<text text-anchor="start" x="1155" y="-67.8" font-family="Times New Roman,serif" font-size="14.00">comments</text>
<polygon fill="none" stroke="black" points="1224,-61 1224,-82 1642,-82 1642,-61 1224,-61"/>
<text text-anchor="start" x="1397" y="-67.8" font-family="Times New Roman,serif" font-size="14.00">Optional[str]</text>
<polygon fill="none" stroke="black" points="1144,-40 1144,-61 1224,-61 1224,-40 1144,-40"/>
<text text-anchor="start" x="1147" y="-46.8" font-family="Times New Roman,serif" font-size="14.00">statistic_type</text>
<polygon fill="none" stroke="black" points="1224,-40 1224,-61 1642,-61 1642,-40 1224,-40"/>
<text text-anchor="start" x="1227" y="-46.8" font-family="Times New Roman,serif" font-size="14.00">UnionType[BasicStatisticType(StrEnum), ExceedanceLevelStatisticType]</text>
<polygon fill="none" stroke="black" points="1144,-19 1144,-40 1224,-40 1224,-19 1144,-19"/>
<text text-anchor="start" x="1166.5" y="-25.8" font-family="Times New Roman,serif" font-size="14.00">values</text>
<polygon fill="none" stroke="black" points="1224,-19 1224,-40 1642,-40 1642,-19 1224,-19"/>
<text text-anchor="start" x="1281" y="-25.8" font-family="Times New Roman,serif" font-size="14.00">Union[float, list[tuple[list[Union[int, float, str]], float]]]</text>
</a>
</g>
</g>
<!-- eya_def_tools.data_models.dataset.Dataset&#45;&gt;eya_def_tools.data_models.dataset.DatasetStatistic -->
<g id="edge1" class="edge">
<title>eya_def_tools.data_models.dataset.Dataset:e&#45;&gt;eya_def_tools.data_models.dataset.DatasetStatistic:w</title>
<path fill="none" stroke="black" d="M1036,-114C1077.06,-114 1091.78,-114 1125.23,-114"/>
<polygon fill="black" stroke="black" points="1134,-114 1144,-118.5 1139,-114 1144,-114 1144,-114 1144,-114 1139,-114 1144,-109.5 1134,-114 1134,-114"/>
<ellipse fill="none" stroke="black" cx="1129.5" cy="-114" rx="4" ry="4"/>
</g>
<!-- eya_def_tools.data_models.dataset.ExceedanceLevelStatisticType -->
<g id="node3" class="node">
<title>eya_def_tools.data_models.dataset.ExceedanceLevelStatisticType</title>
<g id="a_node3"><a xlink:title="eya_def_tools.data_models.dataset.ExceedanceLevelStatisticType&#10;&#10;Probability of exceedance level statistic type.&#10;&#10;Attributes:&#10; &#160;&#160;&#160;exceedance_level (float): The dimensionless probability of exceedance level (i.e. probability value between 0.0 and 1.0) of the statistic.&#10;">
<polygon fill="none" stroke="black" points="1750.5,-39 1750.5,-60 1943.5,-60 1943.5,-39 1750.5,-39"/>
<text text-anchor="start" x="1753.5" y="-46.8" font-family="Times New Roman,serif" font-weight="bold" font-size="14.00">ExceedanceLevelStatisticType</text>
<polygon fill="none" stroke="black" points="1750.5,-18 1750.5,-39 1882.5,-39 1882.5,-18 1750.5,-18"/>
<text text-anchor="start" x="1768" y="-24.8" font-family="Times New Roman,serif" font-size="14.00">exceedance_level</text>
<polygon fill="none" stroke="black" points="1882.5,-18 1882.5,-39 1943.5,-39 1943.5,-18 1882.5,-18"/>
<text text-anchor="start" x="1900.5" y="-24.8" font-family="Times New Roman,serif" font-size="14.00">float</text>
</a>
</g>
</g>
<!-- eya_def_tools.data_models.dataset.DatasetStatistic&#45;&gt;eya_def_tools.data_models.dataset.ExceedanceLevelStatisticType -->
<g id="edge2" class="edge">
<title>eya_def_tools.data_models.dataset.DatasetStatistic:e&#45;&gt;eya_def_tools.data_models.dataset.ExceedanceLevelStatisticType:w</title>
<path fill="none" stroke="black" d="M1642,-50C1684.75,-50 1698.94,-50 1735.45,-50"/>
<polyline fill="none" stroke="black" points="1750,-50 1745,-50"/>
<polygon fill="black" stroke="black" points="1744,-45 1744,-55 1742,-55 1742,-45 1744,-45"/>
<polyline fill="none" stroke="black" points="1745,-50 1740,-50"/>
<polygon fill="black" stroke="black" points="1739,-45 1739,-55 1737,-55 1737,-45 1739,-45"/>
<polyline fill="none" stroke="black" points="1740,-50 1735,-50"/>
</g>
<!-- eya_def_tools.data_models.wind_resource.WindResourceAssessment -->
<g id="node4" class="node">
<title>eya_def_tools.data_models.wind_resource.WindResourceAssessment</title>
<g id="a_node4"><a xlink:title="eya_def_tools.data_models.wind_resource.WindResourceAssessment&#10;&#10;Wind resource assessment at the measurement location(s).&#10;&#10;Attributes:&#10; &#160;&#160;&#160;id (str): Unique ID of the wind resource assessment within the EYA DEF document.&#10; &#160;&#160;&#160;description (Optional[str]): Optional description of the wind resource assessment, which should not be empty if the field is included. Default is None.&#10; &#160;&#160;&#160;comments (Optional[str]): Optional comments on the wind resource assessment, which should not be empty if the field is included. Default is None.&#10; &#160;&#160;&#160;results (WindResourceResults): Results of the wind resource assessment at the measurement location(s).&#10;">
<polygon fill="none" stroke="black" points="0.5,-389 0.5,-410 201.5,-410 201.5,-389 0.5,-389"/>
<text text-anchor="start" x="20" y="-396.8" font-family="Times New Roman,serif" font-weight="bold" font-size="14.00">WindResourceAssessment</text>
<polygon fill="none" stroke="black" points="0.5,-368 0.5,-389 69.5,-389 69.5,-368 0.5,-368"/>
<text text-anchor="start" x="29.5" y="-374.8" font-family="Times New Roman,serif" font-size="14.00">id</text>
<polygon fill="none" stroke="black" points="69.5,-368 69.5,-389 201.5,-389 201.5,-368 69.5,-368"/>
<text text-anchor="start" x="128" y="-374.8" font-family="Times New Roman,serif" font-size="14.00">str</text>
<polygon fill="none" stroke="black" points="0.5,-347 0.5,-368 69.5,-368 69.5,-347 0.5,-347"/>
<text text-anchor="start" x="3.5" y="-353.8" font-family="Times New Roman,serif" font-size="14.00">description</text>
<polygon fill="none" stroke="black" points="69.5,-347 69.5,-368 201.5,-368 201.5,-347 69.5,-347"/>
<text text-anchor="start" x="99.5" y="-353.8" font-family="Times New Roman,serif" font-size="14.00">Optional[str]</text>
<polygon fill="none" stroke="black" points="0.5,-326 0.5,-347 69.5,-347 69.5,-326 0.5,-326"/>
<text text-anchor="start" x="6" y="-332.8" font-family="Times New Roman,serif" font-size="14.00">comments</text>
<polygon fill="none" stroke="black" points="69.5,-326 69.5,-347 201.5,-347 201.5,-326 69.5,-326"/>
<text text-anchor="start" x="99.5" y="-332.8" font-family="Times New Roman,serif" font-size="14.00">Optional[str]</text>
<polygon fill="none" stroke="black" points="0.5,-305 0.5,-326 69.5,-326 69.5,-305 0.5,-305"/>
<text text-anchor="start" x="16.5" y="-311.8" font-family="Times New Roman,serif" font-size="14.00">results</text>
<polygon fill="none" stroke="black" points="69.5,-305 69.5,-326 201.5,-326 201.5,-305 69.5,-305"/>
<text text-anchor="start" x="72.5" y="-311.8" font-family="Times New Roman,serif" font-size="14.00">WindResourceResults</text>
</a>
</g>
</g>
<!-- eya_def_tools.data_models.wind_resource.WindResourceResults -->
<g id="node5" class="node">
<title>eya_def_tools.data_models.wind_resource.WindResourceResults</title>
<g id="a_node5"><a xlink:title="eya_def_tools.data_models.wind_resource.WindResourceResults&#10;&#10;Wind resource assessment results at measurement locations.&#10;&#10;Attributes:&#10; &#160;&#160;&#160;wind_speed (list[Dataset]): Final long&#45;term wind speed estimates at the measurement location(s) in metre per second.&#10; &#160;&#160;&#160;probability (Optional[list[Dataset]]): Final long&#45;term probability distribution estimates at the measurement location(s), such as wind speed probability distributions or joint wind speed and direction frequency distributions, as dimensionless values. Default is None.&#10; &#160;&#160;&#160;turbulence_intensity (Optional[list[Dataset]]): Final long&#45;term turbulence intensity estimates at the measurement location(s) as dimensionless values. Default is None.&#10; &#160;&#160;&#160;wind_shear_exponent (Optional[list[Dataset]]): Final long&#45;term power law wind shear exponent estimates at the measurement location(s). Default is None.&#10; &#160;&#160;&#160;temperature (Optional[list[Dataset]]): Final long&#45;term temperature estimates at the measurement location(s) in degree C. Default is None.&#10; &#160;&#160;&#160;air_density (Optional[list[Dataset]]): Final long&#45;term air density estimates at the measurement location(s) in kilogram per cubic metre. Default is None.&#10;">
<polygon fill="none" stroke="black" points="309.5,-304 309.5,-325 568.5,-325 568.5,-304 309.5,-304"/>
<text text-anchor="start" x="371" y="-311.8" font-family="Times New Roman,serif" font-weight="bold" font-size="14.00">WindResourceResults</text>
<polygon fill="none" stroke="black" points="309.5,-283 309.5,-304 438.5,-304 438.5,-283 309.5,-283"/>
<text text-anchor="start" x="340" y="-289.8" font-family="Times New Roman,serif" font-size="14.00">wind_speed</text>
<polygon fill="none" stroke="black" points="438.5,-283 438.5,-304 568.5,-304 568.5,-283 438.5,-283"/>
<text text-anchor="start" x="470" y="-289.8" font-family="Times New Roman,serif" font-size="14.00">list[Dataset]</text>
<polygon fill="none" stroke="black" points="309.5,-262 309.5,-283 438.5,-283 438.5,-262 309.5,-262"/>
<text text-anchor="start" x="343.5" y="-268.8" font-family="Times New Roman,serif" font-size="14.00">probability</text>
<polygon fill="none" stroke="black" points="438.5,-262 438.5,-283 568.5,-283 568.5,-262 438.5,-262"/>
<text text-anchor="start" x="441.5" y="-268.8" font-family="Times New Roman,serif" font-size="14.00">Optional[list[Dataset]]</text>
<polygon fill="none" stroke="black" points="309.5,-241 309.5,-262 438.5,-262 438.5,-241 309.5,-241"/>
<text text-anchor="start" x="318" y="-247.8" font-family="Times New Roman,serif" font-size="14.00">turbulence_intensity</text>
<polygon fill="none" stroke="black" points="438.5,-241 438.5,-262 568.5,-262 568.5,-241 438.5,-241"/>
<text text-anchor="start" x="441.5" y="-247.8" font-family="Times New Roman,serif" font-size="14.00">Optional[list[Dataset]]</text>
<polygon fill="none" stroke="black" points="309.5,-220 309.5,-241 438.5,-241 438.5,-220 309.5,-220"/>
<text text-anchor="start" x="312.5" y="-226.8" font-family="Times New Roman,serif" font-size="14.00">wind_shear_exponent</text>
<polygon fill="none" stroke="black" points="438.5,-220 438.5,-241 568.5,-241 568.5,-220 438.5,-220"/>
<text text-anchor="start" x="441.5" y="-226.8" font-family="Times New Roman,serif" font-size="14.00">Optional[list[Dataset]]</text>
<polygon fill="none" stroke="black" points="309.5,-199 309.5,-220 438.5,-220 438.5,-199 309.5,-199"/>
<text text-anchor="start" x="341" y="-205.8" font-family="Times New Roman,serif" font-size="14.00">temperature</text>
<polygon fill="none" stroke="black" points="438.5,-199 438.5,-220 568.5,-220 568.5,-199 438.5,-199"/>
<text text-anchor="start" x="441.5" y="-205.8" font-family="Times New Roman,serif" font-size="14.00">Optional[list[Dataset]]</text>
<polygon fill="none" stroke="black" points="309.5,-178 309.5,-199 438.5,-199 438.5,-178 309.5,-178"/>
<text text-anchor="start" x="343.5" y="-184.8" font-family="Times New Roman,serif" font-size="14.00">air_density</text>
<polygon fill="none" stroke="black" points="438.5,-178 438.5,-199 568.5,-199 568.5,-178 438.5,-178"/>
<text text-anchor="start" x="441.5" y="-184.8" font-family="Times New Roman,serif" font-size="14.00">Optional[list[Dataset]]</text>
</a>
</g>
</g>
<!-- eya_def_tools.data_models.wind_resource.WindResourceAssessment&#45;&gt;eya_def_tools.data_models.wind_resource.WindResourceResults -->
<g id="edge3" class="edge">
<title>eya_def_tools.data_models.wind_resource.WindResourceAssessment:e&#45;&gt;eya_def_tools.data_models.wind_resource.WindResourceResults:w</title>
<path fill="none" stroke="black" d="M201,-315C243.75,-315 257.94,-315 294.45,-315"/>
<polyline fill="none" stroke="black" points="309,-315 304,-315"/>
<polygon fill="black" stroke="black" points="303,-310 303,-320 301,-320 301,-310 303,-310"/>
<polyline fill="none" stroke="black" points="304,-315 299,-315"/>
<polygon fill="black" stroke="black" points="298,-310 298,-320 296,-320 296,-310 298,-310"/>
<polyline fill="none" stroke="black" points="299,-315 294,-315"/>
</g>
<!-- eya_def_tools.data_models.wind_resource.WindResourceResults&#45;&gt;eya_def_tools.data_models.dataset.Dataset -->
<g id="edge4" class="edge">
<title>eya_def_tools.data_models.wind_resource.WindResourceResults:e&#45;&gt;eya_def_tools.data_models.dataset.Dataset:w</title>
<path fill="none" stroke="black" d="M568,-294C614.37,-294 621.32,-254.14 657.22,-243.56"/>
<polygon fill="black" stroke="black" points="666.09,-242.35 676.61,-245.46 671.05,-241.67 676,-241 676,-241 676,-241 671.05,-241.67 675.39,-236.54 666.09,-242.35 666.09,-242.35"/>
<ellipse fill="none" stroke="black" cx="661.63" cy="-242.96" rx="4" ry="4"/>
</g>
<!-- eya_def_tools.data_models.wind_resource.WindResourceResults&#45;&gt;eya_def_tools.data_models.dataset.Dataset -->
<g id="edge5" class="edge">
<title>eya_def_tools.data_models.wind_resource.WindResourceResults:e&#45;&gt;eya_def_tools.data_models.dataset.Dataset:w</title>
<path fill="none" stroke="black" d="M568,-273C611.02,-273 622.89,-249.37 657.15,-242.72"/>
<polyline fill="none" stroke="black" points="676,-241 671.02,-241.45"/>
<polygon fill="black" stroke="black" points="669.57,-236.57 670.48,-246.52 668.49,-246.71 667.58,-236.75 669.57,-236.57"/>
<polyline fill="none" stroke="black" points="671.02,-241.45 666.04,-241.91"/>
<ellipse fill="none" stroke="black" cx="661.56" cy="-242.32" rx="4" ry="4"/>
</g>
<!-- eya_def_tools.data_models.wind_resource.WindResourceResults&#45;&gt;eya_def_tools.data_models.dataset.Dataset -->
<g id="edge6" class="edge">
<title>eya_def_tools.data_models.wind_resource.WindResourceResults:e&#45;&gt;eya_def_tools.data_models.dataset.Dataset:w</title>
<path fill="none" stroke="black" d="M568,-251C609.24,-251 623.68,-243.68 657.17,-241.57"/>
<polyline fill="none" stroke="black" points="676,-241 671,-241.15"/>
<polygon fill="black" stroke="black" points="669.85,-236.18 670.15,-246.18 668.15,-246.24 667.85,-236.24 669.85,-236.18"/>
<polyline fill="none" stroke="black" points="671,-241.15 666,-241.3"/>
<ellipse fill="none" stroke="black" cx="661.51" cy="-241.44" rx="4" ry="4"/>
</g>
<!-- eya_def_tools.data_models.wind_resource.WindResourceResults&#45;&gt;eya_def_tools.data_models.dataset.Dataset -->
<g id="edge7" class="edge">
<title>eya_def_tools.data_models.wind_resource.WindResourceResults:e&#45;&gt;eya_def_tools.data_models.dataset.Dataset:w</title>
<path fill="none" stroke="black" d="M568,-230C609.27,-230 623.66,-238.05 657.16,-240.38"/>
<polyline fill="none" stroke="black" points="676,-241 671,-240.83"/>
<polygon fill="black" stroke="black" points="670.17,-235.8 669.84,-245.8 667.84,-245.73 668.17,-235.74 670.17,-235.8"/>
<polyline fill="none" stroke="black" points="671,-240.83 666.01,-240.67"/>
<ellipse fill="none" stroke="black" cx="661.51" cy="-240.52" rx="4" ry="4"/>
</g>
<!-- eya_def_tools.data_models.wind_resource.WindResourceResults&#45;&gt;eya_def_tools.data_models.dataset.Dataset -->
<g id="edge8" class="edge">
<title>eya_def_tools.data_models.wind_resource.WindResourceResults:e&#45;&gt;eya_def_tools.data_models.dataset.Dataset:w</title>
<path fill="none" stroke="black" d="M568,-209C611.02,-209 622.89,-232.63 657.15,-239.28"/>
<polyline fill="none" stroke="black" points="676,-241 671.02,-240.55"/>
<polygon fill="black" stroke="black" points="670.48,-235.48 669.57,-245.43 667.58,-245.25 668.49,-235.29 670.48,-235.48"/>
<polyline fill="none" stroke="black" points="671.02,-240.55 666.04,-240.09"/>
<ellipse fill="none" stroke="black" cx="661.56" cy="-239.68" rx="4" ry="4"/>
</g>
<!-- eya_def_tools.data_models.wind_resource.WindResourceResults&#45;&gt;eya_def_tools.data_models.dataset.Dataset -->
<g id="edge9" class="edge">
<title>eya_def_tools.data_models.wind_resource.WindResourceResults:e&#45;&gt;eya_def_tools.data_models.dataset.Dataset:w</title>
<path fill="none" stroke="black" d="M568,-188C614.37,-188 621.32,-227.86 657.22,-238.44"/>
<polyline fill="none" stroke="black" points="676,-241 671.05,-240.33"/>
<polygon fill="black" stroke="black" points="670.73,-235.24 669.38,-245.14 667.4,-244.88 668.75,-234.97 670.73,-235.24"/>
<polyline fill="none" stroke="black" points="671.05,-240.33 666.09,-239.65"/>
<ellipse fill="none" stroke="black" cx="661.63" cy="-239.04" rx="4" ry="4"/>
</g>
</g>
</svg>
