<?xml version="1.0" encoding="UTF-8" standalone="no"?>
<!DOCTYPE svg PUBLIC "-//W3C//DTD SVG 1.1//EN"
 "http://www.w3.org/Graphics/SVG/1.1/DTD/svg11.dtd">
<!-- Generated by graphviz version 10.0.1 (20240210.2158)
 -->
<!-- Title: Entity Relationship Diagram Pages: 1 -->
<svg width="2104pt" height="470pt"
 viewBox="0.00 0.00 2104.00 470.25" xmlns="http://www.w3.org/2000/svg" xmlns:xlink="http://www.w3.org/1999/xlink">
<g id="graph0" class="graph" transform="scale(1 1) rotate(0) translate(4 466.25)">
<title>Entity Relationship Diagram</title>
<polygon fill="white" stroke="none" points="-4,4 -4,-466.25 2100,-466.25 2100,4 -4,4"/>
<text text-anchor="middle" x="1048" y="-6.7" font-family="Times New Roman,serif" font-size="9.00" fill="#a8a8a8">Created by erdantic v0.7.0 &lt;https://github.com/drivendataorg/erdantic&gt;</text>
<!-- eya_def_tools.data_models.dataset.Dataset -->
<g id="node1" class="node">
<title>eya_def_tools.data_models.dataset.Dataset</title>
<g id="a_node1"><a xlink:title="eya_def_tools.data_models.dataset.Dataset&#10;&#10;Collection of labelled data for one specific quantity.&#10;&#10;The data is labelled by specifying dimensions and including&#10;coordinates along the dimensions for each data value.&#10;&#10;Attributes:&#10; &#160;&#160;&#160;label (Optional[str]): Optional label of the dataset, which should not be empty if the field is included. Default is None.&#10; &#160;&#160;&#160;description (Optional[str]): Optional description of the dataset, which should not be empty if the field is included. Default is None.&#10; &#160;&#160;&#160;comments (Optional[str]): Optional comments on the dataset, which should not be empty if the field is included. Default is None.&#10; &#160;&#160;&#160;assessment_period (Optional[AssessmentPeriod(StrEnum)]): Optional period of or in time that has been assessed and for which the dataset is applicable. This field is to be included only when relevant. Default is None.&#10; &#160;&#160;&#160;dimensions (Optional[list[DatasetDimension(StrEnum)]]): Dimensions along which the dataset is binned. All statistics within the same dataset object must have the same dimensions. The dimensions must correspond to and be listed in the same order as the coordinates for the values of all statistics. A dataset without dimensions can only have a single value for each statistic. Default is None.&#10; &#160;&#160;&#160;statistics (list[DatasetStatistic]): List of dataset statistic objects that each include data values for a specific statistic type. For example, there may be two statistics, one for mean values and one for standard deviation values.&#10;">
<polygon fill="none" stroke="black" points="834,-231.75 834,-253.75 1192,-253.75 1192,-231.75 834,-231.75"/>
<text text-anchor="start" x="989.38" y="-238.45" font-family="Times New Roman,serif" font-weight="bold" font-size="14.00">Dataset</text>
<polygon fill="none" stroke="black" points="834,-210.75 834,-231.75 946,-231.75 946,-210.75 834,-210.75"/>
<text text-anchor="start" x="877.25" y="-215.45" font-family="Times New Roman,serif" font-size="14.00">label</text>
<polygon fill="none" stroke="black" points="946,-210.75 946,-231.75 1192,-231.75 1192,-210.75 946,-210.75"/>
<text text-anchor="start" x="1033.38" y="-215.45" font-family="Times New Roman,serif" font-size="14.00">Optional[str]</text>
<polygon fill="none" stroke="black" points="834,-189.75 834,-210.75 946,-210.75 946,-189.75 834,-189.75"/>
<text text-anchor="start" x="858.88" y="-194.45" font-family="Times New Roman,serif" font-size="14.00">description</text>
<polygon fill="none" stroke="black" points="946,-189.75 946,-210.75 1192,-210.75 1192,-189.75 946,-189.75"/>
<text text-anchor="start" x="1033.38" y="-194.45" font-family="Times New Roman,serif" font-size="14.00">Optional[str]</text>
<polygon fill="none" stroke="black" points="834,-168.75 834,-189.75 946,-189.75 946,-168.75 834,-168.75"/>
<text text-anchor="start" x="861.12" y="-173.45" font-family="Times New Roman,serif" font-size="14.00">comments</text>
<polygon fill="none" stroke="black" points="946,-168.75 946,-189.75 1192,-189.75 1192,-168.75 946,-168.75"/>
<text text-anchor="start" x="1033.38" y="-173.45" font-family="Times New Roman,serif" font-size="14.00">Optional[str]</text>
<polygon fill="none" stroke="black" points="834,-147.75 834,-168.75 946,-168.75 946,-147.75 834,-147.75"/>
<text text-anchor="start" x="836.75" y="-152.45" font-family="Times New Roman,serif" font-size="14.00">assessment_period</text>
<polygon fill="none" stroke="black" points="946,-147.75 946,-168.75 1192,-168.75 1192,-147.75 946,-147.75"/>
<text text-anchor="start" x="959.88" y="-152.45" font-family="Times New Roman,serif" font-size="14.00">Optional[AssessmentPeriod(StrEnum)]</text>
<polygon fill="none" stroke="black" points="834,-126.75 834,-147.75 946,-147.75 946,-126.75 834,-126.75"/>
<text text-anchor="start" x="858.5" y="-131.45" font-family="Times New Roman,serif" font-size="14.00">dimensions</text>
<polygon fill="none" stroke="black" points="946,-126.75 946,-147.75 1192,-147.75 1192,-126.75 946,-126.75"/>
<text text-anchor="start" x="949" y="-131.45" font-family="Times New Roman,serif" font-size="14.00">Optional[list[DatasetDimension(StrEnum)]]</text>
<polygon fill="none" stroke="black" points="834,-105.75 834,-126.75 946,-126.75 946,-105.75 834,-105.75"/>
<text text-anchor="start" x="866" y="-110.45" font-family="Times New Roman,serif" font-size="14.00">statistics</text>
<polygon fill="none" stroke="black" points="946,-105.75 946,-126.75 1192,-126.75 1192,-105.75 946,-105.75"/>
<text text-anchor="start" x="1013.88" y="-110.45" font-family="Times New Roman,serif" font-size="14.00">list[DatasetStatistic]</text>
</a>
</g>
</g>
<!-- eya_def_tools.data_models.dataset.DatasetStatistic -->
<g id="node2" class="node">
<title>eya_def_tools.data_models.dataset.DatasetStatistic</title>
<g id="a_node2"><a xlink:title="eya_def_tools.data_models.dataset.DatasetStatistic&#10;&#10;Dataset values for one specific statistic type.&#10;&#10;Attributes:&#10; &#160;&#160;&#160;description (Optional[str]): Optional description of the dataset statistic, which should not be empty if the field is included. Default is None.&#10; &#160;&#160;&#160;comments (Optional[str]): Optional comments on the dataset statistic, which should not be empty if the field is included. Default is None.&#10; &#160;&#160;&#160;statistic_type (UnionType[BasicStatisticType(StrEnum), ExceedanceLevelStatisticType]): Type of statistic that the component of the dataset contains. All values must correspond to this statistic. It can be either the string identifier of a basic statistic type (e.g. &#39;mean&#39;) or a specification of a probability of exceedance level.&#10; &#160;&#160;&#160;values (Union[float, list[tuple[list[Union[int, float, str]], float]]]): Dataset value(s) as a single number or one or more values at coordinates. If more than one value is included the values must be represented together with coordinates. A single value can be included either with or without coordinates. The coordinates must correspond to and be listed the same order as the dimensions specified for the dataset.&#10;">
<polygon fill="none" stroke="black" points="1300,-104.75 1300,-126.75 1796,-126.75 1796,-104.75 1300,-104.75"/>
<text text-anchor="start" x="1499.62" y="-111.45" font-family="Times New Roman,serif" font-weight="bold" font-size="14.00">DatasetStatistic</text>
<polygon fill="none" stroke="black" points="1300,-83.75 1300,-104.75 1379,-104.75 1379,-83.75 1300,-83.75"/>
<text text-anchor="start" x="1308.38" y="-88.45" font-family="Times New Roman,serif" font-size="14.00">description</text>
<polygon fill="none" stroke="black" points="1379,-83.75 1379,-104.75 1796,-104.75 1796,-83.75 1379,-83.75"/>
<text text-anchor="start" x="1551.88" y="-88.45" font-family="Times New Roman,serif" font-size="14.00">Optional[str]</text>
<polygon fill="none" stroke="black" points="1300,-62.75 1300,-83.75 1379,-83.75 1379,-62.75 1300,-62.75"/>
<text text-anchor="start" x="1310.62" y="-67.45" font-family="Times New Roman,serif" font-size="14.00">comments</text>
<polygon fill="none" stroke="black" points="1379,-62.75 1379,-83.75 1796,-83.75 1796,-62.75 1379,-62.75"/>
<text text-anchor="start" x="1551.88" y="-67.45" font-family="Times New Roman,serif" font-size="14.00">Optional[str]</text>
<polygon fill="none" stroke="black" points="1300,-41.75 1300,-62.75 1379,-62.75 1379,-41.75 1300,-41.75"/>
<text text-anchor="start" x="1302.75" y="-46.45" font-family="Times New Roman,serif" font-size="14.00">statistic_type</text>
<polygon fill="none" stroke="black" points="1379,-41.75 1379,-62.75 1796,-62.75 1796,-41.75 1379,-41.75"/>
<text text-anchor="start" x="1381.62" y="-46.45" font-family="Times New Roman,serif" font-size="14.00">UnionType[BasicStatisticType(StrEnum), ExceedanceLevelStatisticType]</text>
<polygon fill="none" stroke="black" points="1300,-20.75 1300,-41.75 1379,-41.75 1379,-20.75 1300,-20.75"/>
<text text-anchor="start" x="1322.25" y="-25.45" font-family="Times New Roman,serif" font-size="14.00">values</text>
<polygon fill="none" stroke="black" points="1379,-20.75 1379,-41.75 1796,-41.75 1796,-20.75 1379,-20.75"/>
<text text-anchor="start" x="1436" y="-25.45" font-family="Times New Roman,serif" font-size="14.00">Union[float, list[tuple[list[Union[int, float, str]], float]]]</text>
</a>
</g>
</g>
<!-- eya_def_tools.data_models.dataset.Dataset&#45;&gt;eya_def_tools.data_models.dataset.DatasetStatistic -->
<g id="edge1" class="edge">
<title>eya_def_tools.data_models.dataset.Dataset:e&#45;&gt;eya_def_tools.data_models.dataset.DatasetStatistic:w</title>
<path fill="none" stroke="black" d="M1192,-115.75C1240,-115.75 1252,-115.75 1300,-115.75"/>
<polygon fill="black" stroke="black" points="1310.24,-125.99 1304.74,-111.49 1305,-120.75 1300.47,-116.22 1300.47,-116.22 1300.47,-116.22 1305,-120.75 1295.74,-120.49 1310.24,-125.99"/>
<ellipse fill="none" stroke="black" cx="1315.45" cy="-131.2" rx="5.66" ry="5.66"/>
</g>
<!-- eya_def_tools.data_models.dataset.ExceedanceLevelStatisticType -->
<g id="node3" class="node">
<title>eya_def_tools.data_models.dataset.ExceedanceLevelStatisticType</title>
<g id="a_node3"><a xlink:title="eya_def_tools.data_models.dataset.ExceedanceLevelStatisticType&#10;&#10;Probability of exceedance level statistic type.&#10;&#10;Attributes:&#10; &#160;&#160;&#160;exceedance_level (float): The dimensionless probability of exceedance level (i.e. probability value between 0.0 and 1.0) of the statistic.&#10;">
<polygon fill="none" stroke="black" points="1904,-40.25 1904,-62.25 2096,-62.25 2096,-40.25 1904,-40.25"/>
<text text-anchor="start" x="1907" y="-46.95" font-family="Times New Roman,serif" font-weight="bold" font-size="14.00">ExceedanceLevelStatisticType</text>
<polygon fill="none" stroke="black" points="1904,-19.25 1904,-40.25 2036,-40.25 2036,-19.25 1904,-19.25"/>
<text text-anchor="start" x="1921.62" y="-23.95" font-family="Times New Roman,serif" font-size="14.00">exceedance_level</text>
<polygon fill="none" stroke="black" points="2036,-19.25 2036,-40.25 2096,-40.25 2096,-19.25 2036,-19.25"/>
<text text-anchor="start" x="2053.62" y="-23.95" font-family="Times New Roman,serif" font-size="14.00">float</text>
</a>
</g>
</g>
<!-- eya_def_tools.data_models.dataset.DatasetStatistic&#45;&gt;eya_def_tools.data_models.dataset.ExceedanceLevelStatisticType -->
<g id="edge2" class="edge">
<title>eya_def_tools.data_models.dataset.DatasetStatistic:e&#45;&gt;eya_def_tools.data_models.dataset.ExceedanceLevelStatisticType:w</title>
<path fill="none" stroke="black" d="M1796,-51.75C1838.75,-51.75 1852.94,-51.75 1889.45,-51.75"/>
<polyline fill="none" stroke="black" points="1904,-51.75 1899,-51.75"/>
<polygon fill="black" stroke="black" points="1898,-46.75 1898,-56.75 1896,-56.75 1896,-46.75 1898,-46.75"/>
<polyline fill="none" stroke="black" points="1899,-51.75 1894,-51.75"/>
<polygon fill="black" stroke="black" points="1893,-46.75 1893,-56.75 1891,-56.75 1891,-46.75 1893,-46.75"/>
<polyline fill="none" stroke="black" points="1894,-51.75 1889,-51.75"/>
</g>
<!-- eya_def_tools.data_models.wind_resource.WindResourceAssessment -->
<g id="node4" class="node">
<title>eya_def_tools.data_models.wind_resource.WindResourceAssessment</title>
<g id="a_node4"><a xlink:title="eya_def_tools.data_models.wind_resource.WindResourceAssessment&#10;&#10;Wind resource assessment at the measurement location(s).&#10;&#10;Attributes:&#10; &#160;&#160;&#160;id (str): Unique ID of the wind resource assessment within the EYA DEF document, used to reference it from other parts of the document.&#10; &#160;&#160;&#160;description (Optional[str]): Optional description of the wind resource assessment, which should not be empty if the field is included. Default is None.&#10; &#160;&#160;&#160;comments (Optional[str]): Optional comments on the wind resource assessment, which should not be empty if the field is included. Default is None.&#10; &#160;&#160;&#160;input_characteristics (WindResourceInputCharacteristics): Characteristics that describe the raw wind resource assessment input datasets.&#10; &#160;&#160;&#160;results (WindResourceResults): Final results of the wind resource assessment at the measurement location(s). Results should generally be included at the primary measurement height and extrapolated to all assessed turbine hub heights at each measurement location, as relevant.&#10;">
<polygon fill="none" stroke="black" points="0,-440.25 0,-462.25 321,-462.25 321,-440.25 0,-440.25"/>
<text text-anchor="start" x="79.88" y="-446.95" font-family="Times New Roman,serif" font-weight="bold" font-size="14.00">WindResourceAssessment</text>
<polygon fill="none" stroke="black" points="0,-419.25 0,-440.25 120,-440.25 120,-419.25 0,-419.25"/>
<text text-anchor="start" x="54.75" y="-423.95" font-family="Times New Roman,serif" font-size="14.00">id</text>
<polygon fill="none" stroke="black" points="120,-419.25 120,-440.25 321,-440.25 321,-419.25 120,-419.25"/>
<text text-anchor="start" x="213.38" y="-423.95" font-family="Times New Roman,serif" font-size="14.00">str</text>
<polygon fill="none" stroke="black" points="0,-398.25 0,-419.25 120,-419.25 120,-398.25 0,-398.25"/>
<text text-anchor="start" x="28.88" y="-402.95" font-family="Times New Roman,serif" font-size="14.00">description</text>
<polygon fill="none" stroke="black" points="120,-398.25 120,-419.25 321,-419.25 321,-398.25 120,-398.25"/>
<text text-anchor="start" x="184.88" y="-402.95" font-family="Times New Roman,serif" font-size="14.00">Optional[str]</text>
<polygon fill="none" stroke="black" points="0,-377.25 0,-398.25 120,-398.25 120,-377.25 0,-377.25"/>
<text text-anchor="start" x="31.12" y="-381.95" font-family="Times New Roman,serif" font-size="14.00">comments</text>
<polygon fill="none" stroke="black" points="120,-377.25 120,-398.25 321,-398.25 321,-377.25 120,-377.25"/>
<text text-anchor="start" x="184.88" y="-381.95" font-family="Times New Roman,serif" font-size="14.00">Optional[str]</text>
<polygon fill="none" stroke="black" points="0,-356.25 0,-377.25 120,-377.25 120,-356.25 0,-356.25"/>
<text text-anchor="start" x="2.62" y="-360.95" font-family="Times New Roman,serif" font-size="14.00">input_characteristics</text>
<polygon fill="none" stroke="black" points="120,-356.25 120,-377.25 321,-377.25 321,-356.25 120,-356.25"/>
<text text-anchor="start" x="122.62" y="-360.95" font-family="Times New Roman,serif" font-size="14.00">WindResourceInputCharacteristics</text>
<polygon fill="none" stroke="black" points="0,-335.25 0,-356.25 120,-356.25 120,-335.25 0,-335.25"/>
<text text-anchor="start" x="42" y="-339.95" font-family="Times New Roman,serif" font-size="14.00">results</text>
<polygon fill="none" stroke="black" points="120,-335.25 120,-356.25 321,-356.25 321,-335.25 120,-335.25"/>
<text text-anchor="start" x="157.88" y="-339.95" font-family="Times New Roman,serif" font-size="14.00">WindResourceResults</text>
</a>
</g>
</g>
<!-- eya_def_tools.data_models.wind_resource.WindResourceInputCharacteristics -->
<g id="node5" class="node">
<title>eya_def_tools.data_models.wind_resource.WindResourceInputCharacteristics</title>
<g id="a_node5"><a xlink:title="eya_def_tools.data_models.wind_resource.WindResourceInputCharacteristics&#10;&#10;Characteristics of the raw wind resource assessment inputs.&#10;&#10;This schema covers details of the raw input datasets that are not&#10;covered under the metadata schemas for the measurement stations,&#10;reference meteorological datasets and reference operational winds.&#10;&#10;Attributes:&#10; &#160;&#160;&#160;data_availability (list[Dataset]): Dimensionless raw data availability (also known as data recovery rate and data coverage) for the primary inputs to the wind resource assessment. The standard required dataset(s) should report data availability on a monthly basis, with dimensions &#39;wind_dataset_id&#39;, &#39;location_id&#39; (where the wind dataset has more than one location, otherwise omitted), &#39;point_id&#39;, &#39;year&#39; and &#39;month&#39; (in that order) for datasets from wind measurement stations and meteorological reference sources; and dimensions &#39;reference_wind_farm_id&#39;, &#39;operational_dataset_id&#39;, &#39;variable_id&#39; (where data availability is not identical across all relevant variables within the operational dataset, otherwise omitted), &#39;turbine_id&#39; (for variables at the turbine level and where data availability is not identical across all turbines, otherwise omitted), &#39;year&#39; and &#39;month&#39; (in that order) for operational reference wind farm datasets. Additional datasets with other dimensions may be included optionally. The raw data availability is defined as the proportion of samples available in the raw dataset relative to the possible maximum amount of samples within a certain time frame (i.e. if no data were missing), before the author of the EYA has undertaken any data filtering. The raw dataset may include filtering inherent in the process of creating it, such a quality filtering implemented in the firmware of remote sensing devices (RSDs), and the raw data availability then describes the state of the dataset after such filtering has been applied.&#10;">
<polygon fill="none" stroke="black" points="466.5,-384.25 466.5,-406.25 688.5,-406.25 688.5,-384.25 466.5,-384.25"/>
<text text-anchor="start" x="469.12" y="-390.95" font-family="Times New Roman,serif" font-weight="bold" font-size="14.00">WindResourceInputCharacteristics</text>
<polygon fill="none" stroke="black" points="466.5,-363.25 466.5,-384.25 588.5,-384.25 588.5,-363.25 466.5,-363.25"/>
<text text-anchor="start" x="483.25" y="-367.95" font-family="Times New Roman,serif" font-size="14.00">data_availability</text>
<polygon fill="none" stroke="black" points="588.5,-363.25 588.5,-384.25 688.5,-384.25 688.5,-363.25 588.5,-363.25"/>
<text text-anchor="start" x="605.5" y="-367.95" font-family="Times New Roman,serif" font-size="14.00">list[Dataset]</text>
</a>
</g>
</g>
<!-- eya_def_tools.data_models.wind_resource.WindResourceAssessment&#45;&gt;eya_def_tools.data_models.wind_resource.WindResourceInputCharacteristics -->
<g id="edge3" class="edge">
<title>eya_def_tools.data_models.wind_resource.WindResourceAssessment:e&#45;&gt;eya_def_tools.data_models.wind_resource.WindResourceInputCharacteristics:w</title>
<path fill="none" stroke="black" d="M321,-366.75C381.26,-366.75 397.5,-391.29 450.71,-395.22"/>
<polyline fill="none" stroke="black" points="465.5,-395.75 460.5,-395.57"/>
<polygon fill="black" stroke="black" points="459.68,-390.54 459.33,-400.53 457.33,-400.46 457.68,-390.47 459.68,-390.54"/>
<polyline fill="none" stroke="black" points="460.5,-395.57 455.51,-395.39"/>
<polygon fill="black" stroke="black" points="454.69,-390.36 454.33,-400.35 452.33,-400.28 452.69,-390.29 454.69,-390.36"/>
<polyline fill="none" stroke="black" points="455.51,-395.39 450.51,-395.21"/>
</g>
<!-- eya_def_tools.data_models.wind_resource.WindResourceResults -->
<g id="node6" class="node">
<title>eya_def_tools.data_models.wind_resource.WindResourceResults</title>
<g id="a_node6"><a xlink:title="eya_def_tools.data_models.wind_resource.WindResourceResults&#10;&#10;Wind resource assessment results at measurement locations.&#10;&#10;Attributes:&#10; &#160;&#160;&#160;wind_speed (list[Dataset]): Final long&#45;term wind speed estimate(s) at the measurement location(s) in metre per second (m s&#45;1). The dimensions of the first standard result dataset should be &#39;wind_dataset_id&#39;, &#39;location_id&#39; (where the wind dataset has more than one location, otherwise omitted), and &#39;height&#39; (in that order). Further results with other dimensions may be included optionally.&#10; &#160;&#160;&#160;probability (list[Dataset]): Final long&#45;term probability distribution estimates at the measurement location(s), as dimensionless values. The first standard result dataset should comprise the joint wind speed and direction probability distributions, with dimensions &#39;wind_dataset_id&#39;, &#39;location_id&#39; (where the wind dataset has multiple locations, otherwise omitted), &#39;height&#39;, &#39;wind_speed&#39; and &#39;wind_from_direction&#39; (in that order). The wind speed coordinates should be 1.0 metre per second bins centered on whole numbers, with the first bin half the width (i.e. 0.25, 1.0, 2.0, 3.0, ...). The wind direction coordinates should be twelve 30.0 degree bins, with the the first bin centered at 0.0. Further results with other dimensions may be included optionally.&#10; &#160;&#160;&#160;ambient_turbulence_intensity (Optional[list[Dataset]]): Final ambient turbulence intensity estimates at the measurement location(s), as dimensionless values. This field is optional since some measurement devices may lack meaningful turbulence measurements, but it should always be included when relevant turbulence data are available. The first standard result dataset should comprise the ambient turbulence intensity as a function of wind speed, with the dimensions &#39;wind_dataset_id&#39;, &#39;location_id&#39; (where the wind dataset has more than one location, otherwise omitted), &#39;height&#39; and &#39;wind_speed&#39; (in that order). The wind speed coordinates should be 1.0 metre per second bins centered on whole numbers, with the first bin half the width (i.e. 0.25, 1.0, 2.0, 3.0, ...). Further results with other dimensions may also be included. Default is None.&#10; &#160;&#160;&#160;wind_shear_exponent (Optional[list[Dataset]]): Final long&#45;term power law wind shear exponent estimates at the measurement location(s). This field is optional since some wind measurement stations may only include a single measurement height, but it should always be included when relevant wind shear exponent data are available. The dimension(s) of the first standard result dataset should be &#39;wind_dataset_id&#39; and &#39;location_id&#39; (where the wind dataset has more than one location, otherwise omitted). Further results with other dimensions may also be included. Default is None.&#10; &#160;&#160;&#160;temperature (Optional[list[Dataset]]): Final long&#45;term temperature estimates at the measurement location(s) in degree C. This field is optional since some wind measurement stations may lack measurements of temperature, but it should always be included when relevant temperature data are available. The dimensions of the first standard result dataset should be &#39;wind_dataset_id&#39;, &#39;location_id&#39; (where the wind dataset has more than one location, otherwise omitted), and &#39;height&#39; (in that order). Further results with other dimensions may also be included. Default is None.&#10; &#160;&#160;&#160;air_density (Optional[list[Dataset]]): Final long&#45;term air density estimates at the measurement location(s) in kilogram per cubic metre (kg m&#45;3). This field is optional since some wind measurement stations may lack measurements required to derive air density estimates, but it should always be included when relevant data are available. The dimensions of the first standard result dataset should be &#39;wind_dataset_id&#39;, &#39;location_id&#39; (where the wind dataset has more than one location, otherwise omitted), and &#39;height&#39; (in that order). Further results with other dimensions may also be included. Default is None.&#10; &#160;&#160;&#160;displacement_height (Optional[list[Dataset]]): Estimated effective displacement of the boundary layer at the measurement location(s) due to vegetation (forestry) in metre. The displacement height is measured as positive upwards from the ground level. This field is optional as it is only relevant at forested sites. The dimensions of the first standard result dataset should be &#39;wind_dataset_id&#39; and &#39;location_id&#39; (where the wind dataset has more than one location, otherwise omitted). Further results with other dimensions, such as displacement height binned by wind direction, may also be included. Default is None.&#10;">
<polygon fill="none" stroke="black" points="429,-305.25 429,-327.25 726,-327.25 726,-305.25 429,-305.25"/>
<text text-anchor="start" x="509.62" y="-311.95" font-family="Times New Roman,serif" font-weight="bold" font-size="14.00">WindResourceResults</text>
<polygon fill="none" stroke="black" points="429,-284.25 429,-305.25 597,-305.25 597,-284.25 429,-284.25"/>
<text text-anchor="start" x="479.25" y="-288.95" font-family="Times New Roman,serif" font-size="14.00">wind_speed</text>
<polygon fill="none" stroke="black" points="597,-284.25 597,-305.25 726,-305.25 726,-284.25 597,-284.25"/>
<text text-anchor="start" x="628.5" y="-288.95" font-family="Times New Roman,serif" font-size="14.00">list[Dataset]</text>
<polygon fill="none" stroke="black" points="429,-263.25 429,-284.25 597,-284.25 597,-263.25 429,-263.25"/>
<text text-anchor="start" x="483" y="-267.95" font-family="Times New Roman,serif" font-size="14.00">probability</text>
<polygon fill="none" stroke="black" points="597,-263.25 597,-284.25 726,-284.25 726,-263.25 597,-263.25"/>
<text text-anchor="start" x="628.5" y="-267.95" font-family="Times New Roman,serif" font-size="14.00">list[Dataset]</text>
<polygon fill="none" stroke="black" points="429,-242.25 429,-263.25 597,-263.25 597,-242.25 429,-242.25"/>
<text text-anchor="start" x="432" y="-246.95" font-family="Times New Roman,serif" font-size="14.00">ambient_turbulence_intensity</text>
<polygon fill="none" stroke="black" points="597,-242.25 597,-263.25 726,-263.25 726,-242.25 597,-242.25"/>
<text text-anchor="start" x="600" y="-246.95" font-family="Times New Roman,serif" font-size="14.00">Optional[list[Dataset]]</text>
<polygon fill="none" stroke="black" points="429,-221.25 429,-242.25 597,-242.25 597,-221.25 429,-221.25"/>
<text text-anchor="start" x="451.88" y="-225.95" font-family="Times New Roman,serif" font-size="14.00">wind_shear_exponent</text>
<polygon fill="none" stroke="black" points="597,-221.25 597,-242.25 726,-242.25 726,-221.25 597,-221.25"/>
<text text-anchor="start" x="600" y="-225.95" font-family="Times New Roman,serif" font-size="14.00">Optional[list[Dataset]]</text>
<polygon fill="none" stroke="black" points="429,-200.25 429,-221.25 597,-221.25 597,-200.25 429,-200.25"/>
<text text-anchor="start" x="480.38" y="-204.95" font-family="Times New Roman,serif" font-size="14.00">temperature</text>
<polygon fill="none" stroke="black" points="597,-200.25 597,-221.25 726,-221.25 726,-200.25 597,-200.25"/>
<text text-anchor="start" x="600" y="-204.95" font-family="Times New Roman,serif" font-size="14.00">Optional[list[Dataset]]</text>
<polygon fill="none" stroke="black" points="429,-179.25 429,-200.25 597,-200.25 597,-179.25 429,-179.25"/>
<text text-anchor="start" x="482.62" y="-183.95" font-family="Times New Roman,serif" font-size="14.00">air_density</text>
<polygon fill="none" stroke="black" points="597,-179.25 597,-200.25 726,-200.25 726,-179.25 597,-179.25"/>
<text text-anchor="start" x="600" y="-183.95" font-family="Times New Roman,serif" font-size="14.00">Optional[list[Dataset]]</text>
<polygon fill="none" stroke="black" points="429,-158.25 429,-179.25 597,-179.25 597,-158.25 429,-158.25"/>
<text text-anchor="start" x="456.38" y="-162.95" font-family="Times New Roman,serif" font-size="14.00">displacement_height</text>
<polygon fill="none" stroke="black" points="597,-158.25 597,-179.25 726,-179.25 726,-158.25 597,-158.25"/>
<text text-anchor="start" x="600" y="-162.95" font-family="Times New Roman,serif" font-size="14.00">Optional[list[Dataset]]</text>
</a>
</g>
</g>
<!-- eya_def_tools.data_models.wind_resource.WindResourceAssessment&#45;&gt;eya_def_tools.data_models.wind_resource.WindResourceResults -->
<g id="edge4" class="edge">
<title>eya_def_tools.data_models.wind_resource.WindResourceAssessment:e&#45;&gt;eya_def_tools.data_models.wind_resource.WindResourceResults:w</title>
<path fill="none" stroke="black" d="M321,-345.75C365.26,-345.75 376.93,-322.75 414.06,-317.71"/>
<polyline fill="none" stroke="black" points="429,-316.75 424.01,-317.07"/>
<polygon fill="black" stroke="black" points="422.69,-312.15 423.33,-322.13 421.34,-322.26 420.69,-312.28 422.69,-312.15"/>
<polyline fill="none" stroke="black" points="424.01,-317.07 419.02,-317.39"/>
<polygon fill="black" stroke="black" points="417.7,-312.47 418.35,-322.45 416.35,-322.58 415.7,-312.6 417.7,-312.47"/>
<polyline fill="none" stroke="black" points="419.02,-317.39 414.03,-317.72"/>
</g>
<!-- eya_def_tools.data_models.wind_resource.WindResourceInputCharacteristics&#45;&gt;eya_def_tools.data_models.dataset.Dataset -->
<g id="edge5" class="edge">
<title>eya_def_tools.data_models.wind_resource.WindResourceInputCharacteristics:e&#45;&gt;eya_def_tools.data_models.dataset.Dataset:w</title>
<path fill="none" stroke="black" d="M689.5,-373.75C776.19,-373.75 747.31,-242.75 834,-242.75"/>
<polygon fill="black" stroke="black" points="844.24,-252.99 838.74,-238.49 839,-247.75 834.47,-243.22 834.47,-243.22 834.47,-243.22 839,-247.75 829.74,-247.49 844.24,-252.99"/>
<ellipse fill="none" stroke="black" cx="849.45" cy="-258.2" rx="5.66" ry="5.66"/>
</g>
<!-- eya_def_tools.data_models.wind_resource.WindResourceResults&#45;&gt;eya_def_tools.data_models.dataset.Dataset -->
<g id="edge6" class="edge">
<title>eya_def_tools.data_models.wind_resource.WindResourceResults:e&#45;&gt;eya_def_tools.data_models.dataset.Dataset:w</title>
<path fill="none" stroke="black" d="M726,-294.75C779.27,-294.75 780.73,-242.75 834,-242.75"/>
<polygon fill="black" stroke="black" points="844.24,-252.99 838.74,-238.49 839,-247.75 834.47,-243.22 834.47,-243.22 834.47,-243.22 839,-247.75 829.74,-247.49 844.24,-252.99"/>
<ellipse fill="none" stroke="black" cx="849.45" cy="-258.2" rx="5.66" ry="5.66"/>
</g>
<!-- eya_def_tools.data_models.wind_resource.WindResourceResults&#45;&gt;eya_def_tools.data_models.dataset.Dataset -->
<g id="edge7" class="edge">
<title>eya_def_tools.data_models.wind_resource.WindResourceResults:e&#45;&gt;eya_def_tools.data_models.dataset.Dataset:w</title>
<path fill="none" stroke="black" d="M726,-273.75C775.94,-273.75 784.06,-242.75 834,-242.75"/>
<polygon fill="black" stroke="black" points="844.24,-252.99 838.74,-238.49 839,-247.75 834.47,-243.22 834.47,-243.22 834.47,-243.22 839,-247.75 829.74,-247.49 844.24,-252.99"/>
<ellipse fill="none" stroke="black" cx="849.45" cy="-258.2" rx="5.66" ry="5.66"/>
</g>
<!-- eya_def_tools.data_models.wind_resource.WindResourceResults&#45;&gt;eya_def_tools.data_models.dataset.Dataset -->
<g id="edge8" class="edge">
<title>eya_def_tools.data_models.wind_resource.WindResourceResults:e&#45;&gt;eya_def_tools.data_models.dataset.Dataset:w</title>
<path fill="none" stroke="black" d="M726,-252.75C767.24,-252.75 781.68,-245.43 815.17,-243.32"/>
<polyline fill="none" stroke="black" points="834,-242.75 829,-242.9"/>
<polygon fill="black" stroke="black" points="827.85,-237.93 828.15,-247.93 826.15,-247.99 825.85,-237.99 827.85,-237.93"/>
<polyline fill="none" stroke="black" points="829,-242.9 824,-243.05"/>
<ellipse fill="none" stroke="black" cx="819.51" cy="-243.19" rx="4" ry="4"/>
</g>
<!-- eya_def_tools.data_models.wind_resource.WindResourceResults&#45;&gt;eya_def_tools.data_models.dataset.Dataset -->
<g id="edge9" class="edge">
<title>eya_def_tools.data_models.wind_resource.WindResourceResults:e&#45;&gt;eya_def_tools.data_models.dataset.Dataset:w</title>
<path fill="none" stroke="black" d="M726,-231.75C767.27,-231.75 781.66,-239.8 815.16,-242.13"/>
<polyline fill="none" stroke="black" points="834,-242.75 829,-242.58"/>
<polygon fill="black" stroke="black" points="828.17,-237.55 827.84,-247.55 825.84,-247.48 826.17,-237.49 828.17,-237.55"/>
<polyline fill="none" stroke="black" points="829,-242.58 824.01,-242.42"/>
<ellipse fill="none" stroke="black" cx="819.51" cy="-242.27" rx="4" ry="4"/>
</g>
<!-- eya_def_tools.data_models.wind_resource.WindResourceResults&#45;&gt;eya_def_tools.data_models.dataset.Dataset -->
<g id="edge10" class="edge">
<title>eya_def_tools.data_models.wind_resource.WindResourceResults:e&#45;&gt;eya_def_tools.data_models.dataset.Dataset:w</title>
<path fill="none" stroke="black" d="M726,-210.75C769.02,-210.75 780.89,-234.38 815.15,-241.03"/>
<polyline fill="none" stroke="black" points="834,-242.75 829.02,-242.3"/>
<polygon fill="black" stroke="black" points="828.48,-237.23 827.57,-247.18 825.58,-247 826.49,-237.04 828.48,-237.23"/>
<polyline fill="none" stroke="black" points="829.02,-242.3 824.04,-241.84"/>
<ellipse fill="none" stroke="black" cx="819.56" cy="-241.43" rx="4" ry="4"/>
</g>
<!-- eya_def_tools.data_models.wind_resource.WindResourceResults&#45;&gt;eya_def_tools.data_models.dataset.Dataset -->
<g id="edge11" class="edge">
<title>eya_def_tools.data_models.wind_resource.WindResourceResults:e&#45;&gt;eya_def_tools.data_models.dataset.Dataset:w</title>
<path fill="none" stroke="black" d="M726,-189.75C772.37,-189.75 779.32,-229.61 815.22,-240.19"/>
<polyline fill="none" stroke="black" points="834,-242.75 829.05,-242.08"/>
<polygon fill="black" stroke="black" points="828.73,-236.99 827.38,-246.89 825.4,-246.63 826.75,-236.72 828.73,-236.99"/>
<polyline fill="none" stroke="black" points="829.05,-242.08 824.09,-241.4"/>
<ellipse fill="none" stroke="black" cx="819.63" cy="-240.79" rx="4" ry="4"/>
</g>
<!-- eya_def_tools.data_models.wind_resource.WindResourceResults&#45;&gt;eya_def_tools.data_models.dataset.Dataset -->
<g id="edge12" class="edge">
<title>eya_def_tools.data_models.wind_resource.WindResourceResults:e&#45;&gt;eya_def_tools.data_models.dataset.Dataset:w</title>
<path fill="none" stroke="black" d="M726,-168.75C777.03,-168.75 776.87,-225.66 815.3,-239.66"/>
<polyline fill="none" stroke="black" points="834,-242.75 829.07,-241.94"/>
<polygon fill="black" stroke="black" points="828.89,-236.84 827.27,-246.71 825.29,-246.38 826.92,-236.51 828.89,-236.84"/>
<polyline fill="none" stroke="black" points="829.07,-241.94 824.13,-241.12"/>
<ellipse fill="none" stroke="black" cx="819.69" cy="-240.39" rx="4" ry="4"/>
</g>
</g>
</svg>
