<?xml version="1.0" encoding="UTF-8" standalone="no"?>
<!DOCTYPE svg PUBLIC "-//W3C//DTD SVG 1.1//EN"
 "http://www.w3.org/Graphics/SVG/1.1/DTD/svg11.dtd">
<!-- Generated by graphviz version 7.0.4 (20221203.1631)
 -->
<!-- Title: Entity Relationship Diagram Pages: 1 -->
<svg width="1203pt" height="458pt"
 viewBox="0.00 0.00 1203.00 457.50" xmlns="http://www.w3.org/2000/svg" xmlns:xlink="http://www.w3.org/1999/xlink">
<g id="graph0" class="graph" transform="scale(1 1) rotate(0) translate(4 453.5)">
<title>Entity Relationship Diagram</title>
<polygon fill="white" stroke="none" points="-4,4 -4,-453.5 1199,-453.5 1199,4 -4,4"/>
<text text-anchor="middle" x="597.5" y="-6.8" font-family="Times New Roman,serif" font-size="9.00" fill="#a8a8a8">Created by erdantic v0.6.0 &lt;https://github.com/drivendataorg/erdantic&gt;</text>
<!-- eya_def_tools.data_models.spatial.Location -->
<g id="node1" class="node">
<title>eya_def_tools.data_models.spatial.Location</title>
<g id="a_node1"><a xlink:title="eya_def_tools.data_models.spatial.Location&#10;&#10;Specification of a horizontal location in space.&#10;&#10;Attributes:&#10; &#160;&#160;&#160;x (float): Location x&#45;coordinate (typically easing).&#10; &#160;&#160;&#160;y (float): Location y&#45;coordinate (typically northing).&#10;">
<polygon fill="none" stroke="black" points="1067.5,-282 1067.5,-303 1128.5,-303 1128.5,-282 1067.5,-282"/>
<text text-anchor="start" x="1070.5" y="-289.8" font-family="Times New Roman,serif" font-weight="bold" font-size="14.00">Location</text>
<polygon fill="none" stroke="black" points="1067.5,-261 1067.5,-282 1088.5,-282 1088.5,-261 1067.5,-261"/>
<text text-anchor="start" x="1074.5" y="-267.8" font-family="Times New Roman,serif" font-size="14.00">x</text>
<polygon fill="none" stroke="black" points="1088.5,-261 1088.5,-282 1128.5,-282 1128.5,-261 1088.5,-261"/>
<text text-anchor="start" x="1096" y="-267.8" font-family="Times New Roman,serif" font-size="14.00">float</text>
<polygon fill="none" stroke="black" points="1067.5,-240 1067.5,-261 1088.5,-261 1088.5,-240 1067.5,-240"/>
<text text-anchor="start" x="1074.5" y="-246.8" font-family="Times New Roman,serif" font-size="14.00">y</text>
<polygon fill="none" stroke="black" points="1088.5,-240 1088.5,-261 1128.5,-261 1128.5,-240 1088.5,-240"/>
<text text-anchor="start" x="1096" y="-246.8" font-family="Times New Roman,serif" font-size="14.00">float</text>
</a>
</g>
</g>
<!-- eya_def_tools.data_models.wind_farm.OperationalRestriction -->
<g id="node2" class="node">
<title>eya_def_tools.data_models.wind_farm.OperationalRestriction</title>
<g id="a_node2"><a xlink:title="eya_def_tools.data_models.wind_farm.OperationalRestriction&#10;&#10;Specifications of a restriction that limits power output.&#10;&#10;In the current draft of the schema, &#39;label&#39;, &#39;description&#39; and&#10;&#39;comments&#39; fields are available to describe the restriction with&#10;free text. This is intended to be expanded into a more comprehensive&#10;data model.&#10;&#10;Attributes:&#10; &#160;&#160;&#160;label (str): Short label to indicate the type of operational restriction.&#10; &#160;&#160;&#160;description (str): Description of the operational restriction.&#10; &#160;&#160;&#160;comments (Optional[str]): Optional comments on the operational restriction, which should not be empty if the field is included. Default is None.&#10; &#160;&#160;&#160;start_datetime (Optional[datetime]): Optional operational restriction start datetime in the ISO 8601 standard format with the &#39;T&#39; required between the calendar date and time, i.e. YYYY&#45;MM&#45;DDThh:mm:ss. In cases where the time is not relevant (i.e. only the date is relevant), hours, minutes and seconds shall all be set to zero. If using the time part, the timezone of the data must be consistent with the UTC offset specified for the EYA DEF document. Default is None.&#10; &#160;&#160;&#160;end_datetime (Optional[datetime]): Optional operational restriction end datetime in the ISO 8601 standard format with the &#39;T&#39; required between the calendar date and time, i.e. YYYY&#45;MM&#45;DDThh:mm:ss. In cases where the time is not relevant (i.e. only the date is relevant), hours, minutes and seconds shall all be set to zero. If using the time part, the timezone of the data must be consistent with the UTC offset specified for the EYA DEF document. Default is None.&#10;">
<polygon fill="none" stroke="black" points="1000.5,-123 1000.5,-144 1195.5,-144 1195.5,-123 1000.5,-123"/>
<text text-anchor="start" x="1027" y="-130.8" font-family="Times New Roman,serif" font-weight="bold" font-size="14.00">OperationalRestriction</text>
<polygon fill="none" stroke="black" points="1000.5,-102 1000.5,-123 1085.5,-123 1085.5,-102 1000.5,-102"/>
<text text-anchor="start" x="1030" y="-108.8" font-family="Times New Roman,serif" font-size="14.00">label</text>
<polygon fill="none" stroke="black" points="1085.5,-102 1085.5,-123 1195.5,-123 1195.5,-102 1085.5,-102"/>
<text text-anchor="start" x="1133" y="-108.8" font-family="Times New Roman,serif" font-size="14.00">str</text>
<polygon fill="none" stroke="black" points="1000.5,-81 1000.5,-102 1085.5,-102 1085.5,-81 1000.5,-81"/>
<text text-anchor="start" x="1011.5" y="-87.8" font-family="Times New Roman,serif" font-size="14.00">description</text>
<polygon fill="none" stroke="black" points="1085.5,-81 1085.5,-102 1195.5,-102 1195.5,-81 1085.5,-81"/>
<text text-anchor="start" x="1133" y="-87.8" font-family="Times New Roman,serif" font-size="14.00">str</text>
<polygon fill="none" stroke="black" points="1000.5,-60 1000.5,-81 1085.5,-81 1085.5,-60 1000.5,-60"/>
<text text-anchor="start" x="1014" y="-66.8" font-family="Times New Roman,serif" font-size="14.00">comments</text>
<polygon fill="none" stroke="black" points="1085.5,-60 1085.5,-81 1195.5,-81 1195.5,-60 1085.5,-60"/>
<text text-anchor="start" x="1104.5" y="-66.8" font-family="Times New Roman,serif" font-size="14.00">Optional[str]</text>
<polygon fill="none" stroke="black" points="1000.5,-39 1000.5,-60 1085.5,-60 1085.5,-39 1000.5,-39"/>
<text text-anchor="start" x="1003.5" y="-45.8" font-family="Times New Roman,serif" font-size="14.00">start_datetime</text>
<polygon fill="none" stroke="black" points="1085.5,-39 1085.5,-60 1195.5,-60 1195.5,-39 1085.5,-39"/>
<text text-anchor="start" x="1088.5" y="-45.8" font-family="Times New Roman,serif" font-size="14.00">Optional[datetime]</text>
<polygon fill="none" stroke="black" points="1000.5,-18 1000.5,-39 1085.5,-39 1085.5,-18 1000.5,-18"/>
<text text-anchor="start" x="1005.5" y="-24.8" font-family="Times New Roman,serif" font-size="14.00">end_datetime</text>
<polygon fill="none" stroke="black" points="1085.5,-18 1085.5,-39 1195.5,-39 1195.5,-18 1085.5,-18"/>
<text text-anchor="start" x="1088.5" y="-24.8" font-family="Times New Roman,serif" font-size="14.00">Optional[datetime]</text>
</a>
</g>
</g>
<!-- eya_def_tools.data_models.wind_farm.TurbineConfiguration -->
<g id="node3" class="node">
<title>eya_def_tools.data_models.wind_farm.TurbineConfiguration</title>
<g id="a_node3"><a xlink:title="eya_def_tools.data_models.wind_farm.TurbineConfiguration&#10;&#10;Specification of all details for a turbine configuration.&#10;&#10;Attributes:&#10; &#160;&#160;&#160;id (str): Unique identifier of the turbine.&#10; &#160;&#160;&#160;label (Optional[str]): Label of the turbine, if different from the &#39;id&#39;. Default is None.&#10; &#160;&#160;&#160;description (Optional[str]): Optional description of the turbine, which should not be empty if the field is included. Default is None.&#10; &#160;&#160;&#160;comments (Optional[str]): Optional comments on the turbine, which should not be empty if the field is included. Default is None.&#10; &#160;&#160;&#160;location (Location): The horizontal spatial location of the turbine.&#10; &#160;&#160;&#160;ground_level_altitude (float): The ground level altitude (base elevation) of the turbine (in m).&#10; &#160;&#160;&#160;hub_height (float): The hub height of the turbine (in m).&#10; &#160;&#160;&#160;turbine_model_id (str): Unique identifier of the turbine model.&#10; &#160;&#160;&#160;operational_lifetime_start_date (Optional[date]): Optional operational lifetime start date of the individual turbine in the ISO 8601 standard format for a calendar date, i.e. YYYY&#45;MM&#45;DD. Default is None.&#10; &#160;&#160;&#160;operational_lifetime_end_date (Optional[date]): Optional operational lifetime end date of the individual turbine in the ISO 8601 standard format for a calendar date, i.e. YYYY&#45;MM&#45;DD. Default is None.&#10; &#160;&#160;&#160;restrictions (Optional[list[OperationalRestriction]]): List of operational restrictions at the turbine level. Default is None.&#10;">
<polygon fill="none" stroke="black" points="500,-387 500,-408 892,-408 892,-387 500,-387"/>
<text text-anchor="start" x="628.5" y="-394.8" font-family="Times New Roman,serif" font-weight="bold" font-size="14.00">TurbineConfiguration</text>
<polygon fill="none" stroke="black" points="500,-366 500,-387 678,-387 678,-366 500,-366"/>
<text text-anchor="start" x="583.5" y="-372.8" font-family="Times New Roman,serif" font-size="14.00">id</text>
<polygon fill="none" stroke="black" points="678,-366 678,-387 892,-387 892,-366 678,-366"/>
<text text-anchor="start" x="777.5" y="-372.8" font-family="Times New Roman,serif" font-size="14.00">str</text>
<polygon fill="none" stroke="black" points="500,-345 500,-366 678,-366 678,-345 500,-345"/>
<text text-anchor="start" x="576" y="-351.8" font-family="Times New Roman,serif" font-size="14.00">label</text>
<polygon fill="none" stroke="black" points="678,-345 678,-366 892,-366 892,-345 678,-345"/>
<text text-anchor="start" x="749" y="-351.8" font-family="Times New Roman,serif" font-size="14.00">Optional[str]</text>
<polygon fill="none" stroke="black" points="500,-324 500,-345 678,-345 678,-324 500,-324"/>
<text text-anchor="start" x="557.5" y="-330.8" font-family="Times New Roman,serif" font-size="14.00">description</text>
<polygon fill="none" stroke="black" points="678,-324 678,-345 892,-345 892,-324 678,-324"/>
<text text-anchor="start" x="749" y="-330.8" font-family="Times New Roman,serif" font-size="14.00">Optional[str]</text>
<polygon fill="none" stroke="black" points="500,-303 500,-324 678,-324 678,-303 500,-303"/>
<text text-anchor="start" x="560" y="-309.8" font-family="Times New Roman,serif" font-size="14.00">comments</text>
<polygon fill="none" stroke="black" points="678,-303 678,-324 892,-324 892,-303 678,-303"/>
<text text-anchor="start" x="749" y="-309.8" font-family="Times New Roman,serif" font-size="14.00">Optional[str]</text>
<polygon fill="none" stroke="black" points="500,-282 500,-303 678,-303 678,-282 500,-282"/>
<text text-anchor="start" x="566.5" y="-288.8" font-family="Times New Roman,serif" font-size="14.00">location</text>
<polygon fill="none" stroke="black" points="678,-282 678,-303 892,-303 892,-282 678,-282"/>
<text text-anchor="start" x="760" y="-288.8" font-family="Times New Roman,serif" font-size="14.00">Location</text>
<polygon fill="none" stroke="black" points="500,-261 500,-282 678,-282 678,-261 500,-261"/>
<text text-anchor="start" x="529" y="-267.8" font-family="Times New Roman,serif" font-size="14.00">ground_level_altitude</text>
<polygon fill="none" stroke="black" points="678,-261 678,-282 892,-282 892,-261 678,-261"/>
<text text-anchor="start" x="772.5" y="-267.8" font-family="Times New Roman,serif" font-size="14.00">float</text>
<polygon fill="none" stroke="black" points="500,-240 500,-261 678,-261 678,-240 500,-240"/>
<text text-anchor="start" x="558" y="-246.8" font-family="Times New Roman,serif" font-size="14.00">hub_height</text>
<polygon fill="none" stroke="black" points="678,-240 678,-261 892,-261 892,-240 678,-240"/>
<text text-anchor="start" x="772.5" y="-246.8" font-family="Times New Roman,serif" font-size="14.00">float</text>
<polygon fill="none" stroke="black" points="500,-219 500,-240 678,-240 678,-219 500,-219"/>
<text text-anchor="start" x="539.5" y="-225.8" font-family="Times New Roman,serif" font-size="14.00">turbine_model_id</text>
<polygon fill="none" stroke="black" points="678,-219 678,-240 892,-240 892,-219 678,-219"/>
<text text-anchor="start" x="777.5" y="-225.8" font-family="Times New Roman,serif" font-size="14.00">str</text>
<polygon fill="none" stroke="black" points="500,-198 500,-219 678,-219 678,-198 500,-198"/>
<text text-anchor="start" x="503" y="-204.8" font-family="Times New Roman,serif" font-size="14.00">operational_lifetime_start_date</text>
<polygon fill="none" stroke="black" points="678,-198 678,-219 892,-219 892,-198 678,-198"/>
<text text-anchor="start" x="744.5" y="-204.8" font-family="Times New Roman,serif" font-size="14.00">Optional[date]</text>
<polygon fill="none" stroke="black" points="500,-177 500,-198 678,-198 678,-177 500,-177"/>
<text text-anchor="start" x="505" y="-183.8" font-family="Times New Roman,serif" font-size="14.00">operational_lifetime_end_date</text>
<polygon fill="none" stroke="black" points="678,-177 678,-198 892,-198 892,-177 678,-177"/>
<text text-anchor="start" x="744.5" y="-183.8" font-family="Times New Roman,serif" font-size="14.00">Optional[date]</text>
<polygon fill="none" stroke="black" points="500,-156 500,-177 678,-177 678,-156 500,-156"/>
<text text-anchor="start" x="558" y="-162.8" font-family="Times New Roman,serif" font-size="14.00">restrictions</text>
<polygon fill="none" stroke="black" points="678,-156 678,-177 892,-177 892,-156 678,-156"/>
<text text-anchor="start" x="681" y="-162.8" font-family="Times New Roman,serif" font-size="14.00">Optional[list[OperationalRestriction]]</text>
</a>
</g>
</g>
<!-- eya_def_tools.data_models.wind_farm.TurbineConfiguration&#45;&gt;eya_def_tools.data_models.spatial.Location -->
<g id="edge1" class="edge">
<title>eya_def_tools.data_models.wind_farm.TurbineConfiguration:e&#45;&gt;eya_def_tools.data_models.spatial.Location:w</title>
<path fill="none" stroke="black" d="M892,-293C964.41,-293 986.11,-293 1051.78,-293"/>
<polyline fill="none" stroke="black" points="1066.5,-293 1061.5,-293"/>
<polygon fill="black" stroke="black" points="1060.5,-288 1060.5,-298 1058.5,-298 1058.5,-288 1060.5,-288"/>
<polyline fill="none" stroke="black" points="1061.5,-293 1056.5,-293"/>
<polygon fill="black" stroke="black" points="1055.5,-288 1055.5,-298 1053.5,-298 1053.5,-288 1055.5,-288"/>
<polyline fill="none" stroke="black" points="1056.5,-293 1051.5,-293"/>
</g>
<!-- eya_def_tools.data_models.wind_farm.TurbineConfiguration&#45;&gt;eya_def_tools.data_models.wind_farm.OperationalRestriction -->
<g id="edge2" class="edge">
<title>eya_def_tools.data_models.wind_farm.TurbineConfiguration:e&#45;&gt;eya_def_tools.data_models.wind_farm.OperationalRestriction:w</title>
<path fill="none" stroke="black" d="M892,-166C935.02,-166 946.89,-142.37 981.15,-135.72"/>
<polyline fill="none" stroke="black" points="1000,-134 995.02,-134.45"/>
<polygon fill="black" stroke="black" points="993.57,-129.57 994.48,-139.52 992.49,-139.71 991.58,-129.75 993.57,-129.57"/>
<polyline fill="none" stroke="black" points="995.02,-134.45 990.04,-134.91"/>
<ellipse fill="none" stroke="black" cx="985.56" cy="-135.32" rx="4" ry="4"/>
</g>
<!-- eya_def_tools.data_models.wind_farm.WindFarmConfiguration -->
<g id="node4" class="node">
<title>eya_def_tools.data_models.wind_farm.WindFarmConfiguration</title>
<g id="a_node4"><a xlink:title="eya_def_tools.data_models.wind_farm.WindFarmConfiguration&#10;&#10;A collection of wind turbines considered as one unit (plant).&#10;&#10;Attributes:&#10; &#160;&#160;&#160;id (str): Unique identifier of the wind farm.&#10; &#160;&#160;&#160;label (str): Label or name of the wind farm.&#10; &#160;&#160;&#160;abbreviation (Optional[str]): Optional abbreviated label of the wind farm. Default is None.&#10; &#160;&#160;&#160;description (Optional[str]): Optional description of the wind farm, which should not be empty if the field is included. Default is None.&#10; &#160;&#160;&#160;comments (Optional[str]): Optional comments on the wind farm, which should not be empty if the field is included. Default is None.&#10; &#160;&#160;&#160;turbines (list[TurbineConfiguration]): List of specifications for constituent turbines.&#10; &#160;&#160;&#160;relevance (WindFarmRelevance(StrEnum)): The relevance of the wind farm for the assessment (&#39;internal&#39;, &#39;external&#39; or &#39;future&#39;).&#10; &#160;&#160;&#160;operational_lifetime_start_date (date): Operational lifetime start date of the wind farm in the ISO 8601 standard format for a calendar date, i.e. YYYY&#45;MM&#45;DD.&#10; &#160;&#160;&#160;operational_lifetime_end_date (Optional[date]): Operational lifetime end date of the wind farm in the ISO 8601 standard format for a calendar date, i.e. YYYY&#45;MM&#45;DD. Default is None.&#10; &#160;&#160;&#160;installed_capacity (float): The maximum production (in MW) of the wind farm under typical conditions. If there are features in place to increase power output beyond the stated nameplate power of the turbines (e.g. so&#45;called power boost solutions), the wind farm installed capacity should correspond to that increased power, insofar as it is reached under typical conditions and not only in rare exceptions.&#10; &#160;&#160;&#160;export_capacity (Optional[float]): Optional specification of the maximum permanently transmittable power (in MW) from the wind farm at the grid connection, or equivalent, if known. If not included it shall be assumed that the wind farm can transmit the full produced output. Default is None.&#10; &#160;&#160;&#160;restrictions (Optional[list[OperationalRestriction]]): List of operational restrictions at the wind farm level. Default is None.&#10;">
<polygon fill="none" stroke="black" points="0,-428 0,-449 392,-449 392,-428 0,-428"/>
<text text-anchor="start" x="119.5" y="-435.8" font-family="Times New Roman,serif" font-weight="bold" font-size="14.00">WindFarmConfiguration</text>
<polygon fill="none" stroke="black" points="0,-407 0,-428 178,-428 178,-407 0,-407"/>
<text text-anchor="start" x="83.5" y="-413.8" font-family="Times New Roman,serif" font-size="14.00">id</text>
<polygon fill="none" stroke="black" points="178,-407 178,-428 392,-428 392,-407 178,-407"/>
<text text-anchor="start" x="277.5" y="-413.8" font-family="Times New Roman,serif" font-size="14.00">str</text>
<polygon fill="none" stroke="black" points="0,-386 0,-407 178,-407 178,-386 0,-386"/>
<text text-anchor="start" x="76" y="-392.8" font-family="Times New Roman,serif" font-size="14.00">label</text>
<polygon fill="none" stroke="black" points="178,-386 178,-407 392,-407 392,-386 178,-386"/>
<text text-anchor="start" x="277.5" y="-392.8" font-family="Times New Roman,serif" font-size="14.00">str</text>
<polygon fill="none" stroke="black" points="0,-365 0,-386 178,-386 178,-365 0,-365"/>
<text text-anchor="start" x="54.5" y="-371.8" font-family="Times New Roman,serif" font-size="14.00">abbreviation</text>
<polygon fill="none" stroke="black" points="178,-365 178,-386 392,-386 392,-365 178,-365"/>
<text text-anchor="start" x="249" y="-371.8" font-family="Times New Roman,serif" font-size="14.00">Optional[str]</text>
<polygon fill="none" stroke="black" points="0,-344 0,-365 178,-365 178,-344 0,-344"/>
<text text-anchor="start" x="57.5" y="-350.8" font-family="Times New Roman,serif" font-size="14.00">description</text>
<polygon fill="none" stroke="black" points="178,-344 178,-365 392,-365 392,-344 178,-344"/>
<text text-anchor="start" x="249" y="-350.8" font-family="Times New Roman,serif" font-size="14.00">Optional[str]</text>
<polygon fill="none" stroke="black" points="0,-323 0,-344 178,-344 178,-323 0,-323"/>
<text text-anchor="start" x="60" y="-329.8" font-family="Times New Roman,serif" font-size="14.00">comments</text>
<polygon fill="none" stroke="black" points="178,-323 178,-344 392,-344 392,-323 178,-323"/>
<text text-anchor="start" x="249" y="-329.8" font-family="Times New Roman,serif" font-size="14.00">Optional[str]</text>
<polygon fill="none" stroke="black" points="0,-302 0,-323 178,-323 178,-302 0,-302"/>
<text text-anchor="start" x="66.5" y="-308.8" font-family="Times New Roman,serif" font-size="14.00">turbines</text>
<polygon fill="none" stroke="black" points="178,-302 178,-323 392,-323 392,-302 178,-302"/>
<text text-anchor="start" x="212.5" y="-308.8" font-family="Times New Roman,serif" font-size="14.00">list[TurbineConfiguration]</text>
<polygon fill="none" stroke="black" points="0,-281 0,-302 178,-302 178,-281 0,-281"/>
<text text-anchor="start" x="63" y="-287.8" font-family="Times New Roman,serif" font-size="14.00">relevance</text>
<polygon fill="none" stroke="black" points="178,-281 178,-302 392,-302 392,-281 178,-281"/>
<text text-anchor="start" x="197.5" y="-287.8" font-family="Times New Roman,serif" font-size="14.00">WindFarmRelevance(StrEnum)</text>
<polygon fill="none" stroke="black" points="0,-260 0,-281 178,-281 178,-260 0,-260"/>
<text text-anchor="start" x="3" y="-266.8" font-family="Times New Roman,serif" font-size="14.00">operational_lifetime_start_date</text>
<polygon fill="none" stroke="black" points="178,-260 178,-281 392,-281 392,-260 178,-260"/>
<text text-anchor="start" x="273" y="-266.8" font-family="Times New Roman,serif" font-size="14.00">date</text>
<polygon fill="none" stroke="black" points="0,-239 0,-260 178,-260 178,-239 0,-239"/>
<text text-anchor="start" x="5" y="-245.8" font-family="Times New Roman,serif" font-size="14.00">operational_lifetime_end_date</text>
<polygon fill="none" stroke="black" points="178,-239 178,-260 392,-260 392,-239 178,-239"/>
<text text-anchor="start" x="244.5" y="-245.8" font-family="Times New Roman,serif" font-size="14.00">Optional[date]</text>
<polygon fill="none" stroke="black" points="0,-218 0,-239 178,-239 178,-218 0,-218"/>
<text text-anchor="start" x="39" y="-224.8" font-family="Times New Roman,serif" font-size="14.00">installed_capacity</text>
<polygon fill="none" stroke="black" points="178,-218 178,-239 392,-239 392,-218 178,-218"/>
<text text-anchor="start" x="272.5" y="-224.8" font-family="Times New Roman,serif" font-size="14.00">float</text>
<polygon fill="none" stroke="black" points="0,-197 0,-218 178,-218 178,-197 0,-197"/>
<text text-anchor="start" x="43.5" y="-203.8" font-family="Times New Roman,serif" font-size="14.00">export_capacity</text>
<polygon fill="none" stroke="black" points="178,-197 178,-218 392,-218 392,-197 178,-197"/>
<text text-anchor="start" x="244" y="-203.8" font-family="Times New Roman,serif" font-size="14.00">Optional[float]</text>
<polygon fill="none" stroke="black" points="0,-176 0,-197 178,-197 178,-176 0,-176"/>
<text text-anchor="start" x="58" y="-182.8" font-family="Times New Roman,serif" font-size="14.00">restrictions</text>
<polygon fill="none" stroke="black" points="178,-176 178,-197 392,-197 392,-176 178,-176"/>
<text text-anchor="start" x="181" y="-182.8" font-family="Times New Roman,serif" font-size="14.00">Optional[list[OperationalRestriction]]</text>
</a>
</g>
</g>
<!-- eya_def_tools.data_models.wind_farm.WindFarmConfiguration&#45;&gt;eya_def_tools.data_models.wind_farm.OperationalRestriction -->
<g id="edge3" class="edge">
<title>eya_def_tools.data_models.wind_farm.WindFarmConfiguration:e&#45;&gt;eya_def_tools.data_models.wind_farm.OperationalRestriction:w</title>
<path fill="none" stroke="black" d="M392,-186C444.53,-186 448.66,-149.11 500,-138 710.94,-92.35 774.15,-131.6 981.19,-133.9"/>
<polyline fill="none" stroke="black" points="1000,-134 995,-133.97"/>
<polygon fill="black" stroke="black" points="994.03,-128.97 993.97,-138.97 991.97,-138.96 992.03,-128.96 994.03,-128.97"/>
<polyline fill="none" stroke="black" points="995,-133.97 990,-133.94"/>
<ellipse fill="none" stroke="black" cx="985.5" cy="-133.92" rx="4" ry="4"/>
</g>
<!-- eya_def_tools.data_models.wind_farm.WindFarmConfiguration&#45;&gt;eya_def_tools.data_models.wind_farm.TurbineConfiguration -->
<g id="edge4" class="edge">
<title>eya_def_tools.data_models.wind_farm.WindFarmConfiguration:e&#45;&gt;eya_def_tools.data_models.wind_farm.TurbineConfiguration:w</title>
<path fill="none" stroke="black" d="M392,-312C446.17,-312 441.05,-379.02 481.32,-394.73"/>
<polygon fill="black" stroke="black" points="490.15,-396.28 499.22,-402.43 495.07,-397.14 500,-398 500,-398 500,-398 495.07,-397.14 500.78,-393.57 490.15,-396.28 490.15,-396.28"/>
<ellipse fill="none" stroke="black" cx="485.72" cy="-395.5" rx="4" ry="4"/>
</g>
</g>
</svg>
