<?xml version="1.0" encoding="UTF-8" standalone="no"?>
<!DOCTYPE svg PUBLIC "-//W3C//DTD SVG 1.1//EN"
 "http://www.w3.org/Graphics/SVG/1.1/DTD/svg11.dtd">
<!-- Generated by graphviz version 7.0.4 (20221203.1631)
 -->
<!-- Title: Entity Relationship Diagram Pages: 1 -->
<svg width="1703pt" height="417pt"
 viewBox="0.00 0.00 1703.00 417.00" xmlns="http://www.w3.org/2000/svg" xmlns:xlink="http://www.w3.org/1999/xlink">
<g id="graph0" class="graph" transform="scale(1 1) rotate(0) translate(4 413)">
<title>Entity Relationship Diagram</title>
<polygon fill="white" stroke="none" points="-4,4 -4,-413 1699,-413 1699,4 -4,4"/>
<text text-anchor="middle" x="847.5" y="-6.8" font-family="Times New Roman,serif" font-size="9.00" fill="#a8a8a8">Created by erdantic v0.6.0 &lt;https://github.com/drivendataorg/erdantic&gt;</text>
<!-- eya_def_tools.data_models.result.Result -->
<g id="node1" class="node">
<title>eya_def_tools.data_models.result.Result</title>
<g id="a_node1"><a xlink:title="eya_def_tools.data_models.result.Result&#10;&#10;Collection of results a quantity along specific dimensions.&#10;&#10;Attributes:&#10; &#160;&#160;&#160;label (Optional[str]): Label of the results. Default is None.&#10; &#160;&#160;&#160;description (Optional[str]): Optional description of the result. Default is None.&#10; &#160;&#160;&#160;comments (Optional[str]): Optional comments on the result. Default is None.&#10; &#160;&#160;&#160;assessment_period (Optional[AssessmentPeriod(StrEnum)]): Period of or in time that has been assessed and for which the results are applicable. Default is None.&#10; &#160;&#160;&#160;dimensions (Optional[list[ResultsDimension(StrEnum)]]): Dimensions along which the results are binned (all result values in the same results object must have the same dimensions). Default is None.&#10; &#160;&#160;&#160;statistics (list[ResultStatistic]): List of result statistic objects that each include result values for a specific statistic type.&#10;">
<polygon fill="none" stroke="black" points="779,-228.5 779,-249.5 1139,-249.5 1139,-228.5 779,-228.5"/>
<text text-anchor="start" x="939" y="-236.3" font-family="Times New Roman,serif" font-weight="bold" font-size="14.00">Result</text>
<polygon fill="none" stroke="black" points="779,-207.5 779,-228.5 892,-228.5 892,-207.5 779,-207.5"/>
<text text-anchor="start" x="822.5" y="-214.3" font-family="Times New Roman,serif" font-size="14.00">label</text>
<polygon fill="none" stroke="black" points="892,-207.5 892,-228.5 1139,-228.5 1139,-207.5 892,-207.5"/>
<text text-anchor="start" x="979.5" y="-214.3" font-family="Times New Roman,serif" font-size="14.00">Optional[str]</text>
<polygon fill="none" stroke="black" points="779,-186.5 779,-207.5 892,-207.5 892,-186.5 779,-186.5"/>
<text text-anchor="start" x="804" y="-193.3" font-family="Times New Roman,serif" font-size="14.00">description</text>
<polygon fill="none" stroke="black" points="892,-186.5 892,-207.5 1139,-207.5 1139,-186.5 892,-186.5"/>
<text text-anchor="start" x="979.5" y="-193.3" font-family="Times New Roman,serif" font-size="14.00">Optional[str]</text>
<polygon fill="none" stroke="black" points="779,-165.5 779,-186.5 892,-186.5 892,-165.5 779,-165.5"/>
<text text-anchor="start" x="806.5" y="-172.3" font-family="Times New Roman,serif" font-size="14.00">comments</text>
<polygon fill="none" stroke="black" points="892,-165.5 892,-186.5 1139,-186.5 1139,-165.5 892,-165.5"/>
<text text-anchor="start" x="979.5" y="-172.3" font-family="Times New Roman,serif" font-size="14.00">Optional[str]</text>
<polygon fill="none" stroke="black" points="779,-144.5 779,-165.5 892,-165.5 892,-144.5 779,-144.5"/>
<text text-anchor="start" x="782" y="-151.3" font-family="Times New Roman,serif" font-size="14.00">assessment_period</text>
<polygon fill="none" stroke="black" points="892,-144.5 892,-165.5 1139,-165.5 1139,-144.5 892,-144.5"/>
<text text-anchor="start" x="906" y="-151.3" font-family="Times New Roman,serif" font-size="14.00">Optional[AssessmentPeriod(StrEnum)]</text>
<polygon fill="none" stroke="black" points="779,-123.5 779,-144.5 892,-144.5 892,-123.5 779,-123.5"/>
<text text-anchor="start" x="803.5" y="-130.3" font-family="Times New Roman,serif" font-size="14.00">dimensions</text>
<polygon fill="none" stroke="black" points="892,-123.5 892,-144.5 1139,-144.5 1139,-123.5 892,-123.5"/>
<text text-anchor="start" x="895" y="-130.3" font-family="Times New Roman,serif" font-size="14.00">Optional[list[ResultsDimension(StrEnum)]]</text>
<polygon fill="none" stroke="black" points="779,-102.5 779,-123.5 892,-123.5 892,-102.5 779,-102.5"/>
<text text-anchor="start" x="811" y="-109.3" font-family="Times New Roman,serif" font-size="14.00">statistics</text>
<polygon fill="none" stroke="black" points="892,-102.5 892,-123.5 1139,-123.5 1139,-102.5 892,-102.5"/>
<text text-anchor="start" x="963" y="-109.3" font-family="Times New Roman,serif" font-size="14.00">list[ResultStatistic]</text>
</a>
</g>
</g>
<!-- eya_def_tools.data_models.result.ResultStatistic -->
<g id="node2" class="node">
<title>eya_def_tools.data_models.result.ResultStatistic</title>
<g id="a_node2"><a xlink:title="eya_def_tools.data_models.result.ResultStatistic&#10;&#10;Result values for one specific statistic type.&#10;&#10;Attributes:&#10; &#160;&#160;&#160;description (Optional[str]): Optional description of the result statistic. Default is None.&#10; &#160;&#160;&#160;comments (Optional[str]): Optional comments on the result statistic. Default is None.&#10; &#160;&#160;&#160;statistic_type (StatisticType(StrEnum)): Type of statistic in the results component.&#10; &#160;&#160;&#160;values (UnionType[float, list[tuple[list[UnionType[float, int, str]], float]]]): Result as a single number or values at coordinates.&#10;">
<polygon fill="none" stroke="black" points="1247,-101.5 1247,-122.5 1695,-122.5 1695,-101.5 1247,-101.5"/>
<text text-anchor="start" x="1426.5" y="-109.3" font-family="Times New Roman,serif" font-weight="bold" font-size="14.00">ResultStatistic</text>
<polygon fill="none" stroke="black" points="1247,-80.5 1247,-101.5 1327,-101.5 1327,-80.5 1247,-80.5"/>
<text text-anchor="start" x="1255.5" y="-87.3" font-family="Times New Roman,serif" font-size="14.00">description</text>
<polygon fill="none" stroke="black" points="1327,-80.5 1327,-101.5 1695,-101.5 1695,-80.5 1327,-80.5"/>
<text text-anchor="start" x="1475" y="-87.3" font-family="Times New Roman,serif" font-size="14.00">Optional[str]</text>
<polygon fill="none" stroke="black" points="1247,-59.5 1247,-80.5 1327,-80.5 1327,-59.5 1247,-59.5"/>
<text text-anchor="start" x="1258" y="-66.3" font-family="Times New Roman,serif" font-size="14.00">comments</text>
<polygon fill="none" stroke="black" points="1327,-59.5 1327,-80.5 1695,-80.5 1695,-59.5 1327,-59.5"/>
<text text-anchor="start" x="1475" y="-66.3" font-family="Times New Roman,serif" font-size="14.00">Optional[str]</text>
<polygon fill="none" stroke="black" points="1247,-38.5 1247,-59.5 1327,-59.5 1327,-38.5 1247,-38.5"/>
<text text-anchor="start" x="1250" y="-45.3" font-family="Times New Roman,serif" font-size="14.00">statistic_type</text>
<polygon fill="none" stroke="black" points="1327,-38.5 1327,-59.5 1695,-59.5 1695,-38.5 1327,-38.5"/>
<text text-anchor="start" x="1445" y="-45.3" font-family="Times New Roman,serif" font-size="14.00">StatisticType(StrEnum)</text>
<polygon fill="none" stroke="black" points="1247,-17.5 1247,-38.5 1327,-38.5 1327,-17.5 1247,-17.5"/>
<text text-anchor="start" x="1269.5" y="-24.3" font-family="Times New Roman,serif" font-size="14.00">values</text>
<polygon fill="none" stroke="black" points="1327,-17.5 1327,-38.5 1695,-38.5 1695,-17.5 1327,-17.5"/>
<text text-anchor="start" x="1330" y="-24.3" font-family="Times New Roman,serif" font-size="14.00">UnionType[float, list[tuple[list[UnionType[float, int, str]], float]]]</text>
</a>
</g>
</g>
<!-- eya_def_tools.data_models.result.Result&#45;&gt;eya_def_tools.data_models.result.ResultStatistic -->
<g id="edge1" class="edge">
<title>eya_def_tools.data_models.result.Result:e&#45;&gt;eya_def_tools.data_models.result.ResultStatistic:w</title>
<path fill="none" stroke="black" d="M1139,-112.5C1180.06,-112.5 1194.78,-112.5 1228.23,-112.5"/>
<polygon fill="black" stroke="black" points="1237,-112.5 1247,-117 1242,-112.5 1247,-112.5 1247,-112.5 1247,-112.5 1242,-112.5 1247,-108 1237,-112.5 1237,-112.5"/>
<ellipse fill="none" stroke="black" cx="1232.5" cy="-112.5" rx="4" ry="4"/>
</g>
<!-- eya_def_tools.data_models.wind_resource.WindResourceAssessment -->
<g id="node3" class="node">
<title>eya_def_tools.data_models.wind_resource.WindResourceAssessment</title>
<g id="a_node3"><a xlink:title="eya_def_tools.data_models.wind_resource.WindResourceAssessment&#10;&#10;Wind resource assessment at the measurement location(s).&#10;&#10;Attributes:&#10; &#160;&#160;&#160;wind_resource_assessment_id (str): Unique ID of the wind resource assessment within the EYA DEF document.&#10; &#160;&#160;&#160;description (Optional[str]): Optional description of the wind resource assessment. Default is None.&#10; &#160;&#160;&#160;comments (Optional[str]): Optional comments on the wind resource assessment. Default is None.&#10; &#160;&#160;&#160;results (WindResourceResults): Results of the wind resource assessment at the measurement location(s).&#10;">
<polygon fill="none" stroke="black" points="0,-387.5 0,-408.5 310,-408.5 310,-387.5 0,-387.5"/>
<text text-anchor="start" x="74" y="-395.3" font-family="Times New Roman,serif" font-weight="bold" font-size="14.00">WindResourceAssessment</text>
<polygon fill="none" stroke="black" points="0,-366.5 0,-387.5 178,-387.5 178,-366.5 0,-366.5"/>
<text text-anchor="start" x="3" y="-373.3" font-family="Times New Roman,serif" font-size="14.00">wind_resource_assessment_id</text>
<polygon fill="none" stroke="black" points="178,-366.5 178,-387.5 310,-387.5 310,-366.5 178,-366.5"/>
<text text-anchor="start" x="236.5" y="-373.3" font-family="Times New Roman,serif" font-size="14.00">str</text>
<polygon fill="none" stroke="black" points="0,-345.5 0,-366.5 178,-366.5 178,-345.5 0,-345.5"/>
<text text-anchor="start" x="57.5" y="-352.3" font-family="Times New Roman,serif" font-size="14.00">description</text>
<polygon fill="none" stroke="black" points="178,-345.5 178,-366.5 310,-366.5 310,-345.5 178,-345.5"/>
<text text-anchor="start" x="208" y="-352.3" font-family="Times New Roman,serif" font-size="14.00">Optional[str]</text>
<polygon fill="none" stroke="black" points="0,-324.5 0,-345.5 178,-345.5 178,-324.5 0,-324.5"/>
<text text-anchor="start" x="60" y="-331.3" font-family="Times New Roman,serif" font-size="14.00">comments</text>
<polygon fill="none" stroke="black" points="178,-324.5 178,-345.5 310,-345.5 310,-324.5 178,-324.5"/>
<text text-anchor="start" x="208" y="-331.3" font-family="Times New Roman,serif" font-size="14.00">Optional[str]</text>
<polygon fill="none" stroke="black" points="0,-303.5 0,-324.5 178,-324.5 178,-303.5 0,-303.5"/>
<text text-anchor="start" x="70.5" y="-310.3" font-family="Times New Roman,serif" font-size="14.00">results</text>
<polygon fill="none" stroke="black" points="178,-303.5 178,-324.5 310,-324.5 310,-303.5 178,-303.5"/>
<text text-anchor="start" x="181" y="-310.3" font-family="Times New Roman,serif" font-size="14.00">WindResourceResults</text>
</a>
</g>
</g>
<!-- eya_def_tools.data_models.wind_resource.WindResourceResults -->
<g id="node4" class="node">
<title>eya_def_tools.data_models.wind_resource.WindResourceResults</title>
<g id="a_node4"><a xlink:title="eya_def_tools.data_models.wind_resource.WindResourceResults&#10;&#10;Wind resource assessment results at measurement locations.&#10;&#10;Attributes:&#10; &#160;&#160;&#160;wind_speed (list[Result]): Final long&#45;term wind speed estimates at the measurement location(s)in metre per second.&#10; &#160;&#160;&#160;probability (Optional[list[Result]]): Final long&#45;term probability distribution estimates at the measurement location(s), such as wind speed probability distributions or joint wind speed and direction frequency distributions, as dimensionless values. Default is None.&#10; &#160;&#160;&#160;turbulence_intensity (Optional[list[Result]]): Final long&#45;term turbulence intensity estimates at the measurement location(s) as dimensionless values. Default is None.&#10; &#160;&#160;&#160;wind_shear_exponent (Optional[list[Result]]): Final long&#45;term power law wind shear exponent estimates at the measurement location(s). Default is None.&#10; &#160;&#160;&#160;temperature (Optional[list[Result]]): Final long&#45;term temperature estimates at the measurement location(s) in degree C. Default is None.&#10; &#160;&#160;&#160;air_density (Optional[list[Result]]): Final long&#45;term air density estimates at the measurement location(s) in kilogram per cubic metre. Default is None.&#10;">
<polygon fill="none" stroke="black" points="418.5,-302.5 418.5,-323.5 671.5,-323.5 671.5,-302.5 418.5,-302.5"/>
<text text-anchor="start" x="477" y="-310.3" font-family="Times New Roman,serif" font-weight="bold" font-size="14.00">WindResourceResults</text>
<polygon fill="none" stroke="black" points="418.5,-281.5 418.5,-302.5 547.5,-302.5 547.5,-281.5 418.5,-281.5"/>
<text text-anchor="start" x="449" y="-288.3" font-family="Times New Roman,serif" font-size="14.00">wind_speed</text>
<polygon fill="none" stroke="black" points="547.5,-281.5 547.5,-302.5 671.5,-302.5 671.5,-281.5 547.5,-281.5"/>
<text text-anchor="start" x="579" y="-288.3" font-family="Times New Roman,serif" font-size="14.00">list[Result]</text>
<polygon fill="none" stroke="black" points="418.5,-260.5 418.5,-281.5 547.5,-281.5 547.5,-260.5 418.5,-260.5"/>
<text text-anchor="start" x="452.5" y="-267.3" font-family="Times New Roman,serif" font-size="14.00">probability</text>
<polygon fill="none" stroke="black" points="547.5,-260.5 547.5,-281.5 671.5,-281.5 671.5,-260.5 547.5,-260.5"/>
<text text-anchor="start" x="550.5" y="-267.3" font-family="Times New Roman,serif" font-size="14.00">Optional[list[Result]]</text>
<polygon fill="none" stroke="black" points="418.5,-239.5 418.5,-260.5 547.5,-260.5 547.5,-239.5 418.5,-239.5"/>
<text text-anchor="start" x="427" y="-246.3" font-family="Times New Roman,serif" font-size="14.00">turbulence_intensity</text>
<polygon fill="none" stroke="black" points="547.5,-239.5 547.5,-260.5 671.5,-260.5 671.5,-239.5 547.5,-239.5"/>
<text text-anchor="start" x="550.5" y="-246.3" font-family="Times New Roman,serif" font-size="14.00">Optional[list[Result]]</text>
<polygon fill="none" stroke="black" points="418.5,-218.5 418.5,-239.5 547.5,-239.5 547.5,-218.5 418.5,-218.5"/>
<text text-anchor="start" x="421.5" y="-225.3" font-family="Times New Roman,serif" font-size="14.00">wind_shear_exponent</text>
<polygon fill="none" stroke="black" points="547.5,-218.5 547.5,-239.5 671.5,-239.5 671.5,-218.5 547.5,-218.5"/>
<text text-anchor="start" x="550.5" y="-225.3" font-family="Times New Roman,serif" font-size="14.00">Optional[list[Result]]</text>
<polygon fill="none" stroke="black" points="418.5,-197.5 418.5,-218.5 547.5,-218.5 547.5,-197.5 418.5,-197.5"/>
<text text-anchor="start" x="450" y="-204.3" font-family="Times New Roman,serif" font-size="14.00">temperature</text>
<polygon fill="none" stroke="black" points="547.5,-197.5 547.5,-218.5 671.5,-218.5 671.5,-197.5 547.5,-197.5"/>
<text text-anchor="start" x="550.5" y="-204.3" font-family="Times New Roman,serif" font-size="14.00">Optional[list[Result]]</text>
<polygon fill="none" stroke="black" points="418.5,-176.5 418.5,-197.5 547.5,-197.5 547.5,-176.5 418.5,-176.5"/>
<text text-anchor="start" x="452.5" y="-183.3" font-family="Times New Roman,serif" font-size="14.00">air_density</text>
<polygon fill="none" stroke="black" points="547.5,-176.5 547.5,-197.5 671.5,-197.5 671.5,-176.5 547.5,-176.5"/>
<text text-anchor="start" x="550.5" y="-183.3" font-family="Times New Roman,serif" font-size="14.00">Optional[list[Result]]</text>
</a>
</g>
</g>
<!-- eya_def_tools.data_models.wind_resource.WindResourceAssessment&#45;&gt;eya_def_tools.data_models.wind_resource.WindResourceResults -->
<g id="edge2" class="edge">
<title>eya_def_tools.data_models.wind_resource.WindResourceAssessment:e&#45;&gt;eya_def_tools.data_models.wind_resource.WindResourceResults:w</title>
<path fill="none" stroke="black" d="M310,-313.5C352.75,-313.5 366.94,-313.5 403.45,-313.5"/>
<polyline fill="none" stroke="black" points="418,-313.5 413,-313.5"/>
<polygon fill="black" stroke="black" points="412,-308.5 412,-318.5 410,-318.5 410,-308.5 412,-308.5"/>
<polyline fill="none" stroke="black" points="413,-313.5 408,-313.5"/>
<polygon fill="black" stroke="black" points="407,-308.5 407,-318.5 405,-318.5 405,-308.5 407,-308.5"/>
<polyline fill="none" stroke="black" points="408,-313.5 403,-313.5"/>
</g>
<!-- eya_def_tools.data_models.wind_resource.WindResourceResults&#45;&gt;eya_def_tools.data_models.result.Result -->
<g id="edge3" class="edge">
<title>eya_def_tools.data_models.wind_resource.WindResourceResults:e&#45;&gt;eya_def_tools.data_models.result.Result:w</title>
<path fill="none" stroke="black" d="M671,-292.5C717.37,-292.5 724.32,-252.64 760.22,-242.06"/>
<polygon fill="black" stroke="black" points="769.09,-240.85 779.61,-243.96 774.05,-240.17 779,-239.5 779,-239.5 779,-239.5 774.05,-240.17 778.39,-235.04 769.09,-240.85 769.09,-240.85"/>
<ellipse fill="none" stroke="black" cx="764.63" cy="-241.46" rx="4" ry="4"/>
</g>
<!-- eya_def_tools.data_models.wind_resource.WindResourceResults&#45;&gt;eya_def_tools.data_models.result.Result -->
<g id="edge4" class="edge">
<title>eya_def_tools.data_models.wind_resource.WindResourceResults:e&#45;&gt;eya_def_tools.data_models.result.Result:w</title>
<path fill="none" stroke="black" d="M671,-271.5C714.02,-271.5 725.89,-247.87 760.15,-241.22"/>
<polyline fill="none" stroke="black" points="779,-239.5 774.02,-239.95"/>
<polygon fill="black" stroke="black" points="772.57,-235.07 773.48,-245.02 771.49,-245.21 770.58,-235.25 772.57,-235.07"/>
<polyline fill="none" stroke="black" points="774.02,-239.95 769.04,-240.41"/>
<ellipse fill="none" stroke="black" cx="764.56" cy="-240.82" rx="4" ry="4"/>
</g>
<!-- eya_def_tools.data_models.wind_resource.WindResourceResults&#45;&gt;eya_def_tools.data_models.result.Result -->
<g id="edge5" class="edge">
<title>eya_def_tools.data_models.wind_resource.WindResourceResults:e&#45;&gt;eya_def_tools.data_models.result.Result:w</title>
<path fill="none" stroke="black" d="M671,-249.5C712.24,-249.5 726.68,-242.18 760.17,-240.07"/>
<polyline fill="none" stroke="black" points="779,-239.5 774,-239.65"/>
<polygon fill="black" stroke="black" points="772.85,-234.68 773.15,-244.68 771.15,-244.74 770.85,-234.74 772.85,-234.68"/>
<polyline fill="none" stroke="black" points="774,-239.65 769,-239.8"/>
<ellipse fill="none" stroke="black" cx="764.51" cy="-239.94" rx="4" ry="4"/>
</g>
<!-- eya_def_tools.data_models.wind_resource.WindResourceResults&#45;&gt;eya_def_tools.data_models.result.Result -->
<g id="edge6" class="edge">
<title>eya_def_tools.data_models.wind_resource.WindResourceResults:e&#45;&gt;eya_def_tools.data_models.result.Result:w</title>
<path fill="none" stroke="black" d="M671,-228.5C712.27,-228.5 726.66,-236.55 760.16,-238.88"/>
<polyline fill="none" stroke="black" points="779,-239.5 774,-239.33"/>
<polygon fill="black" stroke="black" points="773.17,-234.3 772.84,-244.3 770.84,-244.23 771.17,-234.24 773.17,-234.3"/>
<polyline fill="none" stroke="black" points="774,-239.33 769.01,-239.17"/>
<ellipse fill="none" stroke="black" cx="764.51" cy="-239.02" rx="4" ry="4"/>
</g>
<!-- eya_def_tools.data_models.wind_resource.WindResourceResults&#45;&gt;eya_def_tools.data_models.result.Result -->
<g id="edge7" class="edge">
<title>eya_def_tools.data_models.wind_resource.WindResourceResults:e&#45;&gt;eya_def_tools.data_models.result.Result:w</title>
<path fill="none" stroke="black" d="M671,-207.5C714.02,-207.5 725.89,-231.13 760.15,-237.78"/>
<polyline fill="none" stroke="black" points="779,-239.5 774.02,-239.05"/>
<polygon fill="black" stroke="black" points="773.48,-233.98 772.57,-243.93 770.58,-243.75 771.49,-233.79 773.48,-233.98"/>
<polyline fill="none" stroke="black" points="774.02,-239.05 769.04,-238.59"/>
<ellipse fill="none" stroke="black" cx="764.56" cy="-238.18" rx="4" ry="4"/>
</g>
<!-- eya_def_tools.data_models.wind_resource.WindResourceResults&#45;&gt;eya_def_tools.data_models.result.Result -->
<g id="edge8" class="edge">
<title>eya_def_tools.data_models.wind_resource.WindResourceResults:e&#45;&gt;eya_def_tools.data_models.result.Result:w</title>
<path fill="none" stroke="black" d="M671,-186.5C717.37,-186.5 724.32,-226.36 760.22,-236.94"/>
<polyline fill="none" stroke="black" points="779,-239.5 774.05,-238.83"/>
<polygon fill="black" stroke="black" points="773.73,-233.74 772.38,-243.64 770.4,-243.38 771.75,-233.47 773.73,-233.74"/>
<polyline fill="none" stroke="black" points="774.05,-238.83 769.09,-238.15"/>
<ellipse fill="none" stroke="black" cx="764.63" cy="-237.54" rx="4" ry="4"/>
</g>
</g>
</svg>
