<?xml version="1.0" encoding="UTF-8" standalone="no"?>
<!DOCTYPE svg PUBLIC "-//W3C//DTD SVG 1.1//EN"
 "http://www.w3.org/Graphics/SVG/1.1/DTD/svg11.dtd">
<!-- Generated by graphviz version 7.0.4 (20221203.1631)
 -->
<!-- Title: Entity Relationship Diagram Pages: 1 -->
<svg width="5881pt" height="419pt"
 viewBox="0.00 0.00 5881.00 418.50" xmlns="http://www.w3.org/2000/svg" xmlns:xlink="http://www.w3.org/1999/xlink">
<g id="graph0" class="graph" transform="scale(1 1) rotate(0) translate(4 414.5)">
<title>Entity Relationship Diagram</title>
<polygon fill="white" stroke="none" points="-4,4 -4,-414.5 5877,-414.5 5877,4 -4,4"/>
<text text-anchor="middle" x="2936.5" y="-6.8" font-family="Times New Roman,serif" font-size="9.00" fill="#a8a8a8">Created by erdantic v0.6.0 &lt;https://github.com/drivendataorg/erdantic&gt;</text>
<!-- eya_def_tools.data_models.dataset.Dataset -->
<g id="node1" class="node">
<title>eya_def_tools.data_models.dataset.Dataset</title>
<g id="a_node1"><a xlink:title="eya_def_tools.data_models.dataset.Dataset&#10;&#10;Collection of labelled data for one specific quantity.&#10;&#10;The data is labelled by specifying dimensions and including&#10;coordinates along the dimensions for each data value.&#10;&#10;Attributes:&#10; &#160;&#160;&#160;label (Optional[Annotated[str, FieldInfo(annotation=NoneType, required=True, metadata=[MinLen(min_length=1)])]]): Optional label of the dataset, which should not be empty if the field is included. Default is None.&#10; &#160;&#160;&#160;description (Optional[Annotated[str, FieldInfo(annotation=NoneType, required=True, metadata=[MinLen(min_length=1)])]]): Optional description of the dataset, which should not be empty if the field is included. Default is None.&#10; &#160;&#160;&#160;comments (Optional[Annotated[str, FieldInfo(annotation=NoneType, required=True, metadata=[MinLen(min_length=1)])]]): Optional comments on the dataset, which should not be empty if the field is included. Default is None.&#10; &#160;&#160;&#160;assessment_period (Optional[AssessmentPeriod(StrEnum)]): Optional period of or in time that has been assessed and for which the dataset is applicable. This field is to be included only when relevant. Default is None.&#10; &#160;&#160;&#160;dimensions (Optional[list[DatasetDimension(StrEnum)]]): Dimensions along which the dataset is binned. All statistics within the same dataset object must have the same dimensions. The dimensions must correspond to and be listed in the same order as the coordinates for the values of all statistics. A dataset without dimensions can only have a single value for each statistic. Default is None.&#10; &#160;&#160;&#160;statistics (list[DatasetStatistic]): List of dataset statistic objects that each include data values for a specific statistic type. For example, there may be two statistics, one for mean values and one for standard deviation values.&#10;">
<polygon fill="none" stroke="black" points="1171,-230 1171,-251 1911,-251 1911,-230 1171,-230"/>
<text text-anchor="start" x="1517" y="-237.8" font-family="Times New Roman,serif" font-weight="bold" font-size="14.00">Dataset</text>
<polygon fill="none" stroke="black" points="1171,-209 1171,-230 1284,-230 1284,-209 1171,-209"/>
<text text-anchor="start" x="1214.5" y="-215.8" font-family="Times New Roman,serif" font-size="14.00">label</text>
<polygon fill="none" stroke="black" points="1284,-209 1284,-230 1911,-230 1911,-209 1284,-209"/>
<text text-anchor="start" x="1287" y="-215.8" font-family="Times New Roman,serif" font-size="14.00">Optional[Annotated[str, FieldInfo(annotation=NoneType, required=True, metadata=[MinLen(min_length=1)])]]</text>
<polygon fill="none" stroke="black" points="1171,-188 1171,-209 1284,-209 1284,-188 1171,-188"/>
<text text-anchor="start" x="1196" y="-194.8" font-family="Times New Roman,serif" font-size="14.00">description</text>
<polygon fill="none" stroke="black" points="1284,-188 1284,-209 1911,-209 1911,-188 1284,-188"/>
<text text-anchor="start" x="1287" y="-194.8" font-family="Times New Roman,serif" font-size="14.00">Optional[Annotated[str, FieldInfo(annotation=NoneType, required=True, metadata=[MinLen(min_length=1)])]]</text>
<polygon fill="none" stroke="black" points="1171,-167 1171,-188 1284,-188 1284,-167 1171,-167"/>
<text text-anchor="start" x="1198.5" y="-173.8" font-family="Times New Roman,serif" font-size="14.00">comments</text>
<polygon fill="none" stroke="black" points="1284,-167 1284,-188 1911,-188 1911,-167 1284,-167"/>
<text text-anchor="start" x="1287" y="-173.8" font-family="Times New Roman,serif" font-size="14.00">Optional[Annotated[str, FieldInfo(annotation=NoneType, required=True, metadata=[MinLen(min_length=1)])]]</text>
<polygon fill="none" stroke="black" points="1171,-146 1171,-167 1284,-167 1284,-146 1171,-146"/>
<text text-anchor="start" x="1174" y="-152.8" font-family="Times New Roman,serif" font-size="14.00">assessment_period</text>
<polygon fill="none" stroke="black" points="1284,-146 1284,-167 1911,-167 1911,-146 1284,-146"/>
<text text-anchor="start" x="1488" y="-152.8" font-family="Times New Roman,serif" font-size="14.00">Optional[AssessmentPeriod(StrEnum)]</text>
<polygon fill="none" stroke="black" points="1171,-125 1171,-146 1284,-146 1284,-125 1171,-125"/>
<text text-anchor="start" x="1195.5" y="-131.8" font-family="Times New Roman,serif" font-size="14.00">dimensions</text>
<polygon fill="none" stroke="black" points="1284,-125 1284,-146 1911,-146 1911,-125 1284,-125"/>
<text text-anchor="start" x="1477" y="-131.8" font-family="Times New Roman,serif" font-size="14.00">Optional[list[DatasetDimension(StrEnum)]]</text>
<polygon fill="none" stroke="black" points="1171,-104 1171,-125 1284,-125 1284,-104 1171,-104"/>
<text text-anchor="start" x="1203" y="-110.8" font-family="Times New Roman,serif" font-size="14.00">statistics</text>
<polygon fill="none" stroke="black" points="1284,-104 1284,-125 1911,-125 1911,-104 1284,-104"/>
<text text-anchor="start" x="1542" y="-110.8" font-family="Times New Roman,serif" font-size="14.00">list[DatasetStatistic]</text>
</a>
</g>
</g>
<!-- eya_def_tools.data_models.dataset.DatasetStatistic -->
<g id="node2" class="node">
<title>eya_def_tools.data_models.dataset.DatasetStatistic</title>
<g id="a_node2"><a xlink:title="eya_def_tools.data_models.dataset.DatasetStatistic&#10;&#10;Dataset values for one specific statistic type.&#10;&#10;Attributes:&#10; &#160;&#160;&#160;description (Optional[Annotated[str, FieldInfo(annotation=NoneType, required=True, metadata=[MinLen(min_length=1)])]]): Optional description of the dataset statistic, which should not be empty if the field is included. Default is None.&#10; &#160;&#160;&#160;comments (Optional[Annotated[str, FieldInfo(annotation=NoneType, required=True, metadata=[MinLen(min_length=1)])]]): Optional comments on the dataset statistic, which should not be empty if the field is included. Default is None.&#10; &#160;&#160;&#160;statistic_type (UnionType[BasicStatisticType(StrEnum), ExceedanceLevelStatisticType]): Type of statistic that the component of the dataset contains. All values must correspond to this statistic.&#10; &#160;&#160;&#160;values (Union[Annotated[float, FieldInfo(annotation=NoneType, required=True, metadata=[PydanticGeneralMetadata(allow_inf_nan=False)])], Annotated[list[tuple[list[Union[Annotated[float, FieldInfo(annotation=NoneType, required=True, metadata=[PydanticGeneralMetadata(allow_inf_nan=False)])], int, Annotated[str, FieldInfo(annotation=NoneType, required=True, metadata=[MinLen(min_length=1)])]]], Annotated[float, FieldInfo(annotation=NoneType, required=True, metadata=[PydanticGeneralMetadata(allow_inf_nan=False)])]]], FieldInfo(annotation=NoneType, required=True, metadata=[MinLen(min_length=1)])]]): Dataset value(s) as a single number or &#160;one or more values at coordinates. If more than one value is included the values must be represented together with coordinates. A single value can be included either with or without coordinates. The coordinates must correspond to and be listed the same order as the dimensions specified for the dataset.&#10;">
<polygon fill="none" stroke="black" points="2019.5,-103 2019.5,-124 5572.5,-124 5572.5,-103 2019.5,-103"/>
<text text-anchor="start" x="3747.5" y="-110.8" font-family="Times New Roman,serif" font-weight="bold" font-size="14.00">DatasetStatistic</text>
<polygon fill="none" stroke="black" points="2019.5,-82 2019.5,-103 2099.5,-103 2099.5,-82 2019.5,-82"/>
<text text-anchor="start" x="2028" y="-88.8" font-family="Times New Roman,serif" font-size="14.00">description</text>
<polygon fill="none" stroke="black" points="2099.5,-82 2099.5,-103 5572.5,-103 5572.5,-82 2099.5,-82"/>
<text text-anchor="start" x="3525.5" y="-88.8" font-family="Times New Roman,serif" font-size="14.00">Optional[Annotated[str, FieldInfo(annotation=NoneType, required=True, metadata=[MinLen(min_length=1)])]]</text>
<polygon fill="none" stroke="black" points="2019.5,-61 2019.5,-82 2099.5,-82 2099.5,-61 2019.5,-61"/>
<text text-anchor="start" x="2030.5" y="-67.8" font-family="Times New Roman,serif" font-size="14.00">comments</text>
<polygon fill="none" stroke="black" points="2099.5,-61 2099.5,-82 5572.5,-82 5572.5,-61 2099.5,-61"/>
<text text-anchor="start" x="3525.5" y="-67.8" font-family="Times New Roman,serif" font-size="14.00">Optional[Annotated[str, FieldInfo(annotation=NoneType, required=True, metadata=[MinLen(min_length=1)])]]</text>
<polygon fill="none" stroke="black" points="2019.5,-40 2019.5,-61 2099.5,-61 2099.5,-40 2019.5,-40"/>
<text text-anchor="start" x="2022.5" y="-46.8" font-family="Times New Roman,serif" font-size="14.00">statistic_type</text>
<polygon fill="none" stroke="black" points="2099.5,-40 2099.5,-61 5572.5,-61 5572.5,-40 2099.5,-40"/>
<text text-anchor="start" x="3630" y="-46.8" font-family="Times New Roman,serif" font-size="14.00">UnionType[BasicStatisticType(StrEnum), ExceedanceLevelStatisticType]</text>
<polygon fill="none" stroke="black" points="2019.5,-19 2019.5,-40 2099.5,-40 2099.5,-19 2019.5,-19"/>
<text text-anchor="start" x="2042" y="-25.8" font-family="Times New Roman,serif" font-size="14.00">values</text>
<polygon fill="none" stroke="black" points="2099.5,-19 2099.5,-40 5572.5,-40 5572.5,-19 2099.5,-19"/>
<text text-anchor="start" x="2102.5" y="-25.8" font-family="Times New Roman,serif" font-size="14.00">Union[Annotated[float, FieldInfo(annotation=NoneType, required=True, metadata=[PydanticGeneralMetadata(allow_inf_nan=False)])], Annotated[list[tuple[list[Union[Annotated[float, FieldInfo(annotation=NoneType, required=True, metadata=[PydanticGeneralMetadata(allow_inf_nan=False)])], int, Annotated[str, FieldInfo(annotation=NoneType, required=True, metadata=[MinLen(min_length=1)])]]], Annotated[float, FieldInfo(annotation=NoneType, required=True, metadata=[PydanticGeneralMetadata(allow_inf_nan=False)])]]], FieldInfo(annotation=NoneType, required=True, metadata=[MinLen(min_length=1)])]]</text>
</a>
</g>
</g>
<!-- eya_def_tools.data_models.dataset.Dataset&#45;&gt;eya_def_tools.data_models.dataset.DatasetStatistic -->
<g id="edge1" class="edge">
<title>eya_def_tools.data_models.dataset.Dataset:e&#45;&gt;eya_def_tools.data_models.dataset.DatasetStatistic:w</title>
<path fill="none" stroke="black" d="M1911,-114C1952.06,-114 1966.78,-114 2000.23,-114"/>
<polygon fill="black" stroke="black" points="2009,-114 2019,-118.5 2014,-114 2019,-114 2019,-114 2019,-114 2014,-114 2019,-109.5 2009,-114 2009,-114"/>
<ellipse fill="none" stroke="black" cx="2004.5" cy="-114" rx="4" ry="4"/>
</g>
<!-- eya_def_tools.data_models.dataset.ExceedanceLevelStatisticType -->
<g id="node3" class="node">
<title>eya_def_tools.data_models.dataset.ExceedanceLevelStatisticType</title>
<g id="a_node3"><a xlink:title="eya_def_tools.data_models.dataset.ExceedanceLevelStatisticType&#10;&#10;Probability of exceedance level statistic type.&#10;&#10;Attributes:&#10; &#160;&#160;&#160;exceedance_level (float): The dimensionless probability of exceedance level (i.e. probability value between 0.0 and 1.0) of the statistic.&#10;">
<polygon fill="none" stroke="black" points="5680.5,-39 5680.5,-60 5873.5,-60 5873.5,-39 5680.5,-39"/>
<text text-anchor="start" x="5683.5" y="-46.8" font-family="Times New Roman,serif" font-weight="bold" font-size="14.00">ExceedanceLevelStatisticType</text>
<polygon fill="none" stroke="black" points="5680.5,-18 5680.5,-39 5812.5,-39 5812.5,-18 5680.5,-18"/>
<text text-anchor="start" x="5698" y="-24.8" font-family="Times New Roman,serif" font-size="14.00">exceedance_level</text>
<polygon fill="none" stroke="black" points="5812.5,-18 5812.5,-39 5873.5,-39 5873.5,-18 5812.5,-18"/>
<text text-anchor="start" x="5830.5" y="-24.8" font-family="Times New Roman,serif" font-size="14.00">float</text>
</a>
</g>
</g>
<!-- eya_def_tools.data_models.dataset.DatasetStatistic&#45;&gt;eya_def_tools.data_models.dataset.ExceedanceLevelStatisticType -->
<g id="edge2" class="edge">
<title>eya_def_tools.data_models.dataset.DatasetStatistic:e&#45;&gt;eya_def_tools.data_models.dataset.ExceedanceLevelStatisticType:w</title>
<path fill="none" stroke="black" d="M5572,-50C5614.75,-50 5628.94,-50 5665.45,-50"/>
<polyline fill="none" stroke="black" points="5680,-50 5675,-50"/>
<polygon fill="black" stroke="black" points="5674,-45 5674,-55 5672,-55 5672,-45 5674,-45"/>
<polyline fill="none" stroke="black" points="5675,-50 5670,-50"/>
<polygon fill="black" stroke="black" points="5669,-45 5669,-55 5667,-55 5667,-45 5669,-45"/>
<polyline fill="none" stroke="black" points="5670,-50 5665,-50"/>
</g>
<!-- eya_def_tools.data_models.wind_resource.WindResourceAssessment -->
<g id="node4" class="node">
<title>eya_def_tools.data_models.wind_resource.WindResourceAssessment</title>
<g id="a_node4"><a xlink:title="eya_def_tools.data_models.wind_resource.WindResourceAssessment&#10;&#10;Wind resource assessment at the measurement location(s).&#10;&#10;Attributes:&#10; &#160;&#160;&#160;id (str): Unique ID of the wind resource assessment within the EYA DEF document.&#10; &#160;&#160;&#160;description (Optional[Annotated[str, FieldInfo(annotation=NoneType, required=True, metadata=[MinLen(min_length=1)])]]): Optional description of the wind resource assessment, which should not be empty if the field is included. Default is None.&#10; &#160;&#160;&#160;comments (Optional[Annotated[str, FieldInfo(annotation=NoneType, required=True, metadata=[MinLen(min_length=1)])]]): Optional comments on the wind resource assessment, which should not be empty if the field is included. Default is None.&#10; &#160;&#160;&#160;results (WindResourceResults): Results of the wind resource assessment at the measurement location(s).&#10;">
<polygon fill="none" stroke="black" points="0,-389 0,-410 696,-410 696,-389 0,-389"/>
<text text-anchor="start" x="267" y="-396.8" font-family="Times New Roman,serif" font-weight="bold" font-size="14.00">WindResourceAssessment</text>
<polygon fill="none" stroke="black" points="0,-368 0,-389 69,-389 69,-368 0,-368"/>
<text text-anchor="start" x="29" y="-374.8" font-family="Times New Roman,serif" font-size="14.00">id</text>
<polygon fill="none" stroke="black" points="69,-368 69,-389 696,-389 696,-368 69,-368"/>
<text text-anchor="start" x="375" y="-374.8" font-family="Times New Roman,serif" font-size="14.00">str</text>
<polygon fill="none" stroke="black" points="0,-347 0,-368 69,-368 69,-347 0,-347"/>
<text text-anchor="start" x="3" y="-353.8" font-family="Times New Roman,serif" font-size="14.00">description</text>
<polygon fill="none" stroke="black" points="69,-347 69,-368 696,-368 696,-347 69,-347"/>
<text text-anchor="start" x="72" y="-353.8" font-family="Times New Roman,serif" font-size="14.00">Optional[Annotated[str, FieldInfo(annotation=NoneType, required=True, metadata=[MinLen(min_length=1)])]]</text>
<polygon fill="none" stroke="black" points="0,-326 0,-347 69,-347 69,-326 0,-326"/>
<text text-anchor="start" x="5.5" y="-332.8" font-family="Times New Roman,serif" font-size="14.00">comments</text>
<polygon fill="none" stroke="black" points="69,-326 69,-347 696,-347 696,-326 69,-326"/>
<text text-anchor="start" x="72" y="-332.8" font-family="Times New Roman,serif" font-size="14.00">Optional[Annotated[str, FieldInfo(annotation=NoneType, required=True, metadata=[MinLen(min_length=1)])]]</text>
<polygon fill="none" stroke="black" points="0,-305 0,-326 69,-326 69,-305 0,-305"/>
<text text-anchor="start" x="16" y="-311.8" font-family="Times New Roman,serif" font-size="14.00">results</text>
<polygon fill="none" stroke="black" points="69,-305 69,-326 696,-326 696,-305 69,-305"/>
<text text-anchor="start" x="319.5" y="-311.8" font-family="Times New Roman,serif" font-size="14.00">WindResourceResults</text>
</a>
</g>
</g>
<!-- eya_def_tools.data_models.wind_resource.WindResourceResults -->
<g id="node5" class="node">
<title>eya_def_tools.data_models.wind_resource.WindResourceResults</title>
<g id="a_node5"><a xlink:title="eya_def_tools.data_models.wind_resource.WindResourceResults&#10;&#10;Wind resource assessment results at measurement locations.&#10;&#10;Attributes:&#10; &#160;&#160;&#160;wind_speed (list[Dataset]): Final long&#45;term wind speed estimates at the measurement location(s) in metre per second.&#10; &#160;&#160;&#160;probability (Optional[list[Dataset]]): Final long&#45;term probability distribution estimates at the measurement location(s), such as wind speed probability distributions or joint wind speed and direction frequency distributions, as dimensionless values. Default is None.&#10; &#160;&#160;&#160;turbulence_intensity (Optional[list[Dataset]]): Final long&#45;term turbulence intensity estimates at the measurement location(s) as dimensionless values. Default is None.&#10; &#160;&#160;&#160;wind_shear_exponent (Optional[list[Dataset]]): Final long&#45;term power law wind shear exponent estimates at the measurement location(s). Default is None.&#10; &#160;&#160;&#160;temperature (Optional[list[Dataset]]): Final long&#45;term temperature estimates at the measurement location(s) in degree C. Default is None.&#10; &#160;&#160;&#160;air_density (Optional[list[Dataset]]): Final long&#45;term air density estimates at the measurement location(s) in kilogram per cubic metre. Default is None.&#10;">
<polygon fill="none" stroke="black" points="804.5,-304 804.5,-325 1063.5,-325 1063.5,-304 804.5,-304"/>
<text text-anchor="start" x="866" y="-311.8" font-family="Times New Roman,serif" font-weight="bold" font-size="14.00">WindResourceResults</text>
<polygon fill="none" stroke="black" points="804.5,-283 804.5,-304 933.5,-304 933.5,-283 804.5,-283"/>
<text text-anchor="start" x="835" y="-289.8" font-family="Times New Roman,serif" font-size="14.00">wind_speed</text>
<polygon fill="none" stroke="black" points="933.5,-283 933.5,-304 1063.5,-304 1063.5,-283 933.5,-283"/>
<text text-anchor="start" x="965" y="-289.8" font-family="Times New Roman,serif" font-size="14.00">list[Dataset]</text>
<polygon fill="none" stroke="black" points="804.5,-262 804.5,-283 933.5,-283 933.5,-262 804.5,-262"/>
<text text-anchor="start" x="838.5" y="-268.8" font-family="Times New Roman,serif" font-size="14.00">probability</text>
<polygon fill="none" stroke="black" points="933.5,-262 933.5,-283 1063.5,-283 1063.5,-262 933.5,-262"/>
<text text-anchor="start" x="936.5" y="-268.8" font-family="Times New Roman,serif" font-size="14.00">Optional[list[Dataset]]</text>
<polygon fill="none" stroke="black" points="804.5,-241 804.5,-262 933.5,-262 933.5,-241 804.5,-241"/>
<text text-anchor="start" x="813" y="-247.8" font-family="Times New Roman,serif" font-size="14.00">turbulence_intensity</text>
<polygon fill="none" stroke="black" points="933.5,-241 933.5,-262 1063.5,-262 1063.5,-241 933.5,-241"/>
<text text-anchor="start" x="936.5" y="-247.8" font-family="Times New Roman,serif" font-size="14.00">Optional[list[Dataset]]</text>
<polygon fill="none" stroke="black" points="804.5,-220 804.5,-241 933.5,-241 933.5,-220 804.5,-220"/>
<text text-anchor="start" x="807.5" y="-226.8" font-family="Times New Roman,serif" font-size="14.00">wind_shear_exponent</text>
<polygon fill="none" stroke="black" points="933.5,-220 933.5,-241 1063.5,-241 1063.5,-220 933.5,-220"/>
<text text-anchor="start" x="936.5" y="-226.8" font-family="Times New Roman,serif" font-size="14.00">Optional[list[Dataset]]</text>
<polygon fill="none" stroke="black" points="804.5,-199 804.5,-220 933.5,-220 933.5,-199 804.5,-199"/>
<text text-anchor="start" x="836" y="-205.8" font-family="Times New Roman,serif" font-size="14.00">temperature</text>
<polygon fill="none" stroke="black" points="933.5,-199 933.5,-220 1063.5,-220 1063.5,-199 933.5,-199"/>
<text text-anchor="start" x="936.5" y="-205.8" font-family="Times New Roman,serif" font-size="14.00">Optional[list[Dataset]]</text>
<polygon fill="none" stroke="black" points="804.5,-178 804.5,-199 933.5,-199 933.5,-178 804.5,-178"/>
<text text-anchor="start" x="838.5" y="-184.8" font-family="Times New Roman,serif" font-size="14.00">air_density</text>
<polygon fill="none" stroke="black" points="933.5,-178 933.5,-199 1063.5,-199 1063.5,-178 933.5,-178"/>
<text text-anchor="start" x="936.5" y="-184.8" font-family="Times New Roman,serif" font-size="14.00">Optional[list[Dataset]]</text>
</a>
</g>
</g>
<!-- eya_def_tools.data_models.wind_resource.WindResourceAssessment&#45;&gt;eya_def_tools.data_models.wind_resource.WindResourceResults -->
<g id="edge3" class="edge">
<title>eya_def_tools.data_models.wind_resource.WindResourceAssessment:e&#45;&gt;eya_def_tools.data_models.wind_resource.WindResourceResults:w</title>
<path fill="none" stroke="black" d="M696,-315C738.75,-315 752.94,-315 789.45,-315"/>
<polyline fill="none" stroke="black" points="804,-315 799,-315"/>
<polygon fill="black" stroke="black" points="798,-310 798,-320 796,-320 796,-310 798,-310"/>
<polyline fill="none" stroke="black" points="799,-315 794,-315"/>
<polygon fill="black" stroke="black" points="793,-310 793,-320 791,-320 791,-310 793,-310"/>
<polyline fill="none" stroke="black" points="794,-315 789,-315"/>
</g>
<!-- eya_def_tools.data_models.wind_resource.WindResourceResults&#45;&gt;eya_def_tools.data_models.dataset.Dataset -->
<g id="edge4" class="edge">
<title>eya_def_tools.data_models.wind_resource.WindResourceResults:e&#45;&gt;eya_def_tools.data_models.dataset.Dataset:w</title>
<path fill="none" stroke="black" d="M1063,-294C1109.37,-294 1116.32,-254.14 1152.22,-243.56"/>
<polygon fill="black" stroke="black" points="1161.09,-242.35 1171.61,-245.46 1166.05,-241.67 1171,-241 1171,-241 1171,-241 1166.05,-241.67 1170.39,-236.54 1161.09,-242.35 1161.09,-242.35"/>
<ellipse fill="none" stroke="black" cx="1156.63" cy="-242.96" rx="4" ry="4"/>
</g>
<!-- eya_def_tools.data_models.wind_resource.WindResourceResults&#45;&gt;eya_def_tools.data_models.dataset.Dataset -->
<g id="edge5" class="edge">
<title>eya_def_tools.data_models.wind_resource.WindResourceResults:e&#45;&gt;eya_def_tools.data_models.dataset.Dataset:w</title>
<path fill="none" stroke="black" d="M1063,-273C1106.02,-273 1117.89,-249.37 1152.15,-242.72"/>
<polyline fill="none" stroke="black" points="1171,-241 1166.02,-241.45"/>
<polygon fill="black" stroke="black" points="1164.57,-236.57 1165.48,-246.52 1163.49,-246.71 1162.58,-236.75 1164.57,-236.57"/>
<polyline fill="none" stroke="black" points="1166.02,-241.45 1161.04,-241.91"/>
<ellipse fill="none" stroke="black" cx="1156.56" cy="-242.32" rx="4" ry="4"/>
</g>
<!-- eya_def_tools.data_models.wind_resource.WindResourceResults&#45;&gt;eya_def_tools.data_models.dataset.Dataset -->
<g id="edge6" class="edge">
<title>eya_def_tools.data_models.wind_resource.WindResourceResults:e&#45;&gt;eya_def_tools.data_models.dataset.Dataset:w</title>
<path fill="none" stroke="black" d="M1063,-251C1104.24,-251 1118.68,-243.68 1152.17,-241.57"/>
<polyline fill="none" stroke="black" points="1171,-241 1166,-241.15"/>
<polygon fill="black" stroke="black" points="1164.85,-236.18 1165.15,-246.18 1163.15,-246.24 1162.85,-236.24 1164.85,-236.18"/>
<polyline fill="none" stroke="black" points="1166,-241.15 1161,-241.3"/>
<ellipse fill="none" stroke="black" cx="1156.51" cy="-241.44" rx="4" ry="4"/>
</g>
<!-- eya_def_tools.data_models.wind_resource.WindResourceResults&#45;&gt;eya_def_tools.data_models.dataset.Dataset -->
<g id="edge7" class="edge">
<title>eya_def_tools.data_models.wind_resource.WindResourceResults:e&#45;&gt;eya_def_tools.data_models.dataset.Dataset:w</title>
<path fill="none" stroke="black" d="M1063,-230C1104.27,-230 1118.66,-238.05 1152.16,-240.38"/>
<polyline fill="none" stroke="black" points="1171,-241 1166,-240.83"/>
<polygon fill="black" stroke="black" points="1165.17,-235.8 1164.84,-245.8 1162.84,-245.73 1163.17,-235.74 1165.17,-235.8"/>
<polyline fill="none" stroke="black" points="1166,-240.83 1161.01,-240.67"/>
<ellipse fill="none" stroke="black" cx="1156.51" cy="-240.52" rx="4" ry="4"/>
</g>
<!-- eya_def_tools.data_models.wind_resource.WindResourceResults&#45;&gt;eya_def_tools.data_models.dataset.Dataset -->
<g id="edge8" class="edge">
<title>eya_def_tools.data_models.wind_resource.WindResourceResults:e&#45;&gt;eya_def_tools.data_models.dataset.Dataset:w</title>
<path fill="none" stroke="black" d="M1063,-209C1106.02,-209 1117.89,-232.63 1152.15,-239.28"/>
<polyline fill="none" stroke="black" points="1171,-241 1166.02,-240.55"/>
<polygon fill="black" stroke="black" points="1165.48,-235.48 1164.57,-245.43 1162.58,-245.25 1163.49,-235.29 1165.48,-235.48"/>
<polyline fill="none" stroke="black" points="1166.02,-240.55 1161.04,-240.09"/>
<ellipse fill="none" stroke="black" cx="1156.56" cy="-239.68" rx="4" ry="4"/>
</g>
<!-- eya_def_tools.data_models.wind_resource.WindResourceResults&#45;&gt;eya_def_tools.data_models.dataset.Dataset -->
<g id="edge9" class="edge">
<title>eya_def_tools.data_models.wind_resource.WindResourceResults:e&#45;&gt;eya_def_tools.data_models.dataset.Dataset:w</title>
<path fill="none" stroke="black" d="M1063,-188C1109.37,-188 1116.32,-227.86 1152.22,-238.44"/>
<polyline fill="none" stroke="black" points="1171,-241 1166.05,-240.33"/>
<polygon fill="black" stroke="black" points="1165.73,-235.24 1164.38,-245.14 1162.4,-244.88 1163.75,-234.97 1165.73,-235.24"/>
<polyline fill="none" stroke="black" points="1166.05,-240.33 1161.09,-239.65"/>
<ellipse fill="none" stroke="black" cx="1156.63" cy="-239.04" rx="4" ry="4"/>
</g>
</g>
</svg>
