<?xml version="1.0" encoding="UTF-8" standalone="no"?>
<!DOCTYPE svg PUBLIC "-//W3C//DTD SVG 1.1//EN"
 "http://www.w3.org/Graphics/SVG/1.1/DTD/svg11.dtd">
<!-- Generated by graphviz version 7.0.4 (20221203.1631)
 -->
<!-- Title: Entity Relationship Diagram Pages: 1 -->
<svg width="1348pt" height="364pt"
 viewBox="0.00 0.00 1348.00 364.00" xmlns="http://www.w3.org/2000/svg" xmlns:xlink="http://www.w3.org/1999/xlink">
<g id="graph0" class="graph" transform="scale(1 1) rotate(0) translate(4 360)">
<title>Entity Relationship Diagram</title>
<polygon fill="white" stroke="none" points="-4,4 -4,-360 1344,-360 1344,4 -4,4"/>
<text text-anchor="middle" x="670" y="-6.8" font-family="Times New Roman,serif" font-size="9.00" fill="#a8a8a8">Created by erdantic v0.5.0 &lt;https://github.com/drivendataorg/erdantic&gt;</text>
<!-- eya_def_tools.data_models.result.Result -->
<g id="node1" class="node">
<title>eya_def_tools.data_models.result.Result</title>
<g id="a_node1"><a xlink:title="eya_def_tools.data_models.result.Result&#10;&#10;Set of results for an element of an energy assessment.&#10;&#10;Attributes:&#10; &#160;&#160;&#160;quantity (Optional[ResultsQuantity(StrEnum)]): The quantity that the set of results describe, where this is not obvious from the context. Default is None.&#10; &#160;&#160;&#160;label (Optional[str]): Label of the results. Default is None.&#10; &#160;&#160;&#160;description (Optional[str]): Description of the data object. Default is None.&#10; &#160;&#160;&#160;comments (Optional[str]): Comments on the data object. Default is None.&#10; &#160;&#160;&#160;assessment_period (Optional[AssessmentPeriod(StrEnum)]): Period of or in time that has been assessed and for which the results are applicable. Default is None.&#10; &#160;&#160;&#160;dimensions (Optional[tuple[ResultsDimension(StrEnum), ...]]): Dimensions along which the results are binned (all result values in the same results object must have the same dimensions). Default is None.&#10; &#160;&#160;&#160;statistics (list[ResultStatistic]): List of result statistic objects that each include result values for a specific statistic type.&#10;">
<polygon fill="none" stroke="black" points="364,-249.5 364,-270.5 754,-270.5 754,-249.5 364,-249.5"/>
<text text-anchor="start" x="539" y="-257.3" font-family="Times New Roman,serif" font-weight="bold" font-size="14.00">Result</text>
<polygon fill="none" stroke="black" points="364,-228.5 364,-249.5 477,-249.5 477,-228.5 364,-228.5"/>
<text text-anchor="start" x="398" y="-235.3" font-family="Times New Roman,serif" font-size="14.00">quantity</text>
<polygon fill="none" stroke="black" points="477,-228.5 477,-249.5 754,-249.5 754,-228.5 477,-228.5"/>
<text text-anchor="start" x="513.5" y="-235.3" font-family="Times New Roman,serif" font-size="14.00">Optional[ResultsQuantity(StrEnum)]</text>
<polygon fill="none" stroke="black" points="364,-207.5 364,-228.5 477,-228.5 477,-207.5 364,-207.5"/>
<text text-anchor="start" x="407.5" y="-214.3" font-family="Times New Roman,serif" font-size="14.00">label</text>
<polygon fill="none" stroke="black" points="477,-207.5 477,-228.5 754,-228.5 754,-207.5 477,-207.5"/>
<text text-anchor="start" x="579.5" y="-214.3" font-family="Times New Roman,serif" font-size="14.00">Optional[str]</text>
<polygon fill="none" stroke="black" points="364,-186.5 364,-207.5 477,-207.5 477,-186.5 364,-186.5"/>
<text text-anchor="start" x="389" y="-193.3" font-family="Times New Roman,serif" font-size="14.00">description</text>
<polygon fill="none" stroke="black" points="477,-186.5 477,-207.5 754,-207.5 754,-186.5 477,-186.5"/>
<text text-anchor="start" x="579.5" y="-193.3" font-family="Times New Roman,serif" font-size="14.00">Optional[str]</text>
<polygon fill="none" stroke="black" points="364,-165.5 364,-186.5 477,-186.5 477,-165.5 364,-165.5"/>
<text text-anchor="start" x="391.5" y="-172.3" font-family="Times New Roman,serif" font-size="14.00">comments</text>
<polygon fill="none" stroke="black" points="477,-165.5 477,-186.5 754,-186.5 754,-165.5 477,-165.5"/>
<text text-anchor="start" x="579.5" y="-172.3" font-family="Times New Roman,serif" font-size="14.00">Optional[str]</text>
<polygon fill="none" stroke="black" points="364,-144.5 364,-165.5 477,-165.5 477,-144.5 364,-144.5"/>
<text text-anchor="start" x="367" y="-151.3" font-family="Times New Roman,serif" font-size="14.00">assessment_period</text>
<polygon fill="none" stroke="black" points="477,-144.5 477,-165.5 754,-165.5 754,-144.5 477,-144.5"/>
<text text-anchor="start" x="506" y="-151.3" font-family="Times New Roman,serif" font-size="14.00">Optional[AssessmentPeriod(StrEnum)]</text>
<polygon fill="none" stroke="black" points="364,-123.5 364,-144.5 477,-144.5 477,-123.5 364,-123.5"/>
<text text-anchor="start" x="388.5" y="-130.3" font-family="Times New Roman,serif" font-size="14.00">dimensions</text>
<polygon fill="none" stroke="black" points="477,-123.5 477,-144.5 754,-144.5 754,-123.5 477,-123.5"/>
<text text-anchor="start" x="480" y="-130.3" font-family="Times New Roman,serif" font-size="14.00">Optional[tuple[ResultsDimension(StrEnum), ...]]</text>
<polygon fill="none" stroke="black" points="364,-102.5 364,-123.5 477,-123.5 477,-102.5 364,-102.5"/>
<text text-anchor="start" x="396" y="-109.3" font-family="Times New Roman,serif" font-size="14.00">statistics</text>
<polygon fill="none" stroke="black" points="477,-102.5 477,-123.5 754,-123.5 754,-102.5 477,-102.5"/>
<text text-anchor="start" x="563" y="-109.3" font-family="Times New Roman,serif" font-size="14.00">list[ResultStatistic]</text>
</a>
</g>
</g>
<!-- eya_def_tools.data_models.result.ResultStatistic -->
<g id="node2" class="node">
<title>eya_def_tools.data_models.result.ResultStatistic</title>
<g id="a_node2"><a xlink:title="eya_def_tools.data_models.result.ResultStatistic&#10;&#10;Result values for one specific statistic type.&#10;&#10;Attributes:&#10; &#160;&#160;&#160;description (Optional[str]): Description of the data object. Default is None.&#10; &#160;&#160;&#160;comments (Optional[str]): Comments on the data object. Default is None.&#10; &#160;&#160;&#160;statistic_type (StatisticType(StrEnum)): Type of statistic in the results component.&#10; &#160;&#160;&#160;values (UnionType[float, list[tuple[tuple[UnionType[float, int, str], ...], float]]]): Result as a single number or values at coordinates.&#10;">
<polygon fill="none" stroke="black" points="862,-101.5 862,-122.5 1340,-122.5 1340,-101.5 862,-101.5"/>
<text text-anchor="start" x="1056.5" y="-109.3" font-family="Times New Roman,serif" font-weight="bold" font-size="14.00">ResultStatistic</text>
<polygon fill="none" stroke="black" points="862,-80.5 862,-101.5 942,-101.5 942,-80.5 862,-80.5"/>
<text text-anchor="start" x="870.5" y="-87.3" font-family="Times New Roman,serif" font-size="14.00">description</text>
<polygon fill="none" stroke="black" points="942,-80.5 942,-101.5 1340,-101.5 1340,-80.5 942,-80.5"/>
<text text-anchor="start" x="1105" y="-87.3" font-family="Times New Roman,serif" font-size="14.00">Optional[str]</text>
<polygon fill="none" stroke="black" points="862,-59.5 862,-80.5 942,-80.5 942,-59.5 862,-59.5"/>
<text text-anchor="start" x="873" y="-66.3" font-family="Times New Roman,serif" font-size="14.00">comments</text>
<polygon fill="none" stroke="black" points="942,-59.5 942,-80.5 1340,-80.5 1340,-59.5 942,-59.5"/>
<text text-anchor="start" x="1105" y="-66.3" font-family="Times New Roman,serif" font-size="14.00">Optional[str]</text>
<polygon fill="none" stroke="black" points="862,-38.5 862,-59.5 942,-59.5 942,-38.5 862,-38.5"/>
<text text-anchor="start" x="865" y="-45.3" font-family="Times New Roman,serif" font-size="14.00">statistic_type</text>
<polygon fill="none" stroke="black" points="942,-38.5 942,-59.5 1340,-59.5 1340,-38.5 942,-38.5"/>
<text text-anchor="start" x="1075" y="-45.3" font-family="Times New Roman,serif" font-size="14.00">StatisticType(StrEnum)</text>
<polygon fill="none" stroke="black" points="862,-17.5 862,-38.5 942,-38.5 942,-17.5 862,-17.5"/>
<text text-anchor="start" x="884.5" y="-24.3" font-family="Times New Roman,serif" font-size="14.00">values</text>
<polygon fill="none" stroke="black" points="942,-17.5 942,-38.5 1340,-38.5 1340,-17.5 942,-17.5"/>
<text text-anchor="start" x="945" y="-24.3" font-family="Times New Roman,serif" font-size="14.00">UnionType[float, list[tuple[tuple[UnionType[float, int, str], ...], float]]]</text>
</a>
</g>
</g>
<!-- eya_def_tools.data_models.result.Result&#45;&gt;eya_def_tools.data_models.result.ResultStatistic -->
<g id="edge1" class="edge">
<title>eya_def_tools.data_models.result.Result:e&#45;&gt;eya_def_tools.data_models.result.ResultStatistic:w</title>
<path fill="none" stroke="black" d="M754,-112.5C795.06,-112.5 809.78,-112.5 843.23,-112.5"/>
<polygon fill="black" stroke="black" points="852,-112.5 862,-117 857,-112.5 862,-112.5 862,-112.5 862,-112.5 857,-112.5 862,-108 852,-112.5 852,-112.5"/>
<ellipse fill="none" stroke="black" cx="847.5" cy="-112.5" rx="4" ry="4"/>
</g>
<!-- eya_def_tools.data_models.wind_resource.WindResourceAssessment -->
<g id="node3" class="node">
<title>eya_def_tools.data_models.wind_resource.WindResourceAssessment</title>
<g id="a_node3"><a xlink:title="eya_def_tools.data_models.wind_resource.WindResourceAssessment&#10;&#10;Wind resource assessment at the measurement location(s).&#10;&#10;Attributes:&#10; &#160;&#160;&#160;wind_resource_assessment_id (str): Unique ID of the wind resource assessment within the EYA DEF document.&#10; &#160;&#160;&#160;description (Optional[str]): Description of the data object. Default is None.&#10; &#160;&#160;&#160;comments (Optional[str]): Comments on the data object. Default is None.&#10; &#160;&#160;&#160;wind_speed_results (list[Result]): Final long&#45;term wind speed estimates from the wind resource assessment at the measurement location(s).&#10;">
<polygon fill="none" stroke="black" points="0,-334.5 0,-355.5 256,-355.5 256,-334.5 0,-334.5"/>
<text text-anchor="start" x="47" y="-342.3" font-family="Times New Roman,serif" font-weight="bold" font-size="14.00">WindResourceAssessment</text>
<polygon fill="none" stroke="black" points="0,-313.5 0,-334.5 178,-334.5 178,-313.5 0,-313.5"/>
<text text-anchor="start" x="3" y="-320.3" font-family="Times New Roman,serif" font-size="14.00">wind_resource_assessment_id</text>
<polygon fill="none" stroke="black" points="178,-313.5 178,-334.5 256,-334.5 256,-313.5 178,-313.5"/>
<text text-anchor="start" x="209.5" y="-320.3" font-family="Times New Roman,serif" font-size="14.00">str</text>
<polygon fill="none" stroke="black" points="0,-292.5 0,-313.5 178,-313.5 178,-292.5 0,-292.5"/>
<text text-anchor="start" x="57.5" y="-299.3" font-family="Times New Roman,serif" font-size="14.00">description</text>
<polygon fill="none" stroke="black" points="178,-292.5 178,-313.5 256,-313.5 256,-292.5 178,-292.5"/>
<text text-anchor="start" x="181" y="-299.3" font-family="Times New Roman,serif" font-size="14.00">Optional[str]</text>
<polygon fill="none" stroke="black" points="0,-271.5 0,-292.5 178,-292.5 178,-271.5 0,-271.5"/>
<text text-anchor="start" x="60" y="-278.3" font-family="Times New Roman,serif" font-size="14.00">comments</text>
<polygon fill="none" stroke="black" points="178,-271.5 178,-292.5 256,-292.5 256,-271.5 178,-271.5"/>
<text text-anchor="start" x="181" y="-278.3" font-family="Times New Roman,serif" font-size="14.00">Optional[str]</text>
<polygon fill="none" stroke="black" points="0,-250.5 0,-271.5 178,-271.5 178,-250.5 0,-250.5"/>
<text text-anchor="start" x="33" y="-257.3" font-family="Times New Roman,serif" font-size="14.00">wind_speed_results</text>
<polygon fill="none" stroke="black" points="178,-250.5 178,-271.5 256,-271.5 256,-250.5 178,-250.5"/>
<text text-anchor="start" x="186.5" y="-257.3" font-family="Times New Roman,serif" font-size="14.00">list[Result]</text>
</a>
</g>
</g>
<!-- eya_def_tools.data_models.wind_resource.WindResourceAssessment&#45;&gt;eya_def_tools.data_models.result.Result -->
<g id="edge2" class="edge">
<title>eya_def_tools.data_models.wind_resource.WindResourceAssessment:e&#45;&gt;eya_def_tools.data_models.result.Result:w</title>
<path fill="none" stroke="black" d="M256,-260.5C297.06,-260.5 311.78,-260.5 345.23,-260.5"/>
<polygon fill="black" stroke="black" points="354,-260.5 364,-265 359,-260.5 364,-260.5 364,-260.5 364,-260.5 359,-260.5 364,-256 354,-260.5 354,-260.5"/>
<ellipse fill="none" stroke="black" cx="349.5" cy="-260.5" rx="4" ry="4"/>
</g>
</g>
</svg>
