<?xml version="1.0" encoding="UTF-8" standalone="no"?>
<!DOCTYPE svg PUBLIC "-//W3C//DTD SVG 1.1//EN"
 "http://www.w3.org/Graphics/SVG/1.1/DTD/svg11.dtd">
<!-- Generated by graphviz version 7.0.4 (20221203.1631)
 -->
<!-- Title: Entity Relationship Diagram Pages: 1 -->
<svg width="1830pt" height="407pt"
 viewBox="0.00 0.00 1830.00 407.00" xmlns="http://www.w3.org/2000/svg" xmlns:xlink="http://www.w3.org/1999/xlink">
<g id="graph0" class="graph" transform="scale(1 1) rotate(0) translate(4 403)">
<title>Entity Relationship Diagram</title>
<polygon fill="white" stroke="none" points="-4,4 -4,-403 1826,-403 1826,4 -4,4"/>
<text text-anchor="middle" x="911" y="-6.8" font-family="Times New Roman,serif" font-size="9.00" fill="#a8a8a8">Created by erdantic v0.5.0 &lt;https://github.com/drivendataorg/erdantic&gt;</text>
<!-- eya_def_tools.data_models.result.Result -->
<g id="node1" class="node">
<title>eya_def_tools.data_models.result.Result</title>
<g id="a_node1"><a xlink:title="eya_def_tools.data_models.result.Result&#10;&#10;Collection of results a quantity along specific dimensions.&#10;&#10;Attributes:&#10; &#160;&#160;&#160;label (Optional[str]): Label of the results. Default is None.&#10; &#160;&#160;&#160;description (Optional[str]): Description of the data object. Default is None.&#10; &#160;&#160;&#160;comments (Optional[str]): Comments on the data object. Default is None.&#10; &#160;&#160;&#160;assessment_period (Optional[AssessmentPeriod(StrEnum)]): Period of or in time that has been assessed and for which the results are applicable. Default is None.&#10; &#160;&#160;&#160;dimensions (Optional[tuple[ResultsDimension(StrEnum), ...]]): Dimensions along which the results are binned (all result values in the same results object must have the same dimensions). Default is None.&#10; &#160;&#160;&#160;statistics (list[ResultStatistic]): List of result statistic objects that each include result values for a specific statistic type.&#10;">
<polygon fill="none" stroke="black" points="846,-228.5 846,-249.5 1236,-249.5 1236,-228.5 846,-228.5"/>
<text text-anchor="start" x="1021" y="-236.3" font-family="Times New Roman,serif" font-weight="bold" font-size="14.00">Result</text>
<polygon fill="none" stroke="black" points="846,-207.5 846,-228.5 959,-228.5 959,-207.5 846,-207.5"/>
<text text-anchor="start" x="889.5" y="-214.3" font-family="Times New Roman,serif" font-size="14.00">label</text>
<polygon fill="none" stroke="black" points="959,-207.5 959,-228.5 1236,-228.5 1236,-207.5 959,-207.5"/>
<text text-anchor="start" x="1061.5" y="-214.3" font-family="Times New Roman,serif" font-size="14.00">Optional[str]</text>
<polygon fill="none" stroke="black" points="846,-186.5 846,-207.5 959,-207.5 959,-186.5 846,-186.5"/>
<text text-anchor="start" x="871" y="-193.3" font-family="Times New Roman,serif" font-size="14.00">description</text>
<polygon fill="none" stroke="black" points="959,-186.5 959,-207.5 1236,-207.5 1236,-186.5 959,-186.5"/>
<text text-anchor="start" x="1061.5" y="-193.3" font-family="Times New Roman,serif" font-size="14.00">Optional[str]</text>
<polygon fill="none" stroke="black" points="846,-165.5 846,-186.5 959,-186.5 959,-165.5 846,-165.5"/>
<text text-anchor="start" x="873.5" y="-172.3" font-family="Times New Roman,serif" font-size="14.00">comments</text>
<polygon fill="none" stroke="black" points="959,-165.5 959,-186.5 1236,-186.5 1236,-165.5 959,-165.5"/>
<text text-anchor="start" x="1061.5" y="-172.3" font-family="Times New Roman,serif" font-size="14.00">Optional[str]</text>
<polygon fill="none" stroke="black" points="846,-144.5 846,-165.5 959,-165.5 959,-144.5 846,-144.5"/>
<text text-anchor="start" x="849" y="-151.3" font-family="Times New Roman,serif" font-size="14.00">assessment_period</text>
<polygon fill="none" stroke="black" points="959,-144.5 959,-165.5 1236,-165.5 1236,-144.5 959,-144.5"/>
<text text-anchor="start" x="988" y="-151.3" font-family="Times New Roman,serif" font-size="14.00">Optional[AssessmentPeriod(StrEnum)]</text>
<polygon fill="none" stroke="black" points="846,-123.5 846,-144.5 959,-144.5 959,-123.5 846,-123.5"/>
<text text-anchor="start" x="870.5" y="-130.3" font-family="Times New Roman,serif" font-size="14.00">dimensions</text>
<polygon fill="none" stroke="black" points="959,-123.5 959,-144.5 1236,-144.5 1236,-123.5 959,-123.5"/>
<text text-anchor="start" x="962" y="-130.3" font-family="Times New Roman,serif" font-size="14.00">Optional[tuple[ResultsDimension(StrEnum), ...]]</text>
<polygon fill="none" stroke="black" points="846,-102.5 846,-123.5 959,-123.5 959,-102.5 846,-102.5"/>
<text text-anchor="start" x="878" y="-109.3" font-family="Times New Roman,serif" font-size="14.00">statistics</text>
<polygon fill="none" stroke="black" points="959,-102.5 959,-123.5 1236,-123.5 1236,-102.5 959,-102.5"/>
<text text-anchor="start" x="1045" y="-109.3" font-family="Times New Roman,serif" font-size="14.00">list[ResultStatistic]</text>
</a>
</g>
</g>
<!-- eya_def_tools.data_models.result.ResultStatistic -->
<g id="node2" class="node">
<title>eya_def_tools.data_models.result.ResultStatistic</title>
<g id="a_node2"><a xlink:title="eya_def_tools.data_models.result.ResultStatistic&#10;&#10;Result values for one specific statistic type.&#10;&#10;Attributes:&#10; &#160;&#160;&#160;description (Optional[str]): Description of the data object. Default is None.&#10; &#160;&#160;&#160;comments (Optional[str]): Comments on the data object. Default is None.&#10; &#160;&#160;&#160;statistic_type (StatisticType(StrEnum)): Type of statistic in the results component.&#10; &#160;&#160;&#160;values (UnionType[float, list[tuple[tuple[UnionType[float, int, str], ...], float]]]): Result as a single number or values at coordinates.&#10;">
<polygon fill="none" stroke="black" points="1344,-101.5 1344,-122.5 1822,-122.5 1822,-101.5 1344,-101.5"/>
<text text-anchor="start" x="1538.5" y="-109.3" font-family="Times New Roman,serif" font-weight="bold" font-size="14.00">ResultStatistic</text>
<polygon fill="none" stroke="black" points="1344,-80.5 1344,-101.5 1424,-101.5 1424,-80.5 1344,-80.5"/>
<text text-anchor="start" x="1352.5" y="-87.3" font-family="Times New Roman,serif" font-size="14.00">description</text>
<polygon fill="none" stroke="black" points="1424,-80.5 1424,-101.5 1822,-101.5 1822,-80.5 1424,-80.5"/>
<text text-anchor="start" x="1587" y="-87.3" font-family="Times New Roman,serif" font-size="14.00">Optional[str]</text>
<polygon fill="none" stroke="black" points="1344,-59.5 1344,-80.5 1424,-80.5 1424,-59.5 1344,-59.5"/>
<text text-anchor="start" x="1355" y="-66.3" font-family="Times New Roman,serif" font-size="14.00">comments</text>
<polygon fill="none" stroke="black" points="1424,-59.5 1424,-80.5 1822,-80.5 1822,-59.5 1424,-59.5"/>
<text text-anchor="start" x="1587" y="-66.3" font-family="Times New Roman,serif" font-size="14.00">Optional[str]</text>
<polygon fill="none" stroke="black" points="1344,-38.5 1344,-59.5 1424,-59.5 1424,-38.5 1344,-38.5"/>
<text text-anchor="start" x="1347" y="-45.3" font-family="Times New Roman,serif" font-size="14.00">statistic_type</text>
<polygon fill="none" stroke="black" points="1424,-38.5 1424,-59.5 1822,-59.5 1822,-38.5 1424,-38.5"/>
<text text-anchor="start" x="1557" y="-45.3" font-family="Times New Roman,serif" font-size="14.00">StatisticType(StrEnum)</text>
<polygon fill="none" stroke="black" points="1344,-17.5 1344,-38.5 1424,-38.5 1424,-17.5 1344,-17.5"/>
<text text-anchor="start" x="1366.5" y="-24.3" font-family="Times New Roman,serif" font-size="14.00">values</text>
<polygon fill="none" stroke="black" points="1424,-17.5 1424,-38.5 1822,-38.5 1822,-17.5 1424,-17.5"/>
<text text-anchor="start" x="1427" y="-24.3" font-family="Times New Roman,serif" font-size="14.00">UnionType[float, list[tuple[tuple[UnionType[float, int, str], ...], float]]]</text>
</a>
</g>
</g>
<!-- eya_def_tools.data_models.result.Result&#45;&gt;eya_def_tools.data_models.result.ResultStatistic -->
<g id="edge1" class="edge">
<title>eya_def_tools.data_models.result.Result:e&#45;&gt;eya_def_tools.data_models.result.ResultStatistic:w</title>
<path fill="none" stroke="black" d="M1236,-112.5C1277.06,-112.5 1291.78,-112.5 1325.23,-112.5"/>
<polygon fill="black" stroke="black" points="1334,-112.5 1344,-117 1339,-112.5 1344,-112.5 1344,-112.5 1344,-112.5 1339,-112.5 1344,-108 1334,-112.5 1334,-112.5"/>
<ellipse fill="none" stroke="black" cx="1329.5" cy="-112.5" rx="4" ry="4"/>
</g>
<!-- eya_def_tools.data_models.wind_resource.WindResourceAssessment -->
<g id="node3" class="node">
<title>eya_def_tools.data_models.wind_resource.WindResourceAssessment</title>
<g id="a_node3"><a xlink:title="eya_def_tools.data_models.wind_resource.WindResourceAssessment&#10;&#10;Wind resource assessment at the measurement location(s).&#10;&#10;Attributes:&#10; &#160;&#160;&#160;wind_resource_assessment_id (str): Unique ID of the wind resource assessment within the EYA DEF document.&#10; &#160;&#160;&#160;description (Optional[str]): Description of the data object. Default is None.&#10; &#160;&#160;&#160;comments (Optional[str]): Comments on the data object. Default is None.&#10; &#160;&#160;&#160;results (WindResourceAssessmentResults): Results of the wind resource assessment at the measurement location(s).&#10;">
<polygon fill="none" stroke="black" points="0.5,-377.5 0.5,-398.5 377.5,-398.5 377.5,-377.5 0.5,-377.5"/>
<text text-anchor="start" x="108" y="-385.3" font-family="Times New Roman,serif" font-weight="bold" font-size="14.00">WindResourceAssessment</text>
<polygon fill="none" stroke="black" points="0.5,-356.5 0.5,-377.5 178.5,-377.5 178.5,-356.5 0.5,-356.5"/>
<text text-anchor="start" x="3.5" y="-363.3" font-family="Times New Roman,serif" font-size="14.00">wind_resource_assessment_id</text>
<polygon fill="none" stroke="black" points="178.5,-356.5 178.5,-377.5 377.5,-377.5 377.5,-356.5 178.5,-356.5"/>
<text text-anchor="start" x="270.5" y="-363.3" font-family="Times New Roman,serif" font-size="14.00">str</text>
<polygon fill="none" stroke="black" points="0.5,-335.5 0.5,-356.5 178.5,-356.5 178.5,-335.5 0.5,-335.5"/>
<text text-anchor="start" x="58" y="-342.3" font-family="Times New Roman,serif" font-size="14.00">description</text>
<polygon fill="none" stroke="black" points="178.5,-335.5 178.5,-356.5 377.5,-356.5 377.5,-335.5 178.5,-335.5"/>
<text text-anchor="start" x="242" y="-342.3" font-family="Times New Roman,serif" font-size="14.00">Optional[str]</text>
<polygon fill="none" stroke="black" points="0.5,-314.5 0.5,-335.5 178.5,-335.5 178.5,-314.5 0.5,-314.5"/>
<text text-anchor="start" x="60.5" y="-321.3" font-family="Times New Roman,serif" font-size="14.00">comments</text>
<polygon fill="none" stroke="black" points="178.5,-314.5 178.5,-335.5 377.5,-335.5 377.5,-314.5 178.5,-314.5"/>
<text text-anchor="start" x="242" y="-321.3" font-family="Times New Roman,serif" font-size="14.00">Optional[str]</text>
<polygon fill="none" stroke="black" points="0.5,-293.5 0.5,-314.5 178.5,-314.5 178.5,-293.5 0.5,-293.5"/>
<text text-anchor="start" x="71" y="-300.3" font-family="Times New Roman,serif" font-size="14.00">results</text>
<polygon fill="none" stroke="black" points="178.5,-293.5 178.5,-314.5 377.5,-314.5 377.5,-293.5 178.5,-293.5"/>
<text text-anchor="start" x="181.5" y="-300.3" font-family="Times New Roman,serif" font-size="14.00">WindResourceAssessmentResults</text>
</a>
</g>
</g>
<!-- eya_def_tools.data_models.wind_resource.WindResourceAssessmentResults -->
<g id="node4" class="node">
<title>eya_def_tools.data_models.wind_resource.WindResourceAssessmentResults</title>
<g id="a_node4"><a xlink:title="eya_def_tools.data_models.wind_resource.WindResourceAssessmentResults&#10;&#10;Wind resource assessment results at measurement locations.&#10;&#10;Attributes:&#10; &#160;&#160;&#160;wind_speed (list[Result]): Final long&#45;term wind speed estimates at the measurement location(s).&#10; &#160;&#160;&#160;probability (Optional[list[Result]]): Final long&#45;term probability distribution estimates at the measurement location(s), such as wind speed probability distributions or joint wind speed and direction frequency distributions. Default is None.&#10; &#160;&#160;&#160;wind_shear_exponent (Optional[list[Result]]): Final long&#45;term power law wind shear exponent estimates at the measurement location(s). Default is None.&#10; &#160;&#160;&#160;temperature (Optional[list[Result]]): Final long&#45;term temperature estimates at the measurement location(s). Default is None.&#10; &#160;&#160;&#160;air_density (Optional[list[Result]]): Final long&#45;term air density estimates at the measurement location(s). Default is None.&#10;">
<polygon fill="none" stroke="black" points="485.5,-292.5 485.5,-313.5 738.5,-313.5 738.5,-292.5 485.5,-292.5"/>
<text text-anchor="start" x="508.5" y="-300.3" font-family="Times New Roman,serif" font-weight="bold" font-size="14.00">WindResourceAssessmentResults</text>
<polygon fill="none" stroke="black" points="485.5,-271.5 485.5,-292.5 614.5,-292.5 614.5,-271.5 485.5,-271.5"/>
<text text-anchor="start" x="516" y="-278.3" font-family="Times New Roman,serif" font-size="14.00">wind_speed</text>
<polygon fill="none" stroke="black" points="614.5,-271.5 614.5,-292.5 738.5,-292.5 738.5,-271.5 614.5,-271.5"/>
<text text-anchor="start" x="646" y="-278.3" font-family="Times New Roman,serif" font-size="14.00">list[Result]</text>
<polygon fill="none" stroke="black" points="485.5,-250.5 485.5,-271.5 614.5,-271.5 614.5,-250.5 485.5,-250.5"/>
<text text-anchor="start" x="519.5" y="-257.3" font-family="Times New Roman,serif" font-size="14.00">probability</text>
<polygon fill="none" stroke="black" points="614.5,-250.5 614.5,-271.5 738.5,-271.5 738.5,-250.5 614.5,-250.5"/>
<text text-anchor="start" x="617.5" y="-257.3" font-family="Times New Roman,serif" font-size="14.00">Optional[list[Result]]</text>
<polygon fill="none" stroke="black" points="485.5,-229.5 485.5,-250.5 614.5,-250.5 614.5,-229.5 485.5,-229.5"/>
<text text-anchor="start" x="488.5" y="-236.3" font-family="Times New Roman,serif" font-size="14.00">wind_shear_exponent</text>
<polygon fill="none" stroke="black" points="614.5,-229.5 614.5,-250.5 738.5,-250.5 738.5,-229.5 614.5,-229.5"/>
<text text-anchor="start" x="617.5" y="-236.3" font-family="Times New Roman,serif" font-size="14.00">Optional[list[Result]]</text>
<polygon fill="none" stroke="black" points="485.5,-208.5 485.5,-229.5 614.5,-229.5 614.5,-208.5 485.5,-208.5"/>
<text text-anchor="start" x="517" y="-215.3" font-family="Times New Roman,serif" font-size="14.00">temperature</text>
<polygon fill="none" stroke="black" points="614.5,-208.5 614.5,-229.5 738.5,-229.5 738.5,-208.5 614.5,-208.5"/>
<text text-anchor="start" x="617.5" y="-215.3" font-family="Times New Roman,serif" font-size="14.00">Optional[list[Result]]</text>
<polygon fill="none" stroke="black" points="485.5,-187.5 485.5,-208.5 614.5,-208.5 614.5,-187.5 485.5,-187.5"/>
<text text-anchor="start" x="519.5" y="-194.3" font-family="Times New Roman,serif" font-size="14.00">air_density</text>
<polygon fill="none" stroke="black" points="614.5,-187.5 614.5,-208.5 738.5,-208.5 738.5,-187.5 614.5,-187.5"/>
<text text-anchor="start" x="617.5" y="-194.3" font-family="Times New Roman,serif" font-size="14.00">Optional[list[Result]]</text>
</a>
</g>
</g>
<!-- eya_def_tools.data_models.wind_resource.WindResourceAssessment&#45;&gt;eya_def_tools.data_models.wind_resource.WindResourceAssessmentResults -->
<g id="edge2" class="edge">
<title>eya_def_tools.data_models.wind_resource.WindResourceAssessment:e&#45;&gt;eya_def_tools.data_models.wind_resource.WindResourceAssessmentResults:w</title>
<path fill="none" stroke="black" d="M377,-303.5C419.75,-303.5 433.94,-303.5 470.45,-303.5"/>
<polyline fill="none" stroke="black" points="485,-303.5 480,-303.5"/>
<polygon fill="black" stroke="black" points="479,-298.5 479,-308.5 477,-308.5 477,-298.5 479,-298.5"/>
<polyline fill="none" stroke="black" points="480,-303.5 475,-303.5"/>
<polygon fill="black" stroke="black" points="474,-298.5 474,-308.5 472,-308.5 472,-298.5 474,-298.5"/>
<polyline fill="none" stroke="black" points="475,-303.5 470,-303.5"/>
</g>
<!-- eya_def_tools.data_models.wind_resource.WindResourceAssessmentResults&#45;&gt;eya_def_tools.data_models.result.Result -->
<g id="edge3" class="edge">
<title>eya_def_tools.data_models.wind_resource.WindResourceAssessmentResults:e&#45;&gt;eya_def_tools.data_models.result.Result:w</title>
<path fill="none" stroke="black" d="M738,-282.5C782.6,-282.5 792.18,-250.45 827.2,-241.69"/>
<polygon fill="black" stroke="black" points="836.07,-240.66 846.52,-243.97 841.03,-240.08 846,-239.5 846,-239.5 846,-239.5 841.03,-240.08 845.48,-235.03 836.07,-240.66 836.07,-240.66"/>
<ellipse fill="none" stroke="black" cx="831.6" cy="-241.18" rx="4" ry="4"/>
</g>
<!-- eya_def_tools.data_models.wind_resource.WindResourceAssessmentResults&#45;&gt;eya_def_tools.data_models.result.Result -->
<g id="edge4" class="edge">
<title>eya_def_tools.data_models.wind_resource.WindResourceAssessmentResults:e&#45;&gt;eya_def_tools.data_models.result.Result:w</title>
<path fill="none" stroke="black" d="M738,-261.5C780.1,-261.5 793.42,-245.25 827.43,-240.68"/>
<polygon fill="black" stroke="black" points="836.02,-240.14 846.29,-243.99 841.01,-239.82 846,-239.5 846,-239.5 846,-239.5 841.01,-239.82 845.71,-235.01 836.02,-240.14 836.02,-240.14"/>
<ellipse fill="none" stroke="black" cx="831.53" cy="-240.42" rx="4" ry="4"/>
</g>
<!-- eya_def_tools.data_models.wind_resource.WindResourceAssessmentResults&#45;&gt;eya_def_tools.data_models.result.Result -->
<g id="edge5" class="edge">
<title>eya_def_tools.data_models.wind_resource.WindResourceAssessmentResults:e&#45;&gt;eya_def_tools.data_models.result.Result:w</title>
<path fill="none" stroke="black" d="M738,-239.5C779.06,-239.5 793.78,-239.5 827.23,-239.5"/>
<polygon fill="black" stroke="black" points="836,-239.5 846,-244 841,-239.5 846,-239.5 846,-239.5 846,-239.5 841,-239.5 846,-235 836,-239.5 836,-239.5"/>
<ellipse fill="none" stroke="black" cx="831.5" cy="-239.5" rx="4" ry="4"/>
</g>
<!-- eya_def_tools.data_models.wind_resource.WindResourceAssessmentResults&#45;&gt;eya_def_tools.data_models.result.Result -->
<g id="edge6" class="edge">
<title>eya_def_tools.data_models.wind_resource.WindResourceAssessmentResults:e&#45;&gt;eya_def_tools.data_models.result.Result:w</title>
<path fill="none" stroke="black" d="M738,-218.5C780.02,-218.5 793.47,-234.01 827.45,-238.37"/>
<polygon fill="black" stroke="black" points="836.02,-238.89 845.73,-243.99 841.01,-239.2 846,-239.5 846,-239.5 846,-239.5 841.01,-239.2 846.27,-235.01 836.02,-238.89 836.02,-238.89"/>
<ellipse fill="none" stroke="black" cx="831.53" cy="-238.62" rx="4" ry="4"/>
</g>
<!-- eya_def_tools.data_models.wind_resource.WindResourceAssessmentResults&#45;&gt;eya_def_tools.data_models.result.Result -->
<g id="edge7" class="edge">
<title>eya_def_tools.data_models.wind_resource.WindResourceAssessmentResults:e&#45;&gt;eya_def_tools.data_models.result.Result:w</title>
<path fill="none" stroke="black" d="M738,-197.5C782.46,-197.5 792.26,-228.8 827.25,-237.36"/>
<polygon fill="black" stroke="black" points="836.06,-238.37 845.49,-243.97 841.03,-238.93 846,-239.5 846,-239.5 846,-239.5 841.03,-238.93 846.51,-235.03 836.06,-238.37 836.06,-238.37"/>
<ellipse fill="none" stroke="black" cx="831.59" cy="-237.86" rx="4" ry="4"/>
</g>
</g>
</svg>
