<?xml version="1.0" encoding="UTF-8" standalone="no"?>
<!DOCTYPE svg PUBLIC "-//W3C//DTD SVG 1.1//EN"
 "http://www.w3.org/Graphics/SVG/1.1/DTD/svg11.dtd">
<!-- Generated by graphviz version 7.0.4 (20221203.1631)
 -->
<!-- Title: Entity Relationship Diagram Pages: 1 -->
<svg width="2530pt" height="416pt"
 viewBox="0.00 0.00 2530.00 415.50" xmlns="http://www.w3.org/2000/svg" xmlns:xlink="http://www.w3.org/1999/xlink">
<g id="graph0" class="graph" transform="scale(1 1) rotate(0) translate(4 411.5)">
<title>Entity Relationship Diagram</title>
<polygon fill="white" stroke="none" points="-4,4 -4,-411.5 2526,-411.5 2526,4 -4,4"/>
<text text-anchor="middle" x="1261" y="-6.8" font-family="Times New Roman,serif" font-size="9.00" fill="#a8a8a8">Created by erdantic v0.6.0 &lt;https://github.com/drivendataorg/erdantic&gt;</text>
<!-- eya_def_tools.data_models.spatial.Location -->
<g id="node1" class="node">
<title>eya_def_tools.data_models.spatial.Location</title>
<g id="a_node1"><a xlink:title="eya_def_tools.data_models.spatial.Location&#10;&#10;Specification of a horizontal location in space.&#10;&#10;Attributes:&#10; &#160;&#160;&#160;x (float): Location x&#45;coordinate (typically easing).&#10; &#160;&#160;&#160;y (float): Location y&#45;coordinate (typically northing).&#10;">
<polygon fill="none" stroke="black" points="2144,-240 2144,-261 2205,-261 2205,-240 2144,-240"/>
<text text-anchor="start" x="2147" y="-247.8" font-family="Times New Roman,serif" font-weight="bold" font-size="14.00">Location</text>
<polygon fill="none" stroke="black" points="2144,-219 2144,-240 2165,-240 2165,-219 2144,-219"/>
<text text-anchor="start" x="2151" y="-225.8" font-family="Times New Roman,serif" font-size="14.00">x</text>
<polygon fill="none" stroke="black" points="2165,-219 2165,-240 2205,-240 2205,-219 2165,-219"/>
<text text-anchor="start" x="2172.5" y="-225.8" font-family="Times New Roman,serif" font-size="14.00">float</text>
<polygon fill="none" stroke="black" points="2144,-198 2144,-219 2165,-219 2165,-198 2144,-198"/>
<text text-anchor="start" x="2151" y="-204.8" font-family="Times New Roman,serif" font-size="14.00">y</text>
<polygon fill="none" stroke="black" points="2165,-198 2165,-219 2205,-219 2205,-198 2165,-198"/>
<text text-anchor="start" x="2172.5" y="-204.8" font-family="Times New Roman,serif" font-size="14.00">float</text>
</a>
</g>
</g>
<!-- eya_def_tools.data_models.wind_farm.OperationalRestriction -->
<g id="node2" class="node">
<title>eya_def_tools.data_models.wind_farm.OperationalRestriction</title>
<g id="a_node2"><a xlink:title="eya_def_tools.data_models.wind_farm.OperationalRestriction&#10;&#10;Specifications of a restriction that limits power output.&#10;&#10;In the current draft of the schema, &#39;label&#39;, &#39;description&#39; and&#10;&#39;comments&#39; fields are available to describe the restriction with&#10;free text. This is intended to be expanded into a more comprehensive&#10;data model.&#10;&#10;Attributes:&#10; &#160;&#160;&#160;label (str): Short label to indicate the type of operational restriction.&#10; &#160;&#160;&#160;description (str): Description of the operational restriction.&#10; &#160;&#160;&#160;comments (Optional[Annotated[str, FieldInfo(annotation=NoneType, required=True, metadata=[MinLen(min_length=1)])]]): Optional comments on the operational restriction, which should not be empty if the field is included. Default is None.&#10;">
<polygon fill="none" stroke="black" points="1826,-81 1826,-102 2522,-102 2522,-81 1826,-81"/>
<text text-anchor="start" x="2103" y="-88.8" font-family="Times New Roman,serif" font-weight="bold" font-size="14.00">OperationalRestriction</text>
<polygon fill="none" stroke="black" points="1826,-60 1826,-81 1895,-81 1895,-60 1826,-60"/>
<text text-anchor="start" x="1847.5" y="-66.8" font-family="Times New Roman,serif" font-size="14.00">label</text>
<polygon fill="none" stroke="black" points="1895,-60 1895,-81 2522,-81 2522,-60 1895,-60"/>
<text text-anchor="start" x="2201" y="-66.8" font-family="Times New Roman,serif" font-size="14.00">str</text>
<polygon fill="none" stroke="black" points="1826,-39 1826,-60 1895,-60 1895,-39 1826,-39"/>
<text text-anchor="start" x="1829" y="-45.8" font-family="Times New Roman,serif" font-size="14.00">description</text>
<polygon fill="none" stroke="black" points="1895,-39 1895,-60 2522,-60 2522,-39 1895,-39"/>
<text text-anchor="start" x="2201" y="-45.8" font-family="Times New Roman,serif" font-size="14.00">str</text>
<polygon fill="none" stroke="black" points="1826,-18 1826,-39 1895,-39 1895,-18 1826,-18"/>
<text text-anchor="start" x="1831.5" y="-24.8" font-family="Times New Roman,serif" font-size="14.00">comments</text>
<polygon fill="none" stroke="black" points="1895,-18 1895,-39 2522,-39 2522,-18 1895,-18"/>
<text text-anchor="start" x="1898" y="-24.8" font-family="Times New Roman,serif" font-size="14.00">Optional[Annotated[str, FieldInfo(annotation=NoneType, required=True, metadata=[MinLen(min_length=1)])]]</text>
</a>
</g>
</g>
<!-- eya_def_tools.data_models.wind_farm.TurbineConfiguration -->
<g id="node3" class="node">
<title>eya_def_tools.data_models.wind_farm.TurbineConfiguration</title>
<g id="a_node3"><a xlink:title="eya_def_tools.data_models.wind_farm.TurbineConfiguration&#10;&#10;Specification of all details for a turbine configuration.&#10;&#10;Attributes:&#10; &#160;&#160;&#160;id (str): Unique identifier of the turbine.&#10; &#160;&#160;&#160;label (Optional[Annotated[str, FieldInfo(annotation=NoneType, required=True, metadata=[MinLen(min_length=1)])]]): Label of the turbine, if different from the &#39;id&#39;. Default is None.&#10; &#160;&#160;&#160;description (Optional[Annotated[str, FieldInfo(annotation=NoneType, required=True, metadata=[MinLen(min_length=1)])]]): Optional description of the turbine, which should not be empty if the field is included. Default is None.&#10; &#160;&#160;&#160;comments (Optional[Annotated[str, FieldInfo(annotation=NoneType, required=True, metadata=[MinLen(min_length=1)])]]): Optional comments on the turbine, which should not be empty if the field is included. Default is None.&#10; &#160;&#160;&#160;location (Location): The horizontal spatial location of the turbine.&#10; &#160;&#160;&#160;ground_level_altitude (float): The ground level altitude (base elevation) of the turbine (in m).&#10; &#160;&#160;&#160;hub_height (float): The hub height of the turbine (in m).&#10; &#160;&#160;&#160;turbine_model_id (str): Unique identifier of the turbine model.&#10; &#160;&#160;&#160;operational_lifetime_start_date (Optional[date]): Optional operational lifetime start date of the individual turbine in the ISO 8601 standard format for a calendar date, i.e. YYYY&#45;MM&#45;DD. Default is None.&#10; &#160;&#160;&#160;operational_lifetime_end_date (Optional[date]): Optional operational lifetime end date of the individual turbine in the ISO 8601 standard format for a calendar date, i.e. YYYY&#45;MM&#45;DD. Default is None.&#10; &#160;&#160;&#160;restrictions (Optional[list[OperationalRestriction]]): List of operational restrictions at the turbine level. Default is None.&#10;">
<polygon fill="none" stroke="black" points="913.5,-345 913.5,-366 1718.5,-366 1718.5,-345 913.5,-345"/>
<text text-anchor="start" x="1248.5" y="-352.8" font-family="Times New Roman,serif" font-weight="bold" font-size="14.00">TurbineConfiguration</text>
<polygon fill="none" stroke="black" points="913.5,-324 913.5,-345 1091.5,-345 1091.5,-324 913.5,-324"/>
<text text-anchor="start" x="997" y="-330.8" font-family="Times New Roman,serif" font-size="14.00">id</text>
<polygon fill="none" stroke="black" points="1091.5,-324 1091.5,-345 1718.5,-345 1718.5,-324 1091.5,-324"/>
<text text-anchor="start" x="1397.5" y="-330.8" font-family="Times New Roman,serif" font-size="14.00">str</text>
<polygon fill="none" stroke="black" points="913.5,-303 913.5,-324 1091.5,-324 1091.5,-303 913.5,-303"/>
<text text-anchor="start" x="989.5" y="-309.8" font-family="Times New Roman,serif" font-size="14.00">label</text>
<polygon fill="none" stroke="black" points="1091.5,-303 1091.5,-324 1718.5,-324 1718.5,-303 1091.5,-303"/>
<text text-anchor="start" x="1094.5" y="-309.8" font-family="Times New Roman,serif" font-size="14.00">Optional[Annotated[str, FieldInfo(annotation=NoneType, required=True, metadata=[MinLen(min_length=1)])]]</text>
<polygon fill="none" stroke="black" points="913.5,-282 913.5,-303 1091.5,-303 1091.5,-282 913.5,-282"/>
<text text-anchor="start" x="971" y="-288.8" font-family="Times New Roman,serif" font-size="14.00">description</text>
<polygon fill="none" stroke="black" points="1091.5,-282 1091.5,-303 1718.5,-303 1718.5,-282 1091.5,-282"/>
<text text-anchor="start" x="1094.5" y="-288.8" font-family="Times New Roman,serif" font-size="14.00">Optional[Annotated[str, FieldInfo(annotation=NoneType, required=True, metadata=[MinLen(min_length=1)])]]</text>
<polygon fill="none" stroke="black" points="913.5,-261 913.5,-282 1091.5,-282 1091.5,-261 913.5,-261"/>
<text text-anchor="start" x="973.5" y="-267.8" font-family="Times New Roman,serif" font-size="14.00">comments</text>
<polygon fill="none" stroke="black" points="1091.5,-261 1091.5,-282 1718.5,-282 1718.5,-261 1091.5,-261"/>
<text text-anchor="start" x="1094.5" y="-267.8" font-family="Times New Roman,serif" font-size="14.00">Optional[Annotated[str, FieldInfo(annotation=NoneType, required=True, metadata=[MinLen(min_length=1)])]]</text>
<polygon fill="none" stroke="black" points="913.5,-240 913.5,-261 1091.5,-261 1091.5,-240 913.5,-240"/>
<text text-anchor="start" x="980" y="-246.8" font-family="Times New Roman,serif" font-size="14.00">location</text>
<polygon fill="none" stroke="black" points="1091.5,-240 1091.5,-261 1718.5,-261 1718.5,-240 1091.5,-240"/>
<text text-anchor="start" x="1380" y="-246.8" font-family="Times New Roman,serif" font-size="14.00">Location</text>
<polygon fill="none" stroke="black" points="913.5,-219 913.5,-240 1091.5,-240 1091.5,-219 913.5,-219"/>
<text text-anchor="start" x="942.5" y="-225.8" font-family="Times New Roman,serif" font-size="14.00">ground_level_altitude</text>
<polygon fill="none" stroke="black" points="1091.5,-219 1091.5,-240 1718.5,-240 1718.5,-219 1091.5,-219"/>
<text text-anchor="start" x="1392.5" y="-225.8" font-family="Times New Roman,serif" font-size="14.00">float</text>
<polygon fill="none" stroke="black" points="913.5,-198 913.5,-219 1091.5,-219 1091.5,-198 913.5,-198"/>
<text text-anchor="start" x="971.5" y="-204.8" font-family="Times New Roman,serif" font-size="14.00">hub_height</text>
<polygon fill="none" stroke="black" points="1091.5,-198 1091.5,-219 1718.5,-219 1718.5,-198 1091.5,-198"/>
<text text-anchor="start" x="1392.5" y="-204.8" font-family="Times New Roman,serif" font-size="14.00">float</text>
<polygon fill="none" stroke="black" points="913.5,-177 913.5,-198 1091.5,-198 1091.5,-177 913.5,-177"/>
<text text-anchor="start" x="953" y="-183.8" font-family="Times New Roman,serif" font-size="14.00">turbine_model_id</text>
<polygon fill="none" stroke="black" points="1091.5,-177 1091.5,-198 1718.5,-198 1718.5,-177 1091.5,-177"/>
<text text-anchor="start" x="1397.5" y="-183.8" font-family="Times New Roman,serif" font-size="14.00">str</text>
<polygon fill="none" stroke="black" points="913.5,-156 913.5,-177 1091.5,-177 1091.5,-156 913.5,-156"/>
<text text-anchor="start" x="916.5" y="-162.8" font-family="Times New Roman,serif" font-size="14.00">operational_lifetime_start_date</text>
<polygon fill="none" stroke="black" points="1091.5,-156 1091.5,-177 1718.5,-177 1718.5,-156 1091.5,-156"/>
<text text-anchor="start" x="1364.5" y="-162.8" font-family="Times New Roman,serif" font-size="14.00">Optional[date]</text>
<polygon fill="none" stroke="black" points="913.5,-135 913.5,-156 1091.5,-156 1091.5,-135 913.5,-135"/>
<text text-anchor="start" x="918.5" y="-141.8" font-family="Times New Roman,serif" font-size="14.00">operational_lifetime_end_date</text>
<polygon fill="none" stroke="black" points="1091.5,-135 1091.5,-156 1718.5,-156 1718.5,-135 1091.5,-135"/>
<text text-anchor="start" x="1364.5" y="-141.8" font-family="Times New Roman,serif" font-size="14.00">Optional[date]</text>
<polygon fill="none" stroke="black" points="913.5,-114 913.5,-135 1091.5,-135 1091.5,-114 913.5,-114"/>
<text text-anchor="start" x="971.5" y="-120.8" font-family="Times New Roman,serif" font-size="14.00">restrictions</text>
<polygon fill="none" stroke="black" points="1091.5,-114 1091.5,-135 1718.5,-135 1718.5,-114 1091.5,-114"/>
<text text-anchor="start" x="1301" y="-120.8" font-family="Times New Roman,serif" font-size="14.00">Optional[list[OperationalRestriction]]</text>
</a>
</g>
</g>
<!-- eya_def_tools.data_models.wind_farm.TurbineConfiguration&#45;&gt;eya_def_tools.data_models.spatial.Location -->
<g id="edge1" class="edge">
<title>eya_def_tools.data_models.wind_farm.TurbineConfiguration:e&#45;&gt;eya_def_tools.data_models.spatial.Location:w</title>
<path fill="none" stroke="black" d="M1718,-251C1901.82,-251 1951.47,-251 2128.08,-251"/>
<polyline fill="none" stroke="black" points="2143,-251 2138,-251"/>
<polygon fill="black" stroke="black" points="2137,-246 2137,-256 2135,-256 2135,-246 2137,-246"/>
<polyline fill="none" stroke="black" points="2138,-251 2133,-251"/>
<polygon fill="black" stroke="black" points="2132,-246 2132,-256 2130,-256 2130,-246 2132,-246"/>
<polyline fill="none" stroke="black" points="2133,-251 2128,-251"/>
</g>
<!-- eya_def_tools.data_models.wind_farm.TurbineConfiguration&#45;&gt;eya_def_tools.data_models.wind_farm.OperationalRestriction -->
<g id="edge2" class="edge">
<title>eya_def_tools.data_models.wind_farm.TurbineConfiguration:e&#45;&gt;eya_def_tools.data_models.wind_farm.OperationalRestriction:w</title>
<path fill="none" stroke="black" d="M1718,-124C1761.02,-124 1772.89,-100.37 1807.15,-93.72"/>
<polyline fill="none" stroke="black" points="1826,-92 1821.02,-92.45"/>
<polygon fill="black" stroke="black" points="1819.57,-87.57 1820.48,-97.52 1818.49,-97.71 1817.58,-87.75 1819.57,-87.57"/>
<polyline fill="none" stroke="black" points="1821.02,-92.45 1816.04,-92.91"/>
<ellipse fill="none" stroke="black" cx="1811.56" cy="-93.32" rx="4" ry="4"/>
</g>
<!-- eya_def_tools.data_models.wind_farm.WindFarmConfiguration -->
<g id="node4" class="node">
<title>eya_def_tools.data_models.wind_farm.WindFarmConfiguration</title>
<g id="a_node4"><a xlink:title="eya_def_tools.data_models.wind_farm.WindFarmConfiguration&#10;&#10;A collection of wind turbines considered as one unit (plant).&#10;&#10;Attributes:&#10; &#160;&#160;&#160;id (str): Unique identifier of the wind farm.&#10; &#160;&#160;&#160;label (str): Label or name of the wind farm.&#10; &#160;&#160;&#160;abbreviation (Optional[Annotated[str, FieldInfo(annotation=NoneType, required=True, metadata=[MinLen(min_length=1)])]]): Optional abbreviated label of the wind farm. Default is None.&#10; &#160;&#160;&#160;description (Optional[Annotated[str, FieldInfo(annotation=NoneType, required=True, metadata=[MinLen(min_length=1)])]]): Optional description of the wind farm, which should not be empty if the field is included. Default is None.&#10; &#160;&#160;&#160;comments (Optional[Annotated[str, FieldInfo(annotation=NoneType, required=True, metadata=[MinLen(min_length=1)])]]): Optional comments on the wind farm, which should not be empty if the field is included. Default is None.&#10; &#160;&#160;&#160;turbines (list[TurbineConfiguration]): List of specifications for constituent turbines.&#10; &#160;&#160;&#160;relevance (WindFarmRelevance(StrEnum)): The relevance of the wind farm for the assessment (&#39;internal&#39;, &#39;external&#39; or &#39;future&#39;).&#10; &#160;&#160;&#160;operational_lifetime_start_date (date): Operational lifetime start date of the wind farm in the ISO 8601 standard format for a calendar date, i.e. YYYY&#45;MM&#45;DD.&#10; &#160;&#160;&#160;operational_lifetime_end_date (Optional[date]): Operational lifetime end date of the wind farm in the ISO 8601 standard format for a calendar date, i.e. YYYY&#45;MM&#45;DD. Default is None.&#10; &#160;&#160;&#160;installed_capacity (float): The maximum production (in MW) of the wind farm under typical conditions. If there are features in place to increase power output beyond the stated nameplate power of the turbines (e.g. so&#45;called power boost solutions), the wind farm installed capacity should correspond to that increased power, insofar as it is reached under typical conditions and not only in rare exceptions.&#10; &#160;&#160;&#160;export_capacity (Optional[float]): Optional specification of the maximum permanently transmittable power (in MW) from the wind farm at the grid connection, or equivalent, if known. If not included it shall be assumed that the wind farm can transmit the full produced output. Default is None.&#10; &#160;&#160;&#160;restrictions (Optional[list[OperationalRestriction]]): List of operational restrictions at the wind farm level. Default is None.&#10;">
<polygon fill="none" stroke="black" points="0.5,-386 0.5,-407 805.5,-407 805.5,-386 0.5,-386"/>
<text text-anchor="start" x="326.5" y="-393.8" font-family="Times New Roman,serif" font-weight="bold" font-size="14.00">WindFarmConfiguration</text>
<polygon fill="none" stroke="black" points="0.5,-365 0.5,-386 178.5,-386 178.5,-365 0.5,-365"/>
<text text-anchor="start" x="84" y="-371.8" font-family="Times New Roman,serif" font-size="14.00">id</text>
<polygon fill="none" stroke="black" points="178.5,-365 178.5,-386 805.5,-386 805.5,-365 178.5,-365"/>
<text text-anchor="start" x="484.5" y="-371.8" font-family="Times New Roman,serif" font-size="14.00">str</text>
<polygon fill="none" stroke="black" points="0.5,-344 0.5,-365 178.5,-365 178.5,-344 0.5,-344"/>
<text text-anchor="start" x="76.5" y="-350.8" font-family="Times New Roman,serif" font-size="14.00">label</text>
<polygon fill="none" stroke="black" points="178.5,-344 178.5,-365 805.5,-365 805.5,-344 178.5,-344"/>
<text text-anchor="start" x="484.5" y="-350.8" font-family="Times New Roman,serif" font-size="14.00">str</text>
<polygon fill="none" stroke="black" points="0.5,-323 0.5,-344 178.5,-344 178.5,-323 0.5,-323"/>
<text text-anchor="start" x="55" y="-329.8" font-family="Times New Roman,serif" font-size="14.00">abbreviation</text>
<polygon fill="none" stroke="black" points="178.5,-323 178.5,-344 805.5,-344 805.5,-323 178.5,-323"/>
<text text-anchor="start" x="181.5" y="-329.8" font-family="Times New Roman,serif" font-size="14.00">Optional[Annotated[str, FieldInfo(annotation=NoneType, required=True, metadata=[MinLen(min_length=1)])]]</text>
<polygon fill="none" stroke="black" points="0.5,-302 0.5,-323 178.5,-323 178.5,-302 0.5,-302"/>
<text text-anchor="start" x="58" y="-308.8" font-family="Times New Roman,serif" font-size="14.00">description</text>
<polygon fill="none" stroke="black" points="178.5,-302 178.5,-323 805.5,-323 805.5,-302 178.5,-302"/>
<text text-anchor="start" x="181.5" y="-308.8" font-family="Times New Roman,serif" font-size="14.00">Optional[Annotated[str, FieldInfo(annotation=NoneType, required=True, metadata=[MinLen(min_length=1)])]]</text>
<polygon fill="none" stroke="black" points="0.5,-281 0.5,-302 178.5,-302 178.5,-281 0.5,-281"/>
<text text-anchor="start" x="60.5" y="-287.8" font-family="Times New Roman,serif" font-size="14.00">comments</text>
<polygon fill="none" stroke="black" points="178.5,-281 178.5,-302 805.5,-302 805.5,-281 178.5,-281"/>
<text text-anchor="start" x="181.5" y="-287.8" font-family="Times New Roman,serif" font-size="14.00">Optional[Annotated[str, FieldInfo(annotation=NoneType, required=True, metadata=[MinLen(min_length=1)])]]</text>
<polygon fill="none" stroke="black" points="0.5,-260 0.5,-281 178.5,-281 178.5,-260 0.5,-260"/>
<text text-anchor="start" x="67" y="-266.8" font-family="Times New Roman,serif" font-size="14.00">turbines</text>
<polygon fill="none" stroke="black" points="178.5,-260 178.5,-281 805.5,-281 805.5,-260 178.5,-260"/>
<text text-anchor="start" x="419.5" y="-266.8" font-family="Times New Roman,serif" font-size="14.00">list[TurbineConfiguration]</text>
<polygon fill="none" stroke="black" points="0.5,-239 0.5,-260 178.5,-260 178.5,-239 0.5,-239"/>
<text text-anchor="start" x="63.5" y="-245.8" font-family="Times New Roman,serif" font-size="14.00">relevance</text>
<polygon fill="none" stroke="black" points="178.5,-239 178.5,-260 805.5,-260 805.5,-239 178.5,-239"/>
<text text-anchor="start" x="404.5" y="-245.8" font-family="Times New Roman,serif" font-size="14.00">WindFarmRelevance(StrEnum)</text>
<polygon fill="none" stroke="black" points="0.5,-218 0.5,-239 178.5,-239 178.5,-218 0.5,-218"/>
<text text-anchor="start" x="3.5" y="-224.8" font-family="Times New Roman,serif" font-size="14.00">operational_lifetime_start_date</text>
<polygon fill="none" stroke="black" points="178.5,-218 178.5,-239 805.5,-239 805.5,-218 178.5,-218"/>
<text text-anchor="start" x="480" y="-224.8" font-family="Times New Roman,serif" font-size="14.00">date</text>
<polygon fill="none" stroke="black" points="0.5,-197 0.5,-218 178.5,-218 178.5,-197 0.5,-197"/>
<text text-anchor="start" x="5.5" y="-203.8" font-family="Times New Roman,serif" font-size="14.00">operational_lifetime_end_date</text>
<polygon fill="none" stroke="black" points="178.5,-197 178.5,-218 805.5,-218 805.5,-197 178.5,-197"/>
<text text-anchor="start" x="451.5" y="-203.8" font-family="Times New Roman,serif" font-size="14.00">Optional[date]</text>
<polygon fill="none" stroke="black" points="0.5,-176 0.5,-197 178.5,-197 178.5,-176 0.5,-176"/>
<text text-anchor="start" x="39.5" y="-182.8" font-family="Times New Roman,serif" font-size="14.00">installed_capacity</text>
<polygon fill="none" stroke="black" points="178.5,-176 178.5,-197 805.5,-197 805.5,-176 178.5,-176"/>
<text text-anchor="start" x="479.5" y="-182.8" font-family="Times New Roman,serif" font-size="14.00">float</text>
<polygon fill="none" stroke="black" points="0.5,-155 0.5,-176 178.5,-176 178.5,-155 0.5,-155"/>
<text text-anchor="start" x="44" y="-161.8" font-family="Times New Roman,serif" font-size="14.00">export_capacity</text>
<polygon fill="none" stroke="black" points="178.5,-155 178.5,-176 805.5,-176 805.5,-155 178.5,-155"/>
<text text-anchor="start" x="451" y="-161.8" font-family="Times New Roman,serif" font-size="14.00">Optional[float]</text>
<polygon fill="none" stroke="black" points="0.5,-134 0.5,-155 178.5,-155 178.5,-134 0.5,-134"/>
<text text-anchor="start" x="58.5" y="-140.8" font-family="Times New Roman,serif" font-size="14.00">restrictions</text>
<polygon fill="none" stroke="black" points="178.5,-134 178.5,-155 805.5,-155 805.5,-134 178.5,-134"/>
<text text-anchor="start" x="388" y="-140.8" font-family="Times New Roman,serif" font-size="14.00">Optional[list[OperationalRestriction]]</text>
</a>
</g>
</g>
<!-- eya_def_tools.data_models.wind_farm.WindFarmConfiguration&#45;&gt;eya_def_tools.data_models.wind_farm.OperationalRestriction -->
<g id="edge3" class="edge">
<title>eya_def_tools.data_models.wind_farm.WindFarmConfiguration:e&#45;&gt;eya_def_tools.data_models.wind_farm.OperationalRestriction:w</title>
<path fill="none" stroke="black" d="M805,-144C857.53,-144 861.64,-107.02 913,-96 1303.56,-12.22 1416.7,-89.51 1807.19,-91.94"/>
<polyline fill="none" stroke="black" points="1826,-92 1821,-91.98"/>
<polygon fill="black" stroke="black" points="1820.02,-86.98 1819.98,-96.98 1817.98,-96.98 1818.02,-86.98 1820.02,-86.98"/>
<polyline fill="none" stroke="black" points="1821,-91.98 1816,-91.97"/>
<ellipse fill="none" stroke="black" cx="1811.5" cy="-91.95" rx="4" ry="4"/>
</g>
<!-- eya_def_tools.data_models.wind_farm.WindFarmConfiguration&#45;&gt;eya_def_tools.data_models.wind_farm.TurbineConfiguration -->
<g id="edge4" class="edge">
<title>eya_def_tools.data_models.wind_farm.WindFarmConfiguration:e&#45;&gt;eya_def_tools.data_models.wind_farm.TurbineConfiguration:w</title>
<path fill="none" stroke="black" d="M805,-270C859.17,-270 854.05,-337.02 894.32,-352.73"/>
<polygon fill="black" stroke="black" points="903.15,-354.28 912.22,-360.43 908.07,-355.14 913,-356 913,-356 913,-356 908.07,-355.14 913.78,-351.57 903.15,-354.28 903.15,-354.28"/>
<ellipse fill="none" stroke="black" cx="898.72" cy="-353.5" rx="4" ry="4"/>
</g>
</g>
</svg>
